<svg xmlns="http://www.w3.org/2000/svg" version="1.1" viewBox="0 0 720 720" width="720px" height="720px" style="shape-rendering:geometricPrecision; text-rendering:geometricPrecision; image-rendering:optimizeQuality; fill-rule:evenodd; clip-rule:evenodd" xmlns:xlink="http://www.w3.org/1999/xlink">
<g><path style="opacity:0.998" fill="#f2373a" d="M 334.5,34.5 C 456.969,29.4942 554.469,75.8275 627,173.5C 684.402,260.299 699.069,353.966 671,454.5C 634.833,562.667 562.667,634.833 454.5,671C 353.966,699.069 260.299,684.402 173.5,627C 72.0518,551.568 26.2184,450.401 36,323.5C 51.2664,213.042 106.766,129.875 202.5,74C 243.925,51.8159 287.925,38.6492 334.5,34.5 Z"/></g>
<g><path style="opacity:1" fill="#fabebf" d="M 569.5,365.5 C 569.167,365.5 568.833,365.5 568.5,365.5C 568.5,316.167 568.5,266.833 568.5,217.5C 524.663,217.168 480.997,217.501 437.5,218.5C 436.833,218.833 436.167,219.167 435.5,219.5C 435.414,218.504 435.748,217.671 436.5,217C 480.832,216.5 525.165,216.333 569.5,216.5C 569.5,266.167 569.5,315.833 569.5,365.5 Z"/></g>
<g><path style="opacity:1" fill="#fab9ba" d="M 282.5,217.5 C 238.5,217.5 194.5,217.5 150.5,217.5C 150.5,266.833 150.5,316.167 150.5,365.5C 149.501,316.003 149.168,266.336 149.5,216.5C 194.003,216.168 238.336,216.501 282.5,217.5 Z"/></g>
<g><path style="opacity:1" fill="#fef3f3" d="M 282.5,217.5 C 282.5,217.833 282.5,218.167 282.5,218.5C 238.833,218.5 195.167,218.5 151.5,218.5C 151.176,268.209 151.509,317.875 152.5,367.5C 151.5,367.167 150.833,366.5 150.5,365.5C 150.5,316.167 150.5,266.833 150.5,217.5C 194.5,217.5 238.5,217.5 282.5,217.5 Z"/></g>
<g><path style="opacity:1" fill="#fffefe" d="M 282.5,218.5 C 283.833,219.5 285.167,220.5 286.5,221.5C 286.833,223.833 288.167,225.167 290.5,225.5C 291.5,225.833 292.167,226.5 292.5,227.5C 293.5,229.167 294.833,230.5 296.5,231.5C 296.525,234.179 297.858,235.512 300.5,235.5C 301.5,235.833 302.167,236.5 302.5,237.5C 303.5,239.167 304.833,240.5 306.5,241.5C 307.833,242.833 309.167,244.167 310.5,245.5C 310.525,248.179 311.858,249.512 314.5,249.5C 315.5,251.167 316.833,252.5 318.5,253.5C 318.525,256.179 319.858,257.512 322.5,257.5C 322.525,260.179 323.858,261.512 326.5,261.5C 327.5,263.167 328.833,264.5 330.5,265.5C 330.833,266.5 331.5,267.167 332.5,267.5C 332.833,270.5 334.5,272.167 337.5,272.5C 338.5,274.167 339.833,275.5 341.5,276.5C 341.525,279.179 342.858,280.512 345.5,280.5C 345.525,283.179 346.858,284.512 349.5,284.5C 350.5,286.167 351.833,287.5 353.5,288.5C 353.525,291.179 354.858,292.512 357.5,292.5C 358.204,294.344 359.537,294.844 361.5,294C 370.702,284.965 379.702,275.798 388.5,266.5C 392.833,262.833 396.833,258.833 400.5,254.5C 404.5,251.167 408.167,247.5 411.5,243.5C 415.5,240.167 419.167,236.5 422.5,232.5C 422.5,231.833 422.833,231.5 423.5,231.5C 427.566,228.437 430.899,224.771 433.5,220.5C 434.167,220.167 434.833,219.833 435.5,219.5C 436.167,219.167 436.833,218.833 437.5,218.5C 480.833,218.5 524.167,218.5 567.5,218.5C 567.5,267.833 567.5,317.167 567.5,366.5C 566.167,368.167 564.833,369.833 563.5,371.5C 562.167,372.167 561.167,373.167 560.5,374.5C 556.5,377.833 552.833,381.5 549.5,385.5C 545.833,388.5 542.5,391.833 539.5,395.5C 534.833,399.5 530.5,403.833 526.5,408.5C 524.833,409.5 523.5,410.833 522.5,412.5C 519.5,414.833 516.833,417.5 514.5,420.5C 510.5,423.833 506.833,427.5 503.5,431.5C 502.5,431.833 501.833,432.5 501.5,433.5C 497.833,436.5 494.5,439.833 491.5,443.5C 487.5,446.833 483.833,450.5 480.5,454.5C 479.5,454.833 478.833,455.5 478.5,456.5C 474.833,459.5 471.5,462.833 468.5,466.5C 467.5,466.833 466.833,467.5 466.5,468.5C 462.833,471.5 459.5,474.833 456.5,478.5C 455.5,478.833 454.833,479.5 454.5,480.5C 451.167,483.167 448.167,486.167 445.5,489.5C 443.833,490.5 442.5,491.833 441.5,493.5C 438.5,495.833 435.833,498.5 433.5,501.5C 432.5,501.833 431.833,502.5 431.5,503.5C 427.833,506.5 424.5,509.833 421.5,513.5C 417.833,516.5 414.5,519.833 411.5,523.5C 406.5,527.833 401.833,532.5 397.5,537.5C 393.833,540.5 390.5,543.833 387.5,547.5C 382.833,551.5 378.5,555.833 374.5,560.5C 370.833,563.5 367.5,566.833 364.5,570.5C 363.5,571.167 362.5,571.833 361.5,572.5C 359.784,572.371 358.117,572.038 356.5,571.5C 288.167,503.833 220.167,435.833 152.5,367.5C 151.509,317.875 151.176,268.209 151.5,218.5C 195.167,218.5 238.833,218.5 282.5,218.5 Z"/></g>
<g><path style="opacity:1" fill="#f55d5c" d="M 282.5,218.5 C 282.5,218.167 282.5,217.833 282.5,217.5C 285.179,217.525 286.512,218.858 286.5,221.5C 285.167,220.5 283.833,219.5 282.5,218.5 Z"/></g>
<g><path style="opacity:1" fill="#fef6f6" d="M 437.5,218.5 C 480.997,217.501 524.663,217.168 568.5,217.5C 568.5,266.833 568.5,316.167 568.5,365.5C 568.5,366.167 568.167,366.5 567.5,366.5C 567.5,317.167 567.5,267.833 567.5,218.5C 524.167,218.5 480.833,218.5 437.5,218.5 Z"/></g>
<g><path style="opacity:1" fill="#fcb4b4" d="M 286.5,221.5 C 288.167,222.5 289.5,223.833 290.5,225.5C 288.167,225.167 286.833,223.833 286.5,221.5 Z"/></g>
<g><path style="opacity:1" fill="#fcb4b5" d="M 433.5,220.5 C 430.899,224.771 427.566,228.437 423.5,231.5C 426.101,227.229 429.434,223.563 433.5,220.5 Z"/></g>
<g><path style="opacity:1" fill="#f55e5c" d="M 292.5,227.5 C 295.179,227.525 296.512,228.858 296.5,231.5C 294.833,230.5 293.5,229.167 292.5,227.5 Z"/></g>
<g><path style="opacity:1" fill="#fecece" d="M 296.5,231.5 C 298.167,232.5 299.5,233.833 300.5,235.5C 297.858,235.512 296.525,234.179 296.5,231.5 Z"/></g>
<g><path style="opacity:1" fill="#f6605f" d="M 302.5,237.5 C 305.179,237.525 306.512,238.858 306.5,241.5C 304.833,240.5 303.5,239.167 302.5,237.5 Z"/></g>
<g><path style="opacity:1" fill="#fcb5b5" d="M 422.5,232.5 C 419.167,236.5 415.5,240.167 411.5,243.5C 414.167,238.833 417.833,235.167 422.5,232.5 Z"/></g>
<g><path style="opacity:1" fill="#fecdcd" d="M 310.5,245.5 C 312.167,246.5 313.5,247.833 314.5,249.5C 311.858,249.512 310.525,248.179 310.5,245.5 Z"/></g>
<g><path style="opacity:1" fill="#f6605e" d="M 314.5,249.5 C 317.179,249.525 318.512,250.858 318.5,253.5C 316.833,252.5 315.5,251.167 314.5,249.5 Z"/></g>
<g><path style="opacity:1" fill="#fcb5b5" d="M 411.5,243.5 C 408.167,247.5 404.5,251.167 400.5,254.5C 403.167,249.833 406.833,246.167 411.5,243.5 Z"/></g>
<g><path style="opacity:1" fill="#fed1d1" d="M 318.5,253.5 C 320.167,254.5 321.5,255.833 322.5,257.5C 319.858,257.512 318.525,256.179 318.5,253.5 Z"/></g>
<g><path style="opacity:1" fill="#fecece" d="M 322.5,257.5 C 324.167,258.5 325.5,259.833 326.5,261.5C 323.858,261.512 322.525,260.179 322.5,257.5 Z"/></g>
<g><path style="opacity:1" fill="#fcb4b4" d="M 400.5,254.5 C 396.833,258.833 392.833,262.833 388.5,266.5C 391.5,261.5 395.5,257.5 400.5,254.5 Z"/></g>
<g><path style="opacity:1" fill="#f5605f" d="M 326.5,261.5 C 329.179,261.525 330.512,262.858 330.5,265.5C 328.833,264.5 327.5,263.167 326.5,261.5 Z"/></g>
<g><path style="opacity:1" fill="#fdc1c2" d="M 332.5,267.5 C 334.5,268.833 336.167,270.5 337.5,272.5C 334.5,272.167 332.833,270.5 332.5,267.5 Z"/></g>
<g><path style="opacity:1" fill="#f66160" d="M 337.5,272.5 C 340.179,272.525 341.512,273.858 341.5,276.5C 339.833,275.5 338.5,274.167 337.5,272.5 Z"/></g>
<g><path style="opacity:1" fill="#fcb6b6" d="M 388.5,266.5 C 379.702,275.798 370.702,284.965 361.5,294C 359.537,294.844 358.204,294.344 357.5,292.5C 358.423,293.303 359.423,293.47 360.5,293C 369.421,283.575 378.754,274.742 388.5,266.5 Z"/></g>
<g><path style="opacity:1" fill="#fed3d2" d="M 341.5,276.5 C 343.167,277.5 344.5,278.833 345.5,280.5C 342.858,280.512 341.525,279.179 341.5,276.5 Z"/></g>
<g><path style="opacity:1" fill="#fecfcf" d="M 345.5,280.5 C 347.167,281.5 348.5,282.833 349.5,284.5C 346.858,284.512 345.525,283.179 345.5,280.5 Z"/></g>
<g><path style="opacity:1" fill="#f66260" d="M 349.5,284.5 C 352.179,284.525 353.512,285.858 353.5,288.5C 351.833,287.5 350.5,286.167 349.5,284.5 Z"/></g>
<g><path style="opacity:1" fill="#fed2d2" d="M 353.5,288.5 C 355.167,289.5 356.5,290.833 357.5,292.5C 354.858,292.512 353.525,291.179 353.5,288.5 Z"/></g>
<g><path style="opacity:1" fill="#f56061" d="M 568.5,365.5 C 568.833,365.5 569.167,365.5 569.5,365.5C 568.5,368.5 566.5,370.5 563.5,371.5C 564.833,369.833 566.167,368.167 567.5,366.5C 568.167,366.5 568.5,366.167 568.5,365.5 Z"/></g>
<g><path style="opacity:1" fill="#f55e5e" d="M 560.5,374.5 C 557.861,379.139 554.194,382.806 549.5,385.5C 552.833,381.5 556.5,377.833 560.5,374.5 Z"/></g>
<g><path style="opacity:1" fill="#f56060" d="M 549.5,385.5 C 547.167,389.833 543.833,393.167 539.5,395.5C 542.5,391.833 545.833,388.5 549.5,385.5 Z"/></g>
<g><path style="opacity:1" fill="#f45b5b" d="M 539.5,395.5 C 536.167,400.833 531.833,405.167 526.5,408.5C 530.5,403.833 534.833,399.5 539.5,395.5 Z"/></g>
<g><path style="opacity:1" fill="#f45a5a" d="M 522.5,412.5 C 520.789,416.211 518.123,418.878 514.5,420.5C 516.833,417.5 519.5,414.833 522.5,412.5 Z"/></g>
<g><path style="opacity:1" fill="#f55c5c" d="M 514.5,420.5 C 511.877,425.123 508.21,428.79 503.5,431.5C 506.833,427.5 510.5,423.833 514.5,420.5 Z"/></g>
<g><path style="opacity:1" fill="#f45e5e" d="M 501.5,433.5 C 499.167,437.833 495.833,441.167 491.5,443.5C 494.5,439.833 497.833,436.5 501.5,433.5 Z"/></g>
<g><path style="opacity:1" fill="#f45b5b" d="M 491.5,443.5 C 488.877,448.123 485.21,451.79 480.5,454.5C 483.833,450.5 487.5,446.833 491.5,443.5 Z"/></g>
<g><path style="opacity:1" fill="#f45d5e" d="M 478.5,456.5 C 476.167,460.833 472.833,464.167 468.5,466.5C 471.5,462.833 474.833,459.5 478.5,456.5 Z"/></g>
<g><path style="opacity:1" fill="#f45a5b" d="M 466.5,468.5 C 464.167,472.833 460.833,476.167 456.5,478.5C 459.5,474.833 462.833,471.5 466.5,468.5 Z"/></g>
<g><path style="opacity:1" fill="#f45c5d" d="M 454.5,480.5 C 452.5,484.5 449.5,487.5 445.5,489.5C 448.167,486.167 451.167,483.167 454.5,480.5 Z"/></g>
<g><path style="opacity:1" fill="#f45b5b" d="M 441.5,493.5 C 439.833,497.167 437.167,499.833 433.5,501.5C 435.833,498.5 438.5,495.833 441.5,493.5 Z"/></g>
<g><path style="opacity:1" fill="#f45959" d="M 431.5,503.5 C 429.167,507.833 425.833,511.167 421.5,513.5C 424.5,509.833 427.833,506.5 431.5,503.5 Z"/></g>
<g><path style="opacity:1" fill="#f45959" d="M 421.5,513.5 C 419.21,517.79 415.877,521.123 411.5,523.5C 414.5,519.833 417.833,516.5 421.5,513.5 Z"/></g>
<g><path style="opacity:1" fill="#f45a5a" d="M 397.5,537.5 C 395.167,541.833 391.833,545.167 387.5,547.5C 390.5,543.833 393.833,540.5 397.5,537.5 Z"/></g>
<g><path style="opacity:1" fill="#f45757" d="M 374.5,560.5 C 372.21,564.79 368.877,568.123 364.5,570.5C 367.5,566.833 370.833,563.5 374.5,560.5 Z"/></g>
<g><path style="opacity:1" fill="#fdcece" d="M 356.5,571.5 C 358.117,572.038 359.784,572.371 361.5,572.5C 359.543,575.059 357.877,574.726 356.5,571.5 Z"/></g>
</svg>
