<svg width="510" height="511" viewBox="0 0 510 511" fill="none" xmlns="http://www.w3.org/2000/svg">
<g clip-path="url(#clip0_2433_3770)">
<path d="M254.8 510.401C395.5 510.401 509.6 396.301 509.6 255.601C509.6 114.901 395.5 0.800781 254.8 0.800781C114.1 0.800781 0 114.801 0 255.601C0 396.301 114.1 510.401 254.8 510.401Z" fill="black"/>
<path d="M169.8 369.201L205.3 308.001L240.8 247.001L276.1 185.801L281.9 176.101L284.5 185.801L295.3 226.101L283.2 247.001L247.7 308.001L212.4 369.201H254.8L290.3 308.001L308.7 276.301L317.4 308.001L333.8 369.201H371.9L355.5 308.001L339 247.001L334.7 231.301L361.1 185.801H322.6L321.3 181.301L307.9 131.301L306.2 124.801H269.2L268.3 126.101L233.7 185.801L198.2 247.001L162.9 308.001L127.4 369.201H169.8Z" fill="white"/>
</g>
<defs>
<clipPath id="clip0_2433_3770">
<rect width="510" height="511" fill="white"/>
</clipPath>
</defs>
</svg>
