<svg focusable="false" aria-hidden="true" viewBox="0 0 46 44" height="44" width="46" xmlns="http://www.w3.org/2000/svg"><path d="M24.3412 43.355C24.6659 43.355 24.9782 43.2925 25.278 43.1675C25.5778 43.0426 25.8526 42.8677 26.0774 42.6303L45.2755 23.4267C45.5004 23.2018 45.6877 22.9269 45.8126 22.627C45.9376 22.3272 46 22.0148 46 21.69C46 21.3651 45.9376 21.0528 45.8126 20.7529C45.6877 20.453 45.5129 20.1782 45.2755 19.9533L26.0774 0.749644C25.8526 0.524748 25.5778 0.337334 25.278 0.212392C24.9782 0.0874498 24.6659 0.0249786 24.3412 0.0249786V43.355Z" fill="#6667AB"></path><path d="M21.6557 35.2712C21.0312 35.2712 20.3941 35.1212 19.9195 34.8214L0.721336 22.7894C-0.240445 22.1897 -0.240445 21.2152 0.721336 20.6154L19.9195 8.57101C20.3941 8.27115 21.0312 8.12122 21.6557 8.12122V35.2712Z" fill="#6667AB" opacity="0.5"></path><path d="M21.6557 27.15C21.0312 27.15 20.3941 27 19.9195 26.7002L0.721336 14.6682C-0.240445 14.0685 -0.240445 13.0939 0.721336 12.4942L19.9195 0.449792C20.3941 0.149931 21.0312 0 21.6557 0V27.15Z" fill="#6667AB" opacity="0.5"></path><path d="M21.6557 43.3925C21.0312 43.3925 20.3941 43.2425 19.9195 42.9427L0.721336 30.8982C-0.240445 30.2985 -0.240445 29.324 0.721336 28.7243L19.9195 16.6798C20.3941 16.38 21.0312 16.23 21.6557 16.23V43.38V43.3925Z" fill="#6667AB" opacity="0.5"></path></svg>