<svg xmlns="http://www.w3.org/2000/svg" version="1.1" width="433" height="433" viewBox="0 0 433 433" style="shape-rendering:geometricPrecision; text-rendering:geometricPrecision; image-rendering:optimizeQuality; fill-rule:evenodd; clip-rule:evenodd" xmlns:xlink="http://www.w3.org/1999/xlink">
<g><path style="opacity:1" fill="#fdd274" d="M 229.5,1.5 C 245.111,2.70033 260.445,5.367 275.5,9.5C 285.73,13.2669 296.063,17.1002 306.5,21C 316.522,26.7026 326.522,32.3693 336.5,38C 341.726,42.7059 347.226,46.8726 353,50.5C 353.765,50.4301 354.265,50.0967 354.5,49.5C 382.897,72.225 403.563,100.558 416.5,134.5C 417.234,140.511 416.901,146.511 415.5,152.5C 417.974,158.886 419.641,165.553 420.5,172.5C 422.247,170.956 423.247,168.956 423.5,166.5C 422.532,163.174 422.032,159.841 422,156.5C 424.554,164.078 426.721,171.744 428.5,179.5C 428.343,186.716 428.343,193.883 428.5,201C 427.884,203.179 426.717,205.012 425,206.5C 424.831,212.859 424.331,219.193 423.5,225.5C 422.009,226.348 421.342,227.681 421.5,229.5C 421.83,232.324 422.664,234.991 424,237.5C 424.333,237.167 424.667,236.833 425,236.5C 425.167,238.167 425.333,239.833 425.5,241.5C 424.443,245.566 423.443,249.733 422.5,254C 422.231,255.607 421.397,256.774 420,257.5C 419.833,259.333 419.667,261.167 419.5,263C 419.547,265.295 420.213,267.129 421.5,268.5C 420.571,275.778 418.738,282.778 416,289.5C 409.421,303.779 402.587,317.779 395.5,331.5C 392.715,333.711 390.382,336.377 388.5,339.5C 387.099,339.029 385.766,338.362 384.5,337.5C 385.506,336.604 385.506,335.938 384.5,335.5C 383.049,337.559 381.049,338.559 378.5,338.5C 379.213,333.924 377.38,330.924 373,329.5C 372.667,328.5 372.333,327.5 372,326.5C 367.833,323.667 364.333,320.167 361.5,316C 357.943,313.899 354.61,314.066 351.5,316.5C 353.344,312.808 355.677,309.475 358.5,306.5C 358.937,303.775 360.27,301.775 362.5,300.5C 363.978,300.762 365.311,300.429 366.5,299.5C 369.732,290.583 373.565,281.916 378,273.5C 381.045,263.945 383.712,254.278 386,244.5C 386.499,240.514 386.666,236.514 386.5,232.5C 387.472,223.25 387.805,213.917 387.5,204.5C 387.713,197.182 386.713,190.182 384.5,183.5C 383.949,180.193 383.616,176.86 383.5,173.5C 383.089,168.299 382.422,163.133 381.5,158C 381.645,157.228 381.978,156.561 382.5,156C 378.78,151.176 375.613,146.009 373,140.5C 372.545,137.863 373.045,135.363 374.5,133C 374.167,132.167 373.833,131.333 373.5,130.5C 372.996,133.342 371.329,134.675 368.5,134.5C 368.613,131.951 367.946,129.618 366.5,127.5C 362.576,121.266 358.743,114.932 355,108.5C 352.522,106.18 349.689,104.514 346.5,103.5C 344.191,99.86 341.524,96.5266 338.5,93.5C 338.337,91.1432 338.503,88.8098 339,86.5C 341.124,85.7728 343.291,85.1062 345.5,84.5C 346.833,83.8333 346.833,83.1667 345.5,82.5C 341.473,80.8416 338.473,82.0083 336.5,86C 333.678,86.6987 332.012,85.5321 331.5,82.5C 330.271,81.7189 328.938,81.2189 327.5,81C 323.816,77.2478 320.15,73.5811 316.5,70C 311.559,68.2069 306.559,66.7069 301.5,65.5C 288.9,58.2023 275.566,52.5357 261.5,48.5C 259.139,48.3259 256.806,47.9926 254.5,47.5C 251.548,45.5902 248.214,44.5902 244.5,44.5C 241.763,44.5987 239.096,44.2653 236.5,43.5C 229.724,42.0387 222.724,41.372 215.5,41.5C 210.987,41.5009 206.653,41.8343 202.5,42.5C 193.113,42.6732 183.78,43.5065 174.5,45C 172.24,45.5494 170.574,46.716 169.5,48.5C 159.65,51.3769 149.984,54.7102 140.5,58.5C 135.494,57.801 131.827,59.6344 129.5,64C 128.207,64.49 126.873,64.6567 125.5,64.5C 125.338,62.4727 125.505,60.4727 126,58.5C 126.75,57.8742 127.584,57.3742 128.5,57C 125.774,56.8184 123.107,56.3184 120.5,55.5C 118.043,49.8585 114.543,44.8585 110,40.5C 108.917,37.7334 107.75,35.0668 106.5,32.5C 111.874,28.33 117.708,24.6633 124,21.5C 131.765,18.1348 139.598,14.9681 147.5,12C 155.681,9.27501 164.015,6.94168 172.5,5C 177.118,4.00601 181.785,3.50601 186.5,3.5C 200.778,1.85902 215.111,1.19235 229.5,1.5 Z"/></g>
<g><path style="opacity:0.688" fill="#bc8e41" d="M 275.5,9.5 C 278.079,9.86519 280.412,9.86519 282.5,9.5C 309.25,18.2011 333.25,31.5345 354.5,49.5C 354.265,50.0967 353.765,50.4301 353,50.5C 347.226,46.8726 341.726,42.7059 336.5,38C 326.522,32.3693 316.522,26.7026 306.5,21C 296.063,17.1002 285.73,13.2669 275.5,9.5 Z"/></g>
<g><path style="opacity:1" fill="#cea35b" d="M 202.5,42.5 C 206.653,41.8343 210.987,41.5009 215.5,41.5C 222.724,41.372 229.724,42.0387 236.5,43.5C 225.179,42.8194 213.846,42.4861 202.5,42.5 Z"/></g>
<g><path style="opacity:1" fill="#fcddad" d="M 101.5,35.5 C 102.708,36.2341 104.041,36.5674 105.5,36.5C 110.897,43.6433 115.564,51.31 119.5,59.5C 122.642,60.7822 123.975,63.1155 123.5,66.5C 124.5,66.5 125.5,66.5 126.5,66.5C 114.591,74.739 103.257,83.739 92.5,93.5C 90.1275,90.1086 87.2941,87.1086 84,84.5C 83.0153,81.017 80.8486,78.6836 77.5,77.5C 74.9701,74.3105 72.3035,71.1439 69.5,68C 68.3906,65.9534 67.7239,63.7867 67.5,61.5C 77.0844,52.0815 87.4178,43.5815 98.5,36C 99.448,35.5172 100.448,35.3505 101.5,35.5 Z"/></g>
<g><path style="opacity:1" fill="#e5bb6d" d="M 202.5,42.5 C 191.361,43.437 180.361,45.437 169.5,48.5C 170.574,46.716 172.24,45.5494 174.5,45C 183.78,43.5065 193.113,42.6732 202.5,42.5 Z"/></g>
<g><path style="opacity:1" fill="#ae8143" d="M 244.5,44.5 C 248.214,44.5902 251.548,45.5902 254.5,47.5C 250.838,47.2766 247.505,46.2766 244.5,44.5 Z"/></g>
<g><path style="opacity:1" fill="#f5cf84" d="M 106.5,32.5 C 107.75,35.0668 108.917,37.7334 110,40.5C 114.543,44.8585 118.043,49.8585 120.5,55.5C 123.107,56.3184 125.774,56.8184 128.5,57C 127.584,57.3742 126.75,57.8742 126,58.5C 125.505,60.4727 125.338,62.4727 125.5,64.5C 126.873,64.6567 128.207,64.49 129.5,64C 131.827,59.6344 135.494,57.801 140.5,58.5C 136.356,61.9537 131.69,64.6204 126.5,66.5C 125.5,66.5 124.5,66.5 123.5,66.5C 123.975,63.1155 122.642,60.7822 119.5,59.5C 115.564,51.31 110.897,43.6433 105.5,36.5C 104.041,36.5674 102.708,36.2341 101.5,35.5C 102.3,33.2591 103.966,32.2591 106.5,32.5 Z"/></g>
<g><path style="opacity:1" fill="#fcd173" d="M 67.5,61.5 C 67.7239,63.7867 68.3906,65.9534 69.5,68C 72.3035,71.1439 74.9701,74.3105 77.5,77.5C 77.4208,78.9305 77.7542,80.2638 78.5,81.5C 80.7178,82.9242 82.2178,84.9242 83,87.5C 84.6667,88.5 86.3333,89.5 88,90.5C 88.4455,93.6616 87.9455,96.6616 86.5,99.5C 81.2531,106.434 75.9197,113.434 70.5,120.5C 65.6936,129.581 61.0269,138.581 56.5,147.5C 55.5,147.5 54.5,147.5 53.5,147.5C 53.3568,150.097 52.5234,152.431 51,154.5C 50.5026,157.146 50.3359,159.813 50.5,162.5C 49.5,162.5 48.5,162.5 47.5,162.5C 43.5825,180.13 41.9158,197.796 42.5,215.5C 42.5,217.833 42.5,220.167 42.5,222.5C 35.7862,208.857 29.9529,194.857 25,180.5C 21.4139,167.901 17.9139,155.235 14.5,142.5C 25.8661,111.45 43.5328,84.4496 67.5,61.5 Z"/></g>
<g><path style="opacity:1" fill="#dc9c43" d="M 137.5,66.5 C 138.675,66.281 139.675,66.6143 140.5,67.5C 142.521,70.1878 144.854,72.5211 147.5,74.5C 145.739,75.3127 144.072,76.3127 142.5,77.5C 133.041,82.7353 124.041,88.7353 115.5,95.5C 109.502,101.49 103.502,107.49 97.5,113.5C 96.0212,111.223 94.5212,108.89 93,106.5C 92.51,105.207 92.3433,103.873 92.5,102.5C 105.002,87.4108 120.002,75.4108 137.5,66.5 Z"/></g>
<g><path style="opacity:1" fill="#ae7d44" d="M 146.5,77.5 C 146.5,78.1667 146.5,78.8333 146.5,79.5C 141.924,81.7995 137.59,84.6329 133.5,88C 132.552,88.4828 131.552,88.6495 130.5,88.5C 130.414,87.5041 130.748,86.6708 131.5,86C 135.829,83.502 140.162,81.002 144.5,78.5C 145.167,78.1667 145.833,77.8333 146.5,77.5 Z"/></g>
<g><path style="opacity:1" fill="#906616" d="M 195.5,-0.5 C 209.167,-0.5 222.833,-0.5 236.5,-0.5C 252.038,1.40933 267.371,4.74267 282.5,9.5C 280.412,9.86519 278.079,9.86519 275.5,9.5C 260.445,5.367 245.111,2.70033 229.5,1.5C 215.647,0.258229 201.647,0.424896 187.5,2C 186.944,2.38258 186.611,2.88258 186.5,3.5C 181.785,3.50601 177.118,4.00601 172.5,5C 164.015,6.94168 155.681,9.27501 147.5,12C 139.598,14.9681 131.765,18.1348 124,21.5C 117.708,24.6633 111.874,28.33 106.5,32.5C 103.966,32.2591 102.3,33.2591 101.5,35.5C 100.448,35.3505 99.448,35.5172 98.5,36C 87.4178,43.5815 77.0844,52.0815 67.5,61.5C 43.5328,84.4496 25.8661,111.45 14.5,142.5C 13.8333,143.833 13.1667,145.167 12.5,146.5C 11.7777,147.551 10.7777,148.218 9.5,148.5C 31.2194,86.945 71.8861,42.7783 131.5,16C 152.23,7.65175 173.563,2.15175 195.5,-0.5 Z"/></g>
<g><path style="opacity:1" fill="#c19339" d="M 229.5,1.5 C 215.111,1.19235 200.778,1.85902 186.5,3.5C 186.611,2.88258 186.944,2.38258 187.5,2C 201.647,0.424896 215.647,0.258229 229.5,1.5 Z"/></g>
<g><path style="opacity:1" fill="#f7cb78" d="M 301.5,65.5 C 306.559,66.7069 311.559,68.2069 316.5,70C 320.15,73.5811 323.816,77.2478 327.5,81C 328.938,81.2189 330.271,81.7189 331.5,82.5C 332.012,85.5321 333.678,86.6987 336.5,86C 338.473,82.0083 341.473,80.8416 345.5,82.5C 346.833,83.1667 346.833,83.8333 345.5,84.5C 343.291,85.1062 341.124,85.7728 339,86.5C 338.503,88.8098 338.337,91.1432 338.5,93.5C 332.737,88.2501 326.737,83.0834 320.5,78C 313.981,73.8192 307.647,69.6525 301.5,65.5 Z"/></g>
<g><path style="opacity:1" fill="#f8d185" d="M 77.5,77.5 C 80.8486,78.6836 83.0153,81.017 84,84.5C 87.2941,87.1086 90.1275,90.1086 92.5,93.5C 90.8333,95.8333 88.8333,97.8333 86.5,99.5C 87.9455,96.6616 88.4455,93.6616 88,90.5C 86.3333,89.5 84.6667,88.5 83,87.5C 82.2178,84.9242 80.7178,82.9242 78.5,81.5C 77.7542,80.2638 77.4208,78.9305 77.5,77.5 Z"/></g>
<g><path style="opacity:1" fill="#ab711d" d="M 268.5,54.5 C 274.328,56.0739 279.995,58.2406 285.5,61C 291.409,64.5534 297.576,67.72 304,70.5C 309.726,73.9708 315.226,77.8041 320.5,82C 323.113,84.1226 325.446,86.4559 327.5,89C 328.448,89.4828 329.448,89.6495 330.5,89.5C 339,98.7559 346.833,108.756 354,119.5C 357.709,121.733 359.875,125.066 360.5,129.5C 362.595,131.565 364.428,133.898 366,136.5C 373.358,152.93 379.025,169.93 383,187.5C 384.743,202.983 384.91,218.483 383.5,234C 383.667,236.833 383.833,239.667 384,242.5C 384.383,241.944 384.883,241.611 385.5,241.5C 381.215,249.706 378.549,258.539 377.5,268C 372.585,278.931 367.585,289.765 362.5,300.5C 360.27,301.775 358.937,303.775 358.5,306.5C 356.299,306.142 354.965,304.808 354.5,302.5C 353.311,301.571 351.978,301.238 350.5,301.5C 353.09,297.58 355.59,293.58 358,289.5C 358.49,288.207 358.657,286.873 358.5,285.5C 359.429,284.064 360.595,282.731 362,281.5C 374.68,252.062 378.68,221.396 374,189.5C 372.193,178.246 368.859,167.579 364,157.5C 363.601,157.728 363.435,158.062 363.5,158.5C 362.662,158.158 362.328,157.492 362.5,156.5C 363.097,156.265 363.43,155.765 363.5,155C 357.742,139.312 349.076,125.479 337.5,113.5C 327.737,103.952 317.404,94.7849 306.5,86C 293.891,78.5291 280.891,71.8625 267.5,66C 257.145,63.2535 246.811,61.0868 236.5,59.5C 222.839,56.9577 209.172,56.9577 195.5,59.5C 178.606,61.7422 162.606,66.7422 147.5,74.5C 144.854,72.5211 142.521,70.1878 140.5,67.5C 139.675,66.6143 138.675,66.281 137.5,66.5C 146.382,62.1873 155.382,58.0207 164.5,54C 176.261,51.9411 187.928,49.6078 199.5,47C 223.156,44.9769 246.156,47.4769 268.5,54.5 Z"/></g>
<g><path style="opacity:1" fill="#d39e45" d="M 236.5,59.5 C 222.833,59.5 209.167,59.5 195.5,59.5C 209.172,56.9577 222.839,56.9577 236.5,59.5 Z"/></g>
<g><path style="opacity:1" fill="#df9d3e" d="M 179.5,111.5 C 157.167,112.167 134.833,112.833 112.5,113.5C 112.5,113.833 112.5,114.167 112.5,114.5C 107.833,114.5 105.5,116.833 105.5,121.5C 105.167,121.5 104.833,121.5 104.5,121.5C 102.15,119.787 101.15,117.453 101.5,114.5C 102.473,114.013 103.473,113.513 104.5,113C 108.833,107.477 113.499,102.31 118.5,97.5C 122.866,94.984 126.866,91.984 130.5,88.5C 131.552,88.6495 132.552,88.4828 133.5,88C 137.59,84.6329 141.924,81.7995 146.5,79.5C 147.265,79.0766 148.098,78.7432 149,78.5C 150.482,80.1119 152.315,81.1119 154.5,81.5C 154.351,82.552 154.517,83.552 155,84.5C 160,90.1667 165.333,95.5 171,100.5C 174.073,104.061 176.906,107.728 179.5,111.5 Z"/></g>
<g><path style="opacity:1" fill="#9d7236" d="M 130.5,88.5 C 126.866,91.984 122.866,94.984 118.5,97.5C 121.707,93.5506 125.707,90.5506 130.5,88.5 Z"/></g>
<g><path style="opacity:1" fill="#9d7137" d="M 118.5,97.5 C 113.499,102.31 108.833,107.477 104.5,113C 103.473,113.513 102.473,114.013 101.5,114.5C 101.539,113.417 101.873,112.417 102.5,111.5C 105.516,108.651 108.35,105.651 111,102.5C 113.122,100.244 115.622,98.577 118.5,97.5 Z"/></g>
<g><path style="opacity:1" fill="#f1d69f" d="M 142.5,77.5 C 143.492,77.3284 144.158,77.6618 144.5,78.5C 140.162,81.002 135.829,83.502 131.5,86C 130.748,86.6708 130.414,87.5041 130.5,88.5C 125.707,90.5506 121.707,93.5506 118.5,97.5C 115.622,98.577 113.122,100.244 111,102.5C 108.35,105.651 105.516,108.651 102.5,111.5C 101.873,112.417 101.539,113.417 101.5,114.5C 99.9731,114.427 98.9731,115.094 98.5,116.5C 97.6618,116.158 97.3284,115.492 97.5,114.5C 97.5,114.167 97.5,113.833 97.5,113.5C 103.502,107.49 109.502,101.49 115.5,95.5C 124.041,88.7353 133.041,82.7353 142.5,77.5 Z"/></g>
<g><path style="opacity:1" fill="#c88e46" d="M 179.5,111.5 C 180.167,111.5 180.833,111.5 181.5,111.5C 181.167,112.167 180.833,112.833 180.5,113.5C 180.167,113.5 179.833,113.5 179.5,113.5C 159.833,113.5 140.167,113.5 120.5,113.5C 117.833,113.5 115.167,113.5 112.5,113.5C 134.833,112.833 157.167,112.167 179.5,111.5 Z"/></g>
<g><path style="opacity:1" fill="#a46e2a" d="M 216.5,113.5 C 216.5,114.167 216.5,114.833 216.5,115.5C 204.751,113.553 192.751,112.886 180.5,113.5C 180.833,112.833 181.167,112.167 181.5,111.5C 191.526,111.758 201.526,111.425 211.5,110.5C 213.577,110.692 215.577,111.192 217.5,112C 216.944,112.383 216.611,112.883 216.5,113.5 Z"/></g>
<g><path style="opacity:1" fill="#6c3d0b" d="M 112.5,114.5 C 112.5,114.167 112.5,113.833 112.5,113.5C 115.167,113.5 117.833,113.5 120.5,113.5C 120.5,114.833 120.5,116.167 120.5,117.5C 141.5,117.5 162.5,117.5 183.5,117.5C 183.5,116.5 183.5,115.5 183.5,114.5C 181.901,114.768 180.568,114.434 179.5,113.5C 179.833,113.5 180.167,113.5 180.5,113.5C 192.751,112.886 204.751,113.553 216.5,115.5C 216.392,117.514 217.058,119.18 218.5,120.5C 215.85,119.175 213.184,117.842 210.5,116.5C 205.837,118.811 200.837,120.145 195.5,120.5C 199.71,122.002 203.71,121.669 207.5,119.5C 209.188,120.521 210.521,121.855 211.5,123.5C 204.5,123.5 197.5,123.5 190.5,123.5C 190.167,122.833 189.833,122.167 189.5,121.5C 189.389,120.883 189.056,120.383 188.5,120C 163.761,119.824 139.094,119.324 114.5,118.5C 113.833,117.167 113.167,115.833 112.5,114.5 Z"/></g>
<g><path style="opacity:1" fill="#6c370b" d="M 120.5,113.5 C 140.167,113.5 159.833,113.5 179.5,113.5C 180.568,114.434 181.901,114.768 183.5,114.5C 183.5,115.5 183.5,116.5 183.5,117.5C 162.5,117.5 141.5,117.5 120.5,117.5C 120.5,116.167 120.5,114.833 120.5,113.5 Z"/></g>
<g><path style="opacity:1" fill="#f3c475" d="M 216.5,113.5 C 224.221,114.296 226.888,118.296 224.5,125.5C 224.833,122.5 223.5,121.167 220.5,121.5C 220.158,120.662 219.492,120.328 218.5,120.5C 217.058,119.18 216.392,117.514 216.5,115.5C 216.5,114.833 216.5,114.167 216.5,113.5 Z"/></g>
<g><path style="opacity:1" fill="#f3c774" d="M 112.5,114.5 C 113.167,115.833 113.833,117.167 114.5,118.5C 114.316,121.337 112.982,123.337 110.5,124.5C 108.887,123.308 107.22,122.308 105.5,121.5C 105.5,116.833 107.833,114.5 112.5,114.5 Z"/></g>
<g><path style="opacity:1" fill="#9b6420" d="M 114.5,118.5 C 139.094,119.324 163.761,119.824 188.5,120C 189.056,120.383 189.389,120.883 189.5,121.5C 165.545,120.52 141.545,120.186 117.5,120.5C 117.5,121.5 117.5,122.5 117.5,123.5C 116.5,123.5 115.5,123.5 114.5,123.5C 114.5,124.5 114.5,125.5 114.5,126.5C 114.5,130.167 114.5,133.833 114.5,137.5C 112.208,133.55 110.875,129.217 110.5,124.5C 112.982,123.337 114.316,121.337 114.5,118.5 Z"/></g>
<g><path style="opacity:1" fill="#b0731f" d="M 189.5,121.5 C 189.833,122.167 190.167,122.833 190.5,123.5C 166.167,123.5 141.833,123.5 117.5,123.5C 117.5,122.5 117.5,121.5 117.5,120.5C 141.545,120.186 165.545,120.52 189.5,121.5 Z"/></g>
<g><path style="opacity:1" fill="#c18a39" d="M 117.5,124.5 C 117.5,124.167 117.5,123.833 117.5,123.5C 141.833,123.5 166.167,123.5 190.5,123.5C 197.5,123.5 204.5,123.5 211.5,123.5C 213.924,123.192 216.257,123.526 218.5,124.5C 218.376,125.107 218.043,125.44 217.5,125.5C 216.726,124.853 215.726,124.52 214.5,124.5C 212.97,124.64 211.97,125.307 211.5,126.5C 206.167,126.5 200.833,126.5 195.5,126.5C 195.389,125.883 195.056,125.383 194.5,125C 168.835,124.5 143.169,124.333 117.5,124.5 Z"/></g>
<g><path style="opacity:1" fill="#d0a36a" d="M 258.5,124.5 C 277.833,124.5 297.167,124.5 316.5,124.5C 316.5,139.167 316.5,153.833 316.5,168.5C 316.167,168.5 315.833,168.5 315.5,168.5C 315.5,154.5 315.5,140.5 315.5,126.5C 297.167,126.5 278.833,126.5 260.5,126.5C 259.833,126.5 259.167,126.5 258.5,126.5C 258.5,125.833 258.5,125.167 258.5,124.5 Z"/></g>
<g><path style="opacity:1" fill="#cba257" d="M 117.5,124.5 C 143.169,124.333 168.835,124.5 194.5,125C 195.056,125.383 195.389,125.883 195.5,126.5C 169.831,126.667 144.165,126.5 118.5,126C 117.944,125.617 117.611,125.117 117.5,124.5 Z"/></g>
<g><path style="opacity:1" fill="#f5dfa4" d="M 117.5,123.5 C 117.5,123.833 117.5,124.167 117.5,124.5C 117.611,125.117 117.944,125.617 118.5,126C 144.165,126.5 169.831,126.667 195.5,126.5C 198.253,129.76 200.253,133.426 201.5,137.5C 201.5,138.167 201.167,138.5 200.5,138.5C 200.512,135.858 199.179,134.525 196.5,134.5C 196.17,128.18 193.17,126.18 187.5,128.5C 185.833,128.5 184.167,128.5 182.5,128.5C 160.833,127.167 139.167,127.167 117.5,128.5C 116.5,127.833 115.5,127.167 114.5,126.5C 114.5,125.5 114.5,124.5 114.5,123.5C 115.5,123.5 116.5,123.5 117.5,123.5 Z"/></g>
<g><path style="opacity:1" fill="#e9cb92" d="M 217.5,125.5 C 216.167,126.167 215.167,127.167 214.5,128.5C 213.833,128.5 213.167,128.5 212.5,128.5C 212.167,128.5 211.833,128.5 211.5,128.5C 211.5,127.833 211.5,127.167 211.5,126.5C 211.97,125.307 212.97,124.64 214.5,124.5C 215.726,124.52 216.726,124.853 217.5,125.5 Z"/></g>
<g><path style="opacity:1" fill="#653c18" d="M 218.5,120.5 C 219.492,120.328 220.158,120.662 220.5,121.5C 220.989,124.467 222.155,127.133 224,129.5C 225.356,128.62 226.856,128.286 228.5,128.5C 228.529,131.773 227.196,132.44 224.5,130.5C 222.665,132.161 220.665,133.661 218.5,135C 217.475,137.071 216.642,139.238 216,141.5C 212.595,143.11 211.095,141.944 211.5,138C 212.571,134.89 213.571,131.723 214.5,128.5C 215.167,127.167 216.167,126.167 217.5,125.5C 218.043,125.44 218.376,125.107 218.5,124.5C 216.257,123.526 213.924,123.192 211.5,123.5C 210.521,121.855 209.188,120.521 207.5,119.5C 203.71,121.669 199.71,122.002 195.5,120.5C 200.837,120.145 205.837,118.811 210.5,116.5C 213.184,117.842 215.85,119.175 218.5,120.5 Z"/></g>
<g><path style="opacity:1" fill="#6b3c09" d="M 323.5,114.5 C 323.5,115.167 323.5,115.833 323.5,116.5C 323.5,117.167 323.167,117.5 322.5,117.5C 318.718,114.776 315.051,115.109 311.5,118.5C 310.692,118.192 310.025,117.692 309.5,117C 306.167,116.833 302.833,116.667 299.5,116.5C 279.816,117.745 260.15,117.745 240.5,116.5C 240.5,118.167 240.5,119.833 240.5,121.5C 263.836,121.333 287.169,121.5 310.5,122C 311.737,122.232 312.737,122.732 313.5,123.5C 288.328,123.169 263.328,123.502 238.5,124.5C 237.5,124.833 236.833,125.5 236.5,126.5C 229.167,133.167 222.167,140.167 215.5,147.5C 211.336,145.501 208.336,142.334 206.5,138C 206.743,137.098 207.077,136.265 207.5,135.5C 209.58,133.427 211.246,131.093 212.5,128.5C 213.167,128.5 213.833,128.5 214.5,128.5C 213.571,131.723 212.571,134.89 211.5,138C 211.095,141.944 212.595,143.11 216,141.5C 216.642,139.238 217.475,137.071 218.5,135C 220.665,133.661 222.665,132.161 224.5,130.5C 227.196,132.44 228.529,131.773 228.5,128.5C 226.856,128.286 225.356,128.62 224,129.5C 222.155,127.133 220.989,124.467 220.5,121.5C 223.5,121.167 224.833,122.5 224.5,125.5C 224.369,126.239 224.536,126.906 225,127.5C 226.179,124.481 227.513,121.481 229,118.5C 230.011,117.663 231.178,117.33 232.5,117.5C 233.353,119.893 235.019,121.226 237.5,121.5C 239.369,119.365 240.036,116.698 239.5,113.5C 267.544,113.183 295.544,113.517 323.5,114.5 Z"/></g>
<g><path style="opacity:1" fill="#facb76" d="M 195.5,126.5 C 200.833,126.5 206.167,126.5 211.5,126.5C 211.5,127.167 211.5,127.833 211.5,128.5C 207.843,131.158 204.509,134.158 201.5,137.5C 200.253,133.426 198.253,129.76 195.5,126.5 Z"/></g>
<g><path style="opacity:1" fill="#af721a" d="M 101.5,114.5 C 101.15,117.453 102.15,119.787 104.5,121.5C 103.833,133.495 103.5,145.662 103.5,158C 103.501,170.519 104.168,182.686 105.5,194.5C 104.916,197.285 105.916,198.952 108.5,199.5C 121.167,200.167 133.833,200.833 146.5,201.5C 146.5,201.833 146.5,202.167 146.5,202.5C 146.5,202.833 146.5,203.167 146.5,203.5C 145.761,203.369 145.094,203.536 144.5,204C 132.595,215.85 120.928,227.85 109.5,240C 108.016,240.662 106.683,241.496 105.5,242.5C 104.5,242.5 103.5,242.5 102.5,242.5C 102.667,258.837 102.5,275.17 102,291.5C 99.8697,292.141 98.3697,293.474 97.5,295.5C 98.3202,297.111 99.6536,297.778 101.5,297.5C 101.989,301.487 100.322,303.82 96.5,304.5C 96.6567,303.127 96.49,301.793 96,300.5C 88.4941,294.297 84.6607,286.63 84.5,277.5C 83.3687,276.396 82.5354,276.729 82,278.5C 80.8333,277.333 79.6667,276.167 78.5,275C 79.1667,274.667 79.8333,274.333 80.5,274C 75.7803,269.95 74.447,264.95 76.5,259C 72.8046,256.111 70.8046,252.278 70.5,247.5C 69.8165,247.137 69.1499,246.804 68.5,246.5C 63.6635,221.582 64.6635,196.915 71.5,172.5C 71.2528,171.287 70.5862,170.62 69.5,170.5C 69.7587,167.728 70.7587,165.395 72.5,163.5C 71.6765,165.455 71.5099,167.455 72,169.5C 74.2788,163.189 76.7788,157.022 79.5,151C 78.9056,150.536 78.2389,150.369 77.5,150.5C 82.965,138.24 89.965,126.907 98.5,116.5C 98.9731,115.094 99.9731,114.427 101.5,114.5 Z"/></g>
<g><path style="opacity:1" fill="#b0731a" d="M 370.5,244.5 C 370.802,248.79 370.136,252.79 368.5,256.5C 369.005,253.159 369.172,249.826 369,246.5C 365.338,257.441 361.671,268.441 358,279.5C 355.814,285.264 352.981,290.597 349.5,295.5C 347.745,294.928 346.078,294.094 344.5,293C 340.089,287.047 335.089,281.547 329.5,276.5C 329.832,224.997 329.499,173.664 328.5,122.5C 328.167,122.5 327.833,122.5 327.5,122.5C 327.628,120.345 327.128,118.345 326,116.5C 325.23,115.402 324.397,115.402 323.5,116.5C 323.5,115.833 323.5,115.167 323.5,114.5C 321.779,112.306 319.445,111.139 316.5,111C 290.833,110.333 265.167,110.333 239.5,111C 238.748,111.671 238.414,112.504 238.5,113.5C 235.733,113.87 233.733,115.204 232.5,117.5C 231.178,117.33 230.011,117.663 229,118.5C 227.513,121.481 226.179,124.481 225,127.5C 224.536,126.906 224.369,126.239 224.5,125.5C 226.888,118.296 224.221,114.296 216.5,113.5C 216.611,112.883 216.944,112.383 217.5,112C 215.577,111.192 213.577,110.692 211.5,110.5C 201.526,111.425 191.526,111.758 181.5,111.5C 180.833,111.5 180.167,111.5 179.5,111.5C 176.906,107.728 174.073,104.061 171,100.5C 165.333,95.5 160,90.1667 155,84.5C 154.517,83.552 154.351,82.552 154.5,81.5C 152.315,81.1119 150.482,80.1119 149,78.5C 148.098,78.7432 147.265,79.0766 146.5,79.5C 146.5,78.8333 146.5,78.1667 146.5,77.5C 190.55,56.1263 235.216,54.9597 280.5,74C 331.761,99.3479 361.761,140.681 370.5,198C 371.417,213.7 371.417,229.2 370.5,244.5 Z"/></g>
<g><path style="opacity:1" fill="#d7a04b" d="M 240.5,124.5 C 246.5,124.5 252.5,124.5 258.5,124.5C 258.5,125.167 258.5,125.833 258.5,126.5C 252.074,127.12 246.074,126.453 240.5,124.5 Z"/></g>
<g><path style="opacity:1" fill="#f1c27a" d="M 327.5,122.5 C 323.849,122.838 322.183,121.172 322.5,117.5C 323.167,117.5 323.5,117.167 323.5,116.5C 324.397,115.402 325.23,115.402 326,116.5C 327.128,118.345 327.628,120.345 327.5,122.5 Z"/></g>
<g><path style="opacity:1" fill="#f4c57a" d="M 238.5,113.5 C 238.721,116.279 238.388,118.946 237.5,121.5C 235.019,121.226 233.353,119.893 232.5,117.5C 233.733,115.204 235.733,113.87 238.5,113.5 Z"/></g>
<g><path style="opacity:1" fill="#a8702a" d="M 323.5,114.5 C 295.544,113.517 267.544,113.183 239.5,113.5C 240.036,116.698 239.369,119.365 237.5,121.5C 238.388,118.946 238.721,116.279 238.5,113.5C 238.414,112.504 238.748,111.671 239.5,111C 265.167,110.333 290.833,110.333 316.5,111C 319.445,111.139 321.779,112.306 323.5,114.5 Z"/></g>
<g><path style="opacity:1" fill="#6f3f09" d="M 104.5,121.5 C 104.833,121.5 105.167,121.5 105.5,121.5C 107.22,122.308 108.887,123.308 110.5,124.5C 110.875,129.217 112.208,133.55 114.5,137.5C 114.5,155.167 114.5,172.833 114.5,190.5C 126.5,190.5 138.5,190.5 150.5,190.5C 150.5,190.833 150.5,191.167 150.5,191.5C 139.73,191.047 129.063,191.547 118.5,193C 129.341,193.825 140.008,193.659 150.5,192.5C 151.043,192.56 151.376,192.893 151.5,193.5C 139.185,194.499 126.851,194.832 114.5,194.5C 114.167,194.5 113.833,194.5 113.5,194.5C 113.5,193.833 113.5,193.167 113.5,192.5C 113.846,189.398 113.179,186.565 111.5,184C 112.816,176.568 113.482,168.902 113.5,161C 113.333,153.5 113.167,146 113,138.5C 110.723,135.301 109.89,131.635 110.5,127.5C 108.549,127.773 107.049,127.107 106,125.5C 105.163,129.295 105.496,132.961 107,136.5C 107.667,135.167 108.333,135.167 109,136.5C 109.798,138.259 109.631,139.926 108.5,141.5C 107.575,140.359 106.741,140.359 106,141.5C 105.195,158.877 105.361,176.211 106.5,193.5C 104.51,169.857 103.843,145.857 104.5,121.5 Z"/></g>
<g><path style="opacity:1" fill="#dfd1b3" d="M 269.5,130.5 C 283.167,130.5 296.833,130.5 310.5,130.5C 310.5,142.167 310.5,153.833 310.5,165.5C 310.5,165.833 310.5,166.167 310.5,166.5C 310.167,166.5 309.833,166.5 309.5,166.5C 309.5,165.5 309.5,164.5 309.5,163.5C 309.5,153.5 309.5,143.5 309.5,133.5C 296.203,132.555 282.87,132.222 269.5,132.5C 269.5,131.833 269.5,131.167 269.5,130.5 Z"/></g>
<g><path style="opacity:1" fill="#f1debe" d="M 182.5,128.5 C 161.167,128.5 139.833,128.5 118.5,128.5C 118.176,132.555 118.509,136.555 119.5,140.5C 120.086,140.709 120.586,141.043 121,141.5C 121.499,137.848 121.665,134.182 121.5,130.5C 145.502,130.667 169.502,130.5 193.5,130C 191.75,128.681 189.75,128.181 187.5,128.5C 193.17,126.18 196.17,128.18 196.5,134.5C 193.899,138.771 190.566,142.437 186.5,145.5C 187.072,143.745 187.906,142.078 189,140.5C 191.292,139.21 193.292,137.543 195,135.5C 195.432,134.4 194.932,133.733 193.5,133.5C 169.934,133.543 146.267,133.543 122.5,133.5C 122.5,135.167 122.5,136.833 122.5,138.5C 122.5,140.5 122.5,142.5 122.5,144.5C 121.021,143.241 119.354,142.241 117.5,141.5C 117.5,137.167 117.5,132.833 117.5,128.5C 139.167,127.167 160.833,127.167 182.5,128.5 Z"/></g>
<g><path style="opacity:1" fill="#fef0d8" d="M 182.5,128.5 C 184.167,128.5 185.833,128.5 187.5,128.5C 189.75,128.181 191.75,128.681 193.5,130C 169.502,130.5 145.502,130.667 121.5,130.5C 121.665,134.182 121.499,137.848 121,141.5C 120.586,141.043 120.086,140.709 119.5,140.5C 118.509,136.555 118.176,132.555 118.5,128.5C 139.833,128.5 161.167,128.5 182.5,128.5 Z"/></g>
<g><path style="opacity:1" fill="#bf9553" d="M 211.5,128.5 C 211.833,128.5 212.167,128.5 212.5,128.5C 211.246,131.093 209.58,133.427 207.5,135.5C 203.852,138.477 200.186,141.477 196.5,144.5C 192.732,148.877 188.399,152.544 183.5,155.5C 188.812,149.521 194.479,143.854 200.5,138.5C 201.167,138.5 201.5,138.167 201.5,137.5C 204.509,134.158 207.843,131.158 211.5,128.5 Z"/></g>
<g><path style="opacity:1" fill="#fdd273" d="M 238.5,124.5 C 239.167,124.5 239.833,124.5 240.5,124.5C 246.074,126.453 252.074,127.12 258.5,126.5C 259.167,126.5 259.833,126.5 260.5,126.5C 260.316,129.321 261.649,130.988 264.5,131.5C 265.846,133.509 267.18,135.509 268.5,137.5C 270.045,138.452 271.712,138.785 273.5,138.5C 273.369,139.239 273.536,139.906 274,140.5C 278.046,142.928 281.546,145.928 284.5,149.5C 286.045,150.452 287.712,150.785 289.5,150.5C 289.5,150.833 289.5,151.167 289.5,151.5C 289.5,152.5 289.5,153.5 289.5,154.5C 290.833,154.5 292.167,154.5 293.5,154.5C 293.393,156.903 294.393,158.736 296.5,160C 301.196,161.714 305.529,163.88 309.5,166.5C 309.5,194.833 309.5,223.167 309.5,251.5C 306.73,249.634 305.23,246.968 305,243.5C 300.607,239.597 296.107,235.931 291.5,232.5C 290.406,230.641 289.573,228.641 289,226.5C 285.935,225.047 283.269,223.047 281,220.5C 278.876,215.888 276.042,211.888 272.5,208.5C 271.264,207.754 269.93,207.421 268.5,207.5C 268.5,206.5 268.5,205.5 268.5,204.5C 267.5,204.5 266.5,204.5 265.5,204.5C 265.037,201.745 263.37,200.078 260.5,199.5C 258.716,197.052 257.382,194.385 256.5,191.5C 255.178,191.67 254.011,191.337 253,190.5C 252.666,188.153 252.833,185.819 253.5,183.5C 252.07,183.421 250.736,183.754 249.5,184.5C 246.106,182.891 244.773,180.224 245.5,176.5C 244.07,176.579 242.736,176.246 241.5,175.5C 240.106,171.084 237.106,169.418 232.5,170.5C 230.952,167.277 228.619,164.61 225.5,162.5C 223.555,158.725 221.055,155.392 218,152.5C 217.329,151.748 216.496,151.414 215.5,151.5C 222.156,143.677 229.323,136.344 237,129.5C 237.47,128.423 237.303,127.423 236.5,126.5C 236.833,125.5 237.5,124.833 238.5,124.5 Z"/></g>
<g><path style="opacity:1" fill="#fcf2df" d="M 289.5,150.5 C 289.5,150.167 289.5,149.833 289.5,149.5C 288.999,146.822 287.499,144.822 285,143.5C 284.51,142.207 284.343,140.873 284.5,139.5C 282.473,139.662 280.473,139.495 278.5,139C 277.62,137.644 277.286,136.144 277.5,134.5C 280.846,135.036 284.18,135.703 287.5,136.5C 288.91,136.132 289.91,135.299 290.5,134C 295.489,133.501 300.489,133.334 305.5,133.5C 305.649,134.552 305.483,135.552 305,136.5C 304.346,135.304 303.846,135.304 303.5,136.5C 305.26,141.953 306.26,147.62 306.5,153.5C 306.304,155.286 305.471,156.619 304,157.5C 300.38,157.216 297.88,155.383 296.5,152C 294.26,151.023 291.927,150.523 289.5,150.5 Z"/></g>
<g><path style="opacity:1" fill="#70420f" d="M 202.5,42.5 C 213.846,42.4861 225.179,42.8194 236.5,43.5C 239.096,44.2653 241.763,44.5987 244.5,44.5C 247.505,46.2766 250.838,47.2766 254.5,47.5C 256.806,47.9926 259.139,48.3259 261.5,48.5C 265.042,50.1761 268.709,52.0095 272.5,54C 271.207,54.49 269.873,54.6567 268.5,54.5C 246.156,47.4769 223.156,44.9769 199.5,47C 187.928,49.6078 176.261,51.9411 164.5,54C 155.382,58.0207 146.382,62.1873 137.5,66.5C 120.002,75.4108 105.002,87.4108 92.5,102.5C 87.2089,107.636 82.3755,113.303 78,119.5C 72.2286,128.935 66.8953,138.601 62,148.5C 61.6051,151.652 60.7718,154.652 59.5,157.5C 48.9049,186.944 46.5716,217.277 52.5,248.5C 51.8826,248.389 51.3826,248.056 51,247.5C 48.976,236.455 48.1427,225.288 48.5,214C 48.6667,206.167 48.8333,198.333 49,190.5C 51.568,185.968 51.568,181.635 49,177.5C 48.3333,182.167 47.6667,186.833 47,191.5C 46.8784,193.437 46.045,194.77 44.5,195.5C 44.5,195.167 44.5,194.833 44.5,194.5C 45.3951,184.34 47.2284,174.34 50,164.5C 51.7343,158.637 53.901,152.97 56.5,147.5C 61.0269,138.581 65.6936,129.581 70.5,120.5C 75.9197,113.434 81.2531,106.434 86.5,99.5C 88.8333,97.8333 90.8333,95.8333 92.5,93.5C 103.257,83.739 114.591,74.739 126.5,66.5C 131.69,64.6204 136.356,61.9537 140.5,58.5C 149.984,54.7102 159.65,51.3769 169.5,48.5C 180.361,45.437 191.361,43.437 202.5,42.5 Z"/></g>
<g><path style="opacity:1" fill="#fbf3d9" d="M 186.5,145.5 C 184.606,146.048 182.94,147.048 181.5,148.5C 180.5,145.833 179.5,145.833 178.5,148.5C 179.025,149.192 179.692,149.692 180.5,150C 178.269,151.147 175.935,152.147 173.5,153C 172.745,155.175 171.912,157.341 171,159.5C 170.282,158.549 169.449,158.383 168.5,159C 167.773,160.399 167.273,161.899 167,163.5C 166.329,164.252 165.496,164.586 164.5,164.5C 164.08,161.115 163.747,157.948 163.5,155C 164.416,154.626 165.25,154.126 166,153.5C 166.313,149.035 168.479,145.868 172.5,144C 177.156,143.335 181.823,142.835 186.5,142.5C 186.5,141.167 186.5,139.833 186.5,138.5C 165.139,138.238 143.805,138.238 122.5,138.5C 122.5,136.833 122.5,135.167 122.5,133.5C 146.267,133.543 169.934,133.543 193.5,133.5C 194.932,133.733 195.432,134.4 195,135.5C 193.292,137.543 191.292,139.21 189,140.5C 187.906,142.078 187.072,143.745 186.5,145.5 Z"/></g>
<g><path style="opacity:1" fill="#fcefd1" d="M 269.5,132.5 C 282.87,132.222 296.203,132.555 309.5,133.5C 309.5,143.5 309.5,153.5 309.5,163.5C 304.214,161.404 299.547,158.237 295.5,154C 293.593,152.878 291.593,152.045 289.5,151.5C 289.5,151.167 289.5,150.833 289.5,150.5C 291.927,150.523 294.26,151.023 296.5,152C 297.88,155.383 300.38,157.216 304,157.5C 305.471,156.619 306.304,155.286 306.5,153.5C 306.26,147.62 305.26,141.953 303.5,136.5C 303.846,135.304 304.346,135.304 305,136.5C 305.483,135.552 305.649,134.552 305.5,133.5C 300.489,133.334 295.489,133.501 290.5,134C 289.91,135.299 288.91,136.132 287.5,136.5C 284.18,135.703 280.846,135.036 277.5,134.5C 277.286,136.144 277.62,137.644 278.5,139C 280.473,139.495 282.473,139.662 284.5,139.5C 284.343,140.873 284.51,142.207 285,143.5C 287.499,144.822 288.999,146.822 289.5,149.5C 284.167,145.833 278.833,142.167 273.5,138.5C 271.808,136.795 270.475,134.795 269.5,132.5 Z"/></g>
<g><path style="opacity:1" fill="#fef1de" d="M 164.5,164.5 C 161.236,165.625 158.902,167.792 157.5,171C 154.553,171.112 153.22,172.612 153.5,175.5C 152.178,175.33 151.011,175.663 150,176.5C 149.767,172.869 150.934,169.703 153.5,167C 151.365,166.365 149.365,166.699 147.5,168C 146.333,169.833 144.833,171.333 143,172.5C 142.617,171.944 142.117,171.611 141.5,171.5C 139.512,169.535 138.012,167.202 137,164.5C 136.184,163.177 135.017,162.511 133.5,162.5C 131.842,159.206 129.676,156.206 127,153.5C 126.333,151.5 125.667,149.5 125,147.5C 124.329,146.748 123.496,146.414 122.5,146.5C 122.5,145.833 122.5,145.167 122.5,144.5C 122.5,142.5 122.5,140.5 122.5,138.5C 143.805,138.238 165.139,138.238 186.5,138.5C 186.5,139.833 186.5,141.167 186.5,142.5C 181.823,142.835 177.156,143.335 172.5,144C 168.479,145.868 166.313,149.035 166,153.5C 165.25,154.126 164.416,154.626 163.5,155C 163.747,157.948 164.08,161.115 164.5,164.5 Z"/></g>
<g><path style="opacity:1" fill="#fbe4b9" d="M 260.5,126.5 C 278.833,126.5 297.167,126.5 315.5,126.5C 315.5,140.5 315.5,154.5 315.5,168.5C 315.157,170.225 314.157,170.725 312.5,170C 311.695,168.887 311.028,167.721 310.5,166.5C 310.5,166.167 310.5,165.833 310.5,165.5C 311.833,165.5 313.167,165.5 314.5,165.5C 314.5,153.5 314.5,141.5 314.5,129.5C 298.499,128.865 282.499,128.198 266.5,127.5C 265.068,127.733 264.568,128.4 265,129.5C 266.356,130.38 267.856,130.714 269.5,130.5C 269.5,131.167 269.5,131.833 269.5,132.5C 270.475,134.795 271.808,136.795 273.5,138.5C 271.712,138.785 270.045,138.452 268.5,137.5C 267.18,135.509 265.846,133.509 264.5,131.5C 261.649,130.988 260.316,129.321 260.5,126.5 Z"/></g>
<g><path style="opacity:1" fill="#925e1a" d="M 104.5,121.5 C 103.843,145.857 104.51,169.857 106.5,193.5C 106.5,194.167 106.167,194.5 105.5,194.5C 104.168,182.686 103.501,170.519 103.5,158C 103.5,145.662 103.833,133.495 104.5,121.5 Z"/></g>
<g><path style="opacity:1" fill="#fdf0d6" d="M 310.5,165.5 C 310.5,153.833 310.5,142.167 310.5,130.5C 296.833,130.5 283.167,130.5 269.5,130.5C 267.856,130.714 266.356,130.38 265,129.5C 264.568,128.4 265.068,127.733 266.5,127.5C 282.499,128.198 298.499,128.865 314.5,129.5C 314.5,141.5 314.5,153.5 314.5,165.5C 313.167,165.5 311.833,165.5 310.5,165.5 Z"/></g>
<g><path style="opacity:1" fill="#653910" d="M 113.5,192.5 C 112.85,192.196 112.183,191.863 111.5,191.5C 109.925,192.456 108.258,193.123 106.5,193.5C 105.361,176.211 105.195,158.877 106,141.5C 106.741,140.359 107.575,140.359 108.5,141.5C 109.631,139.926 109.798,138.259 109,136.5C 108.333,135.167 107.667,135.167 107,136.5C 105.496,132.961 105.163,129.295 106,125.5C 107.049,127.107 108.549,127.773 110.5,127.5C 109.89,131.635 110.723,135.301 113,138.5C 113.167,146 113.333,153.5 113.5,161C 113.482,168.902 112.816,176.568 111.5,184C 113.179,186.565 113.846,189.398 113.5,192.5 Z"/></g>
<g><path style="opacity:1" fill="#bd8a3c" d="M 114.5,126.5 C 115.5,127.167 116.5,127.833 117.5,128.5C 117.5,132.833 117.5,137.167 117.5,141.5C 117.5,156.833 117.5,172.167 117.5,187.5C 116.883,187.389 116.383,187.056 116,186.5C 115.831,169.995 115.331,153.662 114.5,137.5C 114.5,133.833 114.5,130.167 114.5,126.5 Z"/></g>
<g><path style="opacity:1" fill="#cb9b4c" d="M 236.5,126.5 C 237.303,127.423 237.47,128.423 237,129.5C 229.323,136.344 222.156,143.677 215.5,151.5C 213.81,151.856 212.81,152.856 212.5,154.5C 209.515,157.077 206.515,159.744 203.5,162.5C 203.709,161.078 204.209,159.745 205,158.5C 208.071,154.301 211.571,150.634 215.5,147.5C 222.167,140.167 229.167,133.167 236.5,126.5 Z"/></g>
<g><path style="opacity:1" fill="#f4d89a" d="M 273.5,138.5 C 278.833,142.167 284.167,145.833 289.5,149.5C 289.5,149.833 289.5,150.167 289.5,150.5C 287.712,150.785 286.045,150.452 284.5,149.5C 281.546,145.928 278.046,142.928 274,140.5C 273.536,139.906 273.369,139.239 273.5,138.5 Z"/></g>
<g><path style="opacity:1" fill="#8a5412" d="M 337.5,113.5 C 349.076,125.479 357.742,139.312 363.5,155C 363.43,155.765 363.097,156.265 362.5,156.5C 356.686,142.191 348.853,129.191 339,117.5C 338.209,116.255 337.709,114.922 337.5,113.5 Z"/></g>
<g><path style="opacity:1" fill="#e8b666" d="M 97.5,114.5 C 97.3284,115.492 97.6618,116.158 98.5,116.5C 89.965,126.907 82.965,138.24 77.5,150.5C 75.0157,154.477 73.3491,158.81 72.5,163.5C 70.7587,165.395 69.7587,167.728 69.5,170.5C 56.4269,218.455 63.4269,263.121 90.5,304.5C 91.3569,305.425 92.3569,306.092 93.5,306.5C 93.3505,307.552 93.5172,308.552 94,309.5C 102.053,318.557 110.553,327.391 119.5,336C 121.577,337.705 123.91,338.872 126.5,339.5C 126.414,340.496 126.748,341.329 127.5,342C 131.11,343.944 134.443,346.277 137.5,349C 146.937,353.218 156.27,357.718 165.5,362.5C 162.491,363.023 159.491,362.523 156.5,361C 99.2346,334.035 67.4012,288.868 61,225.5C 58.7207,183.507 70.8874,146.507 97.5,114.5 Z"/></g>
<g><path style="opacity:1" fill="#f6e8cc" d="M 196.5,134.5 C 199.179,134.525 200.512,135.858 200.5,138.5C 194.479,143.854 188.812,149.521 183.5,155.5C 179.456,158.543 176.123,162.209 173.5,166.5C 169.229,169.101 165.563,172.434 162.5,176.5C 159.833,178.833 157.167,181.167 154.5,183.5C 153.518,184.141 152.518,184.807 151.5,185.5C 150.234,183.596 148.567,182.263 146.5,181.5C 145.566,177.631 143.899,174.298 141.5,171.5C 142.117,171.611 142.617,171.944 143,172.5C 144.833,171.333 146.333,169.833 147.5,168C 149.365,166.699 151.365,166.365 153.5,167C 150.934,169.703 149.767,172.869 150,176.5C 151.011,175.663 152.178,175.33 153.5,175.5C 153.22,172.612 154.553,171.112 157.5,171C 158.902,167.792 161.236,165.625 164.5,164.5C 165.496,164.586 166.329,164.252 167,163.5C 167.273,161.899 167.773,160.399 168.5,159C 169.449,158.383 170.282,158.549 171,159.5C 171.912,157.341 172.745,155.175 173.5,153C 175.935,152.147 178.269,151.147 180.5,150C 179.692,149.692 179.025,149.192 178.5,148.5C 179.5,145.833 180.5,145.833 181.5,148.5C 182.94,147.048 184.606,146.048 186.5,145.5C 190.566,142.437 193.899,138.771 196.5,134.5 Z"/></g>
<g><path style="opacity:1" fill="#f5c978" d="M 346.5,103.5 C 349.689,104.514 352.522,106.18 355,108.5C 358.743,114.932 362.576,121.266 366.5,127.5C 367.946,129.618 368.613,131.951 368.5,134.5C 371.329,134.675 372.996,133.342 373.5,130.5C 373.833,131.333 374.167,132.167 374.5,133C 373.045,135.363 372.545,137.863 373,140.5C 375.613,146.009 378.78,151.176 382.5,156C 381.978,156.561 381.645,157.228 381.5,158C 382.422,163.133 383.089,168.299 383.5,173.5C 378.841,158.822 373.008,144.489 366,130.5C 361.763,124.368 357.763,118.035 354,111.5C 351.585,108.743 349.085,106.076 346.5,103.5 Z"/></g>
<g><path style="opacity:1" fill="#ebb866" d="M 195.5,59.5 C 209.167,59.5 222.833,59.5 236.5,59.5C 246.811,61.0868 257.145,63.2535 267.5,66C 280.891,71.8625 293.891,78.5291 306.5,86C 317.404,94.7849 327.737,103.952 337.5,113.5C 337.709,114.922 338.209,116.255 339,117.5C 348.853,129.191 356.686,142.191 362.5,156.5C 362.328,157.492 362.662,158.158 363.5,158.5C 366.097,166.559 368.43,174.725 370.5,183C 371.046,187.54 371.713,192.04 372.5,196.5C 373.238,207.15 373.572,217.817 373.5,228.5C 372.5,233.833 371.5,239.167 370.5,244.5C 371.417,229.2 371.417,213.7 370.5,198C 361.761,140.681 331.761,99.3479 280.5,74C 235.216,54.9597 190.55,56.1263 146.5,77.5C 145.833,77.8333 145.167,78.1667 144.5,78.5C 144.158,77.6618 143.492,77.3284 142.5,77.5C 144.072,76.3127 145.739,75.3127 147.5,74.5C 162.606,66.7422 178.606,61.7422 195.5,59.5 Z"/></g>
<g><path style="opacity:1" fill="#f5dca1" d="M 215.5,151.5 C 216.496,151.414 217.329,151.748 218,152.5C 221.055,155.392 223.555,158.725 225.5,162.5C 223.46,160.823 221.46,159.156 219.5,157.5C 218.833,156.833 218.167,156.167 217.5,155.5C 216.081,154.549 214.415,154.216 212.5,154.5C 212.81,152.856 213.81,151.856 215.5,151.5 Z"/></g>
<g><path style="opacity:1" fill="#fef1dd" d="M 219.5,157.5 C 221.46,159.156 223.46,160.823 225.5,162.5C 228.619,164.61 230.952,167.277 232.5,170.5C 233.531,171.249 234.698,171.915 236,172.5C 238.099,178.077 241.932,181.744 247.5,183.5C 247.614,185.718 248.28,187.718 249.5,189.5C 252.133,193.799 251.633,197.466 248,200.5C 247.192,202.579 247.359,204.579 248.5,206.5C 249.334,201.351 252.168,199.351 257,200.5C 257.236,202.764 257.736,204.931 258.5,207C 256.024,210.106 254.858,213.606 255,217.5C 259.089,218.559 262.589,217.392 265.5,214C 264.5,213.667 263.5,213.333 262.5,213C 264.833,212.333 267.167,212.333 269.5,213C 270.805,215.148 272.638,216.648 275,217.5C 276.357,221.143 275.19,223.31 271.5,224C 272.293,227.411 272.793,230.911 273,234.5C 274.316,235.974 275.316,237.641 276,239.5C 279.565,242.138 283.399,243.305 287.5,243C 288.777,245.921 290.11,248.755 291.5,251.5C 293.046,250.788 294.046,249.622 294.5,248C 292.938,244.977 291.271,242.144 289.5,239.5C 279.687,241.844 275.52,238.177 277,228.5C 280.282,229.522 283.782,230.856 287.5,232.5C 288.167,232.5 288.833,232.5 289.5,232.5C 289.351,233.552 289.517,234.552 290,235.5C 294.753,241.088 299.919,246.088 305.5,250.5C 306.526,251.853 307.859,252.853 309.5,253.5C 309.5,267.167 309.5,280.833 309.5,294.5C 288.5,294.5 267.5,294.5 246.5,294.5C 246.833,268.825 246.5,243.158 245.5,217.5C 244.893,217.624 244.56,217.957 244.5,218.5C 235.698,227.828 226.531,236.828 217,245.5C 216.487,246.527 215.987,247.527 215.5,248.5C 210.928,251.563 206.761,255.23 203,259.5C 202.292,258.619 201.458,257.953 200.5,257.5C 200.649,256.448 200.483,255.448 200,254.5C 196.405,250.891 193.405,246.891 191,242.5C 190.184,241.177 189.017,240.511 187.5,240.5C 187.322,237.784 186.822,235.117 186,232.5C 182.617,230.619 180.117,227.952 178.5,224.5C 175.135,219.301 172.135,213.801 169.5,208C 169.862,206.775 170.362,205.609 171,204.5C 176.109,199.304 181.443,194.304 187,189.5C 187.464,188.906 187.631,188.239 187.5,187.5C 197.783,178.25 207.783,168.417 217.5,158C 218.094,157.536 218.761,157.369 219.5,157.5 Z"/></g>
<g><path style="opacity:1" fill="#fcd176" d="M 117.5,141.5 C 119.354,142.241 121.021,143.241 122.5,144.5C 122.5,145.167 122.5,145.833 122.5,146.5C 123.496,146.414 124.329,146.748 125,147.5C 125.667,149.5 126.333,151.5 127,153.5C 129.676,156.206 131.842,159.206 133.5,162.5C 132.838,167.842 134.838,171.842 139.5,174.5C 140.246,175.736 140.579,177.07 140.5,178.5C 142.988,178.683 144.988,179.683 146.5,181.5C 148.567,182.263 150.234,183.596 151.5,185.5C 152.518,184.807 153.518,184.141 154.5,183.5C 154.426,185.411 153.426,186.578 151.5,187C 140.172,187.5 128.838,187.667 117.5,187.5C 117.5,172.167 117.5,156.833 117.5,141.5 Z"/></g>
<g><path style="opacity:1" fill="#c1a164" d="M 183.5,155.5 C 180.848,159.817 177.515,163.484 173.5,166.5C 176.123,162.209 179.456,158.543 183.5,155.5 Z"/></g>
<g><path style="opacity:1" fill="#87530e" d="M 77.5,150.5 C 78.2389,150.369 78.9056,150.536 79.5,151C 76.7788,157.022 74.2788,163.189 72,169.5C 71.5099,167.455 71.6765,165.455 72.5,163.5C 73.3491,158.81 75.0157,154.477 77.5,150.5 Z"/></g>
<g><path style="opacity:1" fill="#f5d690" d="M 289.5,151.5 C 291.593,152.045 293.593,152.878 295.5,154C 299.547,158.237 304.214,161.404 309.5,163.5C 309.5,164.5 309.5,165.5 309.5,166.5C 305.529,163.88 301.196,161.714 296.5,160C 294.393,158.736 293.393,156.903 293.5,154.5C 292.167,154.5 290.833,154.5 289.5,154.5C 289.5,153.5 289.5,152.5 289.5,151.5 Z"/></g>
<g><path style="opacity:1" fill="#e2b659" d="M 122.5,146.5 C 122.5,158.5 122.5,170.5 122.5,182.5C 130.84,182.334 139.173,182.5 147.5,183C 138.84,183.5 130.173,183.666 121.5,183.5C 121.171,170.989 121.505,158.655 122.5,146.5 Z"/></g>
<g><path style="opacity:1" fill="#95601e" d="M 328.5,122.5 C 329.499,173.664 329.832,224.997 329.5,276.5C 330.141,286.889 329.474,296.889 327.5,306.5C 328.36,245.171 328.693,183.838 328.5,122.5 Z"/></g>
<g><path style="opacity:1" fill="#dfd2b6" d="M 217.5,155.5 C 218.167,156.167 218.833,156.833 219.5,157.5C 218.761,157.369 218.094,157.536 217.5,158C 207.783,168.417 197.783,178.25 187.5,187.5C 187.351,186.448 187.517,185.448 188,184.5C 198.268,175.318 208.102,165.651 217.5,155.5 Z"/></g>
<g><path style="opacity:1" fill="#d59f4b" d="M 203.5,162.5 C 200.152,166.847 196.152,170.514 191.5,173.5C 191.826,171.339 192.826,169.506 194.5,168C 196.64,167.027 198.307,165.527 199.5,163.5C 200.689,162.571 202.022,162.238 203.5,162.5 Z"/></g>
<g><path style="opacity:1" fill="#af731c" d="M 207.5,135.5 C 207.077,136.265 206.743,137.098 206.5,138C 208.336,142.334 211.336,145.501 215.5,147.5C 211.571,150.634 208.071,154.301 205,158.5C 204.209,159.745 203.709,161.078 203.5,162.5C 202.022,162.238 200.689,162.571 199.5,163.5C 198.307,165.527 196.64,167.027 194.5,168C 192.826,169.506 191.826,171.339 191.5,173.5C 180.139,183.195 169.473,193.528 159.5,204.5C 159.167,204.5 158.833,204.5 158.5,204.5C 158.475,201.821 157.142,200.488 154.5,200.5C 155.234,199.292 155.567,197.959 155.5,196.5C 141.833,195.833 128.167,195.167 114.5,194.5C 126.851,194.832 139.185,194.499 151.5,193.5C 151.376,192.893 151.043,192.56 150.5,192.5C 150.5,192.167 150.5,191.833 150.5,191.5C 150.5,191.167 150.5,190.833 150.5,190.5C 156.085,188.396 160.418,184.73 163.5,179.5C 168.014,179.505 171.181,177.505 173,173.5C 174.242,172.128 175.742,171.128 177.5,170.5C 178.314,168.234 178.814,165.9 179,163.5C 180.356,162.62 181.856,162.286 183.5,162.5C 183.238,161.022 183.571,159.689 184.5,158.5C 188.828,155.668 192.661,152.335 196,148.5C 196.49,147.207 196.657,145.873 196.5,144.5C 200.186,141.477 203.852,138.477 207.5,135.5 Z"/></g>
<g><path style="opacity:1" fill="#78460b" d="M 261.5,48.5 C 275.566,52.5357 288.9,58.2023 301.5,65.5C 307.647,69.6525 313.981,73.8192 320.5,78C 326.737,83.0834 332.737,88.2501 338.5,93.5C 341.524,96.5266 344.191,99.86 346.5,103.5C 349.085,106.076 351.585,108.743 354,111.5C 357.763,118.035 361.763,124.368 366,130.5C 373.008,144.489 378.841,158.822 383.5,173.5C 383.616,176.86 383.949,180.193 384.5,183.5C 384.847,190.731 385.847,197.731 387.5,204.5C 387.805,213.917 387.472,223.25 386.5,232.5C 385.523,235.287 385.19,238.287 385.5,241.5C 384.883,241.611 384.383,241.944 384,242.5C 383.833,239.667 383.667,236.833 383.5,234C 384.91,218.483 384.743,202.983 383,187.5C 379.025,169.93 373.358,152.93 366,136.5C 364.428,133.898 362.595,131.565 360.5,129.5C 359.875,125.066 357.709,121.733 354,119.5C 346.833,108.756 339,98.7559 330.5,89.5C 329.448,89.6495 328.448,89.4828 327.5,89C 325.446,86.4559 323.113,84.1226 320.5,82C 315.226,77.8041 309.726,73.9708 304,70.5C 297.576,67.72 291.409,64.5534 285.5,61C 279.995,58.2406 274.328,56.0739 268.5,54.5C 269.873,54.6567 271.207,54.49 272.5,54C 268.709,52.0095 265.042,50.1761 261.5,48.5 Z"/></g>
<g><path style="opacity:1" fill="#be9b64" d="M 173.5,166.5 C 171.275,169.933 168.608,172.933 165.5,175.5C 164.609,176.11 163.609,176.443 162.5,176.5C 165.563,172.434 169.229,169.101 173.5,166.5 Z"/></g>
<g><path style="opacity:1" fill="#ab7c25" d="M 196.5,144.5 C 196.657,145.873 196.49,147.207 196,148.5C 192.661,152.335 188.828,155.668 184.5,158.5C 183.571,159.689 183.238,161.022 183.5,162.5C 181.856,162.286 180.356,162.62 179,163.5C 178.814,165.9 178.314,168.234 177.5,170.5C 175.742,171.128 174.242,172.128 173,173.5C 171.181,177.505 168.014,179.505 163.5,179.5C 164.167,178.167 164.833,176.833 165.5,175.5C 168.608,172.933 171.275,169.933 173.5,166.5C 177.515,163.484 180.848,159.817 183.5,155.5C 188.399,152.544 192.732,148.877 196.5,144.5 Z"/></g>
<g><path style="opacity:1" fill="#f5cc79" d="M 56.5,147.5 C 53.901,152.97 51.7343,158.637 50,164.5C 47.2284,174.34 45.3951,184.34 44.5,194.5C 43.7784,194.918 43.2784,195.584 43,196.5C 42.5005,202.825 42.3338,209.158 42.5,215.5C 41.9158,197.796 43.5825,180.13 47.5,162.5C 48.5,162.5 49.5,162.5 50.5,162.5C 50.3359,159.813 50.5026,157.146 51,154.5C 52.5234,152.431 53.3568,150.097 53.5,147.5C 54.5,147.5 55.5,147.5 56.5,147.5 Z"/></g>
<g><path style="opacity:1" fill="#f6d990" d="M 133.5,162.5 C 135.017,162.511 136.184,163.177 137,164.5C 138.012,167.202 139.512,169.535 141.5,171.5C 143.899,174.298 145.566,177.631 146.5,181.5C 144.988,179.683 142.988,178.683 140.5,178.5C 140.579,177.07 140.246,175.736 139.5,174.5C 134.838,171.842 132.838,167.842 133.5,162.5 Z"/></g>
<g><path style="opacity:1" fill="#e19d3d" d="M 14.5,142.5 C 17.9139,155.235 21.4139,167.901 25,180.5C 29.9529,194.857 35.7862,208.857 42.5,222.5C 42.5,223.5 42.5,224.5 42.5,225.5C 43.1179,237.893 44.2845,250.226 46,262.5C 50.1557,273.315 54.489,283.981 59,294.5C 59.7096,295.973 60.8762,296.64 62.5,296.5C 62.3433,297.873 62.51,299.207 63,300.5C 65,303.833 67,307.167 69,310.5C 69.8159,311.823 70.9826,312.489 72.5,312.5C 72.3398,314.199 72.5065,315.866 73,317.5C 76.4948,319.497 77.9948,322.497 77.5,326.5C 83.7896,326.692 86.6229,330.025 86,336.5C 87.9252,337.88 89.7585,339.38 91.5,341C 88.6873,343.536 88.854,345.703 92,347.5C 93.7289,345.599 95.5623,343.932 97.5,342.5C 99.9134,344.985 101.58,347.985 102.5,351.5C 101.276,354.505 101.276,357.505 102.5,360.5C 100.524,364.034 98.8573,367.701 97.5,371.5C 98.3202,373.111 99.6536,373.778 101.5,373.5C 101.253,370.495 102.253,367.995 104.5,366C 106.367,365.289 107.867,365.789 109,367.5C 110.07,370.242 111.57,372.742 113.5,375C 111.95,377.095 111.617,379.262 112.5,381.5C 113.251,380.624 113.751,379.624 114,378.5C 115,380.167 116.333,381.5 118,382.5C 118.333,384.167 118.667,385.833 119,387.5C 120.385,388.551 121.385,389.884 122,391.5C 122.718,390.549 123.551,390.383 124.5,391C 125.787,392.41 126.954,393.91 128,395.5C 128.045,398.334 128.879,400.834 130.5,403C 127.736,403.532 125.07,404.366 122.5,405.5C 121.571,404.311 121.238,402.978 121.5,401.5C 119.011,401.241 117.344,402.241 116.5,404.5C 112.424,402.948 108.424,401.115 104.5,399C 99.1916,394.009 93.1916,390.009 86.5,387C 77.3951,379.46 68.5617,371.294 60,362.5C 59.5172,361.552 59.3505,360.552 59.5,359.5C 58.325,359.719 57.325,359.386 56.5,358.5C 34.2167,333.568 18.3834,304.901 9,272.5C 5.97894,262.04 4.14561,251.374 3.5,240.5C 2.23816,224.156 2.23816,207.823 3.5,191.5C 3.83955,184.116 4.67288,176.783 6,169.5C 7.9763,161.789 10.143,154.122 12.5,146.5C 13.1667,145.167 13.8333,143.833 14.5,142.5 Z"/></g>
<g><path style="opacity:1" fill="#d49d4e" d="M 191.5,173.5 C 183.89,182.447 175.89,191.114 167.5,199.5C 165.38,200.451 163.714,201.951 162.5,204C 161.552,204.483 160.552,204.649 159.5,204.5C 169.473,193.528 180.139,183.195 191.5,173.5 Z"/></g>
<g><path style="opacity:1" fill="#b0823e" d="M 316.5,124.5 C 317.167,169.5 317.833,214.5 318.5,259.5C 318.5,259.833 318.5,260.167 318.5,260.5C 318.5,262.167 318.5,263.833 318.5,265.5C 317.833,277.5 317.167,289.5 316.5,301.5C 316.5,287.167 316.5,272.833 316.5,258.5C 316.5,228.5 316.5,198.5 316.5,168.5C 316.5,153.833 316.5,139.167 316.5,124.5 Z"/></g>
<g><path style="opacity:1" fill="#f8e9c9" d="M 212.5,154.5 C 214.415,154.216 216.081,154.549 217.5,155.5C 208.102,165.651 198.268,175.318 188,184.5C 187.517,185.448 187.351,186.448 187.5,187.5C 187.631,188.239 187.464,188.906 187,189.5C 181.443,194.304 176.109,199.304 171,204.5C 170.362,205.609 169.862,206.775 169.5,208C 172.135,213.801 175.135,219.301 178.5,224.5C 177.055,222.937 175.389,221.604 173.5,220.5C 172.076,215.304 169.41,210.97 165.5,207.5C 165.365,204.583 166.032,201.916 167.5,199.5C 175.89,191.114 183.89,182.447 191.5,173.5C 196.152,170.514 200.152,166.847 203.5,162.5C 206.515,159.744 209.515,157.077 212.5,154.5 Z"/></g>
<g><path style="opacity:1" fill="#f8d586" d="M 232.5,170.5 C 237.106,169.418 240.106,171.084 241.5,175.5C 242.736,176.246 244.07,176.579 245.5,176.5C 244.773,180.224 246.106,182.891 249.5,184.5C 250.736,183.754 252.07,183.421 253.5,183.5C 252.833,185.819 252.666,188.153 253,190.5C 254.011,191.337 255.178,191.67 256.5,191.5C 257.382,194.385 258.716,197.052 260.5,199.5C 256.879,196.217 253.213,192.884 249.5,189.5C 248.28,187.718 247.614,185.718 247.5,183.5C 241.932,181.744 238.099,178.077 236,172.5C 234.698,171.915 233.531,171.249 232.5,170.5 Z"/></g>
<g><path style="opacity:1" fill="#9f6e30" d="M 238.5,124.5 C 263.328,123.502 288.328,123.169 313.5,123.5C 315.167,123.5 316.833,123.5 318.5,123.5C 318.5,168.833 318.5,214.167 318.5,259.5C 317.833,214.5 317.167,169.5 316.5,124.5C 297.167,124.5 277.833,124.5 258.5,124.5C 252.5,124.5 246.5,124.5 240.5,124.5C 239.833,124.5 239.167,124.5 238.5,124.5 Z"/></g>
<g><path style="opacity:1" fill="#653a0f" d="M 322.5,117.5 C 322.183,121.172 323.849,122.838 327.5,122.5C 326.693,166.815 326.193,211.148 326,255.5C 324.872,257.345 324.372,259.345 324.5,261.5C 323.209,261.263 322.209,261.596 321.5,262.5C 320.5,261.833 319.5,261.167 318.5,260.5C 318.5,260.167 318.5,259.833 318.5,259.5C 318.5,214.167 318.5,168.833 318.5,123.5C 316.833,123.5 315.167,123.5 313.5,123.5C 312.737,122.732 311.737,122.232 310.5,122C 287.169,121.5 263.836,121.333 240.5,121.5C 240.5,119.833 240.5,118.167 240.5,116.5C 260.15,117.745 279.816,117.745 299.5,116.5C 302.833,116.667 306.167,116.833 309.5,117C 310.025,117.692 310.692,118.192 311.5,118.5C 315.051,115.109 318.718,114.776 322.5,117.5 Z"/></g>
<g><path style="opacity:1" fill="#72400a" d="M 327.5,122.5 C 327.833,122.5 328.167,122.5 328.5,122.5C 328.693,183.838 328.36,245.171 327.5,306.5C 327.167,306.5 326.833,306.5 326.5,306.5C 325.833,306.5 325.167,306.5 324.5,306.5C 324.667,293.163 324.5,279.829 324,266.5C 322.519,265.529 321.685,264.196 321.5,262.5C 322.209,261.596 323.209,261.263 324.5,261.5C 324.372,259.345 324.872,257.345 326,255.5C 326.193,211.148 326.693,166.815 327.5,122.5 Z"/></g>
<g><path style="opacity:1" fill="#f2c56a" d="M 309.5,166.5 C 309.833,166.5 310.167,166.5 310.5,166.5C 311.028,167.721 311.695,168.887 312.5,170C 314.157,170.725 315.157,170.225 315.5,168.5C 315.833,168.5 316.167,168.5 316.5,168.5C 316.5,198.5 316.5,228.5 316.5,258.5C 316.167,258.5 315.833,258.5 315.5,258.5C 313.833,257.833 312.167,257.167 310.5,256.5C 310.768,254.901 310.434,253.568 309.5,252.5C 309.5,252.167 309.5,251.833 309.5,251.5C 309.5,223.167 309.5,194.833 309.5,166.5 Z"/></g>
<g><path style="opacity:1" fill="#ab782e" d="M 114.5,137.5 C 115.331,153.662 115.831,169.995 116,186.5C 116.383,187.056 116.883,187.389 117.5,187.5C 128.838,187.667 140.172,187.5 151.5,187C 153.426,186.578 154.426,185.411 154.5,183.5C 157.167,181.167 159.833,178.833 162.5,176.5C 163.609,176.443 164.609,176.11 165.5,175.5C 164.833,176.833 164.167,178.167 163.5,179.5C 160.418,184.73 156.085,188.396 150.5,190.5C 138.5,190.5 126.5,190.5 114.5,190.5C 114.5,172.833 114.5,155.167 114.5,137.5 Z"/></g>
<g><path style="opacity:1" fill="#8b5713" d="M 358.5,285.5 C 361.689,275.722 365.023,266.055 368.5,256.5C 370.136,252.79 370.802,248.79 370.5,244.5C 371.5,239.167 372.5,233.833 373.5,228.5C 374.166,224.347 374.499,220.013 374.5,215.5C 374.68,208.928 374.014,202.595 372.5,196.5C 371.713,192.04 371.046,187.54 370.5,183C 368.43,174.725 366.097,166.559 363.5,158.5C 363.435,158.062 363.601,157.728 364,157.5C 368.859,167.579 372.193,178.246 374,189.5C 378.68,221.396 374.68,252.062 362,281.5C 360.595,282.731 359.429,284.064 358.5,285.5 Z"/></g>
<g><path style="opacity:1" fill="#6d3809" d="M 150.5,191.5 C 150.5,191.833 150.5,192.167 150.5,192.5C 140.008,193.659 129.341,193.825 118.5,193C 129.063,191.547 139.73,191.047 150.5,191.5 Z"/></g>
<g><path style="opacity:1" fill="#f6d392" d="M 113.5,192.5 C 113.5,193.167 113.5,193.833 113.5,194.5C 112.931,197.335 111.264,199.001 108.5,199.5C 105.916,198.952 104.916,197.285 105.5,194.5C 106.167,194.5 106.5,194.167 106.5,193.5C 108.258,193.123 109.925,192.456 111.5,191.5C 112.183,191.863 112.85,192.196 113.5,192.5 Z"/></g>
<g><path style="opacity:1" fill="#de9d45" d="M 113.5,194.5 C 113.833,194.5 114.167,194.5 114.5,194.5C 128.167,195.167 141.833,195.833 155.5,196.5C 152.641,198.349 149.641,200.015 146.5,201.5C 133.833,200.833 121.167,200.167 108.5,199.5C 111.264,199.001 112.931,197.335 113.5,194.5 Z"/></g>
<g><path style="opacity:1" fill="#9c6c2d" d="M 384.5,183.5 C 386.713,190.182 387.713,197.182 387.5,204.5C 385.847,197.731 384.847,190.731 384.5,183.5 Z"/></g>
<g><path style="opacity:1" fill="#edc78c" d="M 155.5,196.5 C 155.567,197.959 155.234,199.292 154.5,200.5C 152.365,202.369 149.698,203.036 146.5,202.5C 146.5,202.167 146.5,201.833 146.5,201.5C 149.641,200.015 152.641,198.349 155.5,196.5 Z"/></g>
<g><path style="opacity:1" fill="#fbd079" d="M 416.5,134.5 C 419.658,140.456 422.158,146.79 424,153.5C 427.822,167.447 430.656,181.447 432.5,195.5C 432.5,198.167 432.5,200.833 432.5,203.5C 432.167,203.5 431.833,203.5 431.5,203.5C 430.5,203.5 429.5,203.5 428.5,203.5C 430.178,225.702 427.845,247.369 421.5,268.5C 420.213,267.129 419.547,265.295 419.5,263C 419.667,261.167 419.833,259.333 420,257.5C 421.397,256.774 422.231,255.607 422.5,254C 423.443,249.733 424.443,245.566 425.5,241.5C 425.333,239.833 425.167,238.167 425,236.5C 424.667,236.833 424.333,237.167 424,237.5C 422.664,234.991 421.83,232.324 421.5,229.5C 421.342,227.681 422.009,226.348 423.5,225.5C 424.331,219.193 424.831,212.859 425,206.5C 426.717,205.012 427.884,203.179 428.5,201C 428.343,193.883 428.343,186.716 428.5,179.5C 426.721,171.744 424.554,164.078 422,156.5C 422.032,159.841 422.532,163.174 423.5,166.5C 423.247,168.956 422.247,170.956 420.5,172.5C 419.641,165.553 417.974,158.886 415.5,152.5C 416.901,146.511 417.234,140.511 416.5,134.5 Z"/></g>
<g><path style="opacity:1" fill="#a56f20" d="M 59.5,157.5 C 58.1493,161.518 57.4826,165.685 57.5,170C 57.5296,172.424 57.8629,174.757 58.5,177C 56.1346,179.061 54.8013,181.728 54.5,185C 54.6448,185.772 54.9781,186.439 55.5,187C 54.1696,191.318 52.8363,195.652 51.5,200C 52.7706,209.341 52.7706,218.675 51.5,228C 51.8219,234.33 53.1552,240.33 55.5,246C 54.9186,246.893 54.5852,247.893 54.5,249C 56.3313,257.375 58.3313,265.542 60.5,273.5C 59.9348,271.614 58.9348,269.947 57.5,268.5C 55.8229,261.82 54.1562,255.153 52.5,248.5C 46.5716,217.277 48.9049,186.944 59.5,157.5 Z"/></g>
<g><path style="opacity:1" fill="#f5d78f" d="M 167.5,199.5 C 166.032,201.916 165.365,204.583 165.5,207.5C 160.021,209.955 155.021,213.288 150.5,217.5C 153.576,213.749 156.909,210.083 160.5,206.5C 160.043,205.702 159.376,205.369 158.5,205.5C 158.5,205.167 158.5,204.833 158.5,204.5C 158.833,204.5 159.167,204.5 159.5,204.5C 160.552,204.649 161.552,204.483 162.5,204C 163.714,201.951 165.38,200.451 167.5,199.5 Z"/></g>
<g><path style="opacity:1" fill="#d6ab60" d="M 44.5,194.5 C 44.5,194.833 44.5,195.167 44.5,195.5C 43.5756,205.461 43.2423,215.461 43.5,225.5C 43.1667,225.5 42.8333,225.5 42.5,225.5C 42.5,224.5 42.5,223.5 42.5,222.5C 42.5,220.167 42.5,217.833 42.5,215.5C 42.3338,209.158 42.5005,202.825 43,196.5C 43.2784,195.584 43.7784,194.918 44.5,194.5 Z"/></g>
<g><path style="opacity:1" fill="#f5d689" d="M 260.5,199.5 C 263.37,200.078 265.037,201.745 265.5,204.5C 266.5,204.5 267.5,204.5 268.5,204.5C 268.5,205.5 268.5,206.5 268.5,207.5C 269.93,207.421 271.264,207.754 272.5,208.5C 276.042,211.888 278.876,215.888 281,220.5C 283.269,223.047 285.935,225.047 289,226.5C 289.573,228.641 290.406,230.641 291.5,232.5C 290.833,232.5 290.167,232.5 289.5,232.5C 288.833,232.5 288.167,232.5 287.5,232.5C 286.36,230.22 285.193,227.886 284,225.5C 279.027,219.194 273.36,213.527 267,208.5C 264.59,205.603 262.423,202.603 260.5,199.5 Z"/></g>
<g><path style="opacity:1" fill="#b3791f" d="M 3.5,191.5 C 2.23816,207.823 2.23816,224.156 3.5,240.5C 2.71003,239.391 2.21003,238.058 2,236.5C 1.83333,229 1.66667,221.5 1.5,214C 1.50251,206.136 2.16917,198.636 3.5,191.5 Z"/></g>
<g><path style="opacity:1" fill="#a9772c" d="M 372.5,196.5 C 374.014,202.595 374.68,208.928 374.5,215.5C 374.499,220.013 374.166,224.347 373.5,228.5C 373.572,217.817 373.238,207.15 372.5,196.5 Z"/></g>
<g><path style="opacity:1" fill="#653d16" d="M 154.5,200.5 C 157.142,200.488 158.475,201.821 158.5,204.5C 158.5,204.833 158.5,205.167 158.5,205.5C 143.752,219.581 129.419,233.914 115.5,248.5C 114.833,248.5 114.5,248.833 114.5,249.5C 113.559,252.125 112.393,252.125 111,249.5C 110.51,248.207 110.343,246.873 110.5,245.5C 113.598,245.587 113.932,245.087 111.5,244C 112.961,241.042 114.961,238.542 117.5,236.5C 118.167,237.833 118.833,239.167 119.5,240.5C 121.92,238.134 124.42,235.801 127,233.5C 126.686,230.454 126.853,227.454 127.5,224.5C 130.642,222.37 132.975,219.703 134.5,216.5C 137.588,216.803 139.254,215.47 139.5,212.5C 140.5,212.5 141.5,212.5 142.5,212.5C 142.662,210.176 143.828,208.509 146,207.5C 146.49,206.207 146.657,204.873 146.5,203.5C 146.5,203.167 146.5,202.833 146.5,202.5C 149.698,203.036 152.365,202.369 154.5,200.5 Z"/></g>
<g><path style="opacity:1" fill="#f5ddb4" d="M 158.5,205.5 C 159.376,205.369 160.043,205.702 160.5,206.5C 156.909,210.083 153.576,213.749 150.5,217.5C 149.833,217.5 149.5,217.833 149.5,218.5C 144.556,221.349 140.722,225.349 138,230.5C 130.996,236.671 124.163,243.005 117.5,249.5C 116.833,249.5 116.167,249.5 115.5,249.5C 115.5,249.167 115.5,248.833 115.5,248.5C 129.419,233.914 143.752,219.581 158.5,205.5 Z"/></g>
<g><path style="opacity:1" fill="#fed273" d="M 174.5,223.5 C 175.167,223.5 175.5,223.833 175.5,224.5C 176.031,227.237 176.864,229.904 178,232.5C 182.352,237.25 186.685,241.916 191,246.5C 191.749,251.628 194.416,255.294 199,257.5C 199.21,259.058 199.71,260.391 200.5,261.5C 190.061,272.554 179.394,283.387 168.5,294C 153.17,294.5 137.837,294.667 122.5,294.5C 122.168,281.816 122.501,269.149 123.5,256.5C 124.271,254.138 125.105,251.804 126,249.5C 129.703,248.285 133.203,246.618 136.5,244.5C 137.739,242.993 137.405,241.826 135.5,241C 139.702,237.133 143.535,232.967 147,228.5C 151.81,226.707 156.143,224.04 160,220.5C 161.965,221.891 163.798,223.391 165.5,225C 165.241,226.261 164.574,227.261 163.5,228C 165.285,230.226 167.618,231.392 170.5,231.5C 170.338,229.473 170.505,227.473 171,225.5C 171.816,224.177 172.983,223.511 174.5,223.5 Z"/></g>
<g><path style="opacity:1" fill="#fdf2d6" d="M 249.5,189.5 C 253.213,192.884 256.879,196.217 260.5,199.5C 262.423,202.603 264.59,205.603 267,208.5C 273.36,213.527 279.027,219.194 284,225.5C 285.193,227.886 286.36,230.22 287.5,232.5C 283.782,230.856 280.282,229.522 277,228.5C 275.52,238.177 279.687,241.844 289.5,239.5C 291.271,242.144 292.938,244.977 294.5,248C 294.046,249.622 293.046,250.788 291.5,251.5C 290.11,248.755 288.777,245.921 287.5,243C 283.399,243.305 279.565,242.138 276,239.5C 275.316,237.641 274.316,235.974 273,234.5C 272.793,230.911 272.293,227.411 271.5,224C 275.19,223.31 276.357,221.143 275,217.5C 272.638,216.648 270.805,215.148 269.5,213C 267.167,212.333 264.833,212.333 262.5,213C 263.5,213.333 264.5,213.667 265.5,214C 262.589,217.392 259.089,218.559 255,217.5C 254.858,213.606 256.024,210.106 258.5,207C 257.736,204.931 257.236,202.764 257,200.5C 252.168,199.351 249.334,201.351 248.5,206.5C 247.359,204.579 247.192,202.579 248,200.5C 251.633,197.466 252.133,193.799 249.5,189.5 Z"/></g>
<g><path style="opacity:1" fill="#f9e4aa" d="M 173.5,220.5 C 175.389,221.604 177.055,222.937 178.5,224.5C 180.117,227.952 182.617,230.619 186,232.5C 186.822,235.117 187.322,237.784 187.5,240.5C 184.206,234.553 180.206,229.22 175.5,224.5C 175.5,223.833 175.167,223.5 174.5,223.5C 173.89,222.609 173.557,221.609 173.5,220.5 Z"/></g>
<g><path style="opacity:1" fill="#d1c1a3" d="M 244.5,218.5 C 245.833,244.5 245.833,270.5 244.5,296.5C 244.667,271.498 244.5,246.498 244,221.5C 234.913,231.091 225.413,240.091 215.5,248.5C 215.987,247.527 216.487,246.527 217,245.5C 226.531,236.828 235.698,227.828 244.5,218.5 Z"/></g>
<g><path style="opacity:1" fill="#f4d68a" d="M 149.5,218.5 C 147.489,222.529 144.989,226.196 142,229.5C 132.909,236.432 124.743,244.098 117.5,252.5C 117.5,251.5 117.5,250.5 117.5,249.5C 124.163,243.005 130.996,236.671 138,230.5C 140.722,225.349 144.556,221.349 149.5,218.5 Z"/></g>
<g><path style="opacity:1" fill="#8d5812" d="M 69.5,170.5 C 70.5862,170.62 71.2528,171.287 71.5,172.5C 64.6635,196.915 63.6635,221.582 68.5,246.5C 72.8437,267.183 81.0103,286.183 93,303.5C 93.4828,304.448 93.6495,305.448 93.5,306.5C 92.3569,306.092 91.3569,305.425 90.5,304.5C 63.4269,263.121 56.4269,218.455 69.5,170.5 Z"/></g>
<g><path style="opacity:1" fill="#fde9b8" d="M 289.5,232.5 C 290.167,232.5 290.833,232.5 291.5,232.5C 294.323,238.004 298.323,242.671 303.5,246.5C 304.63,247.622 305.297,248.956 305.5,250.5C 299.919,246.088 294.753,241.088 290,235.5C 289.517,234.552 289.351,233.552 289.5,232.5 Z"/></g>
<g><path style="opacity:1" fill="#f4d58b" d="M 175.5,224.5 C 180.206,229.22 184.206,234.553 187.5,240.5C 189.017,240.511 190.184,241.177 191,242.5C 193.405,246.891 196.405,250.891 200,254.5C 200.483,255.448 200.649,256.448 200.5,257.5C 201.706,259.483 203.039,261.483 204.5,263.5C 205.325,264.386 206.325,264.719 207.5,264.5C 206.791,265.404 205.791,265.737 204.5,265.5C 203.333,263.959 202,262.625 200.5,261.5C 199.71,260.391 199.21,259.058 199,257.5C 194.416,255.294 191.749,251.628 191,246.5C 186.685,241.916 182.352,237.25 178,232.5C 176.864,229.904 176.031,227.237 175.5,224.5 Z"/></g>
<g><path style="opacity:0.79" fill="#b0884a" d="M 431.5,203.5 C 431.833,203.5 432.167,203.5 432.5,203.5C 432.5,214.5 432.5,225.5 432.5,236.5C 429.239,267.95 419.572,297.283 403.5,324.5C 404.047,320.758 405.547,317.425 408,314.5C 408.994,311.039 409.827,307.539 410.5,304C 411.672,302.161 413.172,300.661 415,299.5C 418.751,288.915 422.085,278.249 425,267.5C 427.332,256.639 429.332,245.639 431,234.5C 431.5,224.172 431.666,213.839 431.5,203.5 Z"/></g>
<g><path style="opacity:1" fill="#ba8f4e" d="M 236.5,236.5 C 237.5,236.5 238.5,236.5 239.5,236.5C 239.169,258.007 239.503,279.34 240.5,300.5C 240.5,300.833 240.5,301.167 240.5,301.5C 238.512,281.527 237.845,261.194 238.5,240.5C 238.631,239.624 238.298,238.957 237.5,238.5C 236.3,239.531 234.966,240.365 233.5,241C 225.725,248.758 218.058,256.758 210.5,265C 208.715,267.226 206.382,268.392 203.5,268.5C 204.11,267.609 204.443,266.609 204.5,265.5C 205.791,265.737 206.791,265.404 207.5,264.5C 216.359,255.366 225.359,246.199 234.5,237C 235.094,236.536 235.761,236.369 236.5,236.5 Z"/></g>
<g><path style="opacity:1" fill="#f5d583" d="M 291.5,232.5 C 296.107,235.931 300.607,239.597 305,243.5C 305.23,246.968 306.73,249.634 309.5,251.5C 309.5,251.833 309.5,252.167 309.5,252.5C 309.5,252.833 309.5,253.167 309.5,253.5C 307.859,252.853 306.526,251.853 305.5,250.5C 305.297,248.956 304.63,247.622 303.5,246.5C 298.323,242.671 294.323,238.004 291.5,232.5 Z"/></g>
<g><path style="opacity:1" fill="#925f1a" d="M 105.5,244.5 C 105.5,244.833 105.5,245.167 105.5,245.5C 104.503,265.66 104.17,285.993 104.5,306.5C 103.833,296.339 103.5,286.005 103.5,275.5C 103.501,264.811 104.168,254.478 105.5,244.5 Z"/></g>
<g><path style="opacity:1" fill="#673a0e" d="M 146.5,203.5 C 146.657,204.873 146.49,206.207 146,207.5C 143.828,208.509 142.662,210.176 142.5,212.5C 141.5,212.5 140.5,212.5 139.5,212.5C 139.254,215.47 137.588,216.803 134.5,216.5C 132.975,219.703 130.642,222.37 127.5,224.5C 126.853,227.454 126.686,230.454 127,233.5C 124.42,235.801 121.92,238.134 119.5,240.5C 118.833,239.167 118.167,237.833 117.5,236.5C 114.961,238.542 112.961,241.042 111.5,244C 113.932,245.087 113.598,245.587 110.5,245.5C 110.343,246.873 110.51,248.207 111,249.5C 112.393,252.125 113.559,252.125 114.5,249.5C 114.5,250.5 114.5,251.5 114.5,252.5C 113.493,268.402 112.993,284.402 113,300.5C 110.699,301.867 108.199,302.534 105.5,302.5C 105.5,300.833 105.5,299.167 105.5,297.5C 108.5,297.833 109.833,296.5 109.5,293.5C 108.167,293.5 106.833,293.5 105.5,293.5C 105.5,277.5 105.5,261.5 105.5,245.5C 105.5,245.167 105.5,244.833 105.5,244.5C 105.5,243.833 105.5,243.167 105.5,242.5C 106.683,241.496 108.016,240.662 109.5,240C 120.928,227.85 132.595,215.85 144.5,204C 145.094,203.536 145.761,203.369 146.5,203.5 Z"/></g>
<g><path style="opacity:1" fill="#f4cc93" d="M 235.5,257.5 C 235.5,258.5 235.5,259.5 235.5,260.5C 234.508,260.328 233.842,260.662 233.5,261.5C 232.5,261.833 231.833,262.5 231.5,263.5C 229.938,263.733 228.605,264.4 227.5,265.5C 227.167,265.5 226.833,265.5 226.5,265.5C 225.699,263.958 225.366,262.292 225.5,260.5C 227.765,255.408 231.099,254.408 235.5,257.5 Z"/></g>
<g><path style="opacity:1" fill="#ce983d" d="M 386.5,232.5 C 386.666,236.514 386.499,240.514 386,244.5C 383.712,254.278 381.045,263.945 378,273.5C 373.565,281.916 369.732,290.583 366.5,299.5C 365.311,300.429 363.978,300.762 362.5,300.5C 367.585,289.765 372.585,278.931 377.5,268C 378.549,258.539 381.215,249.706 385.5,241.5C 385.19,238.287 385.523,235.287 386.5,232.5 Z"/></g>
<g><path style="opacity:1" fill="#ac7021" d="M 318.5,260.5 C 319.5,261.167 320.5,261.833 321.5,262.5C 321.685,264.196 322.519,265.529 324,266.5C 324.5,279.829 324.667,293.163 324.5,306.5C 324.167,306.5 323.833,306.5 323.5,306.5C 323.79,302.446 323.123,301.946 321.5,305C 320.552,305.483 319.552,305.649 318.5,305.5C 318.5,292.167 318.5,278.833 318.5,265.5C 318.5,263.833 318.5,262.167 318.5,260.5 Z"/></g>
<g><path style="opacity:1" fill="#b17f39" d="M 238.5,240.5 C 237.845,261.194 238.512,281.527 240.5,301.5C 265.833,301.5 291.167,301.5 316.5,301.5C 316.389,302.117 316.056,302.617 315.5,303C 291.143,303.814 266.81,303.647 242.5,302.5C 240.548,303.208 238.881,304.375 237.5,306C 265.745,307.483 294.078,307.983 322.5,307.5C 294.338,308.498 266.005,308.831 237.5,308.5C 236.833,307.833 236.167,307.167 235.5,306.5C 235.5,291.167 235.5,275.833 235.5,260.5C 235.5,259.5 235.5,258.5 235.5,257.5C 237.146,252.073 238.146,246.406 238.5,240.5 Z"/></g>
<g><path style="opacity:1" fill="#bd9b66" d="M 240.5,300.5 C 239.503,279.34 239.169,258.007 239.5,236.5C 238.5,236.5 237.5,236.5 236.5,236.5C 237.287,234.896 238.62,234.229 240.5,234.5C 240.5,256.5 240.5,278.5 240.5,300.5 Z"/></g>
<g><path style="opacity:1" fill="#b0741e" d="M 238.5,240.5 C 238.146,246.406 237.146,252.073 235.5,257.5C 231.099,254.408 227.765,255.408 225.5,260.5C 223.954,263.2 221.621,265.033 218.5,266C 216.131,268.839 213.797,271.672 211.5,274.5C 210.167,275.5 208.833,276.5 207.5,277.5C 207.338,275.176 206.172,273.509 204,272.5C 203.617,273.056 203.117,273.389 202.5,273.5C 203.038,271.883 203.371,270.216 203.5,268.5C 206.382,268.392 208.715,267.226 210.5,265C 218.058,256.758 225.725,248.758 233.5,241C 234.966,240.365 236.3,239.531 237.5,238.5C 238.298,238.957 238.631,239.624 238.5,240.5 Z"/></g>
<g><path style="opacity:1" fill="#fbeccd" d="M 244.5,296.5 C 243.522,296.811 242.855,297.478 242.5,298.5C 266.491,299.5 290.491,299.833 314.5,299.5C 314.5,286.5 314.5,273.5 314.5,260.5C 313.041,260.567 311.708,260.234 310.5,259.5C 310.5,258.5 310.5,257.5 310.5,256.5C 312.167,257.167 313.833,257.833 315.5,258.5C 315.5,272.5 315.5,286.5 315.5,300.5C 290.5,300.5 265.5,300.5 240.5,300.5C 240.5,278.5 240.5,256.5 240.5,234.5C 238.62,234.229 237.287,234.896 236.5,236.5C 235.761,236.369 235.094,236.536 234.5,237C 225.359,246.199 216.359,255.366 207.5,264.5C 206.325,264.719 205.325,264.386 204.5,263.5C 203.039,261.483 201.706,259.483 200.5,257.5C 201.458,257.953 202.292,258.619 203,259.5C 206.761,255.23 210.928,251.563 215.5,248.5C 225.413,240.091 234.913,231.091 244,221.5C 244.5,246.498 244.667,271.498 244.5,296.5 Z"/></g>
<g><path style="opacity:1" fill="#eab969" d="M 368.5,256.5 C 365.023,266.055 361.689,275.722 358.5,285.5C 357.624,285.369 356.957,285.702 356.5,286.5C 353.836,291.802 350.836,296.802 347.5,301.5C 347.5,300.833 347.167,300.5 346.5,300.5C 347.075,298.589 348.075,296.922 349.5,295.5C 352.981,290.597 355.814,285.264 358,279.5C 361.671,268.441 365.338,257.441 369,246.5C 369.172,249.826 369.005,253.159 368.5,256.5 Z"/></g>
<g><path style="opacity:1" fill="#be8a3c" d="M 115.5,249.5 C 116.167,249.5 116.833,249.5 117.5,249.5C 117.5,250.5 117.5,251.5 117.5,252.5C 117.5,268.833 117.5,285.167 117.5,301.5C 117.44,302.043 117.107,302.376 116.5,302.5C 115.5,284.846 115.167,267.179 115.5,249.5 Z"/></g>
<g><path style="opacity:1" fill="#d19542" d="M 42.5,225.5 C 42.8333,225.5 43.1667,225.5 43.5,225.5C 45.6747,257.282 55.3413,286.282 72.5,312.5C 70.9826,312.489 69.8159,311.823 69,310.5C 67,307.167 65,303.833 63,300.5C 62.51,299.207 62.3433,297.873 62.5,296.5C 60.8762,296.64 59.7096,295.973 59,294.5C 54.489,283.981 50.1557,273.315 46,262.5C 44.2845,250.226 43.1179,237.893 42.5,225.5 Z"/></g>
<g><path style="opacity:1" fill="#db9b3f" d="M 225.5,260.5 C 225.366,262.292 225.699,263.958 226.5,265.5C 226.827,275.348 226.494,285.014 225.5,294.5C 221.732,289.408 218.232,284.075 215,278.5C 213.989,277.663 212.822,277.33 211.5,277.5C 211.5,276.5 211.5,275.5 211.5,274.5C 213.797,271.672 216.131,268.839 218.5,266C 221.621,265.033 223.954,263.2 225.5,260.5 Z"/></g>
<g><path style="opacity:1" fill="#ac7220" d="M 105.5,242.5 C 105.5,243.167 105.5,243.833 105.5,244.5C 104.168,254.478 103.501,264.811 103.5,275.5C 103.5,286.005 103.833,296.339 104.5,306.5C 104.833,306.5 105.167,306.5 105.5,306.5C 105.241,310.237 106.907,312.57 110.5,313.5C 112.607,314.468 114.941,314.802 117.5,314.5C 117.574,316.411 118.574,317.578 120.5,318C 120.167,318.333 119.833,318.667 119.5,319C 121.283,320.067 121.783,321.567 121,323.5C 118.692,322.359 116.859,320.692 115.5,318.5C 113.604,317.534 111.604,317.201 109.5,317.5C 109.343,318.873 109.51,320.207 110,321.5C 113.885,323.534 116.385,326.534 117.5,330.5C 116.761,330.631 116.094,330.464 115.5,330C 108.007,322.062 100.673,314.228 93.5,306.5C 93.6495,305.448 93.4828,304.448 93,303.5C 81.0103,286.183 72.8437,267.183 68.5,246.5C 69.1499,246.804 69.8165,247.137 70.5,247.5C 70.8046,252.278 72.8046,256.111 76.5,259C 74.447,264.95 75.7803,269.95 80.5,274C 79.8333,274.333 79.1667,274.667 78.5,275C 79.6667,276.167 80.8333,277.333 82,278.5C 82.5354,276.729 83.3687,276.396 84.5,277.5C 84.6607,286.63 88.4941,294.297 96,300.5C 96.49,301.793 96.6567,303.127 96.5,304.5C 100.322,303.82 101.989,301.487 101.5,297.5C 99.6536,297.778 98.3202,297.111 97.5,295.5C 98.3697,293.474 99.8697,292.141 102,291.5C 102.5,275.17 102.667,258.837 102.5,242.5C 103.5,242.5 104.5,242.5 105.5,242.5 Z"/></g>
<g><path style="opacity:1" fill="#af731b" d="M 92.5,102.5 C 92.3433,103.873 92.51,105.207 93,106.5C 94.5212,108.89 96.0212,111.223 97.5,113.5C 97.5,113.833 97.5,114.167 97.5,114.5C 70.8874,146.507 58.7207,183.507 61,225.5C 67.4012,288.868 99.2346,334.035 156.5,361C 159.491,362.523 162.491,363.023 165.5,362.5C 156.27,357.718 146.937,353.218 137.5,349C 134.443,346.277 131.11,343.944 127.5,342C 126.748,341.329 126.414,340.496 126.5,339.5C 124.752,338.211 124.419,336.711 125.5,335C 121.62,335.889 118.953,334.389 117.5,330.5C 116.385,326.534 113.885,323.534 110,321.5C 109.51,320.207 109.343,318.873 109.5,317.5C 111.604,317.201 113.604,317.534 115.5,318.5C 116.859,320.692 118.692,322.359 121,323.5C 121.783,321.567 121.283,320.067 119.5,319C 119.833,318.667 120.167,318.333 120.5,318C 118.574,317.578 117.574,316.411 117.5,314.5C 136.17,314.667 154.836,314.5 173.5,314C 174.942,313.623 175.942,312.79 176.5,311.5C 188.754,300.914 200.421,289.581 211.5,277.5C 212.822,277.33 213.989,277.663 215,278.5C 218.232,284.075 221.732,289.408 225.5,294.5C 225.172,299.875 225.505,305.208 226.5,310.5C 227.944,311.981 228.611,311.648 228.5,309.5C 228.833,309.5 229.167,309.5 229.5,309.5C 229.488,312.142 230.821,313.475 233.5,313.5C 235.607,314.468 237.941,314.802 240.5,314.5C 240.5,315.167 240.5,315.833 240.5,316.5C 246.334,326.017 253.001,335.017 260.5,343.5C 264.107,349.053 267.44,354.719 270.5,360.5C 268.952,360.821 268.285,361.821 268.5,363.5C 268.47,364.497 268.97,365.164 270,365.5C 271.406,364.586 272.906,363.92 274.5,363.5C 274.5,364.5 274.5,365.5 274.5,366.5C 275.5,366.5 276.5,366.5 277.5,366.5C 277.629,368.216 277.962,369.883 278.5,371.5C 276.272,371.777 274.605,372.777 273.5,374.5C 261.799,377.742 250.132,380.742 238.5,383.5C 237.883,383.611 237.383,383.944 237,384.5C 224.575,383.677 212.075,383.177 199.5,383C 192.214,382.984 185.214,381.817 178.5,379.5C 131.698,367.521 95.8645,340.854 71,299.5C 69.4349,295.6 67.4349,291.934 65,288.5C 63.2311,283.571 61.7311,278.571 60.5,273.5C 58.3313,265.542 56.3313,257.375 54.5,249C 54.5852,247.893 54.9186,246.893 55.5,246C 53.1552,240.33 51.8219,234.33 51.5,228C 52.7706,218.675 52.7706,209.341 51.5,200C 52.8363,195.652 54.1696,191.318 55.5,187C 54.9781,186.439 54.6448,185.772 54.5,185C 54.8013,181.728 56.1346,179.061 58.5,177C 57.8629,174.757 57.5296,172.424 57.5,170C 57.4826,165.685 58.1493,161.518 59.5,157.5C 60.7718,154.652 61.6051,151.652 62,148.5C 66.8953,138.601 72.2286,128.935 78,119.5C 82.3755,113.303 87.2089,107.636 92.5,102.5 Z"/></g>
<g><path style="opacity:1" fill="#b98d42" d="M 203.5,268.5 C 203.371,270.216 203.038,271.883 202.5,273.5C 192.307,282.307 182.64,291.807 173.5,302C 172.552,302.483 171.552,302.649 170.5,302.5C 170.5,302.167 170.5,301.833 170.5,301.5C 172.398,299.278 174.231,296.945 176,294.5C 185.104,285.711 194.27,277.044 203.5,268.5 Z"/></g>
<g><path style="opacity:1" fill="#cf9345" d="M 211.5,274.5 C 211.5,275.5 211.5,276.5 211.5,277.5C 200.421,289.581 188.754,300.914 176.5,311.5C 156.688,309.837 136.688,308.837 116.5,308.5C 137.177,308.833 157.844,308.5 178.5,307.5C 188.161,297.506 197.827,287.506 207.5,277.5C 208.833,276.5 210.167,275.5 211.5,274.5 Z"/></g>
<g><path style="opacity:1" fill="#bf8f3f" d="M 431.5,203.5 C 431.666,213.839 431.5,224.172 431,234.5C 429.332,245.639 427.332,256.639 425,267.5C 422.085,278.249 418.751,288.915 415,299.5C 413.172,300.661 411.672,302.161 410.5,304C 409.827,307.539 408.994,311.039 408,314.5C 405.547,317.425 404.047,320.758 403.5,324.5C 403.5,324.833 403.5,325.167 403.5,325.5C 400.516,325.787 399.183,327.454 399.5,330.5C 398.041,330.433 396.708,330.766 395.5,331.5C 402.587,317.779 409.421,303.779 416,289.5C 418.738,282.778 420.571,275.778 421.5,268.5C 427.845,247.369 430.178,225.702 428.5,203.5C 429.5,203.5 430.5,203.5 431.5,203.5 Z"/></g>
<g><path style="opacity:1" fill="#673810" d="M 233.5,261.5 C 234.124,261.917 234.457,262.584 234.5,263.5C 233.71,274.473 233.21,285.473 233,296.5C 233.266,299.901 231.766,301.567 228.5,301.5C 228.78,288.713 229.78,276.046 231.5,263.5C 231.833,262.5 232.5,261.833 233.5,261.5 Z"/></g>
<g><path style="opacity:1" fill="#df9d3f" d="M 329.5,276.5 C 335.089,281.547 340.089,287.047 344.5,293C 346.078,294.094 347.745,294.928 349.5,295.5C 348.075,296.922 347.075,298.589 346.5,300.5C 343.835,303.434 341.168,306.434 338.5,309.5C 336.156,310.917 333.823,312.25 331.5,313.5C 331.5,314.5 331.5,315.5 331.5,316.5C 330.178,316.67 329.011,316.337 328,315.5C 327.502,313.473 327.669,311.473 328.5,309.5C 328.253,308.287 327.586,307.62 326.5,307.5C 326.5,307.167 326.5,306.833 326.5,306.5C 326.833,306.5 327.167,306.5 327.5,306.5C 329.474,296.889 330.141,286.889 329.5,276.5 Z"/></g>
<g><path style="opacity:1" fill="#e8dcb9" d="M 244.5,218.5 C 244.56,217.957 244.893,217.624 245.5,217.5C 246.5,243.158 246.833,268.825 246.5,294.5C 267.5,294.5 288.5,294.5 309.5,294.5C 309.5,280.833 309.5,267.167 309.5,253.5C 309.5,253.167 309.5,252.833 309.5,252.5C 310.434,253.568 310.768,254.901 310.5,256.5C 310.5,257.5 310.5,258.5 310.5,259.5C 310.5,272.167 310.5,284.833 310.5,297.5C 288.327,297.831 266.327,297.497 244.5,296.5C 245.833,270.5 245.833,244.5 244.5,218.5 Z"/></g>
<g><path style="opacity:1" fill="#f6c96e" d="M 165.5,207.5 C 169.41,210.97 172.076,215.304 173.5,220.5C 173.557,221.609 173.89,222.609 174.5,223.5C 172.983,223.511 171.816,224.177 171,225.5C 170.505,227.473 170.338,229.473 170.5,231.5C 167.618,231.392 165.285,230.226 163.5,228C 164.574,227.261 165.241,226.261 165.5,225C 163.798,223.391 161.965,221.891 160,220.5C 156.143,224.04 151.81,226.707 147,228.5C 143.535,232.967 139.702,237.133 135.5,241C 137.405,241.826 137.739,242.993 136.5,244.5C 133.203,246.618 129.703,248.285 126,249.5C 125.105,251.804 124.271,254.138 123.5,256.5C 122.501,269.149 122.168,281.816 122.5,294.5C 137.837,294.667 153.17,294.5 168.5,294C 179.394,283.387 190.061,272.554 200.5,261.5C 202,262.625 203.333,263.959 204.5,265.5C 204.443,266.609 204.11,267.609 203.5,268.5C 194.27,277.044 185.104,285.711 176,294.5C 174.231,296.945 172.398,299.278 170.5,301.5C 152.833,301.5 135.167,301.5 117.5,301.5C 117.5,285.167 117.5,268.833 117.5,252.5C 124.743,244.098 132.909,236.432 142,229.5C 144.989,226.196 147.489,222.529 149.5,218.5C 149.5,217.833 149.833,217.5 150.5,217.5C 155.021,213.288 160.021,209.955 165.5,207.5 Z"/></g>
<g><path style="opacity:1" fill="#feefd7" d="M 310.5,259.5 C 311.708,260.234 313.041,260.567 314.5,260.5C 314.5,273.5 314.5,286.5 314.5,299.5C 290.491,299.833 266.491,299.5 242.5,298.5C 242.855,297.478 243.522,296.811 244.5,296.5C 266.327,297.497 288.327,297.831 310.5,297.5C 310.5,284.833 310.5,272.167 310.5,259.5 Z"/></g>
<g><path style="opacity:1" fill="#ebc995" d="M 315.5,258.5 C 315.833,258.5 316.167,258.5 316.5,258.5C 316.5,272.833 316.5,287.167 316.5,301.5C 291.167,301.5 265.833,301.5 240.5,301.5C 240.5,301.167 240.5,300.833 240.5,300.5C 265.5,300.5 290.5,300.5 315.5,300.5C 315.5,286.5 315.5,272.5 315.5,258.5 Z"/></g>
<g><path style="opacity:1" fill="#a47227" d="M 115.5,248.5 C 115.5,248.833 115.5,249.167 115.5,249.5C 115.167,267.179 115.5,284.846 116.5,302.5C 117.107,302.376 117.44,302.043 117.5,301.5C 135.167,301.5 152.833,301.5 170.5,301.5C 170.5,301.833 170.5,302.167 170.5,302.5C 152.007,303.497 133.341,303.83 114.5,303.5C 114.5,286.5 114.5,269.5 114.5,252.5C 114.5,251.5 114.5,250.5 114.5,249.5C 114.5,248.833 114.833,248.5 115.5,248.5 Z"/></g>
<g><path style="opacity:1" fill="#6e3e08" d="M 233.5,261.5 C 233.842,260.662 234.508,260.328 235.5,260.5C 235.5,275.833 235.5,291.167 235.5,306.5C 233.053,306.615 231.053,307.615 229.5,309.5C 229.167,309.5 228.833,309.5 228.5,309.5C 227.504,295.01 227.171,280.343 227.5,265.5C 228.605,264.4 229.938,263.733 231.5,263.5C 229.78,276.046 228.78,288.713 228.5,301.5C 231.766,301.567 233.266,299.901 233,296.5C 233.21,285.473 233.71,274.473 234.5,263.5C 234.457,262.584 234.124,261.917 233.5,261.5 Z"/></g>
<g><path style="opacity:1" fill="#703f0d" d="M 105.5,245.5 C 105.5,261.5 105.5,277.5 105.5,293.5C 106.833,293.5 108.167,293.5 109.5,293.5C 109.833,296.5 108.5,297.833 105.5,297.5C 105.5,299.167 105.5,300.833 105.5,302.5C 108.199,302.534 110.699,301.867 113,300.5C 112.993,284.402 113.493,268.402 114.5,252.5C 114.5,269.5 114.5,286.5 114.5,303.5C 133.341,303.83 152.007,303.497 170.5,302.5C 171.552,302.649 172.552,302.483 173.5,302C 182.64,291.807 192.307,282.307 202.5,273.5C 203.117,273.389 203.617,273.056 204,272.5C 206.172,273.509 207.338,275.176 207.5,277.5C 197.827,287.506 188.161,297.506 178.5,307.5C 157.844,308.5 137.177,308.833 116.5,308.5C 115.833,308.5 115.167,308.5 114.5,308.5C 113.85,306.565 113.517,304.565 113.5,302.5C 110.358,302.996 107.692,304.33 105.5,306.5C 105.167,306.5 104.833,306.5 104.5,306.5C 104.17,285.993 104.503,265.66 105.5,245.5 Z"/></g>
<g><path style="opacity:1" fill="#f4ca7f" d="M 114.5,308.5 C 114.5,310.167 114.5,311.833 114.5,313.5C 113.167,313.5 111.833,313.5 110.5,313.5C 106.907,312.57 105.241,310.237 105.5,306.5C 107.692,304.33 110.358,302.996 113.5,302.5C 113.517,304.565 113.85,306.565 114.5,308.5 Z"/></g>
<g><path style="opacity:1" fill="#ab761e" d="M 318.5,265.5 C 318.5,278.833 318.5,292.167 318.5,305.5C 319.552,305.649 320.552,305.483 321.5,305C 323.123,301.946 323.79,302.446 323.5,306.5C 322.833,306.5 322.5,306.833 322.5,307.5C 294.078,307.983 265.745,307.483 237.5,306C 238.881,304.375 240.548,303.208 242.5,302.5C 266.81,303.647 291.143,303.814 315.5,303C 316.056,302.617 316.389,302.117 316.5,301.5C 317.167,289.5 317.833,277.5 318.5,265.5 Z"/></g>
<g><path style="opacity:1" fill="#6f3e0c" d="M 52.5,248.5 C 54.1562,255.153 55.8229,261.82 57.5,268.5C 58.9348,269.947 59.9348,271.614 60.5,273.5C 61.7311,278.571 63.2311,283.571 65,288.5C 67.4349,291.934 69.4349,295.6 71,299.5C 95.8645,340.854 131.698,367.521 178.5,379.5C 178.843,381.483 178.176,382.817 176.5,383.5C 155.033,378.963 135.366,370.463 117.5,358C 110.535,353.041 103.868,347.874 97.5,342.5C 92.5902,336.75 87.4236,331.083 82,325.5C 79.2751,322.737 77.2751,319.403 76,315.5C 74.6412,314.635 73.4745,313.635 72.5,312.5C 55.3413,286.282 45.6747,257.282 43.5,225.5C 43.2423,215.461 43.5756,205.461 44.5,195.5C 46.045,194.77 46.8784,193.437 47,191.5C 47.6667,186.833 48.3333,182.167 49,177.5C 51.568,181.635 51.568,185.968 49,190.5C 48.8333,198.333 48.6667,206.167 48.5,214C 48.1427,225.288 48.976,236.455 51,247.5C 51.3826,248.056 51.8826,248.389 52.5,248.5 Z"/></g>
<g><path style="opacity:1" fill="#a9702b" d="M 226.5,265.5 C 226.833,265.5 227.167,265.5 227.5,265.5C 227.171,280.343 227.504,295.01 228.5,309.5C 228.611,311.648 227.944,311.981 226.5,310.5C 225.505,305.208 225.172,299.875 225.5,294.5C 226.494,285.014 226.827,275.348 226.5,265.5 Z"/></g>
<g><path style="opacity:1" fill="#fddba8" d="M 235.5,306.5 C 236.167,307.167 236.833,307.833 237.5,308.5C 264.997,309.332 292.664,309.832 320.5,310C 317.692,310.019 315.359,311.019 313.5,313C 286.835,313.5 260.169,313.667 233.5,313.5C 230.821,313.475 229.488,312.142 229.5,309.5C 231.053,307.615 233.053,306.615 235.5,306.5 Z"/></g>
<g><path style="opacity:1" fill="#8c6225" d="M 358.5,285.5 C 358.657,286.873 358.49,288.207 358,289.5C 355.59,293.58 353.09,297.58 350.5,301.5C 347.922,305.646 345.089,309.646 342,313.5C 341.329,314.252 340.496,314.586 339.5,314.5C 341.932,309.959 344.599,305.625 347.5,301.5C 350.836,296.802 353.836,291.802 356.5,286.5C 356.957,285.702 357.624,285.369 358.5,285.5 Z"/></g>
<g><path style="opacity:1" fill="#dd9c3e" d="M 114.5,308.5 C 115.167,308.5 115.833,308.5 116.5,308.5C 136.688,308.837 156.688,309.837 176.5,311.5C 175.942,312.79 174.942,313.623 173.5,314C 154.836,314.5 136.17,314.667 117.5,314.5C 114.941,314.802 112.607,314.468 110.5,313.5C 111.833,313.5 113.167,313.5 114.5,313.5C 114.5,311.833 114.5,310.167 114.5,308.5 Z"/></g>
<g><path style="opacity:1" fill="#955f17" d="M 93.5,306.5 C 100.673,314.228 108.007,322.062 115.5,330C 116.094,330.464 116.761,330.631 117.5,330.5C 118.953,334.389 121.62,335.889 125.5,335C 124.419,336.711 124.752,338.211 126.5,339.5C 123.91,338.872 121.577,337.705 119.5,336C 110.553,327.391 102.053,318.557 94,309.5C 93.5172,308.552 93.3505,307.552 93.5,306.5 Z"/></g>
<g><path style="opacity:1" fill="#f7ce8c" d="M 323.5,306.5 C 323.833,306.5 324.167,306.5 324.5,306.5C 325.167,306.5 325.833,306.5 326.5,306.5C 326.5,306.833 326.5,307.167 326.5,307.5C 326.621,311.107 324.955,313.273 321.5,314C 294.502,314.5 267.502,314.667 240.5,314.5C 237.941,314.802 235.607,314.468 233.5,313.5C 260.169,313.667 286.835,313.5 313.5,313C 315.359,311.019 317.692,310.019 320.5,310C 292.664,309.832 264.997,309.332 237.5,308.5C 266.005,308.831 294.338,308.498 322.5,307.5C 322.5,306.833 322.833,306.5 323.5,306.5 Z"/></g>
<g><path style="opacity:1" fill="#daa24f" d="M 326.5,307.5 C 327.586,307.62 328.253,308.287 328.5,309.5C 327.669,311.473 327.502,313.473 328,315.5C 329.011,316.337 330.178,316.67 331.5,316.5C 331.5,315.5 331.5,314.5 331.5,313.5C 333.823,312.25 336.156,310.917 338.5,309.5C 336.757,311.982 335.257,314.649 334,317.5C 331.312,319.364 328.812,321.364 326.5,323.5C 327.166,315.58 323.999,313.58 317,317.5C 291.532,316.514 266.032,316.18 240.5,316.5C 240.5,315.833 240.5,315.167 240.5,314.5C 267.502,314.667 294.502,314.5 321.5,314C 324.955,313.273 326.621,311.107 326.5,307.5 Z"/></g>
<g><path style="opacity:1" fill="#f1d49e" d="M 346.5,300.5 C 347.167,300.5 347.5,300.833 347.5,301.5C 344.599,305.625 341.932,309.959 339.5,314.5C 330.441,324.561 320.774,333.894 310.5,342.5C 301.6,348.203 292.433,353.537 283,358.5C 278.408,360.864 273.575,362.531 268.5,363.5C 268.285,361.821 268.952,360.821 270.5,360.5C 292.437,352.857 311.104,340.524 326.5,323.5C 328.812,321.364 331.312,319.364 334,317.5C 335.257,314.649 336.757,311.982 338.5,309.5C 341.168,306.434 343.835,303.434 346.5,300.5 Z"/></g>
<g><path style="opacity:1" fill="#fbcf7b" d="M 388.5,339.5 C 387.557,342.109 385.89,344.109 383.5,345.5C 380.847,342.527 378.18,339.527 375.5,336.5C 369.696,332.861 365.029,328.028 361.5,322C 359.323,320.485 357.156,318.985 355,317.5C 350.895,320.614 347.895,324.614 346,329.5C 340.682,335.319 335.182,340.985 329.5,346.5C 323.531,349.486 317.865,352.986 312.5,357C 311.13,358.441 310.13,360.108 309.5,362C 306.723,362.061 304.723,363.228 303.5,365.5C 298.905,366.932 294.405,368.599 290,370.5C 289.333,373.833 289.333,377.167 290,380.5C 293.528,382.648 296.528,385.315 299,388.5C 298.684,392.137 300.018,394.804 303,396.5C 303.732,400.571 305.732,403.905 309,406.5C 310.011,405.663 311.178,405.33 312.5,405.5C 311.087,406.935 309.42,407.935 307.5,408.5C 306.167,408.833 304.833,409.167 303.5,409.5C 304.749,407.171 304.082,405.338 301.5,404C 298.854,403.503 296.187,403.336 293.5,403.5C 294.414,399.733 295.248,396.066 296,392.5C 291.875,387.548 288.375,382.215 285.5,376.5C 284.749,377.376 284.249,378.376 284,379.5C 283.342,376.715 282.509,374.049 281.5,371.5C 294.856,364.038 308.189,356.204 321.5,348C 331.732,337.604 341.732,327.104 351.5,316.5C 354.61,314.066 357.943,313.899 361.5,316C 364.333,320.167 367.833,323.667 372,326.5C 372.333,327.5 372.667,328.5 373,329.5C 377.38,330.924 379.213,333.924 378.5,338.5C 381.049,338.559 383.049,337.559 384.5,335.5C 385.506,335.938 385.506,336.604 384.5,337.5C 385.766,338.362 387.099,339.029 388.5,339.5 Z"/></g>
<g><path style="opacity:1" fill="#fddeae" d="M 383.5,345.5 C 381.887,348.132 380.22,350.798 378.5,353.5C 361.904,372.02 342.904,388.02 321.5,401.5C 317.985,401.879 314.652,402.879 311.5,404.5C 310.205,403.902 308.872,403.402 307.5,403C 305.343,393.519 300.509,385.686 293,379.5C 291.872,377.655 291.372,375.655 291.5,373.5C 295.86,373.714 298.193,371.714 298.5,367.5C 300.698,367.88 302.365,367.213 303.5,365.5C 304.723,363.228 306.723,362.061 309.5,362C 310.13,360.108 311.13,358.441 312.5,357C 317.865,352.986 323.531,349.486 329.5,346.5C 335.182,340.985 340.682,335.319 346,329.5C 347.895,324.614 350.895,320.614 355,317.5C 357.156,318.985 359.323,320.485 361.5,322C 365.029,328.028 369.696,332.861 375.5,336.5C 378.18,339.527 380.847,342.527 383.5,345.5 Z"/></g>
<g><path style="opacity:1" fill="#956b31" d="M 339.5,314.5 C 339.291,315.922 338.791,317.255 338,318.5C 330.137,326.698 321.97,334.531 313.5,342C 312.552,342.483 311.552,342.649 310.5,342.5C 320.774,333.894 330.441,324.561 339.5,314.5 Z"/></g>
<g><path style="opacity:1" fill="#e09d3e" d="M 326.5,323.5 C 311.104,340.524 292.437,352.857 270.5,360.5C 267.44,354.719 264.107,349.053 260.5,343.5C 253.001,335.017 246.334,326.017 240.5,316.5C 266.032,316.18 291.532,316.514 317,317.5C 323.999,313.58 327.166,315.58 326.5,323.5 Z"/></g>
<g><path style="opacity:1" fill="#d89943" d="M 72.5,312.5 C 73.4745,313.635 74.6412,314.635 76,315.5C 77.2751,319.403 79.2751,322.737 82,325.5C 87.4236,331.083 92.5902,336.75 97.5,342.5C 95.5623,343.932 93.7289,345.599 92,347.5C 88.854,345.703 88.6873,343.536 91.5,341C 89.7585,339.38 87.9252,337.88 86,336.5C 86.6229,330.025 83.7896,326.692 77.5,326.5C 77.9948,322.497 76.4948,319.497 73,317.5C 72.5065,315.866 72.3398,314.199 72.5,312.5 Z"/></g>
<g><path style="opacity:1" fill="#df9d41" d="M 350.5,301.5 C 351.978,301.238 353.311,301.571 354.5,302.5C 354.965,304.808 356.299,306.142 358.5,306.5C 355.677,309.475 353.344,312.808 351.5,316.5C 341.732,327.104 331.732,337.604 321.5,348C 308.189,356.204 294.856,364.038 281.5,371.5C 280.5,371.5 279.5,371.5 278.5,371.5C 277.962,369.883 277.629,368.216 277.5,366.5C 276.5,366.5 275.5,366.5 274.5,366.5C 274.5,365.5 274.5,364.5 274.5,363.5C 277.421,362.519 280.421,361.685 283.5,361C 289.509,357.869 295.509,355.036 301.5,352.5C 301.809,349.654 303.475,348.154 306.5,348C 308.052,346.288 309.385,344.455 310.5,342.5C 311.552,342.649 312.552,342.483 313.5,342C 321.97,334.531 330.137,326.698 338,318.5C 338.791,317.255 339.291,315.922 339.5,314.5C 340.496,314.586 341.329,314.252 342,313.5C 345.089,309.646 347.922,305.646 350.5,301.5 Z"/></g>
<g><path style="opacity:1" fill="#c49048" d="M 310.5,342.5 C 309.385,344.455 308.052,346.288 306.5,348C 303.475,348.154 301.809,349.654 301.5,352.5C 295.509,355.036 289.509,357.869 283.5,361C 280.421,361.685 277.421,362.519 274.5,363.5C 272.906,363.92 271.406,364.586 270,365.5C 268.97,365.164 268.47,364.497 268.5,363.5C 273.575,362.531 278.408,360.864 283,358.5C 292.433,353.537 301.6,348.203 310.5,342.5 Z"/></g>
<g><path style="opacity:1" fill="#ca9740" d="M 247.5,366.5 C 247.5,366.833 247.5,367.167 247.5,367.5C 246.885,365.88 244.551,364.88 240.5,364.5C 242.5,363.833 244.5,363.167 246.5,362.5C 243.205,361.599 239.872,361.599 236.5,362.5C 239.845,360.783 243.511,360.116 247.5,360.5C 247.5,362.5 247.5,364.5 247.5,366.5 Z"/></g>
<g><path style="opacity:1" fill="#fdd173" d="M 97.5,342.5 C 103.868,347.874 110.535,353.041 117.5,358C 135.366,370.463 155.033,378.963 176.5,383.5C 193.45,387.932 210.783,389.265 228.5,387.5C 235.227,387.213 241.893,386.379 248.5,385C 256.735,382.631 265.068,380.464 273.5,378.5C 273.5,377.167 273.5,375.833 273.5,374.5C 274.605,372.777 276.272,371.777 278.5,371.5C 279.5,371.5 280.5,371.5 281.5,371.5C 282.509,374.049 283.342,376.715 284,379.5C 284.249,378.376 284.749,377.376 285.5,376.5C 288.375,382.215 291.875,387.548 296,392.5C 295.248,396.066 294.414,399.733 293.5,403.5C 296.187,403.336 298.854,403.503 301.5,404C 304.082,405.338 304.749,407.171 303.5,409.5C 302.691,410.469 301.691,411.302 300.5,412C 284.56,418.4 268.226,423.4 251.5,427C 227.851,430.126 204.184,430.292 180.5,427.5C 168.769,425.366 157.435,422.032 146.5,417.5C 131.211,395.614 116.544,373.614 102.5,351.5C 101.58,347.985 99.9134,344.985 97.5,342.5 Z"/></g>
<g><path style="opacity:1" fill="#f6c873" d="M 247.5,367.5 C 248.404,368.209 248.737,369.209 248.5,370.5C 244.481,370.646 240.481,370.979 236.5,371.5C 236.5,368.5 236.5,365.5 236.5,362.5C 239.872,361.599 243.205,361.599 246.5,362.5C 244.5,363.167 242.5,363.833 240.5,364.5C 244.551,364.88 246.885,365.88 247.5,367.5 Z"/></g>
<g><path style="opacity:1" fill="#fddca2" d="M 303.5,365.5 C 302.365,367.213 300.698,367.88 298.5,367.5C 298.193,371.714 295.86,373.714 291.5,373.5C 291.372,375.655 291.872,377.655 293,379.5C 300.509,385.686 305.343,393.519 307.5,403C 308.872,403.402 310.205,403.902 311.5,404.5C 314.652,402.879 317.985,401.879 321.5,401.5C 318.643,402.977 315.643,404.31 312.5,405.5C 311.178,405.33 310.011,405.663 309,406.5C 305.732,403.905 303.732,400.571 303,396.5C 300.018,394.804 298.684,392.137 299,388.5C 296.528,385.315 293.528,382.648 290,380.5C 289.333,377.167 289.333,373.833 290,370.5C 294.405,368.599 298.905,366.932 303.5,365.5 Z"/></g>
<g><path style="opacity:1" fill="#f0c46c" d="M 235.5,371.5 C 233.508,371.672 231.842,371.005 230.5,369.5C 229.478,369.855 228.811,370.522 228.5,371.5C 226.599,371.567 224.766,371.233 223,370.5C 219.384,372.256 215.551,372.923 211.5,372.5C 211.167,368.5 210.833,368.5 210.5,372.5C 207.635,372.945 205.135,372.278 203,370.5C 198.669,372.075 194.502,371.742 190.5,369.5C 188.591,370.348 186.591,370.682 184.5,370.5C 184.5,369.167 184.5,367.833 184.5,366.5C 187.358,366.405 189.691,365.238 191.5,363C 196.426,361.964 201.093,362.464 205.5,364.5C 211.773,363.54 218.107,363.207 224.5,363.5C 224.5,364.5 224.5,365.5 224.5,366.5C 226.59,366.55 227.923,365.55 228.5,363.5C 230.743,362.526 233.076,362.192 235.5,362.5C 235.5,365.5 235.5,368.5 235.5,371.5 Z"/></g>
<g><path style="opacity:1" fill="#956118" d="M 228.5,371.5 C 228.811,370.522 229.478,369.855 230.5,369.5C 231.842,371.005 233.508,371.672 235.5,371.5C 235.833,371.5 236.167,371.5 236.5,371.5C 240.481,370.979 244.481,370.646 248.5,370.5C 248.737,369.209 248.404,368.209 247.5,367.5C 247.5,367.167 247.5,366.833 247.5,366.5C 248.222,366.082 248.722,365.416 249,364.5C 249.497,366.81 249.663,369.143 249.5,371.5C 241.633,373.6 233.633,374.433 225.5,374C 226.571,373.148 227.571,372.315 228.5,371.5 Z"/></g>
<g><path style="opacity:0.875" fill="#906112" d="M 12.5,146.5 C 10.143,154.122 7.9763,161.789 6,169.5C 4.67288,176.783 3.83955,184.116 3.5,191.5C 2.16917,198.636 1.50251,206.136 1.5,214C 1.66667,221.5 1.83333,229 2,236.5C 2.21003,238.058 2.71003,239.391 3.5,240.5C 4.14561,251.374 5.97894,262.04 9,272.5C 18.3834,304.901 34.2167,333.568 56.5,358.5C 57.325,359.386 58.325,359.719 59.5,359.5C 59.3505,360.552 59.5172,361.552 60,362.5C 68.5617,371.294 77.3951,379.46 86.5,387C 93.1916,390.009 99.1916,394.009 104.5,399C 108.424,401.115 112.424,402.948 116.5,404.5C 125.631,410.388 135.631,414.722 146.5,417.5C 157.435,422.032 168.769,425.366 180.5,427.5C 180.5,428.167 180.5,428.833 180.5,429.5C 116.759,418.225 67.2591,385.559 32,331.5C 14.0606,302.18 3.22725,270.513 -0.5,236.5C -0.5,222.833 -0.5,209.167 -0.5,195.5C 1.53199,179.681 4.86533,164.014 9.5,148.5C 10.7777,148.218 11.7777,147.551 12.5,146.5 Z"/></g>
<g><path style="opacity:1" fill="#dea03f" d="M 102.5,351.5 C 116.544,373.614 131.211,395.614 146.5,417.5C 135.631,414.722 125.631,410.388 116.5,404.5C 117.344,402.241 119.011,401.241 121.5,401.5C 121.238,402.978 121.571,404.311 122.5,405.5C 125.07,404.366 127.736,403.532 130.5,403C 128.879,400.834 128.045,398.334 128,395.5C 126.954,393.91 125.787,392.41 124.5,391C 123.551,390.383 122.718,390.549 122,391.5C 121.385,389.884 120.385,388.551 119,387.5C 118.667,385.833 118.333,384.167 118,382.5C 116.333,381.5 115,380.167 114,378.5C 113.751,379.624 113.251,380.624 112.5,381.5C 111.617,379.262 111.95,377.095 113.5,375C 111.57,372.742 110.07,370.242 109,367.5C 107.867,365.789 106.367,365.289 104.5,366C 102.253,367.995 101.253,370.495 101.5,373.5C 99.6536,373.778 98.3202,373.111 97.5,371.5C 98.8573,367.701 100.524,364.034 102.5,360.5C 101.276,357.505 101.276,354.505 102.5,351.5 Z"/></g>
<g><path style="opacity:1" fill="#d79c42" d="M 273.5,374.5 C 273.5,375.833 273.5,377.167 273.5,378.5C 265.068,380.464 256.735,382.631 248.5,385C 241.893,386.379 235.227,387.213 228.5,387.5C 231.833,386.167 235.167,384.833 238.5,383.5C 250.132,380.742 261.799,377.742 273.5,374.5 Z"/></g>
<g><path style="opacity:1" fill="#c08b37" d="M 178.5,379.5 C 185.214,381.817 192.214,382.984 199.5,383C 212.075,383.177 224.575,383.677 237,384.5C 237.383,383.944 237.883,383.611 238.5,383.5C 235.167,384.833 231.833,386.167 228.5,387.5C 210.783,389.265 193.45,387.932 176.5,383.5C 178.176,382.817 178.843,381.483 178.5,379.5 Z"/></g>
<g><path style="opacity:1" fill="#b88d4d" d="M 403.5,325.5 C 376.42,370.244 338.42,401.911 289.5,420.5C 289.5,419.5 289.5,418.5 289.5,417.5C 296.638,416.598 302.638,413.598 307.5,408.5C 309.42,407.935 311.087,406.935 312.5,405.5C 315.643,404.31 318.643,402.977 321.5,401.5C 342.904,388.02 361.904,372.02 378.5,353.5C 380.22,350.798 381.887,348.132 383.5,345.5C 385.89,344.109 387.557,342.109 388.5,339.5C 390.382,336.377 392.715,333.711 395.5,331.5C 396.708,330.766 398.041,330.433 399.5,330.5C 399.183,327.454 400.516,325.787 403.5,325.5 Z"/></g>
<g><path style="opacity:1" fill="#b88c43" d="M 307.5,408.5 C 302.638,413.598 296.638,416.598 289.5,417.5C 289.5,418.5 289.5,419.5 289.5,420.5C 272.108,426.267 254.442,430.267 236.5,432.5C 222.833,432.5 209.167,432.5 195.5,432.5C 190.463,431.718 185.463,430.718 180.5,429.5C 180.5,428.833 180.5,428.167 180.5,427.5C 204.184,430.292 227.851,430.126 251.5,427C 268.226,423.4 284.56,418.4 300.5,412C 301.691,411.302 302.691,410.469 303.5,409.5C 304.833,409.167 306.167,408.833 307.5,408.5 Z"/></g>
</svg>
