<svg xmlns="http://www.w3.org/2000/svg" version="1.1" width="433" height="433" viewBox="0 0 433 433" style="shape-rendering:geometricPrecision; text-rendering:geometricPrecision; image-rendering:optimizeQuality; fill-rule:evenodd; clip-rule:evenodd" xmlns:xlink="http://www.w3.org/1999/xlink">
<g><path style="opacity:1" fill="#75654f" d="M 231.5,-0.5 C 231.833,-0.5 232.167,-0.5 232.5,-0.5C 232.923,1.78121 232.256,3.44787 230.5,4.5C 230.629,2.7839 230.962,1.11723 231.5,-0.5 Z"/></g>
<g><path style="opacity:1" fill="#f4d4af" d="M 195.5,-0.5 C 197.833,-0.5 200.167,-0.5 202.5,-0.5C 203.871,1.45855 204.871,3.62522 205.5,6C 203.226,6.47023 201.226,7.47023 199.5,9C 202.205,10.2966 203.538,12.4633 203.5,15.5C 201.844,21.3559 201.178,27.3559 201.5,33.5C 201.5,35.1667 201.5,36.8333 201.5,38.5C 199.822,39.7471 198.489,41.4138 197.5,43.5C 196.926,47.3696 195.759,51.0362 194,54.5C 193.667,58.8333 193.333,63.1667 193,67.5C 192.617,68.056 192.117,68.3893 191.5,68.5C 191.334,62.8236 191.501,57.1569 192,51.5C 194.005,47.3166 195.505,42.9832 196.5,38.5C 194.076,38.1924 191.743,38.5258 189.5,39.5C 188.253,41.0421 188.253,42.5421 189.5,44C 187.372,45.6226 186.039,47.7893 185.5,50.5C 184.614,49.675 184.281,48.675 184.5,47.5C 183.167,47.5 181.833,47.5 180.5,47.5C 180.443,42.3183 179.776,42.3183 178.5,47.5C 177.091,44.6034 177.424,41.9367 179.5,39.5C 178.485,38.3185 177.319,37.3185 176,36.5C 166.656,38.4141 157.156,39.0808 147.5,38.5C 147.5,36.8333 147.5,35.1667 147.5,33.5C 142.989,33.1085 138.655,33.7752 134.5,35.5C 127.612,33.9841 120.612,32.9841 113.5,32.5C 113.709,31.914 114.043,31.414 114.5,31C 112.382,29.9179 110.382,28.7512 108.5,27.5C 135.625,12.1395 164.625,2.80616 195.5,-0.5 Z"/></g>
<g><path style="opacity:1" fill="#41362b" d="M 209.5,-0.5 C 209.833,-0.5 210.167,-0.5 210.5,-0.5C 210.241,3.23957 210.574,6.90623 211.5,10.5C 210.675,11.3857 209.675,11.719 208.5,11.5C 208.663,13.8568 208.497,16.1902 208,18.5C 206.424,23.6137 204.924,28.6137 203.5,33.5C 205.137,22.1059 207.137,10.7726 209.5,-0.5 Z"/></g>
<g><path style="opacity:1" fill="#f4d4af" d="M 232.5,-0.5 C 233.833,-0.5 235.167,-0.5 236.5,-0.5C 302.941,7.37749 355.608,38.3775 394.5,92.5C 391.586,93.905 389.753,92.905 389,89.5C 388.781,90.938 388.281,92.2713 387.5,93.5C 386.212,91.5255 384.545,91.5255 382.5,93.5C 380.566,93.0995 379.066,92.0995 378,90.5C 376.951,92.1066 375.451,92.7733 373.5,92.5C 373.329,89.2027 373.995,88.8694 375.5,91.5C 377.22,90.0451 379.22,89.2117 381.5,89C 380.289,88.2131 379.289,87.5464 378.5,87C 379.196,84.5933 379.529,82.2599 379.5,80C 377.667,79.5 376.5,78.3333 376,76.5C 374.491,77.0897 372.991,77.7564 371.5,78.5C 365.944,86.9334 363.277,85.9334 363.5,75.5C 354.833,75.5 346.167,75.5 337.5,75.5C 336.514,70.8422 337.848,67.1755 341.5,64.5C 342.429,63.3112 342.762,61.9778 342.5,60.5C 347.858,61.3457 351.858,59.5124 354.5,55C 347.406,44.8868 343.073,45.7201 341.5,57.5C 338.81,59.2055 336.81,61.5388 335.5,64.5C 309.175,65.4998 282.842,65.8331 256.5,65.5C 256.5,61.1667 256.5,56.8333 256.5,52.5C 246.375,52.9514 236.375,52.2848 226.5,50.5C 222.895,63.6675 219.561,77.0008 216.5,90.5C 218.133,96.6972 217.633,102.697 215,108.5C 213.846,109.743 212.512,110.743 211,111.5C 209.814,119.595 208.314,127.595 206.5,135.5C 205.5,135.5 204.5,135.5 203.5,135.5C 203.5,134.833 203.5,134.167 203.5,133.5C 204.649,133.209 205.316,132.376 205.5,131C 206.159,128.538 206.493,126.038 206.5,123.5C 206.5,121.167 206.5,118.833 206.5,116.5C 206.5,116.167 206.5,115.833 206.5,115.5C 207.117,115.389 207.617,115.056 208,114.5C 210.252,105.559 212.085,96.5585 213.5,87.5C 213.5,86.5 213.5,85.5 213.5,84.5C 215.243,81.5048 216.243,78.1715 216.5,74.5C 216.5,73.8333 216.5,73.1667 216.5,72.5C 217.924,70.4855 218.59,68.1522 218.5,65.5C 218.5,63.1667 218.5,60.8333 218.5,58.5C 220.28,57.0101 220.946,55.0101 220.5,52.5C 221.649,52.2089 222.316,51.3756 222.5,50C 223.077,47.863 223.41,45.6963 223.5,43.5C 223.5,43.1667 223.5,42.8333 223.5,42.5C 225.265,39.8774 225.932,36.8774 225.5,33.5C 227.623,23.9909 229.289,14.3242 230.5,4.5C 232.256,3.44787 232.923,1.78121 232.5,-0.5 Z"/></g>
<g><path style="opacity:1" fill="#e5cbaf" d="M 202.5,-0.5 C 204.833,-0.5 207.167,-0.5 209.5,-0.5C 207.137,10.7726 205.137,22.1059 203.5,33.5C 202.833,33.5 202.167,33.5 201.5,33.5C 201.178,27.3559 201.844,21.3559 203.5,15.5C 203.538,12.4633 202.205,10.2966 199.5,9C 201.226,7.47023 203.226,6.47023 205.5,6C 204.871,3.62522 203.871,1.45855 202.5,-0.5 Z"/></g>
<g><path style="opacity:1" fill="#241d13" d="M 228.5,-0.5 C 229.5,-0.5 230.5,-0.5 231.5,-0.5C 230.962,1.11723 230.629,2.7839 230.5,4.5C 229.289,14.3242 227.623,23.9909 225.5,33.5C 223.612,35.9878 222.945,38.9878 223.5,42.5C 223.5,42.8333 223.5,43.1667 223.5,43.5C 222.131,45.6915 221.131,48.0248 220.5,50.5C 221.003,42.476 221.837,34.476 223,26.5C 223.419,25.3279 224.085,24.3279 225,23.5C 225.852,15.4346 227.018,7.43465 228.5,-0.5 Z"/></g>
<g><path style="opacity:1" fill="#f6d3ab" d="M 108.5,27.5 C 110.382,28.7512 112.382,29.9179 114.5,31C 114.043,31.414 113.709,31.914 113.5,32.5C 120.612,32.9841 127.612,33.9841 134.5,35.5C 138.655,33.7752 142.989,33.1085 147.5,33.5C 147.5,35.1667 147.5,36.8333 147.5,38.5C 157.156,39.0808 166.656,38.4141 176,36.5C 177.319,37.3185 178.485,38.3185 179.5,39.5C 177.424,41.9367 177.091,44.6034 178.5,47.5C 179.776,42.3183 180.443,42.3183 180.5,47.5C 181.833,47.5 183.167,47.5 184.5,47.5C 184.281,48.675 184.614,49.675 185.5,50.5C 186.039,47.7893 187.372,45.6226 189.5,44C 188.253,42.5421 188.253,41.0421 189.5,39.5C 191.743,38.5258 194.076,38.1924 196.5,38.5C 195.505,42.9832 194.005,47.3166 192,51.5C 191.501,57.1569 191.334,62.8236 191.5,68.5C 191.662,70.5273 191.495,72.5273 191,74.5C 189.644,75.3802 188.144,75.7135 186.5,75.5C 186.666,82.8409 186.5,90.1742 186,97.5C 183.936,100.86 182.769,104.526 182.5,108.5C 181.5,108.5 180.5,108.5 179.5,108.5C 179.338,110.527 179.505,112.527 180,114.5C 181.018,113.294 181.518,113.627 181.5,115.5C 178.468,122.144 176.135,128.977 174.5,136C 174.526,139.835 174.859,143.668 175.5,147.5C 174.167,147.5 172.833,147.5 171.5,147.5C 171.142,154.236 168.475,159.903 163.5,164.5C 162.548,166.045 162.215,167.712 162.5,169.5C 161.5,169.5 160.5,169.5 159.5,169.5C 158.299,173.399 157.299,177.399 156.5,181.5C 152.906,182.888 151.573,185.555 152.5,189.5C 152.67,192.491 151.337,194.491 148.5,195.5C 147.873,196.417 147.539,197.417 147.5,198.5C 145.783,200.362 143.783,202.029 141.5,203.5C 140.614,204.325 140.281,205.325 140.5,206.5C 139.022,206.238 137.689,206.571 136.5,207.5C 134.407,210.599 131.741,212.933 128.5,214.5C 126.205,215.136 124.539,216.469 123.5,218.5C 122.833,218.5 122.167,218.5 121.5,218.5C 121.78,215.161 123.28,212.494 126,210.5C 126.72,208.888 126.554,207.388 125.5,206C 126.448,205.517 127.448,205.351 128.5,205.5C 128.281,204.325 128.614,203.325 129.5,202.5C 134.054,201.2 137.054,198.367 138.5,194C 137.552,193.517 136.552,193.351 135.5,193.5C 133.861,189.747 133.194,185.747 133.5,181.5C 129.167,181.5 124.833,181.5 120.5,181.5C 120.5,179.167 120.5,176.833 120.5,174.5C 111.167,174.5 101.833,174.5 92.5,174.5C 92.5,170.167 92.5,165.833 92.5,161.5C 83.5022,161.119 74.5022,160.786 65.5,160.5C 65.5,165.167 65.5,169.833 65.5,174.5C 56.5,174.5 47.5,174.5 38.5,174.5C 38.417,164.38 38.417,154.38 38.5,144.5C 36.2623,142.742 35.2623,140.408 35.5,137.5C 36.5,137.5 37.5,137.5 38.5,137.5C 39.3276,132.883 39.9942,128.217 40.5,123.5C 40.1667,120.833 39.8333,118.167 39.5,115.5C 38.2638,114.754 36.9305,114.421 35.5,114.5C 35.6652,121.775 35.3319,129.109 34.5,136.5C 32.5,136.5 30.5,136.5 28.5,136.5C 27.735,132.755 26.4016,129.255 24.5,126C 25.5914,123.936 25.7581,121.769 25,119.5C 24.3292,118.748 23.4959,118.414 22.5,118.5C 42.2197,79.7784 70.8864,49.4451 108.5,27.5 Z"/></g>
<g><path style="opacity:1" fill="#9d8c78" d="M 225.5,33.5 C 225.932,36.8774 225.265,39.8774 223.5,42.5C 222.945,38.9878 223.612,35.9878 225.5,33.5 Z"/></g>
<g><path style="opacity:1" fill="#f6d3ab" d="M 394.5,92.5 C 412.816,119.099 424.482,148.432 429.5,180.5C 429.613,185.518 429.947,190.518 430.5,195.5C 429.046,194.48 428.713,193.313 429.5,192C 428.083,189.017 427.25,185.85 427,182.5C 426,181.167 425,181.167 424,182.5C 423.129,192.186 422.629,202.186 422.5,212.5C 422.667,217.833 422.833,223.167 423,228.5C 424.91,231.164 424.077,232.83 420.5,233.5C 418.142,231.976 416.309,229.976 415,227.5C 398.545,227.957 382.045,228.29 365.5,228.5C 364.184,225.972 363.017,225.972 362,228.5C 360.983,225.972 359.816,225.972 358.5,228.5C 357.184,225.972 356.017,225.972 355,228.5C 354,225.833 353,225.833 352,228.5C 350.983,225.972 349.816,225.972 348.5,228.5C 347.184,225.972 346.017,225.972 345,228.5C 343.983,225.972 342.816,225.972 341.5,228.5C 340.184,225.972 339.017,225.972 338,228.5C 337,225.833 336,225.833 335,228.5C 333.983,225.972 332.816,225.972 331.5,228.5C 330.184,225.972 329.017,225.972 328,228.5C 327,225.833 326,225.833 325,228.5C 323.667,225.833 322.333,225.833 321,228.5C 320,225.833 319,225.833 318,228.5C 316.983,225.972 315.816,225.972 314.5,228.5C 313.476,227.147 312.143,226.48 310.5,226.5C 310.167,218.5 309.833,210.5 309.5,202.5C 290.105,202.293 270.772,201.293 251.5,199.5C 248.384,200.146 245.384,201.146 242.5,202.5C 242.977,203.478 243.643,204.311 244.5,205C 248.602,206.541 252.769,207.707 257,208.5C 257.691,212.086 257.024,215.419 255,218.5C 248.677,213.501 241.51,210.167 233.5,208.5C 232.614,207.675 232.281,206.675 232.5,205.5C 234.527,205.662 236.527,205.495 238.5,205C 239.833,204 239.833,203 238.5,202C 235.854,201.503 233.187,201.336 230.5,201.5C 231.33,194.667 228.33,192 221.5,193.5C 222.947,186.853 221.113,181.52 216,177.5C 214.89,179.037 213.39,179.703 211.5,179.5C 211.689,183.64 212.356,187.64 213.5,191.5C 212.25,191.423 211.417,190.756 211,189.5C 208.199,183.127 206.533,176.46 206,169.5C 205.333,168.833 204.667,168.167 204,167.5C 203.5,157.839 203.334,148.172 203.5,138.5C 203.5,137.5 203.5,136.5 203.5,135.5C 204.5,135.5 205.5,135.5 206.5,135.5C 208.314,127.595 209.814,119.595 211,111.5C 212.512,110.743 213.846,109.743 215,108.5C 217.633,102.697 218.133,96.6972 216.5,90.5C 219.561,77.0008 222.895,63.6675 226.5,50.5C 236.375,52.2848 246.375,52.9514 256.5,52.5C 256.5,56.8333 256.5,61.1667 256.5,65.5C 282.842,65.8331 309.175,65.4998 335.5,64.5C 336.81,61.5388 338.81,59.2055 341.5,57.5C 343.073,45.7201 347.406,44.8868 354.5,55C 351.858,59.5124 347.858,61.3457 342.5,60.5C 342.762,61.9778 342.429,63.3112 341.5,64.5C 337.848,67.1755 336.514,70.8422 337.5,75.5C 346.167,75.5 354.833,75.5 363.5,75.5C 363.277,85.9334 365.944,86.9334 371.5,78.5C 372.991,77.7564 374.491,77.0897 376,76.5C 376.5,78.3333 377.667,79.5 379.5,80C 379.529,82.2599 379.196,84.5933 378.5,87C 379.289,87.5464 380.289,88.2131 381.5,89C 379.22,89.2117 377.22,90.0451 375.5,91.5C 373.995,88.8694 373.329,89.2027 373.5,92.5C 375.451,92.7733 376.951,92.1066 378,90.5C 379.066,92.0995 380.566,93.0995 382.5,93.5C 384.545,91.5255 386.212,91.5255 387.5,93.5C 388.281,92.2713 388.781,90.938 389,89.5C 389.753,92.905 391.586,93.905 394.5,92.5 Z"/></g>
<g><path style="opacity:1" fill="#695946" d="M 201.5,43.5 C 201.445,49.8715 199.779,55.5381 196.5,60.5C 197.1,54.416 198.767,48.7494 201.5,43.5 Z"/></g>
<g><path style="opacity:1" fill="#857767" d="M 223.5,43.5 C 223.41,45.6963 223.077,47.863 222.5,50C 222.316,51.3756 221.649,52.2089 220.5,52.5C 220.5,51.8333 220.5,51.1667 220.5,50.5C 221.131,48.0248 222.131,45.6915 223.5,43.5 Z"/></g>
<g><path style="opacity:1" fill="#1d1811" d="M 201.5,33.5 C 202.167,33.5 202.833,33.5 203.5,33.5C 203.417,43.9913 204.251,54.3247 206,64.5C 205.221,65.7282 204.221,66.7282 203,67.5C 201.7,66.2927 200.2,65.6261 198.5,65.5C 198.276,69.9542 198.276,74.2875 198.5,78.5C 197.335,81.501 195.668,84.1676 193.5,86.5C 194.022,87.6074 194.355,88.7741 194.5,90C 193.836,94.1445 193.336,98.3112 193,102.5C 190.774,111.421 187.94,120.087 184.5,128.5C 185.167,122.833 185.833,117.167 186.5,111.5C 186.216,109.585 186.549,107.919 187.5,106.5C 188.323,103.316 188.99,99.9828 189.5,96.5C 190.718,89.0699 192.384,81.7366 194.5,74.5C 196.265,71.8774 196.932,68.8774 196.5,65.5C 196.5,63.8333 196.5,62.1667 196.5,60.5C 199.779,55.5381 201.445,49.8715 201.5,43.5C 201.5,41.8333 201.5,40.1667 201.5,38.5C 201.5,36.8333 201.5,35.1667 201.5,33.5 Z"/></g>
<g><path style="opacity:1" fill="#544535" d="M 220.5,52.5 C 220.946,55.0101 220.28,57.0101 218.5,58.5C 218.595,56.2143 219.262,54.2143 220.5,52.5 Z"/></g>
<g><path style="opacity:1" fill="#766750" d="M 218.5,65.5 C 218.59,68.1522 217.924,70.4855 216.5,72.5C 216.171,69.7718 216.837,67.4385 218.5,65.5 Z"/></g>
<g><path style="opacity:1" fill="#584837" d="M 196.5,65.5 C 196.932,68.8774 196.265,71.8774 194.5,74.5C 193.945,70.9878 194.612,67.9878 196.5,65.5 Z"/></g>
<g><path style="opacity:1" fill="#645542" d="M 216.5,74.5 C 216.243,78.1715 215.243,81.5048 213.5,84.5C 213.67,82.1516 214.003,79.8183 214.5,77.5C 214.64,75.9704 215.307,74.9704 216.5,74.5 Z"/></g>
<g><path style="opacity:1" fill="#4a3a2d" d="M 213.5,87.5 C 212.085,96.5585 210.252,105.559 208,114.5C 207.617,115.056 207.117,115.389 206.5,115.5C 207.402,107.773 208.735,100.106 210.5,92.5C 211.001,90.3449 212.001,88.6782 213.5,87.5 Z"/></g>
<g><path style="opacity:1" fill="#7f6c59" d="M 189.5,96.5 C 188.99,99.9828 188.323,103.316 187.5,106.5C 186.931,102.671 187.598,99.3373 189.5,96.5 Z"/></g>
<g><path style="opacity:1" fill="#473829" d="M 206.5,116.5 C 206.5,118.833 206.5,121.167 206.5,123.5C 204.757,126.495 203.757,129.829 203.5,133.5C 203.5,134.167 203.5,134.833 203.5,135.5C 203.5,136.5 203.5,137.5 203.5,138.5C 202.833,139.167 202.167,139.833 201.5,140.5C 202.086,134.142 202.92,127.809 204,121.5C 204.374,119.509 205.207,117.842 206.5,116.5 Z"/></g>
<g><path style="opacity:1" fill="#a3907c" d="M 206.5,123.5 C 206.493,126.038 206.159,128.538 205.5,131C 205.316,132.376 204.649,133.209 203.5,133.5C 203.757,129.829 204.757,126.495 206.5,123.5 Z"/></g>
<g><path style="opacity:1" fill="#4b412e" d="M 186.5,111.5 C 185.833,117.167 185.167,122.833 184.5,128.5C 183.962,130.117 183.629,131.784 183.5,133.5C 182.833,133.5 182.167,133.5 181.5,133.5C 181.552,125.594 183.218,118.261 186.5,111.5 Z"/></g>
<g><path style="opacity:1" fill="#897a67" d="M 181.5,133.5 C 181.923,135.781 181.256,137.448 179.5,138.5C 179.077,136.219 179.744,134.552 181.5,133.5 Z"/></g>
<g><path style="opacity:1" fill="#151515" d="M 210.5,-0.5 C 216.5,-0.5 222.5,-0.5 228.5,-0.5C 227.018,7.43465 225.852,15.4346 225,23.5C 224.085,24.3279 223.419,25.3279 223,26.5C 221.837,34.476 221.003,42.476 220.5,50.5C 220.5,51.1667 220.5,51.8333 220.5,52.5C 219.262,54.2143 218.595,56.2143 218.5,58.5C 218.5,60.8333 218.5,63.1667 218.5,65.5C 216.837,67.4385 216.171,69.7718 216.5,72.5C 216.5,73.1667 216.5,73.8333 216.5,74.5C 215.307,74.9704 214.64,75.9704 214.5,77.5C 214.003,79.8183 213.67,82.1516 213.5,84.5C 213.5,85.5 213.5,86.5 213.5,87.5C 212.001,88.6782 211.001,90.3449 210.5,92.5C 208.735,100.106 207.402,107.773 206.5,115.5C 206.5,115.833 206.5,116.167 206.5,116.5C 205.207,117.842 204.374,119.509 204,121.5C 202.92,127.809 202.086,134.142 201.5,140.5C 201.5,142.167 201.5,143.833 201.5,145.5C 200.778,145.918 200.278,146.584 200,147.5C 199.833,151.167 199.667,154.833 199.5,158.5C 199.511,162.565 200.178,166.232 201.5,169.5C 201.5,171.167 201.5,172.833 201.5,174.5C 203.513,185.859 206.179,197.192 209.5,208.5C 213.112,210.286 216.279,212.62 219,215.5C 219.333,215.167 219.667,214.833 220,214.5C 221.341,218.682 224.175,220.682 228.5,220.5C 230.619,222.4 232.953,224.066 235.5,225.5C 236.486,227.408 238.152,228.408 240.5,228.5C 241.258,232.857 243.591,236.024 247.5,238C 251.802,238.545 255.802,239.878 259.5,242C 264.47,242.886 269.47,243.552 274.5,244C 326.668,244.167 378.668,244.667 430.5,245.5C 430.5,246.167 430.5,246.833 430.5,247.5C 382.114,247.114 333.114,247.114 283.5,247.5C 283.5,248.5 283.5,249.5 283.5,250.5C 330.168,250.333 376.835,250.5 423.5,251C 425.25,252.319 427.25,252.819 429.5,252.5C 429.675,254.621 429.341,256.621 428.5,258.5C 427.226,260.329 425.726,260.662 424,259.5C 422.775,259.862 421.609,260.362 420.5,261C 368.824,261.579 317.158,261.579 265.5,261C 253.404,263.619 241.404,266.619 229.5,270C 225.977,273.635 221.644,275.969 216.5,277C 216.167,277.333 215.833,277.667 215.5,278C 216.737,278.232 217.737,278.732 218.5,279.5C 211.047,281.971 204.047,285.304 197.5,289.5C 194.527,291.781 192.86,294.781 192.5,298.5C 188.402,299.354 184.735,301.02 181.5,303.5C 178.099,309.299 174.932,315.299 172,321.5C 170.644,320.62 169.144,320.286 167.5,320.5C 167.715,323.966 166.382,326.633 163.5,328.5C 163.113,332.164 161.613,335.164 159,337.5C 158.018,341.621 156.685,345.621 155,349.5C 154.333,348.167 153.667,348.167 153,349.5C 150.911,356.674 150.078,364.007 150.5,371.5C 148.111,372.231 146.777,373.898 146.5,376.5C 145.669,381.466 145.336,386.466 145.5,391.5C 144.5,391.5 143.5,391.5 142.5,391.5C 140.727,400.697 140.061,410.03 140.5,419.5C 135.001,417.556 129.668,415.222 124.5,412.5C 127.29,402.979 129.623,393.312 131.5,383.5C 132.148,381.851 133.148,380.518 134.5,379.5C 135.666,359.842 135.833,340.175 135,320.5C 131.786,318.905 129.62,316.405 128.5,313C 128.615,311.105 129.282,309.438 130.5,308C 128.069,304.395 124.735,302.228 120.5,301.5C 119.277,297.079 117.777,292.745 116,288.5C 109.974,285.014 105.14,280.514 101.5,275C 98.854,274.503 96.1873,274.336 93.5,274.5C 89.4291,273.381 85.7624,271.714 82.5,269.5C 82.5858,268.504 82.2524,267.671 81.5,267C 78.5285,266.206 75.5285,265.539 72.5,265C 74.2556,264.798 75.9223,264.298 77.5,263.5C 65.1516,262.029 52.485,260.695 39.5,259.5C 27.4432,260.125 15.4432,260.792 3.5,261.5C 2.81864,255.743 1.81864,250.077 0.5,244.5C 26.0976,245.876 51.7643,245.043 77.5,242C 79.7883,241.054 81.955,239.887 84,238.5C 86.6578,239.694 87.8244,238.694 87.5,235.5C 88.1667,235.5 88.8333,235.5 89.5,235.5C 90.1667,235.5 90.8333,235.5 91.5,235.5C 91.369,236.239 91.5357,236.906 92,237.5C 95.3543,234.889 99.1876,233.389 103.5,233C 105.555,230.945 107.888,229.279 110.5,228C 115.412,226.575 120.412,225.575 125.5,225C 124.643,224.311 123.977,223.478 123.5,222.5C 127.135,219.707 131.135,217.54 135.5,216C 136.417,212.998 138.417,211.165 141.5,210.5C 142.132,208.263 143.465,206.597 145.5,205.5C 143.252,203.775 143.752,202.442 147,201.5C 147.483,200.552 147.649,199.552 147.5,198.5C 149.1,197.748 150.6,196.748 152,195.5C 152.333,195.833 152.667,196.167 153,196.5C 154.009,194.975 154.509,193.308 154.5,191.5C 156.179,191.715 157.179,191.048 157.5,189.5C 158.552,189.649 159.552,189.483 160.5,189C 162.845,186.986 164.845,184.653 166.5,182C 166.043,181.586 165.709,181.086 165.5,180.5C 169.243,177.18 171.243,173.013 171.5,168C 174.56,165.944 176.393,163.111 177,159.5C 177.535,161.271 178.369,161.604 179.5,160.5C 180.977,157.409 182.644,154.409 184.5,151.5C 181.869,146.659 181.869,141.825 184.5,137C 184.011,135.862 183.678,134.695 183.5,133.5C 183.629,131.784 183.962,130.117 184.5,128.5C 187.94,120.087 190.774,111.421 193,102.5C 193.336,98.3112 193.836,94.1445 194.5,90C 194.355,88.7741 194.022,87.6074 193.5,86.5C 195.668,84.1676 197.335,81.501 198.5,78.5C 198.276,74.2875 198.276,69.9542 198.5,65.5C 200.2,65.6261 201.7,66.2927 203,67.5C 204.221,66.7282 205.221,65.7282 206,64.5C 204.251,54.3247 203.417,43.9913 203.5,33.5C 204.924,28.6137 206.424,23.6137 208,18.5C 208.497,16.1902 208.663,13.8568 208.5,11.5C 209.675,11.719 210.675,11.3857 211.5,10.5C 210.574,6.90623 210.241,3.23957 210.5,-0.5 Z"/></g>
<g><path style="opacity:1" fill="#201912" d="M 181.5,133.5 C 182.167,133.5 182.833,133.5 183.5,133.5C 183.678,134.695 184.011,135.862 184.5,137C 181.869,141.825 181.869,146.659 184.5,151.5C 182.644,154.409 180.977,157.409 179.5,160.5C 178.369,161.604 177.535,161.271 177,159.5C 176.393,163.111 174.56,165.944 171.5,168C 171.243,173.013 169.243,177.18 165.5,180.5C 165.709,181.086 166.043,181.586 166.5,182C 164.845,184.653 162.845,186.986 160.5,189C 159.552,189.483 158.552,189.649 157.5,189.5C 157.5,188.5 157.5,187.5 157.5,186.5C 159.482,184.498 161.148,182.165 162.5,179.5C 164.849,175.157 167.183,170.824 169.5,166.5C 172.774,164.513 174.441,161.513 174.5,157.5C 175.964,151.109 177.63,144.776 179.5,138.5C 181.256,137.448 181.923,135.781 181.5,133.5 Z"/></g>
<g><path style="opacity:1" fill="#6e6152" d="M 201.5,145.5 C 201.5,153.5 201.5,161.5 201.5,169.5C 200.178,166.232 199.511,162.565 199.5,158.5C 199.667,154.833 199.833,151.167 200,147.5C 200.278,146.584 200.778,145.918 201.5,145.5 Z"/></g>
<g><path style="opacity:1" fill="#483725" d="M 174.5,157.5 C 174.441,161.513 172.774,164.513 169.5,166.5C 170.877,163.178 172.543,160.178 174.5,157.5 Z"/></g>
<g><path style="opacity:1" fill="#ebcead" d="M 201.5,38.5 C 201.5,40.1667 201.5,41.8333 201.5,43.5C 198.767,48.7494 197.1,54.416 196.5,60.5C 196.5,62.1667 196.5,63.8333 196.5,65.5C 194.612,67.9878 193.945,70.9878 194.5,74.5C 192.384,81.7366 190.718,89.0699 189.5,96.5C 187.598,99.3373 186.931,102.671 187.5,106.5C 186.549,107.919 186.216,109.585 186.5,111.5C 183.218,118.261 181.552,125.594 181.5,133.5C 179.744,134.552 179.077,136.219 179.5,138.5C 177.63,144.776 175.964,151.109 174.5,157.5C 172.543,160.178 170.877,163.178 169.5,166.5C 167.183,170.824 164.849,175.157 162.5,179.5C 159.491,180.848 157.824,183.181 157.5,186.5C 156.33,188.279 154.664,189.279 152.5,189.5C 151.573,185.555 152.906,182.888 156.5,181.5C 157.299,177.399 158.299,173.399 159.5,169.5C 160.5,169.5 161.5,169.5 162.5,169.5C 162.215,167.712 162.548,166.045 163.5,164.5C 168.475,159.903 171.142,154.236 171.5,147.5C 172.833,147.5 174.167,147.5 175.5,147.5C 174.859,143.668 174.526,139.835 174.5,136C 176.135,128.977 178.468,122.144 181.5,115.5C 181.518,113.627 181.018,113.294 180,114.5C 179.505,112.527 179.338,110.527 179.5,108.5C 180.5,108.5 181.5,108.5 182.5,108.5C 182.769,104.526 183.936,100.86 186,97.5C 186.5,90.1742 186.666,82.8409 186.5,75.5C 188.144,75.7135 189.644,75.3802 191,74.5C 191.495,72.5273 191.662,70.5273 191.5,68.5C 192.117,68.3893 192.617,68.056 193,67.5C 193.333,63.1667 193.667,58.8333 194,54.5C 195.759,51.0362 196.926,47.3696 197.5,43.5C 198.489,41.4138 199.822,39.7471 201.5,38.5 Z"/></g>
<g><path style="opacity:1" fill="#7b6b54" d="M 162.5,179.5 C 161.148,182.165 159.482,184.498 157.5,186.5C 157.824,183.181 159.491,180.848 162.5,179.5 Z"/></g>
<g><path style="opacity:1" fill="#e2c7a8" d="M 203.5,138.5 C 203.334,148.172 203.5,157.839 204,167.5C 204.667,168.167 205.333,168.833 206,169.5C 206.533,176.46 208.199,183.127 211,189.5C 211.417,190.756 212.25,191.423 213.5,191.5C 213.5,194.167 213.5,196.833 213.5,199.5C 210.823,197.47 208.823,194.803 207.5,191.5C 205.43,185.611 203.43,179.945 201.5,174.5C 201.5,172.833 201.5,171.167 201.5,169.5C 201.5,161.5 201.5,153.5 201.5,145.5C 201.5,143.833 201.5,142.167 201.5,140.5C 202.167,139.833 202.833,139.167 203.5,138.5 Z"/></g>
<g><path style="opacity:1" fill="#f9d3a7" d="M 121.5,218.5 C 119.337,219.72 117.17,219.72 115,218.5C 110.28,219.845 105.78,221.511 101.5,223.5C 100.82,227.322 98.487,228.989 94.5,228.5C 94.5,229.5 94.5,230.5 94.5,231.5C 94.5,231.833 94.5,232.167 94.5,232.5C 93.8333,232.5 93.1667,232.5 92.5,232.5C 81.1024,233.708 69.7691,235.208 58.5,237C 39.1093,238.494 19.776,238.66 0.5,237.5C 0.5,236.833 0.166667,236.5 -0.5,236.5C -0.5,222.833 -0.5,209.167 -0.5,195.5C 2.51522,168.453 10.1819,142.787 22.5,118.5C 23.4959,118.414 24.3292,118.748 25,119.5C 25.7581,121.769 25.5914,123.936 24.5,126C 26.4016,129.255 27.735,132.755 28.5,136.5C 30.5,136.5 32.5,136.5 34.5,136.5C 35.3319,129.109 35.6652,121.775 35.5,114.5C 36.9305,114.421 38.2638,114.754 39.5,115.5C 39.8333,118.167 40.1667,120.833 40.5,123.5C 39.9942,128.217 39.3276,132.883 38.5,137.5C 37.5,137.5 36.5,137.5 35.5,137.5C 35.2623,140.408 36.2623,142.742 38.5,144.5C 38.417,154.38 38.417,164.38 38.5,174.5C 47.5,174.5 56.5,174.5 65.5,174.5C 65.5,169.833 65.5,165.167 65.5,160.5C 74.5022,160.786 83.5022,161.119 92.5,161.5C 92.5,165.833 92.5,170.167 92.5,174.5C 101.833,174.5 111.167,174.5 120.5,174.5C 120.5,176.833 120.5,179.167 120.5,181.5C 124.833,181.5 129.167,181.5 133.5,181.5C 133.194,185.747 133.861,189.747 135.5,193.5C 136.552,193.351 137.552,193.517 138.5,194C 137.054,198.367 134.054,201.2 129.5,202.5C 128.614,203.325 128.281,204.325 128.5,205.5C 127.448,205.351 126.448,205.517 125.5,206C 126.554,207.388 126.72,208.888 126,210.5C 123.28,212.494 121.78,215.161 121.5,218.5 Z"/></g>
<g><path style="opacity:1" fill="#3f3323" d="M 157.5,186.5 C 157.5,187.5 157.5,188.5 157.5,189.5C 157.179,191.048 156.179,191.715 154.5,191.5C 154.509,193.308 154.009,194.975 153,196.5C 152.667,196.167 152.333,195.833 152,195.5C 150.6,196.748 149.1,197.748 147.5,198.5C 147.539,197.417 147.873,196.417 148.5,195.5C 151.337,194.491 152.67,192.491 152.5,189.5C 154.664,189.279 156.33,188.279 157.5,186.5 Z"/></g>
<g><path style="opacity:1" fill="#f8d3a7" d="M 430.5,195.5 C 430.667,208.171 430.5,220.838 430,233.5C 429.801,235.402 428.967,236.902 427.5,238C 373.834,238.5 320.168,238.667 266.5,238.5C 263.983,236.947 261.15,235.947 258,235.5C 255.086,233.625 252.253,231.625 249.5,229.5C 247.257,228.526 244.924,228.192 242.5,228.5C 241.833,228.5 241.167,228.5 240.5,228.5C 240.167,227.833 239.833,227.167 239.5,226.5C 238.984,224.8 237.984,223.467 236.5,222.5C 235.534,220.604 235.201,218.604 235.5,216.5C 233.833,216.5 232.167,216.5 230.5,216.5C 230.649,215.448 230.483,214.448 230,213.5C 227.63,211.629 225.13,209.962 222.5,208.5C 221.204,203.861 218.204,201.527 213.5,201.5C 213.5,200.833 213.5,200.167 213.5,199.5C 213.5,196.833 213.5,194.167 213.5,191.5C 212.356,187.64 211.689,183.64 211.5,179.5C 213.39,179.703 214.89,179.037 216,177.5C 221.113,181.52 222.947,186.853 221.5,193.5C 228.33,192 231.33,194.667 230.5,201.5C 233.187,201.336 235.854,201.503 238.5,202C 239.833,203 239.833,204 238.5,205C 236.527,205.495 234.527,205.662 232.5,205.5C 232.281,206.675 232.614,207.675 233.5,208.5C 241.51,210.167 248.677,213.501 255,218.5C 257.024,215.419 257.691,212.086 257,208.5C 252.769,207.707 248.602,206.541 244.5,205C 243.643,204.311 242.977,203.478 242.5,202.5C 245.384,201.146 248.384,200.146 251.5,199.5C 270.772,201.293 290.105,202.293 309.5,202.5C 309.833,210.5 310.167,218.5 310.5,226.5C 312.143,226.48 313.476,227.147 314.5,228.5C 315.816,225.972 316.983,225.972 318,228.5C 319,225.833 320,225.833 321,228.5C 322.333,225.833 323.667,225.833 325,228.5C 326,225.833 327,225.833 328,228.5C 329.017,225.972 330.184,225.972 331.5,228.5C 332.816,225.972 333.983,225.972 335,228.5C 336,225.833 337,225.833 338,228.5C 339.017,225.972 340.184,225.972 341.5,228.5C 342.816,225.972 343.983,225.972 345,228.5C 346.017,225.972 347.184,225.972 348.5,228.5C 349.816,225.972 350.983,225.972 352,228.5C 353,225.833 354,225.833 355,228.5C 356.017,225.972 357.184,225.972 358.5,228.5C 359.816,225.972 360.983,225.972 362,228.5C 363.017,225.972 364.184,225.972 365.5,228.5C 382.045,228.29 398.545,227.957 415,227.5C 416.309,229.976 418.142,231.976 420.5,233.5C 424.077,232.83 424.91,231.164 423,228.5C 422.833,223.167 422.667,217.833 422.5,212.5C 422.629,202.186 423.129,192.186 424,182.5C 425,181.167 426,181.167 427,182.5C 427.25,185.85 428.083,189.017 429.5,192C 428.713,193.313 429.046,194.48 430.5,195.5 Z"/></g>
<g><path style="opacity:1" fill="#221a12" d="M 201.5,174.5 C 203.43,179.945 205.43,185.611 207.5,191.5C 208.823,194.803 210.823,197.47 213.5,199.5C 213.5,200.167 213.5,200.833 213.5,201.5C 217.154,207.475 221.154,213.141 225.5,218.5C 227.179,218.285 228.179,218.952 228.5,220.5C 224.175,220.682 221.341,218.682 220,214.5C 219.667,214.833 219.333,215.167 219,215.5C 216.279,212.62 213.112,210.286 209.5,208.5C 206.179,197.192 203.513,185.859 201.5,174.5 Z"/></g>
<g><path style="opacity:1" fill="#231b13" d="M 147.5,198.5 C 147.649,199.552 147.483,200.552 147,201.5C 143.752,202.442 143.252,203.775 145.5,205.5C 143.465,206.597 142.132,208.263 141.5,210.5C 138.417,211.165 136.417,212.998 135.5,216C 131.135,217.54 127.135,219.707 123.5,222.5C 123.977,223.478 124.643,224.311 125.5,225C 120.412,225.575 115.412,226.575 110.5,228C 107.888,229.279 105.555,230.945 103.5,233C 99.1876,233.389 95.3543,234.889 92,237.5C 91.5357,236.906 91.369,236.239 91.5,235.5C 92.6935,234.728 93.6935,233.728 94.5,232.5C 96.7812,232.923 98.4479,232.256 99.5,230.5C 107.788,228.187 115.121,224.187 121.5,218.5C 122.167,218.5 122.833,218.5 123.5,218.5C 125.749,217.92 127.415,216.587 128.5,214.5C 131.741,212.933 134.407,210.599 136.5,207.5C 137.689,206.571 139.022,206.238 140.5,206.5C 140.281,205.325 140.614,204.325 141.5,203.5C 143.783,202.029 145.783,200.362 147.5,198.5 Z"/></g>
<g><path style="opacity:1" fill="#e1c6a6" d="M 213.5,201.5 C 218.204,201.527 221.204,203.861 222.5,208.5C 225.13,209.962 227.63,211.629 230,213.5C 230.483,214.448 230.649,215.448 230.5,216.5C 232.167,216.5 233.833,216.5 235.5,216.5C 235.201,218.604 235.534,220.604 236.5,222.5C 237.984,223.467 238.984,224.8 239.5,226.5C 238.167,226.167 236.833,225.833 235.5,225.5C 232.953,224.066 230.619,222.4 228.5,220.5C 228.179,218.952 227.179,218.285 225.5,218.5C 221.154,213.141 217.154,207.475 213.5,201.5 Z"/></g>
<g><path style="opacity:1" fill="#84715b" d="M 128.5,214.5 C 127.415,216.587 125.749,217.92 123.5,218.5C 124.539,216.469 126.205,215.136 128.5,214.5 Z"/></g>
<g><path style="opacity:1" fill="#e3c5a2" d="M 121.5,218.5 C 115.121,224.187 107.788,228.187 99.5,230.5C 97.7839,230.629 96.1172,230.962 94.5,231.5C 94.5,230.5 94.5,229.5 94.5,228.5C 98.487,228.989 100.82,227.322 101.5,223.5C 105.78,221.511 110.28,219.845 115,218.5C 117.17,219.72 119.337,219.72 121.5,218.5 Z"/></g>
<g><path style="opacity:1" fill="#7e6a55" d="M 235.5,225.5 C 236.833,225.833 238.167,226.167 239.5,226.5C 239.833,227.167 240.167,227.833 240.5,228.5C 238.152,228.408 236.486,227.408 235.5,225.5 Z"/></g>
<g><path style="opacity:1" fill="#d3bb9b" d="M 242.5,228.5 C 244.924,228.192 247.257,228.526 249.5,229.5C 252.253,231.625 255.086,233.625 258,235.5C 261.15,235.947 263.983,236.947 266.5,238.5C 257.284,237.662 249.284,234.329 242.5,228.5 Z"/></g>
<g><path style="opacity:1" fill="#806e56" d="M 99.5,230.5 C 98.4479,232.256 96.7812,232.923 94.5,232.5C 94.5,232.167 94.5,231.833 94.5,231.5C 96.1172,230.962 97.7839,230.629 99.5,230.5 Z"/></g>
<g><path style="opacity:1" fill="#735f47" d="M 92.5,232.5 C 93.1667,232.5 93.8333,232.5 94.5,232.5C 93.6935,233.728 92.6935,234.728 91.5,235.5C 90.8333,235.5 90.1667,235.5 89.5,235.5C 90.0998,234.1 91.0998,233.1 92.5,232.5 Z"/></g>
<g><path style="opacity:1" fill="#998772" d="M 84.5,235.5 C 83.2196,236.931 81.5529,237.598 79.5,237.5C 80.5521,235.744 82.2188,235.077 84.5,235.5 Z"/></g>
<g><path style="opacity:1" fill="#eecfac" d="M 92.5,232.5 C 91.0998,233.1 90.0998,234.1 89.5,235.5C 88.8333,235.5 88.1667,235.5 87.5,235.5C 86.5,235.5 85.5,235.5 84.5,235.5C 82.2188,235.077 80.5521,235.744 79.5,237.5C 75.1259,237.502 71.1259,238.502 67.5,240.5C 65.1667,240.5 62.8333,240.5 60.5,240.5C 40.5,240.5 20.5,240.5 0.5,240.5C 0.5,239.5 0.5,238.5 0.5,237.5C 19.776,238.66 39.1093,238.494 58.5,237C 69.7691,235.208 81.1024,233.708 92.5,232.5 Z"/></g>
<g><path style="opacity:1" fill="#edd0b1" d="M 429.5,180.5 C 430.718,185.463 431.718,190.463 432.5,195.5C 432.5,209.167 432.5,222.833 432.5,236.5C 431.566,237.568 431.232,238.901 431.5,240.5C 379.167,240.5 326.833,240.5 274.5,240.5C 271.505,240.706 268.838,240.04 266.5,238.5C 320.168,238.667 373.834,238.5 427.5,238C 428.967,236.902 429.801,235.402 430,233.5C 430.5,220.838 430.667,208.171 430.5,195.5C 429.947,190.518 429.613,185.518 429.5,180.5 Z"/></g>
<g><path style="opacity:1" fill="#503d2a" d="M 79.5,237.5 C 78.8478,238.725 77.6811,239.392 76,239.5C 73.1834,240.031 70.35,240.364 67.5,240.5C 71.1259,238.502 75.1259,237.502 79.5,237.5 Z"/></g>
<g><path style="opacity:1" fill="#725f46" d="M 0.5,240.5 C 20.5,240.5 40.5,240.5 60.5,240.5C 59.7375,241.268 58.7375,241.768 57.5,242C 38.5029,242.5 19.5029,242.667 0.5,242.5C 0.5,241.833 0.5,241.167 0.5,240.5 Z"/></g>
<g><path style="opacity:1" fill="#72604b" d="M 274.5,240.5 C 326.833,240.5 379.167,240.5 431.5,240.5C 431.5,241.167 431.5,241.833 431.5,242.5C 379.832,242.667 328.166,242.5 276.5,242C 275.584,241.722 274.918,241.222 274.5,240.5 Z"/></g>
<g><path style="opacity:1" fill="#1e140b" d="M 84.5,235.5 C 85.5,235.5 86.5,235.5 87.5,235.5C 87.8244,238.694 86.6578,239.694 84,238.5C 81.955,239.887 79.7883,241.054 77.5,242C 51.7643,245.043 26.0976,245.876 0.5,244.5C 0.5,243.833 0.5,243.167 0.5,242.5C 19.5029,242.667 38.5029,242.5 57.5,242C 58.7375,241.768 59.7375,241.268 60.5,240.5C 62.8333,240.5 65.1667,240.5 67.5,240.5C 70.35,240.364 73.1834,240.031 76,239.5C 77.6811,239.392 78.8478,238.725 79.5,237.5C 81.5529,237.598 83.2196,236.931 84.5,235.5 Z"/></g>
<g><path style="opacity:1" fill="#1d150d" d="M 240.5,228.5 C 241.167,228.5 241.833,228.5 242.5,228.5C 249.284,234.329 257.284,237.662 266.5,238.5C 268.838,240.04 271.505,240.706 274.5,240.5C 274.918,241.222 275.584,241.722 276.5,242C 328.166,242.5 379.832,242.667 431.5,242.5C 431.737,243.791 431.404,244.791 430.5,245.5C 378.668,244.667 326.668,244.167 274.5,244C 269.47,243.552 264.47,242.886 259.5,242C 255.802,239.878 251.802,238.545 247.5,238C 243.591,236.024 241.258,232.857 240.5,228.5 Z"/></g>
<g><path style="opacity:0.998" fill="#111619" d="M 430.5,247.5 C 430.634,249.292 430.301,250.958 429.5,252.5C 427.25,252.819 425.25,252.319 423.5,251C 376.835,250.5 330.168,250.333 283.5,250.5C 283.5,249.5 283.5,248.5 283.5,247.5C 333.114,247.114 382.114,247.114 430.5,247.5 Z"/></g>
<g><path style="opacity:1" fill="#221610" d="M 82.5,269.5 C 75.8437,267.834 69.177,266.167 62.5,264.5C 43.5289,262.512 24.1955,261.846 4.5,262.5C 3.83333,262.5 3.5,262.167 3.5,261.5C 15.4432,260.792 27.4432,260.125 39.5,259.5C 52.485,260.695 65.1516,262.029 77.5,263.5C 75.9223,264.298 74.2556,264.798 72.5,265C 75.5285,265.539 78.5285,266.206 81.5,267C 82.2524,267.671 82.5858,268.504 82.5,269.5 Z"/></g>
<g><path style="opacity:1" fill="#a58f76" d="M 427.5,262.5 C 427.5,262.833 427.5,263.167 427.5,263.5C 376.997,263.168 326.664,263.501 276.5,264.5C 268.489,265.368 260.489,266.368 252.5,267.5C 257.861,265.32 263.527,263.82 269.5,263C 322.166,262.5 374.832,262.333 427.5,262.5 Z"/></g>
<g><path style="opacity:1" fill="#806a51" d="M 4.5,263.5 C 4.5,263.167 4.5,262.833 4.5,262.5C 24.1955,261.846 43.5289,262.512 62.5,264.5C 43.1847,263.592 23.8513,263.259 4.5,263.5 Z"/></g>
<g><path style="opacity:1" fill="#eecfa7" d="M 427.5,263.5 C 422.148,287.726 412.981,310.393 400,331.5C 397.63,335.597 394.797,339.264 391.5,342.5C 391.215,340.712 391.548,339.045 392.5,337.5C 398.422,329.99 403.589,321.99 408,313.5C 409.78,309.005 410.946,304.338 411.5,299.5C 417.403,295.021 420.07,289.021 419.5,281.5C 422.115,277.97 423.115,273.97 422.5,269.5C 422.489,267.983 421.823,266.816 420.5,266C 374.5,265.333 328.5,265.333 282.5,266C 279.123,266.452 275.789,267.118 272.5,268C 271.944,268.383 271.611,268.883 271.5,269.5C 262.844,270.98 254.177,272.313 245.5,273.5C 246.765,272.521 248.099,271.521 249.5,270.5C 255.472,269.67 261.472,269.17 267.5,269C 270.648,267.576 273.648,266.076 276.5,264.5C 326.664,263.501 376.997,263.168 427.5,263.5 Z"/></g>
<g><path style="opacity:1" fill="#f6d6a4" d="M 422.5,269.5 C 421.542,269.047 420.708,268.381 420,267.5C 419.292,268.381 418.458,269.047 417.5,269.5C 372.833,269.5 328.167,269.5 283.5,269.5C 282.739,268.609 281.739,267.942 280.5,267.5C 277.667,268.933 274.667,269.6 271.5,269.5C 271.611,268.883 271.944,268.383 272.5,268C 275.789,267.118 279.123,266.452 282.5,266C 328.5,265.333 374.5,265.333 420.5,266C 421.823,266.816 422.489,267.983 422.5,269.5 Z"/></g>
<g><path style="opacity:1" fill="#eacdab" d="M 276.5,264.5 C 273.648,266.076 270.648,267.576 267.5,269C 261.472,269.17 255.472,269.67 249.5,270.5C 248.099,271.521 246.765,272.521 245.5,273.5C 241.003,274.486 236.336,275.32 231.5,276C 227.418,278.309 223.085,280.142 218.5,281.5C 218.5,280.833 218.5,280.167 218.5,279.5C 222.534,277.953 226.534,276.286 230.5,274.5C 235.308,274.323 239.308,272.657 242.5,269.5C 245.833,268.833 249.167,268.167 252.5,267.5C 260.489,266.368 268.489,265.368 276.5,264.5 Z"/></g>
<g><path style="opacity:1" fill="#fbd2a5" d="M 283.5,269.5 C 283.047,270.458 282.381,271.292 281.5,272C 269.834,274.469 269.834,276.302 281.5,277.5C 278.423,278.856 275.09,279.689 271.5,280C 270.167,281 270.167,282 271.5,283C 275.152,283.499 278.818,283.665 282.5,283.5C 282.36,281.876 283.027,280.71 284.5,280C 328.832,279.5 373.165,279.333 417.5,279.5C 417.5,278.5 417.5,277.5 417.5,276.5C 372.5,276.5 327.5,276.5 282.5,276.5C 282.804,275.85 283.137,275.183 283.5,274.5C 328.162,273.5 372.828,273.167 417.5,273.5C 417.5,272.167 417.5,270.833 417.5,269.5C 418.458,269.047 419.292,268.381 420,267.5C 420.708,268.381 421.542,269.047 422.5,269.5C 423.115,273.97 422.115,277.97 419.5,281.5C 420.07,289.021 417.403,295.021 411.5,299.5C 410.946,304.338 409.78,309.005 408,313.5C 403.589,321.99 398.422,329.99 392.5,337.5C 391.548,339.045 391.215,340.712 391.5,342.5C 387.636,349.701 382.636,356.034 376.5,361.5C 376.66,359.801 376.494,358.134 376,356.5C 375.195,358.901 374.362,358.734 373.5,356C 372.216,355.316 371.049,355.483 370,356.5C 368.652,352.774 367.152,349.108 365.5,345.5C 364.77,347.341 364.103,349.175 363.5,351C 327.834,351.179 292.167,351.012 256.5,350.5C 256.5,346.167 256.5,341.833 256.5,337.5C 242.833,337.5 229.167,337.5 215.5,337.5C 215.5,333.167 215.5,328.833 215.5,324.5C 211.486,324.666 207.486,324.499 203.5,324C 202.403,319.926 201.57,315.76 201,311.5C 200.333,312.167 199.667,312.833 199,313.5C 198.721,317.459 197.887,321.292 196.5,325C 197.892,327.428 199.892,329.261 202.5,330.5C 203.833,332.833 203.833,335.167 202.5,337.5C 201.065,339.401 199.398,339.734 197.5,338.5C 196.959,336.465 196.292,334.465 195.5,332.5C 192.462,331.14 189.628,329.473 187,327.5C 186.746,324.805 186.579,322.305 186.5,320C 188.125,319.147 188.458,318.147 187.5,317C 190.26,314.175 189.926,312.009 186.5,310.5C 186.821,308.952 187.821,308.285 189.5,308.5C 189.5,306.833 189.5,305.167 189.5,303.5C 189.782,302.222 190.449,301.222 191.5,300.5C 193.144,300.286 194.644,300.62 196,301.5C 197.236,299.462 199.069,298.295 201.5,298C 205.408,292.091 210.741,288.091 217.5,286C 218.38,284.644 218.714,283.144 218.5,281.5C 223.085,280.142 227.418,278.309 231.5,276C 236.336,275.32 241.003,274.486 245.5,273.5C 254.177,272.313 262.844,270.98 271.5,269.5C 274.667,269.6 277.667,268.933 280.5,267.5C 281.739,267.942 282.739,268.609 283.5,269.5 Z"/></g>
<g><path style="opacity:1" fill="#f9d2a4" d="M 4.5,263.5 C 23.8513,263.259 43.1847,263.592 62.5,264.5C 69.177,266.167 75.8437,267.834 82.5,269.5C 85.7624,271.714 89.4291,273.381 93.5,274.5C 99.4795,280.352 105.48,286.019 111.5,291.5C 111.685,296.399 113.852,300.065 118,302.5C 118.483,303.448 118.649,304.448 118.5,305.5C 116.914,306.413 115.414,306.413 114,305.5C 112.601,302.637 111.601,299.637 111,296.5C 110.167,295.5 109.333,294.5 108.5,293.5C 106.07,295.644 104.07,298.144 102.5,301C 100.324,301.163 98.4907,301.996 97,303.5C 96.8236,300.118 96.3236,296.785 95.5,293.5C 94.8333,293.167 94.1667,292.833 93.5,292.5C 92.7564,293.991 92.0897,295.491 91.5,297C 73.4345,297.04 55.4345,297.706 37.5,299C 35.8194,301.522 34.8194,304.355 34.5,307.5C 37.1753,312.352 39.1753,317.518 40.5,323C 38.9641,326.571 37.2974,330.071 35.5,333.5C 37.7515,336.338 39.7515,339.338 41.5,342.5C 42.5237,343.853 43.857,344.52 45.5,344.5C 45.5,346.167 45.5,347.833 45.5,349.5C 24.9178,324.329 11.2512,295.662 4.5,263.5 Z"/></g>
<g><path style="opacity:1" fill="#21180f" d="M 428.5,258.5 C 428.768,260.099 428.434,261.432 427.5,262.5C 374.832,262.333 322.166,262.5 269.5,263C 263.527,263.82 257.861,265.32 252.5,267.5C 249.167,268.167 245.833,268.833 242.5,269.5C 238.149,270.824 234.149,272.491 230.5,274.5C 226.534,276.286 222.534,277.953 218.5,279.5C 217.737,278.732 216.737,278.232 215.5,278C 215.833,277.667 216.167,277.333 216.5,277C 221.644,275.969 225.977,273.635 229.5,270C 241.404,266.619 253.404,263.619 265.5,261C 317.158,261.579 368.824,261.579 420.5,261C 421.609,260.362 422.775,259.862 424,259.5C 425.726,260.662 427.226,260.329 428.5,258.5 Z"/></g>
<g><path style="opacity:1" fill="#fad2ac" d="M 283.5,269.5 C 328.167,269.5 372.833,269.5 417.5,269.5C 417.5,270.833 417.5,272.167 417.5,273.5C 372.828,273.167 328.162,273.5 283.5,274.5C 283.137,275.183 282.804,275.85 282.5,276.5C 281.833,276.5 281.5,276.833 281.5,277.5C 269.834,276.302 269.834,274.469 281.5,272C 282.381,271.292 283.047,270.458 283.5,269.5 Z"/></g>
<g><path style="opacity:1" fill="#836f57" d="M 242.5,269.5 C 239.308,272.657 235.308,274.323 230.5,274.5C 234.149,272.491 238.149,270.824 242.5,269.5 Z"/></g>
<g><path style="opacity:1" fill="#f6d5a7" d="M 282.5,276.5 C 327.5,276.5 372.5,276.5 417.5,276.5C 417.5,277.5 417.5,278.5 417.5,279.5C 373.165,279.333 328.832,279.5 284.5,280C 283.027,280.71 282.36,281.876 282.5,283.5C 278.818,283.665 275.152,283.499 271.5,283C 270.167,282 270.167,281 271.5,280C 275.09,279.689 278.423,278.856 281.5,277.5C 281.5,276.833 281.833,276.5 282.5,276.5 Z"/></g>
<g><path style="opacity:1" fill="#2e2119" d="M 218.5,279.5 C 218.5,280.167 218.5,280.833 218.5,281.5C 217.07,281.421 215.736,281.754 214.5,282.5C 207.121,287.895 199.788,293.229 192.5,298.5C 192.86,294.781 194.527,291.781 197.5,289.5C 204.047,285.304 211.047,281.971 218.5,279.5 Z"/></g>
<g><path style="opacity:1" fill="#fbd2a1" d="M 118.5,305.5 C 119.758,310.043 122.424,313.376 126.5,315.5C 128.046,317.882 128.713,320.549 128.5,323.5C 130.31,337.075 130.977,350.741 130.5,364.5C 129.833,364.5 129.167,364.5 128.5,364.5C 127.25,364.577 126.417,365.244 126,366.5C 125.759,369.289 125.092,371.956 124,374.5C 124,381.676 123,388.676 121,395.5C 117.362,395.846 114.862,397.68 113.5,401C 110.046,402.942 106.879,402.442 104,399.5C 103.517,398.552 103.351,397.552 103.5,396.5C 101.801,396.66 100.134,396.494 98.5,396C 95.427,394.463 92.427,392.963 89.5,391.5C 72.6014,379.937 57.9348,365.937 45.5,349.5C 45.5,347.833 45.5,346.167 45.5,344.5C 43.857,344.52 42.5237,343.853 41.5,342.5C 39.7515,339.338 37.7515,336.338 35.5,333.5C 37.2974,330.071 38.9641,326.571 40.5,323C 39.1753,317.518 37.1753,312.352 34.5,307.5C 34.8194,304.355 35.8194,301.522 37.5,299C 55.4345,297.706 73.4345,297.04 91.5,297C 92.0897,295.491 92.7564,293.991 93.5,292.5C 94.1667,292.833 94.8333,293.167 95.5,293.5C 96.3236,296.785 96.8236,300.118 97,303.5C 98.4907,301.996 100.324,301.163 102.5,301C 104.07,298.144 106.07,295.644 108.5,293.5C 109.333,294.5 110.167,295.5 111,296.5C 111.601,299.637 112.601,302.637 114,305.5C 115.414,306.413 116.914,306.413 118.5,305.5 Z"/></g>
<g><path style="opacity:1" fill="#e2c5a3" d="M 218.5,281.5 C 218.714,283.144 218.38,284.644 217.5,286C 210.741,288.091 205.408,292.091 201.5,298C 199.069,298.295 197.236,299.462 196,301.5C 194.644,300.62 193.144,300.286 191.5,300.5C 191.833,299.833 192.167,299.167 192.5,298.5C 199.788,293.229 207.121,287.895 214.5,282.5C 215.736,281.754 217.07,281.421 218.5,281.5 Z"/></g>
<g><path style="opacity:1" fill="#d1b99a" d="M 111.5,291.5 C 113.902,294.089 116.236,296.922 118.5,300C 121.834,304.835 124.501,310.002 126.5,315.5C 122.424,313.376 119.758,310.043 118.5,305.5C 118.649,304.448 118.483,303.448 118,302.5C 113.852,300.065 111.685,296.399 111.5,291.5 Z"/></g>
<g><path style="opacity:1" fill="#ddc29f" d="M 189.5,303.5 C 189.5,305.167 189.5,306.833 189.5,308.5C 187.821,308.285 186.821,308.952 186.5,310.5C 185.5,310.5 184.5,310.5 183.5,310.5C 183.424,313.973 182.758,317.306 181.5,320.5C 179.167,320.5 176.833,320.5 174.5,320.5C 176.463,317.594 178.296,314.594 180,311.5C 183.084,308.57 186.251,305.903 189.5,303.5 Z"/></g>
<g><path style="opacity:1" fill="#fcd1a1" d="M 186.5,310.5 C 189.926,312.009 190.26,314.175 187.5,317C 188.458,318.147 188.125,319.147 186.5,320C 186.579,322.305 186.746,324.805 187,327.5C 189.628,329.473 192.462,331.14 195.5,332.5C 196.292,334.465 196.959,336.465 197.5,338.5C 199.398,339.734 201.065,339.401 202.5,337.5C 203.833,335.167 203.833,332.833 202.5,330.5C 199.892,329.261 197.892,327.428 196.5,325C 197.887,321.292 198.721,317.459 199,313.5C 199.667,312.833 200.333,312.167 201,311.5C 201.57,315.76 202.403,319.926 203.5,324C 207.486,324.499 211.486,324.666 215.5,324.5C 215.5,328.833 215.5,333.167 215.5,337.5C 229.167,337.5 242.833,337.5 256.5,337.5C 256.5,341.833 256.5,346.167 256.5,350.5C 292.167,351.012 327.834,351.179 363.5,351C 364.103,349.175 364.77,347.341 365.5,345.5C 367.152,349.108 368.652,352.774 370,356.5C 371.049,355.483 372.216,355.316 373.5,356C 374.362,358.734 375.195,358.901 376,356.5C 376.494,358.134 376.66,359.801 376.5,361.5C 375.833,362.833 374.833,363.833 373.5,364.5C 372.022,364.238 370.689,364.571 369.5,365.5C 366.489,368.344 363.656,371.344 361,374.5C 358.787,373.5 356.954,374.167 355.5,376.5C 354.548,378.045 354.215,379.712 354.5,381.5C 351.86,381.954 349.527,383.121 347.5,385C 345.866,385.494 344.199,385.66 342.5,385.5C 342.5,386.833 342.5,388.167 342.5,389.5C 339.156,389.65 336.823,391.317 335.5,394.5C 333.922,395.298 332.256,395.798 330.5,396C 327.248,400.458 322.915,403.124 317.5,404C 312.704,408.45 307.037,411.117 300.5,412C 294.657,414.851 288.824,417.684 283,420.5C 278,421.5 273,422.5 268,423.5C 266.251,424.41 265.084,425.743 264.5,427.5C 263.833,427.5 263.167,427.5 262.5,427.5C 256.824,427.334 251.157,427.501 245.5,428C 244.672,428.915 243.672,429.581 242.5,430C 224.593,430.825 206.76,430.658 189,429.5C 188.536,430.094 188.369,430.761 188.5,431.5C 175.228,429.598 162.228,426.598 149.5,422.5C 148.934,420.922 147.934,419.588 146.5,418.5C 145.52,415.914 145.187,413.247 145.5,410.5C 146.5,410.5 147.5,410.5 148.5,410.5C 147.624,402.137 148.79,394.137 152,386.5C 152.499,382.514 152.666,378.514 152.5,374.5C 152.5,373.5 152.5,372.5 152.5,371.5C 153.376,371.631 154.043,371.298 154.5,370.5C 157.688,362.72 161.522,355.387 166,348.5C 166.741,345.438 166.575,342.438 165.5,339.5C 166.32,337.889 167.654,337.222 169.5,337.5C 169.011,333.513 170.678,331.18 174.5,330.5C 174.5,327.833 174.5,325.167 174.5,322.5C 174.5,321.833 174.5,321.167 174.5,320.5C 176.833,320.5 179.167,320.5 181.5,320.5C 182.758,317.306 183.424,313.973 183.5,310.5C 184.5,310.5 185.5,310.5 186.5,310.5 Z"/></g>
<g><path style="opacity:1" fill="#241b12" d="M 192.5,298.5 C 192.167,299.167 191.833,299.833 191.5,300.5C 190.449,301.222 189.782,302.222 189.5,303.5C 186.251,305.903 183.084,308.57 180,311.5C 178.296,314.594 176.463,317.594 174.5,320.5C 174.5,321.167 174.5,321.833 174.5,322.5C 172.91,322.628 171.577,323.295 170.5,324.5C 168.773,329.24 166.44,333.573 163.5,337.5C 162.477,341.878 160.644,345.878 158,349.5C 157.506,351.134 157.34,352.801 157.5,354.5C 155.643,356.282 154.643,358.615 154.5,361.5C 152.96,363.838 152.294,366.505 152.5,369.5C 151.833,370.167 151.167,370.833 150.5,371.5C 150.078,364.007 150.911,356.674 153,349.5C 153.667,348.167 154.333,348.167 155,349.5C 156.685,345.621 158.018,341.621 159,337.5C 161.613,335.164 163.113,332.164 163.5,328.5C 166.382,326.633 167.715,323.966 167.5,320.5C 169.144,320.286 170.644,320.62 172,321.5C 174.932,315.299 178.099,309.299 181.5,303.5C 184.735,301.02 188.402,299.354 192.5,298.5 Z"/></g>
<g><path style="opacity:1" fill="#c4a98c" d="M 128.5,323.5 C 130.307,326.469 131.807,329.802 133,333.5C 133.824,342.343 133.657,351.01 132.5,359.5C 131.833,361.167 131.167,362.833 130.5,364.5C 130.977,350.741 130.31,337.075 128.5,323.5 Z"/></g>
<g><path style="opacity:1" fill="#e9c8a3" d="M 174.5,322.5 C 174.5,325.167 174.5,327.833 174.5,330.5C 170.678,331.18 169.011,333.513 169.5,337.5C 167.654,337.222 166.32,337.889 165.5,339.5C 166.575,342.438 166.741,345.438 166,348.5C 161.522,355.387 157.688,362.72 154.5,370.5C 154.043,371.298 153.376,371.631 152.5,371.5C 152.5,370.833 152.5,370.167 152.5,369.5C 152.294,366.505 152.96,363.838 154.5,361.5C 156.536,359.794 157.536,357.461 157.5,354.5C 157.34,352.801 157.506,351.134 158,349.5C 160.644,345.878 162.477,341.878 163.5,337.5C 166.44,333.573 168.773,329.24 170.5,324.5C 171.577,323.295 172.91,322.628 174.5,322.5 Z"/></g>
<g><path style="opacity:1" fill="#aa9172" d="M 157.5,354.5 C 157.536,357.461 156.536,359.794 154.5,361.5C 154.643,358.615 155.643,356.282 157.5,354.5 Z"/></g>
<g><path style="opacity:1" fill="#634d37" d="M 132.5,359.5 C 132.932,362.877 132.265,365.877 130.5,368.5C 130.5,367.167 130.5,365.833 130.5,364.5C 131.167,362.833 131.833,361.167 132.5,359.5 Z"/></g>
<g><path style="opacity:1" fill="#d2b89b" d="M 128.5,364.5 C 129.167,364.5 129.833,364.5 130.5,364.5C 130.5,365.833 130.5,367.167 130.5,368.5C 128.938,372.652 128.272,376.985 128.5,381.5C 127.351,381.791 126.684,382.624 126.5,384C 125.841,386.462 125.507,388.962 125.5,391.5C 125.88,393.698 125.213,395.365 123.5,396.5C 124.249,385.652 125.916,374.985 128.5,364.5 Z"/></g>
<g><path style="opacity:1" fill="#211911" d="M 93.5,274.5 C 96.1873,274.336 98.854,274.503 101.5,275C 105.14,280.514 109.974,285.014 116,288.5C 117.777,292.745 119.277,297.079 120.5,301.5C 124.735,302.228 128.069,304.395 130.5,308C 129.282,309.438 128.615,311.105 128.5,313C 129.62,316.405 131.786,318.905 135,320.5C 135.833,340.175 135.666,359.842 134.5,379.5C 133.148,380.518 132.148,381.851 131.5,383.5C 129.623,393.312 127.29,402.979 124.5,412.5C 123.391,412.443 122.391,412.11 121.5,411.5C 122.465,406.557 123.132,401.557 123.5,396.5C 125.213,395.365 125.88,393.698 125.5,391.5C 127.31,388.628 128.31,385.295 128.5,381.5C 128.272,376.985 128.938,372.652 130.5,368.5C 132.265,365.877 132.932,362.877 132.5,359.5C 133.657,351.01 133.824,342.343 133,333.5C 131.807,329.802 130.307,326.469 128.5,323.5C 128.713,320.549 128.046,317.882 126.5,315.5C 124.501,310.002 121.834,304.835 118.5,300C 116.236,296.922 113.902,294.089 111.5,291.5C 105.48,286.019 99.4795,280.352 93.5,274.5 Z"/></g>
<g><path style="opacity:1" fill="#7a6951" d="M 152.5,369.5 C 152.5,370.167 152.5,370.833 152.5,371.5C 152.5,372.5 152.5,373.5 152.5,374.5C 151.833,375.167 151.167,375.833 150.5,376.5C 150.5,374.833 150.5,373.167 150.5,371.5C 151.167,370.833 151.833,370.167 152.5,369.5 Z"/></g>
<g><path style="opacity:1" fill="#201912" d="M 150.5,371.5 C 150.5,373.167 150.5,374.833 150.5,376.5C 150.5,378.167 150.5,379.833 150.5,381.5C 148.656,383.279 147.99,385.612 148.5,388.5C 148.167,388.5 147.833,388.5 147.5,388.5C 146.593,390.657 145.927,392.99 145.5,395.5C 145.5,398.833 145.5,402.167 145.5,405.5C 143.587,408.335 142.587,411.668 142.5,415.5C 142.5,416.833 142.5,418.167 142.5,419.5C 141.833,419.5 141.167,419.5 140.5,419.5C 140.061,410.03 140.727,400.697 142.5,391.5C 143.5,391.5 144.5,391.5 145.5,391.5C 145.336,386.466 145.669,381.466 146.5,376.5C 146.777,373.898 148.111,372.231 150.5,371.5 Z"/></g>
<g><path style="opacity:1" fill="#89745d" d="M 150.5,381.5 C 150.073,384.01 149.407,386.343 148.5,388.5C 147.99,385.612 148.656,383.279 150.5,381.5 Z"/></g>
<g><path style="opacity:1" fill="#5c4d3b" d="M 128.5,381.5 C 128.31,385.295 127.31,388.628 125.5,391.5C 125.507,388.962 125.841,386.462 126.5,384C 126.684,382.624 127.351,381.791 128.5,381.5 Z"/></g>
<g><path style="opacity:1" fill="#5c4c36" d="M 147.5,388.5 C 148.01,391.388 147.344,393.721 145.5,395.5C 145.927,392.99 146.593,390.657 147.5,388.5 Z"/></g>
<g><path style="opacity:1" fill="#f5d1a8" d="M 128.5,364.5 C 125.916,374.985 124.249,385.652 123.5,396.5C 123.132,401.557 122.465,406.557 121.5,411.5C 110.013,405.986 99.3462,399.319 89.5,391.5C 92.427,392.963 95.427,394.463 98.5,396C 100.134,396.494 101.801,396.66 103.5,396.5C 103.351,397.552 103.517,398.552 104,399.5C 106.879,402.442 110.046,402.942 113.5,401C 114.862,397.68 117.362,395.846 121,395.5C 123,388.676 124,381.676 124,374.5C 125.092,371.956 125.759,369.289 126,366.5C 126.417,365.244 127.25,364.577 128.5,364.5 Z"/></g>
<g><path style="opacity:1" fill="#eacaa4" d="M 152.5,374.5 C 152.666,378.514 152.499,382.514 152,386.5C 148.79,394.137 147.624,402.137 148.5,410.5C 147.5,410.5 146.5,410.5 145.5,410.5C 145.187,413.247 145.52,415.914 146.5,418.5C 147.934,419.588 148.934,420.922 149.5,422.5C 146.843,422.065 144.509,421.065 142.5,419.5C 142.5,418.167 142.5,416.833 142.5,415.5C 144.413,412.665 145.413,409.332 145.5,405.5C 145.5,402.167 145.5,398.833 145.5,395.5C 147.344,393.721 148.01,391.388 147.5,388.5C 147.833,388.5 148.167,388.5 148.5,388.5C 149.407,386.343 150.073,384.01 150.5,381.5C 150.5,379.833 150.5,378.167 150.5,376.5C 151.167,375.833 151.833,375.167 152.5,374.5 Z"/></g>
<g><path style="opacity:1" fill="#f2d1ab" d="M 373.5,364.5 C 343.758,396.549 307.425,417.549 264.5,427.5C 265.084,425.743 266.251,424.41 268,423.5C 273,422.5 278,421.5 283,420.5C 288.824,417.684 294.657,414.851 300.5,412C 307.037,411.117 312.704,408.45 317.5,404C 322.915,403.124 327.248,400.458 330.5,396C 332.256,395.798 333.922,395.298 335.5,394.5C 336.823,391.317 339.156,389.65 342.5,389.5C 342.5,388.167 342.5,386.833 342.5,385.5C 344.199,385.66 345.866,385.494 347.5,385C 349.527,383.121 351.86,381.954 354.5,381.5C 354.215,379.712 354.548,378.045 355.5,376.5C 356.954,374.167 358.787,373.5 361,374.5C 363.656,371.344 366.489,368.344 369.5,365.5C 370.689,364.571 372.022,364.238 373.5,364.5 Z"/></g>
<g><path style="opacity:1" fill="#ab8f72" d="M 145.5,405.5 C 145.413,409.332 144.413,412.665 142.5,415.5C 142.587,411.668 143.587,408.335 145.5,405.5 Z"/></g>
<g><path style="opacity:0.941" fill="#f4d2aa" d="M 262.5,427.5 C 253.907,429.599 245.241,431.265 236.5,432.5C 222.833,432.5 209.167,432.5 195.5,432.5C 193.393,431.532 191.059,431.198 188.5,431.5C 188.369,430.761 188.536,430.094 189,429.5C 206.76,430.658 224.593,430.825 242.5,430C 243.672,429.581 244.672,428.915 245.5,428C 251.157,427.501 256.824,427.334 262.5,427.5 Z"/></g>
</svg>
