<svg xmlns="http://www.w3.org/2000/svg" version="1.1" viewBox="0 0 433 433" width="433" height="433" style="shape-rendering:geometricPrecision; text-rendering:geometricPrecision; image-rendering:optimizeQuality; fill-rule:evenodd; clip-rule:evenodd" xmlns:xlink="http://www.w3.org/1999/xlink">
<g><path style="opacity:0.995" fill="#000000" d="M 195.5,-0.5 C 209.167,-0.5 222.833,-0.5 236.5,-0.5C 320.465,10.7281 380.298,54.7281 416,131.5C 424.348,152.23 429.848,173.563 432.5,195.5C 432.5,209.167 432.5,222.833 432.5,236.5C 421.272,320.465 377.272,380.298 300.5,416C 279.77,424.348 258.437,429.848 236.5,432.5C 222.833,432.5 209.167,432.5 195.5,432.5C 111.535,421.272 51.702,377.272 16,300.5C 7.65175,279.77 2.15175,258.437 -0.5,236.5C -0.5,222.833 -0.5,209.167 -0.5,195.5C 10.7281,111.535 54.7281,51.702 131.5,16C 152.23,7.65175 173.563,2.15175 195.5,-0.5 Z"/></g>
<g><path style="opacity:1" fill="#74867d" d="M 146.5,108.5 C 143.5,108.5 140.5,108.5 137.5,108.5C 140.5,105.833 143.5,105.833 146.5,108.5 Z"/></g>
<g><path style="opacity:1" fill="#617169" d="M 291.5,107.5 C 288.833,107.833 286.167,108.167 283.5,108.5C 285.993,106.416 288.66,106.083 291.5,107.5 Z"/></g>
<g><path style="opacity:1" fill="#d2f8e6" d="M 137.5,108.5 C 140.5,108.5 143.5,108.5 146.5,108.5C 146.833,108.5 147.167,108.5 147.5,108.5C 149.509,110.065 151.843,111.065 154.5,111.5C 169.568,116.682 184.568,122.016 199.5,127.5C 202.053,129.584 205.053,130.917 208.5,131.5C 209.721,132.028 210.887,132.695 212,133.5C 212.667,139.167 212.667,144.833 212,150.5C 206.532,156.969 200.699,163.136 194.5,169C 193.167,169.667 191.833,169.667 190.5,169C 183.959,166.77 177.626,164.27 171.5,161.5C 169.898,159.926 167.898,159.259 165.5,159.5C 161.167,158.167 156.833,156.833 152.5,155.5C 156.721,168.665 161.055,181.831 165.5,195C 165.375,196.627 164.875,198.127 164,199.5C 158.582,204.412 153.749,209.746 149.5,215.5C 154.083,221.588 159.25,227.255 165,232.5C 165.167,233.333 165.333,234.167 165.5,235C 162.865,243.904 160.032,252.737 157,261.5C 154.064,265.706 152.564,270.373 152.5,275.5C 163.502,271.776 174.502,267.943 185.5,264C 188.768,262.787 192.101,262.454 195.5,263C 201,268.5 206.5,274 212,279.5C 212.667,285.5 212.667,291.5 212,297.5C 209.686,298.733 207.519,300.067 205.5,301.5C 202.848,301.41 200.515,302.076 198.5,303.5C 180.524,310.379 162.524,317.046 144.5,323.5C 142.097,323.552 139.764,323.219 137.5,322.5C 126.242,311.908 115.242,300.908 104.5,289.5C 102.851,285.028 103.518,281.028 106.5,277.5C 108.074,275.898 108.741,273.898 108.5,271.5C 115.325,252.691 121.992,233.858 128.5,215C 122.457,197.035 116.123,179.202 109.5,161.5C 108.345,157.203 106.679,153.203 104.5,149.5C 104.155,145.885 104.822,142.552 106.5,139.5C 109.167,136.167 112.167,133.167 115.5,130.5C 119.456,128.544 122.456,125.544 124.5,121.5C 128.887,117.113 133.221,112.779 137.5,108.5 Z"/></g>
<g><path style="opacity:1" fill="#d2f9e6" d="M 291.5,107.5 C 303.806,117.806 315.14,129.14 325.5,141.5C 325.5,144.5 325.5,147.5 325.5,150.5C 325.5,150.833 325.5,151.167 325.5,151.5C 323.654,154.54 322.321,157.873 321.5,161.5C 317.487,172.544 313.487,183.544 309.5,194.5C 307.087,195.68 306.087,197.68 306.5,200.5C 303.227,200.471 302.56,201.804 304.5,204.5C 303.829,207.185 303.162,209.852 302.5,212.5C 302.5,214.167 302.5,215.833 302.5,217.5C 302.415,220.649 303.415,223.316 305.5,225.5C 305.166,228.491 306.166,230.824 308.5,232.5C 314.5,248.833 320.5,265.167 326.5,281.5C 326.632,284.57 326.299,287.57 325.5,290.5C 317.283,297.882 309.617,305.716 302.5,314C 298.833,317 295.167,320 291.5,323C 286.665,323.586 281.999,322.92 277.5,321C 266.599,316.534 255.599,312.367 244.5,308.5C 242.824,306.166 240.491,305.166 237.5,305.5C 233.183,303.06 228.517,301.393 223.5,300.5C 221.629,300.141 220.129,299.141 219,297.5C 218.333,291.5 218.333,285.5 219,279.5C 224.5,274 230,268.5 235.5,263C 237.5,262.333 239.5,262.333 241.5,263C 253.752,267.473 266.086,271.64 278.5,275.5C 278.66,273.801 278.494,272.134 278,270.5C 273.401,258.871 269.235,247.038 265.5,235C 265.667,234.167 265.833,233.333 266,232.5C 271.75,227.255 276.917,221.588 281.5,215.5C 276.917,209.412 271.75,203.745 266,198.5C 266.675,190.133 268.842,182.133 272.5,174.5C 274.834,172.824 275.834,170.491 275.5,167.5C 277.074,165.898 277.741,163.898 277.5,161.5C 278.15,159.565 278.483,157.565 278.5,155.5C 265.57,159.31 252.903,163.81 240.5,169C 239.167,169.667 237.833,169.667 236.5,169C 230.301,163.136 224.468,156.969 219,150.5C 218.21,144.448 218.376,138.448 219.5,132.5C 223.959,130.271 228.626,128.605 233.5,127.5C 238.144,126.401 242.478,124.734 246.5,122.5C 258.636,117.453 270.969,112.786 283.5,108.5C 286.167,108.167 288.833,107.833 291.5,107.5 Z"/></g>
<g><path style="opacity:1" fill="#414c48" d="M 147.5,108.5 C 150.491,108.166 152.824,109.166 154.5,111.5C 151.843,111.065 149.509,110.065 147.5,108.5 Z"/></g>
<g><path style="opacity:1" fill="#9fb6ac" d="M 124.5,121.5 C 122.456,125.544 119.456,128.544 115.5,130.5C 118.167,127.167 121.167,124.167 124.5,121.5 Z"/></g>
<g><path style="opacity:1" fill="#81968c" d="M 246.5,122.5 C 242.478,124.734 238.144,126.401 233.5,127.5C 233.611,126.883 233.944,126.383 234.5,126C 238.447,124.516 242.447,123.35 246.5,122.5 Z"/></g>
<g><path style="opacity:1" fill="#6e7e77" d="M 199.5,127.5 C 202.947,128.083 205.947,129.416 208.5,131.5C 205.053,130.917 202.053,129.584 199.5,127.5 Z"/></g>
<g><path style="opacity:1" fill="#677771" d="M 106.5,139.5 C 104.822,142.552 104.155,145.885 104.5,149.5C 103.366,147.034 103.199,144.367 104,141.5C 104.708,140.619 105.542,139.953 106.5,139.5 Z"/></g>
<g><path style="opacity:1" fill="#92a9a0" d="M 325.5,141.5 C 326.725,142.152 327.392,143.319 327.5,145C 327.607,147.221 326.94,149.054 325.5,150.5C 325.5,147.5 325.5,144.5 325.5,141.5 Z"/></g>
<g><path style="opacity:1" fill="#49544f" d="M 104.5,149.5 C 106.679,153.203 108.345,157.203 109.5,161.5C 108.21,160.942 107.377,159.942 107,158.5C 105.57,155.647 104.737,152.647 104.5,149.5 Z"/></g>
<g><path style="opacity:1" fill="#434d47" d="M 325.5,151.5 C 325.514,155.475 324.181,158.808 321.5,161.5C 322.321,157.873 323.654,154.54 325.5,151.5 Z"/></g>
<g><path style="opacity:1" fill="#8fa59b" d="M 165.5,159.5 C 167.898,159.259 169.898,159.926 171.5,161.5C 169.102,161.741 167.102,161.074 165.5,159.5 Z"/></g>
<g><path style="opacity:1" fill="#7c8f86" d="M 277.5,161.5 C 277.741,163.898 277.074,165.898 275.5,167.5C 275.259,165.102 275.926,163.102 277.5,161.5 Z"/></g>
<g><path style="opacity:1" fill="#8ca097" d="M 275.5,167.5 C 275.834,170.491 274.834,172.824 272.5,174.5C 272.935,171.843 273.935,169.509 275.5,167.5 Z"/></g>
<g><path style="opacity:1" fill="#aecabd" d="M 309.5,194.5 C 307.655,200.83 305.322,206.83 302.5,212.5C 303.162,209.852 303.829,207.185 304.5,204.5C 302.56,201.804 303.227,200.471 306.5,200.5C 306.087,197.68 307.087,195.68 309.5,194.5 Z"/></g>
<g><path style="opacity:1" fill="#83988e" d="M 302.5,217.5 C 304.585,219.684 305.585,222.351 305.5,225.5C 303.415,223.316 302.415,220.649 302.5,217.5 Z"/></g>
<g><path style="opacity:1" fill="#859a90" d="M 305.5,225.5 C 307.065,227.509 308.065,229.843 308.5,232.5C 306.166,230.824 305.166,228.491 305.5,225.5 Z"/></g>
<g><path style="opacity:1" fill="#7c8f86" d="M 108.5,271.5 C 108.741,273.898 108.074,275.898 106.5,277.5C 106.259,275.102 106.926,273.102 108.5,271.5 Z"/></g>
<g><path style="opacity:1" fill="#47504d" d="M 326.5,281.5 C 327.158,282.793 327.492,284.293 327.5,286C 327.431,287.986 326.765,289.486 325.5,290.5C 326.299,287.57 326.632,284.57 326.5,281.5 Z"/></g>
<g><path style="opacity:1" fill="#74857d" d="M 223.5,300.5 C 228.517,301.393 233.183,303.06 237.5,305.5C 232.483,304.607 227.817,302.94 223.5,300.5 Z"/></g>
<g><path style="opacity:1" fill="#53605b" d="M 205.5,301.5 C 203.485,302.924 201.152,303.59 198.5,303.5C 200.515,302.076 202.848,301.41 205.5,301.5 Z"/></g>
<g><path style="opacity:1" fill="#869a91" d="M 237.5,305.5 C 240.491,305.166 242.824,306.166 244.5,308.5C 241.843,308.065 239.509,307.065 237.5,305.5 Z"/></g>
<g><path style="opacity:1" fill="#4d5952" d="M 137.5,322.5 C 139.764,323.219 142.097,323.552 144.5,323.5C 143.726,324.147 142.726,324.48 141.5,324.5C 139.645,324.66 138.312,323.993 137.5,322.5 Z"/></g>
</svg>