<svg width="800" height="800" viewBox="0 0 800 800" fill="none" xmlns="http://www.w3.org/2000/svg">
<g clip-path="url(#clip0_1027_2103)">
<rect width="800" height="800" fill="black"/>
<path d="M400.788 564.97C400.013 565.99 399.238 567.01 397.777 567.993C396.306 568.324 395.52 568.694 394.734 569.064C394.734 569.064 394.735 569 394.298 568.944C391.2 568.949 388.495 568.721 385.884 569.117C370.366 571.47 354.988 569.637 339.947 566.381C291.834 555.963 254.754 529.067 227.102 488.584C228.06 487.387 228.838 486.484 230.221 484.878C227.986 485.199 226.636 485.392 225.287 485.586C226.306 484.614 227.326 483.643 229.084 481.967C226.785 482.355 225.454 482.58 222.924 483.008C224.426 481.141 225.33 479.971 226.283 478.842C230.071 474.357 229.806 471.47 224.642 469.168C220.986 467.538 219.185 465.414 218.205 461.444C216.364 453.988 214.012 452.73 207.105 453.722C203.363 443.803 200.049 434.245 196.736 424.687C203.572 425.667 205.539 424.377 205.973 417.417C206.809 404.021 202.261 392.077 195.75 380.318C199.156 384.715 202.122 389.685 205.331 395.061C202.849 380.391 199.891 375.549 192.209 373.339C192.209 374.507 192.209 375.65 192.209 376.793C190.301 375.519 188.393 374.244 186.143 372.378C185.407 360.828 185.015 349.87 184.629 338.909C184.635 338.906 184.631 338.888 185.042 338.909C188.349 338.417 191.245 337.904 192.851 337.62C197.042 340.809 200.45 343.402 203.858 345.994C204.163 346.029 204.409 346.167 204.639 347.005C204.687 348.125 204.692 348.651 204.322 349.351C203.577 351.73 202.75 353.967 202.909 356.132C204.595 379.044 209.136 401.405 216.32 423.226C217.064 425.485 217.969 427.691 218.799 429.922C216.34 416.423 212.319 403.366 209.831 390.023C207.316 376.543 206.321 362.781 205.007 349.109C206.46 349.402 207.566 349.73 208.671 350.057C209.387 351.995 210.397 353.879 210.771 355.882C212.689 366.155 216.567 375.275 225.834 381.53C220.229 374.032 216.468 365.873 216.152 354.999C218.841 357.63 221.09 359.33 222.711 361.499C231.661 373.475 241.332 384.562 256.033 389.685C270.059 394.573 284.488 391.529 292.183 382.001C293.985 379.77 295.297 377.143 296.995 374.441C300.36 381.999 295.225 390.424 282.608 400.251C285.888 399.502 289.169 398.754 292.641 397.962C294.414 431.698 306.112 462.527 322.912 491.578C338.814 519.078 359.434 541.906 389.14 555.107C392.61 556.649 396.285 557.732 400.259 559.528C400.698 561.676 400.743 563.323 400.788 564.97ZM304.529 479.733C315.889 500.417 329.828 518.902 349.887 532.251C336.64 516.786 323.54 501.134 314.984 482.573C306.468 464.097 299.034 445.121 291.125 426.364C290.196 431.012 289.753 435.773 290.28 440.424C291.858 454.364 297.679 466.87 304.529 479.733ZM251.586 489.612C240.246 474.799 231.778 458.342 223.896 441.588C234.294 471.134 251.233 496.289 274.502 517.369C298.77 539.355 338.833 556.518 349.556 555.48C310.123 543.975 277.06 523.023 251.586 489.612ZM265.626 393.955C263.201 393.645 260.775 393.335 257.045 392.859C269.731 400.816 287.84 398.158 289.121 390.166C281.789 391.405 274.155 392.696 265.626 393.955ZM358.968 557.369C357.659 557.241 356.35 557.113 355.041 556.985C354.978 557.655 354.915 558.325 354.851 558.995C366.605 560.661 378.358 562.326 390.111 563.991C390.195 563.413 390.28 562.835 390.364 562.256C380.172 560.697 369.98 559.138 358.968 557.369ZM326.106 561.19C328.39 561.097 330.674 561.003 332.958 560.91C323.015 552.741 323.015 552.741 316.276 557.31C319.437 558.575 322.396 559.76 326.106 561.19ZM286.47 414.305C286.489 416.042 286.283 417.83 286.657 419.487C286.776 420.017 288.431 420.201 289.383 420.543C289.865 418.891 290.861 417.158 290.62 415.619C290.491 414.796 288.23 414.306 286.47 414.305Z" fill="#FCEA01"/>
<path d="M218.527 267.696C218.527 267.696 218.597 267.362 218.954 267.018C219.394 266.04 219.476 265.408 219.559 264.776C222.269 256.841 227.25 250.498 233.466 245.043C238.9 240.274 245.413 239.329 252.193 240.501C257.566 241.43 262.994 242.588 268.082 244.49C275.998 247.448 283.398 247.108 291.264 244.096C296.073 242.254 301.527 242.095 306.577 241.576C303.127 242.583 299.792 243.193 297.66 243.584C303.905 246.473 310.621 249.64 317.417 252.625C318.049 252.903 319.186 252.03 320.088 251.692C321.961 254.551 323.833 257.411 325.434 260.92C322.706 259.924 320.446 257.77 317.756 256.731C310.018 253.741 302.137 253.358 295.086 258.445C293.533 259.565 292.883 262.594 292.804 264.779C292.771 265.68 295.345 266.675 296.754 268.031C296.112 270.988 295.449 273.541 294.772 276.072C294.757 276.052 294.807 276.049 294.555 276.165C294.217 276.625 294.131 276.968 293.955 277.714C294.239 280.726 294.614 283.337 294.988 285.948C295.782 286.212 296.576 286.477 297.37 286.741C298.479 285.247 299.587 283.752 300.696 282.257C297.116 280.108 300.776 279.281 301.625 278.571C308.062 273.184 316.719 275.341 320.591 283.109C320.891 283.711 321.499 284.639 321.892 284.605C322.54 284.549 323.558 283.908 323.658 283.371C323.912 282.015 323.742 280.579 323.742 280.333C322.324 279.989 321.638 279.999 321.178 279.682C318.36 277.741 315.594 275.725 312.554 273.478C309.471 272.319 306.643 271.416 303.816 270.512C303.745 270.003 303.674 269.493 303.604 268.984C306.319 267.33 309.035 265.676 312.188 263.942C317.25 264.464 321.875 265.066 326.609 265.682C326.281 264.068 325.96 262.486 325.638 260.905C329.275 267.977 332.101 275.121 328.615 283.188C327.439 285.911 326.667 288.808 325.161 292.015C321.942 296.092 320.718 299.694 324.379 303.657C324.962 304.288 324.068 306.282 323.856 307.646C322.931 307.831 322.005 308.016 320.68 308.563C320.104 308.937 319.928 308.949 319.631 308.703C319.171 307.59 318.831 306.735 318.491 305.881C318.007 306.461 317.522 307.041 317.037 307.622C317.916 308.097 318.796 308.573 319.818 309.356C324.031 312.743 328.06 315.88 332.22 318.834C332.781 319.232 333.997 318.708 334.91 318.612C334.759 322.118 335.707 326.193 334.243 329.018C330.524 336.196 325.725 342.814 320.9 349.657C320.303 349.671 320.165 349.684 320.028 349.697C320.14 349.946 320.252 350.194 320.365 350.443C320.365 350.443 320.133 350.456 319.802 350.356C319.273 350.589 319.075 350.921 318.877 351.252C318.877 351.252 318.863 351.134 318.624 351.189C318.222 351.581 318.058 351.916 317.894 352.251C317.894 352.251 318.354 352.408 317.992 352.365C310.997 355.883 304.363 359.444 297.586 363.058C297.532 363.07 297.623 363.03 298.151 363.042C300.058 363.094 301.528 363.095 302.997 363.095C300.943 363.837 298.889 364.579 296.003 365.274C275.017 365.602 257.231 359.901 243.078 344.55C244.618 344.644 246.159 344.738 246.93 344.785C246.288 342.85 245.617 340.828 245.279 338.921C256.074 344.691 267.122 348.483 279.017 349.664C293.071 351.059 306.84 349.996 318.614 341.577C324.262 337.539 328.899 331.83 333.201 326.265C335.668 323.074 333.995 321.164 329.889 321.507C324.587 321.951 319.293 322.718 313.985 322.818C287.53 323.316 261.081 323.407 234.847 319.491C237.817 318.548 240.713 317.983 242.495 317.636C242.162 315.273 241.845 313.015 241.527 310.757C241.527 310.757 241.736 310.963 241.891 310.9C242.304 310.613 242.562 310.388 242.821 310.164C247.348 308.475 251.875 306.786 256.403 305.097C256.355 304.819 256.307 304.54 256.26 304.262C252.222 305.142 248.208 306.163 244.138 306.849C241.62 307.274 239.016 307.188 235.858 306.939C234.365 306.438 233.463 306.33 232.561 306.222C232.561 306.222 232.745 306.063 232.558 305.815C224.828 302.715 224.379 297.544 228.628 290.981C222.383 290.098 220.407 286.126 219.7 281.487C219.007 276.936 218.895 272.297 218.527 267.696ZM307.896 300.253C306.985 296.098 304.38 295.859 299.734 299.504C293.303 304.548 293.465 304.269 286.474 300.21C283.366 298.406 279.504 297.703 275.884 297.101C274.844 296.929 272.73 298.676 272.442 299.866C272.182 300.94 273.54 302.659 274.576 303.705C275.296 304.431 276.68 304.499 278.549 305.084C280.607 304.341 282.666 303.598 285.459 302.979C290.076 305.731 294.698 308.312 300.122 303.829C303.461 305.185 305.798 303.858 307.896 300.253ZM302.495 293.845C307.228 294.931 311.29 296.687 310.826 303.445C312.971 298.366 311.889 295.039 306.926 292.962C294.733 287.858 282.404 288.137 270.326 293.527C268.982 294.126 268.206 295.999 267.434 296.952C271.107 295.763 274.722 294.594 278.863 294.203C285.904 294.782 292.942 295.406 299.991 295.848C300.532 295.882 301.154 294.626 302.495 293.845ZM231.996 285.995C232.528 288.341 233.061 290.687 233.878 294.281C235.716 291.896 237.18 290.709 237.704 289.196C240.119 282.219 245.221 278.328 252.136 277.237C259.023 276.151 265.301 277.531 268.977 284.58C269.363 285.319 271.098 285.354 272.207 285.716C271.972 284.7 272.084 283.24 271.445 282.742C267.972 280.037 264.315 277.57 260.225 274.477C256.367 273.641 252.527 272.712 248.648 271.994C244.576 271.24 243.357 269.176 246.311 266.437C249.581 263.405 253.886 261.489 258.615 258.967C260.961 258.172 264.646 261.084 265.632 256.62C266.475 252.802 264.894 250.157 261.124 248.922C260.186 248.614 259.253 248.154 258.292 248.077C248.013 247.251 239.24 250.434 232.74 258.563C230.726 261.082 229.719 264.405 228.251 267.361C228.73 267.75 229.209 268.14 229.688 268.529C231.67 267.3 233.653 266.071 236.181 265.245C235.724 266.722 235.129 268.173 234.836 269.682C233.829 274.861 232.927 280.06 231.996 285.995Z" fill="#EFCF8C"/>
<path d="M547.489 491.322C546.043 484.922 544.678 478.936 543.313 472.951C542.782 473.039 542.252 473.127 541.722 473.214C542.021 475.802 542.534 478.385 542.586 480.978C542.959 499.788 543.175 518.602 543.609 537.411C543.683 540.607 542.599 541.773 539.483 542.137C534.382 542.732 529.335 543.79 523.914 544.713C523.914 507.012 523.914 469.339 523.914 431.272C531.539 429.896 539.294 428.496 547.796 426.962C552.6 447.202 557.36 467.259 562.435 488.64C562.435 466.496 562.435 445.711 562.435 424.426C568.75 423.27 575.348 422.061 582.474 420.756C582.474 423.092 582.474 424.893 582.474 426.693C582.474 460.668 582.427 494.642 582.538 528.616C582.551 532.577 582.257 534.923 577.253 535.278C570.884 535.729 564.604 537.451 557.915 538.695C554.412 522.794 550.991 507.264 547.489 491.322Z" fill="#FBFBFB"/>
<path d="M510.548 491C510.336 503.146 510.991 514.887 509.72 526.416C507.515 546.415 484.344 560.305 465.197 553.78C455.638 550.522 453.049 542.399 452.764 533.559C452.329 520.081 452.548 506.582 452.528 493.092C452.505 476.951 452.523 460.81 452.523 444.146C459.748 442.811 466.846 441.499 474.619 440.063C474.619 441.968 474.619 443.687 474.619 445.406C474.62 471.388 474.618 497.37 474.624 523.353C474.624 525.184 474.685 527.016 474.712 528.847C474.76 532.125 475.758 535.166 479.329 535.54C483.038 535.928 486.319 534.256 487.391 530.335C488.125 527.649 488.426 524.767 488.434 521.971C488.508 495.49 488.561 469.007 488.389 442.526C488.363 438.586 489.323 436.989 493.45 436.617C499.02 436.116 504.513 434.764 510.548 433.687C510.548 452.928 510.548 471.714 510.548 491Z" fill="#FCFCFC"/>
<path d="M425.555 482.799C422.861 483.27 420.593 483.669 417.769 484.165C417.769 480.846 417.908 477.871 417.729 474.917C417.554 472.037 417.057 469.017 413.413 468.596C410.02 468.204 407.059 469.277 405.761 472.767C405.083 474.59 404.554 476.595 404.546 478.52C404.453 499.168 404.454 519.816 404.493 540.464C404.5 544.036 404.721 547.753 409.469 548.294C413.512 548.754 417.167 546.044 417.511 541.176C418.048 533.589 417.653 525.936 417.653 517.724C415.758 517.865 413.518 518.031 410.99 518.219C410.99 512.296 410.99 506.373 410.99 500.175C420.395 498.475 429.814 496.773 439.652 494.995C439.652 516.479 439.652 537.833 439.652 559.818C434.714 560.715 429.438 561.673 423.843 562.689C423.377 560.34 422.996 558.419 422.571 556.277C420.18 558.904 417.854 561.459 416.195 563.282C413.447 559.329 410.997 555.599 408.272 552.083C407.798 551.471 405.828 551.248 405.114 551.713C398.943 555.733 393.827 551.719 388.357 549.863C383.53 548.225 382.052 545.098 382.149 540.106C382.542 519.97 381.828 499.785 382.94 479.696C384.377 453.747 410.045 446.135 425.475 450.004C433.934 452.125 438.762 458.722 439.61 468.908C439.911 472.532 439.658 476.202 439.658 480.21C435.052 481.057 430.517 481.892 425.555 482.799Z" fill="#FBFBFC"/>
<path d="M304.846 233.961C310.271 236.704 315.944 239.151 318.634 245.429C310.834 237.069 301.553 236.953 292.207 241.119C283.544 244.979 275.377 244.869 266.737 241.524C262.592 239.918 258.116 239.077 253.727 238.207C240.166 235.518 230.512 241.89 222.988 252.242C214.991 263.247 211.234 275.655 212.487 289.328C213.322 298.446 217.946 304.85 226.769 307.9C229.275 308.766 231.833 309.486 235.397 310.593C231.177 312.586 227.725 314.29 224.212 315.858C220.244 317.63 218.46 320.249 220.403 324.571C227.756 340.93 237.805 354.712 255.021 362.05C269.925 368.403 285.13 371.162 301.439 366.835C298.616 370.785 292.492 374.124 286.709 373.811C279.287 373.41 271.915 372.077 263.924 370.748C246.096 363.896 230.309 354.944 216.48 342.76C209.974 337.029 205.396 330.091 204.704 321.071C204.314 315.973 203.573 310.902 203.195 305.803C203.131 304.945 204.109 304.009 204.638 303.33C204.819 303.793 204.969 304.035 205.119 304.277C205.02 303.825 204.921 303.373 204.833 302.501C203.284 294.992 201.775 287.891 200.158 280.816C196.141 263.246 199.804 248.333 214.968 237.281C217.06 235.757 218.939 233.941 220.916 232.26C221.616 231.864 222.317 231.468 223.618 230.996C224.679 230.561 225.14 230.203 225.601 229.845C227.363 228.971 229.054 227.819 230.918 227.343C231.823 227.111 233.051 228.146 234.394 229.156C234.859 229.947 235.062 230.188 235.266 230.43C235.467 230.018 235.668 229.605 235.87 229.193C235.87 229.193 235.838 229.134 236.211 229.075C239.305 227.519 241.92 225.761 244.775 224.591C247.97 223.282 251.519 222.811 254.662 221.411C257.623 220.091 260.69 218.277 258.848 213.994C259.275 212.608 259.703 211.223 260.33 209.19C261.767 210.374 262.841 211.258 263.678 212.605C264.808 216.313 266.174 219.557 267.541 222.802C267.887 222.648 268.234 222.495 268.58 222.341C268.641 221.196 268.701 220.051 268.762 218.907C269.504 220.09 270.247 221.274 271.685 223.567C271.969 220.148 272.152 217.944 272.438 214.509C276.385 218.703 279.827 222.36 282.471 225.17C284.932 225.345 286.732 225.474 288.539 226.168C288.54 227.421 288.351 228.648 288.553 228.716C293.959 230.537 299.406 232.239 304.846 233.961Z" fill="#B78532"/>
<path d="M483.475 359.013C483.475 354.56 483.475 350.605 483.475 346.475C489.679 345.482 495.356 344.574 501.523 343.587C504.874 357.649 508.111 371.232 511.349 384.815C511.688 384.816 512.028 384.816 512.368 384.817C512.536 384.018 512.863 383.217 512.848 382.422C512.609 369.878 512.368 357.334 512.018 344.793C511.95 342.37 512.595 341.186 515.217 340.878C519.151 340.416 523.034 339.511 527.408 338.709C527.408 348.082 527.408 356.723 527.408 365.364C527.408 382.863 527.314 400.364 527.477 417.862C527.515 421.905 527.132 424.379 522.078 424.413C517.85 424.44 513.631 425.774 509.105 426.584C505.496 410.294 501.958 394.327 498.42 378.36C498.235 378.378 498.049 378.397 497.864 378.415C497.864 394.988 497.864 411.561 497.864 428.587C493.388 429.42 488.745 430.284 483.475 431.265C483.475 407.063 483.475 383.287 483.475 359.013Z" fill="#F9F9F9"/>
<path d="M631.644 334.011C631.644 357.811 631.644 381.114 631.644 404.677C625.512 405.78 619.695 406.826 613.395 407.959C610.022 392.784 606.694 377.817 603.367 362.85C603.033 362.873 602.7 362.897 602.366 362.92C602.366 378.454 602.366 393.989 602.366 409.916C597.741 410.739 593.051 411.573 587.98 412.475C587.98 384.369 587.98 356.63 587.98 328.174C592.244 327.193 596.904 326.071 601.588 325.06C604.81 324.364 606.116 325.836 606.798 329.051C609.311 340.893 612.136 352.67 614.896 364.46C615.016 364.975 615.655 365.369 616.513 366.341C616.513 356.893 616.519 348.165 616.51 339.436C616.505 334.938 616.217 330.417 616.607 325.954C616.727 324.572 618.438 322.591 619.8 322.199C623.418 321.155 627.243 320.827 631.644 320.106C631.644 324.678 631.644 329.096 631.644 334.011Z" fill="#FBFBFC"/>
<path d="M473.68 405.942C474.991 414.736 476.276 423.09 477.671 432.163C472.197 433.209 466.778 434.244 460.795 435.387C459.951 428.778 459.161 422.597 458.306 415.905C454.932 416.357 451.725 416.787 448.017 417.284C447.241 423.981 446.465 430.687 445.631 437.891C440.487 438.892 435.197 439.922 429.205 441.089C430.478 431.42 431.763 422.128 432.915 412.82C434.909 396.699 436.797 380.565 438.795 364.444C439.106 361.933 439.453 359.341 440.383 357.027C440.896 355.751 442.517 354.394 443.875 354.073C450.843 352.423 457.887 351.098 465.299 349.578C468.135 368.556 470.895 387.028 473.68 405.942ZM454.061 375.217C453.853 373.838 453.644 372.459 453.435 371.081C453.099 371.075 452.763 371.07 452.427 371.064C451.407 381.578 450.387 392.092 449.332 402.977C452.252 402.365 454.319 401.931 456.93 401.384C456.029 392.814 455.148 384.443 454.061 375.217Z" fill="#FBFBFB"/>
<path d="M645.002 402.28C642.478 402.687 640.376 402.972 637.682 403.337C639.205 392.279 640.686 381.647 642.132 371.011C644.349 354.701 646.612 338.396 648.693 322.068C649.174 318.296 650.526 316.284 654.635 315.813C660.867 315.099 667.023 313.723 673.897 312.507C677.98 339.96 682.024 367.157 686.136 394.804C680.35 395.904 674.91 396.937 669.234 398.016C668.399 391.326 667.602 384.931 666.771 378.27C663.142 378.952 659.932 379.555 656.393 380.219C655.675 386.995 654.961 393.728 654.225 400.668C651.25 401.172 648.337 401.665 645.002 402.28ZM659.113 351.833C658.683 356.234 658.253 360.636 657.782 365.45C660.727 364.879 663.082 364.422 665.71 363.912C664.392 354.064 663.149 344.768 661.905 335.473C661.54 335.508 661.175 335.543 660.81 335.579C660.293 340.697 659.776 345.815 659.113 351.833Z" fill="#FBFBFB"/>
<path d="M578.687 392.019C579.72 399.299 580.722 406.137 581.807 413.544C576.258 414.576 570.83 415.584 565.032 416.662C564.166 409.972 563.342 403.603 562.478 396.934C558.85 397.617 555.504 398.247 552.119 398.885C551.571 404.289 550.88 409.395 550.593 414.524C550.401 417.959 549.716 420.018 545.551 420.136C541.693 420.245 537.866 421.457 533.396 422.303C537.415 393.057 541.341 364.477 545.323 335.499C553.127 334.075 561.112 332.617 569.493 331.088C571.892 347.084 574.274 362.999 576.671 378.911C577.307 383.137 577.993 387.355 578.687 392.019ZM554.785 371.51C554.38 375.587 553.976 379.664 553.511 384.349C556.417 383.642 558.701 383.087 561.191 382.481C559.947 370.98 558.745 359.851 557.542 348.723C557.361 348.746 557.181 348.769 557.001 348.791C556.276 356.058 555.552 363.326 554.785 371.51Z" fill="#FBFBFB"/>
<path d="M382.243 428C382.243 420.167 382.001 412.821 382.386 405.509C382.507 403.218 383.806 400.49 385.458 398.874C390.003 394.428 392.343 386.035 390.102 379.853C390.046 379.699 389.929 379.565 389.881 379.408C387.177 370.548 387.178 370.547 382.216 365.679C387.626 366.274 392.08 366.778 396.538 367.25C399.022 367.513 401.512 367.724 404 367.954C408.953 368.412 412.708 367.192 412.894 361.102C418.034 361.755 420.972 364.766 422.509 368.962C425.959 378.386 423.267 390.829 416.338 398.005C423.486 400.74 425.065 406.502 424.788 413.304C424.632 417.131 424.937 420.991 424.583 424.795C423.785 433.395 419.989 440.447 411.416 443.042C402.133 445.851 392.502 447.513 382.243 449.853C382.243 442.027 382.243 435.263 382.243 428ZM408.609 423.124C408.609 420.474 408.678 417.823 408.596 415.176C408.356 407.443 405.422 405.527 398.264 408.249C398.264 416.661 398.264 425.027 398.264 433.405C406.126 432.849 407.191 431.852 408.609 423.124ZM404.781 374.081C402.046 374.234 398.257 372.773 398.02 377.385C397.724 383.16 397.949 388.961 397.949 395.259C401.859 394.518 406.178 394.48 406.981 390.56C408.066 385.261 409.709 379.468 404.781 374.081Z" fill="#FCFCFC"/>
<path d="M226.922 488.877C254.754 529.068 291.834 555.963 339.947 566.381C354.988 569.637 370.366 571.47 385.884 569.117C388.495 568.721 391.2 568.949 394.322 568.966C383.869 571.348 373.047 574.405 362.017 575.725C352.705 576.838 343.153 575.935 333.118 575.533C332.162 574.827 331.828 574.289 331.423 574.228C309.51 570.93 288.982 563.593 269.52 553.115C265.003 550.684 260.455 548.31 255.921 545.909C253.617 541.592 252.198 536.337 248.825 533.152C241.886 526.599 233.902 521.152 225.902 514.833C225.11 514.353 224.765 514.291 224.42 514.229C224.42 514.229 224.067 514.132 223.74 513.782C222.843 513.292 222.274 513.151 221.704 513.011C221.704 513.011 221.722 512.999 221.588 512.689C219.774 511.392 218.195 510.123 216.392 509.476C212.997 508.259 212.274 506.243 213.825 503.158C213.825 503.158 213.826 503.065 214.163 503.083C214.862 502.66 215.226 502.219 215.589 501.778C216.081 500.81 216.573 499.843 217.113 498.781C217.914 499.624 218.69 500.439 219.958 500.937C221.532 498.066 222.613 495.512 223.71 492.976C223.726 492.995 223.678 492.997 223.974 492.844C224.416 492.277 224.562 491.864 224.807 491.176C225.578 490.226 226.25 489.552 226.922 488.877Z" fill="#DB9907"/>
<path d="M233.76 189.947C234.247 189.384 234.733 188.82 235.741 188.094C236.429 187.632 236.596 187.333 236.762 187.034C236.883 186.72 237.081 186.465 237.826 186.106C238.458 185.659 238.62 185.374 238.783 185.09C238.783 185.09 238.737 185.008 239.015 184.981C239.603 184.773 239.772 184.504 239.8 184.147C246.643 178.526 253.421 172.823 260.389 167.361C261.584 166.424 263.588 166.519 265.83 166.553C268.466 167.335 270.491 167.701 272.515 168.068C272.179 171.576 271.844 175.083 271.067 178.396C270.626 176.879 270.626 175.557 270.626 174.234C269.277 174.97 268.447 175.795 268.441 176.626C268.388 183.858 268.438 191.092 268.62 198.322C268.634 198.88 269.884 199.407 270.559 199.948C271.369 203.245 272.178 206.542 273.163 210.555C271.334 209.821 270.249 209.387 269.072 208.915C268.757 209.76 268.457 210.566 268.131 211.444C264.812 208.849 261.706 206.42 258.211 203.686C257.251 206.696 256.453 209.198 255.576 211.949C254.03 210.265 252.838 208.966 251.427 207.429C246.464 216.245 238.364 220.216 229.964 223.943C223.013 227.027 216.267 230.572 208.834 233.804C208.539 232.472 208.561 231.079 209.185 230.051C215.56 219.551 222.037 209.112 228.475 198.65C230.254 195.76 231.999 192.848 233.76 189.947ZM239.418 206.165C237.44 209.545 235.461 212.926 233.483 216.306C233.893 216.511 234.302 216.717 234.712 216.922C242.104 205.823 249.496 194.724 256.887 183.626C256.437 183.308 255.987 182.99 255.537 182.672C250.287 190.294 245.037 197.916 239.418 206.165Z" fill="#FAE801"/>
<path d="M161.107 460.653C163.377 454.612 167.346 450.189 173.41 447.778C176.097 446.709 178.184 447.166 179.629 449.954C180.998 452.598 182.477 455.21 184.169 457.656C186.278 460.704 188.194 463.644 185.989 467.887C190.18 465.806 194.358 463.7 198.567 461.654C200.797 460.57 203.044 459.509 205.341 458.579C212.753 455.581 213.887 456.276 215.594 464.828C213.195 465.116 210.805 465.402 207.297 465.822C214.187 468.499 219.959 470.742 225.571 472.922C221.344 481.565 217.534 489.355 213.18 497.447C196.456 497.293 188.162 487.18 182.836 472.84C176.763 478.401 171.528 475.584 166.099 471.932C161.892 469.102 161.428 465.001 161.107 460.653Z" fill="#FBFBFC"/>
<path d="M220.522 615.451C220.242 619.023 219.962 622.594 219.365 626.496C218.436 627.214 217.712 627.497 217.233 628.009C216.361 628.942 215.635 630.011 214.848 631.023C211.732 629.415 210.785 627.06 212.514 623.05C212.13 615.011 211.291 607.758 211.186 600.494C211.111 595.259 206.822 589.584 211.07 586.152C210.832 581.597 210.007 578.259 210.63 575.218C212.057 568.252 213.981 561.365 216.094 554.568C218.455 546.971 221.082 539.446 223.899 532.006C226.792 524.363 228.255 523.998 235.591 527.98C237.169 528.837 238.858 529.492 240.496 530.24C242.008 531.488 243.47 532.802 245.041 533.97C247.554 535.836 247.705 537.839 244.976 540.113C242.841 540.994 240.936 541.523 239.91 542.773C229.377 555.603 223.864 570.992 218.066 586.226C217.332 587.375 216.598 588.525 215.905 589.611C217.647 590.605 219.171 591.475 220.335 592.703C219.587 593.489 218.836 593.943 218.864 594.343C219.36 601.383 219.951 608.417 220.522 615.451Z" fill="#BE8B36"/>
<path d="M184.624 338.911C185.016 349.87 185.409 360.828 185.81 372.206C180.667 372.384 178.53 373.89 178.796 379.424C179.096 385.681 177.174 390.126 170.919 393.051C166.371 393.078 166.3 389.884 165.818 387.458C162.445 370.475 163.155 353.468 165.783 336.46C166.305 333.082 168.28 333.214 170.765 334.147C170.898 334.343 170.99 334.392 171.082 334.441C170.962 334.294 170.843 334.147 170.725 333.637C170.445 331.781 170.163 330.288 170.089 329.891C174.716 332.762 179.67 335.837 184.624 338.911Z" fill="#DB9907"/>
<path d="M220.547 232.182C218.939 233.941 217.06 235.757 214.968 237.281C199.804 248.333 196.141 263.246 200.158 280.816C201.776 287.891 203.285 294.992 204.778 302.547C204.713 303.013 204.606 303.109 204.606 303.109C204.11 304.009 203.131 304.945 203.195 305.803C203.574 310.902 204.314 315.973 204.705 321.07C205.396 330.091 209.974 337.029 216.48 342.76C230.309 354.944 246.096 363.896 263.567 370.61C255.18 368.082 246.164 366.123 238.027 362.295C228.187 357.666 218.68 352.037 209.799 345.751C202.261 340.416 197.513 332.955 199.571 322.671C200.335 318.853 199.694 314.754 199.694 310.783C199.151 310.783 198.608 310.783 198.065 310.783C197.934 312.013 197.803 313.243 197.356 314.514C196.347 311.125 195.653 307.695 194.875 303.842C196.114 304.459 196.834 304.818 197.655 305.415C197.968 305.666 198.181 305.679 198.394 305.692C198.293 305.341 198.191 304.99 198.043 304.271C196.746 300.715 195.497 297.528 194.006 293.725C195.786 294.505 197.106 295.083 198.425 295.661C198.764 295.284 199.103 294.906 199.442 294.529C198.224 293.133 197.007 291.737 195.789 290.341C194.272 285.508 192.33 280.756 191.377 275.814C190.658 272.09 190.874 268.088 191.249 264.266C192.988 246.509 205.767 238.543 220.547 232.182Z" fill="#694110"/>
<path d="M196.531 424.44C200.05 434.246 203.364 443.804 206.725 453.736C201.486 456.633 196.199 459.157 190.531 461.862C187.733 457.191 185.366 452.665 182.411 448.562C181.024 446.636 178.506 445.525 176.078 443.597C172.786 435.985 171.143 428.653 172.63 420.896C172.63 420.896 172.731 420.95 172.942 420.874C173.317 420.485 173.48 420.174 173.642 419.862C177.394 417.19 181.145 414.518 184.455 412.161C188.594 416.356 192.459 420.274 196.531 424.44Z" fill="#DB9907"/>
<path d="M355.586 374.876C358.497 369.833 361.408 364.79 364.304 359.771C367.974 362.181 368.897 367.015 365.82 370.975C362.609 375.106 362.935 380.032 365.602 384.428C367.576 387.682 368.448 391.605 369.81 395.227C370.081 394.912 370.855 394.013 371.623 393.119C379.37 398.623 378.379 403.318 368.31 410.121C368.537 411.947 369.212 413.618 368.824 414.987C367.745 418.794 366.412 422.556 364.834 426.186C362.479 431.604 361.006 432.299 355.621 429.841C352.906 428.602 350.7 426.251 348.075 423.688C348.069 419.044 347.639 414.96 348.587 411.225C349.819 406.368 351.608 406.05 356.017 408.506C357.046 409.079 358.234 409.368 358.675 409.535C358.675 403.788 358.734 398.227 358.638 392.668C358.611 391.088 358.697 388.752 357.769 388.067C352.6 384.251 353.511 379.724 355.586 374.876Z" fill="#FBFBFB"/>
<path d="M197.555 305.177C196.835 304.818 196.114 304.46 194.875 303.843C195.654 307.695 196.347 311.125 197.224 314.889C196.787 318.303 196.517 321.509 195.456 324.428C194.154 328.01 191.69 330.77 187.412 330.836C183.138 330.902 179.301 329.633 177.557 325.447C175.681 320.946 172.716 319.286 167.863 318.481C156.813 316.648 151.734 310.514 152.897 299.408C153.653 292.187 155.931 284.777 159.208 278.302C161.106 274.551 166.334 272.484 170.459 270.114C172.474 271.828 174.095 273.087 175.266 274.285C173.622 274.134 172.427 274.043 170.947 273.852C170.07 273.823 169.477 273.894 168.46 274.077C167.468 274.814 166.9 275.44 166.332 276.065C167.147 276.135 167.963 276.206 168.695 276.601C162.204 284.574 158.643 293.15 160.056 303.691C160.879 310.931 163.378 315.006 168.765 314.852C176.641 314.627 181.445 316.527 182.102 325.247C182.203 326.594 185.591 328.797 187.236 328.613C188.89 328.428 191.131 325.978 191.601 324.134C192.994 318.668 191.203 313.81 187.714 309.307C186.431 307.651 185.474 304.592 186.11 302.789C189.812 292.306 186.202 284.029 179.518 276.377C183.822 279.489 187.781 282.752 191.73 286.006C191.72 285.996 191.704 285.976 191.699 286.217C191.804 286.734 191.915 287.011 192.025 287.287C192.173 286.937 192.321 286.587 192.586 286.128C192.704 286.02 192.939 285.805 192.939 285.805C193.689 287.19 194.438 288.576 195.488 290.152C197.007 291.737 198.224 293.133 199.442 294.529C199.103 294.907 198.764 295.284 198.425 295.661C197.106 295.083 195.786 294.505 194.006 293.725C195.497 297.528 196.746 300.715 197.909 304.404C197.821 304.906 197.555 305.177 197.555 305.177ZM162.992 280.353C163.374 279.481 163.757 278.609 164.521 276.866C159.228 280.564 156.998 286.362 158.123 290.739C159.465 287.794 161.005 284.412 162.992 280.353Z" fill="#E8C888"/>
<path d="M214.913 631.36C215.635 630.011 216.361 628.942 217.233 628.009C217.711 627.497 218.435 627.214 219.298 626.934C221.544 629.142 223.54 631.244 225.373 633.86C226.431 638.133 227.651 641.892 228.872 645.651C226.467 646.127 224.062 646.604 220.776 647.019C215.063 646.97 210.232 646.998 205.4 646.996C198.789 646.992 192.369 646.737 185.808 649.257C171.195 654.87 168.501 649.155 169.777 637.416C169.794 637.252 169.769 637.083 169.764 636.916C170.449 635.937 171.134 634.958 172.368 634.17C177.084 636.188 181.264 637.984 185.409 639.856C186.925 640.54 188.505 641.844 188.699 638.757C189.448 639.49 190.196 640.223 191.335 641.34C191.95 641.74 192.176 641.756 192.402 641.773C192.341 641.361 192.28 640.95 192.219 640.538C191.185 638.218 190.15 635.897 188.871 633.029C190.98 633.193 193.076 633.357 195.268 633.847C195.214 634.248 195.007 634.288 194.935 634.409C194.871 634.516 194.938 634.845 194.981 634.852C201.828 635.909 208.669 637.022 215.54 637.895C216.457 638.012 217.528 636.913 218.666 636C218.41 635.423 218.014 635.225 217.672 635.035C217.726 635.043 217.713 635.151 217.713 635.151C216.802 634 215.89 632.849 214.913 631.36Z" fill="#EFCF8C"/>
<path d="M158.792 423.223C155.356 425.369 153.732 430.593 148.039 428.759C148.694 425.955 149.068 423.154 150.668 421.712C158.55 414.603 166.615 407.675 174.939 401.093C177.342 399.192 180.819 398.651 184.485 397.222C184.974 395.499 185.857 392.661 186.579 389.782C187.685 385.37 189.89 383.866 193.95 386.752C201.185 396.921 203.759 409.354 200.777 420.804C194.147 419.925 192.452 414.302 190.081 408.961C192.251 409.726 194.422 410.491 196.568 411.247C195.348 405.355 192.111 403.6 187.254 406.218C186.091 406.845 184.985 407.575 183.098 408.159C171.947 409.16 165.614 416.571 158.792 423.223Z" fill="#BE8B36"/>
<path d="M240.446 529.898C238.857 529.492 237.168 528.837 235.589 527.98C228.254 523.998 226.791 524.363 223.897 532.006C221.08 539.446 218.453 546.971 216.092 554.568C213.979 561.365 212.055 568.252 210.628 575.218C210.005 578.259 210.83 581.597 211.069 586.152C206.82 589.584 211.109 595.259 211.185 600.494C211.29 607.758 212.128 615.01 212.528 622.736C211.547 619.982 210.537 616.792 209.864 613.533C208.292 605.91 206.807 598.267 205.457 590.602C205.114 588.651 205.406 586.588 204.878 584.816C204.395 582.71 203.1 580.408 203.554 578.527C208.138 559.504 213.001 540.548 217.809 521.579C218.171 520.148 218.707 518.761 219.349 516.778C227.681 519.209 234.325 523.886 240.446 529.898Z" fill="#673F0F"/>
<path d="M333.12 437.552C331.474 443.757 329.828 449.963 328.028 456.748C321.2 454.165 315.632 452.176 310.213 449.845C309.595 449.579 309.807 447.388 310.205 446.268C312.266 445.506 314.563 444.901 315.119 443.57C319.595 432.854 323.744 422.001 328.256 410.961C331.247 403.494 333.975 396.256 336.703 389.019C337.34 390.756 338.619 392.54 338.496 394.223C338.08 399.959 337.17 405.659 335.815 411.818C334.057 420.517 332.926 428.771 331.863 437.033C331.848 437.15 332.682 437.377 333.12 437.552Z" fill="#3D3D3C"/>
<path d="M170.722 334C168.278 333.214 166.303 333.082 165.781 336.46C163.153 353.468 162.444 370.475 165.817 387.458C166.299 389.883 166.37 393.078 170.605 393.181C167.451 396.422 163.891 399.591 159.677 403.342C155.899 375.18 158.176 348.329 163.244 321.268C168.407 322.144 172.531 322.486 175.144 327.728C176.57 330.589 180.982 331.962 184.396 334.483C184.708 336.269 184.67 337.578 184.632 338.888C184.632 338.888 184.635 338.905 184.629 338.908C179.669 335.837 174.714 332.762 170.087 329.89C170.162 330.288 170.443 331.781 170.723 333.637C170.722 334 170.722 334 170.722 334Z" fill="#A25E15"/>
<path d="M355.674 641.147C356.415 643.849 357.156 646.551 357.494 649.873C352.272 650.851 347.374 651.939 342.65 651.429C330.419 650.108 319.93 641.147 306.839 642.896C306.379 642.958 304.959 640.539 305.139 639.471C305.354 638.193 306.811 637.124 307.731 635.964C309.107 635.547 310.484 635.129 312.438 635.007C314.502 635.879 315.987 636.943 317.475 636.946C322.395 636.957 327.317 636.584 332.238 636.359C331.708 638.176 331.177 639.993 330.647 641.81C330.89 641.985 331.133 642.16 331.376 642.334C333.467 640.133 335.559 637.932 338.206 635.935C339.481 636.405 340.359 637.079 340.894 636.871C345.539 635.067 349.018 637.102 352.373 639.982C353.016 640.535 354.084 640.591 354.957 640.876C354.957 640.876 354.836 640.9 354.787 641.098C354.894 641.595 355.05 641.894 355.207 642.194C355.363 641.845 355.518 641.496 355.674 641.147Z" fill="#F1D18E"/>
<path d="M364.272 335.003C362.9 341.731 361.527 348.459 359.995 355.967C358.029 354.377 356.862 353.434 355.303 352.173C352.22 361.842 349.227 371.231 345.925 381.591C343.225 379.48 340.98 377.723 338.748 375.226C343.407 360.868 348.052 347.251 352.761 333.447C356.82 333.996 360.546 334.499 364.272 335.003Z" fill="#3D3D3C"/>
<path d="M367.892 279.862C371.147 279.862 374.403 279.862 378.974 279.862C377.95 285.315 377.159 290.162 376.113 294.954C374.4 302.801 372.325 310.573 370.809 318.455C370.194 321.657 368.693 322.385 366.045 321.561C362.925 320.591 359.895 319.335 357.016 317.615C358.449 313.508 359.902 310.046 360.895 306.457C363.34 297.624 365.573 288.731 367.892 279.862Z" fill="#535253"/>
<path d="M250.788 382.912C249.897 382.43 249.006 381.947 247.946 380.853C246.886 379.106 246.08 377.889 245.086 376.851C242.517 374.167 242.094 371.762 245.741 369.685C252.133 371.471 258.435 373.776 264.941 374.915C273.248 376.368 281.719 376.88 290.638 377.855C287.856 382.882 283.143 385.809 277.467 387.248C269.079 389.373 260.956 387.97 252.753 384.145C251.885 383.351 251.337 383.131 250.788 382.912Z" fill="#BE8B36"/>
<path d="M193.919 386.405C189.889 383.866 187.684 385.37 186.578 389.782C185.857 392.661 184.973 395.499 184.484 397.222C180.818 398.651 177.341 399.192 174.938 401.093C166.614 407.675 158.549 414.603 150.667 421.712C149.067 423.154 148.693 425.955 147.773 428.52C147.441 429.15 147.091 429.389 146.265 429.837C141.115 428.709 142.785 432.503 142.95 434.081C143.967 443.754 148.667 451.84 154.586 459.289C155.202 460.064 156.47 460.32 157.435 460.817C156.515 463.781 154.868 463.41 153.049 461.707C145.207 454.366 140.018 445.878 138.418 434.818C137.633 429.389 139.378 426.539 142.815 423.509C154.131 413.534 165.371 403.472 176.798 393.627C177.875 392.7 180.067 393.069 181.902 392.814C183.856 388.855 186.11 384.289 189.019 378.394C191.304 381.989 192.597 384.023 193.919 386.405Z" fill="#673F0F"/>
<path d="M233.422 190.019C231.999 192.848 230.253 195.759 228.475 198.65C222.036 209.112 215.559 219.551 209.185 230.051C208.561 231.079 208.538 232.471 208.495 233.906C199.347 239.86 191.42 246.833 188.321 258.611C186.778 259.978 185.661 260.908 184.169 262.151C183.882 260.584 183.714 259.67 183.547 258.756C191.09 240.614 202.262 224.747 214.755 209.793C220.498 202.919 226.953 196.64 233.422 190.019Z" fill="#D59607"/>
<path d="M241.167 310.751C241.846 313.015 242.163 315.273 242.496 317.637C240.715 317.984 237.819 318.548 234.414 319.54C232.196 319.967 230.488 319.967 227.266 319.967C229.227 323.374 230.065 325.965 231.798 327.616C235.958 331.581 240.537 335.105 244.948 338.806C245.618 340.828 246.289 342.85 246.931 344.785C246.16 344.738 244.62 344.644 243.079 344.55C257.232 359.901 275.018 365.602 295.645 365.384C269.697 368.636 247.72 360.894 231.574 338.575C231.617 338.104 231.907 337.805 231.907 337.805C232.705 337.896 233.503 337.988 234.728 338.127C231.173 334.018 227.621 330.466 224.734 326.437C221.074 321.328 221.939 319.199 227.971 317.859C231.488 317.077 235.162 317.006 239.326 316.555C237.476 315.776 235.969 315.142 233.883 314.265C236.444 312.963 238.624 311.854 241.167 310.751ZM235.932 338.476L236.19 338.561C236.19 338.561 236.12 338.374 235.932 338.476Z" fill="#B68A42"/>
<path d="M312.511 615.564C312.224 619.276 311.936 622.988 311.007 626.835C308.013 629.162 306.508 626.433 304.611 625.98C304.689 625.521 304.766 625.061 305.234 623.987C305.625 621.39 305.7 619.405 305.608 617.427C305.333 611.474 304.905 605.527 304.71 599.572C304.598 596.153 305.729 593.408 309.528 592.436C310.546 592.175 311.403 591.285 312.117 590.824C309.78 587.506 307.301 584.58 305.577 581.261C304.826 579.815 305.623 577.564 305.716 575.679C308.979 576.109 312.292 576.323 315.485 577.057C317.169 577.444 319.747 578.537 319.95 579.666C320.233 581.234 318.663 583.136 317.667 585.394C317.763 586.24 317.957 587.938 317.534 589.841C316.206 590.817 314.964 591.526 314.866 592.368C313.968 600.087 313.269 607.829 312.511 615.564Z" fill="#BE8B36"/>
<path d="M304.311 626.118C306.508 626.434 308.014 629.163 310.689 627.093C310.059 630.199 305.195 630.759 306.224 634.94C306.309 635.287 306.768 635.542 307.392 635.901C306.811 637.124 305.354 638.193 305.139 639.471C304.959 640.539 306.379 642.958 306.84 642.896C319.93 641.147 330.419 650.108 342.65 651.429C347.374 651.939 352.272 650.851 357.414 650.288C356.726 654.637 352.807 654.947 349.528 654.765C343.61 654.436 337.722 653.356 331.855 652.385C321.241 650.629 310.672 648.595 300.045 646.927C293.37 645.879 291.794 643.524 295.396 637.764C297.345 634.646 300.586 632.336 303.771 630.568C303.851 629.131 303.931 627.693 304.311 626.118Z" fill="#9E6A23"/>
<path d="M255.677 546.23C260.455 548.31 265.003 550.684 269.52 553.116C288.982 563.593 309.51 570.93 331.423 574.228C331.828 574.289 332.162 574.827 332.654 575.495C314.433 573.706 296.342 570.271 279.076 563.587C268.176 559.368 257.598 554.321 245.973 549.251C250.133 548.064 252.783 547.308 255.677 546.23Z" fill="#A25E15"/>
<path d="M160.827 460.873C161.428 465 161.891 469.102 166.099 471.931C171.528 475.583 176.763 478.401 182.836 472.839C188.161 487.179 196.455 497.293 213.043 497.775C211.592 498.803 209.689 500.725 207.881 500.638C202.252 500.368 196.695 499.243 192.389 495.022C191.798 494.443 191.078 493.965 190.594 493.31C184.506 485.087 176.511 480.092 166.712 476.844C156.907 473.595 156.439 470.923 160.827 460.873Z" fill="#888887"/>
<path d="M310.851 428.87C313.284 431.167 312.572 433.539 311.14 436.039C309.593 438.738 308.2 441.525 306.025 445.619C300.908 428.233 295.95 412.239 296.458 395.202C296.976 395.017 297.495 394.832 298.013 394.647C299.708 398.433 301.54 402.167 302.99 406.044C303.309 406.897 302.13 408.232 301.929 409.395C301.834 409.944 302.42 410.611 302.723 411.878C305.022 418.184 307.297 423.836 309.571 429.488C309.997 429.282 310.424 429.076 310.851 428.87Z" fill="#AE7F32"/>
<path d="M377.606 350.909C377.672 350.398 377.738 349.887 378.398 349.189C380.222 349.001 381.45 349.001 382.679 349.001C382.681 348.724 382.684 348.446 382.686 348.169C381.275 347.996 379.864 347.823 378.453 347.65C378.537 346.951 378.621 346.252 379.21 345.3C389.562 346.305 399.41 347.565 409.258 348.824C409.054 352.083 409.158 355.409 408.476 358.564C408.244 359.636 405.961 361.096 404.735 360.99C395.263 360.173 385.82 359.015 375.615 357.879C376.208 355.527 376.587 354.021 377.62 352.256C387.698 353.411 397.123 354.825 406.548 356.238C406.624 355.693 406.701 355.149 406.778 354.604C397.054 353.373 387.33 352.141 377.606 350.909ZM396.813 351.375C396.93 351.409 397.047 351.444 397.164 351.478C397.049 351.291 396.934 351.104 396.26 350.368C392.728 349.802 389.197 349.237 385.665 348.671C385.606 349.16 385.547 349.648 385.487 350.137C389.21 350.452 392.932 350.767 396.813 351.375ZM378.634 354.69C378.537 354.648 378.44 354.606 378.343 354.564C378.46 354.718 378.576 354.872 379.168 355.621C385.697 356.749 392.225 357.877 398.754 359.005C398.832 358.468 398.911 357.931 398.989 357.394C392.242 356.587 385.494 355.779 378.634 354.69Z" fill="#595858"/>
<path d="M360.715 642.968C358.75 639.161 356.785 635.353 354.598 631.115C355.896 630.198 357.476 629.081 359.546 628.258C365.613 632.551 371.191 636.55 376.666 640.476C376.614 640.653 376.792 640.044 376.97 639.435C377.698 642.76 378.426 646.085 378.506 649.708C370.869 650.766 365.397 647.829 360.715 642.968Z" fill="#F1D18E"/>
<path d="M168.153 630.371C168.14 631.49 168.434 632.725 168.061 633.707C166.354 638.207 164.46 642.636 162.155 647.51C151.288 651.536 146.275 645.526 148.71 635.339C148.746 635.187 148.691 635.014 148.679 634.85C149.79 633.195 150.901 631.54 152.54 630.151C157.143 630.931 161.209 631.557 165.3 631.869C166.207 631.939 167.2 630.899 168.153 630.371Z" fill="#EFCF8C"/>
<path d="M355.246 374.914C353.512 379.725 352.601 384.251 357.77 388.067C358.698 388.753 358.612 391.088 358.639 392.668C358.735 398.227 358.677 403.788 358.677 409.535C358.235 409.369 357.048 409.079 356.018 408.506C351.61 406.05 349.82 406.368 348.588 411.225C347.64 414.96 348.07 419.044 347.859 423.427C345.626 420.715 343.146 417.693 341.371 414.303C340.78 413.175 341.494 410.649 342.484 409.545C345.35 406.351 348.659 403.555 352.048 400.363C353.026 401.83 353.954 403.221 354.882 404.613C355.286 404.491 355.689 404.369 356.093 404.247C354.629 398.88 353.792 393.231 351.534 388.222C348.927 382.439 350.139 378.453 355.246 374.914Z" fill="#888887"/>
<path d="M345.04 445.251C343.164 448.204 341.289 451.158 339.413 454.111C336.809 443.378 332.837 432.884 343.182 423.441C345.098 427.966 351.882 427.444 350.809 433.525C350.023 432.704 349.708 432.019 348.973 430.418C346.791 435.453 344.953 439.614 343.264 443.834C343.183 444.037 344.418 444.766 345.04 445.251Z" fill="#AE7F32"/>
<path d="M169.439 637.079C169.768 637.083 169.793 637.252 169.775 637.416C168.5 649.155 171.194 654.87 185.807 649.257C192.367 646.737 198.788 646.992 205.399 646.996C210.23 646.998 215.062 646.97 220.361 647.052C207.218 649.748 193.646 652.593 179.973 654.819C175.24 655.589 169.079 656.748 166.307 651.655C163.731 646.922 166.168 641.686 169.439 637.079Z" fill="#9E6A23"/>
<path d="M157.542 460.475C156.471 460.32 155.203 460.064 154.588 459.289C148.668 451.84 143.968 443.754 142.952 434.08C142.786 432.503 141.117 428.709 146.116 430.125C148.242 430.964 150.043 431.724 151.794 433.165C150.588 440.231 154.834 449.764 159.736 451.793C162.572 455.458 157.937 457.251 157.542 460.475Z" fill="#BE8B36"/>
<path d="M218.352 586.212C223.863 570.992 229.377 555.603 239.91 542.773C240.936 541.523 242.841 540.994 244.693 540.289C238.118 553.249 231.259 566.09 224.201 578.821C222.722 581.488 220.511 583.749 218.352 586.212Z" fill="#EEE1CB"/>
<path d="M218.237 267.944C218.895 272.297 219.007 276.936 219.7 281.488C220.407 286.127 222.383 290.098 228.628 290.981C224.378 297.545 224.828 302.716 232.469 305.901C220.358 304.749 213.918 296.329 215.084 282.686C215.501 277.809 216.962 273.021 218.237 267.944Z" fill="#B68A42"/>
<path d="M305.479 575.431C305.624 577.564 304.827 579.815 305.578 581.261C307.302 584.58 309.781 587.506 312.118 590.824C311.404 591.285 310.547 592.175 309.529 592.436C305.73 593.408 304.599 596.153 304.711 599.572C304.906 605.527 305.334 611.474 305.609 617.427C305.701 619.405 305.626 621.39 305.367 623.663C304.032 619.424 302.773 614.929 301.94 610.356C301.289 606.786 300.56 603.049 300.966 599.513C301.449 595.298 301.513 589.971 307.795 590.733C303.817 585.095 300.01 579.7 296.203 574.306C296.587 573.87 296.97 573.433 297.354 572.997C299.983 573.726 302.612 574.455 305.479 575.431Z" fill="#673F0F"/>
<path d="M213.413 503.13C212.276 506.243 212.999 508.259 216.394 509.476C218.196 510.123 219.776 511.392 221.587 512.7C220.584 512.96 219.434 512.997 218.316 512.824C211.903 511.831 210.4 513.77 212.655 520.606C212.585 521.112 212.277 521.363 212.277 521.363C207.078 515.267 201.878 509.171 196.699 503.101C202.637 503.101 207.818 503.101 213.413 503.13Z" fill="#A25E15"/>
<path d="M272.606 167.698C270.489 167.701 268.465 167.334 266.198 166.761C265.394 161.926 264.832 157.297 264.137 151.575C267.691 153.704 270.057 155.121 272.422 156.538C272.617 156.243 272.812 155.948 273.007 155.653C271.159 153.952 269.311 152.25 267.304 150.402C272.367 148.001 275.038 152.138 278.007 154.357C278.541 154.756 276.387 158.808 275.415 161.149C274.552 163.226 273.608 165.27 272.606 167.698Z" fill="#94BE25"/>
<path d="M172.28 420.926C171.143 428.653 172.786 435.984 175.718 443.517C173.566 444.479 171.352 445.073 168.552 445.823C166.958 440.064 165.247 434.383 163.916 428.614C163.68 427.593 164.743 425.869 165.703 425.062C167.594 423.473 169.835 422.301 172.28 420.926Z" fill="#A25E15"/>
<path d="M369.528 338.209C376.885 338.237 377.534 339.066 375.826 346.209C375.674 346.846 375.643 347.513 375.49 348.151C373.307 357.238 373.305 357.237 364.174 355.335C365.849 349.273 367.689 343.741 369.528 338.209Z" fill="#3D3D3C"/>
<path d="M364.161 334.626C360.547 334.5 356.821 333.996 352.761 333.448C348.053 347.251 343.408 360.869 338.745 374.889C338.406 373.189 337.316 370.846 337.887 369.022C341.734 356.736 345.93 344.559 350.026 332.351C350.232 331.74 350.567 331.171 351.172 329.875C355.468 331.334 359.758 332.792 364.161 334.626Z" fill="#888887"/>
<path d="M335.699 278.054C334.576 275.971 333.453 273.888 332.019 271.228C335.003 271.228 337.073 271.228 339.278 271.228C341.836 277.119 340.884 282.958 338.853 288.793C336.918 294.353 335.031 299.93 332.717 306.686C332.308 303.484 332.022 301.237 331.812 298.234C333.485 293.052 335.354 288.699 336.543 284.168C337.025 282.33 336.025 280.104 335.699 278.054Z" fill="#E8C888"/>
<path d="M148.376 635.047C148.69 635.014 148.745 635.188 148.709 635.34C146.274 645.526 151.287 651.537 162.073 647.896C162.469 649.313 162.469 650.764 162.469 653.234C157.789 653.234 153.273 653.371 148.769 653.195C144.322 653.02 143.1 649.994 144.041 646.306C145.008 642.522 146.7 638.923 148.376 635.047Z" fill="#9E6A23"/>
<path d="M135.656 639.839C137.112 636.541 138.155 632.964 140.142 630.026C142.093 627.142 145.133 625.602 148.135 627.884C145.902 633.783 143.768 639.421 141.187 645.408C139.046 643.784 137.351 641.811 135.656 639.839Z" fill="#E8C888"/>
<path d="M327.993 411.191C323.745 422.002 319.596 432.855 315.119 443.57C314.563 444.902 312.266 445.506 310.547 446.175C315.608 434.094 320.898 422.284 326.682 410.343C327.448 410.537 327.72 410.864 327.993 411.191Z" fill="#979797"/>
<path d="M381.75 642.049C379.704 637.576 377.658 633.102 375.062 627.426C377.123 628.017 379.01 628.055 380.197 628.985C385.389 633.059 389.142 638.055 388.473 645.527C386.222 645.299 384.441 644.66 382.661 644.021C382.661 644.021 382.72 644.001 382.735 643.731C382.417 642.99 382.083 642.519 381.75 642.049Z" fill="#E8C888"/>
<path d="M335.081 359.364C336.076 359.929 336.747 360.319 337.419 360.709C337.315 361.038 337.212 361.367 337.108 361.697C335.285 361.152 333.463 360.607 331.519 360.025C330.55 361.564 329.602 363.068 328.655 364.572C328.434 364.494 328.213 364.416 327.992 364.338C328.214 363.444 328.327 362.506 328.675 361.665C333.364 350.302 338.213 339.003 342.731 327.574C344.314 323.572 346.402 323.741 349.464 325.735C345.262 324.701 344.343 327.485 343.283 330.471C340.445 338.461 337.34 346.358 334.565 354.369C334.075 355.784 334.665 357.573 335.081 359.364Z" fill="#787878"/>
<path d="M258.509 214.075C260.69 218.277 257.622 220.092 254.661 221.411C251.518 222.812 247.97 223.283 244.775 224.592C241.919 225.761 239.305 227.519 236.244 229.073C237.389 226.74 238.438 223.859 240.455 222.073C243.966 218.964 248.075 216.53 252.824 214.117C251.326 216.155 249.828 218.192 248.33 220.23C248.551 220.561 248.771 220.892 248.992 221.222C252.052 218.867 255.111 216.512 258.509 214.075Z" fill="#734912"/>
<path d="M245.505 369.448C242.094 371.762 242.517 374.167 245.086 376.851C246.08 377.889 246.886 379.106 247.785 380.593C239.627 377.544 234.858 370.623 229.668 364.139C229.894 363.701 230.12 363.263 230.346 362.825C235.32 364.954 240.294 367.083 245.505 369.448Z" fill="#734912"/>
<path d="M373.77 367.068C374.118 367.303 374.537 367.804 374.802 367.732C379.955 366.341 380.385 366.763 379.298 372.191C379.21 372.632 379.369 373.122 379.971 373.688C380.528 373.788 380.3 374.014 380.102 373.57C378.991 373.945 378.077 374.764 377.164 375.583C377.682 375.766 378.199 375.948 378.675 376.456C377.391 377.854 376.149 378.925 374.906 379.997C374.856 379.841 374.829 379.56 374.753 379.546C367.785 378.253 367.797 378.263 372.208 371.584C373.09 370.247 373.837 368.82 374.24 367.233C373.834 367.031 373.77 367.068 373.77 367.068Z" fill="#F3EAD7"/>
<path d="M367.646 279.598C365.574 288.731 363.34 297.623 360.896 306.457C359.902 310.046 358.45 313.508 356.907 317.29C356.297 316.582 355.516 315.477 355.749 314.661C359.056 303.083 362.491 291.541 365.962 280.011C366.064 279.672 366.904 279.555 367.646 279.598Z" fill="#979797"/>
<path d="M374.733 380.342C376.148 378.926 377.39 377.854 378.96 376.274C379.624 375.181 379.962 374.598 380.3 374.014C380.3 374.014 380.528 373.788 380.521 373.838C381.774 373.14 383.032 372.393 384.291 371.646C384.556 373.212 385.391 374.969 384.949 376.301C384.308 378.234 382.743 379.86 381.951 382.071C382.143 382.671 382.135 382.828 382.088 382.518C380.474 383.339 379.076 384.638 377.697 385.907C377.714 385.876 377.652 385.839 377.652 385.839C376.05 385.416 374.447 384.993 372.844 384.569C373.416 383.275 373.989 381.981 374.733 380.342Z" fill="#F8F1E3"/>
<path d="M335.398 278.204C336.025 280.103 337.025 282.33 336.543 284.167C335.354 288.699 333.485 293.052 331.741 297.825C331.101 298.744 330.611 299.315 329.768 300.296C329.102 298.662 327.683 296.931 328.07 295.839C330.166 289.924 332.709 284.166 335.398 278.204Z" fill="#C0974C"/>
<path d="M185.043 338.908C184.671 337.578 184.709 336.269 184.769 334.566C188.368 333.546 191.945 332.92 195.337 332.325C197.889 336.28 200.802 340.793 203.787 345.65C200.451 343.401 197.043 340.808 192.852 337.62C191.246 337.904 188.35 338.416 185.043 338.908Z" fill="#D59607"/>
<path d="M340.631 352.844C339.561 354.911 338.592 356.596 337.622 358.282C336.911 357.934 336.199 357.585 335.488 357.237C339.037 347.65 342.585 338.063 346.133 328.477C346.627 328.604 347.12 328.732 347.614 328.86C346.374 336.979 342.893 344.563 340.631 352.844Z" fill="#1E1B15"/>
<path d="M377.7 265.961C376.909 268.522 376.167 270.683 375.426 272.843C374.874 272.648 374.322 272.453 373.77 272.258C376.934 260.405 379.715 248.438 383.685 236.822C384.277 236.992 384.868 237.161 385.46 237.331C382.89 246.741 380.32 256.15 377.7 265.961Z" fill="#787878"/>
<path d="M159.092 423.168C165.614 416.571 171.947 409.16 182.748 408.221C175.232 413.293 167.312 418.203 159.092 423.168Z" fill="#F8F1E3"/>
<path d="M192.171 376.791C192.21 375.65 192.21 374.507 192.21 373.339C199.891 375.548 202.849 380.391 205.332 395.061C202.123 389.685 199.157 384.715 195.862 379.963C195.533 380.181 195.568 380.105 195.776 379.689C194.734 378.465 193.484 377.656 192.234 376.848C192.234 376.848 192.132 376.789 192.171 376.791Z" fill="#FFFEF5"/>
<path d="M175.717 274.345C174.096 273.086 172.475 271.828 170.848 270.196C170.842 269.823 171.008 269.704 171.562 269.873C173.38 269.996 174.645 269.951 175.909 269.905C183.813 271.346 188.16 276.719 191.391 284.183C191.703 285.15 191.721 285.582 191.739 286.015C187.781 282.752 183.822 279.488 179.519 276.36C179.173 276.494 179.161 276.461 179.201 276.106C178.606 275.519 177.972 275.285 177.107 275.025C176.489 274.781 176.103 274.563 175.717 274.345Z" fill="#F8F1E3"/>
<path d="M320.079 251.706C319.186 252.03 318.05 252.903 317.418 252.625C310.622 249.64 303.906 246.474 297.66 243.584C299.793 243.194 303.128 242.583 306.913 241.864C307.363 241.756 307.497 241.759 307.743 242.118C308.686 242.613 309.383 242.749 310.08 242.885C310.527 243.073 310.975 243.261 311.675 243.919C312.278 244.524 312.628 244.659 312.978 244.793C312.978 244.793 312.868 244.827 312.954 245.087C313.599 245.605 314.16 245.862 314.72 246.12C315.034 246.167 315.286 246.318 315.63 247.056C316.105 247.694 316.427 247.849 316.749 248.005C316.749 248.005 316.72 248.008 316.74 248.276C317.077 248.703 317.393 248.862 317.71 249.021C317.71 249.021 317.708 249.002 317.684 249.335C318.155 249.897 318.649 250.127 319.143 250.357C319.143 250.357 319.308 250.491 319.214 250.861C319.431 251.387 319.742 251.543 320.053 251.699C320.053 251.699 320.07 251.72 320.079 251.706Z" fill="#FFFEF5"/>
<path d="M360.689 643.391C365.397 647.829 370.869 650.766 378.3 650.001C377.819 650.947 377.04 652.169 375.927 652.766C374.996 653.266 373.675 653.067 372.524 653.123C362.322 653.615 362.321 653.611 360.689 643.391Z" fill="#9E6A23"/>
<path d="M376.896 639.101C376.792 640.044 376.614 640.653 376.666 640.476C371.191 636.55 365.613 632.551 359.908 628.224C365.79 625.891 370.747 627.683 373.663 632.934C374.736 634.867 375.77 636.822 376.896 639.101Z" fill="#F8F1E3"/>
<path d="M270.63 199.488C269.883 199.407 268.633 198.88 268.619 198.322C268.437 191.092 268.387 183.858 268.44 176.626C268.446 175.795 269.276 174.97 270.625 174.234C270.625 175.557 270.625 176.879 270.727 178.602C270.787 185.678 270.744 192.353 270.63 199.488Z" fill="#FFFEF5"/>
<path d="M303.345 363.045C301.528 363.095 300.058 363.094 298.155 363.047C297.722 363 297.73 363.006 297.73 363.006C304.364 359.445 310.998 355.883 317.957 352.605C313.419 356.257 308.555 359.625 303.345 363.045Z" fill="#F8F1E3"/>
<path d="M409.253 348.468C399.409 347.564 389.562 346.305 379.334 344.969C379.588 344.359 380.308 343.289 380.845 343.374C390.326 344.87 399.785 346.506 409.253 348.468Z" fill="#888887"/>
<path d="M355.244 360.728C355.687 359.494 356.014 358.602 356.836 356.356C358.205 358.777 359.729 360.259 359.764 361.775C359.848 365.408 356.221 369.941 352.107 371.695C353.194 367.872 354.16 364.472 355.244 360.728Z" fill="#787878"/>
<path d="M354.915 640.509C354.085 640.591 353.016 640.535 352.373 639.982C349.018 637.102 345.54 635.067 340.895 636.871C340.359 637.079 339.482 636.405 338.514 635.797C338.265 635.454 338.308 635.474 338.606 635.528C339.058 635.264 339.212 634.947 339.366 634.629C339.366 634.629 339.584 634.769 339.8 634.731C340.246 634.359 340.477 634.025 340.708 633.691C347.529 629.808 351.018 631.397 354.915 640.509Z" fill="#F8F1E3"/>
<path d="M183.265 258.972C183.714 259.67 183.882 260.585 184.168 262.151C185.661 260.909 186.778 259.978 188.222 258.973C188.094 262.744 187.639 266.589 187.097 271.166C184.196 269.584 181.998 268.385 179.438 266.988C180.714 264.18 181.849 261.684 183.265 258.972Z" fill="#A25E15"/>
<path d="M188.566 638.453C188.504 641.843 186.924 640.54 185.408 639.855C181.263 637.983 177.083 636.187 172.65 634.07C172.383 633.778 172.405 633.806 172.716 633.758C173.248 633.388 173.467 633.065 173.687 632.743C178.483 629.249 181.967 632.466 185.493 635.131C186.601 635.968 187.461 637.135 188.566 638.453Z" fill="#F3EAD7"/>
<path d="M382.304 382.997C382.134 382.828 382.143 382.671 382.295 382.541C383.283 381.773 384.305 380.989 385.327 380.204C385.808 380.261 386.289 380.318 386.77 380.375C386.447 382.127 386.691 384.37 385.686 385.533C383.3 388.295 380.9 392.214 375.896 389.025C376.759 388.039 377.473 387.224 377.919 386.124C377.652 385.839 377.714 385.875 377.928 386.262C379.529 385.432 380.916 384.214 382.304 382.997Z" fill="#EEE1CB"/>
<path d="M159.628 451.457C154.834 449.764 150.588 440.231 151.952 433.459C152.162 433.071 152.334 433.016 152.609 433.427C153.109 434.017 153.333 434.196 153.558 434.375C155.546 439.956 157.533 445.538 159.628 451.457Z" fill="#EEE1CB"/>
<path d="M312.584 615.198C313.27 607.829 313.969 600.087 314.868 592.368C314.966 591.526 316.208 590.817 317.296 590.086C316 598.361 314.328 606.596 312.584 615.198Z" fill="#EEE1CB"/>
<path d="M332.22 636.346C327.318 636.584 322.396 636.956 317.475 636.946C315.988 636.942 314.503 635.879 312.801 634.969C318.625 634.4 324.665 634.163 331.211 634.361C331.892 635.304 332.067 635.814 332.241 636.323C332.241 636.323 332.202 636.333 332.22 636.346Z" fill="#F8F1E3"/>
<path d="M220.605 615.09C219.952 608.416 219.36 601.383 218.864 594.342C218.836 593.943 219.587 593.489 220.386 593.088C224.511 600.339 221.684 607.53 220.605 615.09Z" fill="#EEE1CB"/>
<path d="M324.192 307.781C324.067 306.283 324.961 304.288 324.379 303.658C320.718 299.695 321.941 296.093 324.975 292.311C325.161 292.901 324.985 293.585 324.482 294.829C324.386 296.263 324.617 297.137 324.848 298.011C325.105 298.097 325.276 298.269 325.205 298.933C325.402 299.788 325.756 300.238 326.109 300.687C326.109 300.687 325.879 300.972 325.956 301.108C326.307 301.496 326.582 301.748 326.856 302C328.512 304.841 330.167 307.682 331.738 310.873C331.653 311.223 331.713 311.302 331.713 311.302C329.318 310.173 326.923 309.043 324.192 307.781Z" fill="#F3EAD7"/>
<path d="M401.117 565.094C400.745 563.323 400.7 561.676 400.629 559.615C402.659 559.165 404.716 559.129 406.773 559.093C406.794 561.013 407.351 563.134 406.721 564.81C405.518 568.014 403.4 567.442 401.117 565.094Z" fill="#94BE25"/>
<path d="M168.129 630.373C167.199 630.9 166.207 631.939 165.299 631.87C161.209 631.558 157.142 630.932 152.859 630.037C155.432 628.687 158.213 627.718 161.527 627.131C162.945 627.689 163.831 627.866 164.717 628.043C164.717 628.043 164.708 628.018 164.813 628.278C165.268 628.621 165.618 628.704 165.967 628.786C165.967 628.786 165.864 628.835 165.93 629.078C166.353 629.421 166.71 629.523 167.067 629.625C167.067 629.625 166.754 630 166.908 630.106C167.396 630.259 167.73 630.306 168.065 630.354C168.065 630.354 168.106 630.374 168.129 630.373Z" fill="#F8F1E3"/>
<path d="M328.255 410.962C327.72 410.864 327.447 410.537 326.889 410.064C329.589 403.205 332.574 396.492 335.945 389.466C336.33 389.154 336.707 389.022 336.707 389.022C336.707 389.022 336.72 389.009 336.711 389.014C333.975 396.257 331.246 403.495 328.255 410.962Z" fill="#787878"/>
<path d="M335.251 449.073C335.917 452.705 336.45 455.998 337.029 459.574C330.196 458.447 329.539 453.813 334.432 446.829C334.679 447.516 334.898 448.125 335.251 449.073Z" fill="#535253"/>
<path d="M218.527 636.377C217.527 636.912 216.456 638.011 215.54 637.894C208.669 637.021 201.828 635.908 194.981 634.851C194.937 634.844 194.871 634.515 194.935 634.408C195.006 634.287 195.214 634.247 195.603 634.051C202.865 634.516 209.888 635.103 217.311 635.42C217.713 635.151 217.726 635.042 217.539 635.355C217.744 635.905 218.135 636.141 218.527 636.377Z" fill="#F8F1E3"/>
<path d="M334.838 318.292C333.999 318.709 332.782 319.233 332.221 318.834C328.062 315.88 324.032 312.743 319.839 309.335C319.716 309.006 319.753 308.961 319.753 308.961C319.929 308.949 320.105 308.937 320.543 308.892C326.549 310.227 331.373 313.003 334.838 318.292Z" fill="#F3EAD7"/>
<path d="M310.727 428.526C310.424 429.077 309.998 429.283 309.571 429.489C307.297 423.837 305.023 418.185 302.908 412.131C305.58 417.213 308.092 422.698 310.727 428.526Z" fill="#EEE1CB"/>
<path d="M135.372 640.087C137.351 641.811 139.045 643.783 141.075 645.781C141.625 648.3 141.087 650.123 137.979 649.655C135.379 649.264 133.631 648.081 134.066 645.126C134.304 643.514 134.741 641.931 135.372 640.087Z" fill="#9E6A23"/>
<path d="M333.259 437.142C332.682 437.377 331.848 437.151 331.863 437.034C332.926 428.771 334.057 420.517 335.562 412.118C335.094 420.227 334.246 428.48 333.259 437.142Z" fill="#888887"/>
<path d="M377.523 351.168C387.329 352.141 397.052 353.373 406.776 354.605C406.7 355.149 406.623 355.693 406.546 356.238C397.122 354.825 387.697 353.411 377.831 351.983C377.408 351.787 377.424 351.607 377.523 351.168Z" fill="#888887"/>
<path d="M227.104 488.583C226.251 489.551 225.58 490.226 224.517 491.34C223.977 492.185 223.828 492.591 223.679 492.997C223.679 492.997 223.728 492.995 223.396 493.092C222.418 493.965 221.773 494.742 220.74 495.983C220.74 493.992 220.74 492.739 220.74 491.486C222.163 489.568 223.587 487.651 225.149 485.66C226.638 485.392 227.987 485.199 230.223 484.878C228.839 486.484 228.062 487.387 227.104 488.583Z" fill="#F3EAD7"/>
<path d="M304.718 233.628C299.406 232.239 293.959 230.538 288.553 228.717C288.351 228.649 288.54 227.421 288.755 226.462C294.173 228.558 299.382 230.926 304.718 233.628Z" fill="#EEE1CB"/>
<path d="M345.033 445.231C344.417 444.766 343.182 444.037 343.264 443.834C344.952 439.613 346.79 435.453 348.972 430.418C349.708 432.019 350.023 432.704 350.477 433.675C350.617 433.961 350.662 433.983 350.375 434.159C350.022 435.023 349.957 435.712 349.892 436.401C348.547 438.733 347.202 441.066 345.504 443.834C345.118 444.574 345.084 444.877 345.05 445.181C345.05 445.181 345.028 445.213 345.033 445.231Z" fill="#F3EAD7"/>
<path d="M323.432 461.219C321.417 459.614 319.65 458.269 317.553 456.671C318.549 456.389 319.064 456.048 319.414 456.173C322.969 457.444 326.497 458.791 330.271 460.207C328.397 463.669 326.47 464.942 323.432 461.219Z" fill="#673F0F"/>
<path d="M369.162 338.141C367.689 343.741 365.849 349.273 363.84 355.169C362.587 351.691 365.997 340.07 369.162 338.141Z" fill="#888887"/>
<path d="M387.781 217.139C389.262 217.781 391.33 218.623 391.26 219.206C391.042 221.008 390.136 222.786 389.192 224.394C388.99 224.737 387.234 224.637 386.672 224.169C386.085 223.679 385.739 222.437 385.885 221.633C386.159 220.12 386.863 218.686 387.781 217.139Z" fill="#787878"/>
<path d="M358.504 325.262C355.007 322.306 357.27 321.701 359.635 322.023C362.025 322.348 364.303 323.49 367.085 324.427C364.694 329.132 361.485 325.288 358.504 325.262Z" fill="#3D3D3C"/>
<path d="M373.852 367C372.693 367.386 371.514 367.803 369.854 368.39C369.652 365.478 369.472 362.89 369.252 359.725C373.48 360.904 374.152 363.201 373.632 366.674C373.77 367.068 373.833 367.031 373.852 367Z" fill="#F8F1E3"/>
<path d="M229.159 645.541C227.651 641.892 226.43 638.133 225.486 634.186C228.73 637.248 231.337 640.616 229.159 645.541Z" fill="#EEE1CB"/>
<path d="M268.637 218.602C268.702 220.052 268.641 221.197 268.581 222.342C268.235 222.495 267.888 222.649 267.542 222.802C266.175 219.558 264.809 216.313 263.818 212.943C265.633 214.645 267.072 216.471 268.637 218.602Z" fill="#EEE1CB"/>
<path d="M379.822 392.173C381.479 391.572 382.794 391.062 384.466 390.414C381.107 396.167 378.806 396.95 376.281 393.415C377.369 393.024 378.424 392.644 379.822 392.173Z" fill="#3D3D3C"/>
<path d="M382.6 644.449C384.442 644.66 386.222 645.299 388.368 645.936C387.52 647.015 386.306 648.095 385.093 649.176C384.241 647.743 383.389 646.31 382.6 644.449Z" fill="#9E6A23"/>
<path d="M220.481 491.855C220.74 492.739 220.74 493.992 220.74 495.983C221.773 494.742 222.418 493.966 223.38 493.074C222.615 495.512 221.534 498.066 220.163 500.795C219.989 498.055 220.105 495.14 220.481 491.855Z" fill="#FAE801"/>
<path d="M208.54 349.76C207.566 349.73 206.46 349.403 205.054 349.072C204.754 349.069 204.697 349.176 204.697 349.176C204.692 348.651 204.686 348.125 204.72 347.206C205.975 347.696 207.192 348.579 208.54 349.76Z" fill="#D59607"/>
<path d="M192.416 377.174C193.484 377.657 194.734 378.466 195.816 379.681C194.632 379.224 193.615 378.362 192.416 377.174Z" fill="#FCEA01"/>
<path d="M332.469 636.158C332.066 635.814 331.891 635.305 331.672 634.391C332.419 633.759 333.211 633.532 334.492 633.166C333.674 634.455 333.186 635.224 332.469 636.158Z" fill="#F1D18E"/>
<path d="M378.312 347.965C379.862 347.822 381.273 347.995 382.684 348.169C382.682 348.446 382.68 348.723 382.677 349C381.449 349 380.22 349 378.562 348.984C378.147 348.739 378.16 348.51 378.312 347.965Z" fill="#888887"/>
<path d="M711.957 447.587C711.723 447.203 711.725 446.821 711.754 446.442C711.755 446.431 712.051 446.444 712.209 446.445C712.205 446.827 712.2 447.208 711.957 447.587Z" fill="#0A0A0C"/>
<path d="M175.621 269.699C174.644 269.951 173.38 269.997 171.646 269.929C172.563 269.708 173.948 269.6 175.621 269.699Z" fill="#E8C888"/>
<path d="M534.767 345.416C535 345.798 534.998 346.179 534.969 346.557C534.968 346.567 534.673 346.555 534.516 346.553C534.52 346.173 534.524 345.793 534.767 345.416Z" fill="#08080A"/>
<path d="M324.867 297.626C324.618 297.137 324.388 296.263 324.375 295.17C324.691 295.714 324.788 296.477 324.867 297.626Z" fill="#EFCF8C"/>
<path d="M232.779 306.494C233.465 306.331 234.366 306.438 235.495 306.814C234.813 306.976 233.904 306.87 232.779 306.494Z" fill="#B68A42"/>
<path d="M395.066 569.098C395.521 568.694 396.307 568.325 397.434 568.018C396.982 568.431 396.19 568.782 395.066 569.098Z" fill="#DB9907"/>
<path d="M164.537 627.733C163.831 627.866 162.946 627.689 161.83 627.251C162.519 627.135 163.438 627.279 164.537 627.733Z" fill="#EFCF8C"/>
<path d="M319.04 250.11C318.648 250.127 318.154 249.897 317.674 249.333C318.104 249.287 318.521 249.575 319.04 250.11Z" fill="#EFCF8C"/>
<path d="M326.073 300.357C325.756 300.237 325.403 299.787 325.209 299.119C325.591 299.277 325.814 299.653 326.073 300.357Z" fill="#EFCF8C"/>
<path d="M191.729 286.006C191.721 285.583 191.702 285.15 191.672 284.393C192.055 284.438 192.451 284.809 192.893 285.492C192.939 285.805 192.703 286.02 192.401 286.045C192.099 286.07 191.704 285.977 191.704 285.977C191.704 285.977 191.72 285.997 191.729 286.006Z" fill="#E8C888"/>
<path d="M219.308 264.982C219.478 265.409 219.395 266.041 219.051 266.878C218.878 266.451 218.966 265.82 219.308 264.982Z" fill="#B68A42"/>
<path d="M215.31 501.854C215.227 502.22 214.864 502.661 214.195 503.118C214.27 502.733 214.65 502.331 215.31 501.854Z" fill="#A25E15"/>
<path d="M212.735 520.984C213.102 521.332 213.316 521.807 213.531 522.282C213.191 522.133 212.851 521.984 212.393 521.599C212.276 521.362 212.583 521.112 212.735 520.984Z" fill="#A25E15"/>
<path d="M221.85 513.286C222.274 513.152 222.844 513.292 223.589 513.681C223.174 513.806 222.585 513.683 221.85 513.286Z" fill="#A25E15"/>
<path d="M235.551 229.163C235.668 229.606 235.466 230.018 235.265 230.43C235.062 230.189 234.858 229.947 234.627 229.458C234.81 229.184 235.022 229.158 235.551 229.163Z" fill="#734912"/>
<path d="M225.304 229.856C225.14 230.203 224.679 230.561 223.904 230.873C224.062 230.507 224.535 230.187 225.304 229.856Z" fill="#694110"/>
<path d="M250.889 383.192C251.338 383.132 251.886 383.352 252.511 383.87C252.053 383.936 251.521 383.704 250.889 383.192Z" fill="#734912"/>
<path d="M350.164 436.182C349.957 435.713 350.022 435.024 350.373 434.135C350.585 434.61 350.51 435.286 350.164 436.182Z" fill="#AE7F32"/>
<path d="M314.627 245.818C314.16 245.862 313.599 245.604 312.967 245.031C313.441 244.982 313.988 245.249 314.627 245.818Z" fill="#EFCF8C"/>
<path d="M381.717 642.354C382.083 642.519 382.417 642.99 382.718 643.756C382.351 643.588 382.018 643.124 381.717 642.354Z" fill="#9E6A23"/>
<path d="M355.479 641.031C355.518 641.496 355.362 641.845 355.206 642.194C355.05 641.894 354.893 641.595 354.795 641.037C354.853 640.778 355.284 640.916 355.479 641.031Z" fill="#F8F1E3"/>
<path d="M309.877 242.58C309.382 242.749 308.685 242.613 307.768 242.18C308.256 242.014 308.965 242.144 309.877 242.58Z" fill="#EFCF8C"/>
<path d="M167.977 630.141C167.73 630.306 167.395 630.258 167.066 629.918C167.411 629.547 167.684 629.649 167.977 630.141Z" fill="#EFCF8C"/>
<path d="M317.687 248.742C317.393 248.862 317.077 248.703 316.742 248.262C317.037 248.141 317.35 248.302 317.687 248.742Z" fill="#EFCF8C"/>
<path d="M173.392 419.952C173.481 420.173 173.318 420.485 172.888 420.859C172.794 420.629 172.967 420.336 173.392 419.952Z" fill="#A25E15"/>
<path d="M320.064 251.47C319.742 251.542 319.431 251.386 319.248 250.961C319.7 250.759 319.933 250.942 320.064 251.47Z" fill="#EFCF8C"/>
<path d="M312.887 244.509C312.627 244.659 312.277 244.524 311.82 244.116C312.074 243.97 312.436 244.097 312.887 244.509Z" fill="#EFCF8C"/>
<path d="M339.125 634.653C339.211 634.946 339.057 635.264 338.617 635.508C338.392 635.091 338.577 634.839 339.125 634.653Z" fill="#F1D18E"/>
<path d="M340.425 633.761C340.477 634.025 340.245 634.359 339.693 634.667C339.629 634.371 339.885 634.101 340.425 633.761Z" fill="#F1D18E"/>
<path d="M173.395 632.804C173.468 633.066 173.248 633.388 172.727 633.746C172.651 633.475 172.877 633.17 173.395 632.804Z" fill="#EFCF8C"/>
<path d="M316.71 247.72C316.427 247.849 316.105 247.694 315.729 247.258C316.006 247.129 316.339 247.282 316.71 247.72Z" fill="#EFCF8C"/>
<path d="M336.649 388.819C336.708 389.022 336.331 389.155 336.133 389.174C336.153 389.001 336.371 388.808 336.649 388.819Z" fill="#3D3D3C"/>
<path d="M318.257 352.339C318.058 351.916 318.222 351.581 318.681 351.208C318.858 351.589 318.739 352.008 318.257 352.339Z" fill="#F8F1E3"/>
<path d="M236.486 187.063C236.595 187.333 236.429 187.632 236 187.982C235.895 187.72 236.052 187.406 236.486 187.063Z" fill="#D59607"/>
<path d="M153.619 434.084C153.333 434.195 153.108 434.016 152.695 433.449C152.899 433.305 153.29 433.549 153.619 434.084Z" fill="#BE8B36"/>
<path d="M319.227 351.35C319.076 350.921 319.275 350.589 319.784 350.242C319.922 350.634 319.749 351.041 319.227 351.35Z" fill="#F8F1E3"/>
<path d="M320.513 350.354C320.254 350.195 320.142 349.946 320.029 349.698C320.167 349.684 320.304 349.671 320.599 349.795C320.757 349.933 320.66 350.264 320.513 350.354Z" fill="#F8F1E3"/>
<path d="M345.291 445.099C345.084 444.878 345.118 444.574 345.377 444.153C345.579 444.363 345.555 444.69 345.291 445.099Z" fill="#AE7F32"/>
<path d="M316.151 455.58C316.068 455.482 316.371 455.447 316.371 455.447C316.371 455.447 316.234 455.679 316.151 455.58Z" fill="#673F0F"/>
<path d="M231.469 338.251C231.434 338.057 231.546 337.717 231.782 337.591C231.906 337.805 231.617 338.104 231.469 338.251Z" fill="#B68A42"/>
<path d="M166.972 629.366C166.71 629.523 166.353 629.421 165.945 629.023C166.222 628.853 166.55 628.98 166.972 629.366Z" fill="#EFCF8C"/>
<path d="M238.521 185.13C238.62 185.374 238.458 185.659 238.047 186C237.952 185.762 238.105 185.466 238.521 185.13Z" fill="#D59607"/>
<path d="M331.604 311.225C331.554 311.228 331.812 311.149 331.812 311.149C331.812 311.149 331.576 311.104 331.645 311.202C331.714 311.301 331.654 311.222 331.604 311.225Z" fill="#F3EAD7"/>
<path d="M224.582 514.443C224.765 514.291 225.11 514.353 225.616 514.635C225.433 514.788 225.088 514.723 224.582 514.443Z" fill="#A25E15"/>
<path d="M242.546 310.1C242.562 310.389 242.303 310.613 241.784 310.801C241.772 310.522 242.022 310.279 242.546 310.1Z" fill="#B68A42"/>
<path d="M326.823 301.724C326.582 301.748 326.308 301.496 326.055 300.953C326.313 300.924 326.551 301.187 326.823 301.724Z" fill="#EFCF8C"/>
<path d="M239.543 184.173C239.77 184.503 239.601 184.772 239.052 185.007C238.97 184.774 239.128 184.486 239.543 184.173Z" fill="#D59607"/>
<path d="M165.864 628.522C165.618 628.704 165.269 628.621 164.801 628.281C165.042 628.102 165.401 628.18 165.864 628.522Z" fill="#EFCF8C"/>
<path d="M304.332 479.422C297.679 466.87 291.859 454.364 290.28 440.424C289.753 435.773 290.197 431.012 291.125 426.364C299.034 445.121 306.468 464.096 314.985 482.573C323.54 501.134 336.64 516.786 349.887 532.251C329.829 518.902 315.889 500.417 304.332 479.422Z" fill="#FFFEF5"/>
<path d="M251.801 489.897C277.061 523.024 310.124 543.975 349.556 555.481C338.834 556.518 298.771 539.356 274.503 517.37C251.234 496.289 234.295 471.134 223.896 441.589C231.779 458.342 240.246 474.8 251.801 489.897Z" fill="#282607"/>
<path d="M204.709 349.106C206.322 362.781 207.318 376.544 209.832 390.023C212.321 403.366 216.342 416.424 218.8 429.922C217.97 427.691 217.065 425.485 216.321 423.226C209.137 401.405 204.597 379.044 202.911 356.132C202.751 353.967 203.579 351.73 204.323 349.351C204.699 349.176 204.756 349.069 204.709 349.106Z" fill="#282607"/>
<path d="M266.075 393.972C274.157 392.697 281.791 391.406 289.122 390.166C287.842 398.158 269.732 400.816 257.047 392.859C260.777 393.336 263.202 393.646 266.075 393.972Z" fill="#FFFEF5"/>
<path d="M359.379 557.474C369.98 559.138 380.172 560.697 390.364 562.256C390.28 562.834 390.196 563.413 390.111 563.991C378.358 562.326 366.605 560.66 354.852 558.995C354.915 558.325 354.978 557.655 355.041 556.984C356.35 557.113 357.659 557.241 359.379 557.474Z" fill="#282607"/>
<path d="M325.731 561.068C322.397 559.76 319.438 558.576 316.277 557.311C323.016 552.742 323.016 552.742 332.959 560.91C330.675 561.004 328.391 561.097 325.731 561.068Z" fill="#16120F"/>
<path d="M286.702 413.985C288.232 414.306 290.492 414.796 290.621 415.619C290.863 417.158 289.866 418.891 289.385 420.543C288.433 420.201 286.778 420.017 286.658 419.487C286.284 417.83 286.49 416.042 286.702 413.985Z" fill="#FFFEF5"/>
<path d="M245.279 338.921C240.537 335.104 235.957 331.581 231.797 327.616C230.064 325.964 229.226 323.373 227.266 319.966C230.487 319.966 232.195 319.966 234.338 319.918C261.082 323.407 287.531 323.316 313.986 322.818C319.293 322.718 324.587 321.951 329.889 321.507C333.995 321.164 335.668 323.074 333.201 326.265C328.9 331.83 324.262 337.538 318.615 341.577C306.84 349.996 293.071 351.059 279.017 349.663C267.122 348.483 256.074 344.691 245.279 338.921ZM259.536 333.334C272.627 333.83 285.719 334.727 298.807 334.662C305.872 334.627 312.958 333.12 319.978 331.939C323.925 331.274 327.389 329.598 326.666 324.996C319.812 324.996 313.039 325.051 306.267 324.985C288.486 324.813 270.705 324.588 252.107 324.046C246.394 323.476 240.682 322.906 234.97 322.337C234.621 322.689 234.272 323.041 233.923 323.393C235.783 325.577 237.274 329.034 239.573 329.7C245.777 331.496 252.324 332.103 259.536 333.334ZM270.331 338.991C279.823 340.174 289.725 340.075 298.68 342.937C306.141 345.322 311.52 343.713 317.165 339.953C319.539 338.372 321.536 336.227 324.533 333.617C313.944 334.844 304.967 336.409 295.941 336.783C287.018 337.154 278.033 336.526 269.099 335.961C260.252 335.402 251.435 334.376 242.026 333.5C248.28 338.388 254.29 341.765 262.005 339.96C264.405 339.399 266.913 339.302 270.331 338.991ZM298.977 347.072C299.811 346.85 300.645 346.628 301.479 346.405C301.462 345.947 301.444 345.488 301.426 345.029C287.768 342.05 274.067 339.567 259.101 342.295C272.224 347.254 284.921 349.302 298.977 347.072Z" fill="#16120F"/>
<path d="M235.636 264.842C233.654 266.071 231.672 267.3 229.69 268.529C229.21 268.14 228.731 267.75 228.252 267.361C229.72 264.405 230.728 261.082 232.742 258.563C239.241 250.434 248.014 247.251 258.293 248.077C259.254 248.154 260.188 248.614 261.126 248.922C264.895 250.157 266.477 252.802 265.634 256.62C264.647 261.084 260.962 258.172 257.74 258.94C249.307 259.165 242 260.314 235.636 264.842Z" fill="#08080A"/>
<path d="M235.909 265.044C241.999 260.315 249.306 259.165 257.303 259C253.887 261.489 249.582 263.405 246.312 266.438C243.358 269.176 244.577 271.24 248.649 271.994C252.528 272.713 256.368 273.641 260.013 274.765C248.723 273.214 240.74 278.087 234.415 288.493C234.044 285.162 233.867 283.57 233.92 281.966C234.22 281.594 234.289 281.235 234.358 280.875C234.269 280.856 234.181 280.837 234.092 280.818C233.982 281.23 233.872 281.641 233.473 282.189C232.784 283.301 232.385 284.276 231.986 285.252C232.928 280.06 233.829 274.861 234.836 269.682C235.13 268.173 235.725 266.722 235.909 265.044Z" fill="#C0974C"/>
<path d="M325.648 260.938C325.961 262.486 326.282 264.068 326.61 265.682C321.876 265.066 317.251 264.463 311.766 263.857C306.182 265.11 301.458 266.368 296.734 267.626C295.346 266.674 292.773 265.68 292.805 264.779C292.884 262.594 293.535 259.565 295.087 258.444C302.138 253.357 310.019 253.741 317.757 256.731C320.447 257.77 322.707 259.923 325.442 261.281C325.721 260.994 325.656 260.971 325.648 260.938Z" fill="#0A0A0C"/>
<path d="M278.338 293.424C274.723 294.594 271.109 295.763 267.436 296.952C268.208 295.999 268.983 294.126 270.327 293.527C282.406 288.137 294.734 287.858 306.927 292.961C311.89 295.038 312.972 298.366 310.827 303.445C311.291 296.687 307.23 294.931 301.711 293.859C294.21 293.625 287.494 293.376 280.483 293.057C279.617 293.127 279.045 293.268 278.439 293.413C278.405 293.416 278.338 293.424 278.338 293.424Z" fill="#1E1B15"/>
<path d="M231.992 285.624C232.386 284.277 232.785 283.301 233.457 282.169C233.729 282.013 233.691 281.978 233.691 281.978C233.868 283.57 234.045 285.163 234.416 288.493C240.741 278.087 248.723 273.214 260.262 275.037C264.316 277.57 267.974 280.038 271.447 282.743C272.085 283.24 271.974 284.701 272.209 285.717C271.1 285.355 269.364 285.32 268.979 284.58C265.302 277.532 259.024 276.152 252.137 277.238C245.222 278.329 240.121 282.22 237.705 289.197C237.182 290.71 235.718 291.897 233.879 294.282C233.063 290.688 232.53 288.342 231.992 285.624Z" fill="#1E1B15"/>
<path d="M296.754 268.031C301.457 266.368 306.181 265.11 311.328 263.938C309.035 265.676 306.32 267.33 303.604 268.984C303.674 269.493 303.745 270.003 303.816 270.512C306.643 271.416 309.471 272.319 312.106 273.516C305.518 272.857 300.506 275.68 296.192 280.348C295.571 278.466 295.179 277.28 294.787 276.093C295.449 273.541 296.112 270.988 296.754 268.031Z" fill="#C0974C"/>
<path d="M294.772 276.073C295.179 277.28 295.57 278.467 296.192 280.349C300.506 275.681 305.518 272.858 312.361 273.772C315.593 275.725 318.36 277.741 321.178 279.683C321.638 280 322.324 279.989 323.742 280.333C323.742 280.58 323.912 282.016 323.658 283.372C323.558 283.909 322.54 284.549 321.892 284.606C321.499 284.64 320.891 283.712 320.591 283.11C316.719 275.342 308.062 273.185 301.625 278.571C300.776 279.282 297.116 280.108 300.696 282.258C299.587 283.752 298.479 285.247 297.37 286.742C296.576 286.478 295.782 286.213 294.987 285.949C294.613 283.338 294.239 280.727 294.193 277.586C294.617 276.721 294.712 276.385 294.807 276.05C294.807 276.05 294.757 276.052 294.772 276.073Z" fill="#2E2111"/>
<path d="M299.547 303.405C294.698 308.312 290.076 305.731 284.956 302.599C279.648 298.547 277.981 298.347 274.986 301.085C275.911 302.345 276.839 303.603 277.768 304.861C276.681 304.499 275.296 304.431 274.577 303.705C273.54 302.659 272.183 300.94 272.443 299.866C272.73 298.676 274.844 296.929 275.884 297.101C279.504 297.703 283.367 298.406 286.475 300.211C293.465 304.27 293.304 304.548 299.734 299.504C304.381 295.859 306.986 296.098 307.455 300.461C302.753 296.749 301.675 301.508 299.547 303.405Z" fill="#16120F"/>
<path d="M280.776 293.128C287.493 293.377 294.209 293.626 301.332 293.923C301.154 294.627 300.532 295.883 299.991 295.849C292.942 295.407 285.904 294.782 278.6 293.814C278.337 293.425 278.404 293.417 278.723 293.569C279.619 293.523 280.198 293.326 280.776 293.128Z" fill="#F3EAD7"/>
<path d="M278.159 304.973C276.84 303.604 275.912 302.346 274.986 301.086C277.982 298.347 279.649 298.547 284.59 302.537C282.667 303.598 280.608 304.341 278.159 304.973Z" fill="#734912"/>
<path d="M299.836 303.617C301.676 301.508 302.755 296.749 307.299 300.858C305.8 303.858 303.462 305.185 299.836 303.617Z" fill="#734912"/>
<path d="M319.695 309.027C318.796 308.573 317.916 308.098 317.037 307.622C317.522 307.042 318.007 306.461 318.491 305.881C318.831 306.735 319.171 307.59 319.631 308.703C319.752 308.961 319.715 309.006 319.695 309.027Z" fill="#F3EAD7"/>
<path d="M297.718 362.995C297.624 363.03 297.533 363.07 297.586 363.058C297.73 363.006 297.722 363 297.718 362.995Z" fill="#F8F1E3"/>
<path d="M294.555 276.165C294.712 276.385 294.617 276.72 294.284 277.184C294.131 276.968 294.217 276.625 294.555 276.165Z" fill="#C0974C"/>
<path d="M204.767 302.967C204.92 303.373 205.019 303.825 205.117 304.277C204.968 304.035 204.818 303.793 204.637 303.33C204.605 303.109 204.711 303.013 204.767 302.967Z" fill="#694110"/>
<path d="M454.164 375.645C455.148 384.443 456.029 392.814 456.931 401.384C454.319 401.932 452.253 402.365 449.332 402.977C450.388 392.093 451.407 381.579 452.427 371.064C452.763 371.07 453.099 371.075 453.435 371.081C453.644 372.46 453.853 373.838 454.164 375.645Z" fill="#141415"/>
<path d="M659.188 351.383C659.778 345.815 660.294 340.697 660.811 335.579C661.176 335.543 661.541 335.508 661.906 335.473C663.15 344.768 664.394 354.064 665.711 363.912C663.084 364.422 660.728 364.879 657.783 365.45C658.254 360.636 658.684 356.235 659.188 351.383Z" fill="#141415"/>
<path d="M554.807 371.052C555.553 363.326 556.277 356.059 557.001 348.792C557.182 348.769 557.362 348.746 557.542 348.724C558.745 359.852 559.948 370.98 561.191 382.482C558.702 383.087 556.417 383.643 553.512 384.35C553.976 379.664 554.381 375.587 554.807 371.052Z" fill="#101012"/>
<path d="M408.601 423.57C407.193 431.851 406.127 432.848 398.266 433.404C398.266 425.026 398.266 416.66 398.266 408.248C405.423 405.526 408.358 407.442 408.597 415.175C408.679 417.822 408.61 420.474 408.601 423.57Z" fill="#101012"/>
<path d="M405.167 374.265C409.71 379.468 408.066 385.262 406.981 390.56C406.178 394.48 401.859 394.518 397.949 395.259C397.949 388.961 397.724 383.16 398.02 377.385C398.257 372.773 402.046 374.234 405.167 374.265Z" fill="#101012"/>
<path d="M223.975 492.844C223.827 492.591 223.977 492.185 224.417 491.615C224.562 491.865 224.417 492.278 223.975 492.844Z" fill="#FAE801"/>
<path d="M239.602 205.851C245.036 197.915 250.286 190.293 255.536 182.671C255.986 182.989 256.437 183.307 256.887 183.625C249.495 194.724 242.103 205.823 234.711 216.921C234.301 216.716 233.892 216.511 233.482 216.305C235.461 212.925 237.439 209.545 239.602 205.851Z" fill="#282607"/>
<path d="M170.723 334C170.842 334.147 170.962 334.294 171.081 334.441C170.989 334.392 170.898 334.343 170.764 334.147C170.723 334 170.723 334 170.723 334Z" fill="#A25E15"/>
<path d="M197.955 304.772C198.191 304.99 198.292 305.341 198.394 305.693C198.181 305.68 197.968 305.667 197.655 305.415C197.555 305.177 197.821 304.906 197.955 304.772Z" fill="#E8C888"/>
<path d="M160.006 303.33C158.643 293.15 162.203 284.574 169.071 276.277C169.315 275.073 169.099 274.519 168.884 273.965C169.477 273.895 170.069 273.824 170.691 274.235C171.982 275.348 173.227 276.017 174.511 276.603C178.55 278.448 181.4 281.267 182.68 285.806C174.445 285.887 172.192 287.455 170.471 294.434C171.558 293.569 172.292 292.986 173.412 292.345C178.951 291.714 177.84 295.555 177.874 298.315C177.943 303.802 177.935 309.203 184.731 310.996C184.724 310.999 184.728 310.985 184.818 311.267C185.425 311.82 185.942 312.091 186.663 312.651C187.811 316.335 188.933 319.696 189.569 323.147C189.722 323.977 188.255 325.921 187.548 325.913C186.335 325.899 184.568 325.042 184.048 324.022C183.013 321.99 182.416 319.643 182.093 317.362C181.619 314.013 179.802 312.815 176.634 313.027C175.144 313.126 173.642 313.111 172.146 313.075C165.192 312.909 162.301 310.06 161.879 303.029C161.83 302.206 161.686 301.388 161.466 299.585C160.701 301.547 160.354 302.438 160.006 303.33Z" fill="#C0974C"/>
<path d="M160.057 303.691C160.355 302.438 160.702 301.546 161.466 299.585C161.687 301.388 161.831 302.206 161.88 303.029C162.301 310.06 165.193 312.909 172.147 313.075C173.642 313.111 175.145 313.126 176.635 313.026C179.803 312.815 181.619 314.013 182.094 317.362C182.417 319.643 183.014 321.99 184.049 324.022C184.569 325.042 186.336 325.899 187.549 325.913C188.256 325.92 189.723 323.977 189.57 323.147C188.934 319.696 187.812 316.335 186.611 312.338C185.812 311.485 185.27 311.235 184.728 310.984C184.728 310.984 184.725 310.999 184.708 310.624C184.34 307.629 183.712 305.007 183.719 302.387C183.725 299.953 185.144 297.337 184.598 295.135C183.971 292.608 182.365 289.323 180.283 288.399C177.325 287.085 174.202 288.764 173.026 292.402C172.293 292.986 171.559 293.569 170.472 294.433C172.193 287.455 174.445 285.887 182.681 285.806C181.401 281.267 178.551 278.447 174.511 276.603C173.228 276.017 171.983 275.348 170.977 274.334C172.427 274.043 173.622 274.134 175.266 274.285C176.103 274.563 176.49 274.781 177.239 275.297C178.122 275.884 178.641 276.173 179.161 276.461C179.161 276.461 179.173 276.495 179.173 276.512C186.202 284.029 189.812 292.306 186.111 302.789C185.474 304.593 186.432 307.651 187.715 309.307C191.203 313.81 192.995 318.668 191.602 324.134C191.132 325.978 188.89 328.429 187.236 328.614C185.591 328.798 182.203 326.594 182.102 325.247C181.445 316.527 176.641 314.628 168.765 314.853C163.378 315.007 160.88 310.932 160.057 303.691Z" fill="#16120F"/>
<path d="M162.768 280.692C161.004 284.412 159.464 287.794 158.122 290.739C156.997 286.362 159.227 280.564 164.521 276.866C163.756 278.609 163.373 279.481 162.768 280.692Z" fill="#1E1B15"/>
<path d="M168.46 274.077C169.1 274.519 169.315 275.072 169.154 275.951C167.962 276.206 167.147 276.135 166.332 276.065C166.9 275.44 167.468 274.814 168.46 274.077Z" fill="#16120F"/>
<path d="M191.699 286.217C191.704 285.977 192.1 286.07 192.285 286.153C192.322 286.587 192.174 286.937 192.026 287.288C191.915 287.011 191.805 286.734 191.699 286.217Z" fill="#F8F1E3"/>
<path d="M192.047 640.697C192.28 640.95 192.341 641.362 192.402 641.773C192.176 641.756 191.951 641.74 191.633 641.454C191.541 641.185 191.874 640.856 192.047 640.697Z" fill="#060608"/>
<path d="M218.667 635.999C218.137 636.141 217.745 635.905 217.486 635.347C218.015 635.224 218.41 635.423 218.667 635.999Z" fill="#060608"/>
<path d="M236.024 338.425C236.118 338.374 236.189 338.561 236.189 338.561C236.189 338.561 235.931 338.476 236.024 338.425Z" fill="#060608"/>
<path d="M378.745 354.972C385.493 355.779 392.24 356.587 398.988 357.394C398.909 357.931 398.831 358.468 398.752 359.005C392.224 357.877 385.695 356.749 378.943 355.311C378.72 355.001 378.745 354.972 378.745 354.972Z" fill="#888887"/>
<path d="M396.653 351.082C392.931 350.767 389.209 350.452 385.486 350.137C385.546 349.648 385.605 349.16 385.664 348.671C389.196 349.236 392.727 349.802 396.496 350.682C396.733 350.996 396.653 351.082 396.653 351.082Z" fill="#888887"/>
<path d="M378.706 355.013C378.575 354.872 378.458 354.718 378.342 354.563C378.439 354.606 378.536 354.648 378.689 354.831C378.745 354.972 378.72 355.001 378.706 355.013Z" fill="#888887"/>
<path d="M396.776 350.956C396.934 351.103 397.048 351.29 397.163 351.477C397.046 351.443 396.929 351.409 396.733 351.228C396.654 351.082 396.733 350.996 396.776 350.956Z" fill="#888887"/>
<path d="M380.102 373.57C379.963 374.597 379.625 375.181 379.002 375.948C378.199 375.948 377.682 375.766 377.164 375.583C378.077 374.764 378.991 373.946 380.102 373.57Z" fill="#060608"/>
<path d="M382.087 382.518C380.916 384.214 379.529 385.431 377.91 386.293C379.076 384.638 380.474 383.338 382.087 382.518Z" fill="#060608"/>
<path d="M179.199 276.106C178.64 276.172 178.121 275.884 177.469 275.323C177.971 275.285 178.605 275.519 179.199 276.106Z" fill="#E8C888"/>
<path d="M252.925 324.385C270.706 324.589 288.486 324.813 306.267 324.985C313.039 325.051 319.812 324.996 326.667 324.996C327.389 329.599 323.926 331.274 319.978 331.939C312.959 333.12 305.873 334.627 298.808 334.662C285.72 334.728 272.627 333.83 258.942 332.959C257.005 332.022 255.681 331.41 254.316 330.909C250.365 329.459 249.729 327.34 252.925 324.385Z" fill="#FBFBFC"/>
<path d="M269.851 338.993C266.912 339.303 264.404 339.399 262.005 339.961C254.29 341.765 248.28 338.388 242.025 333.501C251.435 334.376 260.252 335.403 269.098 335.962C278.032 336.526 287.018 337.154 295.941 336.784C304.967 336.409 313.944 334.845 324.533 333.618C321.536 336.228 319.538 338.373 317.165 339.954C311.52 343.714 306.141 345.323 298.679 342.938C289.724 340.076 279.823 340.175 269.851 338.993Z" fill="#2E2111"/>
<path d="M298.564 347.141C284.921 349.302 272.225 347.254 259.102 342.295C274.067 339.566 287.769 342.05 301.426 345.029C301.444 345.488 301.462 345.947 301.48 346.405C300.646 346.627 299.812 346.85 298.564 347.141Z" fill="#DF754E"/>
<path d="M252.516 324.215C249.729 327.34 250.365 329.459 254.316 330.91C255.681 331.41 257.005 332.022 258.541 332.883C252.325 332.103 245.777 331.496 239.574 329.7C237.275 329.034 235.783 325.577 233.924 323.393C234.273 323.041 234.621 322.689 234.97 322.337C240.682 322.907 246.395 323.476 252.516 324.215Z" fill="#979797"/>
<path d="M233.746 282.033C233.873 281.641 233.983 281.23 234.093 280.818C234.181 280.837 234.27 280.856 234.358 280.875C234.289 281.235 234.22 281.594 233.921 281.966C233.69 281.977 233.729 282.013 233.746 282.033Z" fill="#1E1B15"/>
<path d="M280.484 293.057C280.199 293.325 279.621 293.523 278.758 293.565C279.045 293.268 279.617 293.127 280.484 293.057Z" fill="#EFCF8C"/>
<path d="M173.412 292.345C174.202 288.764 177.324 287.086 180.282 288.399C182.364 289.323 183.97 292.608 184.597 295.135C185.143 297.338 183.724 299.953 183.718 302.387C183.712 305.007 184.339 307.629 184.714 310.621C177.935 309.203 177.943 303.802 177.874 298.314C177.84 295.555 178.951 291.714 173.412 292.345Z" fill="#694110"/>
<path d="M184.818 311.266C185.27 311.234 185.811 311.485 186.406 312.048C185.942 312.09 185.425 311.819 184.818 311.266Z" fill="#694110"/>
</g>
<defs>
<clipPath id="clip0_1027_2103">
<rect width="800" height="800" fill="white"/>
</clipPath>
</defs>
</svg>
