<svg xmlns="http://www.w3.org/2000/svg" width="213.333" height="213.333" version="1.0" viewBox="0 0 160 160" fill="#000000"><path d="M69.5 1.1C47.1 4.5 28 16 15.4 33.7c-25.5 35.5-17.2 85.7 18.1 110.8 8.2 5.8 14.8 9 25.2 12.1 7.5 2.2 10.7 2.6 21.3 2.6 10.6 0 13.8-.4 21.3-2.6 14-4.2 23.5-9.6 33.6-19.1 24.3-22.8 31.5-59.7 17.5-90.3-7.9-17.4-21.6-31.3-38.7-39.2C101 2 82.3-.9 69.5 1.1zm16 19.8c1.3 3.9 1.8 4.2 9.9 6.6l5.8 1.7 3.3-3.2 3.4-3.3 3.3 2c3.1 1.8 3.3 2.3 3 6.8-.2 4.6 0 5.2 4.5 9.7 4.6 4.7 5 4.9 9.7 4.6 4.6-.3 5.1-.1 6.8 2.9l1.9 3.2-3 3.8c-3 3.7-3 3.9-1.6 7.8.8 2.2 1.4 5 1.5 6.1 0 2.6 1.4 3.8 6.3 5.3 3.5 1.2 3.7 1.5 3.7 5.6s-.2 4.4-3.7 5.6c-4.9 1.5-6.3 2.7-6.3 5.3-.1 1.1-.7 3.9-1.5 6.1-1.4 3.9-1.4 4.1 1.6 7.8l3 3.8-1.9 3.2c-1.7 3-2.2 3.2-6.8 2.9-4.7-.3-5.1-.1-9.7 4.6-4.5 4.5-4.7 5.1-4.5 9.7.3 4.5.1 5-3 6.8l-3.3 2-3.4-3.3-3.3-3.2-4.8 1.6c-2.6.9-5.8 1.6-7 1.6-1.7 0-2.5.9-3.6 4.2-1.4 4.1-1.6 4.3-6 4.6l-4.6.3-1.4-4.3c-1.3-3.8-1.9-4.3-5.4-5-2.1-.3-5.2-1.1-6.8-1.8-2.6-1-3.3-.8-6.7 2l-3.8 3-3.5-2.1c-2-1.2-3.6-2.4-3.6-2.7 0-.4.4-2.4.9-4.5.9-3.6.7-3.9-4.2-8.8-5-4.8-5.3-5-9.8-4.4-4.5.5-4.7.4-6.8-3.1l-2.2-3.7 3.2-3.3 3.1-3.2-1.6-4.8c-2.4-7-2.2-7.4 2.8-7.4h4.3l2.1 5.8c4.3 11.7 12.7 21.1 23.5 26.3 26.7 12.7 57.7-1.9 65.2-30.6 5.4-20.8-5.5-43.5-25.2-52.8-24.9-11.6-54 .5-63.5 26.5L33.7 71h-4.3c-5 0-5.2-.4-2.8-7.4l1.6-4.8-3.1-3.2-3.2-3.3 2.2-3.7c2.1-3.5 2.3-3.6 6.8-3.1 4.5.6 4.8.4 9.8-4.4 4.9-4.9 5.1-5.2 4.2-8.8-.5-2.1-.9-4.1-.9-4.5 0-.3 1.6-1.5 3.6-2.7l3.5-2.1 3.8 3c3.4 2.8 4.1 3 6.7 2 1.6-.7 4.7-1.5 6.8-1.8 3.5-.7 4.1-1.2 5.4-5l1.4-4.3 4.6.3c4.2.3 4.6.6 5.7 3.7zm10.8 24.9c7.7 3.8 14.8 11.1 18.5 19 2.4 5 2.7 6.9 2.7 15.7 0 8.8-.3 10.7-2.7 15.7-3.7 8-10.7 15.2-18.7 19.1-6.1 3-7.2 3.2-16.6 3.1-11.3 0-16.6-1.8-24.3-8.1-5.2-4.2-10.9-12.5-11.8-17.1l-.6-3.2h10.8c9.8 0 11 .2 12.2 2 1.8 3 8.9 6.2 13.7 6.2 9.7 0 16.6-6.5 17.3-16.2.5-7-1.5-11.9-6.5-15.7-6.8-5.2-20.6-3.7-24.5 2.7-1.2 1.8-2.4 2-12.2 2H42.8l.6-3.3C44.9 60.2 55 49 63.6 45.4c6.5-2.8 9.6-3.3 18.1-3 6.8.2 9.2.8 14.6 3.4z"/></svg>