<svg width="23" height="23" viewBox="0 0 23 23" fill="none" xmlns="http://www.w3.org/2000/svg">
<g filter="url(#filter0_d_8635_816891)">
<path d="M11.31 21.12C17.0041 21.12 21.62 16.5041 21.62 10.81C21.62 5.11594 17.0041 0.5 11.31 0.5C5.61594 0.5 1 5.11594 1 10.81C1 16.5041 5.61594 21.12 11.31 21.12Z" fill="black"/>
</g>
<path d="M11.31 21.12C17.0041 21.12 21.62 16.5041 21.62 10.81C21.62 5.11594 17.0041 0.5 11.31 0.5C5.61594 0.5 1 5.11594 1 10.81C1 16.5041 5.61594 21.12 11.31 21.12Z" fill="#F7931A"/>
<path style="mix-blend-mode:soft-light" d="M11.31 21.12C17.0041 21.12 21.62 16.5041 21.62 10.81C21.62 5.11594 17.0041 0.5 11.31 0.5C5.61594 0.5 1 5.11594 1 10.81C1 16.5041 5.61594 21.12 11.31 21.12Z" fill="url(#paint0_linear_8635_816891)"/>
<path d="M11.3101 20.7763C16.8143 20.7763 21.2764 16.3142 21.2764 10.81C21.2764 5.30571 16.8143 0.843628 11.3101 0.843628C5.80583 0.843628 1.34375 5.30571 1.34375 10.81C1.34375 16.3142 5.80583 20.7763 11.3101 20.7763Z" stroke="black" stroke-opacity="0.097"/>
<g filter="url(#filter1_d_8635_816891)">
<path d="M16.2519 9.44912C16.4677 8.00847 15.3701 7.23384 13.8703 6.71697L14.3569 4.76494L13.1692 4.46939L12.695 6.36987C12.3829 6.29151 12.0626 6.21865 11.743 6.1458L12.2207 4.23295L11.033 3.93671L10.5464 5.88805C10.2879 5.82894 10.0336 5.7712 9.78755 5.70934L9.78892 5.70315L8.15032 5.29419L7.83415 6.56301C7.83415 6.56301 8.71599 6.76508 8.69744 6.77746C9.17857 6.89774 9.26517 7.21597 9.25074 7.46891L8.69675 9.69244C8.72974 9.70068 8.77236 9.71306 8.82047 9.73161L8.69469 9.70068L7.918 12.8157C7.85889 12.9614 7.70974 13.1807 7.37294 13.0975C7.38532 13.1147 6.50965 12.8823 6.50965 12.8823L5.91992 14.2419L7.46642 14.6275C7.75373 14.6997 8.03553 14.7753 8.31253 14.8461L7.82109 16.8201L9.00811 17.1156L9.49474 15.1636C9.81916 15.2509 10.134 15.332 10.4419 15.409L9.95663 17.3528L11.1443 17.6483L11.6358 15.6784C13.662 16.062 15.1852 15.9073 15.8265 14.0749C16.3433 12.5999 15.801 11.7482 14.735 11.1936C15.5117 11.0149 16.0959 10.5042 16.2519 9.44912ZM13.537 13.2556C13.1706 14.7313 10.6859 13.9333 9.88034 13.7333L10.5333 11.118C11.3389 11.3194 13.9212 11.7173 13.537 13.2556ZM13.9047 9.42781C13.5699 10.7702 11.5024 10.0877 10.8323 9.92063L11.4234 7.54933C12.0936 7.71635 14.2538 8.02771 13.9047 9.42781Z" fill="black"/>
</g>
<path d="M16.2519 9.44912C16.4677 8.00847 15.3701 7.23384 13.8703 6.71697L14.3569 4.76494L13.1692 4.46939L12.695 6.36987C12.3829 6.29151 12.0626 6.21865 11.743 6.1458L12.2207 4.23295L11.033 3.93671L10.5464 5.88805C10.2879 5.82894 10.0336 5.7712 9.78755 5.70934L9.78892 5.70315L8.15032 5.29419L7.83415 6.56301C7.83415 6.56301 8.71599 6.76508 8.69744 6.77746C9.17857 6.89774 9.26517 7.21597 9.25074 7.46891L8.69675 9.69244C8.72974 9.70068 8.77236 9.71306 8.82047 9.73161L8.69469 9.70068L7.918 12.8157C7.85889 12.9614 7.70974 13.1807 7.37294 13.0975C7.38532 13.1147 6.50965 12.8823 6.50965 12.8823L5.91992 14.2419L7.46642 14.6275C7.75373 14.6997 8.03553 14.7753 8.31253 14.8461L7.82109 16.8201L9.00811 17.1156L9.49474 15.1636C9.81916 15.2509 10.134 15.332 10.4419 15.409L9.95663 17.3528L11.1443 17.6483L11.6358 15.6784C13.662 16.062 15.1852 15.9073 15.8265 14.0749C16.3433 12.5999 15.801 11.7482 14.735 11.1936C15.5117 11.0149 16.0959 10.5042 16.2519 9.44912ZM13.537 13.2556C13.1706 14.7313 10.6859 13.9333 9.88034 13.7333L10.5333 11.118C11.3389 11.3194 13.9212 11.7173 13.537 13.2556ZM13.9047 9.42781C13.5699 10.7702 11.5024 10.0877 10.8323 9.92063L11.4234 7.54933C12.0936 7.71635 14.2538 8.02771 13.9047 9.42781Z" fill="white"/>
<defs>
<filter id="filter0_d_8635_816891" x="0" y="0" width="22.6201" height="22.62" filterUnits="userSpaceOnUse" color-interpolation-filters="sRGB">
<feFlood flood-opacity="0" result="BackgroundImageFix"/>
<feColorMatrix in="SourceAlpha" type="matrix" values="0 0 0 0 0 0 0 0 0 0 0 0 0 0 0 0 0 0 127 0" result="hardAlpha"/>
<feOffset dy="0.5"/>
<feGaussianBlur stdDeviation="0.5"/>
<feComposite in2="hardAlpha" operator="out"/>
<feColorMatrix type="matrix" values="0 0 0 0 0 0 0 0 0 0 0 0 0 0 0 0 0 0 0.199474 0"/>
<feBlend mode="normal" in2="BackgroundImageFix" result="effect1_dropShadow_8635_816891"/>
<feBlend mode="normal" in="SourceGraphic" in2="effect1_dropShadow_8635_816891" result="shape"/>
</filter>
<filter id="filter1_d_8635_816891" x="4.91992" y="3.43671" width="12.3589" height="15.7116" filterUnits="userSpaceOnUse" color-interpolation-filters="sRGB">
<feFlood flood-opacity="0" result="BackgroundImageFix"/>
<feColorMatrix in="SourceAlpha" type="matrix" values="0 0 0 0 0 0 0 0 0 0 0 0 0 0 0 0 0 0 127 0" result="hardAlpha"/>
<feOffset dy="0.5"/>
<feGaussianBlur stdDeviation="0.5"/>
<feColorMatrix type="matrix" values="0 0 0 0 0 0 0 0 0 0 0 0 0 0 0 0 0 0 0.204257 0"/>
<feBlend mode="normal" in2="BackgroundImageFix" result="effect1_dropShadow_8635_816891"/>
<feBlend mode="normal" in="SourceGraphic" in2="effect1_dropShadow_8635_816891" result="shape"/>
</filter>
<linearGradient id="paint0_linear_8635_816891" x1="1032" y1="0.5" x2="1032" y2="2062.5" gradientUnits="userSpaceOnUse">
<stop stop-color="white" stop-opacity="0.5"/>
<stop offset="1" stop-opacity="0.5"/>
</linearGradient>
</defs>
</svg>
