<svg width="21" height="21" viewBox="0 0 21 21" fill="none" xmlns="http://www.w3.org/2000/svg">
<path d="M10.31 0C16.0046 0 20.62 4.61635 20.62 10.31C20.62 16.0046 16.0046 20.62 10.31 20.62C4.61635 20.62 0 16.0041 0 10.31C0 4.61635 4.61635 0 10.31 0Z" fill="#F5AC37"/>
<path d="M10.6899 11.0379H14.6076C14.6911 11.0379 14.7305 11.038 14.7365 10.9285C14.7685 10.5299 14.7685 10.1291 14.7365 9.73006C14.7365 9.65258 14.698 9.62057 14.6141 9.62057H6.81729C6.72079 9.62057 6.69481 9.65258 6.69481 9.74305V10.8899C6.69481 11.0379 6.69481 11.0379 6.84931 11.0379H10.6899ZM14.299 8.2802C14.3102 8.25097 14.3102 8.21896 14.299 8.1902C14.2336 8.04776 14.1561 7.91182 14.0661 7.78424C13.9306 7.56618 13.771 7.36528 13.5892 7.18481C13.5033 7.07578 13.4041 6.97788 13.2927 6.89483C12.735 6.42021 12.072 6.08431 11.3594 5.91543C10.9998 5.8347 10.6324 5.79619 10.264 5.79944H6.80384C6.70734 5.79944 6.69435 5.83795 6.69435 5.92192V8.20922C6.69435 8.30572 6.69435 8.3317 6.81683 8.3317H14.2526C14.2526 8.3317 14.3171 8.31871 14.3301 8.2802H14.2986H14.299ZM14.299 12.3783C14.1895 12.3663 14.0791 12.3663 13.9696 12.3783H6.82379C6.72729 12.3783 6.69481 12.3783 6.69481 12.5073V14.7436C6.69481 14.8466 6.69481 14.8725 6.82379 14.8725H10.123C10.2807 14.8846 10.4385 14.8735 10.593 14.8405C11.0718 14.8062 11.5427 14.7023 11.9918 14.5311C12.1551 14.4745 12.3128 14.4007 12.4618 14.3121H12.5068C13.2802 13.9098 13.9084 13.2779 14.3046 12.5022C14.3046 12.5022 14.3496 12.4048 14.299 12.3792V12.3783ZM5.39991 16.032V15.9934V14.4921V13.9831V12.4688C5.39991 12.3848 5.39991 12.3723 5.29692 12.3723H3.89856C3.82108 12.3723 3.78906 12.3723 3.78906 12.2693V11.0449H5.28392C5.36744 11.0449 5.39991 11.0449 5.39991 10.9354V9.72403C5.39991 9.64655 5.39991 9.62753 5.29692 9.62753H3.89856C3.82108 9.62753 3.78906 9.62753 3.78906 9.52453V8.39062C3.78906 8.31964 3.78906 8.30062 3.89206 8.30062H5.27743C5.37393 8.30062 5.39991 8.30062 5.39991 8.17813V4.70497C5.39991 4.60197 5.39991 4.57599 5.52889 4.57599H10.3614C10.7122 4.58991 11.0606 4.62842 11.4053 4.69198C12.1157 4.82328 12.7981 5.07706 13.4222 5.43941C13.836 5.68298 14.2169 5.97713 14.5561 6.31582C14.8112 6.58074 15.0414 6.86746 15.2455 7.17274C15.4482 7.4822 15.6167 7.813 15.7489 8.15865C15.7651 8.24865 15.8514 8.30943 15.9414 8.29412H17.0948C17.2428 8.29412 17.2428 8.29412 17.2493 8.43609V9.49298C17.2493 9.59598 17.2108 9.62196 17.1073 9.62196H16.2179C16.1279 9.62196 16.102 9.62196 16.1085 9.73795C16.1437 10.1305 16.1437 10.5244 16.1085 10.9169C16.1085 11.0264 16.1084 11.0393 16.2314 11.0393H17.2489C17.2939 11.0973 17.2489 11.1553 17.2489 11.2138C17.2553 11.2885 17.2553 11.3641 17.2489 11.4388V12.2187C17.2489 12.3282 17.2168 12.3607 17.1199 12.3607H15.902C15.8171 12.3444 15.7345 12.3987 15.715 12.4832C15.425 13.2371 14.9611 13.9131 14.3617 14.455C14.1427 14.6522 13.9126 14.8377 13.6722 15.0089C13.4143 15.1574 13.1633 15.3119 12.8988 15.4344C12.4121 15.6534 11.9018 15.8148 11.378 15.9174C10.8806 16.0064 10.3763 16.0468 9.87012 16.0398H5.39806V16.0333L5.39991 16.032Z" fill="#FEFEFD"/>
</svg>
