<svg width="40" height="40" viewBox="0 0 40 40" fill="none" xmlns="http://www.w3.org/2000/svg">
<g clip-path="url(#clip0_4526_3736)">
<path d="M2.17037 24.9457C1.2756 24.0508 0.675535 23.0173 0.370177 21.8454C0.0719203 20.6663 0.0719201 19.4873 0.370177 18.3082C0.675535 17.122 1.27204 16.085 2.15971 15.1972C3.06158 14.2951 4.10194 13.695 5.28076 13.3966C6.45959 13.0983 7.63842 13.0983 8.81724 13.3966C9.99607 13.695 11.0329 14.2916 11.9276 15.1865L14.1433 17.4026L17.4241 14.1211L15.2084 11.9051C14.3137 11.0101 13.7136 9.97665 13.4082 8.8047C13.11 7.62564 13.1065 6.45013 13.3976 5.27818C13.6959 4.09912 14.2959 3.05856 15.1978 2.15651C16.0926 1.26156 17.1294 0.664933 18.3082 0.366617C19.487 0.0683014 20.6623 0.0718431 21.834 0.377262C23.0128 0.675577 24.0497 1.27222 24.9444 2.16717C25.8392 3.06212 26.4357 4.09912 26.734 5.27818C27.0393 6.45013 27.0428 7.62564 26.7446 8.8047C26.4534 9.99086 25.8605 11.0314 24.9657 11.9264L22.7607 14.1318L26.0309 17.4026L28.2359 15.1972C29.1306 14.3022 30.1639 13.7021 31.3356 13.3966C32.5145 13.0983 33.6897 13.1019 34.8614 13.4073C36.0403 13.7056 37.0806 14.3058 37.9825 15.2079C38.8773 16.1028 39.4738 17.1398 39.772 18.3189C40.0774 19.4908 40.0774 20.6628 39.772 21.8347C39.4738 23.0138 38.8773 24.0508 37.9825 24.9457C37.0806 25.8478 36.0403 26.448 34.8614 26.7463C33.6897 27.0375 32.5145 27.0339 31.3356 26.7356C30.171 26.4373 29.1413 25.8407 28.2465 24.9457L26.0415 22.7403L22.7607 26.0218L24.9657 28.2272C25.8605 29.1222 26.4534 30.1556 26.7446 31.3276C27.0428 32.5066 27.0428 33.6857 26.7446 34.8648C26.4463 36.0438 25.8463 37.0844 24.9444 37.9864C24.0568 38.8743 23.0199 39.4709 21.834 39.7763C20.6552 40.0746 19.4764 40.0746 18.2975 39.7763C17.1329 39.478 16.1032 38.8814 15.2084 37.9864C14.3066 37.0844 13.703 36.0474 13.3976 34.8754C13.0994 33.6963 13.0994 32.5173 13.3976 31.3382C13.7101 30.1592 14.3101 29.1257 15.1978 28.2379L17.4241 26.0111L14.1539 22.7403L11.9276 24.9671C11.04 25.8549 9.99961 26.448 8.80658 26.7463C7.62775 27.0446 6.44894 27.0446 5.27012 26.7463C4.0984 26.4409 3.06514 25.8407 2.17037 24.9457ZM4.83337 22.2822C5.23815 22.6871 5.70684 22.957 6.23944 23.0919C6.77914 23.234 7.3153 23.2375 7.8479 23.1026C8.3805 22.9676 8.8492 22.6977 9.25397 22.2929L11.4802 20.0661L9.26462 17.8501C8.85984 17.4452 8.38761 17.1789 7.8479 17.051C7.3153 16.9161 6.7827 16.9161 6.2501 17.051C5.7175 17.186 5.24525 17.4594 4.83337 17.8714C4.42859 18.2762 4.1552 18.7415 4.01317 19.2671C3.87825 19.7998 3.87825 20.3325 4.01317 20.8652C4.1552 21.405 4.42859 21.8773 4.83337 22.2822ZM17.8715 9.24151L20.0871 11.4576L22.292 9.25218C22.7039 8.84022 22.9738 8.37143 23.1016 7.84583C23.2365 7.31312 23.233 6.77685 23.091 6.23704C22.956 5.70434 22.6862 5.23555 22.2814 4.8307C21.8766 4.42584 21.4079 4.15593 20.8753 4.02098C20.3427 3.88603 19.8101 3.88603 19.2775 4.02098C18.752 4.14883 18.2833 4.41874 17.8715 4.8307C17.4667 5.23555 17.1897 5.70434 17.0406 6.23704C16.9057 6.76975 16.9057 7.30246 17.0406 7.83516C17.1897 8.36787 17.4667 8.83666 17.8715 9.24151ZM28.0807 20.0768L30.2857 22.2822C30.6905 22.6871 31.1556 22.9605 31.6811 23.1026C32.2137 23.2375 33.3666 23.234 33.8921 23.0919C34.4247 22.957 34.8969 22.6835 35.3088 22.2716C35.7207 21.8596 35.9906 21.3908 36.1184 20.8652C36.2604 20.3396 36.264 19.8104 36.1291 19.2777C35.9941 18.745 35.7243 18.2762 35.3195 17.8714C34.9076 17.4594 34.4354 17.186 33.9028 17.051C33.3701 16.9161 32.2137 16.9161 31.6811 17.051C31.1627 17.186 30.6976 17.4594 30.2857 17.8714L28.0807 20.0768ZM17.8715 35.3229C18.2762 35.7277 18.7449 35.9976 19.2775 36.1326C19.8101 36.2675 20.3392 36.264 20.8647 36.1219C21.3973 35.987 21.8659 35.7171 22.2707 35.3122C22.6826 34.9003 22.956 34.4279 23.091 33.8952C23.233 33.3696 23.2365 32.8405 23.1016 32.3078C22.9738 31.7679 22.7075 31.2956 22.3027 30.8908L20.0977 28.6853L17.8715 30.9121C17.4667 31.3169 17.1933 31.7821 17.0512 32.3078C16.9163 32.8405 16.9163 33.3732 17.0512 33.9059C17.1862 34.4386 17.4596 34.9109 17.8715 35.3229ZM16.8169 20.0768L20.0871 23.3476L23.3679 20.0661L20.0977 16.7953L16.8169 20.0768Z" fill="#24201F"/>
</g>
<defs>
<clipPath id="clip0_4526_3736">
<rect width="40" height="40" fill="white"/>
</clipPath>
</defs>
</svg>
