<svg xmlns="http://www.w3.org/2000/svg" version="1.1" width="433" height="433" viewBox="0 0 433 433" style="shape-rendering:geometricPrecision; text-rendering:geometricPrecision; image-rendering:optimizeQuality; fill-rule:evenodd; clip-rule:evenodd" xmlns:xlink="http://www.w3.org/1999/xlink">
<g><path style="opacity:0.996" fill="#141414" d="M 195.5,-0.5 C 209.167,-0.5 222.833,-0.5 236.5,-0.5C 320.465,10.7281 380.298,54.7281 416,131.5C 424.348,152.23 429.848,173.563 432.5,195.5C 432.5,209.167 432.5,222.833 432.5,236.5C 421.272,320.465 377.272,380.298 300.5,416C 279.77,424.348 258.437,429.848 236.5,432.5C 222.833,432.5 209.167,432.5 195.5,432.5C 111.535,421.272 51.702,377.272 16,300.5C 7.65175,279.77 2.15175,258.437 -0.5,236.5C -0.5,222.833 -0.5,209.167 -0.5,195.5C 10.7281,111.535 54.7281,51.702 131.5,16C 152.23,7.65175 173.563,2.15175 195.5,-0.5 Z"/></g>
<g><path style="opacity:1" fill="#9b9b9b" d="M 44.5,177.5 C 61.8461,177.167 79.1795,177.5 96.5,178.5C 87.8333,178.833 79.1667,179.167 70.5,179.5C 61.4733,179.498 52.8066,178.831 44.5,177.5 Z"/></g>
<g><path style="opacity:1" fill="#9a9a9a" d="M 129.5,177.5 C 121.567,179.468 113.234,180.135 104.5,179.5C 103.957,179.44 103.624,179.107 103.5,178.5C 112.141,177.502 120.808,177.169 129.5,177.5 Z"/></g>
<g><path style="opacity:1" fill="#9c9c9c" d="M 146.5,177.5 C 157.853,177.168 169.186,177.501 180.5,178.5C 174.833,178.833 169.167,179.167 163.5,179.5C 157.458,179.496 151.792,178.829 146.5,177.5 Z"/></g>
<g><path style="opacity:1" fill="#9b9b9b" d="M 196.5,177.5 C 219.51,177.167 242.51,177.5 265.5,178.5C 254,178.833 242.5,179.167 231,179.5C 219.147,179.499 207.647,178.832 196.5,177.5 Z"/></g>
<g><path style="opacity:1" fill="#999999" d="M 272.5,177.5 C 284.186,177.168 295.852,177.501 307.5,178.5C 301.667,178.833 295.833,179.167 290,179.5C 283.793,179.496 277.96,178.829 272.5,177.5 Z"/></g>
<g><path style="opacity:1" fill="#9c9c9c" d="M 357.5,179.5 C 345.988,179.828 334.654,179.495 323.5,178.5C 328.99,177.834 334.657,177.501 340.5,177.5C 346.542,177.504 352.208,178.171 357.5,179.5 Z"/></g>
<g><path style="opacity:1" fill="#908f8b" d="M 365.5,177.5 C 368.898,177.18 372.232,177.513 375.5,178.5C 373.833,178.833 372.167,179.167 370.5,179.5C 368.36,179.444 366.694,178.777 365.5,177.5 Z"/></g>
<g><path style="opacity:1" fill="#989898" d="M 399.5,177.5 C 405.537,177.171 411.537,177.504 417.5,178.5C 414.5,178.833 411.5,179.167 408.5,179.5C 405.087,179.483 402.087,178.816 399.5,177.5 Z"/></g>
<g><path style="opacity:1" fill="#414141" d="M 129.5,177.5 C 130.404,178.209 130.737,179.209 130.5,180.5C 121.651,180.826 112.984,180.493 104.5,179.5C 113.234,180.135 121.567,179.468 129.5,177.5 Z"/></g>
<g><path style="opacity:1" fill="#40403f" d="M 323.5,178.5 C 334.654,179.495 345.988,179.828 357.5,179.5C 345.993,180.824 334.327,180.824 322.5,179.5C 322.624,178.893 322.957,178.56 323.5,178.5 Z"/></g>
<g><path style="opacity:1" fill="#929293" d="M 101.5,183.5 C 102.376,183.369 103.043,183.702 103.5,184.5C 101.724,188.393 99.7237,192.06 97.5,195.5C 97.1667,195.167 96.8333,194.833 96.5,194.5C 97.9236,190.658 99.5903,186.991 101.5,183.5 Z"/></g>
<g><path style="opacity:1" fill="#9e9ea0" d="M 185.5,188.5 C 186.014,190.366 186.68,192.2 187.5,194C 187.167,194.5 186.833,195 186.5,195.5C 185.157,193.096 183.823,190.762 182.5,188.5C 181.743,181.995 182.743,181.995 185.5,188.5 Z"/></g>
<g><path style="opacity:1" fill="#8e8d8d" d="M 320.5,183.5 C 321.497,183.47 322.164,183.97 322.5,185C 321.231,189.161 319.397,192.995 317,196.5C 317.032,191.897 318.199,187.564 320.5,183.5 Z"/></g>
<g><path style="opacity:1" fill="#929191" d="M 245.5,183.5 C 246.097,183.735 246.43,184.235 246.5,185C 245.308,188.749 243.642,192.249 241.5,195.5C 240.386,194.277 240.219,192.944 241,191.5C 242.599,188.848 244.099,186.182 245.5,183.5 Z"/></g>
<g><path style="opacity:1" fill="#a6a8a8" d="M 379.5,183.5 C 380.497,183.47 381.164,183.97 381.5,185C 379.954,188.592 378.287,192.092 376.5,195.5C 376.167,195.167 375.833,194.833 375.5,194.5C 377.238,190.951 378.571,187.284 379.5,183.5 Z"/></g>
<g><path style="opacity:1" fill="#9f9f9e" d="M 287.5,183.5 C 288.598,184.601 288.765,185.934 288,187.5C 286.66,190.202 285.327,192.869 284,195.5C 284.235,191.228 285.401,187.228 287.5,183.5 Z"/></g>
<g><path style="opacity:1" fill="#1a1636" d="M 369.5,182.5 C 369.5,187.5 369.5,192.5 369.5,197.5C 369.5,198.167 369.5,198.833 369.5,199.5C 369.5,204.833 369.5,210.167 369.5,215.5C 369.719,216.675 369.386,217.675 368.5,218.5C 367.031,215.886 366.364,213.052 366.5,210C 367.441,200.51 367.441,191.01 366.5,181.5C 367.791,181.263 368.791,181.596 369.5,182.5 Z"/></g>
<g><path style="opacity:1" fill="#989899" d="M 345.5,183.5 C 346.675,183.281 347.675,183.614 348.5,184.5C 341.234,199.228 340.234,198.895 345.5,183.5 Z"/></g>
<g><path style="opacity:1" fill="#a4a3a4" d="M 92.5,183.5 C 93.3764,183.369 94.0431,183.702 94.5,184.5C 93.4069,188.454 91.7403,192.12 89.5,195.5C 89.1667,195.167 88.8333,194.833 88.5,194.5C 90.1322,190.91 91.4655,187.243 92.5,183.5 Z"/></g>
<g><path style="opacity:1" fill="#8d8e92" d="M 269.5,183.5 C 270.675,183.281 271.675,183.614 272.5,184.5C 265.321,199.316 264.321,198.982 269.5,183.5 Z"/></g>
<g><path style="opacity:1" fill="#989898" d="M 42.5,183.5 C 43.5983,184.601 43.765,185.934 43,187.5C 41.596,190.544 40.096,193.544 38.5,196.5C 38.5629,191.964 39.8962,187.63 42.5,183.5 Z"/></g>
<g><path style="opacity:1" fill="#989d9a" d="M 196.5,185.5 C 194.539,188.737 192.539,192.071 190.5,195.5C 190.167,195.167 189.833,194.833 189.5,194.5C 191.082,192.423 192.082,190.09 192.5,187.5C 193.249,186.469 193.915,185.302 194.5,184C 195.816,183.472 196.483,183.972 196.5,185.5 Z"/></g>
<g><path style="opacity:1" fill="#968f96" d="M 309.5,182.5 C 310.5,182.5 311.5,182.5 312.5,182.5C 312.5,187.5 312.5,192.5 312.5,197.5C 311.5,197.5 310.5,197.5 309.5,197.5C 309.5,192.5 309.5,187.5 309.5,182.5 Z"/></g>
<g><path style="opacity:1" fill="#7a7d7e" d="M 369.5,182.5 C 370.809,184.571 371.475,187.071 371.5,190C 371.475,192.929 370.809,195.429 369.5,197.5C 369.5,192.5 369.5,187.5 369.5,182.5 Z"/></g>
<g><path style="opacity:1" fill="#958b92" d="M 132.5,182.5 C 133.5,182.5 134.5,182.5 135.5,182.5C 136.108,187.944 135.442,192.944 133.5,197.5C 132.513,192.695 132.179,187.695 132.5,182.5 Z"/></g>
<g><path style="opacity:1" fill="#9fa0a2" d="M 396.5,183.5 C 397.376,183.369 398.043,183.702 398.5,184.5C 391.719,200.507 391.053,200.174 396.5,183.5 Z"/></g>
<g><path style="opacity:1" fill="#9d9d9c" d="M 261.5,183.5 C 262.376,183.369 263.043,183.702 263.5,184.5C 262.091,188.316 260.424,191.983 258.5,195.5C 258.167,195.167 257.833,194.833 257.5,194.5C 258.588,190.674 259.922,187.007 261.5,183.5 Z"/></g>
<g><path style="opacity:1" fill="#a3a3a3" d="M 53.5,195.5 C 64.8529,195.168 76.1862,195.501 87.5,196.5C 81.8333,196.833 76.1667,197.167 70.5,197.5C 64.4585,197.496 58.7918,196.829 53.5,195.5 Z"/></g>
<g><path style="opacity:1" fill="#9d9c9b" d="M 163.5,195.5 C 166.572,195.183 169.572,195.516 172.5,196.5C 171,196.833 169.5,197.167 168,197.5C 166.014,197.431 164.514,196.765 163.5,195.5 Z"/></g>
<g><path style="opacity:1" fill="#999698" d="M 198.5,195.5 C 201.247,195.187 203.914,195.52 206.5,196.5C 204.604,197.466 202.604,197.799 200.5,197.5C 199.167,197.5 197.833,197.5 196.5,197.5C 196.5,196.167 197.167,195.5 198.5,195.5 Z"/></g>
<g><path style="opacity:1" fill="#a2a2a2" d="M 222.5,195.5 C 228.206,195.171 233.872,195.505 239.5,196.5C 236.667,196.833 233.833,197.167 231,197.5C 227.748,197.481 224.915,196.814 222.5,195.5 Z"/></g>
<g><path style="opacity:1" fill="#a8abad" d="M 272.5,195.5 C 275.572,195.183 278.572,195.516 281.5,196.5C 280,196.833 278.5,197.167 277,197.5C 275.014,197.431 273.514,196.765 272.5,195.5 Z"/></g>
<g><path style="opacity:1" fill="#594241" d="M 116.5,200.5 C 116.56,199.957 116.893,199.624 117.5,199.5C 118.814,204.652 118.814,209.652 117.5,214.5C 117.819,209.637 117.486,204.97 116.5,200.5 Z"/></g>
<g><path style="opacity:1" fill="#898c8c" d="M 109.5,201.5 C 110.497,201.47 111.164,201.97 111.5,203C 110.079,206.596 108.412,210.096 106.5,213.5C 106.167,213 105.833,212.5 105.5,212C 106.94,208.51 108.273,205.01 109.5,201.5 Z"/></g>
<g><path style="opacity:1" fill="#aaacad" d="M 303.5,201.5 C 304.376,201.369 305.043,201.702 305.5,202.5C 304.103,206.294 302.436,209.961 300.5,213.5C 300.167,213.167 299.833,212.833 299.5,212.5C 301.238,208.951 302.571,205.284 303.5,201.5 Z"/></g>
<g><path style="opacity:1" fill="#909090" d="M 33.5,201.5 C 34.4972,201.47 35.1639,201.97 35.5,203C 34.0538,206.611 32.3871,210.111 30.5,213.5C 30.2141,209.324 31.2141,205.324 33.5,201.5 Z"/></g>
<g><path style="opacity:1" fill="#766459" d="M 132.5,200.5 C 132.5,199.833 132.833,199.5 133.5,199.5C 134.809,201.571 135.475,204.071 135.5,207C 135.497,209.69 135.164,212.19 134.5,214.5C 135.103,209.381 134.436,204.715 132.5,200.5 Z"/></g>
<g><path style="opacity:1" fill="#2f354d" d="M 160.5,200.5 C 158.564,204.715 157.897,209.381 158.5,214.5C 157.513,209.695 157.179,204.695 157.5,199.5C 158.791,199.263 159.791,199.596 160.5,200.5 Z"/></g>
<g><path style="opacity:1" fill="#929390" d="M 345.5,201.5 C 346.675,201.281 347.675,201.614 348.5,202.5C 341.299,217.294 340.299,216.96 345.5,201.5 Z"/></g>
<g><path style="opacity:1" fill="#8d8e8d" d="M 362.5,201.5 C 363.497,201.47 364.164,201.97 364.5,203C 363.499,206.834 361.833,210.334 359.5,213.5C 359.167,213 358.833,212.5 358.5,212C 359.733,208.383 361.067,204.883 362.5,201.5 Z"/></g>
<g><path style="opacity:1" fill="#9c959e" d="M 132.5,200.5 C 134.436,204.715 135.103,209.381 134.5,214.5C 134.5,215.167 134.167,215.5 133.5,215.5C 132.513,210.695 132.179,205.695 132.5,200.5 Z"/></g>
<g><path style="opacity:1" fill="#b9aaad" d="M 217.5,200.5 C 218.805,202.397 219.471,204.731 219.5,207.5C 219.471,210.269 218.805,212.603 217.5,214.5C 217.5,209.833 217.5,205.167 217.5,200.5 Z"/></g>
<g><path style="opacity:1" fill="#7f7081" d="M 116.5,200.5 C 117.486,204.97 117.819,209.637 117.5,214.5C 117.44,215.043 117.107,215.376 116.5,215.5C 115.186,210.348 115.186,205.348 116.5,200.5 Z"/></g>
<g><path style="opacity:1" fill="#a4a5a5" d="M 287.5,201.5 C 288.037,205.84 286.704,209.84 283.5,213.5C 283.167,213.167 282.833,212.833 282.5,212.5C 284.455,208.926 286.122,205.26 287.5,201.5 Z"/></g>
<g><path style="opacity:1" fill="#8b9196" d="M 309.5,200.5 C 310.5,200.5 311.5,200.5 312.5,200.5C 312.5,205.167 312.5,209.833 312.5,214.5C 311.5,214.5 310.5,214.5 309.5,214.5C 309.5,209.833 309.5,205.167 309.5,200.5 Z"/></g>
<g><path style="opacity:1" fill="#afb1af" d="M 326.5,213.5 C 325.662,213.158 325.328,212.492 325.5,211.5C 326.337,208.148 327.837,205.148 330,202.5C 329.164,206.178 327.998,209.844 326.5,213.5 Z"/></g>
<g><path style="opacity:1" fill="#928390" d="M 160.5,200.5 C 160.827,205.544 160.494,210.544 159.5,215.5C 158.893,215.376 158.56,215.043 158.5,214.5C 157.897,209.381 158.564,204.715 160.5,200.5 Z"/></g>
<g><path style="opacity:1" fill="#abaead" d="M 92.5,201.5 C 93.3764,201.369 94.0431,201.702 94.5,202.5C 93.1026,206.294 91.4359,209.961 89.5,213.5C 89.1667,213.167 88.8333,212.833 88.5,212.5C 90.2378,208.951 91.5711,205.284 92.5,201.5 Z"/></g>
<g><path style="opacity:1" fill="#afafb0" d="M 260.5,204.5 C 261.376,204.369 262.043,204.702 262.5,205.5C 260.078,207.286 260.078,208.952 262.5,210.5C 262.167,210.833 261.833,211.167 261.5,211.5C 260.019,210.52 258.685,209.353 257.5,208C 258.71,206.961 259.71,205.794 260.5,204.5 Z"/></g>
<g><path style="opacity:1" fill="#a3a3a3" d="M 235.5,202.5 C 236.376,202.369 237.043,202.702 237.5,203.5C 236.477,207.077 234.977,210.411 233,213.5C 233.2,209.74 234.033,206.074 235.5,202.5 Z"/></g>
<g><path style="opacity:1" fill="#848586" d="M 405.5,201.5 C 406.097,201.735 406.43,202.235 406.5,203C 405.187,207.113 403.52,210.946 401.5,214.5C 400.386,213.277 400.219,211.944 401,210.5C 403.041,207.752 404.541,204.752 405.5,201.5 Z"/></g>
<g><path style="opacity:1" fill="#a09fa0" d="M 50.5,201.5 C 51.3764,201.369 52.0431,201.702 52.5,202.5C 45.8994,216.902 45.2327,216.569 50.5,201.5 Z"/></g>
<g><path style="opacity:1" fill="#76787a" d="M 369.5,199.5 C 370.812,201.743 371.478,204.41 371.5,207.5C 371.478,210.59 370.812,213.257 369.5,215.5C 369.5,210.167 369.5,204.833 369.5,199.5 Z"/></g>
<g><path style="opacity:1" fill="#a4a9ab" d="M 252.5,214.5 C 251.325,214.719 250.325,214.386 249.5,213.5C 250.246,212.264 250.579,210.93 250.5,209.5C 251.5,209.5 252.5,209.5 253.5,209.5C 253.634,211.292 253.301,212.958 252.5,214.5 Z"/></g>
<g><path style="opacity:1" fill="#838483" d="M 53.5,213.5 C 56.5719,213.183 59.5719,213.516 62.5,214.5C 61,214.833 59.5,215.167 58,215.5C 56.0145,215.431 54.5145,214.765 53.5,213.5 Z"/></g>
<g><path style="opacity:1" fill="#848584" d="M 170.5,213.5 C 171.376,213.369 172.043,213.702 172.5,214.5C 169.572,215.484 166.572,215.817 163.5,215.5C 165.279,213.656 167.612,212.99 170.5,213.5 Z"/></g>
<g><path style="opacity:1" fill="#7d7d7c" d="M 325.5,211.5 C 325.328,212.492 325.662,213.158 326.5,213.5C 324.71,214.997 322.544,215.664 320,215.5C 318.5,215.167 317,214.833 315.5,214.5C 319.103,213.968 322.436,212.968 325.5,211.5 Z"/></g>
<g><path style="opacity:1" fill="#878788" d="M 388.5,201.5 C 389.376,201.369 390.043,201.702 390.5,202.5C 388.484,206.531 386.484,210.531 384.5,214.5C 381.177,215.757 377.844,215.757 374.5,214.5C 377.5,213.833 380.5,213.167 383.5,212.5C 384.979,208.72 386.646,205.053 388.5,201.5 Z"/></g>
<g><path style="opacity:1" fill="#111527" d="M 132.5,182.5 C 132.179,187.695 132.513,192.695 133.5,197.5C 133.5,198.167 133.5,198.833 133.5,199.5C 132.833,199.5 132.5,199.833 132.5,200.5C 132.179,205.695 132.513,210.695 133.5,215.5C 133.5,216.167 133.5,216.833 133.5,217.5C 132.167,222.833 132.167,228.167 133.5,233.5C 133.5,234.167 133.5,234.833 133.5,235.5C 132.515,239.634 132.182,243.968 132.5,248.5C 131.167,226.5 131.167,204.5 132.5,182.5 Z"/></g>
<g><path style="opacity:1" fill="#141624" d="M 196.5,197.5 C 197.833,197.5 199.167,197.5 200.5,197.5C 200.833,198.167 201.167,198.833 201.5,199.5C 200.833,199.5 200.5,199.833 200.5,200.5C 200.5,205.167 200.5,209.833 200.5,214.5C 200.5,215.833 200.5,217.167 200.5,218.5C 200.5,223.5 200.5,228.5 200.5,233.5C 199.504,233.586 198.671,233.252 198,232.5C 196.699,220.873 196.199,209.206 196.5,197.5 Z"/></g>
<g><path style="opacity:1" fill="#222333" d="M 217.5,200.5 C 217.5,205.167 217.5,209.833 217.5,214.5C 218.833,215.833 218.833,217.167 217.5,218.5C 217.5,223.5 217.5,228.5 217.5,233.5C 216.778,233.082 216.278,232.416 216,231.5C 215.444,220.818 215.11,210.152 215,199.5C 215.671,200.252 216.504,200.586 217.5,200.5 Z"/></g>
<g><path style="opacity:1" fill="#8d8d8a" d="M 320.5,219.5 C 321.497,219.47 322.164,219.97 322.5,221C 321.581,225.005 319.748,228.505 317,231.5C 317.256,227.297 318.423,223.297 320.5,219.5 Z"/></g>
<g><path style="opacity:1" fill="#919391" d="M 245.5,219.5 C 246.097,219.735 246.43,220.235 246.5,221C 245.308,224.749 243.642,228.249 241.5,231.5C 240.386,230.277 240.219,228.944 241,227.5C 242.501,224.759 244.001,222.092 245.5,219.5 Z"/></g>
<g><path style="opacity:1" fill="#817e84" d="M 267.5,217.5 C 268.5,217.5 269.5,217.5 270.5,217.5C 270.5,222.833 270.5,228.167 270.5,233.5C 269.5,233.5 268.5,233.5 267.5,233.5C 267.5,228.167 267.5,222.833 267.5,217.5 Z"/></g>
<g><path style="opacity:1" fill="#a4a4a2" d="M 379.5,219.5 C 380.376,219.369 381.043,219.702 381.5,220.5C 380.091,224.316 378.424,227.983 376.5,231.5C 376.167,230.833 375.833,230.167 375.5,229.5C 377.813,226.563 379.146,223.23 379.5,219.5 Z"/></g>
<g><path style="opacity:1" fill="#8e9092" d="M 227.5,219.5 C 228.675,219.281 229.675,219.614 230.5,220.5C 223.217,235.211 222.217,234.877 227.5,219.5 Z"/></g>
<g><path style="opacity:1" fill="#9ea2a2" d="M 25.5,219.5 C 25.9396,223.712 24.7729,227.712 22,231.5C 22.2162,227.338 23.3828,223.338 25.5,219.5 Z"/></g>
<g><path style="opacity:1" fill="#92898d" d="M 133.5,217.5 C 134.117,217.611 134.617,217.944 135,218.5C 135.167,221 135.333,223.5 135.5,226C 135.475,228.929 134.809,231.429 133.5,233.5C 132.167,228.167 132.167,222.833 133.5,217.5 Z"/></g>
<g><path style="opacity:1" fill="#828180" d="M 295.5,219.5 C 296.497,219.47 297.164,219.97 297.5,221C 296.409,224.978 294.576,228.478 292,231.5C 291.838,227.15 293.004,223.15 295.5,219.5 Z"/></g>
<g><path style="opacity:1" fill="#959492" d="M 55.5,231.5 C 54.8333,231.5 54.5,231.167 54.5,230.5C 56.1157,226.935 57.4491,223.269 58.5,219.5C 59.675,219.281 60.675,219.614 61.5,220.5C 59.7258,224.389 57.7258,228.055 55.5,231.5 Z"/></g>
<g><path style="opacity:1" fill="#8e8d8c" d="M 84.5,219.5 C 85.4972,219.47 86.1639,219.97 86.5,221C 85.0801,224.899 83.0801,228.399 80.5,231.5C 80.7609,227.382 82.0942,223.382 84.5,219.5 Z"/></g>
<g><path style="opacity:1" fill="#b4a7ad" d="M 217.5,218.5 C 218.809,220.571 219.475,223.071 219.5,226C 219.475,228.929 218.809,231.429 217.5,233.5C 217.5,228.5 217.5,223.5 217.5,218.5 Z"/></g>
<g><path style="opacity:1" fill="#8f8f90" d="M 337.5,219.5 C 338.497,219.47 339.164,219.97 339.5,221C 337.965,224.569 336.298,228.069 334.5,231.5C 334.167,230.833 333.833,230.167 333.5,229.5C 334.832,226.178 336.165,222.844 337.5,219.5 Z"/></g>
<g><path style="opacity:1" fill="#999897" d="M 396.5,219.5 C 397.497,219.47 398.164,219.97 398.5,221C 396.965,224.569 395.298,228.069 393.5,231.5C 393.167,231 392.833,230.5 392.5,230C 393.94,226.51 395.273,223.01 396.5,219.5 Z"/></g>
<g><path style="opacity:1" fill="#796d77" d="M 252.5,217.5 C 253.833,222.833 253.833,228.167 252.5,233.5C 251.191,231.429 250.525,228.929 250.5,226C 250.667,223.5 250.833,221 251,218.5C 251.383,217.944 251.883,217.611 252.5,217.5 Z"/></g>
<g><path style="opacity:1" fill="#291216" d="M 252.5,214.5 C 253.931,214.881 254.764,215.881 255,217.5C 255.881,229.045 255.381,240.378 253.5,251.5C 253.821,245.974 253.488,240.64 252.5,235.5C 252.5,234.833 252.5,234.167 252.5,233.5C 253.833,228.167 253.833,222.833 252.5,217.5C 252.5,216.5 252.5,215.5 252.5,214.5 Z"/></g>
<g><path style="opacity:1" fill="#9c9c9b" d="M 354.5,219.5 C 355.376,219.369 356.043,219.702 356.5,220.5C 354.637,224.092 352.971,227.759 351.5,231.5C 351.167,231 350.833,230.5 350.5,230C 351.708,226.424 353.041,222.924 354.5,219.5 Z"/></g>
<g><path style="opacity:1" fill="#9a9b9d" d="M 278.5,219.5 C 279.497,219.47 280.164,219.97 280.5,221C 279.042,224.714 277.209,228.214 275,231.5C 275.264,227.287 276.43,223.287 278.5,219.5 Z"/></g>
<g><path style="opacity:1" fill="#4e4f50" d="M 36.5,231.5 C 42.31,230.51 48.31,230.177 54.5,230.5C 54.5,231.167 54.8333,231.5 55.5,231.5C 55.1667,232.5 54.5,233.167 53.5,233.5C 48.2649,231.55 42.5982,230.883 36.5,231.5 Z"/></g>
<g><path style="opacity:1" fill="#504f50" d="M 121.5,231.5 C 112.766,230.865 104.433,231.532 96.5,233.5C 95.596,232.791 95.2627,231.791 95.5,230.5C 104.349,230.174 113.016,230.507 121.5,231.5 Z"/></g>
<g><path style="opacity:1" fill="#191718" d="M 196.5,185.5 C 196.956,188.906 197.622,192.239 198.5,195.5C 197.167,195.5 196.5,196.167 196.5,197.5C 196.199,209.206 196.699,220.873 198,232.5C 198.671,233.252 199.504,233.586 200.5,233.5C 201.809,231.429 202.475,228.929 202.5,226C 202.475,223.071 201.809,220.571 200.5,218.5C 200.5,217.167 200.5,215.833 200.5,214.5C 201.805,212.603 202.471,210.269 202.5,207.5C 202.471,204.731 201.805,202.397 200.5,200.5C 200.5,199.833 200.833,199.5 201.5,199.5C 203.237,202.008 204.07,205.008 204,208.5C 204.925,209.047 205.758,209.713 206.5,210.5C 204.945,213.83 203.945,217.33 203.5,221C 204.645,227.752 204.811,234.586 204,241.5C 202.885,240 202.052,238.333 201.5,236.5C 200.675,235.614 199.675,235.281 198.5,235.5C 198.663,237.857 198.497,240.19 198,242.5C 196.374,243.955 195.208,245.622 194.5,247.5C 194.5,243.5 194.5,239.5 194.5,235.5C 193.5,235.5 192.5,235.5 191.5,235.5C 191.5,240.833 191.5,246.167 191.5,251.5C 192.5,251.5 193.5,251.5 194.5,251.5C 193.432,252.434 192.099,252.768 190.5,252.5C 190.162,250.146 189.662,247.813 189,245.5C 188.536,246.094 188.369,246.761 188.5,247.5C 186.539,244.263 184.539,240.929 182.5,237.5C 182.167,237.833 181.833,238.167 181.5,238.5C 182.788,240.739 183.788,243.072 184.5,245.5C 184.023,248.025 182.69,250.025 180.5,251.5C 178.012,249.612 175.012,248.945 171.5,249.5C 171.167,249.5 170.833,249.5 170.5,249.5C 170.5,248.833 170.5,248.167 170.5,247.5C 176.513,249.44 177.847,247.773 174.5,242.5C 173.354,241.855 172.354,241.022 171.5,240C 173.358,237.976 175.025,235.809 176.5,233.5C 175.091,230.762 173.591,228.095 172,225.5C 171.502,222.518 171.335,219.518 171.5,216.5C 168.615,216.806 165.948,216.473 163.5,215.5C 166.572,215.817 169.572,215.484 172.5,214.5C 172.043,213.702 171.376,213.369 170.5,213.5C 170.128,210.978 170.961,208.978 173,207.5C 173.497,205.19 173.663,202.857 173.5,200.5C 174.791,200.263 175.791,200.596 176.5,201.5C 175.503,201.47 174.836,201.97 174.5,203C 177.264,207.04 176.931,210.873 173.5,214.5C 173.624,215.107 173.957,215.44 174.5,215.5C 174.5,217.167 174.5,218.833 174.5,220.5C 176.143,220.52 177.476,219.853 178.5,218.5C 179.167,220.5 179.833,222.5 180.5,224.5C 184.538,217.763 186.038,210.43 185,202.5C 184.667,202.167 184.333,201.833 184,201.5C 183.667,204.833 183.333,208.167 183,211.5C 181.97,209.412 181.137,207.245 180.5,205C 182.182,199.727 182.849,194.227 182.5,188.5C 183.823,190.762 185.157,193.096 186.5,195.5C 186.833,195 187.167,194.5 187.5,194C 186.68,192.2 186.014,190.366 185.5,188.5C 186.721,189.028 187.887,189.695 189,190.5C 188.126,187.209 189.293,186.209 192.5,187.5C 192.082,190.09 191.082,192.423 189.5,194.5C 189.833,194.833 190.167,195.167 190.5,195.5C 192.539,192.071 194.539,188.737 196.5,185.5 Z"/></g>
<g><path style="opacity:1" fill="#9a808a" d="M 200.5,218.5 C 201.809,220.571 202.475,223.071 202.5,226C 202.475,228.929 201.809,231.429 200.5,233.5C 200.5,228.5 200.5,223.5 200.5,218.5 Z"/></g>
<g><path style="opacity:1" fill="#adafb0" d="M 184.5,222.5 C 185.376,222.369 186.043,222.702 186.5,223.5C 183.833,225.167 183.833,226.833 186.5,228.5C 186.167,228.833 185.833,229.167 185.5,229.5C 184.019,228.52 182.685,227.353 181.5,226C 182.71,224.961 183.71,223.794 184.5,222.5 Z"/></g>
<g><path style="opacity:1" fill="#a18c99" d="M 200.5,200.5 C 201.805,202.397 202.471,204.731 202.5,207.5C 202.471,210.269 201.805,212.603 200.5,214.5C 200.5,209.833 200.5,205.167 200.5,200.5 Z"/></g>
<g><path style="opacity:1" fill="#a8a0ab" d="M 192.5,200.5 C 193.833,205.167 193.833,209.833 192.5,214.5C 191.167,209.833 191.167,205.167 192.5,200.5 Z"/></g>
<g><path style="opacity:1" fill="#716a68" d="M 192.5,200.5 C 192.56,199.957 192.893,199.624 193.5,199.5C 194.833,204.833 194.833,210.167 193.5,215.5C 192.893,215.376 192.56,215.043 192.5,214.5C 193.833,209.833 193.833,205.167 192.5,200.5 Z"/></g>
<g><path style="opacity:1" fill="#939796" d="M 176.5,201.5 C 179.595,206.748 178.928,211.415 174.5,215.5C 173.957,215.44 173.624,215.107 173.5,214.5C 176.931,210.873 177.264,207.04 174.5,203C 174.836,201.97 175.503,201.47 176.5,201.5 Z"/></g>
<g><path style="opacity:1" fill="#aaabac" d="M 36.5,231.5 C 42.5982,230.883 48.2649,231.55 53.5,233.5C 47.4018,234.117 41.7351,233.45 36.5,231.5 Z"/></g>
<g><path style="opacity:1" fill="#acabac" d="M 121.5,231.5 C 120.448,233.256 118.781,233.923 116.5,233.5C 115.5,233.5 114.5,233.5 113.5,233.5C 107.833,233.5 102.167,233.5 96.5,233.5C 104.433,231.532 112.766,230.865 121.5,231.5 Z"/></g>
<g><path style="opacity:1" fill="#a4a3a3" d="M 163.5,231.5 C 166.572,231.183 169.572,231.516 172.5,232.5C 171,232.833 169.5,233.167 168,233.5C 166.014,233.431 164.514,232.765 163.5,231.5 Z"/></g>
<g><path style="opacity:1" fill="#1c1511" d="M 137.5,249.5 C 137.5,250.167 137.5,250.833 137.5,251.5C 136.793,253.231 135.793,254.897 134.5,256.5C 134.709,257.086 135.043,257.586 135.5,258C 133.564,258.813 131.564,259.313 129.5,259.5C 129.5,256.833 129.5,254.167 129.5,251.5C 130.338,251.158 130.672,250.492 130.5,249.5C 131.165,251.698 131.832,254.031 132.5,256.5C 133.694,254.484 133.694,252.484 132.5,250.5C 133.5,250.5 134.5,250.5 135.5,250.5C 136.108,245.056 135.442,240.056 133.5,235.5C 133.5,234.833 133.5,234.167 133.5,233.5C 134.809,231.429 135.475,228.929 135.5,226C 135.333,223.5 135.167,221 135,218.5C 134.617,217.944 134.117,217.611 133.5,217.5C 133.5,216.833 133.5,216.167 133.5,215.5C 134.167,215.5 134.5,215.167 134.5,214.5C 135.164,212.19 135.497,209.69 135.5,207C 135.475,204.071 134.809,201.571 133.5,199.5C 133.5,198.833 133.5,198.167 133.5,197.5C 135.442,192.944 136.108,187.944 135.5,182.5C 136.497,199.992 136.83,217.659 136.5,235.5C 138.5,236.167 140.5,236.833 142.5,237.5C 142.5,236.167 142.5,234.833 142.5,233.5C 143.487,228.695 143.821,223.695 143.5,218.5C 142.89,217.609 142.557,216.609 142.5,215.5C 143.487,210.695 143.821,205.695 143.5,200.5C 143.5,199.833 143.167,199.5 142.5,199.5C 142.5,198.833 142.5,198.167 142.5,197.5C 143.487,192.695 143.821,187.695 143.5,182.5C 143.369,181.761 143.536,181.094 144,180.5C 144.988,183.424 145.654,186.424 146,189.5C 146.667,203.5 146.667,217.5 146,231.5C 145.015,233.366 144.515,235.366 144.5,237.5C 145.116,241.145 145.45,244.812 145.5,248.5C 143.833,248.5 142.167,248.5 140.5,248.5C 140.5,246.5 140.5,244.5 140.5,242.5C 139.5,242.5 138.5,242.5 137.5,242.5C 137.5,244.833 137.5,247.167 137.5,249.5 Z"/></g>
<g><path style="opacity:1" fill="#b5b0b2" d="M 143.5,218.5 C 143.821,223.695 143.487,228.695 142.5,233.5C 141.836,231.19 141.503,228.69 141.5,226C 141.525,223.071 142.191,220.571 143.5,218.5 Z"/></g>
<g><path style="opacity:1" fill="#afabab" d="M 143.5,200.5 C 143.821,205.695 143.487,210.695 142.5,215.5C 141.833,215.5 141.5,215.167 141.5,214.5C 140.897,209.381 141.564,204.715 143.5,200.5 Z"/></g>
<g><path style="opacity:1" fill="#414a5e" d="M 142.5,199.5 C 143.167,199.5 143.5,199.833 143.5,200.5C 141.564,204.715 140.897,209.381 141.5,214.5C 140.836,212.19 140.503,209.69 140.5,207C 140.525,204.071 141.191,201.571 142.5,199.5 Z"/></g>
<g><path style="opacity:1" fill="#b7afb1" d="M 143.5,182.5 C 143.821,187.695 143.487,192.695 142.5,197.5C 141.836,195.19 141.503,192.69 141.5,190C 141.525,187.071 142.191,184.571 143.5,182.5 Z"/></g>
<g><path style="opacity:1" fill="#706d75" d="M 252.5,235.5 C 253.488,240.64 253.821,245.974 253.5,251.5C 252.5,251.5 251.5,251.5 250.5,251.5C 249.887,245.729 250.554,240.396 252.5,235.5 Z"/></g>
<g><path style="opacity:1" fill="#908383" d="M 133.5,235.5 C 135.442,240.056 136.108,245.056 135.5,250.5C 134.5,250.5 133.5,250.5 132.5,250.5C 132.5,249.833 132.5,249.167 132.5,248.5C 132.182,243.968 132.515,239.634 133.5,235.5 Z"/></g>
<g><path style="opacity:1" fill="#a7a8a5" d="M 325.5,249.5 C 325.5,248.833 325.5,248.167 325.5,247.5C 326.176,243.813 327.676,240.48 330,237.5C 329.588,241.902 328.088,245.902 325.5,249.5 Z"/></g>
<g><path style="opacity:1" fill="#acacb0" d="M 208.5,248.5 C 207.833,248.5 207.5,248.167 207.5,247.5C 208.182,243.802 209.682,240.469 212,237.5C 211.559,241.327 210.392,244.993 208.5,248.5 Z"/></g>
<g><path style="opacity:1" fill="#939392" d="M 341.5,249.5 C 341.5,249.167 341.5,248.833 341.5,248.5C 342.63,245.116 343.963,241.782 345.5,238.5C 346.5,237.167 347.5,237.167 348.5,238.5C 346.306,241.554 344.639,244.888 343.5,248.5C 343.043,249.298 342.376,249.631 341.5,249.5 Z"/></g>
<g><path style="opacity:1" fill="#8f908f" d="M 33.5,237.5 C 34.4972,237.47 35.1639,237.97 35.5,239C 33.9651,242.569 32.2985,246.069 30.5,249.5C 30.2141,245.324 31.2141,241.324 33.5,237.5 Z"/></g>
<g><path style="opacity:1" fill="#4f4760" d="M 116.5,235.5 C 116.833,235.5 117.167,235.5 117.5,235.5C 116.555,240.405 116.221,245.405 116.5,250.5C 115.167,245.5 115.167,240.5 116.5,235.5 Z"/></g>
<g><path style="opacity:1" fill="#61504c" d="M 149.5,236.5 C 150.209,235.596 151.209,235.263 152.5,235.5C 152.821,240.695 152.487,245.695 151.5,250.5C 152.103,245.381 151.436,240.715 149.5,236.5 Z"/></g>
<g><path style="opacity:1" fill="#9f9fa0" d="M 284.5,248.5 C 283.662,248.158 283.328,247.492 283.5,246.5C 284.459,243.248 285.959,240.248 288,237.5C 287.955,241.471 286.788,245.138 284.5,248.5 Z"/></g>
<g><path style="opacity:1" fill="#949393" d="M 75.5,237.5 C 76.4972,237.47 77.1639,237.97 77.5,239C 76.3084,242.749 74.6418,246.249 72.5,249.5C 72.1667,248.833 71.8333,248.167 71.5,247.5C 72.8432,244.15 74.1765,240.817 75.5,237.5 Z"/></g>
<g><path style="opacity:1" fill="#7c6f68" d="M 117.5,235.5 C 118.651,240.65 118.817,245.984 118,251.5C 117.31,252.738 116.81,252.738 116.5,251.5C 116.5,251.167 116.5,250.833 116.5,250.5C 116.221,245.405 116.555,240.405 117.5,235.5 Z"/></g>
<g><path style="opacity:1" fill="#a4a4a4" d="M 232.5,249.5 C 232.5,248.833 232.5,248.167 232.5,247.5C 233.654,244.521 234.82,241.521 236,238.5C 236.893,237.289 237.726,237.289 238.5,238.5C 236.726,242.389 234.726,246.055 232.5,249.5 Z"/></g>
<g><path style="opacity:1" fill="#161228" d="M 113.5,233.5 C 114.5,233.5 115.5,233.5 116.5,233.5C 116.5,234.167 116.5,234.833 116.5,235.5C 115.167,240.5 115.167,245.5 116.5,250.5C 116.5,250.833 116.5,251.167 116.5,251.5C 115.504,251.586 114.671,251.252 114,250.5C 113.501,244.843 113.334,239.176 113.5,233.5 Z"/></g>
<g><path style="opacity:1" fill="#999999" d="M 371.5,237.5 C 372.497,237.47 373.164,237.97 373.5,239C 371.287,242.311 369.453,245.811 368,249.5C 368.235,245.289 369.401,241.289 371.5,237.5 Z"/></g>
<g><path style="opacity:1" fill="#969594" d="M 383.5,249.5 C 383.5,249.167 383.5,248.833 383.5,248.5C 384.896,245.154 386.396,241.821 388,238.5C 388.893,237.289 389.726,237.289 390.5,238.5C 388.726,241.715 387.226,245.048 386,248.5C 385.329,249.252 384.496,249.586 383.5,249.5 Z"/></g>
<g><path style="opacity:1" fill="#9d99ab" d="M 149.5,236.5 C 151.436,240.715 152.103,245.381 151.5,250.5C 149.564,246.285 148.897,241.619 149.5,236.5 Z"/></g>
<g><path style="opacity:1" fill="#a5a5a5" d="M 170.5,247.5 C 170.5,248.167 170.5,248.833 170.5,249.5C 168.26,246.024 166.26,242.357 164.5,238.5C 165.274,237.289 166.107,237.289 167,238.5C 168.271,241.484 169.438,244.484 170.5,247.5 Z"/></g>
<g><path style="opacity:1" fill="#91908f" d="M 265.5,249.5 C 265.5,249.167 265.5,248.833 265.5,248.5C 267.021,245.275 268.355,241.942 269.5,238.5C 270.5,237.167 271.5,237.167 272.5,238.5C 270.866,242.805 268.533,246.472 265.5,249.5 Z"/></g>
<g><path style="opacity:1" fill="#8c8f8f" d="M 311.5,237.5 C 312.675,237.281 313.675,237.614 314.5,238.5C 307.354,253.349 306.354,253.015 311.5,237.5 Z"/></g>
<g><path style="opacity:1" fill="#9d9d9c" d="M 92.5,237.5 C 93.3764,237.369 94.0431,237.702 94.5,238.5C 93.1026,242.294 91.4359,245.961 89.5,249.5C 89.1667,249 88.8333,248.5 88.5,248C 89.7078,244.424 91.0411,240.924 92.5,237.5 Z"/></g>
<g><path style="opacity:1" fill="#969595" d="M 188.5,247.5 C 188.179,249.048 187.179,249.715 185.5,249.5C 185.567,248.041 185.234,246.708 184.5,245.5C 183.788,243.072 182.788,240.739 181.5,238.5C 181.833,238.167 182.167,237.833 182.5,237.5C 184.539,240.929 186.539,244.263 188.5,247.5 Z"/></g>
<g><path style="opacity:1" fill="#7e7882" d="M 194.5,247.5 C 194.5,248.833 194.5,250.167 194.5,251.5C 193.5,251.5 192.5,251.5 191.5,251.5C 191.5,246.167 191.5,240.833 191.5,235.5C 192.5,235.5 193.5,235.5 194.5,235.5C 194.5,239.5 194.5,243.5 194.5,247.5 Z"/></g>
<g><path style="opacity:1" fill="#9e9d9e" d="M 16.5,237.5 C 17.3764,237.369 18.0431,237.702 18.5,238.5C 11.9879,252.991 11.3212,252.658 16.5,237.5 Z"/></g>
<g><path style="opacity:1" fill="#8d8b8f" d="M 219.5,237.5 C 220.376,237.369 221.043,237.702 221.5,238.5C 220.127,242.488 218.294,246.154 216,249.5C 215.5,249.167 215,248.833 214.5,248.5C 215.986,244.69 217.653,241.024 219.5,237.5 Z"/></g>
<g><path style="opacity:1" fill="#757576" d="M 207.5,247.5 C 207.5,248.167 207.833,248.5 208.5,248.5C 207.909,249.151 207.243,249.818 206.5,250.5C 203.232,251.487 199.898,251.82 196.5,251.5C 196.5,250.5 196.5,249.5 196.5,248.5C 200.269,248.756 203.936,248.423 207.5,247.5 Z"/></g>
<g><path style="opacity:1" fill="#949496" d="M 19.5,250.5 C 22.3553,249.197 25.3553,249.197 28.5,250.5C 25.463,251.741 22.463,251.741 19.5,250.5 Z"/></g>
<g><path style="opacity:1" fill="#919192" d="M 78.5,249.5 C 81.5719,249.183 84.5719,249.516 87.5,250.5C 86,250.833 84.5,251.167 83,251.5C 81.0145,251.431 79.5145,250.765 78.5,249.5 Z"/></g>
<g><path style="opacity:1" fill="#7c7b7c" d="M 130.5,249.5 C 130.672,250.492 130.338,251.158 129.5,251.5C 126.5,251.5 123.5,251.5 120.5,251.5C 120.5,250.5 120.5,249.5 120.5,248.5C 124.042,248.187 127.375,248.521 130.5,249.5 Z"/></g>
<g><path style="opacity:1" fill="#919190" d="M 137.5,249.5 C 149.5,250.167 149.5,250.833 137.5,251.5C 137.5,250.833 137.5,250.167 137.5,249.5 Z"/></g>
<g><path style="opacity:1" fill="#909090" d="M 171.5,249.5 C 175.012,248.945 178.012,249.612 180.5,251.5C 176.988,252.055 173.988,251.388 171.5,249.5 Z"/></g>
<g><path style="opacity:1" fill="#7c7d7d" d="M 232.5,247.5 C 232.5,248.167 232.5,248.833 232.5,249.5C 229.512,251.273 226.179,251.94 222.5,251.5C 222.5,250.5 222.5,249.5 222.5,248.5C 225.939,248.747 229.272,248.414 232.5,247.5 Z"/></g>
<g><path style="opacity:1" fill="#7a7a7a" d="M 265.5,248.5 C 265.5,248.833 265.5,249.167 265.5,249.5C 264.306,250.777 262.64,251.444 260.5,251.5C 258.833,251.167 257.167,250.833 255.5,250.5C 255.709,249.914 256.043,249.414 256.5,249C 259.482,248.502 262.482,248.335 265.5,248.5 Z"/></g>
<g><path style="opacity:1" fill="#787878" d="M 283.5,246.5 C 283.328,247.492 283.662,248.158 284.5,248.5C 282.716,250.48 280.383,251.48 277.5,251.5C 275.833,251.167 274.167,250.833 272.5,250.5C 272.709,249.914 273.043,249.414 273.5,249C 277.157,248.95 280.49,248.117 283.5,246.5 Z"/></g>
<g><path style="opacity:1" fill="#777876" d="M 325.5,247.5 C 325.5,248.167 325.5,248.833 325.5,249.5C 322.118,251.632 318.451,251.965 314.5,250.5C 314.709,249.914 315.043,249.414 315.5,249C 318.919,248.752 322.253,248.252 325.5,247.5 Z"/></g>
<g><path style="opacity:1" fill="#7a7b7c" d="M 341.5,248.5 C 341.5,248.833 341.5,249.167 341.5,249.5C 338.663,251.402 335.329,252.069 331.5,251.5C 331.5,250.5 331.5,249.5 331.5,248.5C 334.833,248.5 338.167,248.5 341.5,248.5 Z"/></g>
<g><path style="opacity:1" fill="#797a79" d="M 383.5,248.5 C 383.5,248.833 383.5,249.167 383.5,249.5C 382.306,250.777 380.64,251.444 378.5,251.5C 376.833,251.167 375.167,250.833 373.5,250.5C 373.709,249.914 374.043,249.414 374.5,249C 377.482,248.502 380.482,248.335 383.5,248.5 Z"/></g>
</svg>
