<svg width="1600" height="1600" viewBox="0 0 1600 1600" fill="none" xmlns="http://www.w3.org/2000/svg">
<g clip-path="url(#clip0_635_3049)">
<path d="M496.001 430V431H502.001L496.001 430Z" fill="#52BADA"/>
<path d="M492 431V432H495L492 431Z" fill="#6AD3F0"/>
<path d="M495 431V432H505L495 431Z" fill="#A3EFFD"/>
<path d="M505 431V432H508L505 431Z" fill="#6AD3F0"/>
<path d="M508 431V432H511L508 431Z" fill="#52BADA"/>
<path d="M483 433V434L490 433H483Z" fill="#A3EFFD"/>
<path d="M515 433V434H518L515 433Z" fill="#A3EFFD"/>
<path d="M537.001 440V441L547.001 446V445L537.001 440Z" fill="#A3EFFD"/>
<path d="M463 441L459 445L464 442L463 441Z" fill="#52BADA"/>
<path d="M457 445L450 451V452L457 445Z" fill="#52BADA"/>
<path d="M552 448V450H554L552 448Z" fill="#A3EFFD"/>
<path d="M447 454L440 464L449 454H447Z" fill="#52BADA"/>
<path d="M607.999 498L611.999 504H612.999L607.999 498Z" fill="#A3EFFD"/>
<path d="M421 504V507H422L421 504Z" fill="#A3EFFD"/>
<path d="M418 511V514H419L418 511Z" fill="#52BADA"/>
<path d="M418 514V517H419L418 514Z" fill="#A3EFFD"/>
<path d="M621 515V516L626 519L621 515Z" fill="#A3EFFD"/>
<path d="M417 516L416 522H417V516Z" fill="#52BADA"/>
<path d="M626 520L628 524H629L626 520Z" fill="#A3EFFD"/>
<path d="M415 527V531H416L415 527Z" fill="#A3EFFD"/>
<path d="M414 528V531H415L414 528Z" fill="#52BADA"/>
<path d="M636 534L641 542H642L636 534Z" fill="#A3EFFD"/>
<path d="M413 538V542H414L413 538Z" fill="#A3EFFD"/>
<path d="M412 539V542H413L412 539ZM641 539L643 543H644L641 539Z" fill="#52BADA"/>
<path d="M412 543V547H413L412 543Z" fill="#A3EFFD"/>
<path d="M644 544L646 548H647L644 544Z" fill="#52BADA"/>
<path d="M411 547V550H412L411 547Z" fill="#52BADA"/>
<path d="M411 551V556H412L411 551Z" fill="#A3EFFD"/>
<path d="M410 552V558H411L410 552Z" fill="#52BADA"/>
<path d="M652 557L654 561H655L652 557Z" fill="#52BADA"/>
<path d="M410 560V566H411L410 560Z" fill="#A3EFFD"/>
<path d="M657 567L659 571H660L657 567Z" fill="#A3EFFD"/>
<path d="M409 568V572H410L409 568Z" fill="#52BADA"/>
<path d="M409 572V578H410L409 572Z" fill="#6AD3F0"/>
<path d="M664 577L665 580H666L664 577Z" fill="#52BADA"/>
<path d="M409 578V610H410L409 578Z" fill="#A3EFFD"/>
<path d="M672 594L675 600H676L672 594Z" fill="#A3EFFD"/>
<path d="M686 621V624H687L686 621Z" fill="#A3EFFD"/>
<path d="M410 628V636H411L410 628Z" fill="#A3EFFD"/>
<path d="M690 630L692 636H693L690 630Z" fill="#A3EFFD"/>
<path d="M410 636V640H411L410 636Z" fill="#6AD3F0"/>
<path d="M410 640V648H411L410 640Z" fill="#52BADA"/>
<path d="M411 642V650H412L411 642Z" fill="#A3EFFD"/>
<path d="M413 664V670H414L413 664Z" fill="#A3EFFD"/>
<path d="M413 670V673H414L413 670Z" fill="#6AD3F0"/>
<path d="M710 679L711 683H712L710 679Z" fill="#A3EFFD"/>
<path d="M714 690L715 694H716L714 690Z" fill="#A3EFFD"/>
<path d="M417 696V700H418L417 696Z" fill="#A3EFFD"/>
<path d="M417 702V705H418L417 702Z" fill="#52BADA"/>
<path d="M718 702L719 706H720L718 702Z" fill="#A3EFFD"/>
<path d="M419 708V712H420L419 708Z" fill="#A3EFFD"/>
<path d="M421 720V724H422L421 720Z" fill="#A3EFFD"/>
<path d="M724 721V724H725L724 721Z" fill="#A3EFFD"/>
<path d="M726 728V731H727L726 728Z" fill="#A3EFFD"/>
<path d="M423 730V733H424L423 730Z" fill="#A3EFFD"/>
<path d="M424 739V742H425L424 739Z" fill="#52BADA"/>
<path d="M425 739V743H426L425 739Z" fill="#A3EFFD"/>
<path d="M426 748V751H427L426 748Z" fill="#52BADA"/>
<path d="M431 765V768H432L431 765Z" fill="#A3EFFD"/>
<path d="M445 815L446 820H447L445 815Z" fill="#52BADA"/>
<path d="M464 863L465 866H466L464 863Z" fill="#A3EFFD"/>
<path d="M470 876L471 880H472L470 876Z" fill="#A3EFFD"/>
<path d="M472 881L473 884H474L472 881Z" fill="#A3EFFD"/>
<path d="M474 885L475 888H476L474 885Z" fill="#A3EFFD"/>
<path d="M476 889L477 893H478L476 889Z" fill="#A3EFFD"/>
<path d="M480 898L481 901H482L480 898Z" fill="#A3EFFD"/>
<path d="M488 914L489 917H490L488 914Z" fill="#A3EFFD"/>
<mask id="mask0_635_3049" style="mask-type:alpha" maskUnits="userSpaceOnUse" x="0" y="0" width="1600" height="1600">
<circle cx="800" cy="800" r="800" fill="#D9D9D9"/>
</mask>
<g mask="url(#mask0_635_3049)">
<path d="M0 0V1600H1600V0H0Z" fill="#01BBFB"/>
<path d="M620.999 516C620.261 510.224 615.15 506.169 611.524 501.83C602.956 491.576 593.66 482.113 583.96 472.925C551.941 442.597 501.24 415.026 459.999 444.927C452.485 450.375 446.148 457.492 440.745 465C433.656 474.851 427.851 486.509 423.937 498C405.407 552.404 408.382 610.743 413.829 667C426.439 797.221 482.597 919.892 552.985 1029C576.61 1065.62 601.115 1101.19 627.373 1136C633.746 1144.45 640.163 1152.85 646.915 1161C649.692 1164.35 652.091 1168.41 657.014 1167.6C671.789 1165.18 687.134 1154.41 700.999 1148.8C706.25 1146.67 715.516 1144.04 719.061 1139.44C724.769 1132.05 724.584 1115.99 726.37 1107C732.705 1075.13 736.662 1043.15 741.129 1011C759.545 878.466 742.378 744.523 686.647 622.714C673.793 594.62 658.846 566.179 640.996 540.911C635.456 533.068 629.873 520.396 620.999 516Z" fill="#FEFFFF"/>
<path d="M898 580V581H918L898 580Z" fill="#52BADA"/>
<path d="M896 581V582H921L896 581Z" fill="#A3EFFD"/>
<path d="M890 582V583H893L890 582Z" fill="#A3EFFD"/>
<path d="M879.999 696C883.197 706.72 882.846 718.928 884.288 730C887.291 753.049 890.341 776.098 894.32 799C904.274 856.293 921.734 912.469 946.702 965C964.556 1002.56 988.743 1044.4 1032 1055.71C1078.91 1067.98 1121.04 1019.75 1143.66 985C1184.16 922.762 1197.17 846.912 1190.17 774C1186.8 738.833 1179.59 700.076 1154.61 673.289C1127.24 643.938 1088.67 627.161 1052 612.797C1014.48 598.101 972.797 589.357 932.999 583.714C910.298 580.496 886.54 580.111 866.169 592.309C822.419 618.505 809.46 680.882 799.639 727C779.235 822.809 775.685 919.376 779.96 1017C781.148 1044.13 783.245 1070.98 785.829 1098C787.1 1111.29 786.601 1127.14 790.433 1139.94C791.564 1143.72 795.736 1144.67 798.999 1146.06C808.043 1149.91 817.729 1152.65 826.999 1155.95C836.298 1159.25 845.637 1162.37 854.999 1165.51C858.497 1166.68 863.244 1169.38 866.999 1168.3C875.767 1165.79 885.748 1151.3 891.744 1144.58C909.817 1124.32 928.403 1104.6 946.129 1084C955.106 1073.57 964.36 1063 972.624 1052C975.53 1048.13 980.554 1043.11 977.862 1038C973.152 1029.06 964.345 1021.28 958.426 1013C947.277 997.406 937.531 980.403 929.474 963C891.754 881.524 879.999 784.957 879.999 696Z" fill="#FEFFFF"/>
<path d="M926 582V583H929L926 582Z" fill="#A3EFFD"/>
<path d="M931 582V583H934L931 582Z" fill="#52BADA"/>
<path d="M886 583V584H889L886 583ZM931 583V584H936L931 583Z" fill="#A3EFFD"/>
<path d="M942 584V585H945L942 584Z" fill="#52BADA"/>
<path d="M948 585V586H951L948 585Z" fill="#52BADA"/>
<path d="M954.001 587V588H957.001L954.001 587Z" fill="#A3EFFD"/>
<path d="M963 588V589H966L963 588Z" fill="#52BADA"/>
<path d="M964 589V590H967L964 589Z" fill="#A3EFFD"/>
<path d="M867 590L864 592V593L868 591L867 590Z" fill="#52BADA"/>
<path d="M970 590V591H973L970 590Z" fill="#A3EFFD"/>
<path d="M408 592V607H409L408 592Z" fill="#52BADA"/>
<path d="M983 592V593H986L983 592Z" fill="#52BADA"/>
<path d="M983 593V594H986L983 593Z" fill="#A3EFFD"/>
<path d="M992 594V595H995L992 594Z" fill="#52BADA"/>
<path d="M992 595V596H995L992 595Z" fill="#A3EFFD"/>
<path d="M1000 597V598H1003L1000 597Z" fill="#A3EFFD"/>
<path d="M1005 598V599L1011 600V599L1005 598Z" fill="#A3EFFD"/>
<path d="M1029 605V606H1032L1029 605Z" fill="#A3EFFD"/>
<path d="M1033 606V607L1038 608V607L1033 606Z" fill="#A3EFFD"/>
<path d="M680 608L681 611H682L680 608Z" fill="#52BADA"/>
<path d="M409 610V620H410L409 610Z" fill="#6AD3F0"/>
<path d="M1061 616V617L1065 618V617L1061 616Z" fill="#A3EFFD"/>
<path d="M685 618L686 621H687L685 618Z" fill="#52BADA"/>
<path d="M1066 618V619L1070 620V619L1066 618Z" fill="#A3EFFD"/>
<path d="M409 620V625H410L409 620Z" fill="#52BADA"/>
<path d="M1071 620V621L1075 622V621L1071 620Z" fill="#A3EFFD"/>
<path d="M1078 623V624L1084 626V625L1078 623Z" fill="#A3EFFD"/>
<path d="M832 628L830 633H831L832 628Z" fill="#A3EFFD"/>
<path d="M1097 632V633L1105 637V636L1097 632Z" fill="#A3EFFD"/>
<path d="M1108 637V638L1112 640V639L1108 637Z" fill="#52BADA"/>
<path d="M1111 640L1114 642V641L1111 640Z" fill="#A3EFFD"/>
<path d="M411 652V655H412L411 652Z" fill="#52BADA"/>
<path d="M412 658V662H413L412 658Z" fill="#A3EFFD"/>
<path d="M412 664V671H413L412 664Z" fill="#52BADA"/>
<path d="M1160 680L1162 684H1163L1160 680Z" fill="#A3EFFD"/>
<path d="M414 681V688H415L414 681Z" fill="#52BADA"/>
<path d="M415 681V687H416L415 681Z" fill="#A3EFFD"/>
<path d="M880 696V720H881L880 696Z" fill="#A3EFFD"/>
<path d="M805 699L804 705H805V699Z" fill="#A3EFFD"/>
<path d="M1173 699L1174 703H1175L1173 699Z" fill="#52BADA"/>
<path d="M1174 703L1175 707H1176L1174 703ZM418 704V707H419L418 704Z" fill="#A3EFFD"/>
<path d="M803 707V710H804L803 707Z" fill="#A3EFFD"/>
<path d="M418 709V713H419L418 709ZM881 709L882 731H883L881 709Z" fill="#52BADA"/>
<path d="M722 714V717H723L722 714ZM882 714V717H883L882 714ZM1178 714L1179 718H1180L1178 714Z" fill="#A3EFFD"/>
<path d="M420 716V719H421L420 716ZM801 716V719H802L801 716Z" fill="#A3EFFD"/>
<path d="M881 719V723H882L881 719Z" fill="#6AD3F0"/>
<path d="M882.999 720V725H883.999L882.999 720Z" fill="#A3EFFD"/>
<path d="M798.999 721V724H799.999L798.999 721Z" fill="#52BADA"/>
<path d="M881 723V732H882L881 723Z" fill="#A3EFFD"/>
<path d="M798.999 725V729H799.999L798.999 725Z" fill="#A3EFFD"/>
<path d="M883 725V728H884L883 725Z" fill="#6AD3F0"/>
<path d="M1182 726V729H1183L1182 726Z" fill="#A3EFFD"/>
<path d="M1183 727V730H1184L1183 727Z" fill="#52BADA"/>
<path d="M797 730V734H798L797 730Z" fill="#52BADA"/>
<path d="M883 730V739H884L883 730Z" fill="#01BBFB"/>
<path d="M884 731V734H885L884 731Z" fill="#A3EFFD"/>
<path d="M729 736V739H730L729 736ZM884 736L883 751H884V744H885V747H886L884 736Z" fill="#52BADA"/>
<path d="M885 736V742H886L885 736Z" fill="#A3EFFD"/>
<path d="M882 738V741H883L882 738Z" fill="#6AD3F0"/>
<path d="M1185 739V742H1186L1185 739Z" fill="#A3EFFD"/>
<path d="M882 741V753H883L882 741Z" fill="#A3EFFD"/>
<path d="M730 744V747H731L730 744ZM795 744V748H796L795 744ZM1186 744V748H1187L1186 744Z" fill="#A3EFFD"/>
<path d="M793.999 745V748H794.999L793.999 745Z" fill="#52BADA"/>
<path d="M885.999 746V751H886.999L885.999 746Z" fill="#A3EFFD"/>
<path d="M1187 746V749H1188L1187 746Z" fill="#52BADA"/>
<path d="M427 749V752H428L427 749Z" fill="#A3EFFD"/>
<path d="M883 751V756H884L883 751Z" fill="#6AD3F0"/>
<path d="M732 752V756H733L732 752Z" fill="#A3EFFD"/>
<path d="M885.999 752V756H886.999L885.999 752Z" fill="#52BADA"/>
<path d="M887 752V757H888L887 752Z" fill="#A3EFFD"/>
<path d="M733 753.001V756.001H734L733 753.001Z" fill="#52BADA"/>
<path d="M793 755V759H794L793 755Z" fill="#A3EFFD"/>
<path d="M883 756V760H884L883 756ZM1188 756V760H1189L1188 756Z" fill="#A3EFFD"/>
<path d="M1189 756V761H1190L1189 756Z" fill="#52BADA"/>
<path d="M429 757V760H430L429 757Z" fill="#A3EFFD"/>
<path d="M792 760V763H793L792 760Z" fill="#A3EFFD"/>
<path d="M734 761V764H735L734 761Z" fill="#A3EFFD"/>
<path d="M735 762V765H736L735 762ZM791 762V765H792L791 762ZM884 762V765H885L884 762Z" fill="#52BADA"/>
<path d="M888 762V765H889L888 762ZM1189 762V765H1190L1189 762Z" fill="#A3EFFD"/>
<path d="M884 765V768H885L884 765Z" fill="#6AD3F0"/>
<path d="M790.999 766V770H791.999L790.999 766Z" fill="#A3EFFD"/>
<path d="M888 766V771H889L888 766Z" fill="#52BADA"/>
<path d="M889 766V771H890L889 766Z" fill="#A3EFFD"/>
<path d="M789.999 767.001V771.001H790.999L789.999 767.001Z" fill="#52BADA"/>
<path d="M884 768V776H885L884 768Z" fill="#A3EFFD"/>
<path d="M1190 768V771H1191L1190 768Z" fill="#6AD3F0"/>
<path d="M885 769V776H886L885 769Z" fill="#52BADA"/>
<path d="M736 771V775H737L736 771Z" fill="#A3EFFD"/>
<path d="M1190 771V777H1191L1190 771Z" fill="#A3EFFD"/>
<path d="M433 772V775H434L433 772Z" fill="#A3EFFD"/>
<path d="M1191 772V777H1192L1191 772Z" fill="#52BADA"/>
<path d="M737 776V779H738L737 776Z" fill="#A3EFFD"/>
<path d="M885 776V779H886L885 776Z" fill="#6AD3F0"/>
<path d="M738 777V781H739L738 777Z" fill="#52BADA"/>
<path d="M789 778V783H790L789 778Z" fill="#A3EFFD"/>
<path d="M885 779V783H886L885 779Z" fill="#A3EFFD"/>
<path d="M890 779V783H891L890 779Z" fill="#52BADA"/>
<path d="M1191 779V784H1192L1191 779Z" fill="#A3EFFD"/>
<path d="M788 780V784H789L788 780Z" fill="#52BADA"/>
<path d="M891 780V784H892L891 780Z" fill="#A3EFFD"/>
<path d="M738 782V786H739L738 782Z" fill="#A3EFFD"/>
<path d="M788 784V787H789L788 784Z" fill="#A3EFFD"/>
<path d="M886 784V787H887L886 784Z" fill="#52BADA"/>
<path d="M890.999 785V790H891.999L890.999 785ZM1192 785V791H1193L1192 785Z" fill="#52BADA"/>
<path d="M738.999 787V791H739.999L738.999 787Z" fill="#A3EFFD"/>
<path d="M886 789V796H887L886 789Z" fill="#A3EFFD"/>
<path d="M887 791V796H888L887 791Z" fill="#52BADA"/>
<path d="M1192 791V796H1193L1192 791Z" fill="#6AD3F0"/>
<path d="M786 792V797H787L786 792Z" fill="#52BADA"/>
<path d="M787 792V796H788L787 792Z" fill="#A3EFFD"/>
<path d="M892 792V795H893L892 792Z" fill="#52BADA"/>
<path d="M893 792V795H894L893 792Z" fill="#A3EFFD"/>
<path d="M739.999 794.001V799.001H740.999L739.999 794.001Z" fill="#A3EFFD"/>
<path d="M741 795V799H742L741 795Z" fill="#52BADA"/>
<path d="M1192 796V827H1193L1192 796Z" fill="#A3EFFD"/>
<path d="M887 797V801H888L887 797Z" fill="#A3EFFD"/>
<path d="M786 798V802H787L786 798Z" fill="#A3EFFD"/>
<path d="M740.999 800V803H741.999L740.999 800Z" fill="#A3EFFD"/>
<path d="M1193 800V817H1194L1193 800Z" fill="#52BADA"/>
<path d="M893.999 803V806H894.999L893.999 803Z" fill="#52BADA"/>
<path d="M895 803V807H896L895 803Z" fill="#A3EFFD"/>
<path d="M888 806V812H889L888 806ZM785 807V812H786L785 807Z" fill="#A3EFFD"/>
<path d="M742 808V815H743L742 808Z" fill="#A3EFFD"/>
<path d="M784 808V813H785L784 808ZM889 808V812H890L889 808ZM743 809V815H744L743 809Z" fill="#52BADA"/>
<path d="M889 813V816H890L889 813Z" fill="#A3EFFD"/>
<path d="M896 813V816H897L896 813Z" fill="#52BADA"/>
<path d="M897 813V816H898L897 813Z" fill="#A3EFFD"/>
<path d="M784 814V818H785L784 814Z" fill="#A3EFFD"/>
<path d="M743 816V821H744L743 816Z" fill="#A3EFFD"/>
<path d="M744 821V824H745L744 821Z" fill="#52BADA"/>
<path d="M783 821V824H784L783 821Z" fill="#6AD3F0"/>
<path d="M890 821V826H891L890 821Z" fill="#A3EFFD"/>
<path d="M891 823V826H892L891 823ZM898 823V826H899L898 823Z" fill="#52BADA"/>
<path d="M899 823V826H900L899 823Z" fill="#A3EFFD"/>
<path d="M744 824V827H745L744 824Z" fill="#6AD3F0"/>
<path d="M782 824V832H783L782 824Z" fill="#52BADA"/>
<path d="M783 824V831H784L783 824Z" fill="#A3EFFD"/>
<path d="M744 827V836H745L744 827Z" fill="#A3EFFD"/>
<path d="M1192 827V832H1193L1192 827Z" fill="#6AD3F0"/>
<path d="M891 828V831H892L891 828Z" fill="#A3EFFD"/>
<path d="M745 831V835H746L745 831Z" fill="#52BADA"/>
<path d="M901 832V835H902L901 832Z" fill="#A3EFFD"/>
<path d="M1192 832V836H1193L1192 832Z" fill="#52BADA"/>
<path d="M782 833V838H783L782 833Z" fill="#A3EFFD"/>
<path d="M892 834L893 843H894L892 834Z" fill="#A3EFFD"/>
<path d="M893 836V839H894L893 836Z" fill="#52BADA"/>
<path d="M745 837V843H746L745 837Z" fill="#A3EFFD"/>
<path d="M781 838V841H782L781 838Z" fill="#52BADA"/>
<path d="M1191 838V843H1192L1191 838Z" fill="#A3EFFD"/>
<path d="M902 840V843H903L902 840Z" fill="#52BADA"/>
<path d="M781 841V845H782L781 841Z" fill="#6AD3F0"/>
<path d="M894 842V845H895L894 842Z" fill="#52BADA"/>
<path d="M746 844V848H747L746 844Z" fill="#52BADA"/>
<path d="M781 845V854H782L781 845Z" fill="#A3EFFD"/>
<path d="M1190 845V852H1191L1190 845Z" fill="#A3EFFD"/>
<path d="M1191 845V852H1192L1191 845Z" fill="#52BADA"/>
<path d="M894 846V849H895L894 846Z" fill="#A3EFFD"/>
<path d="M904 847L905 852H906L904 847ZM458 848L459 852H460L458 848Z" fill="#A3EFFD"/>
<path d="M746 848V853H747L746 848Z" fill="#6AD3F0"/>
<path d="M780 848V853H781L780 848Z" fill="#52BADA"/>
<path d="M895 851V854H896L895 851Z" fill="#A3EFFD"/>
<path d="M746 853V865H747L746 853Z" fill="#A3EFFD"/>
<path d="M780 853V856H781L780 853Z" fill="#6AD3F0"/>
<path d="M1190 854V857H1191L1190 854Z" fill="#52BADA"/>
<path d="M747 856V868H748L747 856Z" fill="#52BADA"/>
<path d="M780 856V861H781L780 856ZM896 856V859H897L896 856Z" fill="#A3EFFD"/>
<path d="M897 857V861H898L897 857Z" fill="#52BADA"/>
<path d="M907 857V860H908L907 857ZM1189 857V860H1190L1189 857Z" fill="#A3EFFD"/>
<path d="M908 862L909 867H910L908 862ZM1188 862V866H1189L1188 862Z" fill="#A3EFFD"/>
<path d="M1189 862V865H1190L1189 862Z" fill="#52BADA"/>
<path d="M778.999 864V868H779.999L778.999 864Z" fill="#52BADA"/>
<path d="M898 867V870H899L898 867Z" fill="#A3EFFD"/>
<path d="M747 868V874H748L747 868Z" fill="#6AD3F0"/>
<path d="M778.999 870.001V881.001H779.999L778.999 870.001Z" fill="#A3EFFD"/>
<path d="M778 873V884H779L778 873Z" fill="#52BADA"/>
<path d="M747 874V895H748L747 874Z" fill="#A3EFFD"/>
<path d="M1186 874V878H1187L1186 874Z" fill="#A3EFFD"/>
<path d="M1187 874V877H1188L1187 874Z" fill="#52BADA"/>
<path d="M900 875V878H901L900 875Z" fill="#A3EFFD"/>
<path d="M912 875V878H913L912 875Z" fill="#A3EFFD"/>
<path d="M901 879V882H902L901 879Z" fill="#A3EFFD"/>
<path d="M778 884V888H779L778 884Z" fill="#6AD3F0"/>
<path d="M1184 885V888H1185L1184 885Z" fill="#A3EFFD"/>
<path d="M778 888V896H779L778 888Z" fill="#A3EFFD"/>
<path d="M1183 889L1182 896H1183V889Z" fill="#A3EFFD"/>
<path d="M904 891L905 897H906L904 891Z" fill="#A3EFFD"/>
<path d="M1183 893V896H1184L1183 893Z" fill="#52BADA"/>
<path d="M918 895L919 900H920L918 895Z" fill="#A3EFFD"/>
<path d="M1181 898L1180 903H1181V898Z" fill="#A3EFFD"/>
<path d="M906 899L907 904H908L906 899Z" fill="#A3EFFD"/>
<path d="M777 900V908H778L777 900Z" fill="#52BADA"/>
<path d="M1179 905L1178 910H1179V905Z" fill="#A3EFFD"/>
<path d="M777 908V919H778L777 908Z" fill="#6AD3F0"/>
<path d="M910 910L911 914H912L910 910Z" fill="#52BADA"/>
<path d="M747 912V930H748L747 912Z" fill="#A3EFFD"/>
<path d="M910 912L911 917H912L910 912Z" fill="#A3EFFD"/>
</g>
<path d="M926 917L927 921H928L926 917Z" fill="#A3EFFD"/>
<path d="M777 919V976H778V937L777 919Z" fill="#A3EFFD"/>
<path d="M1173 923L1172 928H1173V923Z" fill="#A3EFFD"/>
<path d="M776 926V965H777C777 953.828 780.311 936.274 776 926Z" fill="#52BADA"/>
<path d="M1171 929L1170 933H1171V929ZM496 930L497 933H498L496 930Z" fill="#A3EFFD"/>
<path d="M747 930V936H748L747 930Z" fill="#6AD3F0"/>
<path d="M498 934L500 938H501L498 934Z" fill="#A3EFFD"/>
<path d="M1169 934L1168 938H1169V934Z" fill="#A3EFFD"/>
<path d="M746 936V952H747L746 936Z" fill="#A3EFFD"/>
<path d="M747 936V948H748L747 936Z" fill="#52BADA"/>
<path d="M918 936L919 940H920L918 936Z" fill="#A3EFFD"/>
<path d="M1166 941L1165 945H1166V941Z" fill="#A3EFFD"/>
<path d="M936 942L937 946H938L936 942Z" fill="#A3EFFD"/>
<path d="M504 945L505 948H506L504 945Z" fill="#A3EFFD"/>
<path d="M922 946L923 950H924L922 946Z" fill="#A3EFFD"/>
<path d="M506 949L507 952H508L506 949Z" fill="#A3EFFD"/>
<path d="M746 952V956H747L746 952Z" fill="#6AD3F0"/>
<path d="M1161 953L1158 960H1159L1161 953Z" fill="#A3EFFD"/>
<path d="M510 956L511 959H512L510 956Z" fill="#A3EFFD"/>
<path d="M746 956V966H747L746 956Z" fill="#52BADA"/>
<path d="M512 960L513 963H514L512 960Z" fill="#A3EFFD"/>
<path d="M929 962L931 967H932L929 962Z" fill="#A3EFFD"/>
<path d="M745 963V968H746L745 963Z" fill="#A3EFFD"/>
<path d="M745 968V972H746L745 968Z" fill="#6AD3F0"/>
<path d="M1153 968L1150 974H1151L1153 968Z" fill="#A3EFFD"/>
<path d="M744 970V981H745L744 970Z" fill="#A3EFFD"/>
<path d="M745 972V977H746L745 972Z" fill="#52BADA"/>
<path d="M950 972L951 976H952L950 972Z" fill="#A3EFFD"/>
<path d="M1149 975L1147 979H1148L1149 975Z" fill="#A3EFFD"/>
<path d="M777 976V986H778L777 976Z" fill="#6AD3F0"/>
<path d="M938 979L941 985H942L938 979Z" fill="#52BADA"/>
<path d="M744 981V984H745L744 981Z" fill="#6AD3F0"/>
<path d="M524 983L527 989H528L524 983Z" fill="#52BADA"/>
<path d="M744 984V987H745L744 984Z" fill="#52BADA"/>
<path d="M777 986V993H778L777 986Z" fill="#52BADA"/>
<path d="M743 987V993H744L743 987Z" fill="#A3EFFD"/>
<path d="M958 988L959 991H960L958 988Z" fill="#A3EFFD"/>
<path d="M528 990V992H530L528 990Z" fill="#52BADA"/>
<path d="M1140 990L1135 998C1138.07 996.023 1140.63 993.855 1140 990Z" fill="#52BADA"/>
<path d="M944 991L946 995H947L944 991Z" fill="#A3EFFD"/>
<path d="M778 992V1008H779L778 992Z" fill="#A3EFFD"/>
<path d="M531 995L533 999H534L531 995Z" fill="#52BADA"/>
<path d="M743 995V1001H744L743 995Z" fill="#52BADA"/>
<path d="M742 997V1003H743L742 997Z" fill="#A3EFFD"/>
<path d="M538 1005L540 1009H541L538 1005Z" fill="#A3EFFD"/>
<path d="M742 1005V1009H743L742 1005Z" fill="#52BADA"/>
<path d="M741 1008V1012H742L741 1008Z" fill="#A3EFFD"/>
<path d="M778 1008V1012H779L778 1008Z" fill="#6AD3F0"/>
<path d="M778 1012V1022H779L778 1012Z" fill="#52BADA"/>
<path d="M779 1012V1025H780L779 1012Z" fill="#A3EFFD"/>
<path d="M741 1014V1019H742L741 1014Z" fill="#52BADA"/>
<path d="M543 1015L545 1019H546L543 1015Z" fill="#52BADA"/>
<path d="M740 1015V1020H741L740 1015Z" fill="#A3EFFD"/>
<path d="M1120 1015L1098 1037C1104.8 1032.5 1118.03 1023.11 1120 1015Z" fill="#A3EFFD"/>
<path d="M740 1020V1023H741L740 1020Z" fill="#6AD3F0"/>
<path d="M1116 1020L1115 1022H1117L1116 1020Z" fill="#52BADA"/>
<path d="M779 1025V1031H780L779 1025Z" fill="#6AD3F0"/>
<path d="M739 1026V1029H740L739 1026Z" fill="#A3EFFD"/>
<path d="M739 1030V1036H740L739 1030Z" fill="#52BADA"/>
<path d="M554 1031L555 1034H556L554 1031Z" fill="#A3EFFD"/>
<path d="M779 1031V1035H780L779 1031Z" fill="#52BADA"/>
<path d="M738 1032V1036H739L738 1032Z" fill="#A3EFFD"/>
<path d="M780 1037V1043H781L780 1037Z" fill="#A3EFFD"/>
<path d="M979 1041L976 1047L981 1041H979Z" fill="#A3EFFD"/>
<path d="M560 1042V1044H562L560 1042Z" fill="#52BADA"/>
<path d="M1088 1042V1044L1090 1042H1088Z" fill="#A3EFFD"/>
<path d="M1004 1043L1009 1047V1046L1004 1043Z" fill="#52BADA"/>
<path d="M737 1045V1050H738L737 1045ZM780 1045V1053H781L780 1045Z" fill="#52BADA"/>
<path d="M736 1046V1051H737L736 1046Z" fill="#A3EFFD"/>
<path d="M781 1047V1056H782L781 1047Z" fill="#A3EFFD"/>
<path d="M1019 1052V1053L1023 1054V1053L1019 1052Z" fill="#52BADA"/>
<path d="M1070 1053V1054H1073L1070 1053Z" fill="#52BADA"/>
<path d="M1026 1054V1055L1031 1056V1055L1026 1054Z" fill="#A3EFFD"/>
<path d="M781 1056V1060H782L781 1056Z" fill="#6AD3F0"/>
<path d="M1033 1056V1057H1036L1033 1056ZM1052 1057V1058L1061 1057H1052Z" fill="#A3EFFD"/>
<path d="M1033 1057V1058H1037L1033 1057Z" fill="#52BADA"/>
<path d="M1038 1057V1058H1041L1038 1057Z" fill="#A3EFFD"/>
<path d="M1057 1057V1058H1060L1057 1057Z" fill="#52BADA"/>
<path d="M1042 1058V1059H1050L1042 1058Z" fill="#52BADA"/>
<path d="M735 1059V1065H736L735 1059Z" fill="#52BADA"/>
<path d="M734 1060V1064H735L734 1060Z" fill="#A3EFFD"/>
<path d="M781 1060V1063H782L781 1060Z" fill="#52BADA"/>
<path d="M782 1064V1069H783L782 1064Z" fill="#A3EFFD"/>
<path d="M733 1067V1070H734L733 1067Z" fill="#A3EFFD"/>
<path d="M782 1069V1072H783L782 1069Z" fill="#6AD3F0"/>
<path d="M732 1072V1077H733L732 1072Z" fill="#A3EFFD"/>
<path d="M733 1072V1076H734L733 1072ZM782 1072V1080H783L782 1072Z" fill="#52BADA"/>
<path d="M783 1072V1080H784L783 1072Z" fill="#A3EFFD"/>
<path d="M783 1080V1083H784L783 1080Z" fill="#6AD3F0"/>
<path d="M783 1083V1088H784L783 1083Z" fill="#52BADA"/>
<path d="M730 1084V1088H731L730 1084Z" fill="#A3EFFD"/>
<path d="M731 1084V1088H732L731 1084Z" fill="#52BADA"/>
<path d="M784 1088V1092H785L784 1088Z" fill="#A3EFFD"/>
<path d="M729 1091V1094H730L729 1091Z" fill="#A3EFFD"/>
<path d="M784 1094V1100H785L784 1094Z" fill="#52BADA"/>
<path d="M937 1094L931 1102H932L937 1094ZM728 1095V1099H729L728 1095Z" fill="#A3EFFD"/>
<path d="M729 1095V1098H730L729 1095Z" fill="#52BADA"/>
<path d="M785 1095V1101H786L785 1095Z" fill="#A3EFFD"/>
<path d="M785 1101V1104H786L785 1101Z" fill="#6AD3F0"/>
<path d="M727 1103L726 1109H727V1103Z" fill="#A3EFFD"/>
<path d="M785 1104V1107H786L785 1104Z" fill="#52BADA"/>
<path d="M786 1108V1112H787L786 1108Z" fill="#A3EFFD"/>
<path d="M786.999 1113V1120H787.999L786.999 1113Z" fill="#A3EFFD"/>
<path d="M786 1114V1117H787L786 1114Z" fill="#52BADA"/>
<path d="M724 1116V1120H725L724 1116Z" fill="#A3EFFD"/>
<path d="M725 1116V1119H726L725 1116Z" fill="#52BADA"/>
<path d="M787 1120V1123H788L787 1120Z" fill="#6AD3F0"/>
<path d="M788 1125L789 1138H790L788 1125Z" fill="#A3EFFD"/>
<path d="M722 1126V1129H723L722 1126Z" fill="#A3EFFD"/>
<path d="M723 1126V1129H724L723 1126Z" fill="#52BADA"/>
<path d="M721 1132V1135H722L721 1132Z" fill="#A3EFFD"/>
<path d="M788 1132V1135H789L788 1132Z" fill="#52BADA"/>
<path d="M627 1137V1139H629L627 1137Z" fill="#52BADA"/>
<path d="M789 1140L790 1144H791L789 1140Z" fill="#52BADA"/>
<path d="M712 1143V1144L716 1143H712Z" fill="#A3EFFD"/>
<path d="M794 1144V1145L798 1146V1145L794 1144Z" fill="#A3EFFD"/>
<path d="M802 1148V1149L807 1150V1149L802 1148Z" fill="#52BADA"/>
<path d="M694 1151V1152L698 1151H694Z" fill="#A3EFFD"/>
<path d="M814 1152V1153L818 1154V1153L814 1152Z" fill="#52BADA"/>
<path d="M685 1155V1156L689 1155H685Z" fill="#A3EFFD"/>
<path d="M822 1154V1155L826 1156V1155L822 1154Z" fill="#A3EFFD"/>
<path d="M880 1156L865 1169V1170C870.6 1168.43 878.601 1161.77 880 1156Z" fill="#A3EFFD"/>
<path d="M834 1158V1159L837 1160L834 1158Z" fill="#A3EFFD"/>
<path d="M667 1163V1164L671 1163H667Z" fill="#A3EFFD"/>
<path d="M648 1164L651 1169H652L648 1164Z" fill="#52BADA"/>
<path d="M856 1166V1167L861 1168V1167L856 1166Z" fill="#A3EFFD"/>
<path d="M653 1168V1169H657L653 1168Z" fill="#A3EFFD"/>
</g>
<defs>
<clipPath id="clip0_635_3049">
<rect width="1600" height="1600" fill="white"/>
</clipPath>
</defs>
</svg>