<svg xmlns="http://www.w3.org/2000/svg" version="1.1" viewBox="0.00 0.00 150.00 150.00" width="150" height="150">
<g stroke-width="2.00" fill="none" stroke-linecap="butt">
<path stroke="#ddbd6c" vector-effect="non-scaling-stroke" d="
  M 73.35 0.00
  Q 71.59 3.26 71.82 6.02
  A 3.42 2.78 86.0 0 0 74.77 9.17
  Q 75.34 9.14 75.54 9.65
  Q 75.68 10.01 76.02 10.20
  Q 77.71 11.17 78.81 12.69"
/>
<path stroke="#66552a" vector-effect="non-scaling-stroke" d="
  M 78.81 12.69
  Q 41.79 11.95 22.53 41.29
  Q 12.18 57.05 12.75 76.32
  C 13.50 102.02 28.75 122.94 52.55 132.98"
/>
<path stroke="#ddbd6c" vector-effect="non-scaling-stroke" d="
  M 52.55 132.98
  Q 52.00 133.39 52.29 134.24
  Q 52.43 134.66 52.02 134.84
  Q 51.41 135.11 51.22 135.50
  Q 48.99 140.22 48.44 145.37"
/>
<path stroke="#776942" vector-effect="non-scaling-stroke" d="
  M 52.55 132.98
  Q 76.91 141.60 99.30 132.02
  C 130.88 118.50 145.75 81.76 132.10 50.38
  C 122.59 28.51 102.79 14.96 78.81 12.69"
/>
<path stroke="#71623b" vector-effect="non-scaling-stroke" d="
  M 38.41 120.06
  Q 61.30 137.66 89.39 131.18"
/>
<path stroke="#776942" vector-effect="non-scaling-stroke" d="
  M 89.39 131.18
  C 141.16 116.73 148.81 48.46 101.33 23.15
  Q 92.23 18.29 81.04 17.17"
/>
<path stroke="#6b5a30" vector-effect="non-scaling-stroke" d="
  M 81.04 17.17
  C 42.48 13.18 11.41 46.95 17.71 84.74
  Q 21.21 105.78 38.41 120.06"
/>
<path stroke="#e2c372" vector-effect="non-scaling-stroke" d="
  M 81.04 17.17
  Q 78.76 17.68 77.76 19.21
  Q 77.51 19.60 77.11 19.85
  Q 76.36 20.31 76.09 21.43
  Q 75.97 21.87 76.15 22.30
  Q 77.02 24.42 76.65 26.64
  Q 76.57 27.15 76.13 27.43
  Q 72.76 29.52 70.63 33.63
  Q 70.17 34.51 68.97 34.35
  A 0.60 0.60 0.0 0 0 68.30 34.82
  L 67.82 37.09"
/>
<path stroke="#6b5a30" vector-effect="non-scaling-stroke" d="
  M 67.82 37.09
  Q 67.97 34.88 67.10 33.05
  Q 66.92 32.67 66.51 32.58
  Q 63.50 31.96 63.51 34.76
  Q 63.53 42.58 63.49 50.50
  Q 63.49 51.00 62.99 51.00
  L 45.27 51.00
  A 2.51 2.51 0.0 0 0 42.76 53.51
  L 42.81 98.16"
/>
<path stroke="#dbbc6b" vector-effect="non-scaling-stroke" d="
  M 42.81 98.16
  Q 41.10 99.55 40.87 105.56
  A 0.11 0.11 0.0 0 0 41.08 105.61
  Q 41.42 104.93 41.63 109.25
  Q 41.68 110.35 40.85 111.33
  Q 40.53 111.70 40.46 112.18
  Q 40.15 114.32 38.66 117.49
  Q 38.21 118.45 38.89 119.60
  Q 39.01 119.81 38.78 119.87
  Q 38.61 119.92 38.41 120.06"
/>
<path stroke="#71623b" vector-effect="non-scaling-stroke" d="
  M 80.31 55.27
  L 47.23 55.28
  Q 46.75 55.28 46.75 55.77
  L 46.76 94.00
  Q 46.76 94.50 47.25 94.50
  L 102.50 94.51
  Q 103.00 94.51 103.00 94.00
  L 103.00 77.00
  A 0.51 0.50 -90.0 0 0 102.50 76.49
  L 66.23 76.50
  Q 64.14 76.50 63.89 74.44
  L 63.83 74.00
  A 1.49 1.48 -4.0 0 1 65.28 72.34
  L 72.04 72.21"
/>
<path stroke="#71623b" vector-effect="non-scaling-stroke" d="
  M 85.91 116.22
  Q 84.84 117.93 83.03 116.73
  A 1.78 1.78 0.0 0 1 82.24 115.25
  L 82.25 99.25
  A 0.50 0.50 0.0 0 0 81.75 98.75
  L 68.26 98.75
  A 0.49 0.49 0.0 0 0 67.77 99.24
  L 67.70 115.67
  Q 67.70 117.55 65.83 117.29
  L 65.25 117.20
  A 2.02 2.02 0.0 0 1 63.51 115.20
  L 63.50 99.47
  A 0.82 0.82 0.0 0 0 62.63 98.65
  Q 52.53 99.16 42.81 98.16"
/>
<path stroke="#e8ca7d" vector-effect="non-scaling-stroke" d="
  M 89.39 131.18
  Q 88.30 129.42 87.94 127.40
  Q 87.90 127.18 87.69 127.10
  Q 87.50 127.03 87.38 126.87
  A 0.38 0.14 51.1 0 1 87.25 126.50
  Q 87.34 126.41 87.43 126.32
  Q 87.48 126.27 87.43 126.21
  L 85.16 123.39
  Q 84.86 123.02 84.95 122.55
  L 85.34 120.44
  Q 85.40 120.16 85.19 119.95
  Q 84.94 119.71 84.83 119.39
  A 0.35 0.34 65.8 0 1 84.98 118.98
  Q 85.82 118.49 85.54 118.29
  Q 85.15 118.01 85.34 117.57
  L 85.91 116.22"
/>
<path stroke="#776942" vector-effect="non-scaling-stroke" d="
  M 85.91 116.22
  L 86.28 99.23
  Q 86.29 98.75 86.77 98.75
  L 104.99 98.75
  A 2.25 2.24 0.0 0 0 107.24 96.51
  L 107.26 74.98
  A 2.75 2.75 0.0 0 0 104.52 72.23
  L 72.04 72.21"
/>
<path stroke="#e8ca7d" vector-effect="non-scaling-stroke" d="
  M 72.04 72.21
  Q 73.19 72.24 73.95 71.89
  Q 74.38 71.69 74.22 71.24
  Q 73.59 69.61 73.87 67.89
  C 74.08 66.60 75.07 65.65 75.18 64.03
  Q 75.21 63.59 75.43 63.20
  Q 76.21 61.83 76.96 60.47
  Q 77.19 60.06 76.82 59.77
  Q 76.48 59.51 76.79 59.20
  Q 77.38 58.60 77.39 57.70
  Q 77.41 57.13 77.96 57.07
  Q 78.64 56.99 78.91 56.52
  Q 79.05 56.29 79.28 56.16
  Q 79.94 55.83 80.31 55.27"
/>
<path stroke="#776942" vector-effect="non-scaling-stroke" d="
  M 80.31 55.27
  L 105.02 55.18
  A 2.01 2.01 0.0 0 0 107.02 53.14
  L 107.01 52.54
  A 1.47 1.46 89.8 0 0 105.56 51.09
  L 86.46 50.95
  A 0.24 0.24 0.0 0 1 86.23 50.71
  L 86.25 34.75
  A 2.06 2.05 2.2 0 0 84.34 32.69
  L 83.72 32.64
  A 1.38 1.38 0.0 0 0 82.24 34.02
  L 82.25 50.50
  Q 82.25 50.99 81.75 50.99
  L 68.28 50.99
  Q 67.81 50.99 67.81 50.53
  L 67.82 37.09"
/>
</g>
<path fill="#cba954" d="
  M 67.38 0.00
  L 73.35 0.00
  Q 71.59 3.26 71.82 6.02
  A 3.42 2.78 86.0 0 0 74.77 9.17
  Q 75.34 9.14 75.54 9.65
  Q 75.68 10.01 76.02 10.20
  Q 77.71 11.17 78.81 12.69
  Q 41.79 11.95 22.53 41.29
  Q 12.18 57.05 12.75 76.32
  C 13.50 102.02 28.75 122.94 52.55 132.98
  Q 52.00 133.39 52.29 134.24
  Q 52.43 134.66 52.02 134.84
  Q 51.41 135.11 51.22 135.50
  Q 48.99 140.22 48.44 145.37
  Q 11.45 130.10 1.67 91.59
  C 1.01 89.01 0.85 85.60 0.00 82.62
  L 0.00 68.01
  Q 1.41 59.02 2.26 56.01
  C 9.27 31.43 25.83 13.13 49.61 4.25
  Q 55.88 1.91 60.50 1.20
  Q 65.96 0.37 67.38 0.00
  Z"
/>
<path fill="#eed184" d="
  M 73.35 0.00
  L 81.98 0.00
  Q 90.41 1.25 94.75 2.49
  C 122.14 10.34 142.30 31.49 148.49 59.20
  C 148.98 61.42 149.23 64.66 150.00 67.38
  L 150.00 81.99
  Q 148.39 92.09 147.63 94.59
  Q 136.03 132.76 98.93 146.27
  C 96.69 147.08 94.00 147.62 91.58 148.27
  C 88.81 149.01 85.60 149.15 82.62 150.00
  L 68.02 150.00
  Q 55.81 148.24 52.25 146.68
  Q 50.40 145.86 48.44 145.37
  Q 48.99 140.22 51.22 135.50
  Q 51.41 135.11 52.02 134.84
  Q 52.43 134.66 52.29 134.24
  Q 52.00 133.39 52.55 132.98
  Q 76.91 141.60 99.30 132.02
  C 130.88 118.50 145.75 81.76 132.10 50.38
  C 122.59 28.51 102.79 14.96 78.81 12.69
  Q 77.71 11.17 76.02 10.20
  Q 75.68 10.01 75.54 9.65
  Q 75.34 9.14 74.77 9.17
  A 3.42 2.78 86.0 0 1 71.82 6.02
  Q 71.59 3.26 73.35 0.00
  Z"
/>
<path fill="#000000" d="
  M 78.81 12.69
  C 102.79 14.96 122.59 28.51 132.10 50.38
  C 145.75 81.76 130.88 118.50 99.30 132.02
  Q 76.91 141.60 52.55 132.98
  C 28.75 122.94 13.50 102.02 12.75 76.32
  Q 12.18 57.05 22.53 41.29
  Q 41.79 11.95 78.81 12.69
  Z
  M 38.41 120.06
  Q 61.30 137.66 89.39 131.18
  C 141.16 116.73 148.81 48.46 101.33 23.15
  Q 92.23 18.29 81.04 17.17
  C 42.48 13.18 11.41 46.95 17.71 84.74
  Q 21.21 105.78 38.41 120.06
  Z"
/>
<path fill="#d5b45f" d="
  M 81.04 17.17
  Q 78.76 17.68 77.76 19.21
  Q 77.51 19.60 77.11 19.85
  Q 76.36 20.31 76.09 21.43
  Q 75.97 21.87 76.15 22.30
  Q 77.02 24.42 76.65 26.64
  Q 76.57 27.15 76.13 27.43
  Q 72.76 29.52 70.63 33.63
  Q 70.17 34.51 68.97 34.35
  A 0.60 0.60 0.0 0 0 68.30 34.82
  L 67.82 37.09
  Q 67.97 34.88 67.10 33.05
  Q 66.92 32.67 66.51 32.58
  Q 63.50 31.96 63.51 34.76
  Q 63.53 42.58 63.49 50.50
  Q 63.49 51.00 62.99 51.00
  L 45.27 51.00
  A 2.51 2.51 0.0 0 0 42.76 53.51
  L 42.81 98.16
  Q 41.10 99.55 40.87 105.56
  A 0.11 0.11 0.0 0 0 41.08 105.61
  Q 41.42 104.93 41.63 109.25
  Q 41.68 110.35 40.85 111.33
  Q 40.53 111.70 40.46 112.18
  Q 40.15 114.32 38.66 117.49
  Q 38.21 118.45 38.89 119.60
  Q 39.01 119.81 38.78 119.87
  Q 38.61 119.92 38.41 120.06
  Q 21.21 105.78 17.71 84.74
  C 11.41 46.95 42.48 13.18 81.04 17.17
  Z"
/>
<path fill="#eed184" d="
  M 81.04 17.17
  Q 92.23 18.29 101.33 23.15
  C 148.81 48.46 141.16 116.73 89.39 131.18
  Q 88.30 129.42 87.94 127.40
  Q 87.90 127.18 87.69 127.10
  Q 87.50 127.03 87.38 126.87
  A 0.38 0.14 51.1 0 1 87.25 126.50
  Q 87.34 126.41 87.43 126.32
  Q 87.48 126.27 87.43 126.21
  L 85.16 123.39
  Q 84.86 123.02 84.95 122.55
  L 85.34 120.44
  Q 85.40 120.16 85.19 119.95
  Q 84.94 119.71 84.83 119.39
  A 0.35 0.34 65.8 0 1 84.98 118.98
  Q 85.82 118.49 85.54 118.29
  Q 85.15 118.01 85.34 117.57
  L 85.91 116.22
  L 86.28 99.23
  Q 86.29 98.75 86.77 98.75
  L 104.99 98.75
  A 2.25 2.24 0.0 0 0 107.24 96.51
  L 107.26 74.98
  A 2.75 2.75 0.0 0 0 104.52 72.23
  L 72.04 72.21
  Q 73.19 72.24 73.95 71.89
  Q 74.38 71.69 74.22 71.24
  Q 73.59 69.61 73.87 67.89
  C 74.08 66.60 75.07 65.65 75.18 64.03
  Q 75.21 63.59 75.43 63.20
  Q 76.21 61.83 76.96 60.47
  Q 77.19 60.06 76.82 59.77
  Q 76.48 59.51 76.79 59.20
  Q 77.38 58.60 77.39 57.70
  Q 77.41 57.13 77.96 57.07
  Q 78.64 56.99 78.91 56.52
  Q 79.05 56.29 79.28 56.16
  Q 79.94 55.83 80.31 55.27
  L 105.02 55.18
  A 2.01 2.01 0.0 0 0 107.02 53.14
  L 107.01 52.54
  A 1.47 1.46 89.8 0 0 105.56 51.09
  L 86.46 50.95
  A 0.24 0.24 0.0 0 1 86.23 50.71
  L 86.25 34.75
  A 2.06 2.05 2.2 0 0 84.34 32.69
  L 83.72 32.64
  A 1.38 1.38 0.0 0 0 82.24 34.02
  L 82.25 50.50
  Q 82.25 50.99 81.75 50.99
  L 68.28 50.99
  Q 67.81 50.99 67.81 50.53
  L 67.82 37.09
  L 68.30 34.82
  A 0.60 0.60 0.0 0 1 68.97 34.35
  Q 70.17 34.51 70.63 33.63
  Q 72.76 29.52 76.13 27.43
  Q 76.57 27.15 76.65 26.64
  Q 77.02 24.42 76.15 22.30
  Q 75.97 21.87 76.09 21.43
  Q 76.36 20.31 77.11 19.85
  Q 77.51 19.60 77.76 19.21
  Q 78.76 17.68 81.04 17.17
  Z"
/>
<path fill="#000000" d="
  M 67.82 37.09
  L 67.81 50.53
  Q 67.81 50.99 68.28 50.99
  L 81.75 50.99
  Q 82.25 50.99 82.25 50.50
  L 82.24 34.02
  A 1.38 1.38 0.0 0 1 83.72 32.64
  L 84.34 32.69
  A 2.06 2.05 2.2 0 1 86.25 34.75
  L 86.23 50.71
  A 0.24 0.24 0.0 0 0 86.46 50.95
  L 105.56 51.09
  A 1.47 1.46 89.8 0 1 107.01 52.54
  L 107.02 53.14
  A 2.01 2.01 0.0 0 1 105.02 55.18
  L 80.31 55.27
  L 47.23 55.28
  Q 46.75 55.28 46.75 55.77
  L 46.76 94.00
  Q 46.76 94.50 47.25 94.50
  L 102.50 94.51
  Q 103.00 94.51 103.00 94.00
  L 103.00 77.00
  A 0.51 0.50 -90.0 0 0 102.50 76.49
  L 66.23 76.50
  Q 64.14 76.50 63.89 74.44
  L 63.83 74.00
  A 1.49 1.48 -4.0 0 1 65.28 72.34
  L 72.04 72.21
  L 104.52 72.23
  A 2.75 2.75 0.0 0 1 107.26 74.98
  L 107.24 96.51
  A 2.25 2.24 -0.0 0 1 104.99 98.75
  L 86.77 98.75
  Q 86.29 98.75 86.28 99.23
  L 85.91 116.22
  Q 84.84 117.93 83.03 116.73
  A 1.78 1.78 0.0 0 1 82.24 115.25
  L 82.25 99.25
  A 0.50 0.50 0.0 0 0 81.75 98.75
  L 68.26 98.75
  A 0.49 0.49 0.0 0 0 67.77 99.24
  L 67.70 115.67
  Q 67.70 117.55 65.83 117.29
  L 65.25 117.20
  A 2.02 2.02 0.0 0 1 63.51 115.20
  L 63.50 99.47
  A 0.82 0.82 0.0 0 0 62.63 98.65
  Q 52.53 99.16 42.81 98.16
  L 42.76 53.51
  A 2.51 2.51 0.0 0 1 45.27 51.00
  L 62.99 51.00
  Q 63.49 51.00 63.49 50.50
  Q 63.53 42.58 63.51 34.76
  Q 63.50 31.96 66.51 32.58
  Q 66.92 32.67 67.10 33.05
  Q 67.97 34.88 67.82 37.09
  Z"
/>
<path fill="#e1c376" d="
  M 80.31 55.27
  Q 79.94 55.83 79.28 56.16
  Q 79.05 56.29 78.91 56.52
  Q 78.64 56.99 77.96 57.07
  Q 77.41 57.13 77.39 57.70
  Q 77.38 58.60 76.79 59.20
  Q 76.48 59.51 76.82 59.77
  Q 77.19 60.06 76.96 60.47
  Q 76.21 61.83 75.43 63.20
  Q 75.21 63.59 75.18 64.03
  C 75.07 65.65 74.08 66.60 73.87 67.89
  Q 73.59 69.61 74.22 71.24
  Q 74.38 71.69 73.95 71.89
  Q 73.19 72.24 72.04 72.21
  L 65.28 72.34
  A 1.49 1.48 -4.0 0 0 63.83 74.00
  L 63.89 74.44
  Q 64.14 76.50 66.23 76.50
  L 102.50 76.49
  A 0.51 0.50 -90.0 0 1 103.00 77.00
  L 103.00 94.00
  Q 103.00 94.51 102.50 94.51
  L 47.25 94.50
  Q 46.76 94.50 46.76 94.00
  L 46.75 55.77
  Q 46.75 55.28 47.23 55.28
  L 80.31 55.27
  Z"
/>
<path fill="#e1c376" d="
  M 42.81 98.16
  Q 52.53 99.16 62.63 98.65
  A 0.82 0.82 0.0 0 1 63.50 99.47
  L 63.51 115.20
  A 2.02 2.02 0.0 0 0 65.25 117.20
  L 65.83 117.29
  Q 67.70 117.55 67.70 115.67
  L 67.77 99.24
  A 0.49 0.49 0.0 0 1 68.26 98.75
  L 81.75 98.75
  A 0.50 0.50 0.0 0 1 82.25 99.25
  L 82.24 115.25
  A 1.78 1.78 0.0 0 0 83.03 116.73
  Q 84.84 117.93 85.91 116.22
  L 85.34 117.57
  Q 85.15 118.01 85.54 118.29
  Q 85.82 118.49 84.98 118.98
  A 0.35 0.34 65.8 0 0 84.83 119.39
  Q 84.94 119.71 85.19 119.95
  Q 85.40 120.16 85.34 120.44
  L 84.95 122.55
  Q 84.86 123.02 85.16 123.39
  L 87.43 126.21
  Q 87.48 126.27 87.43 126.32
  Q 87.34 126.41 87.25 126.50
  A 0.38 0.14 51.1 0 0 87.38 126.87
  Q 87.50 127.03 87.69 127.10
  Q 87.90 127.18 87.94 127.40
  Q 88.30 129.42 89.39 131.18
  Q 61.30 137.66 38.41 120.06
  Q 38.61 119.92 38.78 119.87
  Q 39.01 119.81 38.89 119.60
  Q 38.21 118.45 38.66 117.49
  Q 40.15 114.32 40.46 112.18
  Q 40.53 111.70 40.85 111.33
  Q 41.68 110.35 41.63 109.25
  Q 41.42 104.93 41.08 105.61
  A 0.11 0.11 0.0 0 1 40.87 105.56
  Q 41.10 99.55 42.81 98.16
  Z"
/>
</svg>
