<svg width="250" height="250" viewBox="0 0 250 250" fill="none" xmlns="http://www.w3.org/2000/svg">
<rect width="250" height="250" fill="#ACF601"/>
<path d="M178.157 56C171.6 56 166.285 61.3016 166.285 67.8415C166.285 68.9495 166.437 70.022 166.723 71.0393C173.436 68.2748 181.095 66.6553 189.955 66.5159C189.295 60.6 184.265 56 178.157 56Z" fill="black"/>
<path d="M190 68.6816C181.398 68.8158 173.986 70.3841 167.498 73.0634C169.433 76.9855 173.479 79.6846 178.157 79.6846C184.432 79.6846 189.569 74.8302 190 68.6816Z" fill="black"/>
<path d="M163.84 72.3242V68.0371C150.721 68.0371 140.085 78.6452 140.085 91.731V92.5319C142.038 89.9757 144.098 87.5404 146.29 85.2587C151.341 80.002 157.093 75.5622 163.84 72.3242Z" fill="black"/>
<path d="M140.085 96.1701C142.497 92.8165 145.069 89.6566 147.856 86.756C152.498 81.9253 157.738 77.8132 163.84 74.7363V148.994C163.84 162.079 153.205 172.687 140.085 172.687V96.1701Z" fill="black"/>
<path d="M133.395 102.329C129.17 95.7705 121.791 91.4258 113.395 91.4258V140.437C115.578 136.273 117.702 131.994 119.84 127.689L119.844 127.68C120.114 127.136 120.384 126.592 120.654 126.048C124.662 117.982 128.748 109.863 133.395 102.329Z" fill="black"/>
<path d="M113.395 145.046C116.276 139.748 119.003 134.253 121.728 128.763C122.018 128.179 122.308 127.595 122.598 127.011C126.437 119.284 130.305 111.605 134.623 104.477C136.24 107.677 137.15 111.293 137.15 115.121V194.093C124.03 194.093 113.395 183.485 113.395 170.399V145.046Z" fill="black"/>
<path d="M110.463 145.877V112.289C97.3437 112.289 86.708 122.897 86.708 135.983V175.18C90.2677 172.641 93.4936 169.657 96.4712 166.329C101.771 160.405 106.277 153.403 110.463 145.877Z" fill="black"/>
<path d="M86.708 177.813C90.9089 174.997 94.6646 171.598 98.0893 167.771C102.718 162.598 106.747 156.632 110.463 150.26V162.753C110.463 175.839 99.8278 186.447 86.708 186.447V177.813Z" fill="black"/>
<path d="M82.5592 177.844C83.3354 175.503 83.7553 173 83.7553 170.4V152.547C70.6356 152.547 60 163.155 60 176.241V184.291C68.8003 183.803 76.188 181.496 82.5592 177.844Z" fill="black"/>
<path d="M60 186.457C68.138 186.02 75.1304 184.085 81.2477 181.006C77.3458 188.766 69.2966 194.092 60 194.092V186.457Z" fill="black"/>
</svg>