<svg xmlns="http://www.w3.org/2000/svg" version="1.1" width="433" height="433" viewBox="0 0 433 433" style="shape-rendering:geometricPrecision; text-rendering:geometricPrecision; image-rendering:optimizeQuality; fill-rule:evenodd; clip-rule:evenodd" xmlns:xlink="http://www.w3.org/1999/xlink">
<g><path style="opacity:0.995" fill="#000000" d="M 195.5,-0.5 C 209.167,-0.5 222.833,-0.5 236.5,-0.5C 320.465,10.7281 380.298,54.7281 416,131.5C 424.348,152.23 429.848,173.563 432.5,195.5C 432.5,209.167 432.5,222.833 432.5,236.5C 421.272,320.465 377.272,380.298 300.5,416C 279.77,424.348 258.437,429.848 236.5,432.5C 222.833,432.5 209.167,432.5 195.5,432.5C 111.535,421.272 51.702,377.272 16,300.5C 7.65175,279.77 2.15175,258.437 -0.5,236.5C -0.5,222.833 -0.5,209.167 -0.5,195.5C 10.7281,111.535 54.7281,51.702 131.5,16C 152.23,7.65175 173.563,2.15175 195.5,-0.5 Z"/></g>
<g><path style="opacity:1" fill="#69a369" d="M 259.5,143.5 C 259.167,143.5 258.833,143.5 258.5,143.5C 258.5,134.167 258.5,124.833 258.5,115.5C 230.167,115.5 201.833,115.5 173.5,115.5C 173.5,124.833 173.5,134.167 173.5,143.5C 173.167,143.5 172.833,143.5 172.5,143.5C 172.5,133.833 172.5,124.167 172.5,114.5C 201.5,114.5 230.5,114.5 259.5,114.5C 259.5,124.167 259.5,133.833 259.5,143.5 Z"/></g>
<g><path style="opacity:1" fill="#9ffa9f" d="M 258.5,143.5 C 230.167,143.5 201.833,143.5 173.5,143.5C 173.5,134.167 173.5,124.833 173.5,115.5C 201.833,115.5 230.167,115.5 258.5,115.5C 258.5,124.833 258.5,134.167 258.5,143.5 Z"/></g>
<g><path style="opacity:1" fill="#609760" d="M 172.5,143.5 C 172.5,143.833 172.5,144.167 172.5,144.5C 163.167,144.5 153.833,144.5 144.5,144.5C 144.5,192.167 144.5,239.833 144.5,287.5C 153.833,287.5 163.167,287.5 172.5,287.5C 172.833,287.5 173.167,287.5 173.5,287.5C 173.5,287.833 173.5,288.167 173.5,288.5C 173.5,297.833 173.5,307.167 173.5,316.5C 202.167,316.5 230.833,316.5 259.5,316.5C 230.671,317.498 201.671,317.831 172.5,317.5C 172.5,307.833 172.5,298.167 172.5,288.5C 162.833,288.5 153.167,288.5 143.5,288.5C 143.5,240.167 143.5,191.833 143.5,143.5C 153.167,143.5 162.833,143.5 172.5,143.5 Z"/></g>
<g><path style="opacity:1" fill="#9ffa9f" d="M 172.5,144.5 C 172.5,192.167 172.5,239.833 172.5,287.5C 163.167,287.5 153.833,287.5 144.5,287.5C 144.5,239.833 144.5,192.167 144.5,144.5C 153.833,144.5 163.167,144.5 172.5,144.5 Z"/></g>
<g><path style="opacity:1" fill="#2d472d" d="M 172.5,143.5 C 172.833,143.5 173.167,143.5 173.5,143.5C 201.833,143.5 230.167,143.5 258.5,143.5C 258.833,143.5 259.167,143.5 259.5,143.5C 231.005,144.498 202.338,144.831 173.5,144.5C 173.5,192.167 173.5,239.833 173.5,287.5C 173.167,287.5 172.833,287.5 172.5,287.5C 172.5,239.833 172.5,192.167 172.5,144.5C 172.5,144.167 172.5,143.833 172.5,143.5 Z"/></g>
<g><path style="opacity:1" fill="#9ff99f" d="M 287.5,201.5 C 287.5,230.167 287.5,258.833 287.5,287.5C 278.167,287.5 268.833,287.5 259.5,287.5C 259.83,268.326 259.497,249.326 258.5,230.5C 249.167,230.5 239.833,230.5 230.5,230.5C 230.5,220.833 230.5,211.167 230.5,201.5C 249.5,201.5 268.5,201.5 287.5,201.5 Z"/></g>
<g><path style="opacity:1" fill="#639b63" d="M 287.5,201.5 C 288.498,230.329 288.831,259.329 288.5,288.5C 278.833,288.5 269.167,288.5 259.5,288.5C 259.5,288.167 259.5,287.833 259.5,287.5C 268.833,287.5 278.167,287.5 287.5,287.5C 287.5,258.833 287.5,230.167 287.5,201.5 Z"/></g>
<g><path style="opacity:1" fill="#365436" d="M 258.5,230.5 C 259.497,249.326 259.83,268.326 259.5,287.5C 259.5,287.833 259.5,288.167 259.5,288.5C 230.833,288.5 202.167,288.5 173.5,288.5C 173.5,288.167 173.5,287.833 173.5,287.5C 201.833,287.5 230.167,287.5 258.5,287.5C 258.5,268.5 258.5,249.5 258.5,230.5 Z"/></g>
<g><path style="opacity:1" fill="#9ff99f" d="M 173.5,288.5 C 202.167,288.5 230.833,288.5 259.5,288.5C 259.5,297.833 259.5,307.167 259.5,316.5C 230.833,316.5 202.167,316.5 173.5,316.5C 173.5,307.167 173.5,297.833 173.5,288.5 Z"/></g>
</svg>
