<svg version="1.1" x="0px" y="0px" viewBox="0 0 2500 2500" style="enable-background:new 0 0 2500 2500;" xmlns="http://www.w3.org/2000/svg">
<style type="text/css">
	.st0{fill:url(#SVGID_1_);}
	.st1{fill:url(#SVGID_00000016044447293987720400000007373766955668406956_);}
</style>
<g id="Layer_x0020_1">
	<g id="_2347518842000">
		
			<linearGradient id="SVGID_1_" gradientUnits="userSpaceOnUse" x1="136" y1="1139.9177" x2="2381" y2="1139.9177" gradientTransform="matrix(1 0 0 -1 0 2500)">
			<stop offset="0" style="stop-color:#0082FA"></stop>
			<stop offset="1" style="stop-color:#00F2FE"></stop>
		</linearGradient>
		<path class="st0" d="M303,432c16-19,32-38,48-57c1-1,2-1,3-2c2-2,4-3,5-5l1-2c11-11,24-22,38-32c50-38,101-67,156-85    c175-61,369-24,522,120c213,200,194,521,24,735c-215,319-584,763-73,1161c92,72,160,131,450,214c-189,35-365,24-560-26    c-138-78-355-245-430-471c-112-342,197-854,346-1051c205-273-127-568-370-238c-128,172-350,658-273,1018c45,204,106,353,345,558    c-44-26-88-56-129-89C-150,1662-86,860,303,431V432z"></path>
		
			<linearGradient id="SVGID_00000053527343253778531240000010166124530763677581_" gradientUnits="userSpaceOnUse" x1="94" y1="1360.0823" x2="2339" y2="1360.0823" gradientTransform="matrix(1 0 0 -1 0 2500)">
			<stop offset="0" style="stop-color:#0082FA"></stop>
			<stop offset="1" style="stop-color:#00F2FE"></stop>
		</linearGradient>
		<path style="fill:url(#SVGID_00000053527343253778531240000010166124530763677581_);" d="M2197,2068c-16,19-32,38-48,57    c-1,1-2,1-3,2c-1,2-4,3-5,5l-2,2c-11,11-24,22-38,32c-50,38-102,67-156,85c-175,61-369,24-522-120c-213-200-194-521-24-735    c215-319,584-763,73-1161c-92-72-160-131-450-214c189-35,365-24,560,26c138,78,355,245,430,471c112,342-197,854-346,1051    c-205,273,127,568,370,238c128-172,350-658,273-1018c-45-204-106-353-345-558c44,26,88,56,129,89c556,518,492,1320,103,1749    L2197,2068z"></path>
	</g>
</g>
</svg>
