<svg width="500" height="500" viewBox="0 0 500 500" fill="none" xmlns="http://www.w3.org/2000/svg">
<g clip-path="url(#clip0_2433_3773)">
<path d="M250 500C388.071 500 500 388.071 500 250C500 111.929 388.071 0 250 0C111.929 0 0 111.929 0 250C0 388.071 111.929 500 250 500Z" fill="black"/>
<path d="M335.564 105.32C348.079 105.32 358.224 95.1748 358.224 82.66C358.224 70.1452 348.079 60 335.564 60C323.05 60 312.904 70.1452 312.904 82.66C312.904 95.1748 323.05 105.32 335.564 105.32Z" fill="white"/>
<path d="M341.755 161.29C352.351 161.29 360.94 152.701 360.94 142.105C360.94 131.509 352.351 122.92 341.755 122.92C331.16 122.92 322.57 131.509 322.57 142.105C322.57 152.701 331.16 161.29 341.755 161.29Z" fill="white"/>
<path d="M392.06 168.43C402.631 168.43 411.2 159.861 411.2 149.29C411.2 138.72 402.631 130.15 392.06 130.15C381.489 130.15 372.92 138.72 372.92 149.29C372.92 159.861 381.489 168.43 392.06 168.43Z" fill="white"/>
<path d="M385.886 216.355C394.927 216.355 402.256 209.026 402.256 199.985C402.256 190.944 394.927 183.615 385.886 183.615C376.845 183.615 369.516 190.944 369.516 199.985C369.516 209.026 376.845 216.355 385.886 216.355Z" fill="white"/>
<path d="M426.139 231.956C435.238 231.956 442.614 224.58 442.614 215.481C442.614 206.382 435.238 199.006 426.139 199.006C417.04 199.006 409.664 206.382 409.664 215.481C409.664 224.58 417.04 231.956 426.139 231.956Z" fill="white"/>
<path d="M335.286 209.835C344.547 209.835 352.056 202.327 352.056 193.065C352.056 183.803 344.547 176.295 335.286 176.295C326.024 176.295 318.516 183.803 318.516 193.065C318.516 202.327 326.024 209.835 335.286 209.835Z" fill="white"/>
<path d="M320.661 247.941C328.429 247.941 334.726 241.643 334.726 233.876C334.726 226.108 328.429 219.811 320.661 219.811C312.893 219.811 306.596 226.108 306.596 233.876C306.596 241.643 312.893 247.941 320.661 247.941Z" fill="white"/>
<path d="M371.011 254.721C378.721 254.721 384.971 248.471 384.971 240.761C384.971 233.051 378.721 226.801 371.011 226.801C363.301 226.801 357.051 233.051 357.051 240.761C357.051 248.471 363.301 254.721 371.011 254.721Z" fill="white"/>
<path d="M411.2 270.256C418.979 270.256 425.285 263.95 425.285 256.171C425.285 248.392 418.979 242.086 411.2 242.086C403.421 242.086 397.115 248.392 397.115 256.171C397.115 263.95 403.421 270.256 411.2 270.256Z" fill="white"/>
<path d="M391.265 299.119C397.826 299.119 403.145 293.801 403.145 287.239C403.145 280.678 397.826 275.359 391.265 275.359C384.704 275.359 379.385 280.678 379.385 287.239C379.385 293.801 384.704 299.119 391.265 299.119Z" fill="white"/>
<path d="M350.919 283.835C357.624 283.835 363.059 278.399 363.059 271.695C363.059 264.99 357.624 259.555 350.919 259.555C344.215 259.555 338.779 264.99 338.779 271.695C338.779 278.399 344.215 283.835 350.919 283.835Z" fill="white"/>
<path d="M300.6 276.749C307.244 276.749 312.63 271.363 312.63 264.719C312.63 258.075 307.244 252.689 300.6 252.689C293.956 252.689 288.57 258.075 288.57 264.719C288.57 271.363 293.956 276.749 300.6 276.749Z" fill="white"/>
<path d="M328.501 303.919C334.291 303.919 338.986 299.225 338.986 293.434C338.986 287.643 334.291 282.949 328.501 282.949C322.71 282.949 318.016 287.643 318.016 293.434C318.016 299.225 322.71 303.919 328.501 303.919Z" fill="white"/>
<path d="M368.845 319.5C374.685 319.5 379.42 314.765 379.42 308.925C379.42 303.084 374.685 298.35 368.845 298.35C363.004 298.35 358.27 303.084 358.27 308.925C358.27 314.765 363.004 319.5 368.845 319.5Z" fill="white"/>
<path d="M346.04 330.955C350.643 330.955 354.375 327.223 354.375 322.62C354.375 318.017 350.643 314.285 346.04 314.285C341.437 314.285 337.705 318.017 337.705 322.62C337.705 327.223 341.437 330.955 346.04 330.955Z" fill="white"/>
<path d="M324.466 337.179C328.649 337.179 332.041 333.788 332.041 329.604C332.041 325.421 328.649 322.029 324.466 322.029C320.282 322.029 316.891 325.421 316.891 329.604C316.891 333.788 320.282 337.179 324.466 337.179Z" fill="white"/>
<path d="M305.69 316.529C310.658 316.529 314.685 312.502 314.685 307.534C314.685 302.566 310.658 298.539 305.69 298.539C300.723 298.539 296.695 302.566 296.695 307.534C296.695 312.502 300.723 316.529 305.69 316.529Z" fill="white"/>
<path d="M278.11 297.01C283.887 297.01 288.57 292.327 288.57 286.55C288.57 280.773 283.887 276.09 278.11 276.09C272.333 276.09 267.65 280.773 267.65 286.55C267.65 292.327 272.333 297.01 278.11 297.01Z" fill="white"/>
<path d="M360.68 423.154C373.131 423.154 383.225 413.061 383.225 400.609C383.225 388.158 373.131 378.064 360.68 378.064C348.228 378.064 338.135 388.158 338.135 400.609C338.135 413.061 348.228 423.154 360.68 423.154Z" fill="white"/>
<path d="M305.821 395.536C316.206 395.536 324.626 387.117 324.626 376.731C324.626 366.345 316.206 357.926 305.821 357.926C295.435 357.926 287.016 366.345 287.016 376.731C287.016 387.117 295.435 395.536 305.821 395.536Z" fill="white"/>
<path d="M274.596 435C285.07 435 293.561 426.509 293.561 416.035C293.561 405.561 285.07 397.07 274.596 397.07C264.122 397.07 255.631 405.561 255.631 416.035C255.631 426.509 264.122 435 274.596 435Z" fill="white"/>
<path d="M265.095 362.036C274.166 362.036 281.52 354.682 281.52 345.611C281.52 336.539 274.166 329.186 265.095 329.186C256.024 329.186 248.67 336.539 248.67 345.611C248.67 354.682 256.024 362.036 265.095 362.036Z" fill="white"/>
<path d="M233.885 402.045C242.934 402.045 250.27 394.71 250.27 385.66C250.27 376.611 242.934 369.275 233.885 369.275C224.836 369.275 217.5 376.611 217.5 385.66C217.5 394.71 224.836 402.045 233.885 402.045Z" fill="white"/>
<path d="M200.346 429.224C209.364 429.224 216.676 421.913 216.676 412.894C216.676 403.876 209.364 396.564 200.346 396.564C191.327 396.564 184.016 403.876 184.016 412.894C184.016 421.913 191.327 429.224 200.346 429.224Z" fill="white"/>
<path d="M172.266 393.641C179.954 393.641 186.186 387.409 186.186 379.721C186.186 372.033 179.954 365.801 172.266 365.801C164.578 365.801 158.346 372.033 158.346 379.721C158.346 387.409 164.578 393.641 172.266 393.641Z" fill="white"/>
<path d="M205.91 366.365C213.611 366.365 219.855 360.121 219.855 352.42C219.855 344.718 213.611 338.475 205.91 338.475C198.208 338.475 191.965 344.718 191.965 352.42C191.965 360.121 198.208 366.365 205.91 366.365Z" fill="white"/>
<path d="M237.294 326.356C245.004 326.356 251.254 320.105 251.254 312.396C251.254 304.686 245.004 298.436 237.294 298.436C229.584 298.436 223.334 304.686 223.334 312.396C223.334 320.105 229.584 326.356 237.294 326.356Z" fill="white"/>
<path d="M189.199 331.695C195.871 331.695 201.279 326.287 201.279 319.615C201.279 312.944 195.871 307.535 189.199 307.535C182.528 307.535 177.119 312.944 177.119 319.615C177.119 326.287 182.528 331.695 189.199 331.695Z" fill="white"/>
<path d="M155.72 358.86C162.337 358.86 167.7 353.497 167.7 346.88C167.7 340.264 162.337 334.9 155.72 334.9C149.104 334.9 143.74 340.264 143.74 346.88C143.74 353.497 149.104 358.86 155.72 358.86Z" fill="white"/>
<path d="M147.97 326.9C153.697 326.9 158.34 322.257 158.34 316.53C158.34 310.803 153.697 306.16 147.97 306.16C142.242 306.16 137.6 310.803 137.6 316.53C137.6 322.257 142.242 326.9 147.97 326.9Z" fill="white"/>
<path d="M147.594 298.81C152.507 298.81 156.489 294.827 156.489 289.915C156.489 285.002 152.507 281.02 147.594 281.02C142.682 281.02 138.699 285.002 138.699 289.915C138.699 294.827 142.682 298.81 147.594 298.81Z" fill="white"/>
<path d="M152.185 275.441C156.366 275.441 159.755 272.052 159.755 267.871C159.755 263.69 156.366 260.301 152.185 260.301C148.004 260.301 144.615 263.69 144.615 267.871C144.615 272.052 148.004 275.441 152.185 275.441Z" fill="white"/>
<path d="M181.149 271.695C186.117 271.695 190.144 267.668 190.144 262.7C190.144 257.732 186.117 253.705 181.149 253.705C176.181 253.705 172.154 257.732 172.154 262.7C172.154 267.668 176.181 271.695 181.149 271.695Z" fill="white"/>
<path d="M212.849 259.665C218.637 259.665 223.329 254.973 223.329 249.185C223.329 243.397 218.637 238.705 212.849 238.705C207.061 238.705 202.369 243.397 202.369 249.185C202.369 254.973 207.061 259.665 212.849 259.665Z" fill="white"/>
<path d="M220.454 291.44C227.04 291.44 232.379 286.101 232.379 279.515C232.379 272.929 227.04 267.59 220.454 267.59C213.868 267.59 208.529 272.929 208.529 279.515C208.529 286.101 213.868 291.44 220.454 291.44Z" fill="white"/>
<path d="M181.57 299.755C187.308 299.755 191.96 295.103 191.96 289.365C191.96 283.626 187.308 278.975 181.57 278.975C175.831 278.975 171.18 283.626 171.18 289.365C171.18 295.103 175.831 299.755 181.57 299.755Z" fill="white"/>
<path d="M72.6449 286.13C85.0575 286.13 95.1199 276.067 95.1199 263.655C95.1199 251.242 85.0575 241.18 72.6449 241.18C60.2323 241.18 50.1699 251.242 50.1699 263.655C50.1699 276.067 60.2323 286.13 72.6449 286.13Z" fill="white"/>
<path d="M121.23 247.561C131.862 247.561 140.48 238.942 140.48 228.311C140.48 217.679 131.862 209.061 121.23 209.061C110.599 209.061 101.98 217.679 101.98 228.311C101.98 238.942 110.599 247.561 121.23 247.561Z" fill="white"/>
<path d="M102.179 200.316C112.756 200.316 121.329 191.742 121.329 181.166C121.329 170.589 112.756 162.016 102.179 162.016C91.603 162.016 83.0293 170.589 83.0293 181.166C83.0293 191.742 91.603 200.316 102.179 200.316Z" fill="white"/>
<path d="M149.03 177.705C158.096 177.705 165.445 170.356 165.445 161.29C165.445 152.224 158.096 144.875 149.03 144.875C139.964 144.875 132.615 152.224 132.615 161.29C132.615 170.356 139.964 177.705 149.03 177.705Z" fill="white"/>
<path d="M168.21 224.786C177.306 224.786 184.68 217.412 184.68 208.316C184.68 199.22 177.306 191.846 168.21 191.846C159.114 191.846 151.74 199.22 151.74 208.316C151.74 217.412 159.114 224.786 168.21 224.786Z" fill="white"/>
<path d="M210.836 214.806C218.581 214.806 224.861 208.527 224.861 200.781C224.861 193.035 218.581 186.756 210.836 186.756C203.09 186.756 196.811 193.035 196.811 200.781C196.811 208.527 203.09 214.806 210.836 214.806Z" fill="white"/>
<path d="M247.694 214.765C254.363 214.765 259.769 209.359 259.769 202.69C259.769 196.021 254.363 190.615 247.694 190.615C241.025 190.615 235.619 196.021 235.619 202.69C235.619 209.359 241.025 214.765 247.694 214.765Z" fill="white"/>
<path d="M278.109 221.481C283.726 221.481 288.279 216.927 288.279 211.311C288.279 205.694 283.726 201.141 278.109 201.141C272.493 201.141 267.939 205.694 267.939 211.311C267.939 216.927 272.493 221.481 278.109 221.481Z" fill="white"/>
<path d="M282.011 185.91C286.909 185.91 290.881 181.939 290.881 177.04C290.881 172.141 286.909 168.17 282.011 168.17C277.112 168.17 273.141 172.141 273.141 177.04C273.141 181.939 277.112 185.91 282.011 185.91Z" fill="white"/>
<path d="M258.615 174.46C264.29 174.46 268.89 169.86 268.89 164.185C268.89 158.51 264.29 153.91 258.615 153.91C252.94 153.91 248.34 158.51 248.34 164.185C248.34 169.86 252.94 174.46 258.615 174.46Z" fill="white"/>
<path d="M228.561 167.6C235.194 167.6 240.571 162.223 240.571 155.59C240.571 148.957 235.194 143.58 228.561 143.58C221.928 143.58 216.551 148.957 216.551 155.59C216.551 162.223 221.928 167.6 228.561 167.6Z" fill="white"/>
<path d="M191.814 167.82C199.566 167.82 205.849 161.536 205.849 153.785C205.849 146.034 199.566 139.75 191.814 139.75C184.063 139.75 177.779 146.034 177.779 153.785C177.779 161.536 184.063 167.82 191.814 167.82Z" fill="white"/>
<path d="M142.26 134.465C151.052 134.465 158.18 127.337 158.18 118.545C158.18 109.753 151.052 102.625 142.26 102.625C133.467 102.625 126.34 109.753 126.34 118.545C126.34 127.337 133.467 134.465 142.26 134.465Z" fill="white"/>
<path d="M184.85 125.051C192.607 125.051 198.895 118.763 198.895 111.006C198.895 103.249 192.607 96.9609 184.85 96.9609C177.093 96.9609 170.805 103.249 170.805 111.006C170.805 118.763 177.093 125.051 184.85 125.051Z" fill="white"/>
<path d="M221.7 125.05C228.388 125.05 233.81 119.628 233.81 112.94C233.81 106.252 228.388 100.83 221.7 100.83C215.012 100.83 209.59 106.252 209.59 112.94C209.59 119.628 215.012 125.05 221.7 125.05Z" fill="white"/>
<path d="M251.9 131.765C257.531 131.765 262.095 127.201 262.095 121.57C262.095 115.939 257.531 111.375 251.9 111.375C246.27 111.375 241.705 115.939 241.705 121.57C241.705 127.201 246.27 131.765 251.9 131.765Z" fill="white"/>
<path d="M275.115 143.58C280.149 143.58 284.23 139.499 284.23 134.465C284.23 129.431 280.149 125.35 275.115 125.35C270.081 125.35 266 129.431 266 134.465C266 139.499 270.081 143.58 275.115 143.58Z" fill="white"/>
<path d="M292.074 157.105C296.216 157.105 299.574 153.748 299.574 149.605C299.574 145.463 296.216 142.105 292.074 142.105C287.932 142.105 284.574 145.463 284.574 149.605C284.574 153.748 287.932 157.105 292.074 157.105Z" fill="white"/>
</g>
<defs>
<clipPath id="clip0_2433_3773">
<rect width="500" height="500" fill="white"/>
</clipPath>
</defs>
</svg>
