<svg id="Layer_1" xmlns="http://www.w3.org/2000/svg" xmlns:xlink="http://www.w3.org/1999/xlink" version="1.1" viewBox="0 0 839 839" width="839" height="839">
  <!-- Generator: Adobe Illustrator 29.1.0, SVG Export Plug-In . SVG Version: 2.1.0 Build 142)  -->
  <defs>
    <style>
      .st0 {
        fill: url(#linear-gradient1);
      }

      .st1 {
        fill: #ffe8ae;
      }

      .st2 {
        fill: url(#linear-gradient);
      }

      .st3 {
        fill: #fee7a2;
        opacity: .3;
      }

      .st4 {
        fill: #ffedc0;
      }

      .st5 {
        fill: #826711;
      }
    </style>
    <linearGradient id="linear-gradient" x1="80.1" y1="223.6" x2="759.1" y2="615.6" gradientUnits="userSpaceOnUse">
      <stop offset="0" stop-color="#fee089"/>
      <stop offset=".6" stop-color="#6a5300"/>
    </linearGradient>
    <linearGradient id="linear-gradient1" x1="212.9" y1="209" x2="704.6" y2="700.6" gradientUnits="userSpaceOnUse">
      <stop offset="0" stop-color="#f7dc8f"/>
      <stop offset="1" stop-color="#cca831"/>
    </linearGradient>
  </defs>
  <path class="st2" d="M238.9,124.7c68.5-168.6,305-165.4,369.2,5,19.3,51.3,59.3,92.2,109.2,111.9,164.7,64.4,161.7,304.2-4.8,364.1-50.7,18.2-91.6,58.2-112.2,108.9-68.8,169.3-306.7,165-369.8-6.5-19.5-50.5-59.2-91-108.7-110.3-164.7-64.4-161.7-304.2,4.8-364.1,50.7-18.2,91.6-58.2,112.2-108.9h0,0Z"/>
  <path class="st0" d="M243.7,128.6c66.7-164.1,296.9-161,359.3,4.8,18.7,50,57.7,89.8,106.3,108.9,160.3,62.7,157.3,296-4.6,354.4-49.4,17.7-89.1,56.6-109.2,106-67,164.8-298.5,160.6-359.9-6.3-18.9-49.2-57.6-88.5-105.8-107.4-160.3-62.7-157.3-296,4.6-354.4,49.4-17.7,89.1-56.6,109.2-106h0,0Z"/>
  <path class="st1" d="M141.8,243.2c49.4-17.7,89.1-56.6,109.2-106h0C307.6-2,481.5-20.9,571.2,77.5,484-30.4,301.8-14.4,243.7,128.6h0c0,0,0,0,0,0-20.1,49.4-59.8,88.3-109.2,106C1.2,282.7-24.5,449.2,60,541.6-15.5,447.9,12.5,289.8,141.8,243.2Z"/>
  <path class="st4" d="M243.1,688.2c-17.4-48.8-55.6-88-104.1-107.9h0c0,0,0,0,0,0C2.2,524.4-16.4,352.6,80.2,264c-106,86.2-90.2,266.1,50.2,323.5h0c48.5,20,86.8,59.2,104.1,108,47.2,131.7,210.8,157,301.6,73.5-92.1,74.6-247.4,47-293.2-80.7Z"/>
  <path class="st5" d="M697.4,588.1c-49.4,17.7-89.1,56.6-109.2,106h0c-56.5,139.2-230.5,158.1-320.2,59.7,87.2,107.9,269.4,91.8,327.5-51.1h0c0,0,0,0,0,0,20.1-49.4,59.8-88.3,109.2-106,133.3-48,158.9-214.6,74.4-306.9,75.5,93.8,47.6,251.8-81.7,298.4Z"/>
  <path class="st3" d="M702.1,594.3c-50.3,18-90.8,57.6-111.3,107.8h0c-57.6,141.5-234.9,160.8-326.3,60.8,88.9,109.7,274.6,93.4,333.8-52h0c0,0,0,0,0,0,20.5-50.2,61-89.8,111.3-107.8,135.8-48.9,161.9-218.2,75.8-312.2,77,95.4,48.5,256.1-83.3,303.5Z"/>
  <g>
    <path d="M333.2,518.8h-65.3v-206.4h65.3v206.4Z"/>
    <path d="M449.8,518.8h-65.3v-206.4h132.8c52.3,0,86.8,25.3,86.8,73.6s-34.5,73.6-86.8,73.6h-67.6v59.2h.1ZM513.9,405.5c16.9,0,25.9-7.8,25.9-19.5s-8.9-19.5-25.9-19.5h-64.1v39.1h64.1Z"/>
  </g>
</svg>