<svg xmlns="http://www.w3.org/2000/svg" version="1.1" width="392" height="392" viewBox="0 0 392 392" style="shape-rendering:geometricPrecision; text-rendering:geometricPrecision; image-rendering:optimizeQuality; fill-rule:evenodd; clip-rule:evenodd" xmlns:xlink="http://www.w3.org/1999/xlink">
<g><path style="opacity:0.998" fill="#151212" d="M 175.5,-0.5 C 188.5,-0.5 201.5,-0.5 214.5,-0.5C 283.997,8.48789 335.83,43.4879 370,104.5C 381.346,127.027 388.513,150.694 391.5,175.5C 391.5,188.5 391.5,201.5 391.5,214.5C 382.512,283.997 347.512,335.83 286.5,370C 263.973,381.346 240.306,388.513 215.5,391.5C 202.5,391.5 189.5,391.5 176.5,391.5C 107.003,382.512 55.1696,347.512 21,286.5C 9.65416,263.973 2.48749,240.306 -0.5,215.5C -0.5,202.5 -0.5,189.5 -0.5,176.5C 8.48789,107.003 43.4879,55.1696 104.5,21C 127.027,9.65416 150.694,2.48749 175.5,-0.5 Z"/></g>
<g><path style="opacity:1" fill="#f9f8f8" d="M 89.5,137.5 C 118.257,135.104 136.424,147.77 144,175.5C 147.319,201.636 142.319,225.969 129,248.5C 127.188,251.28 125.021,253.78 122.5,256C 120.833,256.667 119.167,256.667 117.5,256C 115.167,253.667 112.833,251.333 110.5,249C 125.395,232.82 132.062,213.653 130.5,191.5C 132.166,162.999 118.832,149.832 90.5,152C 79.5991,155.901 72.4325,163.401 69,174.5C 68.5003,182.493 68.3336,190.493 68.5,198.5C 63.8333,198.5 59.1667,198.5 54.5,198.5C 50.0059,168.449 61.6725,148.116 89.5,137.5 Z"/></g>
<g><path style="opacity:1" fill="#f9f9f9" d="M 266.5,147.5 C 271.167,147.5 275.833,147.5 280.5,147.5C 280.5,150.167 280.5,152.833 280.5,155.5C 280.5,179.833 280.5,204.167 280.5,228.5C 275.5,228.5 270.5,228.5 265.5,228.5C 266.416,201.514 266.75,174.514 266.5,147.5 Z"/></g>
<g><path style="opacity:1" fill="#fafafa" d="M 292.5,147.5 C 297.5,147.5 302.5,147.5 307.5,147.5C 306.605,174.488 306.272,201.488 306.5,228.5C 301.833,228.5 297.167,228.5 292.5,228.5C 292.5,201.5 292.5,174.5 292.5,147.5 Z"/></g>
<g><path style="opacity:1" fill="#f9f8f8" d="M 185.5,148.5 C 195.535,148.032 199.702,152.698 198,162.5C 195.081,168.025 190.581,169.858 184.5,168C 179.574,165.647 177.74,161.814 179,156.5C 180.305,153.039 182.471,150.372 185.5,148.5 Z"/></g>
<g><path style="opacity:1" fill="#514f4f" d="M 266.5,147.5 C 271.305,146.513 276.305,146.179 281.5,146.5C 281.81,149.713 281.477,152.713 280.5,155.5C 280.5,152.833 280.5,150.167 280.5,147.5C 275.833,147.5 271.167,147.5 266.5,147.5 Z"/></g>
<g><path style="opacity:1" fill="#fbfbfb" d="M 254.5,197.5 C 245.475,197.168 236.475,197.502 227.5,198.5C 227.624,199.107 227.957,199.44 228.5,199.5C 229.95,202.785 232.283,205.285 235.5,207C 240.603,207.571 245.603,207.071 250.5,205.5C 252.459,211.75 253.126,218.416 252.5,225.5C 239.738,231.589 227.404,230.755 215.5,223C 203.182,206.754 203.516,190.754 216.5,175C 226.252,168.085 236.252,167.751 246.5,174C 253.436,180.306 256.103,188.14 254.5,197.5 Z"/></g>
<g><path style="opacity:1" fill="#f9f9f9" d="M 341.5,245.5 C 336.381,246.103 331.715,245.436 327.5,243.5C 328.576,237.791 329.909,232.124 331.5,226.5C 326.493,207.803 321.493,189.136 316.5,170.5C 321.762,170.195 326.928,170.529 332,171.5C 333.965,182.33 336.298,192.997 339,203.5C 341.81,192.958 344.31,182.291 346.5,171.5C 351.5,170.167 356.5,170.167 361.5,171.5C 354.209,195.999 347.542,220.666 341.5,245.5 Z"/></g>
<g><path style="opacity:1" fill="#fcfcfc" d="M 182.5,172.5 C 186.833,172.5 191.167,172.5 195.5,172.5C 195.958,195.219 195.458,217.886 194,240.5C 192.878,242.624 191.378,244.457 189.5,246C 184.511,246.499 179.511,246.666 174.5,246.5C 174.5,242.167 174.5,237.833 174.5,233.5C 176.527,233.662 178.527,233.495 180.5,233C 181.126,232.25 181.626,231.416 182,230.5C 182.5,211.17 182.667,191.836 182.5,172.5 Z"/></g>
<g><path style="opacity:1" fill="#1a1717" d="M 230.5,180.5 C 236.029,179.75 239.029,182.083 239.5,187.5C 235.5,187.5 231.5,187.5 227.5,187.5C 227.15,184.547 228.15,182.213 230.5,180.5 Z"/></g>
<g><path style="opacity:1" fill="#8b8989" d="M 254.5,197.5 C 245.833,198.167 237.167,198.833 228.5,199.5C 227.957,199.44 227.624,199.107 227.5,198.5C 236.475,197.502 245.475,197.168 254.5,197.5 Z"/></g>
<g><path style="opacity:1" fill="#b5b4b4" d="M 119.5,199.5 C 115.167,199.5 110.833,199.5 106.5,199.5C 106.768,201.099 106.434,202.432 105.5,203.5C 105.5,201.833 105.5,200.167 105.5,198.5C 110.363,198.181 115.03,198.514 119.5,199.5 Z"/></g>
<g><path style="opacity:1" fill="#f8f8f8" d="M 27.5,198.5 C 32.1667,198.5 36.8333,198.5 41.5,198.5C 41.8374,210.669 48.0041,217.669 60,219.5C 73.6006,219.066 80.7673,212.066 81.5,198.5C 86.1667,198.5 90.8333,198.5 95.5,198.5C 93.5122,219.654 82.0122,231.321 61,233.5C 40.1704,231.169 29.0037,219.502 27.5,198.5 Z"/></g>
<g><path style="opacity:1" fill="#fbfbfb" d="M 119.5,199.5 C 117.946,227.208 104.279,246.041 78.5,256C 72.8431,256.499 67.1764,256.666 61.5,256.5C 61.5,252.5 61.5,248.5 61.5,244.5C 87.105,242.561 101.772,228.895 105.5,203.5C 106.434,202.432 106.768,201.099 106.5,199.5C 110.833,199.5 115.167,199.5 119.5,199.5 Z"/></g>
<g><path style="opacity:1" fill="#7c7a7a" d="M 250.5,205.5 C 251.209,204.596 252.209,204.263 253.5,204.5C 253.825,211.687 253.491,218.687 252.5,225.5C 253.126,218.416 252.459,211.75 250.5,205.5 Z"/></g>
<g><path style="opacity:1" fill="#6d6b6b" d="M 327.5,243.5 C 331.715,245.436 336.381,246.103 341.5,245.5C 336.695,246.487 331.695,246.821 326.5,246.5C 326.263,245.209 326.596,244.209 327.5,243.5 Z"/></g>
</svg>
