<svg xmlns="http://www.w3.org/2000/svg" version="1.1" viewBox="0.00 0.00 64.00 64.00" width="64" height="64">
<g stroke-width="2.00" fill="none" stroke-linecap="butt">
<path stroke="#807f80" vector-effect="non-scaling-stroke" d="
  M 58.89 31.89
  A 26.79 26.79 0.0 0 0 32.10 5.10
  A 26.79 26.79 0.0 0 0 5.31 31.89
  A 26.79 26.79 0.0 0 0 32.10 58.68
  A 26.79 26.79 0.0 0 0 58.89 31.89"
/>
<path stroke="#807f80" vector-effect="non-scaling-stroke" d="
  M 56.65 31.91
  A 24.57 24.57 0.0 0 0 32.08 7.34
  A 24.57 24.57 0.0 0 0 7.51 31.91
  A 24.57 24.57 0.0 0 0 32.08 56.48
  A 24.57 24.57 0.0 0 0 56.65 31.91"
/>
<path stroke="#807f80" vector-effect="non-scaling-stroke" d="
  M 22.13 20.97
  C 24.44 26.12 29.63 29.19 34.64 25.60
  Q 37.83 23.32 41.25 21.15
  Q 42.46 20.38 41.28 19.57
  Q 40.25 18.86 38.84 19.15
  A 2.26 2.20 22.6 0 0 38.08 19.45
  Q 35.23 21.15 32.70 23.05
  C 29.24 25.65 25.97 22.20 24.67 19.20
  Q 24.57 18.95 24.35 19.11
  L 22.21 20.65
  Q 22.04 20.77 22.13 20.97"
/>
<path stroke="#807f80" vector-effect="non-scaling-stroke" d="
  M 40.76 32.52
  C 38.32 29.09 41.54 26.28 44.41 24.66
  A 0.47 0.47 0.0 0 0 44.56 23.97
  L 43.29 22.25
  A 0.52 0.52 0.0 0 0 42.57 22.13
  Q 41.46 22.91 40.31 23.58
  C 37.60 25.17 36.40 28.62 37.00 31.55
  C 37.56 34.30 40.97 38.39 42.80 41.25
  Q 43.60 42.50 44.30 41.19
  L 44.68 40.50
  Q 45.41 39.14 44.53 37.88
  Q 42.73 35.29 40.76 32.52"
/>
<path stroke="#807f80" vector-effect="non-scaling-stroke" d="
  M 23.60 32.24
  C 25.33 35.51 22.19 37.62 20.02 39.45
  A 0.79 0.78 51.7 0 0 19.90 40.51
  L 20.67 41.53
  Q 21.04 42.04 21.62 41.77
  C 27.33 39.14 28.73 33.57 25.21 28.62
  Q 23.20 25.78 21.37 22.94
  Q 20.53 21.63 19.72 22.96
  L 19.50 23.33
  Q 18.54 24.91 19.68 26.36
  Q 22.13 29.44 23.60 32.24"
/>
<path stroke="#807f80" vector-effect="non-scaling-stroke" d="
  M 26.01 44.44
  C 30.90 40.95 35.18 36.54 39.34 44.56
  A 0.38 0.37 -35.8 0 0 39.94 44.65
  L 41.60 43.00
  Q 41.95 42.67 41.66 42.28
  C 40.61 40.88 39.86 39.21 38.37 38.23
  C 32.37 34.33 27.51 39.72 22.83 42.58
  Q 21.52 43.37 22.78 44.24
  L 23.08 44.46
  Q 24.55 45.48 26.01 44.44"
/>
</g>
<path fill="#000000" d="
  M 28.73 0.00
  L 35.31 0.00
  C 50.52 2.02 61.60 13.18 64.00 28.31
  L 64.00 36.13
  Q 59.36 59.08 36.19 64.00
  L 27.69 64.00
  Q 3.67 58.83 0.00 34.76
  L 0.00 29.11
  Q 1.31 17.20 9.30 9.29
  Q 16.99 1.65 28.73 0.00
  Z
  M 58.89 31.89
  A 26.79 26.79 0.0 0 0 32.10 5.10
  A 26.79 26.79 0.0 0 0 5.31 31.89
  A 26.79 26.79 0.0 0 0 32.10 58.68
  A 26.79 26.79 0.0 0 0 58.89 31.89
  Z"
/>
<path fill="#fffeff" d="
  M 58.89 31.89
  A 26.79 26.79 0.0 0 1 32.10 58.68
  A 26.79 26.79 0.0 0 1 5.31 31.89
  A 26.79 26.79 0.0 0 1 32.10 5.10
  A 26.79 26.79 0.0 0 1 58.89 31.89
  Z
  M 56.65 31.91
  A 24.57 24.57 0.0 0 0 32.08 7.34
  A 24.57 24.57 0.0 0 0 7.51 31.91
  A 24.57 24.57 0.0 0 0 32.08 56.48
  A 24.57 24.57 0.0 0 0 56.65 31.91
  Z"
/>
<path fill="#000000" d="
  M 56.65 31.91
  A 24.57 24.57 0.0 0 1 32.08 56.48
  A 24.57 24.57 0.0 0 1 7.51 31.91
  A 24.57 24.57 0.0 0 1 32.08 7.34
  A 24.57 24.57 0.0 0 1 56.65 31.91
  Z
  M 22.13 20.97
  C 24.44 26.12 29.63 29.19 34.64 25.60
  Q 37.83 23.32 41.25 21.15
  Q 42.46 20.38 41.28 19.57
  Q 40.25 18.86 38.84 19.15
  A 2.26 2.20 22.6 0 0 38.08 19.45
  Q 35.23 21.15 32.70 23.05
  C 29.24 25.65 25.97 22.20 24.67 19.20
  Q 24.57 18.95 24.35 19.11
  L 22.21 20.65
  Q 22.04 20.77 22.13 20.97
  Z
  M 40.76 32.52
  C 38.32 29.09 41.54 26.28 44.41 24.66
  A 0.47 0.47 0.0 0 0 44.56 23.97
  L 43.29 22.25
  A 0.52 0.52 0.0 0 0 42.57 22.13
  Q 41.46 22.91 40.31 23.58
  C 37.60 25.17 36.40 28.62 37.00 31.55
  C 37.56 34.30 40.97 38.39 42.80 41.25
  Q 43.60 42.50 44.30 41.19
  L 44.68 40.50
  Q 45.41 39.14 44.53 37.88
  Q 42.73 35.29 40.76 32.52
  Z
  M 23.60 32.24
  C 25.33 35.51 22.19 37.62 20.02 39.45
  A 0.79 0.78 51.7 0 0 19.90 40.51
  L 20.67 41.53
  Q 21.04 42.04 21.62 41.77
  C 27.33 39.14 28.73 33.57 25.21 28.62
  Q 23.20 25.78 21.37 22.94
  Q 20.53 21.63 19.72 22.96
  L 19.50 23.33
  Q 18.54 24.91 19.68 26.36
  Q 22.13 29.44 23.60 32.24
  Z
  M 26.01 44.44
  C 30.90 40.95 35.18 36.54 39.34 44.56
  A 0.38 0.37 -35.8 0 0 39.94 44.65
  L 41.60 43.00
  Q 41.95 42.67 41.66 42.28
  C 40.61 40.88 39.86 39.21 38.37 38.23
  C 32.37 34.33 27.51 39.72 22.83 42.58
  Q 21.52 43.37 22.78 44.24
  L 23.08 44.46
  Q 24.55 45.48 26.01 44.44
  Z"
/>
<path fill="#fffeff" d="
  M 34.64 25.60
  C 29.63 29.19 24.44 26.12 22.13 20.97
  Q 22.04 20.77 22.21 20.65
  L 24.35 19.11
  Q 24.57 18.95 24.67 19.20
  C 25.97 22.20 29.24 25.65 32.70 23.05
  Q 35.23 21.15 38.08 19.45
  A 2.26 2.20 22.6 0 1 38.84 19.15
  Q 40.25 18.86 41.28 19.57
  Q 42.46 20.38 41.25 21.15
  Q 37.83 23.32 34.64 25.60
  Z"
/>
<path fill="#fffeff" d="
  M 44.41 24.66
  C 41.54 26.28 38.32 29.09 40.76 32.52
  Q 42.73 35.29 44.53 37.88
  Q 45.41 39.14 44.68 40.50
  L 44.30 41.19
  Q 43.60 42.50 42.80 41.25
  C 40.97 38.39 37.56 34.30 37.00 31.55
  C 36.40 28.62 37.60 25.17 40.31 23.58
  Q 41.46 22.91 42.57 22.13
  A 0.52 0.52 0.0 0 1 43.29 22.25
  L 44.56 23.97
  A 0.47 0.47 0.0 0 1 44.41 24.66
  Z"
/>
<path fill="#fffeff" d="
  M 23.60 32.24
  Q 22.13 29.44 19.68 26.36
  Q 18.54 24.91 19.50 23.33
  L 19.72 22.96
  Q 20.53 21.63 21.37 22.94
  Q 23.20 25.78 25.21 28.62
  C 28.73 33.57 27.33 39.14 21.62 41.77
  Q 21.04 42.04 20.67 41.53
  L 19.90 40.51
  A 0.79 0.78 51.7 0 1 20.02 39.45
  C 22.19 37.62 25.33 35.51 23.60 32.24
  Z"
/>
<path fill="#fffeff" d="
  M 39.34 44.56
  C 35.18 36.54 30.90 40.95 26.01 44.44
  Q 24.55 45.48 23.08 44.46
  L 22.78 44.24
  Q 21.52 43.37 22.83 42.58
  C 27.51 39.72 32.37 34.33 38.37 38.23
  C 39.86 39.21 40.61 40.88 41.66 42.28
  Q 41.95 42.67 41.60 43.00
  L 39.94 44.65
  A 0.38 0.37 -35.8 0 1 39.34 44.56
  Z"
/>
</svg>
