<svg xmlns="http://www.w3.org/2000/svg" version="1.1" width="433" height="433" viewBox="0 0 433 433" style="shape-rendering:geometricPrecision; text-rendering:geometricPrecision; image-rendering:optimizeQuality; fill-rule:evenodd; clip-rule:evenodd" xmlns:xlink="http://www.w3.org/1999/xlink">
<g><path style="opacity:0.998" fill="#074c3d" d="M 195.5,-0.5 C 209.167,-0.5 222.833,-0.5 236.5,-0.5C 320.465,10.7281 380.298,54.7281 416,131.5C 424.348,152.23 429.848,173.563 432.5,195.5C 432.5,209.167 432.5,222.833 432.5,236.5C 421.272,320.465 377.272,380.298 300.5,416C 279.77,424.348 258.437,429.848 236.5,432.5C 222.833,432.5 209.167,432.5 195.5,432.5C 111.535,421.272 51.702,377.272 16,300.5C 7.65175,279.77 2.15175,258.437 -0.5,236.5C -0.5,222.833 -0.5,209.167 -0.5,195.5C 10.7281,111.535 54.7281,51.702 131.5,16C 152.23,7.65175 173.563,2.15175 195.5,-0.5 Z"/></g>
<g><path style="opacity:1" fill="#92afa9" d="M 318.5,155.5 C 317.833,155.5 317.167,155.5 316.5,155.5C 316.5,142.167 316.5,128.833 316.5,115.5C 275.5,115.5 234.5,115.5 193.5,115.5C 193.5,128.833 193.5,142.167 193.5,155.5C 192.833,155.5 192.167,155.5 191.5,155.5C 191.5,141.5 191.5,127.5 191.5,113.5C 233.833,113.5 276.167,113.5 318.5,113.5C 318.5,127.5 318.5,141.5 318.5,155.5 Z"/></g>
<g><path style="opacity:1" fill="#fefefe" d="M 151.5,115.5 C 150.838,169.51 151.504,223.177 153.5,276.5C 207.833,276.5 262.167,276.5 316.5,276.5C 316.5,289.833 316.5,303.167 316.5,316.5C 249.5,316.5 182.5,316.5 115.5,316.5C 115.5,249.5 115.5,182.5 115.5,115.5C 127.5,115.5 139.5,115.5 151.5,115.5 Z"/></g>
<g><path style="opacity:1" fill="#fdfdfd" d="M 316.5,155.5 C 275.5,155.5 234.5,155.5 193.5,155.5C 193.5,142.167 193.5,128.833 193.5,115.5C 234.5,115.5 275.5,115.5 316.5,115.5C 316.5,128.833 316.5,142.167 316.5,155.5 Z"/></g>
<g><path style="opacity:1" fill="#bdcfca" d="M 151.5,115.5 C 152.167,115.5 152.833,115.5 153.5,115.5C 153.5,169.167 153.5,222.833 153.5,276.5C 151.504,223.177 150.838,169.51 151.5,115.5 Z"/></g>
<g><path style="opacity:1" fill="#386e62" d="M 191.5,155.5 C 192.167,155.5 192.833,155.5 193.5,155.5C 234.5,155.5 275.5,155.5 316.5,155.5C 317.167,155.5 317.833,155.5 318.5,155.5C 297.677,156.833 276.511,157.5 255,157.5C 233.489,157.5 212.323,156.833 191.5,155.5 Z"/></g>
<g><path style="opacity:1" fill="#2b6558" d="M 318.5,195.5 C 317.833,195.5 317.167,195.5 316.5,195.5C 315.833,195.5 315.167,195.5 314.5,195.5C 273.833,195.5 233.167,195.5 192.5,195.5C 192.167,195.5 191.833,195.5 191.5,195.5C 212.323,194.167 233.489,193.5 255,193.5C 276.511,193.5 297.677,194.167 318.5,195.5 Z"/></g>
<g><path style="opacity:1" fill="#d1dddb" d="M 192.5,195.5 C 233.167,195.5 273.833,195.5 314.5,195.5C 274.167,196.167 233.833,196.833 193.5,197.5C 193.5,209.833 193.5,222.167 193.5,234.5C 193.5,234.833 193.5,235.167 193.5,235.5C 192.504,222.344 192.171,209.01 192.5,195.5 Z"/></g>
<g><path style="opacity:1" fill="#eaefef" d="M 314.5,195.5 C 315.167,195.5 315.833,195.5 316.5,195.5C 316.5,196.167 316.5,196.833 316.5,197.5C 275.5,197.5 234.5,197.5 193.5,197.5C 233.833,196.833 274.167,196.167 314.5,195.5 Z"/></g>
<g><path style="opacity:1" fill="#fefefe" d="M 193.5,197.5 C 234.5,197.5 275.5,197.5 316.5,197.5C 316.5,209.833 316.5,222.167 316.5,234.5C 275.5,234.5 234.5,234.5 193.5,234.5C 193.5,222.167 193.5,209.833 193.5,197.5 Z"/></g>
<g><path style="opacity:1" fill="#92b1aa" d="M 191.5,195.5 C 191.833,195.5 192.167,195.5 192.5,195.5C 192.171,209.01 192.504,222.344 193.5,235.5C 193.5,235.833 193.5,236.167 193.5,236.5C 192.833,236.5 192.167,236.5 191.5,236.5C 191.5,222.833 191.5,209.167 191.5,195.5 Z"/></g>
<g><path style="opacity:1" fill="#99b4ae" d="M 316.5,195.5 C 317.167,195.5 317.833,195.5 318.5,195.5C 318.5,209.167 318.5,222.833 318.5,236.5C 317.833,236.5 317.167,236.5 316.5,236.5C 316.5,235.833 316.5,235.167 316.5,234.5C 316.5,222.167 316.5,209.833 316.5,197.5C 316.5,196.833 316.5,196.167 316.5,195.5 Z"/></g>
<g><path style="opacity:1" fill="#e3ebe9" d="M 193.5,234.5 C 234.5,234.5 275.5,234.5 316.5,234.5C 316.5,235.167 316.5,235.833 316.5,236.5C 275.5,236.5 234.5,236.5 193.5,236.5C 193.5,236.167 193.5,235.833 193.5,235.5C 193.5,235.167 193.5,234.833 193.5,234.5 Z"/></g>
<g><path style="opacity:1" fill="#2b6558" d="M 191.5,236.5 C 192.167,236.5 192.833,236.5 193.5,236.5C 234.5,236.5 275.5,236.5 316.5,236.5C 317.167,236.5 317.833,236.5 318.5,236.5C 297.677,237.833 276.511,238.5 255,238.5C 233.489,238.5 212.323,237.833 191.5,236.5 Z"/></g>
<g><path style="opacity:1" fill="#326a5e" d="M 153.5,113.5 C 154.499,166.997 154.832,220.664 154.5,274.5C 209.51,273.838 264.177,274.504 318.5,276.5C 317.833,276.5 317.167,276.5 316.5,276.5C 262.167,276.5 207.833,276.5 153.5,276.5C 153.5,222.833 153.5,169.167 153.5,115.5C 153.5,114.833 153.5,114.167 153.5,113.5 Z"/></g>
<g><path style="opacity:1" fill="#90ada6" d="M 153.5,113.5 C 153.5,114.167 153.5,114.833 153.5,115.5C 152.833,115.5 152.167,115.5 151.5,115.5C 139.5,115.5 127.5,115.5 115.5,115.5C 115.5,182.5 115.5,249.5 115.5,316.5C 182.5,316.5 249.5,316.5 316.5,316.5C 316.5,303.167 316.5,289.833 316.5,276.5C 317.167,276.5 317.833,276.5 318.5,276.5C 318.5,290.5 318.5,304.5 318.5,318.5C 250.167,318.5 181.833,318.5 113.5,318.5C 113.5,250.167 113.5,181.833 113.5,113.5C 126.833,113.5 140.167,113.5 153.5,113.5 Z"/></g>
</svg>
