<svg xmlns="http://www.w3.org/2000/svg" xmlns:xlink="http://www.w3.org/1999/xlink" xml:space="preserve" id="Layer_1" x="0" y="0" style="enable-background:new 0 0 2500 2500" version="1.1" viewBox="0 0 2500 2500"><style>.st0{fill:none}</style><g id="Layer_x0020_1"><g id="_2090755387392"><defs><path id="SVGID_1_" d="M1250 0c690 0 1250 560 1250 1250s-560 1250-1250 1250S0 1940 0 1250 560 0 1250 0z"/></defs><clipPath id="SVGID_00000041975982607080311700000006961648659338717837_"><use xlink:href="#SVGID_1_" style="overflow:visible"/></clipPath><path d="M1250 0c690 0 1250 560 1250 1250s-560 1250-1250 1250S0 1940 0 1250 560 0 1250 0z" class="st0"/><defs><path id="SVGID_00000036969525268089711010000003774399497008146582_" d="M1250 0c690 0 1250 560 1250 1250s-560 1250-1250 1250S0 1940 0 1250 560 0 1250 0z"/></defs><clipPath id="SVGID_00000135677720271988507830000002297388256132805024_"><use xlink:href="#SVGID_00000036969525268089711010000003774399497008146582_" style="overflow:visible"/></clipPath><g style="clip-path:url(#SVGID_00000135677720271988507830000002297388256132805024_)"><path id="_1" d="m0 0 2500 2500m0-2500L0 2500" style="fill:none;stroke:#000;stroke-miterlimit:22.9256"/></g><linearGradient id="SVGID_00000058580318651294772570000007981201330882235781_" x1="1250" x2="1250" y1="2497.89" y2="-2.11" gradientTransform="matrix(1 0 0 -1 0 2497.89)" gradientUnits="userSpaceOnUse"><stop offset="0" style="stop-color:#f89791"/><stop offset="1" style="stop-color:#f7c882"/></linearGradient><path d="M1250 0c690 0 1250 560 1250 1250s-560 1250-1250 1250S0 1940 0 1250 560 0 1250 0z" style="fill:url(#SVGID_00000058580318651294772570000007981201330882235781_)"/><defs><path id="SVGID_00000141437398798568789070000004772063921812076968_" d="m1249 1472-557-318-15 23c-171 263-133 607 92 828 265 260 695 260 960 0 225-221 263-565 92-828l-15-23-557 318z"/></defs><clipPath id="SVGID_00000015334871052308758160000005251271703640773254_"><use xlink:href="#SVGID_00000141437398798568789070000004772063921812076968_" style="overflow:visible"/></clipPath><g style="clip-path:url(#SVGID_00000015334871052308758160000005251271703640773254_)"><radialGradient id="SVGID_00000113327359500377354770000005002787083079150210_" cx="2752.449" cy="92.378" r="594" gradientTransform="matrix(-.01243 -1.5265 -1.8194 .02652 1449.995 6295.926)" gradientUnits="userSpaceOnUse"><stop offset="0" style="stop-color:#c5c6ab"/><stop offset="1" style="stop-color:#7985ab"/></radialGradient><circle cx="1249" cy="1541" r="679" style="fill-rule:evenodd;clip-rule:evenodd;fill:url(#SVGID_00000113327359500377354770000005002787083079150210_)"/></g><path d="m1249 1472-557-318-15 23c-171 263-133 607 92 828 265 260 695 260 960 0 225-221 263-565 92-828l-15-23-557 318z" class="st0"/><radialGradient id="SVGID_00000083793969492512222540000009261254259573278875_" cx="1249" cy="1461.89" r="24" gradientTransform="matrix(1 0 0 -1 0 2497.89)" gradientUnits="userSpaceOnUse"><stop offset="0" style="stop-color:#06f;stop-opacity:0"/><stop offset="1" style="stop-color:#00c2ff;stop-opacity:.4"/></radialGradient><path d="m1249 762-480 274 480 274 480-274z" style="fill:url(#SVGID_00000083793969492512222540000009261254259573278875_)"/><radialGradient id="SVGID_00000145039257155427851180000015030649689709900193_" cx="1248.5" cy="1345.39" r="28.008" gradientTransform="matrix(1 0 0 -1 0 2497.89)" gradientUnits="userSpaceOnUse"><stop offset="0" style="stop-color:#aee6f9;stop-opacity:.8588"/><stop offset="1" style="stop-color:#c8d6dc"/></radialGradient><path d="m1250 833-558 321 557 318 556-318z" style="fill:url(#SVGID_00000145039257155427851180000015030649689709900193_)"/><linearGradient id="SVGID_00000037659333228838465300000014789412596476157606_" x1="1009" x2="1009" y1="2247.89" y2="1247.89" gradientTransform="matrix(1 0 0 -1 0 2497.89)" gradientUnits="userSpaceOnUse"><stop offset="0" style="stop-color:#77d4ff"/><stop offset="1" style="stop-color:#93d6f2;stop-opacity:.898"/></linearGradient><path d="m1249 300-480 736 480 274z" style="fill:url(#SVGID_00000037659333228838465300000014789412596476157606_)"/><linearGradient id="SVGID_00000026855884640234389390000017341915094101687178_" x1="1489" x2="1489" y1="2247.89" y2="1247.89" gradientTransform="matrix(1 0 0 -1 0 2497.89)" gradientUnits="userSpaceOnUse"><stop offset="0" style="stop-color:#506aac"/><stop offset="1" style="stop-color:#96cfef;stop-opacity:.8196"/></linearGradient><path d="m1249 1310 480-274-480-736z" style="fill:url(#SVGID_00000026855884640234389390000017341915094101687178_)"/></g></g></svg>