<svg width="433" height="433" viewBox="0 0 433 433" fill="none" xmlns="http://www.w3.org/2000/svg">
<g clip-path="url(#clip0_1795_3061)">
<path opacity="0.988" fill-rule="evenodd" clip-rule="evenodd" d="M193.5 -0.5C208.5 -0.5 223.5 -0.5 238.5 -0.5C330.424 12.9291 392.258 63.2625 424 150.5C427.713 164.803 430.546 179.136 432.5 193.5C432.5 208.5 432.5 223.5 432.5 238.5C419.071 330.424 368.738 392.258 281.5 424C267.197 427.713 252.864 430.546 238.5 432.5C223.5 432.5 208.5 432.5 193.5 432.5C101.576 419.071 39.7423 368.738 8 281.5C4.28715 267.197 1.45382 252.864 -0.5 238.5C-0.5 223.5 -0.5 208.5 -0.5 193.5C12.9291 101.576 63.2625 39.7423 150.5 8C164.803 4.28715 179.136 1.45382 193.5 -0.5Z" fill="#FEFEFE"/>
<path fill-rule="evenodd" clip-rule="evenodd" d="M233.499 86.5007C238.054 87.5846 242.721 88.7513 247.499 90.0007C229.638 95.8621 215.138 106.362 203.999 121.501C198.349 131.436 195.182 142.103 194.499 153.501C193.998 155 194.23 155.263 193.998 156.5C193.739 178.513 192.24 200.514 191.499 222.501C191.34 226.292 190.674 229.959 189.499 233.501C188.5 236 187.5 239 186.499 241.501C176.6 264.736 159.267 278.736 134.499 283.501C127.5 284.5 121.5 284 115.499 282.501C98.9117 276.079 87.4117 264.412 80.999 247.501C71.4431 211.835 77.1098 178.835 97.999 148.501C120.618 117.037 150.784 97.0372 188.499 88.5007C191.5 88 193 87.5 196 87C196.667 87 197.832 86.5007 198.499 86.5007C210.151 85.3565 221.818 85.3565 233.499 86.5007Z" fill="#201A8A"/>
<path fill-rule="evenodd" clip-rule="evenodd" d="M294.499 155.5C322.245 154.094 340.745 166.428 349.999 192.5C357.195 225.517 351.195 255.851 331.999 283.5C289.614 337.128 235.447 354.795 169.499 336.5C168.395 335.369 168.728 334.535 170.499 334C195.585 330.044 213.419 316.544 223.999 293.5C231.272 269.056 235.272 244.056 235.999 218.5C242.011 184.665 261.511 163.665 294.499 155.5Z" fill="#FFD605"/>
</g>
<defs>
<clipPath id="clip0_1795_3061">
<rect width="433" height="433" fill="white"/>
</clipPath>
</defs>
</svg>
