<svg xmlns="http://www.w3.org/2000/svg" version="1.1" viewBox="0 0 433 433" width="433" height="433" style="shape-rendering:geometricPrecision; text-rendering:geometricPrecision; image-rendering:optimizeQuality; fill-rule:evenodd; clip-rule:evenodd" xmlns:xlink="http://www.w3.org/1999/xlink">
<g><path style="opacity:0.995" fill="#fffefe" d="M 195.5,-0.5 C 209.167,-0.5 222.833,-0.5 236.5,-0.5C 320.465,10.7281 380.298,54.7281 416,131.5C 424.348,152.23 429.848,173.563 432.5,195.5C 432.5,209.167 432.5,222.833 432.5,236.5C 421.272,320.465 377.272,380.298 300.5,416C 279.77,424.348 258.437,429.848 236.5,432.5C 222.833,432.5 209.167,432.5 195.5,432.5C 111.535,421.272 51.702,377.272 16,300.5C 7.65175,279.77 2.15175,258.437 -0.5,236.5C -0.5,222.833 -0.5,209.167 -0.5,195.5C 10.7281,111.535 54.7281,51.702 131.5,16C 152.23,7.65175 173.563,2.15175 195.5,-0.5 Z"/></g>
<g><path style="opacity:1" fill="#f30676" d="M 105.5,140.5 C 112.473,139.536 118.807,141.036 124.5,145C 141.791,162.962 159.625,180.129 178,196.5C 190.388,181.4 202.055,165.733 213,149.5C 215.921,145.908 219.421,143.075 223.5,141C 258.167,140.333 292.833,140.333 327.5,141C 339.754,145.008 343.921,153.174 340,165.5C 337.768,170.731 333.935,174.231 328.5,176C 308.351,176.012 288.351,176.678 268.5,178C 274.96,186.129 281.794,193.963 289,201.5C 296.512,211.433 296.178,221.1 288,230.5C 281.025,237.795 274.525,245.462 268.5,253.5C 288.158,254.333 307.825,254.833 327.5,255C 341.241,260.221 344.741,269.388 338,282.5C 335.635,285.869 332.468,288.036 328.5,289C 294.5,289.667 260.5,289.667 226.5,289C 216.514,285.198 212.681,278.031 215,267.5C 226.194,249.475 238.36,232.141 251.5,215.5C 244.537,206.37 237.037,197.703 229,189.5C 227.021,191.395 225.021,193.395 223,195.5C 212.756,208.989 202.756,222.656 193,236.5C 187.331,242.212 180.497,244.045 172.5,242C 171.167,241.333 169.833,240.667 168.5,240C 156.478,227.134 143.812,215.3 130.5,204.5C 130.667,227.836 130.5,251.169 130,274.5C 124.253,288.957 114.086,293.457 99.5,288C 96.5665,285.736 94.3999,282.902 93,279.5C 91.3558,237.88 91.0224,196.213 92,154.5C 94.6873,147.981 99.1873,143.314 105.5,140.5 Z"/></g>
</svg>
