<svg version="1.1" xmlns="http://www.w3.org/2000/svg" width="400" height="400" viewBox="0 0 400 400">
<path d="M0 0 C62.04 0 124.08 0 188 0 C188 8.91 188 17.82 188 27 C196.58 27 205.16 27 214 27 C214 35.91 214 44.82 214 54 C222.91 54 231.82 54 241 54 C241 62.58 241 71.16 241 80 C249.91 80 258.82 80 268 80 C268 142.04 268 204.08 268 268 C259.09 268 250.18 268 241 268 C241 276.58 241 285.16 241 294 C232.09 294 223.18 294 214 294 C214 302.91 214 311.82 214 321 C205.42 321 196.84 321 188 321 C188 329.91 188 338.82 188 348 C125.96 348 63.92 348 0 348 C0 339.09 0 330.18 0 321 C-8.58 321 -17.16 321 -26 321 C-26 312.09 -26 303.18 -26 294 C-34.91 294 -43.82 294 -53 294 C-53 285.42 -53 276.84 -53 268 C-61.91 268 -70.82 268 -80 268 C-80 205.96 -80 143.92 -80 80 C-71.09 80 -62.18 80 -53 80 C-53 71.42 -53 62.84 -53 54 C-44.09 54 -35.18 54 -26 54 C-26 45.09 -26 36.18 -26 27 C-17.42 27 -8.84 27 0 27 C0 18.09 0 9.18 0 0 Z " fill="#E29300" transform="translate(106,26)"/>
<path d="M0 0 C62.04 0 124.08 0 188 0 C188 8.91 188 17.82 188 27 C196.58 27 205.16 27 214 27 C214 35.91 214 44.82 214 54 C222.91 54 231.82 54 241 54 C241 62.58 241 71.16 241 80 C249.91 80 258.82 80 268 80 C268 142.04 268 204.08 268 268 C259.09 268 250.18 268 241 268 C241 276.58 241 285.16 241 294 C232.09 294 223.18 294 214 294 C214 302.91 214 311.82 214 321 C205.42 321 196.84 321 188 321 C188 329.91 188 338.82 188 348 C125.96 348 63.92 348 0 348 C0 339.09 0 330.18 0 321 C-8.58 321 -17.16 321 -26 321 C-26 312.09 -26 303.18 -26 294 C-34.91 294 -43.82 294 -53 294 C-53 285.42 -53 276.84 -53 268 C-61.91 268 -70.82 268 -80 268 C-80 205.96 -80 143.92 -80 80 C-71.09 80 -62.18 80 -53 80 C-53 71.42 -53 62.84 -53 54 C-44.09 54 -35.18 54 -26 54 C-26 45.09 -26 36.18 -26 27 C-17.42 27 -8.84 27 0 27 C0 18.09 0 9.18 0 0 Z M28 28 C28 36.58 28 45.16 28 54 C18.76 54 9.52 54 0 54 C0 62.58 0 71.16 0 80 C-8.58 80 -17.16 80 -26 80 C-26 141.71 -26 203.42 -26 267 C-17.09 267 -8.18 267 1 267 C1 275.91 1 284.82 1 294 C9.91 294 18.82 294 28 294 C28 302.58 28 311.16 28 320 C80.47 320 132.94 320 187 320 C187 311.42 187 302.84 187 294 C178.42 294 169.84 294 161 294 C161 285.42 161 276.84 161 268 C169.58 268 178.16 268 187 268 C187 205.96 187 143.92 187 80 C178.42 80 169.84 80 161 80 C161 71.42 161 62.84 161 54 C169.58 54 178.16 54 187 54 C187 45.42 187 36.84 187 28 C134.53 28 82.06 28 28 28 Z " fill="#9F462A" transform="translate(106,26)"/>
<path d="M0 0 C5.17153458 0.00634104 10.34307004 0.00684569 15.51460791 0.00802541 C25.26376333 0.01110754 35.01290725 0.01927795 44.76205766 0.0293749 C55.87973892 0.04063407 66.99742079 0.04607095 78.11510634 0.05107033 C100.94441655 0.06146394 123.7737158 0.07920808 146.60301733 0.10139394 C146.60301733 9.01139394 146.60301733 17.92139394 146.60301733 27.10139394 C155.51301733 27.10139394 164.42301733 27.10139394 173.60301733 27.10139394 C173.60301733 35.68139394 173.60301733 44.26139394 173.60301733 53.10139394 C182.51301733 53.10139394 191.42301733 53.10139394 200.60301733 53.10139394 C200.60301733 115.14139394 200.60301733 177.18139394 200.60301733 241.10139394 C191.69301733 241.10139394 182.78301733 241.10139394 173.60301733 241.10139394 C173.60301733 249.68139394 173.60301733 258.26139394 173.60301733 267.10139394 C164.69301733 267.10139394 155.78301733 267.10139394 146.60301733 267.10139394 C146.60301733 276.01139394 146.60301733 284.92139394 146.60301733 294.10139394 C122.67028589 294.12465213 98.73755723 294.14244407 74.80481672 294.15320611 C63.68969476 294.15833837 52.57457999 294.16532175 41.45946264 294.17683339 C31.75913531 294.18687489 22.0588132 294.19326963 12.35848081 294.19548243 C7.23352608 294.19677365 2.10858627 294.19975672 -3.01636362 294.20712399 C-24.17670833 294.23640784 -45.25667091 294.11660665 -66.39698267 293.10139394 C-66.39698267 284.52139394 -66.39698267 275.94139394 -66.39698267 267.10139394 C-57.48698267 267.10139394 -48.57698267 267.10139394 -39.39698267 267.10139394 C-39.39698267 275.68139394 -39.39698267 284.26139394 -39.39698267 293.10139394 C13.07301733 293.10139394 65.54301733 293.10139394 119.60301733 293.10139394 C119.60301733 284.52139394 119.60301733 275.94139394 119.60301733 267.10139394 C111.02301733 267.10139394 102.44301733 267.10139394 93.60301733 267.10139394 C93.60301733 258.52139394 93.60301733 249.94139394 93.60301733 241.10139394 C102.18301733 241.10139394 110.76301733 241.10139394 119.60301733 241.10139394 C119.60301733 179.06139394 119.60301733 117.02139394 119.60301733 53.10139394 C111.02301733 53.10139394 102.44301733 53.10139394 93.60301733 53.10139394 C93.60301733 44.52139394 93.60301733 35.94139394 93.60301733 27.10139394 C102.18301733 27.10139394 110.76301733 27.10139394 119.60301733 27.10139394 C119.60301733 18.52139394 119.60301733 9.94139394 119.60301733 1.10139394 C67.13301733 1.10139394 14.66301733 1.10139394 -39.39698267 1.10139394 C-39.39698267 9.68139394 -39.39698267 18.26139394 -39.39698267 27.10139394 C-48.30698267 27.10139394 -57.21698267 27.10139394 -66.39698267 27.10139394 C-66.39698267 18.52139394 -66.39698267 9.94139394 -66.39698267 1.10139394 C-44.2527506 0.03797036 -22.16504748 -0.03186296 0 0 Z " fill="#B99543" transform="translate(173.39698266983032,52.898606061935425)"/>
<path d="M0 0 C17.82 0 35.64 0 54 0 C54 8.91 54 17.82 54 27 C62.58 27 71.16 27 80 27 C80 18.09 80 9.18 80 0 C97.82 0 115.64 0 134 0 C134 44.22 134 88.44 134 134 C125.09 134 116.18 134 107 134 C107 116.18 107 98.36 107 80 C98.09 80 89.18 80 80 80 C80 88.91 80 97.82 80 107 C71.42 107 62.84 107 54 107 C54 98.09 54 89.18 54 80 C45.09 80 36.18 80 27 80 C27 97.82 27 115.64 27 134 C18.09 134 9.18 134 0 134 C0 89.78 0 45.56 0 0 Z " fill="#A14829" transform="translate(133,133)"/>
<path d="M0 0 C62.04 0 124.08 0 188 0 C188 8.91 188 17.82 188 27 C126.29 27.33 64.58 27.66 1 28 C1 36.58 1 45.16 1 54 C0.67 62.58 0.34 71.16 0 80 C-17.49 80 -34.98 80 -53 80 C-53 71.42 -53 62.84 -53 54 C-44.09 54 -35.18 54 -26 54 C-26 45.09 -26 36.18 -26 27 C-17.42 27 -8.84 27 0 27 C0 18.09 0 9.18 0 0 Z " fill="#451833" transform="translate(106,26)"/>
<path d="M0 0 C8.91 0 17.82 0 27 0 C27 8.58 27 17.16 27 26 C88.71 26.33 150.42 26.66 214 27 C214 35.91 214 44.82 214 54 C151.96 54 89.92 54 26 54 C26 45.09 26 36.18 26 27 C17.42 27 8.84 27 0 27 C0 18.09 0 9.18 0 0 Z " fill="#451833" transform="translate(80,320)"/>
<path d="M0 0 C8.91 0 17.82 0 27 0 C27 62.04 27 124.08 27 188 C18.09 188 9.18 188 0 188 C0 125.96 0 63.92 0 0 Z " fill="#451834" transform="translate(347,106)"/>
<path d="M0 0 C8.91 0 17.82 0 27 0 C27 62.04 27 124.08 27 188 C18.09 188 9.18 188 0 188 C0 125.96 0 63.92 0 0 Z " fill="#451833" transform="translate(26,106)"/>
<path d="M0 0 C8.91 0 17.82 0 27 0 C27 61.38 27 122.76 27 186 C18.09 186 9.18 186 0 186 C0 124.62 0 63.24 0 0 Z " fill="#A14829" transform="translate(293,107)"/>
<path d="M0 0 C8.91 0 17.82 0 27 0 C27 61.38 27 122.76 27 186 C18.09 186 9.18 186 0 186 C0 124.62 0 63.24 0 0 Z " fill="#FEE64D" transform="translate(80,107)"/>
<path d="M0 0 C8.58 0 17.16 0 26 0 C26 61.38 26 122.76 26 186 C17.42 186 8.84 186 0 186 C0 124.62 0 63.24 0 0 Z " fill="#FFE84F" transform="translate(320,107)"/>
<path d="M0 0 C52.47 0 104.94 0 159 0 C159 8.58 159 17.16 159 26 C106.53 26 54.06 26 0 26 C0 17.42 0 8.84 0 0 Z " fill="#FFE84F" transform="translate(134,320)"/>
<path d="M0 0 C52.47 0 104.94 0 159 0 C159 8.58 159 17.16 159 26 C106.53 26 54.06 26 0 26 C0 17.42 0 8.84 0 0 Z " fill="#FFE84F" transform="translate(134,54)"/>
<path d="M0 0 C8.58 0 17.16 0 26 0 C26 17.49 26 34.98 26 53 C8.51 53 -8.98 53 -27 53 C-27 44.42 -27 35.84 -27 27 C-18.09 27 -9.18 27 0 27 C0 18.09 0 9.18 0 0 Z " fill="#451834" transform="translate(80,53)"/>
<path d="M0 0 C8.91 0 17.82 0 27 0 C27 8.91 27 17.82 27 27 C18.09 27 9.18 27 0 27 C0 18.09 0 9.18 0 0 Z " fill="#A34B2B" transform="translate(80,293)"/>
<path d="M0 0 C8.58 0 17.16 0 26 0 C26 8.91 26 17.82 26 27 C17.42 27 8.84 27 0 27 C0 18.09 0 9.18 0 0 Z " fill="#451834" transform="translate(294,320)"/>
<path d="M0 0 C8.91 0 17.82 0 27 0 C27 8.58 27 17.16 27 26 C18.09 26 9.18 26 0 26 C0 17.42 0 8.84 0 0 Z " fill="#451834" transform="translate(320,294)"/>
<path d="M0 0 C8.91 0 17.82 0 27 0 C27 8.58 27 17.16 27 26 C18.09 26 9.18 26 0 26 C0 17.42 0 8.84 0 0 Z " fill="#451834" transform="translate(53,294)"/>
<path d="M0 0 C8.91 0 17.82 0 27 0 C27 8.58 27 17.16 27 26 C18.09 26 9.18 26 0 26 C0 17.42 0 8.84 0 0 Z " fill="#451834" transform="translate(320,80)"/>
<path d="M0 0 C8.91 0 17.82 0 27 0 C27 8.58 27 17.16 27 26 C18.09 26 9.18 26 0 26 C0 17.42 0 8.84 0 0 Z " fill="#451834" transform="translate(53,80)"/>
<path d="M0 0 C8.58 0 17.16 0 26 0 C26 8.91 26 17.82 26 27 C17.42 27 8.84 27 0 27 C0 18.09 0 9.18 0 0 Z " fill="#451834" transform="translate(294,53)"/>
<path d="M0 0 C8.58 0 17.16 0 26 0 C26 8.58 26 17.16 26 26 C17.42 26 8.84 26 0 26 C0 17.42 0 8.84 0 0 Z " fill="#A1472A" transform="translate(107,320)"/>
<path d="M0 0 C8.58 0 17.16 0 26 0 C26 8.58 26 17.16 26 26 C17.42 26 8.84 26 0 26 C0 17.42 0 8.84 0 0 Z " fill="#FFE84F" transform="translate(294,294)"/>
<path d="M0 0 C8.58 0 17.16 0 26 0 C26 8.58 26 17.16 26 26 C17.42 26 8.84 26 0 26 C0 17.42 0 8.84 0 0 Z " fill="#A1472A" transform="translate(267,294)"/>
<path d="M0 0 C8.58 0 17.16 0 26 0 C26 8.58 26 17.16 26 26 C17.42 26 8.84 26 0 26 C0 17.42 0 8.84 0 0 Z " fill="#FFE84F" transform="translate(107,294)"/>
<path d="M0 0 C8.58 0 17.16 0 26 0 C26 8.58 26 17.16 26 26 C17.42 26 8.84 26 0 26 C0 17.42 0 8.84 0 0 Z " fill="#FFE84F" transform="translate(294,80)"/>
<path d="M0 0 C8.58 0 17.16 0 26 0 C26 8.58 26 17.16 26 26 C17.42 26 8.84 26 0 26 C0 17.42 0 8.84 0 0 Z " fill="#A1472A" transform="translate(267,80)"/>
<path d="M0 0 C8.58 0 17.16 0 26 0 C26 8.58 26 17.16 26 26 C17.42 26 8.84 26 0 26 C0 17.42 0 8.84 0 0 Z " fill="#FFE84F" transform="translate(107,80)"/>
<path d="M0 0 C8.58 0 17.16 0 26 0 C26 8.58 26 17.16 26 26 C17.42 26 8.84 26 0 26 C0 17.42 0 8.84 0 0 Z " fill="#A1472A" transform="translate(80,80)"/>
<path d="M0 0 C8.58 0 17.16 0 26 0 C26 8.58 26 17.16 26 26 C17.42 26 8.84 26 0 26 C0 17.42 0 8.84 0 0 Z " fill="#A1472A" transform="translate(107,54)"/>
</svg>