<svg xmlns="http://www.w3.org/2000/svg" version="1.1" viewBox="0 0 400 400" width="400" height="400" style="shape-rendering:geometricPrecision; text-rendering:geometricPrecision; image-rendering:optimizeQuality; fill-rule:evenodd; clip-rule:evenodd" xmlns:xlink="http://www.w3.org/1999/xlink">
<g><path style="opacity:1" fill="#b99f32" d="M -0.5,-0.5 C 132.833,-0.5 266.167,-0.5 399.5,-0.5C 399.5,132.833 399.5,266.167 399.5,399.5C 371.5,399.5 343.5,399.5 315.5,399.5C 315.207,393.107 315.54,386.773 316.5,380.5C 315.735,378.705 315.068,376.872 314.5,375C 315.619,367.203 315.786,359.37 315,351.5C 313.672,345.55 312.505,339.55 311.5,333.5C 310.332,326.386 308.998,319.219 307.5,312C 307.833,311 308.167,310 308.5,309C 307.928,305.015 307.261,301.182 306.5,297.5C 306.5,296.5 306.5,295.5 306.5,294.5C 304.11,287.046 303.11,279.38 303.5,271.5C 303.5,270.833 303.5,270.167 303.5,269.5C 306.198,265.113 308.531,260.446 310.5,255.5C 313.975,236.845 314.141,218.178 311,199.5C 309.788,195.472 307.621,192.138 304.5,189.5C 303.662,189.158 303.328,188.492 303.5,187.5C 302.674,184.515 301.341,181.849 299.5,179.5C 298.894,174.709 296.727,170.709 293,167.5C 292.809,165.292 292.309,163.292 291.5,161.5C 291.668,157.342 291.002,153.342 289.5,149.5C 289.5,147.5 289.5,145.5 289.5,143.5C 290.989,136.36 292.156,129.027 293,121.5C 295.748,113.171 297.581,104.671 298.5,96C 298.481,92.7485 297.814,89.9151 296.5,87.5C 295.527,85.0521 295.194,82.3854 295.5,79.5C 295.665,76.4816 295.498,73.4816 295,70.5C 294.722,69.5842 294.222,68.9175 293.5,68.5C 293.586,67.5041 293.252,66.6708 292.5,66C 291.167,65.8333 289.833,65.6667 288.5,65.5C 285.677,65.9489 283.177,66.9489 281,68.5C 278.941,67.3818 276.774,66.7151 274.5,66.5C 273.091,70.9014 272.091,75.2348 271.5,79.5C 265.167,83.8333 259.833,89.1667 255.5,95.5C 253.685,96.6298 251.685,97.2964 249.5,97.5C 249.5,98.5 249.5,99.5 249.5,100.5C 247.239,101.252 245.073,102.252 243,103.5C 241.893,103.415 240.893,103.081 240,102.5C 239.506,104.134 239.34,105.801 239.5,107.5C 237.5,107.5 235.5,107.5 233.5,107.5C 233.5,108.833 233.5,110.167 233.5,111.5C 229.328,113.671 224.828,115.005 220,115.5C 215.863,114.763 211.697,114.429 207.5,114.5C 201.69,113.51 195.69,113.177 189.5,113.5C 183.935,115.142 178.268,116.642 172.5,118C 171.619,118.708 170.953,119.542 170.5,120.5C 166.806,122.412 162.806,122.912 158.5,122C 150.916,118.377 143.583,114.544 136.5,110.5C 135.71,109.206 134.71,108.039 133.5,107C 129.494,105.499 125.494,103.999 121.5,102.5C 118.457,100.321 116.29,97.9872 115,95.5C 114.439,96.0219 113.772,96.3552 113,96.5C 108.665,94.5649 104.165,93.2316 99.5,92.5C 96.8279,90.8327 94.1612,89.1661 91.5,87.5C 90,87.1667 88.5,86.8333 87,86.5C 85.0145,86.5687 83.5145,87.2353 82.5,88.5C 81.5,88.8333 80.8333,89.5 80.5,90.5C 79.5987,91.2905 78.9321,92.2905 78.5,93.5C 77.8389,95.134 77.5056,96.9674 77.5,99C 78.3129,108.865 79.6463,118.365 81.5,127.5C 81.4152,130.649 82.4152,133.316 84.5,135.5C 86.2435,139.661 87.4102,143.994 88,148.5C 91.5112,151.536 94.0112,155.203 95.5,159.5C 95.8333,162.167 96.1667,164.833 96.5,167.5C 96.466,172.237 96.1326,176.737 95.5,181C 96.448,181.483 97.448,181.649 98.5,181.5C 98.1669,193.862 97.3336,194.196 96,182.5C 95.5563,188.845 95.723,195.178 96.5,201.5C 96.5,203.5 96.5,205.5 96.5,207.5C 95.1127,209.877 94.2794,212.543 94,215.5C 93.5892,220.519 93.0892,225.519 92.5,230.5C 92.8333,231.167 93.1667,231.833 93.5,232.5C 92.2749,233.152 91.6083,234.319 91.5,236C 91.8421,239.16 92.8421,241.994 94.5,244.5C 94.4021,246.553 95.0687,248.22 96.5,249.5C 98.394,254.515 100.061,259.515 101.5,264.5C 103.241,266.395 104.241,268.728 104.5,271.5C 104.433,273.401 104.767,275.234 105.5,277C 104.68,278.8 104.014,280.634 103.5,282.5C 102.224,284.562 101.39,286.896 101,289.5C 100.153,297.23 98.9868,304.896 97.5,312.5C 93.983,329.26 90.983,346.26 88.5,363.5C 88.8178,364.647 89.4844,365.481 90.5,366C 89.7476,366.671 89.4142,367.504 89.5,368.5C 88.525,371.311 87.8583,374.311 87.5,377.5C 86.5128,382.305 86.1795,387.305 86.5,392.5C 87.021,394.861 87.3543,397.194 87.5,399.5C 58.1667,399.5 28.8333,399.5 -0.5,399.5C -0.5,266.167 -0.5,132.833 -0.5,-0.5 Z"/></g>
<g><path style="opacity:1" fill="#a28b38" d="M 293.5,68.5 C 291.621,67.6586 289.621,67.3253 287.5,67.5C 281.809,71.0134 276.476,75.0134 271.5,79.5C 272.091,75.2348 273.091,70.9014 274.5,66.5C 276.774,66.7151 278.941,67.3818 281,68.5C 283.177,66.9489 285.677,65.9489 288.5,65.5C 289.833,65.6667 291.167,65.8333 292.5,66C 293.252,66.6708 293.586,67.5041 293.5,68.5 Z"/></g>
<g><path style="opacity:1" fill="#7f723f" d="M 293.5,68.5 C 294.222,68.9175 294.722,69.5842 295,70.5C 295.498,73.4816 295.665,76.4816 295.5,79.5C 294.566,78.4324 294.232,77.099 294.5,75.5C 294.326,73.139 293.993,70.8056 293.5,68.5 Z"/></g>
<g><path style="opacity:1" fill="#a38a44" d="M 99.5,92.5 C 96.089,91.6403 92.7556,90.4737 89.5,89C 87.1902,88.5034 84.8568,88.3367 82.5,88.5C 83.5145,87.2353 85.0145,86.5687 87,86.5C 88.5,86.8333 90,87.1667 91.5,87.5C 94.1612,89.1661 96.8279,90.8327 99.5,92.5 Z"/></g>
<g><path style="opacity:1" fill="#7a6332" d="M 271.5,79.5 C 266.5,85.1667 261.167,90.5 255.5,95.5C 259.833,89.1667 265.167,83.8333 271.5,79.5 Z"/></g>
<g><path style="opacity:1" fill="#f0e1cc" d="M 287.5,67.5 C 289.621,67.3253 291.621,67.6586 293.5,68.5C 293.993,70.8056 294.326,73.139 294.5,75.5C 292.728,73.6236 290.895,73.2903 289,74.5C 288.876,87.6852 289.376,100.852 290.5,114C 288.047,118.537 288.047,123.037 290.5,127.5C 289.908,130.127 289.575,132.794 289.5,135.5C 288.735,134.34 287.735,133.34 286.5,132.5C 284.319,136.206 282.819,140.206 282,144.5C 280.644,143.62 279.144,143.286 277.5,143.5C 276.89,138.345 278.056,133.678 281,129.5C 281.511,120.304 282.011,111.304 282.5,102.5C 282.014,100.503 280.847,99.1693 279,98.5C 276.65,99.5042 274.316,100.504 272,101.5C 271.51,100.207 271.343,98.8734 271.5,97.5C 271.343,96.1266 271.51,94.7932 272,93.5C 274.413,90.9382 276.08,87.9382 277,84.5C 281.506,80.3267 285.673,75.8267 289.5,71C 288.027,70.2904 287.36,69.1238 287.5,67.5 Z"/></g>
<g><path style="opacity:1" fill="#f0e4d8" d="M 294.5,75.5 C 294.232,77.099 294.566,78.4324 295.5,79.5C 295.194,82.3854 295.527,85.0521 296.5,87.5C 296.666,92.8437 296.499,98.1771 296,103.5C 294.161,111.52 292.328,119.52 290.5,127.5C 288.047,123.037 288.047,118.537 290.5,114C 289.376,100.852 288.876,87.6852 289,74.5C 290.895,73.2903 292.728,73.6236 294.5,75.5 Z"/></g>
<g><path style="opacity:1" fill="#d6bd94" d="M 82.5,88.5 C 84.8568,88.3367 87.1902,88.5034 89.5,89C 92.7556,90.4737 96.089,91.6403 99.5,92.5C 111.284,98.2257 122.951,104.226 134.5,110.5C 138.63,113.403 142.963,116.07 147.5,118.5C 147.631,119.376 147.298,120.043 146.5,120.5C 135.882,114.668 125.215,108.834 114.5,103C 113.101,102.405 111.768,102.572 110.5,103.5C 108.514,100.157 105.514,98.824 101.5,99.5C 101.215,104.26 103.381,107.26 108,108.5C 108.483,109.448 108.649,110.448 108.5,111.5C 109.5,111.5 110.5,111.5 111.5,111.5C 111.351,112.552 111.517,113.552 112,114.5C 112.333,114.167 112.667,113.833 113,113.5C 115.475,118.832 118.642,123.498 122.5,127.5C 121.417,127.461 120.417,127.127 119.5,126.5C 114.493,120.474 109.493,114.474 104.5,108.5C 100.389,107.389 98.0554,104.722 97.5,100.5C 92.6965,97.5289 88.0298,94.3623 83.5,91C 82.552,90.5172 81.552,90.3505 80.5,90.5C 80.8333,89.5 81.5,88.8333 82.5,88.5 Z"/></g>
<g><path style="opacity:1" fill="#8d7730" d="M 99.5,92.5 C 104.165,93.2316 108.665,94.5649 113,96.5C 113.772,96.3552 114.439,96.0219 115,95.5C 116.29,97.9872 118.457,100.321 121.5,102.5C 125.494,103.999 129.494,105.499 133.5,107C 134.71,108.039 135.71,109.206 136.5,110.5C 135.833,110.5 135.167,110.5 134.5,110.5C 122.951,104.226 111.284,98.2257 99.5,92.5 Z"/></g>
<g><path style="opacity:1" fill="#d3b285" d="M 287.5,67.5 C 287.36,69.1238 288.027,70.2904 289.5,71C 285.673,75.8267 281.506,80.3267 277,84.5C 276.08,87.9382 274.413,90.9382 272,93.5C 271.51,94.7932 271.343,96.1266 271.5,97.5C 270.85,97.8039 270.183,98.1373 269.5,98.5C 268.48,103.024 267.147,107.357 265.5,111.5C 264.995,114.29 263.995,117.29 262.5,120.5C 260.766,122.683 259.766,125.35 259.5,128.5C 260.785,131.021 261.452,133.687 261.5,136.5C 268.732,137.575 272.065,134.575 271.5,127.5C 272.5,127.5 273.5,127.5 274.5,127.5C 274.334,134.175 274.5,140.842 275,147.5C 277.063,151.892 279.897,152.559 283.5,149.5C 284.568,148.566 285.901,148.232 287.5,148.5C 286.588,149.738 286.421,151.072 287,152.5C 287.377,151.058 288.21,150.058 289.5,149.5C 291.002,153.342 291.668,157.342 291.5,161.5C 291.337,163.857 291.503,166.19 292,168.5C 295.175,171.818 297.675,175.485 299.5,179.5C 299.794,182.754 301.127,185.421 303.5,187.5C 303.328,188.492 303.662,189.158 304.5,189.5C 309.827,199.351 312.494,210.017 312.5,221.5C 311.667,230.824 310.834,240.158 310,249.5C 308.312,250.325 308.145,251.325 309.5,252.5C 308.336,256.013 307.002,259.346 305.5,262.5C 305.768,260.901 305.434,259.568 304.5,258.5C 306.407,253.42 307.573,248.087 308,242.5C 308.799,246.424 309.299,246.424 309.5,242.5C 306.82,232.555 307.153,222.722 310.5,213C 308.894,210.136 308.394,206.969 309,203.5C 307.333,201.833 305.667,200.167 304,198.5C 303.316,197.216 303.483,196.049 304.5,195C 302.09,194.943 300.756,193.776 300.5,191.5C 299.047,190.175 299.381,189.342 301.5,189C 300.382,187.926 299.382,186.76 298.5,185.5C 297.808,186.025 297.308,186.692 297,187.5C 292.034,184.271 291.2,180.604 294.5,176.5C 293.311,175.571 291.978,175.238 290.5,175.5C 290.5,174.167 290.5,172.833 290.5,171.5C 285.736,171.783 281.403,170.616 277.5,168C 278.973,167.29 279.64,166.124 279.5,164.5C 282.13,163.572 284.796,162.572 287.5,161.5C 285.665,160.572 285.332,159.406 286.5,158C 281.837,157.082 276.837,156.249 271.5,155.5C 269.142,152.111 265.809,150.277 261.5,150C 260.782,147.539 260.115,145.039 259.5,142.5C 255.581,138.39 252.581,133.723 250.5,128.5C 249.675,127.614 248.675,127.281 247.5,127.5C 246.616,122.568 243.95,120.568 239.5,121.5C 237.699,119.862 236.033,118.029 234.5,116C 235.931,115.535 237.097,114.701 238,113.5C 238.333,113.833 238.667,114.167 239,114.5C 239.483,113.552 239.649,112.552 239.5,111.5C 244.44,110.402 248.107,107.569 250.5,103C 251.448,102.517 252.448,102.351 253.5,102.5C 253.657,101.127 253.49,99.7932 253,98.5C 252.184,99.8228 251.017,100.489 249.5,100.5C 249.5,99.5 249.5,98.5 249.5,97.5C 251.685,97.2964 253.685,96.6298 255.5,95.5C 261.167,90.5 266.5,85.1667 271.5,79.5C 276.476,75.0134 281.809,71.0134 287.5,67.5 Z"/></g>
<g><path style="opacity:1" fill="#786640" d="M 78.5,93.5 C 79.6893,104.818 80.6893,116.151 81.5,127.5C 79.6463,118.365 78.3129,108.865 77.5,99C 77.5056,96.9674 77.8389,95.134 78.5,93.5 Z"/></g>
<g><path style="opacity:1" fill="#ebdcc6" d="M 80.5,90.5 C 81.552,90.3505 82.552,90.5172 83.5,91C 88.0298,94.3623 92.6965,97.5289 97.5,100.5C 98.0554,104.722 100.389,107.389 104.5,108.5C 109.493,114.474 114.493,120.474 119.5,126.5C 120.417,127.127 121.417,127.461 122.5,127.5C 124.941,131.817 126.607,136.484 127.5,141.5C 127.747,142.713 128.414,143.38 129.5,143.5C 129.169,146.992 129.169,150.326 129.5,153.5C 129.058,154.739 128.391,155.739 127.5,156.5C 128.146,158.181 128.813,159.847 129.5,161.5C 129.308,163.577 128.808,165.577 128,167.5C 124.994,169.841 121.994,172.175 119,174.5C 115.717,173.947 113.551,172.114 112.5,169C 113.646,168.355 114.646,167.522 115.5,166.5C 117.452,167.103 119.452,166.77 121.5,165.5C 124.685,161.366 124.018,158.032 119.5,155.5C 117.488,154.772 115.488,153.938 113.5,153C 116.15,150.918 115.816,149.251 112.5,148C 114.43,145.347 117.096,144.014 120.5,144C 118.271,141.447 117.938,138.614 119.5,135.5C 118.5,134.667 117.5,133.833 116.5,133C 117.641,132.259 117.641,131.425 116.5,130.5C 113.17,128.044 110.003,128.378 107,131.5C 106.226,138.224 106.559,144.89 108,151.5C 109.022,153.664 110.189,155.664 111.5,157.5C 112.234,166.692 110.067,168.026 105,161.5C 104.708,163.326 104.875,165.159 105.5,167C 105.316,168.376 104.649,169.209 103.5,169.5C 103.167,168.5 102.5,167.833 101.5,167.5C 99.7451,164.32 97.7451,161.32 95.5,158.5C 92.6048,150.379 88.9381,142.713 84.5,135.5C 84.0198,132.557 83.0198,129.89 81.5,127.5C 80.6893,116.151 79.6893,104.818 78.5,93.5C 78.9321,92.2905 79.5987,91.2905 80.5,90.5 Z"/></g>
<g><path style="opacity:1" fill="#e5c49e" d="M 283.5,149.5 C 279.897,152.559 277.063,151.892 275,147.5C 274.5,140.842 274.334,134.175 274.5,127.5C 273.5,127.5 272.5,127.5 271.5,127.5C 271.5,125.167 271.5,122.833 271.5,120.5C 268.5,120.5 265.5,120.5 262.5,120.5C 263.995,117.29 264.995,114.29 265.5,111.5C 269.564,110.791 273.564,110.791 277.5,111.5C 277.594,122.275 277.094,132.942 276,143.5C 276.311,148.316 278.811,150.316 283.5,149.5 Z"/></g>
<g><path style="opacity:1" fill="#5d4f2b" d="M 189.5,113.5 C 195.69,113.177 201.69,113.51 207.5,114.5C 200.065,114.221 192.731,114.888 185.5,116.5C 186.833,115.5 188.167,114.5 189.5,113.5 Z"/></g>
<g><path style="opacity:1" fill="#a69143" d="M 249.5,100.5 C 245.909,104.299 241.909,107.633 237.5,110.5C 233.826,112.429 230.826,114.429 228.5,116.5C 228.5,117.167 228.167,117.5 227.5,117.5C 226.167,117.5 224.833,117.5 223.5,117.5C 217.863,117.415 212.529,116.415 207.5,114.5C 211.697,114.429 215.863,114.763 220,115.5C 224.828,115.005 229.328,113.671 233.5,111.5C 233.5,110.167 233.5,108.833 233.5,107.5C 235.5,107.5 237.5,107.5 239.5,107.5C 239.34,105.801 239.506,104.134 240,102.5C 240.893,103.081 241.893,103.415 243,103.5C 245.073,102.252 247.239,101.252 249.5,100.5 Z"/></g>
<g><path style="opacity:1" fill="#6f561d" d="M 237.5,110.5 C 235.37,113.737 232.37,115.737 228.5,116.5C 230.826,114.429 233.826,112.429 237.5,110.5 Z"/></g>
<g><path style="opacity:1" fill="#8b7b3c" d="M 296.5,87.5 C 297.814,89.9151 298.481,92.7485 298.5,96C 297.581,104.671 295.748,113.171 293,121.5C 292.156,129.027 290.989,136.36 289.5,143.5C 289.5,140.833 289.5,138.167 289.5,135.5C 289.575,132.794 289.908,130.127 290.5,127.5C 292.328,119.52 294.161,111.52 296,103.5C 296.499,98.1771 296.666,92.8437 296.5,87.5 Z"/></g>
<g><path style="opacity:1" fill="#74602a" d="M 134.5,110.5 C 135.167,110.5 135.833,110.5 136.5,110.5C 143.583,114.544 150.916,118.377 158.5,122C 162.806,122.912 166.806,122.412 170.5,120.5C 173.5,119.833 176.5,119.167 179.5,118.5C 177.819,120.008 175.819,121.008 173.5,121.5C 168.976,123.131 164.309,124.131 159.5,124.5C 155.631,122.316 151.631,120.316 147.5,118.5C 142.963,116.07 138.63,113.403 134.5,110.5 Z"/></g>
<g><path style="opacity:1" fill="#a59343" d="M 189.5,113.5 C 188.167,114.5 186.833,115.5 185.5,116.5C 183.786,117.738 181.786,118.405 179.5,118.5C 176.5,119.167 173.5,119.833 170.5,120.5C 170.953,119.542 171.619,118.708 172.5,118C 178.268,116.642 183.935,115.142 189.5,113.5 Z"/></g>
<g><path style="opacity:1" fill="#f7f3e1" d="M 207.5,114.5 C 212.529,116.415 217.863,117.415 223.5,117.5C 225.626,118.126 227.293,119.459 228.5,121.5C 223.206,121.283 217.873,121.616 212.5,122.5C 212.5,123.5 212.5,124.5 212.5,125.5C 204.69,126.026 197.023,125.359 189.5,123.5C 184.307,124.196 179.14,124.529 174,124.5C 172.317,123.824 172.15,122.824 173.5,121.5C 175.819,121.008 177.819,120.008 179.5,118.5C 181.786,118.405 183.786,117.738 185.5,116.5C 192.731,114.888 200.065,114.221 207.5,114.5 Z"/></g>
<g><path style="opacity:1" fill="#e6d6b7" d="M 223.5,117.5 C 224.833,117.5 226.167,117.5 227.5,117.5C 230.603,118.042 233.436,119.376 236,121.5C 237.5,123.667 239,125.833 240.5,128C 239.167,130 237.833,130 236.5,128C 225.497,126.415 214.497,126.581 203.5,128.5C 202.228,128.43 201.062,128.097 200,127.5C 199.751,128.624 199.251,129.624 198.5,130.5C 196.772,128.774 194.772,127.441 192.5,126.5C 189.539,127.582 186.539,127.582 183.5,126.5C 174.607,129.475 165.607,131.809 156.5,133.5C 155.534,131.604 155.201,129.604 155.5,127.5C 156.833,127.5 158.167,127.5 159.5,127.5C 159.5,126.5 159.5,125.5 159.5,124.5C 164.309,124.131 168.976,123.131 173.5,121.5C 172.15,122.824 172.317,123.824 174,124.5C 179.14,124.529 184.307,124.196 189.5,123.5C 197.023,125.359 204.69,126.026 212.5,125.5C 212.5,124.5 212.5,123.5 212.5,122.5C 217.873,121.616 223.206,121.283 228.5,121.5C 227.293,119.459 225.626,118.126 223.5,117.5 Z"/></g>
<g><path style="opacity:1" fill="#e8d2b7" d="M 262.5,120.5 C 265.5,120.5 268.5,120.5 271.5,120.5C 271.5,122.833 271.5,125.167 271.5,127.5C 272.065,134.575 268.732,137.575 261.5,136.5C 261.452,133.687 260.785,131.021 259.5,128.5C 259.766,125.35 260.766,122.683 262.5,120.5 Z"/></g>
<g><path style="opacity:1" fill="#6c592d" d="M 81.5,127.5 C 83.0198,129.89 84.0198,132.557 84.5,135.5C 82.4152,133.316 81.4152,130.649 81.5,127.5 Z"/></g>
<g><path style="opacity:1" fill="#dcc199" d="M 239.5,121.5 C 243.811,124.306 245.478,128.139 244.5,133C 237.493,133.526 230.993,132.026 225,128.5C 219.567,130.463 214.067,132.296 208.5,134C 205.615,136.394 202.615,138.561 199.5,140.5C 196.502,138.649 193.835,136.315 191.5,133.5C 186.664,131.59 181.664,131.09 176.5,132C 168.442,133.294 160.442,134.461 152.5,135.5C 152.167,134.667 151.833,133.833 151.5,133C 152.27,128.237 154.937,125.404 159.5,124.5C 159.5,125.5 159.5,126.5 159.5,127.5C 158.167,127.5 156.833,127.5 155.5,127.5C 155.201,129.604 155.534,131.604 156.5,133.5C 165.607,131.809 174.607,129.475 183.5,126.5C 186.539,127.582 189.539,127.582 192.5,126.5C 194.772,127.441 196.772,128.774 198.5,130.5C 199.251,129.624 199.751,128.624 200,127.5C 201.062,128.097 202.228,128.43 203.5,128.5C 214.497,126.581 225.497,126.415 236.5,128C 237.833,130 239.167,130 240.5,128C 239,125.833 237.5,123.667 236,121.5C 233.436,119.376 230.603,118.042 227.5,117.5C 228.167,117.5 228.5,117.167 228.5,116.5C 232.37,115.737 235.37,113.737 237.5,110.5C 241.909,107.633 245.909,104.299 249.5,100.5C 251.017,100.489 252.184,99.8228 253,98.5C 253.49,99.7932 253.657,101.127 253.5,102.5C 252.448,102.351 251.448,102.517 250.5,103C 248.107,107.569 244.44,110.402 239.5,111.5C 239.649,112.552 239.483,113.552 239,114.5C 238.667,114.167 238.333,113.833 238,113.5C 237.097,114.701 235.931,115.535 234.5,116C 236.033,118.029 237.699,119.862 239.5,121.5 Z"/></g>
<g><path style="opacity:1" fill="#e1c09e" d="M 119.5,155.5 C 118.537,157.298 119.204,158.632 121.5,159.5C 120.675,160.386 119.675,160.719 118.5,160.5C 118.688,162.103 118.188,163.437 117,164.5C 114.188,162.849 112.355,160.516 111.5,157.5C 110.189,155.664 109.022,153.664 108,151.5C 106.559,144.89 106.226,138.224 107,131.5C 110.003,128.378 113.17,128.044 116.5,130.5C 117.641,131.425 117.641,132.259 116.5,133C 117.5,133.833 118.5,134.667 119.5,135.5C 117.938,138.614 118.271,141.447 120.5,144C 117.096,144.014 114.43,145.347 112.5,148C 115.816,149.251 116.15,150.918 113.5,153C 115.488,153.938 117.488,154.772 119.5,155.5 Z"/></g>
<g><path style="opacity:1" fill="#d8b88a" d="M 147.5,118.5 C 151.631,120.316 155.631,122.316 159.5,124.5C 154.937,125.404 152.27,128.237 151.5,133C 151.833,133.833 152.167,134.667 152.5,135.5C 160.442,134.461 168.442,133.294 176.5,132C 181.664,131.09 186.664,131.59 191.5,133.5C 193.835,136.315 196.502,138.649 199.5,140.5C 202.615,138.561 205.615,136.394 208.5,134C 214.067,132.296 219.567,130.463 225,128.5C 230.993,132.026 237.493,133.526 244.5,133C 245.478,128.139 243.811,124.306 239.5,121.5C 243.95,120.568 246.616,122.568 247.5,127.5C 248.675,127.281 249.675,127.614 250.5,128.5C 252.581,133.723 255.581,138.39 259.5,142.5C 260.115,145.039 260.782,147.539 261.5,150C 265.809,150.277 269.142,152.111 271.5,155.5C 276.837,156.249 281.837,157.082 286.5,158C 285.332,159.406 285.665,160.572 287.5,161.5C 284.796,162.572 282.13,163.572 279.5,164.5C 279.64,166.124 278.973,167.29 277.5,168C 281.403,170.616 285.736,171.783 290.5,171.5C 290.5,172.833 290.5,174.167 290.5,175.5C 291.978,175.238 293.311,175.571 294.5,176.5C 291.2,180.604 292.034,184.271 297,187.5C 297.308,186.692 297.808,186.025 298.5,185.5C 299.382,186.76 300.382,187.926 301.5,189C 299.381,189.342 299.047,190.175 300.5,191.5C 298.833,191.5 297.167,191.5 295.5,191.5C 294.604,187.025 291.937,184.359 287.5,183.5C 287.5,182.5 287.5,181.5 287.5,180.5C 284.581,178.412 281.248,176.912 277.5,176C 272.136,175.829 266.802,175.329 261.5,174.5C 260.652,172.591 260.318,170.591 260.5,168.5C 258.585,168.784 256.919,168.451 255.5,167.5C 255.204,164.737 254.204,162.237 252.5,160C 253.451,159.282 253.617,158.449 253,157.5C 249.399,153.274 245.899,148.94 242.5,144.5C 240.695,143.528 239.028,142.361 237.5,141C 232.869,140.218 228.369,139.051 224,137.5C 220.989,139.124 217.822,140.624 214.5,142C 213.167,143.667 211.833,145.333 210.5,147C 207.333,148.833 204.167,150.667 201,152.5C 199.622,150.787 197.955,149.453 196,148.5C 195.178,146.212 194.511,143.878 194,141.5C 193.692,142.308 193.192,142.975 192.5,143.5C 188.919,141.918 184.919,140.418 180.5,139C 178.833,138.333 177.167,138.333 175.5,139C 169.279,141.704 162.946,144.204 156.5,146.5C 149.524,159.218 142.024,159.551 134,147.5C 133.781,148.938 133.281,150.271 132.5,151.5C 131.247,148.816 130.247,146.15 129.5,143.5C 128.414,143.38 127.747,142.713 127.5,141.5C 126.607,136.484 124.941,131.817 122.5,127.5C 118.642,123.498 115.475,118.832 113,113.5C 112.667,113.833 112.333,114.167 112,114.5C 111.517,113.552 111.351,112.552 111.5,111.5C 110.5,111.5 109.5,111.5 108.5,111.5C 108.649,110.448 108.483,109.448 108,108.5C 103.381,107.26 101.215,104.26 101.5,99.5C 105.514,98.824 108.514,100.157 110.5,103.5C 111.768,102.572 113.101,102.405 114.5,103C 125.215,108.834 135.882,114.668 146.5,120.5C 147.298,120.043 147.631,119.376 147.5,118.5 Z"/></g>
<g><path style="opacity:1" fill="#ebd7ba" d="M 271.5,97.5 C 271.343,98.8734 271.51,100.207 272,101.5C 274.316,100.504 276.65,99.5042 279,98.5C 280.847,99.1693 282.014,100.503 282.5,102.5C 282.011,111.304 281.511,120.304 281,129.5C 278.056,133.678 276.89,138.345 277.5,143.5C 279.144,143.286 280.644,143.62 282,144.5C 282.819,140.206 284.319,136.206 286.5,132.5C 287.735,133.34 288.735,134.34 289.5,135.5C 289.5,138.167 289.5,140.833 289.5,143.5C 288.691,145.028 288.024,146.694 287.5,148.5C 285.901,148.232 284.568,148.566 283.5,149.5C 278.811,150.316 276.311,148.316 276,143.5C 277.094,132.942 277.594,122.275 277.5,111.5C 273.564,110.791 269.564,110.791 265.5,111.5C 267.147,107.357 268.48,103.024 269.5,98.5C 270.183,98.1373 270.85,97.8039 271.5,97.5 Z"/></g>
<g><path style="opacity:1" fill="#71592e" d="M 289.5,143.5 C 289.5,145.5 289.5,147.5 289.5,149.5C 288.21,150.058 287.377,151.058 287,152.5C 286.421,151.072 286.588,149.738 287.5,148.5C 288.024,146.694 288.691,145.028 289.5,143.5 Z"/></g>
<g><path style="opacity:1" fill="#917d3d" d="M 84.5,135.5 C 88.9381,142.713 92.6048,150.379 95.5,158.5C 95.5,158.833 95.5,159.167 95.5,159.5C 94.0112,155.203 91.5112,151.536 88,148.5C 87.4102,143.994 86.2435,139.661 84.5,135.5 Z"/></g>
<g><path style="opacity:1" fill="#dac196" d="M 255.5,167.5 C 252.58,164.943 251.08,161.61 251,157.5C 248.5,154.667 246,151.833 243.5,149C 241.134,148.56 238.801,148.06 236.5,147.5C 233.68,146.804 231.013,145.804 228.5,144.5C 226.519,144.437 224.852,145.104 223.5,146.5C 222.707,146.069 221.873,145.735 221,145.5C 217.334,147.681 213.834,150.015 210.5,152.5C 209.504,152.586 208.671,152.252 208,151.5C 206.317,153.514 204.317,155.18 202,156.5C 198.744,154.864 195.911,152.697 193.5,150C 192.552,149.517 191.552,149.351 190.5,149.5C 186.866,148.603 183.366,147.27 180,145.5C 179.5,145.667 179,145.833 178.5,146C 179.328,146.915 180.328,147.581 181.5,148C 178.118,148.159 174.785,147.659 171.5,146.5C 169.5,147 167.5,147.5 165.5,148C 161.158,150.719 157.824,154.219 155.5,158.5C 154.209,158.263 153.209,158.596 152.5,159.5C 150.712,159.215 149.045,159.548 147.5,160.5C 143.97,164.303 139.803,167.303 135,169.5C 133.534,166.317 132.367,162.984 131.5,159.5C 130.431,158.09 129.097,157.09 127.5,156.5C 128.391,155.739 129.058,154.739 129.5,153.5C 129.169,150.326 129.169,146.992 129.5,143.5C 130.247,146.15 131.247,148.816 132.5,151.5C 133.281,150.271 133.781,148.938 134,147.5C 142.024,159.551 149.524,159.218 156.5,146.5C 162.946,144.204 169.279,141.704 175.5,139C 177.167,138.333 178.833,138.333 180.5,139C 184.919,140.418 188.919,141.918 192.5,143.5C 193.192,142.975 193.692,142.308 194,141.5C 194.511,143.878 195.178,146.212 196,148.5C 197.955,149.453 199.622,150.787 201,152.5C 204.167,150.667 207.333,148.833 210.5,147C 211.833,145.333 213.167,143.667 214.5,142C 217.822,140.624 220.989,139.124 224,137.5C 228.369,139.051 232.869,140.218 237.5,141C 239.028,142.361 240.695,143.528 242.5,144.5C 245.899,148.94 249.399,153.274 253,157.5C 253.617,158.449 253.451,159.282 252.5,160C 254.204,162.237 255.204,164.737 255.5,167.5 Z"/></g>
<g><path style="opacity:1" fill="#ddcaa6" d="M 190.5,149.5 C 191.552,149.351 192.552,149.517 193.5,150C 195.911,152.697 198.744,154.864 202,156.5C 204.317,155.18 206.317,153.514 208,151.5C 208.671,152.252 209.504,152.586 210.5,152.5C 208.461,153.911 207.461,155.911 207.5,158.5C 206.256,161.415 204.589,164.082 202.5,166.5C 200.629,166.141 199.129,165.141 198,163.5C 195.324,158.881 192.824,154.214 190.5,149.5 Z"/></g>
<g><path style="opacity:1" fill="#f9f8ec" d="M 202.5,166.5 C 204.589,164.082 206.256,161.415 207.5,158.5C 210.225,158.055 212.392,156.722 214,154.5C 214.772,154.645 215.439,154.978 216,155.5C 220.404,152.671 225.238,151.837 230.5,153C 233.649,154.508 236.649,156.008 239.5,157.5C 239.5,159.833 239.5,162.167 239.5,164.5C 236.728,164.22 234.228,164.887 232,166.5C 231.667,166.167 231.333,165.833 231,165.5C 231.333,167.5 231.667,169.5 232,171.5C 230.387,170.378 229.22,170.878 228.5,173C 227.552,173.483 226.552,173.649 225.5,173.5C 225.172,175.391 224.505,176.891 223.5,178C 223.528,179.07 223.861,179.903 224.5,180.5C 224.5,180.833 224.5,181.167 224.5,181.5C 223.549,182.919 223.216,184.585 223.5,186.5C 225.39,186.297 226.89,186.963 228,188.5C 231.685,192.524 235.019,196.857 238,201.5C 242.046,211.082 243.879,221.082 243.5,231.5C 240.999,232.826 238.332,233.326 235.5,233C 234.308,230.428 233.308,227.761 232.5,225C 232.164,223.97 231.497,223.47 230.5,223.5C 229.799,214.654 225.466,208.487 217.5,205C 208.787,204.202 200.12,204.536 191.5,206C 188.593,207.609 185.927,209.442 183.5,211.5C 182.123,213.289 181.123,215.289 180.5,217.5C 178.221,218.445 176.554,220.112 175.5,222.5C 175.482,228.837 173.649,234.504 170,239.5C 169.692,238.692 169.192,238.025 168.5,237.5C 167.116,226.132 167.283,214.798 169,203.5C 171.295,200.203 173.962,197.203 177,194.5C 177.494,192.866 177.66,191.199 177.5,189.5C 177.833,187.5 178.167,185.5 178.5,183.5C 179.126,179.625 177.459,177.791 173.5,178C 174.833,177.333 174.833,176.667 173.5,176C 168.005,173.817 162.339,173.151 156.5,174C 152.033,177.465 147.867,181.298 144,185.5C 143.51,184.207 143.343,182.873 143.5,181.5C 144.263,180.732 145.263,180.232 146.5,180C 145.949,178.602 145.616,177.268 145.5,176C 147.537,171.623 150.37,167.789 154,164.5C 154.49,163.207 154.657,161.873 154.5,160.5C 157.114,160.723 158.781,159.556 159.5,157C 162.708,154.505 166.208,152.338 170,150.5C 171.911,151.445 173.911,151.445 176,150.5C 183.286,151.471 188.619,155.138 192,161.5C 192.333,161.167 192.667,160.833 193,160.5C 193.471,162.246 194.138,163.913 195,165.5C 195.333,165.167 195.667,164.833 196,164.5C 197.407,168.586 199.574,169.253 202.5,166.5 Z"/></g>
<g><path style="opacity:1" fill="#f0ebd7" d="M 236.5,147.5 C 236.586,148.496 236.252,149.329 235.5,150C 236.793,150.49 238.127,150.657 239.5,150.5C 239.351,151.552 239.517,152.552 240,153.5C 243.401,155.361 246.401,157.695 249,160.5C 250.232,163.963 251.732,167.297 253.5,170.5C 246.81,167.408 240.81,168.408 235.5,173.5C 234.167,175.5 232.5,177.167 230.5,178.5C 227.99,178.054 225.99,178.72 224.5,180.5C 223.861,179.903 223.528,179.07 223.5,178C 224.505,176.891 225.172,175.391 225.5,173.5C 226.552,173.649 227.552,173.483 228.5,173C 229.22,170.878 230.387,170.378 232,171.5C 231.667,169.5 231.333,167.5 231,165.5C 231.333,165.833 231.667,166.167 232,166.5C 234.228,164.887 236.728,164.22 239.5,164.5C 239.5,162.167 239.5,159.833 239.5,157.5C 236.649,156.008 233.649,154.508 230.5,153C 225.238,151.837 220.404,152.671 216,155.5C 215.439,154.978 214.772,154.645 214,154.5C 212.392,156.722 210.225,158.055 207.5,158.5C 207.461,155.911 208.461,153.911 210.5,152.5C 213.834,150.015 217.334,147.681 221,145.5C 221.873,145.735 222.707,146.069 223.5,146.5C 224.852,145.104 226.519,144.437 228.5,144.5C 231.013,145.804 233.68,146.804 236.5,147.5 Z"/></g>
<g><path style="opacity:1" fill="#f1e9d1" d="M 190.5,149.5 C 192.824,154.214 195.324,158.881 198,163.5C 199.129,165.141 200.629,166.141 202.5,166.5C 199.574,169.253 197.407,168.586 196,164.5C 195.667,164.833 195.333,165.167 195,165.5C 194.138,163.913 193.471,162.246 193,160.5C 192.667,160.833 192.333,161.167 192,161.5C 188.619,155.138 183.286,151.471 176,150.5C 173.911,151.445 171.911,151.445 170,150.5C 166.208,152.338 162.708,154.505 159.5,157C 158.781,159.556 157.114,160.723 154.5,160.5C 154.657,161.873 154.49,163.207 154,164.5C 150.37,167.789 147.537,171.623 145.5,176C 145.616,177.268 145.949,178.602 146.5,180C 145.263,180.232 144.263,180.732 143.5,181.5C 143.167,181.5 142.833,181.5 142.5,181.5C 142.89,178.534 142.223,175.868 140.5,173.5C 142.822,172.064 143.489,170.23 142.5,168C 145.167,166.667 147.833,165.333 150.5,164C 152.037,162.89 152.703,161.39 152.5,159.5C 153.209,158.596 154.209,158.263 155.5,158.5C 157.824,154.219 161.158,150.719 165.5,148C 167.5,147.5 169.5,147 171.5,146.5C 174.785,147.659 178.118,148.159 181.5,148C 180.328,147.581 179.328,146.915 178.5,146C 179,145.833 179.5,145.667 180,145.5C 183.366,147.27 186.866,148.603 190.5,149.5 Z"/></g>
<g><path style="opacity:1" fill="#83661f" d="M 291.5,161.5 C 292.309,163.292 292.809,165.292 293,167.5C 296.727,170.709 298.894,174.709 299.5,179.5C 297.675,175.485 295.175,171.818 292,168.5C 291.503,166.19 291.337,163.857 291.5,161.5 Z"/></g>
<g><path style="opacity:1" fill="#b5aca0" d="M 253.5,170.5 C 257.108,171.465 258.774,173.798 258.5,177.5C 257.778,178.551 256.778,179.218 255.5,179.5C 255.927,176.014 254.26,173.514 250.5,172C 245.371,171.292 240.371,171.792 235.5,173.5C 240.81,168.408 246.81,167.408 253.5,170.5 Z"/></g>
<g><path style="opacity:1" fill="#e0cfb1" d="M 119.5,155.5 C 124.018,158.032 124.685,161.366 121.5,165.5C 119.452,166.77 117.452,167.103 115.5,166.5C 114.646,167.522 113.646,168.355 112.5,169C 113.551,172.114 115.717,173.947 119,174.5C 121.994,172.175 124.994,169.841 128,167.5C 128.808,165.577 129.308,163.577 129.5,161.5C 128.813,159.847 128.146,158.181 127.5,156.5C 129.097,157.09 130.431,158.09 131.5,159.5C 132.367,162.984 133.534,166.317 135,169.5C 139.803,167.303 143.97,164.303 147.5,160.5C 149.045,159.548 150.712,159.215 152.5,159.5C 152.703,161.39 152.037,162.89 150.5,164C 147.833,165.333 145.167,166.667 142.5,168C 143.489,170.23 142.822,172.064 140.5,173.5C 142.223,175.868 142.89,178.534 142.5,181.5C 137.643,185.092 132.643,188.425 127.5,191.5C 127.5,189.167 127.5,186.833 127.5,184.5C 130.114,184.148 131.781,182.648 132.5,180C 132.095,179.055 131.428,178.388 130.5,178C 124.249,178.891 117.916,179.391 111.5,179.5C 111.657,178.127 111.49,176.793 111,175.5C 109.954,183.243 108.454,183.243 106.5,175.5C 105.719,176.729 105.219,178.062 105,179.5C 104.503,177.19 104.337,174.857 104.5,172.5C 104.443,171.391 104.11,170.391 103.5,169.5C 104.649,169.209 105.316,168.376 105.5,167C 104.875,165.159 104.708,163.326 105,161.5C 110.067,168.026 112.234,166.692 111.5,157.5C 112.355,160.516 114.188,162.849 117,164.5C 118.188,163.437 118.688,162.103 118.5,160.5C 119.675,160.719 120.675,160.386 121.5,159.5C 119.204,158.632 118.537,157.298 119.5,155.5 Z"/></g>
<g><path style="opacity:1" fill="#1a130f" d="M 255.5,179.5 C 254.265,179.279 253.265,178.612 252.5,177.5C 250.54,179.343 249.873,181.343 250.5,183.5C 242.876,184.398 235.209,184.731 227.5,184.5C 227.5,184.167 227.5,183.833 227.5,183.5C 228.075,181.589 229.075,179.922 230.5,178.5C 232.5,177.167 234.167,175.5 235.5,173.5C 240.371,171.792 245.371,171.292 250.5,172C 254.26,173.514 255.927,176.014 255.5,179.5 Z"/></g>
<g><path style="opacity:1" fill="#c1c1bb" d="M 238.5,174.5 C 239.5,174.5 240.5,174.5 241.5,174.5C 241.773,176.958 240.773,178.625 238.5,179.5C 235.839,177.828 235.839,176.161 238.5,174.5 Z"/></g>
<g><path style="opacity:1" fill="#77726a" d="M 167.5,181.5 C 166.833,182.833 166.167,184.167 165.5,185.5C 165.267,183.938 164.6,182.605 163.5,181.5C 164.239,181.631 164.906,181.464 165.5,181C 162.44,180.183 159.606,180.683 157,182.5C 156.645,181.491 155.812,180.824 154.5,180.5C 156.292,179.691 158.292,179.191 160.5,179C 158.833,178.667 157.167,178.333 155.5,178C 160.164,177.18 164.164,178.346 167.5,181.5 Z"/></g>
<g><path style="opacity:1" fill="#94897f" d="M 230.5,178.5 C 229.075,179.922 228.075,181.589 227.5,183.5C 226.5,182.833 225.5,182.167 224.5,181.5C 224.5,181.167 224.5,180.833 224.5,180.5C 225.99,178.72 227.99,178.054 230.5,178.5 Z"/></g>
<g><path style="opacity:1" fill="#867e73" d="M 255.5,179.5 C 254.415,181.587 252.749,182.92 250.5,183.5C 249.873,181.343 250.54,179.343 252.5,177.5C 253.265,178.612 254.265,179.279 255.5,179.5 Z"/></g>
<g><path style="opacity:1" fill="#4d341b" d="M 95.5,158.5 C 97.7451,161.32 99.7451,164.32 101.5,167.5C 100.542,167.047 99.7083,166.381 99,165.5C 98.8333,166.667 98.6667,167.833 98.5,169C 101.713,182.191 101.047,195.025 96.5,207.5C 96.5,205.5 96.5,203.5 96.5,201.5C 98.6953,197.209 99.6953,192.542 99.5,187.5C 98.9848,180.624 97.9848,173.957 96.5,167.5C 96.1667,164.833 95.8333,162.167 95.5,159.5C 95.5,159.167 95.5,158.833 95.5,158.5 Z"/></g>
<g><path style="opacity:1" fill="#d9c39a" d="M 104.5,172.5 C 104.337,174.857 104.503,177.19 105,179.5C 105.219,178.062 105.719,176.729 106.5,175.5C 108.454,183.243 109.954,183.243 111,175.5C 111.49,176.793 111.657,178.127 111.5,179.5C 117.916,179.391 124.249,178.891 130.5,178C 131.428,178.388 132.095,179.055 132.5,180C 131.781,182.648 130.114,184.148 127.5,184.5C 127.5,186.833 127.5,189.167 127.5,191.5C 126.5,191.5 125.5,191.5 124.5,191.5C 122.396,191.201 120.396,191.534 118.5,192.5C 116.702,195.217 114.369,197.217 111.5,198.5C 111.189,194.754 112.189,191.42 114.5,188.5C 112.725,187.043 110.725,185.876 108.5,185C 106.82,184.966 105.32,184.799 104,184.5C 103.188,180.311 103.355,176.311 104.5,172.5 Z"/></g>
<g><path style="opacity:1" fill="#5c430b" d="M 299.5,179.5 C 301.341,181.849 302.674,184.515 303.5,187.5C 301.127,185.421 299.794,182.754 299.5,179.5 Z"/></g>
<g><path style="opacity:1" fill="#18130d" d="M 154.5,180.5 C 155.812,180.824 156.645,181.491 157,182.5C 159.606,180.683 162.44,180.183 165.5,181C 164.906,181.464 164.239,181.631 163.5,181.5C 162.244,181.461 161.244,181.961 160.5,183C 161.91,184.372 163.577,185.205 165.5,185.5C 166.167,184.167 166.833,182.833 167.5,181.5C 168.833,182.167 170.167,182.833 171.5,183.5C 174.3,184.413 175.633,186.413 175.5,189.5C 169.667,190.415 163.834,191.415 158,192.5C 154.202,192.69 151.702,191.023 150.5,187.5C 149.833,188.5 149.167,189.5 148.5,190.5C 146.358,189.563 146.024,188.23 147.5,186.5C 148.812,183.339 151.145,181.339 154.5,180.5 Z"/></g>
<g><path style="opacity:1" fill="#e3e0db" d="M 163.5,181.5 C 164.6,182.605 165.267,183.938 165.5,185.5C 163.577,185.205 161.91,184.372 160.5,183C 161.244,181.961 162.244,181.461 163.5,181.5 Z"/></g>
<g><path style="opacity:1" fill="#e2d9cc" d="M 178.5,183.5 C 176.167,183.5 173.833,183.5 171.5,183.5C 170.167,182.833 168.833,182.167 167.5,181.5C 164.164,178.346 160.164,177.18 155.5,178C 157.167,178.333 158.833,178.667 160.5,179C 158.292,179.191 156.292,179.691 154.5,180.5C 151.145,181.339 148.812,183.339 147.5,186.5C 145.856,186.81 144.856,187.81 144.5,189.5C 142.577,188.882 140.577,189.215 138.5,190.5C 137.984,193.251 136.817,195.584 135,197.5C 133.5,200.133 133.333,202.8 134.5,205.5C 132.48,208.216 132.146,211.216 133.5,214.5C 133.343,215.873 133.51,217.207 134,218.5C 139.333,219.742 141.166,222.909 139.5,228C 141.744,230.303 143.41,229.97 144.5,227C 145.332,226.312 145.998,226.479 146.5,227.5C 142.855,231.433 141.188,236.1 141.5,241.5C 139.019,239.977 136.519,238.31 134,236.5C 131.467,232.195 129.3,227.862 127.5,223.5C 126.503,223.53 125.836,223.03 125.5,222C 124.815,218.406 123.815,214.906 122.5,211.5C 123.453,208.299 124.786,205.299 126.5,202.5C 126.167,201.833 125.833,201.167 125.5,200.5C 128.951,198.952 129.284,196.952 126.5,194.5C 124.275,196.11 121.941,197.443 119.5,198.5C 121.497,196.487 123.164,194.154 124.5,191.5C 125.5,191.5 126.5,191.5 127.5,191.5C 132.643,188.425 137.643,185.092 142.5,181.5C 142.833,181.5 143.167,181.5 143.5,181.5C 143.343,182.873 143.51,184.207 144,185.5C 147.867,181.298 152.033,177.465 156.5,174C 162.339,173.151 168.005,173.817 173.5,176C 174.833,176.667 174.833,177.333 173.5,178C 177.459,177.791 179.126,179.625 178.5,183.5 Z"/></g>
<g><path style="opacity:1" fill="#ab943c" d="M 96.5,167.5 C 97.9848,173.957 98.9848,180.624 99.5,187.5C 99.6953,192.542 98.6953,197.209 96.5,201.5C 95.723,195.178 95.5563,188.845 96,182.5C 97.3336,194.196 98.1669,193.862 98.5,181.5C 97.448,181.649 96.448,181.483 95.5,181C 96.1326,176.737 96.466,172.237 96.5,167.5 Z"/></g>
<g><path style="opacity:1" fill="#8f877d" d="M 171.5,183.5 C 173.833,183.5 176.167,183.5 178.5,183.5C 178.167,185.5 177.833,187.5 177.5,189.5C 175.694,190.024 174.028,190.691 172.5,191.5C 167.17,192.831 161.836,194.164 156.5,195.5C 151.641,195.07 147.641,193.07 144.5,189.5C 144.856,187.81 145.856,186.81 147.5,186.5C 146.024,188.23 146.358,189.563 148.5,190.5C 149.167,189.5 149.833,188.5 150.5,187.5C 151.702,191.023 154.202,192.69 158,192.5C 163.834,191.415 169.667,190.415 175.5,189.5C 175.633,186.413 174.3,184.413 171.5,183.5 Z"/></g>
<g><path style="opacity:1" fill="#decca9" d="M 236.5,147.5 C 238.801,148.06 241.134,148.56 243.5,149C 246,151.833 248.5,154.667 251,157.5C 251.08,161.61 252.58,164.943 255.5,167.5C 256.919,168.451 258.585,168.784 260.5,168.5C 260.318,170.591 260.652,172.591 261.5,174.5C 266.802,175.329 272.136,175.829 277.5,176C 281.248,176.912 284.581,178.412 287.5,180.5C 287.5,181.5 287.5,182.5 287.5,183.5C 291.937,184.359 294.604,187.025 295.5,191.5C 297.167,191.5 298.833,191.5 300.5,191.5C 300.756,193.776 302.09,194.943 304.5,195C 303.483,196.049 303.316,197.216 304,198.5C 305.667,200.167 307.333,201.833 309,203.5C 308.394,206.969 308.894,210.136 310.5,213C 307.153,222.722 306.82,232.555 309.5,242.5C 309.299,246.424 308.799,246.424 308,242.5C 307.573,248.087 306.407,253.42 304.5,258.5C 303.527,256.052 303.194,253.385 303.5,250.5C 303.383,248.516 304.05,246.85 305.5,245.5C 306.681,232.804 306.347,220.138 304.5,207.5C 302.424,203.429 300.258,199.429 298,195.5C 296.004,193.173 293.504,191.673 290.5,191C 288.963,189.89 288.297,188.39 288.5,186.5C 287.127,186.657 285.793,186.49 284.5,186C 281.827,184.324 279.161,182.658 276.5,181C 270.391,180.156 264.391,178.989 258.5,177.5C 258.774,173.798 257.108,171.465 253.5,170.5C 251.732,167.297 250.232,163.963 249,160.5C 246.401,157.695 243.401,155.361 240,153.5C 239.517,152.552 239.351,151.552 239.5,150.5C 238.127,150.657 236.793,150.49 235.5,150C 236.252,149.329 236.586,148.496 236.5,147.5 Z"/></g>
<g><path style="opacity:1" fill="#ccb185" d="M 101.5,167.5 C 102.5,167.833 103.167,168.5 103.5,169.5C 104.11,170.391 104.443,171.391 104.5,172.5C 103.355,176.311 103.188,180.311 104,184.5C 105.32,184.799 106.82,184.966 108.5,185C 110.725,185.876 112.725,187.043 114.5,188.5C 112.189,191.42 111.189,194.754 111.5,198.5C 111.671,201.797 111.005,202.131 109.5,199.5C 106.761,201.417 105.261,204.084 105,207.5C 101.816,211.238 98.6489,214.905 95.5,218.5C 95.5524,214.802 95.8857,211.135 96.5,207.5C 101.047,195.025 101.713,182.191 98.5,169C 98.6667,167.833 98.8333,166.667 99,165.5C 99.7083,166.381 100.542,167.047 101.5,167.5 Z"/></g>
<g><path style="opacity:1" fill="#f9f8ec" d="M 144.5,189.5 C 147.641,193.07 151.641,195.07 156.5,195.5C 161.836,194.164 167.17,192.831 172.5,191.5C 174.225,191.843 174.725,192.843 174,194.5C 169.674,198.497 166.34,203.164 164,208.5C 163.853,217.883 163.187,227.217 162,236.5C 161,237.5 160,238.5 159,239.5C 157.951,237.893 156.451,237.227 154.5,237.5C 153.527,235.861 152.194,234.527 150.5,233.5C 149.986,231.302 148.986,229.302 147.5,227.5C 148.305,225.528 149.639,224.028 151.5,223C 149.965,222.504 148.465,222.67 147,223.5C 142.687,221.582 138.52,219.582 134.5,217.5C 134.737,216.209 134.404,215.209 133.5,214.5C 132.146,211.216 132.48,208.216 134.5,205.5C 133.333,202.8 133.5,200.133 135,197.5C 136.817,195.584 137.984,193.251 138.5,190.5C 140.577,189.215 142.577,188.882 144.5,189.5 Z"/></g>
<g><path style="opacity:1" fill="#e1d3b9" d="M 124.5,191.5 C 123.164,194.154 121.497,196.487 119.5,198.5C 119.013,199.473 118.513,200.473 118,201.5C 114.335,204.399 110.835,207.399 107.5,210.5C 106.596,211.209 106.263,212.209 106.5,213.5C 105.5,213.5 104.5,213.5 103.5,213.5C 101.91,218.36 100.743,223.36 100,228.5C 98.0186,230.359 97.0186,232.692 97,235.5C 96.586,235.043 96.086,234.709 95.5,234.5C 94.5344,236.396 94.2011,238.396 94.5,240.5C 93.5269,238.052 93.1936,235.385 93.5,232.5C 93.1667,231.833 92.8333,231.167 92.5,230.5C 93.1174,230.389 93.6174,230.056 94,229.5C 94.3195,225.786 94.8195,222.119 95.5,218.5C 98.6489,214.905 101.816,211.238 105,207.5C 105.261,204.084 106.761,201.417 109.5,199.5C 111.005,202.131 111.671,201.797 111.5,198.5C 114.369,197.217 116.702,195.217 118.5,192.5C 120.396,191.534 122.396,191.201 124.5,191.5 Z"/></g>
<g><path style="opacity:1" fill="#aaa69b" d="M 230.5,223.5 C 230.737,224.791 230.404,225.791 229.5,226.5C 227.325,216.998 221.325,212.331 211.5,212.5C 202.028,211.787 192.695,211.453 183.5,211.5C 185.927,209.442 188.593,207.609 191.5,206C 200.12,204.536 208.787,204.202 217.5,205C 225.466,208.487 229.799,214.654 230.5,223.5 Z"/></g>
<g><path style="opacity:1" fill="#f8f6e7" d="M 258.5,177.5 C 264.391,178.989 270.391,180.156 276.5,181C 279.161,182.658 281.827,184.324 284.5,186C 285.793,186.49 287.127,186.657 288.5,186.5C 288.297,188.39 288.963,189.89 290.5,191C 293.504,191.673 296.004,193.173 298,195.5C 300.258,199.429 302.424,203.429 304.5,207.5C 306.347,220.138 306.681,232.804 305.5,245.5C 304.05,246.85 303.383,248.516 303.5,250.5C 300.369,257.558 296.369,264.225 291.5,270.5C 290.311,271.429 288.978,271.762 287.5,271.5C 287.326,273.861 286.993,276.194 286.5,278.5C 285.5,278.5 284.5,278.5 283.5,278.5C 283.714,280.144 283.38,281.644 282.5,283C 277.672,286.167 272.339,288.167 266.5,289C 262.994,291.602 259.327,293.769 255.5,295.5C 251.191,298.992 246.524,301.992 241.5,304.5C 240.833,304.333 240.167,304.167 239.5,304C 241.32,301.36 242.654,298.527 243.5,295.5C 244.5,295.5 245.5,295.5 246.5,295.5C 246.673,292.821 247.673,290.487 249.5,288.5C 246.869,286.995 247.203,286.329 250.5,286.5C 252.143,281.26 253.477,275.927 254.5,270.5C 254.167,269.833 253.833,269.167 253.5,268.5C 253.846,267.304 254.346,267.304 255,268.5C 255.182,265.774 255.682,263.107 256.5,260.5C 258.629,258.344 260.962,256.677 263.5,255.5C 264.211,246.74 268.045,239.74 275,234.5C 275.494,232.866 275.66,231.199 275.5,229.5C 276.833,229.5 278.167,229.5 279.5,229.5C 279.238,228.022 279.571,226.689 280.5,225.5C 285.218,223.074 285.551,220.241 281.5,217C 284.124,216.424 284.791,215.09 283.5,213C 281.19,212.503 278.857,212.337 276.5,212.5C 276.229,210.179 276.896,208.179 278.5,206.5C 277.833,205.833 277.167,205.167 276.5,204.5C 277.767,202.629 277.767,200.796 276.5,199C 277.061,197.324 278.061,195.991 279.5,195C 278.167,194 278.167,193 279.5,192C 277.02,191.085 276.353,189.585 277.5,187.5C 274.334,181.625 269.501,179.625 263,181.5C 262.333,182.167 262.333,182.833 263,183.5C 264.487,184.155 265.653,185.155 266.5,186.5C 266.68,190.83 266.013,195.163 264.5,199.5C 262.516,199.383 260.85,200.05 259.5,201.5C 257.896,208.041 257.062,214.708 257,221.5C 255.957,223.701 255.123,226.034 254.5,228.5C 253.5,229.167 252.5,229.833 251.5,230.5C 250.675,226.843 248.841,223.843 246,221.5C 245.296,214.687 243.962,208.02 242,201.5C 238.469,197.603 235.303,193.436 232.5,189C 236.609,188.056 240.609,187.222 244.5,186.5C 247.089,186.539 249.089,185.539 250.5,183.5C 252.749,182.92 254.415,181.587 255.5,179.5C 256.778,179.218 257.778,178.551 258.5,177.5 Z"/></g>
<g><path style="opacity:1" fill="#685c50" d="M 197.5,213.5 C 201.97,212.514 206.637,212.181 211.5,212.5C 221.325,212.331 227.325,216.998 229.5,226.5C 228.912,229.61 228.245,232.61 227.5,235.5C 228.034,229.431 226.867,223.765 224,218.5C 218.827,215.962 213.327,214.962 207.5,215.5C 204.663,213.598 201.329,212.931 197.5,213.5 Z"/></g>
<g><path style="opacity:1" fill="#95897f" d="M 183.5,211.5 C 192.695,211.453 202.028,211.787 211.5,212.5C 206.637,212.181 201.97,212.514 197.5,213.5C 190.619,213.776 184.952,216.442 180.5,221.5C 180.5,220.167 180.5,218.833 180.5,217.5C 181.123,215.289 182.123,213.289 183.5,211.5 Z"/></g>
<g><path style="opacity:1" fill="#705c28" d="M 96.5,207.5 C 95.8857,211.135 95.5524,214.802 95.5,218.5C 94.8195,222.119 94.3195,225.786 94,229.5C 93.6174,230.056 93.1174,230.389 92.5,230.5C 93.0892,225.519 93.5892,220.519 94,215.5C 94.2794,212.543 95.1127,209.877 96.5,207.5 Z"/></g>
<g><path style="opacity:1" fill="#4d3b31" d="M 197.5,213.5 C 201.329,212.931 204.663,213.598 207.5,215.5C 202.041,215.103 196.708,215.603 191.5,217C 188.859,218.667 186.693,220.833 185,223.5C 184.51,225.545 184.677,227.545 185.5,229.5C 183.83,229.249 182.33,228.582 181,227.5C 180.517,228.448 180.351,229.448 180.5,230.5C 180.5,231.167 180.5,231.833 180.5,232.5C 179.167,228.833 179.167,225.167 180.5,221.5C 184.952,216.442 190.619,213.776 197.5,213.5 Z"/></g>
<g><path style="opacity:1" fill="#f8f6e7" d="M 127.5,223.5 C 127.974,226.921 127.974,230.255 127.5,233.5C 130.908,236.901 133.908,240.568 136.5,244.5C 137.689,245.429 139.022,245.762 140.5,245.5C 143.322,253.46 146.822,261.126 151,268.5C 151.083,276.231 153.583,282.898 158.5,288.5C 160.361,291.583 161.528,294.916 162,298.5C 163.898,301.432 165.732,304.432 167.5,307.5C 167.167,308.167 166.833,308.833 166.5,309.5C 165.583,308.873 164.583,308.539 163.5,308.5C 155.828,303.645 147.494,299.812 138.5,297C 133.183,293.017 128.517,288.35 124.5,283C 123.207,282.51 121.873,282.343 120.5,282.5C 120.026,278.52 117.859,275.853 114,274.5C 113.517,273.552 113.351,272.552 113.5,271.5C 112.5,271.5 111.5,271.5 110.5,271.5C 109.92,267.858 109.42,264.191 109,260.5C 107.111,258.517 105.778,256.184 105,253.5C 102.535,241.918 102.368,230.252 104.5,218.5C 106.413,216.227 107.413,213.561 107.5,210.5C 110.835,207.399 114.335,204.399 118,201.5C 118.513,200.473 119.013,199.473 119.5,198.5C 121.941,197.443 124.275,196.11 126.5,194.5C 129.284,196.952 128.951,198.952 125.5,200.5C 125.833,201.167 126.167,201.833 126.5,202.5C 124.786,205.299 123.453,208.299 122.5,211.5C 123.815,214.906 124.815,218.406 125.5,222C 125.836,223.03 126.503,223.53 127.5,223.5 Z"/></g>
<g><path style="opacity:1" fill="#7c6c34" d="M 93.5,232.5 C 93.1936,235.385 93.5269,238.052 94.5,240.5C 94.5,241.833 94.5,243.167 94.5,244.5C 92.8421,241.994 91.8421,239.16 91.5,236C 91.6083,234.319 92.2749,233.152 93.5,232.5 Z"/></g>
<g><path style="opacity:1" fill="#e6ddd2" d="M 177.5,189.5 C 177.66,191.199 177.494,192.866 177,194.5C 173.962,197.203 171.295,200.203 169,203.5C 167.283,214.798 167.116,226.132 168.5,237.5C 169.192,238.025 169.692,238.692 170,239.5C 173.649,234.504 175.482,228.837 175.5,222.5C 176.554,220.112 178.221,218.445 180.5,217.5C 180.5,218.833 180.5,220.167 180.5,221.5C 179.167,225.167 179.167,228.833 180.5,232.5C 184.717,244.027 193.05,249.694 205.5,249.5C 206.403,252.391 206.736,255.391 206.5,258.5C 201.29,258.608 196.29,259.275 191.5,260.5C 188.833,260.5 186.167,260.5 183.5,260.5C 179.833,260.5 176.167,260.5 172.5,260.5C 169.25,258.757 166.416,256.423 164,253.5C 161.336,249.343 158.503,245.343 155.5,241.5C 155.167,240.167 154.833,238.833 154.5,237.5C 156.451,237.227 157.951,237.893 159,239.5C 160,238.5 161,237.5 162,236.5C 163.187,227.217 163.853,217.883 164,208.5C 166.34,203.164 169.674,198.497 174,194.5C 174.725,192.843 174.225,191.843 172.5,191.5C 174.028,190.691 175.694,190.024 177.5,189.5 Z"/></g>
<g><path style="opacity:1" fill="#69511c" d="M 304.5,189.5 C 307.621,192.138 309.788,195.472 311,199.5C 314.141,218.178 313.975,236.845 310.5,255.5C 308.531,260.446 306.198,265.113 303.5,269.5C 303.878,267.079 304.545,264.746 305.5,262.5C 307.002,259.346 308.336,256.013 309.5,252.5C 308.145,251.325 308.312,250.325 310,249.5C 310.834,240.158 311.667,230.824 312.5,221.5C 312.494,210.017 309.827,199.351 304.5,189.5 Z"/></g>
<g><path style="opacity:1" fill="#50421d" d="M 94.5,244.5 C 95.9313,245.78 96.5979,247.447 96.5,249.5C 95.0687,248.22 94.4021,246.553 94.5,244.5 Z"/></g>
<g><path style="opacity:1" fill="#56461f" d="M 96.5,249.5 C 100.14,253.679 101.806,258.679 101.5,264.5C 100.061,259.515 98.394,254.515 96.5,249.5 Z"/></g>
<g><path style="opacity:1" fill="#6b582b" d="M 303.5,269.5 C 303.5,270.167 303.5,270.833 303.5,271.5C 302.833,273.833 302.167,276.167 301.5,278.5C 301.107,276.716 300.441,275.05 299.5,273.5C 300.667,271.959 302,270.625 303.5,269.5 Z"/></g>
<g><path style="opacity:1" fill="#e1d8cb" d="M 107.5,210.5 C 107.413,213.561 106.413,216.227 104.5,218.5C 102.368,230.252 102.535,241.918 105,253.5C 105.778,256.184 107.111,258.517 109,260.5C 109.42,264.191 109.92,267.858 110.5,271.5C 111.5,271.5 112.5,271.5 113.5,271.5C 113.351,272.552 113.517,273.552 114,274.5C 117.859,275.853 120.026,278.52 120.5,282.5C 121.873,282.343 123.207,282.51 124.5,283C 128.517,288.35 133.183,293.017 138.5,297C 147.494,299.812 155.828,303.645 163.5,308.5C 168.214,311.342 172.88,314.509 177.5,318C 180.354,321.214 183.687,323.548 187.5,325C 187.167,325.333 186.833,325.667 186.5,326C 187.667,326.5 188.5,327.333 189,328.5C 190,328.5 191,328.5 192,328.5C 192.667,332.5 193.333,332.5 194,328.5C 194.414,328.957 194.914,329.291 195.5,329.5C 195.833,328.833 196.167,328.167 196.5,327.5C 197.541,329.991 198.374,329.991 199,327.5C 200.796,328.767 202.629,328.767 204.5,327.5C 206.059,328.447 207.726,329.113 209.5,329.5C 214.985,328.505 220.318,327.005 225.5,325C 228.04,323.96 229.707,322.126 230.5,319.5C 231.768,320.428 233.101,320.595 234.5,320C 233.483,318.951 233.316,317.784 234,316.5C 238.043,314.81 241.876,312.643 245.5,310C 244.833,309.333 244.167,308.667 243.5,308C 247.232,307.634 250.232,305.968 252.5,303C 251.5,302.667 250.5,302.333 249.5,302C 251.864,300.054 253.864,297.887 255.5,295.5C 259.327,293.769 262.994,291.602 266.5,289C 272.339,288.167 277.672,286.167 282.5,283C 283.38,281.644 283.714,280.144 283.5,278.5C 284.5,278.5 285.5,278.5 286.5,278.5C 286.993,276.194 287.326,273.861 287.5,271.5C 288.978,271.762 290.311,271.429 291.5,270.5C 296.369,264.225 300.369,257.558 303.5,250.5C 303.194,253.385 303.527,256.052 304.5,258.5C 305.434,259.568 305.768,260.901 305.5,262.5C 304.545,264.746 303.878,267.079 303.5,269.5C 302,270.625 300.667,271.959 299.5,273.5C 294.943,277.057 292.609,281.723 292.5,287.5C 289.355,286.923 287.855,284.923 288,281.5C 287.667,284.5 287.333,287.5 287,290.5C 284.913,291.794 282.746,292.961 280.5,294C 277.362,299.426 273.362,302.592 268.5,303.5C 267.862,305.46 267.862,307.293 268.5,309C 265.679,310.387 263.346,312.22 261.5,314.5C 259.551,315.184 257.885,316.351 256.5,318C 256.957,318.414 257.291,318.914 257.5,319.5C 253.614,321.61 249.614,323.443 245.5,325C 243.911,328.938 241.244,331.771 237.5,333.5C 235.739,334.313 234.072,335.313 232.5,336.5C 229.433,338.046 226.6,338.379 224,337.5C 220.725,341.204 217.059,341.87 213,339.5C 211.732,339.616 210.398,339.949 209,340.5C 206.138,339.073 203.472,337.407 201,335.5C 200.667,336.167 200.333,336.833 200,337.5C 198.667,336.833 197.333,336.167 196,335.5C 192.962,335.732 190.296,336.066 188,336.5C 186.56,334.954 184.727,334.121 182.5,334C 181.792,331.232 180.292,330.399 178,331.5C 175.461,326.788 171.627,323.788 166.5,322.5C 165.748,320.9 164.748,319.4 163.5,318C 160.588,316.76 157.921,315.094 155.5,313C 154.207,312.51 152.873,312.343 151.5,312.5C 148.833,311.5 146.167,310.5 143.5,309.5C 142.972,308.279 142.305,307.113 141.5,306C 135.725,304.277 130.392,301.777 125.5,298.5C 125.719,297.325 125.386,296.325 124.5,295.5C 121.804,294.26 119.471,292.593 117.5,290.5C 117.938,290.565 118.272,290.399 118.5,290C 116.919,289.293 115.419,288.46 114,287.5C 111.549,281.575 108.382,276.242 104.5,271.5C 104.241,268.728 103.241,266.395 101.5,264.5C 101.806,258.679 100.14,253.679 96.5,249.5C 96.5979,247.447 95.9313,245.78 94.5,244.5C 94.5,243.167 94.5,241.833 94.5,240.5C 94.2011,238.396 94.5344,236.396 95.5,234.5C 96.086,234.709 96.586,235.043 97,235.5C 97.0186,232.692 98.0186,230.359 100,228.5C 100.743,223.36 101.91,218.36 103.5,213.5C 104.5,213.5 105.5,213.5 106.5,213.5C 106.263,212.209 106.596,211.209 107.5,210.5 Z"/></g>
<g><path style="opacity:1" fill="#e8cea5" d="M 301.5,280.5 C 301.655,285.831 303.321,290.498 306.5,294.5C 306.5,295.5 306.5,296.5 306.5,297.5C 306.6,304.014 306.6,310.348 306.5,316.5C 307.04,317.748 307.707,318.915 308.5,320C 308.108,322.354 308.108,324.854 308.5,327.5C 306.347,323.852 303.681,320.685 300.5,318C 301.507,316.48 302.173,314.813 302.5,313C 301.271,309.25 300.437,305.417 300,301.5C 297.806,299.822 295.306,298.822 292.5,298.5C 293.171,297.153 293.171,295.986 292.5,295C 294.581,292.125 296.081,288.958 297,285.5C 298.366,283.638 299.866,281.972 301.5,280.5 Z"/></g>
<g><path style="opacity:1" fill="#876f31" d="M 303.5,271.5 C 303.11,279.38 304.11,287.046 306.5,294.5C 303.321,290.498 301.655,285.831 301.5,280.5C 301.5,279.833 301.5,279.167 301.5,278.5C 302.167,276.167 302.833,273.833 303.5,271.5 Z"/></g>
<g><path style="opacity:1" fill="#6f582b" d="M 103.5,282.5 C 102.158,288.749 101.325,295.083 101,301.5C 99.9662,305.333 98.7995,308.999 97.5,312.5C 98.9868,304.896 100.153,297.23 101,289.5C 101.39,286.896 102.224,284.562 103.5,282.5 Z"/></g>
<g><path style="opacity:1" fill="#e6e0d4" d="M 255.5,295.5 C 253.864,297.887 251.864,300.054 249.5,302C 250.5,302.333 251.5,302.667 252.5,303C 250.232,305.968 247.232,307.634 243.5,308C 244.167,308.667 244.833,309.333 245.5,310C 241.876,312.643 238.043,314.81 234,316.5C 233.316,317.784 233.483,318.951 234.5,320C 233.101,320.595 231.768,320.428 230.5,319.5C 229.707,322.126 228.04,323.96 225.5,325C 220.318,327.005 214.985,328.505 209.5,329.5C 207.726,329.113 206.059,328.447 204.5,327.5C 202.629,328.767 200.796,328.767 199,327.5C 198.374,329.991 197.541,329.991 196.5,327.5C 196.167,328.167 195.833,328.833 195.5,329.5C 194.914,329.291 194.414,328.957 194,328.5C 193.333,332.5 192.667,332.5 192,328.5C 191,328.5 190,328.5 189,328.5C 188.5,327.333 187.667,326.5 186.5,326C 186.833,325.667 187.167,325.333 187.5,325C 183.687,323.548 180.354,321.214 177.5,318C 172.88,314.509 168.214,311.342 163.5,308.5C 164.583,308.539 165.583,308.873 166.5,309.5C 166.833,308.833 167.167,308.167 167.5,307.5C 165.732,304.432 163.898,301.432 162,298.5C 161.528,294.916 160.361,291.583 158.5,288.5C 153.583,282.898 151.083,276.231 151,268.5C 146.822,261.126 143.322,253.46 140.5,245.5C 139.022,245.762 137.689,245.429 136.5,244.5C 133.908,240.568 130.908,236.901 127.5,233.5C 127.974,230.255 127.974,226.921 127.5,223.5C 129.3,227.862 131.467,232.195 134,236.5C 136.519,238.31 139.019,239.977 141.5,241.5C 141.188,236.1 142.855,231.433 146.5,227.5C 145.998,226.479 145.332,226.312 144.5,227C 143.41,229.97 141.744,230.303 139.5,228C 141.166,222.909 139.333,219.742 134,218.5C 133.51,217.207 133.343,215.873 133.5,214.5C 134.404,215.209 134.737,216.209 134.5,217.5C 138.52,219.582 142.687,221.582 147,223.5C 148.465,222.67 149.965,222.504 151.5,223C 149.639,224.028 148.305,225.528 147.5,227.5C 148.986,229.302 149.986,231.302 150.5,233.5C 148.83,233.751 147.33,234.418 146,235.5C 145.333,238.833 145.333,242.167 146,245.5C 149.973,249.473 153.973,253.473 158,257.5C 160.235,261.428 162.735,265.095 165.5,268.5C 171.193,277.184 176.859,285.851 182.5,294.5C 182.649,295.552 182.483,296.552 182,297.5C 177.591,299.282 177.425,301.282 181.5,303.5C 182.442,303.392 183.275,303.059 184,302.5C 184.972,304.305 186.139,305.972 187.5,307.5C 185.838,308.327 184.505,309.493 183.5,311C 184.449,311.617 185.282,311.451 186,310.5C 186.482,315.72 189.149,317.72 194,316.5C 197.809,317.577 201.643,318.577 205.5,319.5C 207.833,318.167 210.167,318.167 212.5,319.5C 215.727,316.98 219.393,315.646 223.5,315.5C 223.301,312.989 222.968,310.822 222.5,309C 228.782,306.927 232.449,302.927 233.5,297C 236.022,295.641 237.355,293.474 237.5,290.5C 238.344,281.963 241.344,274.296 246.5,267.5C 247.263,265.632 248.263,263.965 249.5,262.5C 254.702,253.279 260.368,244.279 266.5,235.5C 267.655,232.554 267.821,229.554 267,226.5C 263.706,223.689 260.706,224.022 258,227.5C 257.057,230.109 255.39,232.109 253,233.5C 252.405,234.899 252.572,236.232 253.5,237.5C 251.894,237.975 250.394,239.309 249,241.5C 247.381,245.283 245.547,248.949 243.5,252.5C 240.655,254.224 237.655,255.558 234.5,256.5C 231.615,256.194 228.948,256.527 226.5,257.5C 220.167,257.5 213.833,257.5 207.5,257.5C 207.336,254.813 207.503,252.146 208,249.5C 216.251,247.137 222.751,242.471 227.5,235.5C 228.245,232.61 228.912,229.61 229.5,226.5C 230.404,225.791 230.737,224.791 230.5,223.5C 231.497,223.47 232.164,223.97 232.5,225C 233.308,227.761 234.308,230.428 235.5,233C 238.332,233.326 240.999,232.826 243.5,231.5C 243.879,221.082 242.046,211.082 238,201.5C 235.019,196.857 231.685,192.524 228,188.5C 226.89,186.963 225.39,186.297 223.5,186.5C 223.216,184.585 223.549,182.919 224.5,181.5C 225.5,182.167 226.5,182.833 227.5,183.5C 227.5,183.833 227.5,184.167 227.5,184.5C 232.903,186.205 238.57,186.872 244.5,186.5C 240.609,187.222 236.609,188.056 232.5,189C 235.303,193.436 238.469,197.603 242,201.5C 243.962,208.02 245.296,214.687 246,221.5C 248.841,223.843 250.675,226.843 251.5,230.5C 252.5,229.833 253.5,229.167 254.5,228.5C 255.123,226.034 255.957,223.701 257,221.5C 257.062,214.708 257.896,208.041 259.5,201.5C 260.85,200.05 262.516,199.383 264.5,199.5C 266.013,195.163 266.68,190.83 266.5,186.5C 265.653,185.155 264.487,184.155 263,183.5C 262.333,182.833 262.333,182.167 263,181.5C 269.501,179.625 274.334,181.625 277.5,187.5C 276.353,189.585 277.02,191.085 279.5,192C 278.167,193 278.167,194 279.5,195C 278.061,195.991 277.061,197.324 276.5,199C 277.767,200.796 277.767,202.629 276.5,204.5C 277.167,205.167 277.833,205.833 278.5,206.5C 276.896,208.179 276.229,210.179 276.5,212.5C 278.857,212.337 281.19,212.503 283.5,213C 284.791,215.09 284.124,216.424 281.5,217C 285.551,220.241 285.218,223.074 280.5,225.5C 279.571,226.689 279.238,228.022 279.5,229.5C 278.167,229.5 276.833,229.5 275.5,229.5C 275.66,231.199 275.494,232.866 275,234.5C 268.045,239.74 264.211,246.74 263.5,255.5C 260.962,256.677 258.629,258.344 256.5,260.5C 255.682,263.107 255.182,265.774 255,268.5C 254.346,267.304 253.846,267.304 253.5,268.5C 253.833,269.167 254.167,269.833 254.5,270.5C 253.477,275.927 252.143,281.26 250.5,286.5C 247.203,286.329 246.869,286.995 249.5,288.5C 247.673,290.487 246.673,292.821 246.5,295.5C 245.5,295.5 244.5,295.5 243.5,295.5C 242.654,298.527 241.32,301.36 239.5,304C 240.167,304.167 240.833,304.333 241.5,304.5C 246.524,301.992 251.191,298.992 255.5,295.5 Z"/></g>
<g><path style="opacity:1" fill="#5a4134" d="M 235.5,280.5 C 235.6,283.667 234.933,286.667 233.5,289.5C 234.636,289.964 235.636,290.298 236.5,290.5C 233.426,295.909 229.092,299.909 223.5,302.5C 223.737,301.209 223.404,300.209 222.5,299.5C 221.508,299.672 220.842,299.338 220.5,298.5C 224.482,295.848 228.149,292.848 231.5,289.5C 232.404,288.791 232.737,287.791 232.5,286.5C 233.13,284.25 234.13,282.25 235.5,280.5 Z"/></g>
<g><path style="opacity:1" fill="#e8b39a" d="M 230.5,264.5 C 230.278,270.003 229.944,275.503 229.5,281C 229.611,284.105 230.278,286.938 231.5,289.5C 228.149,292.848 224.482,295.848 220.5,298.5C 218.013,299.323 215.679,300.323 213.5,301.5C 205.959,302.709 199.626,300.709 194.5,295.5C 189.859,288.296 186.525,280.296 184.5,271.5C 183.5,271.5 182.5,271.5 181.5,271.5C 181.196,270.85 180.863,270.183 180.5,269.5C 188.472,268.502 196.472,268.169 204.5,268.5C 212.989,266.176 221.656,264.842 230.5,264.5 Z"/></g>
<g><path style="opacity:1" fill="#42261f" d="M 155.5,241.5 C 158.503,245.343 161.336,249.343 164,253.5C 166.416,256.423 169.25,258.757 172.5,260.5C 172.682,264.489 173.682,268.156 175.5,271.5C 176.878,274.354 178.545,277.02 180.5,279.5C 180.5,280.167 180.833,280.5 181.5,280.5C 182.572,287.309 185.739,292.976 191,297.5C 191.717,296.956 192.217,296.289 192.5,295.5C 193.167,295.5 193.833,295.5 194.5,295.5C 199.626,300.709 205.959,302.709 213.5,301.5C 209.353,302.325 205.019,302.825 200.5,303C 208.361,304.86 215.694,303.693 222.5,299.5C 223.404,300.209 223.737,301.209 223.5,302.5C 222.251,304.136 220.584,305.303 218.5,306C 203.793,310.107 191.793,306.274 182.5,294.5C 176.859,285.851 171.193,277.184 165.5,268.5C 163.224,258.991 159.224,250.325 153.5,242.5C 153.957,241.702 154.624,241.369 155.5,241.5 Z"/></g>
<g><path style="opacity:1" fill="#dcc9be" d="M 192.5,295.5 C 192.217,296.289 191.717,296.956 191,297.5C 185.739,292.976 182.572,287.309 181.5,280.5C 181.187,277.753 181.52,275.086 182.5,272.5C 185.474,280.457 188.808,288.124 192.5,295.5 Z"/></g>
<g><path style="opacity:1" fill="#9d7d70" d="M 244.5,267.5 C 245.167,267.5 245.833,267.5 246.5,267.5C 241.344,274.296 238.344,281.963 237.5,290.5C 237.167,290.5 236.833,290.5 236.5,290.5C 235.636,290.298 234.636,289.964 233.5,289.5C 234.933,286.667 235.6,283.667 235.5,280.5C 237.736,275.715 240.736,271.382 244.5,267.5 Z"/></g>
<g><path style="opacity:1" fill="#ab8d7f" d="M 180.5,271.5 C 180.833,271.5 181.167,271.5 181.5,271.5C 182.5,271.5 183.5,271.5 184.5,271.5C 186.525,280.296 189.859,288.296 194.5,295.5C 193.833,295.5 193.167,295.5 192.5,295.5C 188.808,288.124 185.474,280.457 182.5,272.5C 181.52,275.086 181.187,277.753 181.5,280.5C 180.833,280.5 180.5,280.167 180.5,279.5C 180.5,276.833 180.5,274.167 180.5,271.5 Z"/></g>
<g><path style="opacity:1" fill="#e0ccc6" d="M 233.5,266.5 C 233.989,267.995 234.655,269.329 235.5,270.5C 235.5,273.833 235.5,277.167 235.5,280.5C 234.13,282.25 233.13,284.25 232.5,286.5C 231.883,286.611 231.383,286.944 231,287.5C 230.418,281.985 230.584,276.485 231.5,271C 231.569,269.014 232.235,267.514 233.5,266.5 Z"/></g>
<g><path style="opacity:1" fill="#a9877a" d="M 226.5,257.5 C 228.948,256.527 231.615,256.194 234.5,256.5C 234.319,259.397 234.652,262.23 235.5,265C 235.164,266.03 234.497,266.53 233.5,266.5C 232.235,267.514 231.569,269.014 231.5,271C 230.584,276.485 230.418,281.985 231,287.5C 231.383,286.944 231.883,286.611 232.5,286.5C 232.737,287.791 232.404,288.791 231.5,289.5C 230.278,286.938 229.611,284.105 229.5,281C 229.944,275.503 230.278,270.003 230.5,264.5C 231.043,264.44 231.376,264.107 231.5,263.5C 230.253,261.677 229.586,259.677 229.5,257.5C 228.5,257.5 227.5,257.5 226.5,257.5 Z"/></g>
<g><path style="opacity:1" fill="#cab8ae" d="M 177.5,267.5 C 178.857,268.59 179.857,269.924 180.5,271.5C 180.5,274.167 180.5,276.833 180.5,279.5C 178.545,277.02 176.878,274.354 175.5,271.5C 175.157,269.517 175.824,268.183 177.5,267.5 Z"/></g>
<g><path style="opacity:1" fill="#4d221f" d="M 250.5,255.5 C 250.737,256.791 250.404,257.791 249.5,258.5C 247.981,261.481 246.315,264.481 244.5,267.5C 240.736,271.382 237.736,275.715 235.5,280.5C 235.5,277.167 235.5,273.833 235.5,270.5C 236.935,269.491 237.769,268.157 238,266.5C 238.333,266.833 238.667,267.167 239,267.5C 240.668,264.134 242.335,260.801 244,257.5C 245.789,255.771 247.956,255.104 250.5,255.5 Z"/></g>
<g><path style="opacity:1" fill="#bf6f5e" d="M 179.5,261.5 C 179.261,263.467 179.594,265.301 180.5,267C 188.677,267.171 196.677,267.671 204.5,268.5C 196.472,268.169 188.472,268.502 180.5,269.5C 180.863,270.183 181.196,270.85 181.5,271.5C 181.167,271.5 180.833,271.5 180.5,271.5C 179.857,269.924 178.857,268.59 177.5,267.5C 177.822,265.278 177.155,263.444 175.5,262C 176.793,261.51 178.127,261.343 179.5,261.5 Z"/></g>
<g><path style="opacity:1" fill="#73544d" d="M 249.5,258.5 C 249.5,259.833 249.5,261.167 249.5,262.5C 248.263,263.965 247.263,265.632 246.5,267.5C 245.833,267.5 245.167,267.5 244.5,267.5C 246.315,264.481 247.981,261.481 249.5,258.5 Z"/></g>
<g><path style="opacity:1" fill="#34221a" d="M 250.5,255.5 C 247.956,255.104 245.789,255.771 244,257.5C 242.335,260.801 240.668,264.134 239,267.5C 238.667,267.167 238.333,266.833 238,266.5C 237.769,268.157 236.935,269.491 235.5,270.5C 234.655,269.329 233.989,267.995 233.5,266.5C 234.497,266.53 235.164,266.03 235.5,265C 234.652,262.23 234.319,259.397 234.5,256.5C 237.655,255.558 240.655,254.224 243.5,252.5C 244.721,251.972 245.887,251.305 247,250.5C 251.261,244.983 254.761,238.983 257.5,232.5C 257.833,233 258.167,233.5 258.5,234C 255.142,240.951 252.475,248.117 250.5,255.5 Z"/></g>
<g><path style="opacity:1" fill="#ba4e3f" d="M 183.5,260.5 C 186.167,260.5 188.833,260.5 191.5,260.5C 195.084,262.225 199.084,263.225 203.5,263.5C 204.795,262.902 206.128,262.402 207.5,262C 214.605,261.724 221.605,261.558 228.5,261.5C 229.401,262.29 230.068,263.29 230.5,264.5C 221.656,264.842 212.989,266.176 204.5,268.5C 196.677,267.671 188.677,267.171 180.5,267C 179.594,265.301 179.261,263.467 179.5,261.5C 181.099,261.768 182.432,261.434 183.5,260.5 Z"/></g>
<g><path style="opacity:1" fill="#af8e82" d="M 172.5,260.5 C 176.167,260.5 179.833,260.5 183.5,260.5C 182.432,261.434 181.099,261.768 179.5,261.5C 178.127,261.343 176.793,261.51 175.5,262C 177.155,263.444 177.822,265.278 177.5,267.5C 175.824,268.183 175.157,269.517 175.5,271.5C 173.682,268.156 172.682,264.489 172.5,260.5 Z"/></g>
<g><path style="opacity:1" fill="#a42720" d="M 228.5,261.5 C 221.605,261.558 214.605,261.724 207.5,262C 206.128,262.402 204.795,262.902 203.5,263.5C 199.084,263.225 195.084,262.225 191.5,260.5C 203.498,259.867 215.498,259.7 227.5,260C 228.056,260.383 228.389,260.883 228.5,261.5 Z"/></g>
<g><path style="opacity:1" fill="#903b33" d="M 207.5,257.5 C 213.833,257.5 220.167,257.5 226.5,257.5C 227.5,257.5 228.5,257.5 229.5,257.5C 229.586,259.677 230.253,261.677 231.5,263.5C 231.376,264.107 231.043,264.44 230.5,264.5C 230.068,263.29 229.401,262.29 228.5,261.5C 228.389,260.883 228.056,260.383 227.5,260C 215.498,259.7 203.498,259.867 191.5,260.5C 196.29,259.275 201.29,258.608 206.5,258.5C 207.167,258.5 207.5,258.167 207.5,257.5 Z"/></g>
<g><path style="opacity:1" fill="#cabeb3" d="M 150.5,233.5 C 152.194,234.527 153.527,235.861 154.5,237.5C 154.833,238.833 155.167,240.167 155.5,241.5C 154.624,241.369 153.957,241.702 153.5,242.5C 159.224,250.325 163.224,258.991 165.5,268.5C 162.735,265.095 160.235,261.428 158,257.5C 153.973,253.473 149.973,249.473 146,245.5C 145.333,242.167 145.333,238.833 146,235.5C 147.33,234.418 148.83,233.751 150.5,233.5 Z"/></g>
<g><path style="opacity:1" fill="#ccc1b5" d="M 249.5,262.5 C 249.5,261.167 249.5,259.833 249.5,258.5C 250.404,257.791 250.737,256.791 250.5,255.5C 252.475,248.117 255.142,240.951 258.5,234C 258.167,233.5 257.833,233 257.5,232.5C 254.761,238.983 251.261,244.983 247,250.5C 245.887,251.305 244.721,251.972 243.5,252.5C 245.547,248.949 247.381,245.283 249,241.5C 250.394,239.309 251.894,237.975 253.5,237.5C 252.572,236.232 252.405,234.899 253,233.5C 255.39,232.109 257.057,230.109 258,227.5C 260.706,224.022 263.706,223.689 267,226.5C 267.821,229.554 267.655,232.554 266.5,235.5C 260.368,244.279 254.702,253.279 249.5,262.5 Z"/></g>
<g><path style="opacity:1" fill="#0f1005" d="M 180.5,230.5 C 180.351,229.448 180.517,228.448 181,227.5C 182.33,228.582 183.83,229.249 185.5,229.5C 187.346,227.97 188.346,225.97 188.5,223.5C 196.579,223.926 198.579,227.759 194.5,235C 188.61,236.691 183.944,235.191 180.5,230.5 Z"/></g>
<g><path style="opacity:1" fill="#322319" d="M 207.5,215.5 C 213.327,214.962 218.827,215.962 224,218.5C 226.867,223.765 228.034,229.431 227.5,235.5C 222.751,242.471 216.251,247.137 208,249.5C 207.503,252.146 207.336,254.813 207.5,257.5C 207.5,258.167 207.167,258.5 206.5,258.5C 206.736,255.391 206.403,252.391 205.5,249.5C 193.05,249.694 184.717,244.027 180.5,232.5C 180.5,231.833 180.5,231.167 180.5,230.5C 183.944,235.191 188.61,236.691 194.5,235C 198.579,227.759 196.579,223.926 188.5,223.5C 188.346,225.97 187.346,227.97 185.5,229.5C 184.677,227.545 184.51,225.545 185,223.5C 186.693,220.833 188.859,218.667 191.5,217C 196.708,215.603 202.041,215.103 207.5,215.5 Z"/></g>
<g><path style="opacity:1" fill="#231710" d="M 205.5,249.5 C 199.468,246.999 193.468,244.165 187.5,241C 186.257,239.846 185.257,238.512 184.5,237C 189.109,238.23 193.442,237.563 197.5,235C 199.379,231.708 199.379,228.208 197.5,224.5C 199.764,223.962 202.097,224.296 204.5,225.5C 205.736,224.754 207.07,224.421 208.5,224.5C 208.34,226.199 208.506,227.866 209,229.5C 209.251,227.567 209.751,225.734 210.5,224C 217.408,222.187 222.408,224.354 225.5,230.5C 223.914,232.173 223.247,234.173 223.5,236.5C 220.881,236.768 218.381,236.435 216,235.5C 213.891,236.035 213.391,237.035 214.5,238.5C 211.914,239.48 209.247,239.813 206.5,239.5C 206.813,243.042 206.479,246.375 205.5,249.5 Z"/></g>
<g><path style="opacity:1" fill="#807970" d="M 250.5,183.5 C 249.089,185.539 247.089,186.539 244.5,186.5C 238.57,186.872 232.903,186.205 227.5,184.5C 235.209,184.731 242.876,184.398 250.5,183.5 Z"/></g>
<g><path style="opacity:1" fill="#f9e5c1" d="M 292.5,298.5 C 295.306,298.822 297.806,299.822 300,301.5C 300.437,305.417 301.271,309.25 302.5,313C 302.173,314.813 301.507,316.48 300.5,318C 303.681,320.685 306.347,323.852 308.5,327.5C 308.5,329.167 308.5,330.833 308.5,332.5C 308.5,333.5 308.5,334.5 308.5,335.5C 307.167,335.5 305.833,335.5 304.5,335.5C 305.044,339.397 305.044,350.064 304.5,367.5C 303.5,367.5 302.5,367.5 301.5,367.5C 301.328,378.249 300.995,388.915 300.5,399.5C 298.5,399.5 296.5,399.5 294.5,399.5C 296.165,394.206 296.498,388.873 295.5,383.5C 294.5,383.5 293.5,383.5 292.5,383.5C 291.757,377.854 290.09,372.521 287.5,367.5C 287.896,364.956 287.229,362.789 285.5,361C 286.231,356.2 284.731,352.034 281,348.5C 280.103,345.51 279.269,342.51 278.5,339.5C 279.167,339.167 279.833,338.833 280.5,338.5C 276.859,334.512 277.859,331.678 283.5,330C 283.536,327.916 282.536,326.083 280.5,324.5C 280.938,324.565 281.272,324.399 281.5,324C 280.619,323.292 279.953,322.458 279.5,321.5C 280.648,320.836 281.981,320.669 283.5,321C 282.5,320.167 281.5,319.333 280.5,318.5C 282.657,317.21 284.99,316.376 287.5,316C 286.149,314.383 284.482,313.216 282.5,312.5C 283.802,310.799 285.469,309.632 287.5,309C 286.833,308.667 286.167,308.333 285.5,308C 287.563,305.459 288.897,302.625 289.5,299.5C 290.791,299.737 291.791,299.404 292.5,298.5 Z"/></g>
<g><path style="opacity:1" fill="#cab89c" d="M 299.5,273.5 C 300.441,275.05 301.107,276.716 301.5,278.5C 301.5,279.167 301.5,279.833 301.5,280.5C 299.866,281.972 298.366,283.638 297,285.5C 296.081,288.958 294.581,292.125 292.5,295C 293.171,295.986 293.171,297.153 292.5,298.5C 291.791,299.404 290.791,299.737 289.5,299.5C 288.897,302.625 287.563,305.459 285.5,308C 286.167,308.333 286.833,308.667 287.5,309C 285.469,309.632 283.802,310.799 282.5,312.5C 284.482,313.216 286.149,314.383 287.5,316C 284.99,316.376 282.657,317.21 280.5,318.5C 281.5,319.333 282.5,320.167 283.5,321C 281.981,320.669 280.648,320.836 279.5,321.5C 278.335,320.504 277.668,319.171 277.5,317.5C 278.543,314.617 280.209,312.117 282.5,310C 278.215,307.644 274.881,308.644 272.5,313C 270.5,313.333 268.5,313.667 266.5,314C 264.691,316.409 262.358,317.409 259.5,317C 260.756,316.583 261.423,315.75 261.5,314.5C 263.346,312.22 265.679,310.387 268.5,309C 267.862,307.293 267.862,305.46 268.5,303.5C 273.362,302.592 277.362,299.426 280.5,294C 282.746,292.961 284.913,291.794 287,290.5C 287.333,287.5 287.667,284.5 288,281.5C 287.855,284.923 289.355,286.923 292.5,287.5C 292.609,281.723 294.943,277.057 299.5,273.5 Z"/></g>
<g><path style="opacity:1" fill="#e0d6ca" d="M 236.5,290.5 C 236.833,290.5 237.167,290.5 237.5,290.5C 237.355,293.474 236.022,295.641 233.5,297C 232.449,302.927 228.782,306.927 222.5,309C 222.968,310.822 223.301,312.989 223.5,315.5C 219.393,315.646 215.727,316.98 212.5,319.5C 210.167,318.167 207.833,318.167 205.5,319.5C 201.643,318.577 197.809,317.577 194,316.5C 189.149,317.72 186.482,315.72 186,310.5C 185.282,311.451 184.449,311.617 183.5,311C 184.505,309.493 185.838,308.327 187.5,307.5C 186.139,305.972 184.972,304.305 184,302.5C 183.275,303.059 182.442,303.392 181.5,303.5C 177.425,301.282 177.591,299.282 182,297.5C 182.483,296.552 182.649,295.552 182.5,294.5C 191.793,306.274 203.793,310.107 218.5,306C 220.584,305.303 222.251,304.136 223.5,302.5C 229.092,299.909 233.426,295.909 236.5,290.5 Z"/></g>
<g><path style="opacity:1" fill="#865e52" d="M 220.5,298.5 C 220.842,299.338 221.508,299.672 222.5,299.5C 215.694,303.693 208.361,304.86 200.5,303C 205.019,302.825 209.353,302.325 213.5,301.5C 215.679,300.323 218.013,299.323 220.5,298.5 Z"/></g>
<g><path style="opacity:1" fill="#d6b691" d="M 118.5,295.5 C 120.134,298.832 122.801,300.999 126.5,302C 126.167,302.333 125.833,302.667 125.5,303C 133.929,312.347 139.929,323.18 143.5,335.5C 140.408,334.664 137.241,333.997 134,333.5C 128.298,332.924 126.464,335.258 128.5,340.5C 130.169,339.11 131.836,338.777 133.5,339.5C 132.054,341.618 131.387,343.951 131.5,346.5C 132.978,346.238 134.311,346.571 135.5,347.5C 134.754,348.736 134.421,350.07 134.5,351.5C 135.833,351.5 137.167,351.5 138.5,351.5C 138.777,354.448 138.444,357.281 137.5,360C 139.35,359.405 141.35,358.905 143.5,358.5C 142.281,363.076 140.614,367.409 138.5,371.5C 140.5,370.833 142.5,370.167 144.5,369.5C 144.328,371.492 144.995,373.158 146.5,374.5C 143.392,379.389 141.392,384.722 140.5,390.5C 142.125,393.235 142.792,396.235 142.5,399.5C 127.5,399.5 112.5,399.5 97.5,399.5C 99.397,382.01 101.73,364.677 104.5,347.5C 103.523,336.5 103.69,325.5 105,314.5C 107.867,321.394 109.034,321.06 108.5,313.5C 109.5,313.5 110.5,313.5 111.5,313.5C 111.351,312.448 111.517,311.448 112,310.5C 117.975,312.801 123.475,315.967 128.5,320C 130.845,320.17 133.179,319.837 135.5,319C 133.539,316.365 131.039,314.531 128,313.5C 127.982,309.929 126.315,307.596 123,306.5C 120.476,302.764 117.976,299.097 115.5,295.5C 116.5,295.5 117.5,295.5 118.5,295.5 Z"/></g>
<g><path style="opacity:1" fill="#bead9d" d="M 151.5,312.5 C 152.873,312.343 154.207,312.51 155.5,313C 157.921,315.094 160.588,316.76 163.5,318C 164.748,319.4 165.748,320.9 166.5,322.5C 161.483,319.142 156.483,315.809 151.5,312.5 Z"/></g>
<g><path style="opacity:1" fill="#c0a17f" d="M 117.5,290.5 C 119.471,292.593 121.804,294.26 124.5,295.5C 125.386,296.325 125.719,297.325 125.5,298.5C 130.392,301.777 135.725,304.277 141.5,306C 142.305,307.113 142.972,308.279 143.5,309.5C 153.984,324.985 167.984,335.985 185.5,342.5C 184.275,343.937 183.275,345.604 182.5,347.5C 183.705,348.995 183.705,350.328 182.5,351.5C 177.851,352.295 173.184,352.461 168.5,352C 164.602,350.525 160.602,349.358 156.5,348.5C 154.087,346.951 152.087,344.951 150.5,342.5C 149.548,340.955 149.215,339.288 149.5,337.5C 147.784,337.371 146.117,337.038 144.5,336.5C 143.833,336.5 143.5,336.167 143.5,335.5C 139.929,323.18 133.929,312.347 125.5,303C 125.833,302.667 126.167,302.333 126.5,302C 122.801,300.999 120.134,298.832 118.5,295.5C 119.552,295.649 120.552,295.483 121.5,295C 119.833,294.667 118.167,294.333 116.5,294C 118.991,293.374 118.991,292.541 116.5,291.5C 116.624,290.893 116.957,290.56 117.5,290.5 Z"/></g>
<g><path style="opacity:1" fill="#957d3e" d="M 306.5,297.5 C 307.261,301.182 307.928,305.015 308.5,309C 308.167,310 307.833,311 307.5,312C 308.998,319.219 310.332,326.386 311.5,333.5C 310.985,331.249 309.985,329.249 308.5,327.5C 308.108,324.854 308.108,322.354 308.5,320C 307.707,318.915 307.04,317.748 306.5,316.5C 306.6,310.348 306.6,304.014 306.5,297.5 Z"/></g>
<g><path style="opacity:1" fill="#917664" d="M 238.5,335.5 C 236.5,335.833 234.5,336.167 232.5,336.5C 234.072,335.313 235.739,334.313 237.5,333.5C 241.202,332.871 244.202,331.037 246.5,328C 249.5,326.5 252.5,325 255.5,323.5C 255.833,324 256.167,324.5 256.5,325C 253.759,333.352 248.759,339.852 241.5,344.5C 240.366,341.424 239.366,338.424 238.5,335.5 Z"/></g>
<g><path style="opacity:1" fill="#e3cfb1" d="M 143.5,335.5 C 143.5,336.167 143.833,336.5 144.5,336.5C 148.991,349.825 156.491,361.158 167,370.5C 167.333,371.5 167.667,372.5 168,373.5C 175.17,379.661 183.003,384.661 191.5,388.5C 191.5,392.167 191.5,395.833 191.5,399.5C 175.167,399.5 158.833,399.5 142.5,399.5C 142.792,396.235 142.125,393.235 140.5,390.5C 141.392,384.722 143.392,379.389 146.5,374.5C 144.995,373.158 144.328,371.492 144.5,369.5C 142.5,370.167 140.5,370.833 138.5,371.5C 140.614,367.409 142.281,363.076 143.5,358.5C 141.35,358.905 139.35,359.405 137.5,360C 138.444,357.281 138.777,354.448 138.5,351.5C 137.167,351.5 135.833,351.5 134.5,351.5C 134.421,350.07 134.754,348.736 135.5,347.5C 134.311,346.571 132.978,346.238 131.5,346.5C 131.387,343.951 132.054,341.618 133.5,339.5C 131.836,338.777 130.169,339.11 128.5,340.5C 126.464,335.258 128.298,332.924 134,333.5C 137.241,333.997 140.408,334.664 143.5,335.5 Z"/></g>
<g><path style="opacity:1" fill="#a78c6f" d="M 104.5,271.5 C 108.382,276.242 111.549,281.575 114,287.5C 115.419,288.46 116.919,289.293 118.5,290C 118.272,290.399 117.938,290.565 117.5,290.5C 116.957,290.56 116.624,290.893 116.5,291.5C 118.991,292.541 118.991,293.374 116.5,294C 118.167,294.333 119.833,294.667 121.5,295C 120.552,295.483 119.552,295.649 118.5,295.5C 117.5,295.5 116.5,295.5 115.5,295.5C 117.976,299.097 120.476,302.764 123,306.5C 126.315,307.596 127.982,309.929 128,313.5C 131.039,314.531 133.539,316.365 135.5,319C 133.179,319.837 130.845,320.17 128.5,320C 123.475,315.967 117.975,312.801 112,310.5C 111.517,311.448 111.351,312.448 111.5,313.5C 110.5,313.5 109.5,313.5 108.5,313.5C 109.034,321.06 107.867,321.394 105,314.5C 103.69,325.5 103.523,336.5 104.5,347.5C 101.73,364.677 99.397,382.01 97.5,399.5C 94.1667,399.5 90.8333,399.5 87.5,399.5C 87.3543,397.194 87.021,394.861 86.5,392.5C 87.81,390.565 89.1433,388.565 90.5,386.5C 88.7636,383.766 87.7636,380.766 87.5,377.5C 90.3978,374.958 91.0645,371.958 89.5,368.5C 93.458,366.867 93.458,365.2 89.5,363.5C 91.4953,360.997 92.8286,358.164 93.5,355C 92.4285,350.876 92.2618,346.71 93,342.5C 94.2977,335.918 95.2977,329.251 96,322.5C 96.8333,321.667 97.6667,320.833 98.5,320C 97.565,317.619 97.2317,315.119 97.5,312.5C 98.7995,308.999 99.9662,305.333 101,301.5C 101.325,295.083 102.158,288.749 103.5,282.5C 104.014,280.634 104.68,278.8 105.5,277C 104.767,275.234 104.433,273.401 104.5,271.5 Z"/></g>
<g><path style="opacity:1" fill="#705242" d="M 143.5,309.5 C 146.167,310.5 148.833,311.5 151.5,312.5C 156.483,315.809 161.483,319.142 166.5,322.5C 171.627,323.788 175.461,326.788 178,331.5C 180.292,330.399 181.792,331.232 182.5,334C 184.727,334.121 186.56,334.954 188,336.5C 190.296,336.066 192.962,335.732 196,335.5C 197.333,336.167 198.667,336.833 200,337.5C 200.333,336.833 200.667,336.167 201,335.5C 203.472,337.407 206.138,339.073 209,340.5C 210.398,339.949 211.732,339.616 213,339.5C 217.059,341.87 220.725,341.204 224,337.5C 226.6,338.379 229.433,338.046 232.5,336.5C 234.5,336.167 236.5,335.833 238.5,335.5C 238.724,339.179 239.058,342.846 239.5,346.5C 237.453,346.511 235.453,346.844 233.5,347.5C 232.353,347.182 231.519,346.516 231,345.5C 230.517,346.448 230.351,347.448 230.5,348.5C 214.768,351.953 199.768,349.953 185.5,342.5C 167.984,335.985 153.984,324.985 143.5,309.5 Z"/></g>
<g><path style="opacity:1" fill="#cdb99c" d="M 144.5,336.5 C 146.117,337.038 147.784,337.371 149.5,337.5C 149.215,339.288 149.548,340.955 150.5,342.5C 152.087,344.951 154.087,346.951 156.5,348.5C 160.602,349.358 164.602,350.525 168.5,352C 173.184,352.461 177.851,352.295 182.5,351.5C 182.693,354.475 181.693,356.975 179.5,359C 180.916,361.265 182.916,362.431 185.5,362.5C 185.5,364.167 185.5,365.833 185.5,367.5C 187.5,367.5 189.5,367.5 191.5,367.5C 191.5,374.5 191.5,381.5 191.5,388.5C 183.003,384.661 175.17,379.661 168,373.5C 167.667,372.5 167.333,371.5 167,370.5C 156.491,361.158 148.991,349.825 144.5,336.5 Z"/></g>
<g><path style="opacity:1" fill="#644e23" d="M 97.5,312.5 C 97.2317,315.119 97.565,317.619 98.5,320C 97.6667,320.833 96.8333,321.667 96,322.5C 95.2977,329.251 94.2977,335.918 93,342.5C 92.2618,346.71 92.4285,350.876 93.5,355C 92.8286,358.164 91.4953,360.997 89.5,363.5C 93.458,365.2 93.458,366.867 89.5,368.5C 89.4142,367.504 89.7476,366.671 90.5,366C 89.4844,365.481 88.8178,364.647 88.5,363.5C 90.983,346.26 93.983,329.26 97.5,312.5 Z"/></g>
<g><path style="opacity:1" fill="#ccc1b4" d="M 279.5,321.5 C 279.953,322.458 280.619,323.292 281.5,324C 281.272,324.399 280.938,324.565 280.5,324.5C 279.957,324.56 279.624,324.893 279.5,325.5C 280.833,326.62 281.333,327.953 281,329.5C 280.163,327.993 278.996,327.493 277.5,328C 272.775,333.718 269.608,340.218 268,347.5C 257.187,369.972 239.687,384.472 215.5,391C 207.223,392.152 199.223,391.319 191.5,388.5C 191.5,381.5 191.5,374.5 191.5,367.5C 189.5,367.5 187.5,367.5 185.5,367.5C 185.5,365.833 185.5,364.167 185.5,362.5C 182.916,362.431 180.916,361.265 179.5,359C 181.693,356.975 182.693,354.475 182.5,351.5C 183.705,350.328 183.705,348.995 182.5,347.5C 183.275,345.604 184.275,343.937 185.5,342.5C 199.768,349.953 214.768,351.953 230.5,348.5C 230.351,347.448 230.517,346.448 231,345.5C 231.519,346.516 232.353,347.182 233.5,347.5C 235.453,346.844 237.453,346.511 239.5,346.5C 239.058,342.846 238.724,339.179 238.5,335.5C 239.366,338.424 240.366,341.424 241.5,344.5C 248.759,339.852 253.759,333.352 256.5,325C 256.167,324.5 255.833,324 255.5,323.5C 252.5,325 249.5,326.5 246.5,328C 244.202,331.037 241.202,332.871 237.5,333.5C 241.244,331.771 243.911,328.938 245.5,325C 249.614,323.443 253.614,321.61 257.5,319.5C 257.291,318.914 256.957,318.414 256.5,318C 257.885,316.351 259.551,315.184 261.5,314.5C 261.423,315.75 260.756,316.583 259.5,317C 262.358,317.409 264.691,316.409 266.5,314C 268.5,313.667 270.5,313.333 272.5,313C 274.881,308.644 278.215,307.644 282.5,310C 280.209,312.117 278.543,314.617 277.5,317.5C 277.668,319.171 278.335,320.504 279.5,321.5 Z"/></g>
<g><path style="opacity:1" fill="#664f26" d="M 308.5,327.5 C 309.985,329.249 310.985,331.249 311.5,333.5C 312.505,339.55 313.672,345.55 315,351.5C 315.786,359.37 315.619,367.203 314.5,375C 315.068,376.872 315.735,378.705 316.5,380.5C 315.54,386.773 315.207,393.107 315.5,399.5C 315.167,399.5 314.833,399.5 314.5,399.5C 313.471,397.136 313.471,394.803 314.5,392.5C 314.033,390.432 313.366,388.432 312.5,386.5C 313.167,386.167 313.833,385.833 314.5,385.5C 313.888,380.249 313.888,374.916 314.5,369.5C 313.911,366.978 313.245,364.478 312.5,362C 312.892,360.989 313.559,360.489 314.5,360.5C 313.862,355.431 312.862,350.431 311.5,345.5C 311.833,344.833 312.167,344.167 312.5,343.5C 311.409,339.62 310.075,335.953 308.5,332.5C 308.5,330.833 308.5,329.167 308.5,327.5 Z"/></g>
<g><path style="opacity:1" fill="#ecd5ac" d="M 308.5,335.5 C 310.826,351.382 311.826,367.382 311.5,383.5C 310.167,383.5 308.833,383.5 307.5,383.5C 307.608,388.87 307.275,394.203 306.5,399.5C 304.5,399.5 302.5,399.5 300.5,399.5C 300.995,388.915 301.328,378.249 301.5,367.5C 302.5,367.5 303.5,367.5 304.5,367.5C 305.044,350.064 305.044,339.397 304.5,335.5C 305.833,335.5 307.167,335.5 308.5,335.5 Z"/></g>
<g><path style="opacity:1" fill="#483112" d="M 89.5,368.5 C 91.0645,371.958 90.3978,374.958 87.5,377.5C 87.8583,374.311 88.525,371.311 89.5,368.5 Z"/></g>
<g><path style="opacity:1" fill="#f3f2e5" d="M 287.5,367.5 C 290.09,372.521 291.757,377.854 292.5,383.5C 293.5,383.5 294.5,383.5 295.5,383.5C 296.498,388.873 296.165,394.206 294.5,399.5C 286.833,399.5 279.167,399.5 271.5,399.5C 271.092,393.07 272.425,387.07 275.5,381.5C 272.833,379.833 272.833,378.167 275.5,376.5C 274.371,374.471 274.871,374.137 277,375.5C 278.601,369.91 280.101,364.243 281.5,358.5C 282.086,358.709 282.586,359.043 283,359.5C 283.497,362.146 283.664,364.813 283.5,367.5C 284.833,367.5 286.167,367.5 287.5,367.5 Z"/></g>
<g><path style="opacity:1" fill="#e2d8cd" d="M 280.5,324.5 C 282.536,326.083 283.536,327.916 283.5,330C 277.859,331.678 276.859,334.512 280.5,338.5C 279.833,338.833 279.167,339.167 278.5,339.5C 279.269,342.51 280.103,345.51 281,348.5C 284.731,352.034 286.231,356.2 285.5,361C 287.229,362.789 287.896,364.956 287.5,367.5C 286.167,367.5 284.833,367.5 283.5,367.5C 283.664,364.813 283.497,362.146 283,359.5C 282.586,359.043 282.086,358.709 281.5,358.5C 280.101,364.243 278.601,369.91 277,375.5C 274.871,374.137 274.371,374.471 275.5,376.5C 272.833,378.167 272.833,379.833 275.5,381.5C 272.425,387.07 271.092,393.07 271.5,399.5C 244.833,399.5 218.167,399.5 191.5,399.5C 191.5,395.833 191.5,392.167 191.5,388.5C 199.223,391.319 207.223,392.152 215.5,391C 239.687,384.472 257.187,369.972 268,347.5C 269.608,340.218 272.775,333.718 277.5,328C 278.996,327.493 280.163,327.993 281,329.5C 281.333,327.953 280.833,326.62 279.5,325.5C 279.624,324.893 279.957,324.56 280.5,324.5 Z"/></g>
<g><path style="opacity:1" fill="#543f1e" d="M 87.5,377.5 C 87.7636,380.766 88.7636,383.766 90.5,386.5C 89.1433,388.565 87.81,390.565 86.5,392.5C 86.1795,387.305 86.5128,382.305 87.5,377.5 Z"/></g>
<g><path style="opacity:1" fill="#dac39b" d="M 308.5,332.5 C 310.075,335.953 311.409,339.62 312.5,343.5C 312.167,344.167 311.833,344.833 311.5,345.5C 312.862,350.431 313.862,355.431 314.5,360.5C 313.559,360.489 312.892,360.989 312.5,362C 313.245,364.478 313.911,366.978 314.5,369.5C 313.888,374.916 313.888,380.249 314.5,385.5C 313.833,385.833 313.167,386.167 312.5,386.5C 313.366,388.432 314.033,390.432 314.5,392.5C 313.471,394.803 313.471,397.136 314.5,399.5C 311.833,399.5 309.167,399.5 306.5,399.5C 307.275,394.203 307.608,388.87 307.5,383.5C 308.833,383.5 310.167,383.5 311.5,383.5C 311.826,367.382 310.826,351.382 308.5,335.5C 308.5,334.5 308.5,333.5 308.5,332.5 Z"/></g>
</svg>
