<svg width="400" height="400" viewBox="0 0 400 400" fill="none" xmlns="http://www.w3.org/2000/svg">
<g clip-path="url(#clip0_1684_2961)">
<path d="M0 0C132 0 264 0 400 0C400 132 400 264 400 400C268 400 136 400 0 400C0 268 0 136 0 0Z" fill="black"/>
<path d="M200.438 93.5C201.798 93.4845 201.798 93.4845 203.184 93.4688C208.163 94.4078 210.791 96.2665 213.639 100.347C215.484 103.401 217.221 106.497 218.938 109.625C219.593 110.793 220.249 111.959 220.907 113.125C222.271 115.545 223.628 117.969 224.981 120.396C228.093 125.965 231.302 131.48 234.501 137C235.753 139.169 237.004 141.338 238.255 143.508C240.74 147.816 243.227 152.123 245.716 156.43C252.533 168.232 259.32 180.052 266.071 191.893C270.813 200.206 275.604 208.49 280.438 216.75C284.435 223.583 288.417 230.422 292.313 237.312C292.864 238.282 292.864 238.282 293.426 239.271C297.664 246.813 297.979 254.516 297.001 263C295.869 266.786 294.25 269.767 292.001 273C291.59 273.643 291.178 274.286 290.755 274.949C286.046 281.391 278.357 285.292 270.587 286.555C266.814 286.768 263.082 286.8 259.303 286.76C257.869 286.767 256.435 286.776 255.002 286.787C251.144 286.81 247.287 286.796 243.43 286.773C239.373 286.754 235.317 286.765 231.26 286.772C224.453 286.778 217.647 286.76 210.84 286.727C202.991 286.69 195.144 286.692 187.295 286.714C179.715 286.735 172.134 286.728 164.553 286.708C161.34 286.7 158.128 286.702 154.915 286.712C151.128 286.723 147.341 286.708 143.553 286.675C141.516 286.663 139.478 286.676 137.44 286.689C128.235 286.573 121.603 284.747 114.415 278.895C106.964 270.224 103.656 261.892 104.302 250.273C105.242 242.325 109.898 235.679 114.001 229C114.771 227.69 115.536 226.377 116.298 225.062C117.9 222.303 119.52 219.554 121.153 216.812C124.551 211.093 127.868 205.327 131.188 199.562C131.824 198.458 132.461 197.354 133.116 196.216C134.423 193.947 135.73 191.677 137.036 189.408C138.968 186.057 140.904 182.708 142.841 179.359C148.905 168.873 154.936 158.37 160.876 147.812C164.65 141.109 168.46 134.439 172.47 127.873C174.879 123.917 177.198 119.917 179.489 115.891C180.419 114.265 180.419 114.265 181.368 112.607C182.601 110.45 183.826 108.288 185.042 106.121C185.895 104.632 185.895 104.632 186.766 103.113C187.269 102.224 187.773 101.335 188.291 100.419C191.58 95.7657 194.698 93.4349 200.438 93.5Z" fill="#FAFAFA"/>
<path d="M187.963 143C188.293 143 188.623 143 188.963 143C188.963 182.27 188.963 221.54 188.963 262C170.153 262 151.343 262 131.963 262C127.963 257 127.963 257 128.008 254.085C129.075 250.64 130.477 247.778 132.245 244.633C132.739 243.745 132.739 243.745 133.243 242.839C134.308 240.929 135.385 239.027 136.463 237.125C137.202 235.807 137.939 234.488 138.676 233.169C140.12 230.589 141.568 228.011 143.022 225.437C144.59 222.66 146.153 219.881 147.709 217.098C150.13 212.776 152.568 208.464 155.009 204.154C166.424 183.992 177.348 163.594 187.963 143Z" fill="#020202"/>
<path d="M213 143C216.246 146.288 218.081 149.702 220.156 153.778C220.553 154.546 220.95 155.315 221.36 156.106C223.532 160.33 225.644 164.58 227.711 168.857C233.048 179.879 239.041 190.519 245.006 201.201C246.823 204.462 248.629 207.728 250.432 210.997C251.015 212.054 251.598 213.111 252.198 214.2C253.358 216.305 254.517 218.411 255.673 220.518C258.491 225.633 261.352 230.711 264.324 235.736C264.883 236.69 265.441 237.644 266.016 238.627C267.063 240.41 268.125 242.186 269.202 243.951C272.294 249.241 273.601 252.805 272.741 258.975C271.755 259.973 270.77 260.971 269.754 262C251.025 262 232.296 262 213 262C213 222.73 213 183.46 213 143Z" fill="#020202"/>
</g>
<defs>
<clipPath id="clip0_1684_2961">
<rect width="400" height="400" fill="white"/>
</clipPath>
</defs>
</svg>
