<svg version="1.0" xmlns="http://www.w3.org/2000/svg"
 width="600.000000" height="600.000000" viewBox="0 0 600.000000 600.000000"
 preserveAspectRatio="xMidYMid meet">
			<circle cx="300" cy="300" r="290" fill="white" />
<g transform="translate(0.000000,600.000000) scale(0.100000,-0.100000)"
fill="#000000" stroke="none">
<path d="M2745 5983 c-125 -11 -340 -48 -475 -82 -1170 -295 -2047 -1262
-2231 -2461 -30 -196 -37 -565 -15 -760 69 -592 277 -1099 637 -1551 431 -541
1057 -926 1727 -1064 1501 -309 2983 546 3461 1996 249 757 187 1576 -175
2289 -462 911 -1324 1507 -2349 1625 -117 14 -462 18 -580 8z m-35 -1432 l0
-230 -337 -3 c-235 -2 -344 -7 -358 -15 -44 -25 -96 -81 -105 -114 -6 -20 -10
-216 -10 -469 0 -402 -1 -440 -20 -503 -10 -38 -23 -74 -28 -80 -5 -7 -13 -23
-17 -37 -4 -14 -26 -41 -48 -60 l-40 -36 38 -34 c20 -19 48 -59 61 -89 52
-116 54 -137 54 -597 0 -276 4 -443 11 -468 12 -45 71 -104 112 -113 15 -3 30
-10 33 -14 3 -5 151 -9 330 -9 l324 0 0 -226 0 -226 -437 5 c-270 3 -457 9
-488 16 -67 15 -192 77 -238 118 -20 18 -41 33 -45 33 -5 0 -16 16 -25 35 -9
19 -20 35 -25 35 -11 0 -37 47 -57 100 -9 25 -23 65 -32 90 -15 39 -18 115
-22 547 l-6 503 -28 27 c-26 27 -32 28 -142 31 -63 2 -115 8 -115 13 0 5 -1
107 -1 227 l0 217 103 5 c115 6 167 26 179 70 4 14 7 234 8 490 1 502 -2 472
57 645 35 103 118 193 239 260 131 72 211 81 708 83 l367 2 0 -229z m1390 219
c146 -15 205 -30 285 -72 88 -45 122 -72 185 -149 17 -20 30 -40 30 -43 0 -4
12 -33 26 -64 53 -115 54 -125 54 -591 0 -238 3 -463 6 -498 7 -61 9 -67 47
-94 38 -28 45 -29 144 -29 l103 0 -2 -227 -3 -228 -112 -5 c-106 -5 -113 -6
-141 -33 l-30 -29 -5 -496 c-5 -542 -4 -534 -66 -662 -29 -60 -69 -125 -88
-142 -79 -74 -213 -143 -308 -161 -37 -7 -221 -11 -485 -11 l-425 -1 -3 223
-2 222 312 0 c335 0 359 3 434 52 71 46 73 62 77 578 l3 445 28 80 c20 58 38
91 68 122 l41 41 -22 31 c-12 17 -26 31 -31 31 -13 0 -36 47 -62 123 -20 58
-22 88 -28 522 -4 253 -10 474 -15 490 -9 36 -37 69 -85 98 -34 21 -47 22
-375 27 l-340 5 -3 215 c-1 118 0 220 2 227 4 10 81 13 358 12 194 0 387 -4
428 -9z m-825 -1079 c125 -59 134 -63 152 -80 10 -9 33 -26 51 -36 17 -11 35
-28 38 -38 3 -10 16 -23 28 -28 13 -6 31 -25 41 -42 11 -18 27 -40 36 -50 17
-18 22 -28 80 -152 32 -68 33 -75 37 -226 5 -179 -2 -225 -54 -336 -86 -184
-221 -311 -414 -389 -92 -37 -100 -39 -235 -42 -150 -4 -163 -1 -300 52 -96
38 -160 81 -240 161 -78 77 -123 143 -158 230 -52 128 -57 154 -57 286 0 130
4 147 64 306 19 52 95 162 146 213 42 42 177 140 193 140 6 0 35 12 66 27 84
40 102 42 286 39 169 -2 170 -2 240 -35z"/>
<path d="M2888 3350 c-44 -13 -140 -88 -170 -133 -62 -91 -68 -110 -68 -214 0
-98 0 -99 44 -173 51 -88 59 -96 151 -149 69 -41 71 -41 170 -41 l100 0 76 44
c79 46 112 82 156 167 24 45 27 63 27 148 0 119 -25 181 -104 260 -81 81 -133
101 -255 100 -55 0 -112 -4 -127 -9z"/>
</g>
</svg>