<svg xmlns="http://www.w3.org/2000/svg" viewBox="0 0 800 800" version="1.1" width="800px" height="800px" style="shape-rendering:geometricPrecision; text-rendering:geometricPrecision; image-rendering:optimizeQuality; fill-rule:evenodd; clip-rule:evenodd" xmlns:xlink="http://www.w3.org/1999/xlink">
<g><path style="opacity:1" fill="#000000" d="M -0.5,-0.5 C 266.167,-0.5 532.833,-0.5 799.5,-0.5C 799.5,266.167 799.5,532.833 799.5,799.5C 532.833,799.5 266.167,799.5 -0.5,799.5C -0.5,532.833 -0.5,266.167 -0.5,-0.5 Z"/></g>
<g><path style="opacity:1" fill="#ffa3c2" d="M 104.5,132.5 C 103.596,133.209 103.263,134.209 103.5,135.5C 100.881,135.768 98.3806,135.435 96,134.5C 95.5034,136.81 95.3367,139.143 95.5,141.5C 93.1432,141.663 90.8098,141.497 88.5,141C 94.9363,136.88 94.6029,135.047 87.5,135.5C 87.5,139.5 87.5,143.5 87.5,147.5C 83.8333,147.5 80.1667,147.5 76.5,147.5C 77.798,135.544 78.6314,123.544 79,111.5C 82.5657,103.421 88.5657,100.754 97,103.5C 99.5807,113.137 102.081,122.803 104.5,132.5 Z"/></g>
<g><path style="opacity:1" fill="#ffa4ba" d="M 104.5,132.5 C 105.209,133.404 106.209,133.737 107.5,133.5C 117.089,158.423 132.422,179.09 153.5,195.5C 153.5,196.167 153.5,196.833 153.5,197.5C 149.03,194.759 144.696,191.759 140.5,188.5C 131.766,179.27 123.599,169.603 116,159.5C 115.13,160.108 114.63,160.941 114.5,162C 115.233,163.766 115.567,165.599 115.5,167.5C 114.167,167.5 112.833,167.5 111.5,167.5C 111.5,168.833 111.5,170.167 111.5,171.5C 108.833,171.5 106.167,171.5 103.5,171.5C 103.5,172.833 103.5,174.167 103.5,175.5C 101.92,172.737 100.087,170.07 98,167.5C 97.5026,170.146 97.3359,172.813 97.5,175.5C 95.8235,176.183 95.1568,177.517 95.5,179.5C 92.8333,179.5 90.1667,179.5 87.5,179.5C 87.5,180.833 87.5,182.167 87.5,183.5C 84.2893,183.012 81.456,183.679 79,185.5C 78.3256,191.917 78.8256,198.25 80.5,204.5C 80.5466,206.038 79.8799,207.038 78.5,207.5C 76.8874,198.879 75.554,190.212 74.5,181.5C 76.4777,170.549 77.1444,159.216 76.5,147.5C 80.1667,147.5 83.8333,147.5 87.5,147.5C 87.5,143.5 87.5,139.5 87.5,135.5C 94.6029,135.047 94.9363,136.88 88.5,141C 90.8098,141.497 93.1432,141.663 95.5,141.5C 95.3367,139.143 95.5034,136.81 96,134.5C 98.3806,135.435 100.881,135.768 103.5,135.5C 103.263,134.209 103.596,133.209 104.5,132.5 Z"/></g>
<g><path style="opacity:1" fill="#d7d408" d="M 651.5,288.5 C 651.414,287.504 651.748,286.671 652.5,286C 656.593,283.855 660.593,281.521 664.5,279C 663.577,276.959 663.244,274.792 663.5,272.5C 665.144,272.714 666.644,272.38 668,271.5C 668.497,268.854 668.664,266.187 668.5,263.5C 669.5,263.5 670.5,263.5 671.5,263.5C 671.453,258.612 671.286,253.945 671,249.5C 665.742,253.547 660.575,257.713 655.5,262C 649.018,265.074 642.684,268.408 636.5,272C 639.2,272.949 640.033,274.783 639,277.5C 637.055,276.137 634.888,275.303 632.5,275C 634.595,274.444 634.762,273.944 633,273.5C 628.272,275.227 623.438,276.061 618.5,276C 619.056,275.617 619.389,275.117 619.5,274.5C 669.276,260.223 695.443,227.223 698,175.5C 680.804,201.166 657.971,219.833 629.5,231.5C 629.281,230.325 629.614,229.325 630.5,228.5C 637.6,225.029 644.6,221.529 651.5,218C 650.5,217.5 649.5,217 648.5,216.5C 647.516,213.572 647.183,210.572 647.5,207.5C 650.167,207.5 652.833,207.5 655.5,207.5C 655.5,204.833 655.5,202.167 655.5,199.5C 652.67,199.306 650.004,198.639 647.5,197.5C 648.545,194.615 650.545,192.448 653.5,191C 652.584,190.722 651.918,190.222 651.5,189.5C 676.693,167.502 691.859,139.836 697,106.5C 697.685,103.943 699.185,102.109 701.5,101C 709.365,98.7485 715.532,100.915 720,107.5C 722.696,124.549 723.863,141.715 723.5,159C 725.767,194.119 716.934,225.952 697,254.5C 684.498,269.516 669.331,280.849 651.5,288.5 Z"/></g>
<g><path style="opacity:1" fill="#ff86ae" d="M 107.5,133.5 C 106.209,133.737 105.209,133.404 104.5,132.5C 102.081,122.803 99.5807,113.137 97,103.5C 88.5657,100.754 82.5657,103.421 79,111.5C 78.6314,123.544 77.798,135.544 76.5,147.5C 77.1444,159.216 76.4777,170.549 74.5,181.5C 73.9871,157.781 74.8205,134.114 77,110.5C 81.3365,100.642 88.5031,97.8085 98.5,102C 99.4601,103.419 100.293,104.919 101,106.5C 102.699,115.631 104.866,124.631 107.5,133.5 Z"/></g>
<g><path style="opacity:1" fill="#ffacb8" d="M 140.5,188.5 C 139.766,189.929 138.599,190.929 137,191.5C 134.065,189.808 130.898,189.142 127.5,189.5C 127.335,192.85 127.502,196.183 128,199.5C 129.316,202.028 130.483,202.028 131.5,199.5C 132.635,200.103 133.635,200.436 134.5,200.5C 133.846,202.858 132.513,204.525 130.5,205.5C 126.578,203.085 123.078,200.085 120,196.5C 114.262,189.606 108.762,182.606 103.5,175.5C 103.5,174.167 103.5,172.833 103.5,171.5C 106.167,171.5 108.833,171.5 111.5,171.5C 111.5,170.167 111.5,168.833 111.5,167.5C 112.833,167.5 114.167,167.5 115.5,167.5C 115.567,165.599 115.233,163.766 114.5,162C 114.63,160.941 115.13,160.108 116,159.5C 123.599,169.603 131.766,179.27 140.5,188.5 Z"/></g>
<g><path style="opacity:1" fill="#ffa6b1" d="M 97.5,175.5 C 97.6008,182.642 98.6008,189.642 100.5,196.5C 100.957,197.298 101.624,197.631 102.5,197.5C 105.489,208.457 109.489,219.123 114.5,229.5C 113.5,229.5 112.5,229.5 111.5,229.5C 107.788,222.074 104.621,214.407 102,206.5C 100.755,206.461 99.4219,206.795 98,207.5C 95.4188,210.868 91.9188,212.201 87.5,211.5C 87.3102,215.737 86.9768,219.737 86.5,223.5C 90.3525,233.895 95.6858,243.228 102.5,251.5C 103.167,252.833 103.833,254.167 104.5,255.5C 103.833,255.5 103.5,255.833 103.5,256.5C 91.2349,242.305 82.9015,225.972 78.5,207.5C 79.8799,207.038 80.5466,206.038 80.5,204.5C 78.8256,198.25 78.3256,191.917 79,185.5C 81.456,183.679 84.2893,183.012 87.5,183.5C 87.5,182.167 87.5,180.833 87.5,179.5C 90.1667,179.5 92.8333,179.5 95.5,179.5C 95.1568,177.517 95.8235,176.183 97.5,175.5 Z"/></g>
<g><path style="opacity:1" fill="#000000" d="M 138.5,215.5 C 141.159,217.164 143.825,218.83 146.5,220.5C 164.741,232.248 184.741,239.248 206.5,241.5C 207.952,242.302 209.618,242.802 211.5,243C 239.262,245.271 266.929,244.438 294.5,240.5C 295.5,240.833 296.5,241.167 297.5,241.5C 272.125,273.499 239.125,285.999 198.5,279C 193.226,277.519 187.893,276.352 182.5,275.5C 155.092,269.15 133.092,254.817 116.5,232.5C 116.573,230.973 115.906,229.973 114.5,229.5C 109.489,219.123 105.489,208.457 102.5,197.5C 101.146,190.194 100.313,182.861 100,175.5C 110.626,190.96 123.46,204.293 138.5,215.5 Z"/></g>
<g><path style="opacity:1" fill="#000000" d="M 619.5,274.5 C 610.121,276.849 600.787,278.849 591.5,280.5C 569.903,282.38 549.569,278.38 530.5,268.5C 518.527,261.371 508.193,252.204 499.5,241C 515.473,241.942 531.473,242.775 547.5,243.5C 553.84,244.724 560.173,244.724 566.5,243.5C 588.403,243.585 609.403,239.585 629.5,231.5C 657.971,219.833 680.804,201.166 698,175.5C 695.443,227.223 669.276,260.223 619.5,274.5 Z"/></g>
<g><path style="opacity:1" fill="#ffb1b1" d="M 140.5,188.5 C 144.696,191.759 149.03,194.759 153.5,197.5C 160.574,202.367 167.907,206.7 175.5,210.5C 175.297,212.39 175.963,213.89 177.5,215C 176.027,215.71 175.36,216.876 175.5,218.5C 172.833,218.5 170.167,218.5 167.5,218.5C 167.5,220.167 167.5,221.833 167.5,223.5C 165.669,224.052 164.003,224.052 162.5,223.5C 161.702,223.957 161.369,224.624 161.5,225.5C 156.847,223.191 152.181,220.858 147.5,218.5C 146.702,218.957 146.369,219.624 146.5,220.5C 143.825,218.83 141.159,217.164 138.5,215.5C 139.289,215.217 139.956,214.717 140.5,214C 136.91,211.386 133.576,208.552 130.5,205.5C 132.513,204.525 133.846,202.858 134.5,200.5C 133.635,200.436 132.635,200.103 131.5,199.5C 130.483,202.028 129.316,202.028 128,199.5C 127.502,196.183 127.335,192.85 127.5,189.5C 130.898,189.142 134.065,189.808 137,191.5C 138.599,190.929 139.766,189.929 140.5,188.5 Z"/></g>
<g><path style="opacity:1" fill="#ff93a1" d="M 103.5,175.5 C 108.762,182.606 114.262,189.606 120,196.5C 123.078,200.085 126.578,203.085 130.5,205.5C 133.576,208.552 136.91,211.386 140.5,214C 139.956,214.717 139.289,215.217 138.5,215.5C 123.46,204.293 110.626,190.96 100,175.5C 100.313,182.861 101.146,190.194 102.5,197.5C 101.624,197.631 100.957,197.298 100.5,196.5C 98.6008,189.642 97.6008,182.642 97.5,175.5C 97.3359,172.813 97.5026,170.146 98,167.5C 100.087,170.07 101.92,172.737 103.5,175.5 Z"/></g>
<g><path style="opacity:1" fill="#ffb0b1" d="M 114.5,229.5 C 115.906,229.973 116.573,230.973 116.5,232.5C 115.62,235.125 116.287,237.458 118.5,239.5C 116.014,240.95 116.347,242.116 119.5,243C 119.943,244.518 119.276,245.685 117.5,246.5C 122.308,246.81 122.974,248.644 119.5,252C 116.854,252.497 114.187,252.664 111.5,252.5C 111.649,253.552 111.483,254.552 111,255.5C 110.506,253.866 110.34,252.199 110.5,250.5C 108.533,250.261 106.699,250.594 105,251.5C 103.608,249.158 102.775,249.158 102.5,251.5C 95.6858,243.228 90.3525,233.895 86.5,223.5C 86.9768,219.737 87.3102,215.737 87.5,211.5C 91.9188,212.201 95.4188,210.868 98,207.5C 99.4219,206.795 100.755,206.461 102,206.5C 104.621,214.407 107.788,222.074 111.5,229.5C 112.5,229.5 113.5,229.5 114.5,229.5 Z"/></g>
<g><path style="opacity:1" fill="#ffc08b" d="M 329.5,218.5 C 329.196,219.15 328.863,219.817 328.5,220.5C 331.3,227.052 330.8,233.386 327,239.5C 305.691,276.286 273.858,297.286 231.5,302.5C 226.167,302.5 220.833,302.5 215.5,302.5C 214.737,301.732 213.737,301.232 212.5,301C 216.06,299.763 219.727,299.263 223.5,299.5C 223.5,298.5 223.5,297.5 223.5,296.5C 230.158,297.836 232.825,295.17 231.5,288.5C 234.187,288.664 236.854,288.497 239.5,288C 236.833,287.333 236.833,286.667 239.5,286C 238.167,285.667 236.833,285.333 235.5,285C 238.863,284.374 242.196,284.041 245.5,284C 244.833,284.333 244.167,284.667 243.5,285C 244.793,285.49 246.127,285.657 247.5,285.5C 247.5,284.167 247.5,282.833 247.5,281.5C 244.833,281.5 242.167,281.5 239.5,281.5C 266.359,275.143 287.692,260.643 303.5,238C 296.51,238.274 289.51,238.774 282.5,239.5C 283.919,238.549 285.585,238.216 287.5,238.5C 287.64,236.876 286.973,235.71 285.5,235C 288.446,232.775 291.78,231.609 295.5,231.5C 294.72,226.645 296.72,223.811 301.5,223C 299.5,222.667 297.5,222.333 295.5,222C 297.547,220.927 299.547,219.761 301.5,218.5C 299.833,218.167 298.167,217.833 296.5,217.5C 286.508,218.647 276.508,219.647 266.5,220.5C 264.585,220.784 262.919,220.451 261.5,219.5C 279.864,217.225 298.364,214.892 317,212.5C 322.936,211.22 327.103,213.22 329.5,218.5 Z"/></g>
<g><path style="opacity:1" fill="#ff9d8d" d="M 153.5,195.5 C 174.407,209.192 197.407,217.025 222.5,219C 235.496,219.5 248.496,219.667 261.5,219.5C 262.919,220.451 264.585,220.784 266.5,220.5C 255.012,221.495 243.345,221.828 231.5,221.5C 212.014,221.402 193.347,217.736 175.5,210.5C 167.907,206.7 160.574,202.367 153.5,197.5C 153.5,196.833 153.5,196.167 153.5,195.5 Z"/></g>
<g><path style="opacity:1" fill="#ffb7a5" d="M 175.5,210.5 C 193.347,217.736 212.014,221.402 231.5,221.5C 237.319,222.328 243.319,222.828 249.5,223C 246.183,223.498 242.85,223.665 239.5,223.5C 239.5,226.167 239.5,228.833 239.5,231.5C 236.833,231.5 234.167,231.5 231.5,231.5C 231.692,234.809 230.359,237.309 227.5,239C 223.472,239.392 219.472,239.892 215.5,240.5C 212.833,240.5 210.167,240.5 207.5,240.5C 199.566,239.019 191.566,237.186 183.5,235C 175.787,232.424 168.454,229.257 161.5,225.5C 161.369,224.624 161.702,223.957 162.5,223.5C 164.003,224.052 165.669,224.052 167.5,223.5C 167.5,221.833 167.5,220.167 167.5,218.5C 170.167,218.5 172.833,218.5 175.5,218.5C 175.36,216.876 176.027,215.71 177.5,215C 175.963,213.89 175.297,212.39 175.5,210.5 Z"/></g>
<g><path style="opacity:1" fill="#ffbc9c" d="M 282.5,239.5 C 267.691,240.769 252.857,241.769 238,242.5C 230.307,242.308 222.807,241.641 215.5,240.5C 219.472,239.892 223.472,239.392 227.5,239C 230.359,237.309 231.692,234.809 231.5,231.5C 234.167,231.5 236.833,231.5 239.5,231.5C 239.5,228.833 239.5,226.167 239.5,223.5C 242.85,223.665 246.183,223.498 249.5,223C 243.319,222.828 237.319,222.328 231.5,221.5C 243.345,221.828 255.012,221.495 266.5,220.5C 276.508,219.647 286.508,218.647 296.5,217.5C 298.167,217.833 299.833,218.167 301.5,218.5C 299.547,219.761 297.547,220.927 295.5,222C 297.5,222.333 299.5,222.667 301.5,223C 296.72,223.811 294.72,226.645 295.5,231.5C 291.78,231.609 288.446,232.775 285.5,235C 286.973,235.71 287.64,236.876 287.5,238.5C 285.585,238.216 283.919,238.549 282.5,239.5 Z"/></g>
<g><path style="opacity:1" fill="#ebcf01" d="M 551.5,222.5 C 556.833,222.5 562.167,222.5 567.5,222.5C 567.5,228.167 567.5,233.833 567.5,239.5C 566.448,239.351 565.448,239.517 564.5,240C 566.5,240.333 568.5,240.667 570.5,241C 568.68,241.2 567.347,242.034 566.5,243.5C 560.173,244.724 553.84,244.724 547.5,243.5C 548.23,241.955 549.563,241.122 551.5,241C 544.809,240.665 538.143,240.165 531.5,239.5C 531.167,228.833 530.833,228.833 530.5,239.5C 528.5,239.5 526.5,239.5 524.5,239.5C 524.5,236.833 524.5,234.167 524.5,231.5C 526.167,231.5 527.833,231.5 529.5,231.5C 529.5,228.833 529.5,226.167 529.5,223.5C 536.799,222.65 544.132,222.317 551.5,222.5 Z"/></g>
<g><path style="opacity:1" fill="#e2d006" d="M 651.5,189.5 C 651.918,190.222 652.584,190.722 653.5,191C 650.545,192.448 648.545,194.615 647.5,197.5C 650.004,198.639 652.67,199.306 655.5,199.5C 655.5,202.167 655.5,204.833 655.5,207.5C 652.833,207.5 650.167,207.5 647.5,207.5C 647.183,210.572 647.516,213.572 648.5,216.5C 649.5,217 650.5,217.5 651.5,218C 644.6,221.529 637.6,225.029 630.5,228.5C 629.614,229.325 629.281,230.325 629.5,231.5C 609.403,239.585 588.403,243.585 566.5,243.5C 567.347,242.034 568.68,241.2 570.5,241C 568.5,240.667 566.5,240.333 564.5,240C 565.448,239.517 566.448,239.351 567.5,239.5C 567.5,233.833 567.5,228.167 567.5,222.5C 562.167,222.5 556.833,222.5 551.5,222.5C 551.833,221.833 552.167,221.167 552.5,220.5C 581.915,221.267 609.582,214.767 635.5,201C 640.712,196.948 646.045,193.115 651.5,189.5 Z"/></g>
<g><path style="opacity:1" fill="#ff9f8c" d="M 161.5,225.5 C 168.454,229.257 175.787,232.424 183.5,235C 191.566,237.186 199.566,239.019 207.5,240.5C 207.5,241.167 207.167,241.5 206.5,241.5C 184.741,239.248 164.741,232.248 146.5,220.5C 146.369,219.624 146.702,218.957 147.5,218.5C 152.181,220.858 156.847,223.191 161.5,225.5 Z"/></g>
<g><path style="opacity:1" fill="#f2ca06" d="M 552.5,220.5 C 552.167,221.167 551.833,221.833 551.5,222.5C 544.132,222.317 536.799,222.65 529.5,223.5C 529.5,226.167 529.5,228.833 529.5,231.5C 527.833,231.5 526.167,231.5 524.5,231.5C 524.5,234.167 524.5,236.833 524.5,239.5C 526.5,239.5 528.5,239.5 530.5,239.5C 530.833,228.833 531.167,228.833 531.5,239.5C 538.143,240.165 544.809,240.665 551.5,241C 549.563,241.122 548.23,241.955 547.5,243.5C 531.473,242.775 515.473,241.942 499.5,241C 508.193,252.204 518.527,261.371 530.5,268.5C 528.192,269.037 525.859,268.537 523.5,267C 519.487,263.909 515.487,260.909 511.5,258C 509.527,257.505 507.527,257.338 505.5,257.5C 503.893,261.941 503.226,266.608 503.5,271.5C 499.944,271.275 499.61,272.108 502.5,274C 502.095,274.945 501.428,275.612 500.5,276C 504.089,277.914 507.422,280.248 510.5,283C 509.956,283.717 509.289,284.217 508.5,284.5C 489.452,271.615 475.286,254.615 466,233.5C 463.901,224.883 466.401,218.05 473.5,213C 476,212.833 478.5,212.667 481,212.5C 504.915,215.74 528.749,218.406 552.5,220.5 Z"/></g>
<g><path style="opacity:1" fill="#ff9f8d" d="M 116.5,232.5 C 133.092,254.817 155.092,269.15 182.5,275.5C 182.833,276.167 183.167,276.833 183.5,277.5C 182.833,277.5 182.167,277.5 181.5,277.5C 156.086,271.842 135.086,259.175 118.5,239.5C 116.287,237.458 115.62,235.125 116.5,232.5 Z"/></g>
<g><path style="opacity:1" fill="#ffab72" d="M 239.5,281.5 C 224.822,282.889 210.156,282.722 195.5,281C 191.291,280.119 187.291,278.953 183.5,277.5C 183.167,276.833 182.833,276.167 182.5,275.5C 187.893,276.352 193.226,277.519 198.5,279C 239.125,285.999 272.125,273.499 297.5,241.5C 296.5,241.167 295.5,240.833 294.5,240.5C 266.929,244.438 239.262,245.271 211.5,243C 209.618,242.802 207.952,242.302 206.5,241.5C 207.167,241.5 207.5,241.167 207.5,240.5C 210.167,240.5 212.833,240.5 215.5,240.5C 222.807,241.641 230.307,242.308 238,242.5C 252.857,241.769 267.691,240.769 282.5,239.5C 289.51,238.774 296.51,238.274 303.5,238C 287.692,260.643 266.359,275.143 239.5,281.5 Z"/></g>
<g><path style="opacity:1" fill="#ffb7a5" d="M 118.5,239.5 C 135.086,259.175 156.086,271.842 181.5,277.5C 181.082,278.222 180.416,278.722 179.5,279C 175.514,279.499 171.514,279.666 167.5,279.5C 167.5,281.5 167.5,283.5 167.5,285.5C 164.753,285.187 162.086,285.52 159.5,286.5C 160.376,287.251 161.376,287.751 162.5,288C 158.936,288.727 158.602,290.227 161.5,292.5C 157.927,291.712 154.594,290.379 151.5,288.5C 150.287,288.747 149.62,289.414 149.5,290.5C 148.508,290.672 147.842,290.338 147.5,289.5C 147.586,288.504 147.252,287.671 146.5,287C 137.532,282.181 128.865,276.848 120.5,271C 114.61,266.275 109.277,261.108 104.5,255.5C 103.833,254.167 103.167,252.833 102.5,251.5C 102.775,249.158 103.608,249.158 105,251.5C 106.699,250.594 108.533,250.261 110.5,250.5C 110.34,252.199 110.506,253.866 111,255.5C 111.483,254.552 111.649,253.552 111.5,252.5C 114.187,252.664 116.854,252.497 119.5,252C 122.974,248.644 122.308,246.81 117.5,246.5C 119.276,245.685 119.943,244.518 119.5,243C 116.347,242.116 116.014,240.95 118.5,239.5 Z"/></g>
<g><path style="opacity:1" fill="#ffa18c" d="M 104.5,255.5 C 109.277,261.108 114.61,266.275 120.5,271C 128.865,276.848 137.532,282.181 146.5,287C 147.252,287.671 147.586,288.504 147.5,289.5C 129.855,282.357 115.188,271.357 103.5,256.5C 103.5,255.833 103.833,255.5 104.5,255.5 Z"/></g>
<g><path style="opacity:1" fill="#ddd307" d="M 651.5,288.5 C 624.981,301.587 596.981,306.92 567.5,304.5C 567.369,303.624 567.702,302.957 568.5,302.5C 570.661,301.965 572.661,301.132 574.5,300C 577.475,299.956 580.475,300.123 583.5,300.5C 583.67,299.178 583.337,298.011 582.5,297C 583.872,296.598 585.205,296.098 586.5,295.5C 587.48,292.914 587.813,290.247 587.5,287.5C 588.873,287.657 590.207,287.49 591.5,287C 583.954,284.383 583.954,283.216 591.5,283.5C 591.5,282.5 591.5,281.5 591.5,280.5C 600.787,278.849 610.121,276.849 619.5,274.5C 619.389,275.117 619.056,275.617 618.5,276C 623.438,276.061 628.272,275.227 633,273.5C 634.762,273.944 634.595,274.444 632.5,275C 634.888,275.303 637.055,276.137 639,277.5C 640.033,274.783 639.2,272.949 636.5,272C 642.684,268.408 649.018,265.074 655.5,262C 660.575,257.713 665.742,253.547 671,249.5C 671.286,253.945 671.453,258.612 671.5,263.5C 670.5,263.5 669.5,263.5 668.5,263.5C 668.664,266.187 668.497,268.854 668,271.5C 666.644,272.38 665.144,272.714 663.5,272.5C 663.244,274.792 663.577,276.959 664.5,279C 660.593,281.521 656.593,283.855 652.5,286C 651.748,286.671 651.414,287.504 651.5,288.5 Z"/></g>
<g><path style="opacity:1" fill="#ffbd9a" d="M 181.5,277.5 C 182.167,277.5 182.833,277.5 183.5,277.5C 187.291,278.953 191.291,280.119 195.5,281C 210.156,282.722 224.822,282.889 239.5,281.5C 242.167,281.5 244.833,281.5 247.5,281.5C 247.5,282.833 247.5,284.167 247.5,285.5C 246.127,285.657 244.793,285.49 243.5,285C 244.167,284.667 244.833,284.333 245.5,284C 242.196,284.041 238.863,284.374 235.5,285C 236.833,285.333 238.167,285.667 239.5,286C 236.833,286.667 236.833,287.333 239.5,288C 236.854,288.497 234.187,288.664 231.5,288.5C 232.825,295.17 230.158,297.836 223.5,296.5C 223.5,297.5 223.5,298.5 223.5,299.5C 219.727,299.263 216.06,299.763 212.5,301C 213.737,301.232 214.737,301.732 215.5,302.5C 196.941,302.185 178.941,298.851 161.5,292.5C 158.602,290.227 158.936,288.727 162.5,288C 161.376,287.751 160.376,287.251 159.5,286.5C 162.086,285.52 164.753,285.187 167.5,285.5C 167.5,283.5 167.5,281.5 167.5,279.5C 171.514,279.666 175.514,279.499 179.5,279C 180.416,278.722 181.082,278.222 181.5,277.5 Z"/></g>
<g><path style="opacity:1" fill="#e6d005" d="M 530.5,268.5 C 549.569,278.38 569.903,282.38 591.5,280.5C 591.5,281.5 591.5,282.5 591.5,283.5C 583.954,283.216 583.954,284.383 591.5,287C 590.207,287.49 588.873,287.657 587.5,287.5C 587.813,290.247 587.48,292.914 586.5,295.5C 585.205,296.098 583.872,296.598 582.5,297C 583.337,298.011 583.67,299.178 583.5,300.5C 580.475,300.123 577.475,299.956 574.5,300C 572.661,301.132 570.661,301.965 568.5,302.5C 567.702,302.957 567.369,303.624 567.5,304.5C 545.846,303.394 526.18,296.727 508.5,284.5C 509.289,284.217 509.956,283.717 510.5,283C 507.422,280.248 504.089,277.914 500.5,276C 501.428,275.612 502.095,274.945 502.5,274C 499.61,272.108 499.944,271.275 503.5,271.5C 503.226,266.608 503.893,261.941 505.5,257.5C 507.527,257.338 509.527,257.505 511.5,258C 515.487,260.909 519.487,263.909 523.5,267C 525.859,268.537 528.192,269.037 530.5,268.5 Z"/></g>
<g><path style="opacity:1" fill="#ffad58" d="M 329.5,218.5 C 333.397,226.066 333.23,233.733 329,241.5C 304.471,283.024 267.971,304.357 219.5,305.5C 223.232,303.869 227.232,302.869 231.5,302.5C 273.858,297.286 305.691,276.286 327,239.5C 330.8,233.386 331.3,227.052 328.5,220.5C 328.863,219.817 329.196,219.15 329.5,218.5 Z"/></g>
<g><path style="opacity:1" fill="#ffac7a" d="M 161.5,292.5 C 178.941,298.851 196.941,302.185 215.5,302.5C 220.833,302.5 226.167,302.5 231.5,302.5C 227.232,302.869 223.232,303.869 219.5,305.5C 195.084,305.351 171.751,300.351 149.5,290.5C 149.62,289.414 150.287,288.747 151.5,288.5C 154.594,290.379 157.927,291.712 161.5,292.5 Z"/></g>
<g><path style="opacity:1" fill="#ffc377" d="M 242.5,317.5 C 249.36,316.39 256.36,316.557 263.5,318C 271.053,319.553 278.386,321.72 285.5,324.5C 288.204,326.171 290.871,327.837 293.5,329.5C 293.611,330.117 293.944,330.617 294.5,331C 292.105,331.681 289.772,332.515 287.5,333.5C 288.025,334.192 288.692,334.692 289.5,335C 286.183,335.498 282.85,335.665 279.5,335.5C 279.5,337.167 279.5,338.833 279.5,340.5C 276.833,340.5 274.167,340.5 271.5,340.5C 271.5,344.167 271.5,347.833 271.5,351.5C 266.167,351.5 260.833,351.5 255.5,351.5C 255.5,354.167 255.5,356.833 255.5,359.5C 252.833,359.5 250.167,359.5 247.5,359.5C 247.5,362.167 247.5,364.833 247.5,367.5C 244.833,367.5 242.167,367.5 239.5,367.5C 239.806,370.385 239.473,373.052 238.5,375.5C 238.5,365.5 238.5,355.5 238.5,345.5C 236.265,345.205 234.265,345.539 232.5,346.5C 228.57,348.048 224.903,347.715 221.5,345.5C 224.584,343.899 227.917,343.232 231.5,343.5C 231.5,341.833 231.5,340.167 231.5,338.5C 234.167,338.5 236.833,338.5 239.5,338.5C 239.5,335.833 239.5,333.167 239.5,330.5C 242.167,330.5 244.833,330.5 247.5,330.5C 247.5,328.5 247.5,326.5 247.5,324.5C 250.167,324.5 252.833,324.5 255.5,324.5C 255.838,321.675 254.838,319.508 252.5,318C 249.183,317.502 245.85,317.335 242.5,317.5 Z"/></g>
<g><path style="opacity:1" fill="#e8d002" d="M 534.5,315.5 C 534.586,316.496 534.252,317.329 533.5,318C 535.344,320.804 536.011,323.97 535.5,327.5C 534.5,327.5 533.5,327.5 532.5,327.5C 532.5,328.5 532.5,329.5 532.5,330.5C 530.833,330.5 529.167,330.5 527.5,330.5C 527.5,334.833 527.5,339.167 527.5,343.5C 524.833,343.5 522.167,343.5 519.5,343.5C 519.5,347.167 519.5,350.833 519.5,354.5C 516.753,354.187 514.086,354.52 511.5,355.5C 515.193,357.42 515.193,358.753 511.5,359.5C 511.5,362.167 511.5,364.833 511.5,367.5C 508.833,367.5 506.167,367.5 503.5,367.5C 503.5,370.167 503.5,372.833 503.5,375.5C 500.833,375.5 498.167,375.5 495.5,375.5C 495.5,379.167 495.5,382.833 495.5,386.5C 492.833,386.5 490.167,386.5 487.5,386.5C 487.5,390.833 487.5,395.167 487.5,399.5C 486.5,399.5 485.5,399.5 484.5,399.5C 484.657,398.127 484.49,396.793 484,395.5C 480.922,397.736 479.422,400.736 479.5,404.5C 476.833,404.5 474.167,404.5 471.5,404.5C 471.5,407.167 471.5,409.833 471.5,412.5C 468.813,412.336 466.146,412.503 463.5,413C 462.692,413.308 462.025,413.808 461.5,414.5C 463.223,416.868 463.89,419.534 463.5,422.5C 460.833,422.5 458.167,422.5 455.5,422.5C 455.5,425.5 455.5,428.5 455.5,431.5C 452.833,431.5 450.167,431.5 447.5,431.5C 447.5,434.167 447.5,436.833 447.5,439.5C 444.833,439.5 442.167,439.5 439.5,439.5C 439.5,442.167 439.5,444.833 439.5,447.5C 436.167,447.5 432.833,447.5 429.5,447.5C 429.708,449.92 429.374,452.253 428.5,454.5C 428.833,454.833 429.167,455.167 429.5,455.5C 430.251,454.624 430.751,453.624 431,452.5C 430.952,462.801 429.452,462.968 426.5,453C 429.545,434.783 434.878,417.45 442.5,401C 442.257,400.098 441.923,399.265 441.5,398.5C 455.348,363.357 479.348,337.524 513.5,321C 520.389,318.646 527.389,316.813 534.5,315.5 Z"/></g>
<g><path style="opacity:1" fill="#e3d206" d="M 560.5,368.5 C 559.069,368.881 558.236,369.881 558,371.5C 557.007,367.558 556.34,363.558 556,359.5C 555.833,372.846 555.333,386.179 554.5,399.5C 552.46,391.208 552.127,382.875 553.5,374.5C 552.011,369.354 551.344,369.687 551.5,375.5C 549.833,375.5 548.167,375.5 546.5,375.5C 546.5,378.167 546.5,380.833 546.5,383.5C 544.801,383.34 543.134,383.506 541.5,384C 543.278,386.135 543.945,388.635 543.5,391.5C 540.635,391.945 538.135,391.278 536,389.5C 535.502,392.817 535.335,396.15 535.5,399.5C 532.833,399.5 530.167,399.5 527.5,399.5C 527.5,402.167 527.5,404.833 527.5,407.5C 525.833,407.5 524.167,407.5 522.5,407.5C 522.5,410.167 522.5,412.833 522.5,415.5C 521.5,415.5 520.5,415.5 519.5,415.5C 519.5,418.167 519.5,420.833 519.5,423.5C 516.833,423.5 514.167,423.5 511.5,423.5C 511.5,426.167 511.5,428.833 511.5,431.5C 508.833,431.5 506.167,431.5 503.5,431.5C 503.5,434.167 503.5,436.833 503.5,439.5C 500.833,439.5 498.167,439.5 495.5,439.5C 495.5,443.167 495.5,446.833 495.5,450.5C 492.833,450.5 490.167,450.5 487.5,450.5C 487.5,453.167 487.5,455.833 487.5,458.5C 484.833,458.5 482.167,458.5 479.5,458.5C 479.5,461.167 479.5,463.833 479.5,466.5C 476.833,466.5 474.167,466.5 471.5,466.5C 471.5,469.167 471.5,471.833 471.5,474.5C 468.833,474.5 466.167,474.5 463.5,474.5C 463.5,477.167 463.5,479.833 463.5,482.5C 460.833,482.5 458.167,482.5 455.5,482.5C 455.5,485.167 455.5,487.833 455.5,490.5C 452.833,490.5 450.167,490.5 447.5,490.5C 447.5,493.167 447.5,495.833 447.5,498.5C 444.833,498.5 442.167,498.5 439.5,498.5C 439.5,500.167 439.5,501.833 439.5,503.5C 436.833,503.5 434.167,503.5 431.5,503.5C 431.649,502.448 431.483,501.448 431,500.5C 430.068,502.766 428.734,504.766 427,506.5C 426.441,502.814 425.774,499.147 425,495.5C 424.727,484.876 424.227,474.543 423.5,464.5C 425.258,441.242 431.258,419.242 441.5,398.5C 441.923,399.265 442.257,400.098 442.5,401C 434.878,417.45 429.545,434.783 426.5,453C 429.452,462.968 430.952,462.801 431,452.5C 430.751,453.624 430.251,454.624 429.5,455.5C 429.167,455.167 428.833,454.833 428.5,454.5C 429.374,452.253 429.708,449.92 429.5,447.5C 432.833,447.5 436.167,447.5 439.5,447.5C 439.5,444.833 439.5,442.167 439.5,439.5C 442.167,439.5 444.833,439.5 447.5,439.5C 447.5,436.833 447.5,434.167 447.5,431.5C 450.167,431.5 452.833,431.5 455.5,431.5C 455.5,428.5 455.5,425.5 455.5,422.5C 458.167,422.5 460.833,422.5 463.5,422.5C 463.89,419.534 463.223,416.868 461.5,414.5C 462.025,413.808 462.692,413.308 463.5,413C 466.146,412.503 468.813,412.336 471.5,412.5C 471.5,409.833 471.5,407.167 471.5,404.5C 474.167,404.5 476.833,404.5 479.5,404.5C 479.422,400.736 480.922,397.736 484,395.5C 484.49,396.793 484.657,398.127 484.5,399.5C 485.5,399.5 486.5,399.5 487.5,399.5C 487.5,395.167 487.5,390.833 487.5,386.5C 490.167,386.5 492.833,386.5 495.5,386.5C 495.5,382.833 495.5,379.167 495.5,375.5C 498.167,375.5 500.833,375.5 503.5,375.5C 503.5,372.833 503.5,370.167 503.5,367.5C 506.167,367.5 508.833,367.5 511.5,367.5C 511.5,364.833 511.5,362.167 511.5,359.5C 515.193,358.753 515.193,357.42 511.5,355.5C 514.086,354.52 516.753,354.187 519.5,354.5C 519.5,350.833 519.5,347.167 519.5,343.5C 522.167,343.5 524.833,343.5 527.5,343.5C 527.5,339.167 527.5,334.833 527.5,330.5C 529.167,330.5 530.833,330.5 532.5,330.5C 532.5,329.5 532.5,328.5 532.5,327.5C 533.5,327.5 534.5,327.5 535.5,327.5C 536.011,323.97 535.344,320.804 533.5,318C 534.252,317.329 534.586,316.496 534.5,315.5C 549.221,313.317 563.555,314.817 577.5,320C 579.917,321.663 581.75,323.829 583,326.5C 586.158,345.016 578.825,352.016 561,347.5C 560.5,354.492 560.334,361.492 560.5,368.5 Z"/></g>
<g><path style="opacity:1" fill="#ffc186" d="M 242.5,317.5 C 245.85,317.335 249.183,317.502 252.5,318C 254.838,319.508 255.838,321.675 255.5,324.5C 252.833,324.5 250.167,324.5 247.5,324.5C 247.5,326.5 247.5,328.5 247.5,330.5C 244.833,330.5 242.167,330.5 239.5,330.5C 239.5,333.167 239.5,335.833 239.5,338.5C 236.833,338.5 234.167,338.5 231.5,338.5C 231.5,340.167 231.5,341.833 231.5,343.5C 227.917,343.232 224.584,343.899 221.5,345.5C 214.65,340.096 213.15,333.43 217,325.5C 219.441,323.031 222.274,321.198 225.5,320C 231.129,318.84 236.796,318.007 242.5,317.5 Z"/></g>
<g><path style="opacity:1" fill="#ffc464" d="M 293.5,329.5 C 299.149,333.14 304.816,336.807 310.5,340.5C 310.047,341.458 309.381,342.292 308.5,343C 309.624,343.249 310.624,343.749 311.5,344.5C 308.914,345.48 306.247,345.813 303.5,345.5C 303.5,346.833 303.5,348.167 303.5,349.5C 300.833,349.5 298.167,349.5 295.5,349.5C 295.5,352.167 295.5,354.833 295.5,357.5C 292.833,357.5 290.167,357.5 287.5,357.5C 287.5,359.5 287.5,361.5 287.5,363.5C 284.833,363.5 282.167,363.5 279.5,363.5C 279.5,366.167 279.5,368.833 279.5,371.5C 276.833,371.5 274.167,371.5 271.5,371.5C 271.5,372.833 271.5,374.167 271.5,375.5C 268.833,375.5 266.167,375.5 263.5,375.5C 263.5,377.5 263.5,379.5 263.5,381.5C 260.833,381.5 258.167,381.5 255.5,381.5C 255.5,383.5 255.5,385.5 255.5,387.5C 252.833,387.5 250.167,387.5 247.5,387.5C 247.5,388.833 247.5,390.167 247.5,391.5C 244.833,391.5 242.167,391.5 239.5,391.5C 239.806,394.385 239.473,397.052 238.5,399.5C 238.5,391.5 238.5,383.5 238.5,375.5C 239.473,373.052 239.806,370.385 239.5,367.5C 242.167,367.5 244.833,367.5 247.5,367.5C 247.5,364.833 247.5,362.167 247.5,359.5C 250.167,359.5 252.833,359.5 255.5,359.5C 255.5,356.833 255.5,354.167 255.5,351.5C 260.833,351.5 266.167,351.5 271.5,351.5C 271.5,347.833 271.5,344.167 271.5,340.5C 274.167,340.5 276.833,340.5 279.5,340.5C 279.5,338.833 279.5,337.167 279.5,335.5C 282.85,335.665 286.183,335.498 289.5,335C 288.692,334.692 288.025,334.192 287.5,333.5C 289.772,332.515 292.105,331.681 294.5,331C 293.944,330.617 293.611,330.117 293.5,329.5 Z"/></g>
<g><path style="opacity:1" fill="#f5c20f" d="M 394.5,259.5 C 396.144,259.286 397.644,259.62 399,260.5C 401.153,266.775 403.153,273.108 405,279.5C 408.441,288.15 414.608,293.983 423.5,297C 428.735,298.745 434.068,300.079 439.5,301C 444.226,301.55 445.226,303.55 442.5,307C 429.001,307.935 417.501,313.102 408,322.5C 403.924,331.133 400.924,340.133 399,349.5C 396.546,351.013 394.879,350.346 394,347.5C 391.725,322.225 377.891,308.725 352.5,307C 350.86,304.224 351.527,302.224 354.5,301C 379.887,298.78 393.22,284.947 394.5,259.5 Z"/></g>
<g><path style="opacity:1" fill="#fec636" d="M 402.5,280.5 C 403.924,284.76 405.924,288.76 408.5,292.5C 407.619,293.971 406.286,294.804 404.5,295C 405.448,295.483 406.448,295.649 407.5,295.5C 407.5,298.167 407.5,300.833 407.5,303.5C 404.833,303.5 402.167,303.5 399.5,303.5C 399.5,306.167 399.5,308.833 399.5,311.5C 396.833,311.5 394.167,311.5 391.5,311.5C 390.763,314.238 390.763,316.905 391.5,319.5C 391.444,320.737 390.944,321.737 390,322.5C 388.022,320.254 387.022,317.921 387,315.5C 386.667,315.833 386.333,316.167 386,316.5C 382.349,313.693 378.516,311.36 374.5,309.5C 375.043,309.44 375.376,309.107 375.5,308.5C 370.401,306.782 370.401,305.449 375.5,304.5C 378.49,305.576 381.157,304.909 383.5,302.5C 382.975,301.808 382.308,301.308 381.5,301C 387.443,298.472 393.609,296.639 400,295.5C 400,290.167 400,284.833 400,279.5C 400.342,281.619 401.175,281.953 402.5,280.5 Z"/></g>
<g><path style="opacity:1" fill="#fec648" d="M 402.5,280.5 C 401.175,281.953 400.342,281.619 400,279.5C 400,284.833 400,290.167 400,295.5C 393.609,296.639 387.443,298.472 381.5,301C 382.308,301.308 382.975,301.808 383.5,302.5C 381.157,304.909 378.49,305.576 375.5,304.5C 370.401,305.449 370.401,306.782 375.5,308.5C 375.376,309.107 375.043,309.44 374.5,309.5C 367.8,307.764 361.133,306.097 354.5,304.5C 362.777,301.941 371.11,299.441 379.5,297C 383.85,294.314 387.183,290.647 389.5,286C 393.002,278.491 395.502,270.658 397,262.5C 398.396,268.655 400.229,274.655 402.5,280.5 Z"/></g>
<g><path style="opacity:1" fill="#ffaf5a" d="M 286.5,322.5 C 286.167,323.167 285.833,323.833 285.5,324.5C 278.386,321.72 271.053,319.553 263.5,318C 256.36,316.557 249.36,316.39 242.5,317.5C 236.796,318.007 231.129,318.84 225.5,320C 222.274,321.198 219.441,323.031 217,325.5C 213.15,333.43 214.65,340.096 221.5,345.5C 224.903,347.715 228.57,348.048 232.5,346.5C 232.328,347.492 232.662,348.158 233.5,348.5C 220.201,352.165 213.201,346.999 212.5,333C 212.76,326.462 215.76,321.795 221.5,319C 243.615,312.278 265.282,313.445 286.5,322.5 Z"/></g>
<g><path style="opacity:1" fill="#fec558" d="M 310.5,340.5 C 311.272,341.694 312.272,342.694 313.5,343.5C 313.668,347.138 313.001,350.805 311.5,354.5C 308.833,354.833 306.167,355.167 303.5,355.5C 303.5,359.167 303.5,362.833 303.5,366.5C 300.833,366.5 298.167,366.5 295.5,366.5C 295.5,369.5 295.5,372.5 295.5,375.5C 292.833,375.5 290.167,375.5 287.5,375.5C 287.5,378.167 287.5,380.833 287.5,383.5C 282.167,383.5 276.833,383.5 271.5,383.5C 271.5,386.167 271.5,388.833 271.5,391.5C 268.833,391.5 266.167,391.5 263.5,391.5C 263.5,394.167 263.5,396.833 263.5,399.5C 258.167,399.5 252.833,399.5 247.5,399.5C 247.5,401.833 247.5,404.167 247.5,406.5C 244.833,406.5 242.167,406.5 239.5,406.5C 239.768,404.901 239.434,403.568 238.5,402.5C 238.5,401.5 238.5,400.5 238.5,399.5C 239.473,397.052 239.806,394.385 239.5,391.5C 242.167,391.5 244.833,391.5 247.5,391.5C 247.5,390.167 247.5,388.833 247.5,387.5C 250.167,387.5 252.833,387.5 255.5,387.5C 255.5,385.5 255.5,383.5 255.5,381.5C 258.167,381.5 260.833,381.5 263.5,381.5C 263.5,379.5 263.5,377.5 263.5,375.5C 266.167,375.5 268.833,375.5 271.5,375.5C 271.5,374.167 271.5,372.833 271.5,371.5C 274.167,371.5 276.833,371.5 279.5,371.5C 279.5,368.833 279.5,366.167 279.5,363.5C 282.167,363.5 284.833,363.5 287.5,363.5C 287.5,361.5 287.5,359.5 287.5,357.5C 290.167,357.5 292.833,357.5 295.5,357.5C 295.5,354.833 295.5,352.167 295.5,349.5C 298.167,349.5 300.833,349.5 303.5,349.5C 303.5,348.167 303.5,346.833 303.5,345.5C 306.247,345.813 308.914,345.48 311.5,344.5C 310.624,343.749 309.624,343.249 308.5,343C 309.381,342.292 310.047,341.458 310.5,340.5 Z"/></g>
<g><path style="opacity:1" fill="#fac41b" d="M 286.5,322.5 C 313.855,335.855 334.188,356.188 347.5,383.5C 346.504,383.586 345.671,383.252 345,382.5C 344.517,383.448 344.351,384.448 344.5,385.5C 341.5,385.5 338.5,385.5 335.5,385.5C 335.5,388.167 335.5,390.833 335.5,393.5C 332.833,393.5 330.167,393.5 327.5,393.5C 327.5,395.5 327.5,397.5 327.5,399.5C 324.833,399.5 322.167,399.5 319.5,399.5C 319.5,400.833 319.5,402.167 319.5,403.5C 316.833,403.5 314.167,403.5 311.5,403.5C 311.5,406.167 311.5,408.833 311.5,411.5C 308.833,411.5 306.167,411.5 303.5,411.5C 303.5,413.5 303.5,415.5 303.5,417.5C 300.833,417.5 298.167,417.5 295.5,417.5C 295.5,418.833 295.5,420.167 295.5,421.5C 292.833,421.5 290.167,421.5 287.5,421.5C 287.5,423.5 287.5,425.5 287.5,427.5C 284.833,427.5 282.167,427.5 279.5,427.5C 279.5,429.5 279.5,431.5 279.5,433.5C 276.833,433.5 274.167,433.5 271.5,433.5C 271.5,434.833 271.5,436.167 271.5,437.5C 268.833,437.5 266.167,437.5 263.5,437.5C 263.5,439.5 263.5,441.5 263.5,443.5C 260.833,443.5 258.167,443.5 255.5,443.5C 255.5,444.833 255.5,446.167 255.5,447.5C 252.833,447.5 250.167,447.5 247.5,447.5C 247.5,448.833 247.5,450.167 247.5,451.5C 244.833,451.5 242.167,451.5 239.5,451.5C 239.879,448.433 238.879,447.433 236.5,448.5C 236.5,415.167 236.5,381.833 236.5,348.5C 235.5,348.5 234.5,348.5 233.5,348.5C 232.662,348.158 232.328,347.492 232.5,346.5C 234.265,345.539 236.265,345.205 238.5,345.5C 238.5,355.5 238.5,365.5 238.5,375.5C 238.5,383.5 238.5,391.5 238.5,399.5C 238.5,400.5 238.5,401.5 238.5,402.5C 238.327,411.195 238.66,419.862 239.5,428.5C 239.5,432.167 239.5,435.833 239.5,439.5C 242.167,439.5 244.833,439.5 247.5,439.5C 247.5,438.5 247.5,437.5 247.5,436.5C 250.167,436.5 252.833,436.5 255.5,436.5C 255.5,434.833 255.5,433.167 255.5,431.5C 258.167,431.5 260.833,431.5 263.5,431.5C 263.5,428.833 263.5,426.167 263.5,423.5C 268.833,423.5 274.167,423.5 279.5,423.5C 279.5,420.833 279.5,418.167 279.5,415.5C 282.167,415.5 284.833,415.5 287.5,415.5C 287.5,413.833 287.5,412.167 287.5,410.5C 290.167,410.5 292.833,410.5 295.5,410.5C 295.5,409.5 295.5,408.5 295.5,407.5C 298.167,407.5 300.833,407.5 303.5,407.5C 303.5,404.833 303.5,402.167 303.5,399.5C 306.167,399.5 308.833,399.5 311.5,399.5C 311.5,396.833 311.5,394.167 311.5,391.5C 314.167,391.5 316.833,391.5 319.5,391.5C 319.5,388.833 319.5,386.167 319.5,383.5C 322.167,383.5 324.833,383.5 327.5,383.5C 327.5,381.833 327.5,380.167 327.5,378.5C 330.167,378.5 332.833,378.5 335.5,378.5C 335.272,376.645 335.939,375.812 337.5,376C 338.308,378.088 339.308,380.088 340.5,382C 340.167,382.333 339.833,382.667 339.5,383C 340.5,383.667 341.5,383.667 342.5,383C 341.751,381.266 341.251,379.433 341,377.5C 338.513,374.858 336.679,371.858 335.5,368.5C 328.853,359.523 321.52,351.189 313.5,343.5C 312.272,342.694 311.272,341.694 310.5,340.5C 304.816,336.807 299.149,333.14 293.5,329.5C 290.871,327.837 288.204,326.171 285.5,324.5C 285.833,323.833 286.167,323.167 286.5,322.5 Z"/></g>
<g><path style="opacity:1" fill="#fec646" d="M 313.5,343.5 C 321.52,351.189 328.853,359.523 335.5,368.5C 332.833,368.5 330.167,368.5 327.5,368.5C 327.5,369.833 327.5,371.167 327.5,372.5C 324.833,372.5 322.167,372.5 319.5,372.5C 319.5,375.167 319.5,377.833 319.5,380.5C 316.833,380.5 314.167,380.5 311.5,380.5C 311.5,382.5 311.5,384.5 311.5,386.5C 308.833,386.5 306.167,386.5 303.5,386.5C 303.5,388.5 303.5,390.5 303.5,392.5C 300.833,392.5 298.167,392.5 295.5,392.5C 295.5,395.167 295.5,397.833 295.5,400.5C 292.833,400.5 290.167,400.5 287.5,400.5C 287.5,401.833 287.5,403.167 287.5,404.5C 284.833,404.5 282.167,404.5 279.5,404.5C 279.5,406.5 279.5,408.5 279.5,410.5C 276.833,410.5 274.167,410.5 271.5,410.5C 271.5,412.5 271.5,414.5 271.5,416.5C 268.833,416.5 266.167,416.5 263.5,416.5C 263.5,417.833 263.5,419.167 263.5,420.5C 260.833,420.5 258.167,420.5 255.5,420.5C 255.5,421.833 255.5,423.167 255.5,424.5C 252.833,424.5 250.167,424.5 247.5,424.5C 247.5,425.833 247.5,427.167 247.5,428.5C 244.833,428.5 242.167,428.5 239.5,428.5C 238.66,419.862 238.327,411.195 238.5,402.5C 239.434,403.568 239.768,404.901 239.5,406.5C 242.167,406.5 244.833,406.5 247.5,406.5C 247.5,404.167 247.5,401.833 247.5,399.5C 252.833,399.5 258.167,399.5 263.5,399.5C 263.5,396.833 263.5,394.167 263.5,391.5C 266.167,391.5 268.833,391.5 271.5,391.5C 271.5,388.833 271.5,386.167 271.5,383.5C 276.833,383.5 282.167,383.5 287.5,383.5C 287.5,380.833 287.5,378.167 287.5,375.5C 290.167,375.5 292.833,375.5 295.5,375.5C 295.5,372.5 295.5,369.5 295.5,366.5C 298.167,366.5 300.833,366.5 303.5,366.5C 303.5,362.833 303.5,359.167 303.5,355.5C 306.167,355.167 308.833,354.833 311.5,354.5C 313.001,350.805 313.668,347.138 313.5,343.5 Z"/></g>
<g><path style="opacity:1" fill="#fac905" d="M 347.5,383.5 C 348.974,384.436 349.974,385.77 350.5,387.5C 348.442,388.933 348.608,390.599 351,392.5C 352.124,395.442 352.458,398.442 352,401.5C 351.667,400.167 351.333,398.833 351,397.5C 348.667,400.167 346.333,400.167 344,397.5C 343.502,400.817 343.335,404.15 343.5,407.5C 340.833,407.5 338.167,407.5 335.5,407.5C 335.5,409.167 335.5,410.833 335.5,412.5C 332.833,412.5 330.167,412.5 327.5,412.5C 327.5,415.167 327.5,417.833 327.5,420.5C 324.833,420.5 322.167,420.5 319.5,420.5C 319.5,422.5 319.5,424.5 319.5,426.5C 316.833,426.5 314.167,426.5 311.5,426.5C 311.5,428.167 311.5,429.833 311.5,431.5C 308.833,431.5 306.167,431.5 303.5,431.5C 303.5,433.167 303.5,434.833 303.5,436.5C 300.833,436.5 298.167,436.5 295.5,436.5C 295.5,439.167 295.5,441.833 295.5,444.5C 292.833,444.5 290.167,444.5 287.5,444.5C 287.5,445.5 287.5,446.5 287.5,447.5C 284.833,447.5 282.167,447.5 279.5,447.5C 279.5,449.167 279.5,450.833 279.5,452.5C 276.833,452.5 274.167,452.5 271.5,452.5C 271.5,454.5 271.5,456.5 271.5,458.5C 268.833,458.5 266.167,458.5 263.5,458.5C 263.5,460.5 263.5,462.5 263.5,464.5C 258.195,463.558 252.861,463.391 247.5,464C 258.107,464.856 258.107,466.022 247.5,467.5C 249.078,468.298 250.744,468.798 252.5,469C 251.5,469.333 250.5,469.667 249.5,470C 250.571,470.852 251.571,471.685 252.5,472.5C 249.36,473.641 246.027,473.808 242.5,473C 240.998,472.417 239.665,471.584 238.5,470.5C 237.668,463.2 237.002,455.866 236.5,448.5C 238.879,447.433 239.879,448.433 239.5,451.5C 242.167,451.5 244.833,451.5 247.5,451.5C 247.5,450.167 247.5,448.833 247.5,447.5C 250.167,447.5 252.833,447.5 255.5,447.5C 255.5,446.167 255.5,444.833 255.5,443.5C 258.167,443.5 260.833,443.5 263.5,443.5C 263.5,441.5 263.5,439.5 263.5,437.5C 266.167,437.5 268.833,437.5 271.5,437.5C 271.5,436.167 271.5,434.833 271.5,433.5C 274.167,433.5 276.833,433.5 279.5,433.5C 279.5,431.5 279.5,429.5 279.5,427.5C 282.167,427.5 284.833,427.5 287.5,427.5C 287.5,425.5 287.5,423.5 287.5,421.5C 290.167,421.5 292.833,421.5 295.5,421.5C 295.5,420.167 295.5,418.833 295.5,417.5C 298.167,417.5 300.833,417.5 303.5,417.5C 303.5,415.5 303.5,413.5 303.5,411.5C 306.167,411.5 308.833,411.5 311.5,411.5C 311.5,408.833 311.5,406.167 311.5,403.5C 314.167,403.5 316.833,403.5 319.5,403.5C 319.5,402.167 319.5,400.833 319.5,399.5C 322.167,399.5 324.833,399.5 327.5,399.5C 327.5,397.5 327.5,395.5 327.5,393.5C 330.167,393.5 332.833,393.5 335.5,393.5C 335.5,390.833 335.5,388.167 335.5,385.5C 338.5,385.5 341.5,385.5 344.5,385.5C 344.351,384.448 344.517,383.448 345,382.5C 345.671,383.252 346.504,383.586 347.5,383.5 Z"/></g>
<g><path style="opacity:1" fill="#fec632" d="M 335.5,368.5 C 336.679,371.858 338.513,374.858 341,377.5C 341.251,379.433 341.751,381.266 342.5,383C 341.5,383.667 340.5,383.667 339.5,383C 339.833,382.667 340.167,382.333 340.5,382C 339.308,380.088 338.308,378.088 337.5,376C 335.939,375.812 335.272,376.645 335.5,378.5C 332.833,378.5 330.167,378.5 327.5,378.5C 327.5,380.167 327.5,381.833 327.5,383.5C 324.833,383.5 322.167,383.5 319.5,383.5C 319.5,386.167 319.5,388.833 319.5,391.5C 316.833,391.5 314.167,391.5 311.5,391.5C 311.5,394.167 311.5,396.833 311.5,399.5C 308.833,399.5 306.167,399.5 303.5,399.5C 303.5,402.167 303.5,404.833 303.5,407.5C 300.833,407.5 298.167,407.5 295.5,407.5C 295.5,408.5 295.5,409.5 295.5,410.5C 292.833,410.5 290.167,410.5 287.5,410.5C 287.5,412.167 287.5,413.833 287.5,415.5C 284.833,415.5 282.167,415.5 279.5,415.5C 279.5,418.167 279.5,420.833 279.5,423.5C 274.167,423.5 268.833,423.5 263.5,423.5C 263.5,426.167 263.5,428.833 263.5,431.5C 260.833,431.5 258.167,431.5 255.5,431.5C 255.5,433.167 255.5,434.833 255.5,436.5C 252.833,436.5 250.167,436.5 247.5,436.5C 247.5,437.5 247.5,438.5 247.5,439.5C 244.833,439.5 242.167,439.5 239.5,439.5C 239.5,435.833 239.5,432.167 239.5,428.5C 242.167,428.5 244.833,428.5 247.5,428.5C 247.5,427.167 247.5,425.833 247.5,424.5C 250.167,424.5 252.833,424.5 255.5,424.5C 255.5,423.167 255.5,421.833 255.5,420.5C 258.167,420.5 260.833,420.5 263.5,420.5C 263.5,419.167 263.5,417.833 263.5,416.5C 266.167,416.5 268.833,416.5 271.5,416.5C 271.5,414.5 271.5,412.5 271.5,410.5C 274.167,410.5 276.833,410.5 279.5,410.5C 279.5,408.5 279.5,406.5 279.5,404.5C 282.167,404.5 284.833,404.5 287.5,404.5C 287.5,403.167 287.5,401.833 287.5,400.5C 290.167,400.5 292.833,400.5 295.5,400.5C 295.5,397.833 295.5,395.167 295.5,392.5C 298.167,392.5 300.833,392.5 303.5,392.5C 303.5,390.5 303.5,388.5 303.5,386.5C 306.167,386.5 308.833,386.5 311.5,386.5C 311.5,384.5 311.5,382.5 311.5,380.5C 314.167,380.5 316.833,380.5 319.5,380.5C 319.5,377.833 319.5,375.167 319.5,372.5C 322.167,372.5 324.833,372.5 327.5,372.5C 327.5,371.167 327.5,369.833 327.5,368.5C 330.167,368.5 332.833,368.5 335.5,368.5 Z"/></g>
<g><path style="opacity:1" fill="#dbd407" d="M 560.5,368.5 C 560.007,402.223 559.174,435.889 558,469.5C 557.097,470.701 555.931,471.535 554.5,472C 517.412,469.449 491.912,485.282 478,519.5C 476.839,525.126 476.006,530.793 475.5,536.5C 475.257,539.263 474.757,542.263 474,545.5C 473.333,542.833 472.667,540.167 472,537.5C 471.502,540.482 471.335,543.482 471.5,546.5C 468.833,546.5 466.167,546.5 463.5,546.5C 463.5,549.833 463.5,553.167 463.5,556.5C 460.421,556.26 457.421,556.593 454.5,557.5C 453.229,555.171 451.229,554.005 448.5,554C 447.851,551.519 446.851,551.186 445.5,553C 448.922,556.412 451.922,560.079 454.5,564C 454.43,564.765 454.097,565.265 453.5,565.5C 436.297,548.088 426.297,527.088 423.5,502.5C 424.117,502.611 424.617,502.944 425,503.5C 426.191,508.934 427.691,514.267 429.5,519.5C 430.251,518.624 430.751,517.624 431,516.5C 431.287,518.891 431.787,521.224 432.5,523.5C 433,523.833 433.5,524.167 434,524.5C 435.597,523.115 437.43,522.449 439.5,522.5C 439.5,521.5 439.5,520.5 439.5,519.5C 442.167,519.5 444.833,519.5 447.5,519.5C 447.5,516.833 447.5,514.167 447.5,511.5C 450.167,511.5 452.833,511.5 455.5,511.5C 455.5,508.833 455.5,506.167 455.5,503.5C 458.167,503.5 460.833,503.5 463.5,503.5C 463.5,500.833 463.5,498.167 463.5,495.5C 466.167,495.5 468.833,495.5 471.5,495.5C 471.5,492.833 471.5,490.167 471.5,487.5C 474.167,487.5 476.833,487.5 479.5,487.5C 479.5,484.833 479.5,482.167 479.5,479.5C 482.167,479.5 484.833,479.5 487.5,479.5C 487.5,476.833 487.5,474.167 487.5,471.5C 490.167,471.5 492.833,471.5 495.5,471.5C 495.5,468.833 495.5,466.167 495.5,463.5C 498.167,463.5 500.833,463.5 503.5,463.5C 503.5,460.833 503.5,458.167 503.5,455.5C 506.167,455.5 508.833,455.5 511.5,455.5C 511.5,452.833 511.5,450.167 511.5,447.5C 514.167,447.5 516.833,447.5 519.5,447.5C 519.5,444.833 519.5,442.167 519.5,439.5C 522.167,439.5 524.833,439.5 527.5,439.5C 527.5,436.833 527.5,434.167 527.5,431.5C 530.167,431.5 532.833,431.5 535.5,431.5C 535.5,426.167 535.5,420.833 535.5,415.5C 538.167,415.5 540.833,415.5 543.5,415.5C 543.5,412.833 543.5,410.167 543.5,407.5C 546.167,407.5 548.833,407.5 551.5,407.5C 551.5,396.833 551.5,386.167 551.5,375.5C 551.344,369.687 552.011,369.354 553.5,374.5C 552.127,382.875 552.46,391.208 554.5,399.5C 555.333,386.179 555.833,372.846 556,359.5C 556.34,363.558 557.007,367.558 558,371.5C 558.236,369.881 559.069,368.881 560.5,368.5 Z"/></g>
<g><path style="opacity:1" fill="#dfd309" d="M 551.5,375.5 C 551.5,386.167 551.5,396.833 551.5,407.5C 548.833,407.5 546.167,407.5 543.5,407.5C 543.5,410.167 543.5,412.833 543.5,415.5C 540.833,415.5 538.167,415.5 535.5,415.5C 535.5,420.833 535.5,426.167 535.5,431.5C 532.833,431.5 530.167,431.5 527.5,431.5C 527.5,434.167 527.5,436.833 527.5,439.5C 524.833,439.5 522.167,439.5 519.5,439.5C 519.5,442.167 519.5,444.833 519.5,447.5C 516.833,447.5 514.167,447.5 511.5,447.5C 511.5,450.167 511.5,452.833 511.5,455.5C 508.833,455.5 506.167,455.5 503.5,455.5C 503.5,458.167 503.5,460.833 503.5,463.5C 500.833,463.5 498.167,463.5 495.5,463.5C 495.5,466.167 495.5,468.833 495.5,471.5C 492.833,471.5 490.167,471.5 487.5,471.5C 487.5,474.167 487.5,476.833 487.5,479.5C 484.833,479.5 482.167,479.5 479.5,479.5C 479.5,482.167 479.5,484.833 479.5,487.5C 476.833,487.5 474.167,487.5 471.5,487.5C 471.5,490.167 471.5,492.833 471.5,495.5C 468.833,495.5 466.167,495.5 463.5,495.5C 463.5,498.167 463.5,500.833 463.5,503.5C 460.833,503.5 458.167,503.5 455.5,503.5C 455.5,506.167 455.5,508.833 455.5,511.5C 452.833,511.5 450.167,511.5 447.5,511.5C 447.5,514.167 447.5,516.833 447.5,519.5C 444.833,519.5 442.167,519.5 439.5,519.5C 439.5,520.5 439.5,521.5 439.5,522.5C 437.43,522.449 435.597,523.115 434,524.5C 433.5,524.167 433,523.833 432.5,523.5C 431.787,521.224 431.287,518.891 431,516.5C 430.751,517.624 430.251,518.624 429.5,519.5C 427.691,514.267 426.191,508.934 425,503.5C 424.617,502.944 424.117,502.611 423.5,502.5C 422.197,489.705 422.197,477.039 423.5,464.5C 424.227,474.543 424.727,484.876 425,495.5C 425.774,499.147 426.441,502.814 427,506.5C 428.734,504.766 430.068,502.766 431,500.5C 431.483,501.448 431.649,502.448 431.5,503.5C 434.167,503.5 436.833,503.5 439.5,503.5C 439.5,501.833 439.5,500.167 439.5,498.5C 442.167,498.5 444.833,498.5 447.5,498.5C 447.5,495.833 447.5,493.167 447.5,490.5C 450.167,490.5 452.833,490.5 455.5,490.5C 455.5,487.833 455.5,485.167 455.5,482.5C 458.167,482.5 460.833,482.5 463.5,482.5C 463.5,479.833 463.5,477.167 463.5,474.5C 466.167,474.5 468.833,474.5 471.5,474.5C 471.5,471.833 471.5,469.167 471.5,466.5C 474.167,466.5 476.833,466.5 479.5,466.5C 479.5,463.833 479.5,461.167 479.5,458.5C 482.167,458.5 484.833,458.5 487.5,458.5C 487.5,455.833 487.5,453.167 487.5,450.5C 490.167,450.5 492.833,450.5 495.5,450.5C 495.5,446.833 495.5,443.167 495.5,439.5C 498.167,439.5 500.833,439.5 503.5,439.5C 503.5,436.833 503.5,434.167 503.5,431.5C 506.167,431.5 508.833,431.5 511.5,431.5C 511.5,428.833 511.5,426.167 511.5,423.5C 514.167,423.5 516.833,423.5 519.5,423.5C 519.5,420.833 519.5,418.167 519.5,415.5C 520.5,415.5 521.5,415.5 522.5,415.5C 522.5,412.833 522.5,410.167 522.5,407.5C 524.167,407.5 525.833,407.5 527.5,407.5C 527.5,404.833 527.5,402.167 527.5,399.5C 530.167,399.5 532.833,399.5 535.5,399.5C 535.335,396.15 535.502,392.817 536,389.5C 538.135,391.278 540.635,391.945 543.5,391.5C 543.945,388.635 543.278,386.135 541.5,384C 543.134,383.506 544.801,383.34 546.5,383.5C 546.5,380.833 546.5,378.167 546.5,375.5C 548.167,375.5 549.833,375.5 551.5,375.5 Z"/></g>
<g><path style="opacity:1" fill="#f5cb08" d="M 350.5,387.5 C 362.26,409.781 369.593,433.447 372.5,458.5C 371.307,458.03 370.64,457.03 370.5,455.5C 369.319,448.426 367.819,441.426 366,434.5C 365.586,434.043 365.086,433.709 364.5,433.5C 363.534,435.396 363.201,437.396 363.5,439.5C 362.167,439.5 360.833,439.5 359.5,439.5C 359.5,441.167 359.5,442.833 359.5,444.5C 361.167,444.5 362.833,444.5 364.5,444.5C 364.5,445.5 364.5,446.5 364.5,447.5C 362.833,447.5 361.167,447.5 359.5,447.5C 359.5,449.167 359.5,450.833 359.5,452.5C 358.5,452.5 357.5,452.5 356.5,452.5C 356.5,450.833 356.5,449.167 356.5,447.5C 354.833,447.5 353.167,447.5 351.5,447.5C 351.5,448.5 351.5,449.5 351.5,450.5C 348.833,450.5 346.167,450.5 343.5,450.5C 343.5,452.167 343.5,453.833 343.5,455.5C 340.833,455.5 338.167,455.5 335.5,455.5C 335.5,457.5 335.5,459.5 335.5,461.5C 332.833,461.5 330.167,461.5 327.5,461.5C 327.5,463.833 327.5,466.167 327.5,468.5C 324.833,468.5 322.167,468.5 319.5,468.5C 319.5,469.5 319.5,470.5 319.5,471.5C 316.833,471.5 314.167,471.5 311.5,471.5C 311.5,473.5 311.5,475.5 311.5,477.5C 307.643,476.962 304.309,477.962 301.5,480.5C 302.025,481.192 302.692,481.692 303.5,482C 302.027,482.71 301.36,483.876 301.5,485.5C 299.379,485.325 297.379,485.659 295.5,486.5C 282.6,477.686 268.267,473.02 252.5,472.5C 251.571,471.685 250.571,470.852 249.5,470C 250.5,469.667 251.5,469.333 252.5,469C 250.744,468.798 249.078,468.298 247.5,467.5C 258.107,466.022 258.107,464.856 247.5,464C 252.861,463.391 258.195,463.558 263.5,464.5C 263.5,462.5 263.5,460.5 263.5,458.5C 266.167,458.5 268.833,458.5 271.5,458.5C 271.5,456.5 271.5,454.5 271.5,452.5C 274.167,452.5 276.833,452.5 279.5,452.5C 279.5,450.833 279.5,449.167 279.5,447.5C 282.167,447.5 284.833,447.5 287.5,447.5C 287.5,446.5 287.5,445.5 287.5,444.5C 290.167,444.5 292.833,444.5 295.5,444.5C 295.5,441.833 295.5,439.167 295.5,436.5C 298.167,436.5 300.833,436.5 303.5,436.5C 303.5,434.833 303.5,433.167 303.5,431.5C 306.167,431.5 308.833,431.5 311.5,431.5C 311.5,429.833 311.5,428.167 311.5,426.5C 314.167,426.5 316.833,426.5 319.5,426.5C 319.5,424.5 319.5,422.5 319.5,420.5C 322.167,420.5 324.833,420.5 327.5,420.5C 327.5,417.833 327.5,415.167 327.5,412.5C 330.167,412.5 332.833,412.5 335.5,412.5C 335.5,410.833 335.5,409.167 335.5,407.5C 338.167,407.5 340.833,407.5 343.5,407.5C 343.335,404.15 343.502,400.817 344,397.5C 346.333,400.167 348.667,400.167 351,397.5C 351.333,398.833 351.667,400.167 352,401.5C 352.458,398.442 352.124,395.442 351,392.5C 348.608,390.599 348.442,388.933 350.5,387.5 Z"/></g>
<g><path style="opacity:1" fill="#ebcf03" d="M 372.5,458.5 C 374.022,465.939 374.689,473.606 374.5,481.5C 374.499,487.011 374.166,492.344 373.5,497.5C 372.25,497.423 371.417,496.756 371,495.5C 370.004,499.949 368.838,504.282 367.5,508.5C 364.833,508.5 362.167,508.5 359.5,508.5C 359.5,510.5 359.5,512.5 359.5,514.5C 356.833,514.5 354.167,514.5 351.5,514.5C 351.5,516.167 351.5,517.833 351.5,519.5C 348.833,519.5 346.167,519.5 343.5,519.5C 343.5,521.167 343.5,522.833 343.5,524.5C 340.833,524.5 338.167,524.5 335.5,524.5C 335.5,526.5 335.5,528.5 335.5,530.5C 332.833,530.5 330.167,530.5 327.5,530.5C 327.663,532.857 327.497,535.19 327,537.5C 326.833,536.167 326.667,534.833 326.5,533.5C 327.399,528.85 327.566,524.183 327,519.5C 326.667,520.5 326.333,521.5 326,522.5C 326.017,516.192 324.684,515.859 322,521.5C 320.006,516.177 318.006,510.843 316,505.5C 312.751,503.266 310.751,500.266 310,496.5C 306.985,493.317 303.818,490.317 300.5,487.5C 299.473,486.209 298.473,486.209 297.5,487.5C 296.508,487.672 295.842,487.338 295.5,486.5C 297.379,485.659 299.379,485.325 301.5,485.5C 301.36,483.876 302.027,482.71 303.5,482C 302.692,481.692 302.025,481.192 301.5,480.5C 304.309,477.962 307.643,476.962 311.5,477.5C 311.5,475.5 311.5,473.5 311.5,471.5C 314.167,471.5 316.833,471.5 319.5,471.5C 319.5,470.5 319.5,469.5 319.5,468.5C 322.167,468.5 324.833,468.5 327.5,468.5C 327.5,466.167 327.5,463.833 327.5,461.5C 330.167,461.5 332.833,461.5 335.5,461.5C 335.5,459.5 335.5,457.5 335.5,455.5C 338.167,455.5 340.833,455.5 343.5,455.5C 343.5,453.833 343.5,452.167 343.5,450.5C 346.167,450.5 348.833,450.5 351.5,450.5C 351.5,449.5 351.5,448.5 351.5,447.5C 353.167,447.5 354.833,447.5 356.5,447.5C 356.5,449.167 356.5,450.833 356.5,452.5C 357.5,452.5 358.5,452.5 359.5,452.5C 359.5,450.833 359.5,449.167 359.5,447.5C 361.167,447.5 362.833,447.5 364.5,447.5C 364.5,446.5 364.5,445.5 364.5,444.5C 362.833,444.5 361.167,444.5 359.5,444.5C 359.5,442.833 359.5,441.167 359.5,439.5C 360.833,439.5 362.167,439.5 363.5,439.5C 363.201,437.396 363.534,435.396 364.5,433.5C 365.086,433.709 365.586,434.043 366,434.5C 367.819,441.426 369.319,448.426 370.5,455.5C 370.64,457.03 371.307,458.03 372.5,458.5 Z"/></g>
<g><path style="opacity:1" fill="#e1d105" d="M 373.5,497.5 C 371.984,522.228 363.151,543.895 347,562.5C 336.947,571.553 327.947,581.553 320,592.5C 318.151,596.503 316.651,600.503 315.5,604.5C 314.883,604.389 314.383,604.056 314,603.5C 313.51,604.793 313.343,606.127 313.5,607.5C 310.167,607.5 306.833,607.5 303.5,607.5C 303.5,609.167 303.5,610.833 303.5,612.5C 300.833,612.5 298.167,612.5 295.5,612.5C 295.665,615.518 295.498,618.518 295,621.5C 294.167,619.5 293.333,617.5 292.5,615.5C 291.702,617.078 291.202,618.744 291,620.5C 290.667,619.833 290.333,619.167 290,618.5C 289.23,619.598 288.397,619.598 287.5,618.5C 286.243,597.503 292.076,578.837 305,562.5C 309.3,557.199 313.966,552.199 319,547.5C 322.648,528.426 318.315,511.426 306,496.5C 302.962,493.631 300.129,490.631 297.5,487.5C 298.473,486.209 299.473,486.209 300.5,487.5C 303.818,490.317 306.985,493.317 310,496.5C 310.751,500.266 312.751,503.266 316,505.5C 318.006,510.843 320.006,516.177 322,521.5C 324.684,515.859 326.017,516.192 326,522.5C 326.333,521.5 326.667,520.5 327,519.5C 327.566,524.183 327.399,528.85 326.5,533.5C 326.667,534.833 326.833,536.167 327,537.5C 327.497,535.19 327.663,532.857 327.5,530.5C 330.167,530.5 332.833,530.5 335.5,530.5C 335.5,528.5 335.5,526.5 335.5,524.5C 338.167,524.5 340.833,524.5 343.5,524.5C 343.5,522.833 343.5,521.167 343.5,519.5C 346.167,519.5 348.833,519.5 351.5,519.5C 351.5,517.833 351.5,516.167 351.5,514.5C 354.167,514.5 356.833,514.5 359.5,514.5C 359.5,512.5 359.5,510.5 359.5,508.5C 362.167,508.5 364.833,508.5 367.5,508.5C 368.838,504.282 370.004,499.949 371,495.5C 371.417,496.756 372.25,497.423 373.5,497.5 Z"/></g>
<g><path style="opacity:1" fill="#d0d404" d="M 475.5,536.5 C 476.321,539.641 476.821,542.975 477,546.5C 485.8,554.961 493.467,564.294 500,574.5C 508.137,590.568 510.804,607.568 508,625.5C 504.217,648.601 492.384,666.101 472.5,678C 422.953,704.109 373.619,703.942 324.5,677.5C 325.643,677.092 326.643,676.425 327.5,675.5C 322.054,671.295 322.554,670.628 329,673.5C 331.007,672.331 333.173,671.665 335.5,671.5C 335.5,670.167 335.5,668.833 335.5,667.5C 338.167,667.5 340.833,667.5 343.5,667.5C 343.375,663.602 345.042,662.102 348.5,663C 347.167,662.333 347.167,661.667 348.5,661C 350.5,660.667 352.5,660.333 354.5,660C 353.001,659.162 352.668,658.329 353.5,657.5C 394.718,672.495 433.385,667.662 469.5,643C 479.995,631.841 483.829,618.674 481,603.5C 479.755,597.678 477.422,592.345 474,587.5C 467.34,579.809 460.506,572.476 453.5,565.5C 454.097,565.265 454.43,564.765 454.5,564C 451.922,560.079 448.922,556.412 445.5,553C 446.851,551.186 447.851,551.519 448.5,554C 451.229,554.005 453.229,555.171 454.5,557.5C 457.421,556.593 460.421,556.26 463.5,556.5C 463.5,553.167 463.5,549.833 463.5,546.5C 466.167,546.5 468.833,546.5 471.5,546.5C 471.335,543.482 471.502,540.482 472,537.5C 472.667,540.167 473.333,542.833 474,545.5C 474.757,542.263 475.257,539.263 475.5,536.5 Z"/></g>
<g><path style="opacity:1" fill="#d2d405" d="M 418.5,605.5 C 420.857,605.337 423.19,605.503 425.5,606C 427.683,608.35 430.016,610.517 432.5,612.5C 434.69,610.476 437.023,608.643 439.5,607C 446.83,605.334 449.997,608.167 449,615.5C 447.023,618.312 444.856,620.978 442.5,623.5C 444.149,625.65 445.982,627.65 448,629.5C 450.383,636.759 447.883,640.259 440.5,640C 437.37,637.872 434.537,635.372 432,632.5C 429.833,634.667 427.667,636.833 425.5,639C 417.015,641.021 413.848,637.855 416,629.5C 417.5,626.667 419.667,624.5 422.5,623C 419.96,620.795 417.793,618.295 416,615.5C 414.861,611.579 415.695,608.246 418.5,605.5 Z"/></g>
<g><path style="opacity:1" fill="#d7d308" d="M 355.5,605.5 C 371.083,605.319 377.916,612.986 376,628.5C 371.346,638.907 363.513,642.407 352.5,639C 347.572,637.073 344.406,633.573 343,628.5C 340.996,620.78 342.83,614.28 348.5,609C 350.925,607.787 353.259,606.621 355.5,605.5 Z"/></g>
<g><path style="opacity:1" fill="#d8d409" d="M 315.5,604.5 C 313.463,621.23 318.797,635.063 331.5,646C 338.769,650.133 346.102,653.966 353.5,657.5C 352.668,658.329 353.001,659.162 354.5,660C 352.5,660.333 350.5,660.667 348.5,661C 347.167,661.667 347.167,662.333 348.5,663C 345.042,662.102 343.375,663.602 343.5,667.5C 340.833,667.5 338.167,667.5 335.5,667.5C 335.5,668.833 335.5,670.167 335.5,671.5C 333.173,671.665 331.007,672.331 329,673.5C 322.554,670.628 322.054,671.295 327.5,675.5C 326.643,676.425 325.643,677.092 324.5,677.5C 306.489,667.636 294.989,652.636 290,632.5C 289.057,627.84 288.223,623.173 287.5,618.5C 288.397,619.598 289.23,619.598 290,618.5C 290.333,619.167 290.667,619.833 291,620.5C 291.202,618.744 291.702,617.078 292.5,615.5C 293.333,617.5 294.167,619.5 295,621.5C 295.498,618.518 295.665,615.518 295.5,612.5C 298.167,612.5 300.833,612.5 303.5,612.5C 303.5,610.833 303.5,609.167 303.5,607.5C 306.833,607.5 310.167,607.5 313.5,607.5C 313.343,606.127 313.51,604.793 314,603.5C 314.383,604.056 314.883,604.389 315.5,604.5 Z"/></g>
</svg>
