<svg xmlns="http://www.w3.org/2000/svg" viewBox="0 0 400 400" version="1.1" width="400px" height="400px" style="shape-rendering:geometricPrecision; text-rendering:geometricPrecision; image-rendering:optimizeQuality; fill-rule:evenodd; clip-rule:evenodd" xmlns:xlink="http://www.w3.org/1999/xlink">
<g><path style="opacity:1" fill="#0a0a0a" d="M -0.5,-0.5 C 132.833,-0.5 266.167,-0.5 399.5,-0.5C 399.5,132.833 399.5,266.167 399.5,399.5C 266.167,399.5 132.833,399.5 -0.5,399.5C -0.5,266.167 -0.5,132.833 -0.5,-0.5 Z"/></g>
<g><path style="opacity:1" fill="#fafafa" d="M 197.5,83.5 C 199.655,83.372 201.655,83.872 203.5,85C 215.187,92.0318 226.854,99.0318 238.5,106C 227.146,112.699 215.813,119.365 204.5,126C 202.35,127.59 200.017,128.257 197.5,128C 185.299,120.401 172.966,113.068 160.5,106C 173.23,98.9767 185.563,91.4767 197.5,83.5 Z"/></g>
<g><path style="opacity:1" fill="#fafafa" d="M 135.5,116.5 C 138.016,116.755 140.35,117.589 142.5,119C 161.148,130.328 180.148,141.161 199.5,151.5C 220.555,140.223 241.388,128.556 262,116.5C 272.363,121.933 282.53,127.767 292.5,134C 261.59,152.43 230.59,170.597 199.5,188.5C 168.236,170.865 137.236,152.698 106.5,134C 116.23,128.141 125.897,122.308 135.5,116.5 Z"/></g>
<g><path style="opacity:1" fill="#fcfcfc" d="M 301.5,151.5 C 302.495,162.988 302.828,174.655 302.5,186.5C 282.167,198.5 261.833,210.5 241.5,222.5C 240.833,246.67 240.167,271.003 239.5,295.5C 238.261,295.942 237.261,296.609 236.5,297.5C 227.798,302.515 219.131,307.515 210.5,312.5C 209.502,276.671 209.168,240.671 209.5,204.5C 240.167,186.833 270.833,169.167 301.5,151.5 Z"/></g>
<g><path style="opacity:1" fill="#fcfcfc" d="M 98.5,151.5 C 129.033,168.929 159.366,186.596 189.5,204.5C 189.5,239.167 189.5,273.833 189.5,308.5C 187.784,308.629 186.117,308.962 184.5,309.5C 176.222,305.061 168.055,300.394 160,295.5C 159.833,271.16 159.333,246.826 158.5,222.5C 137.971,210.739 117.638,198.739 97.5,186.5C 97.1717,174.655 97.5051,162.988 98.5,151.5 Z"/></g>
<g><path style="opacity:1" fill="#9a9a9a" d="M 301.5,151.5 C 301.56,150.957 301.893,150.624 302.5,150.5C 303.825,162.66 303.825,174.66 302.5,186.5C 302.828,174.655 302.495,162.988 301.5,151.5 Z"/></g>
<g><path style="opacity:1" fill="#cfcfcf" d="M 98.5,151.5 C 97.5051,162.988 97.1717,174.655 97.5,186.5C 96.1755,174.66 96.1755,162.66 97.5,150.5C 98.1067,150.624 98.44,150.957 98.5,151.5 Z"/></g>
<g><path style="opacity:1" fill="#dcdcdc" d="M 189.5,204.5 C 189.833,204.5 190.167,204.5 190.5,204.5C 190.832,240.671 190.498,276.671 189.5,312.5C 187.632,311.737 185.965,310.737 184.5,309.5C 186.117,308.962 187.784,308.629 189.5,308.5C 189.5,273.833 189.5,239.167 189.5,204.5 Z"/></g>
<g><path style="opacity:1" fill="#3b3b3b" d="M 190.5,204.5 C 191.83,240.669 191.83,277.002 190.5,313.5C 189.893,313.376 189.56,313.043 189.5,312.5C 190.498,276.671 190.832,240.671 190.5,204.5 Z"/></g>
<g><path style="opacity:1" fill="#696969" d="M 209.5,204.5 C 209.168,240.671 209.502,276.671 210.5,312.5C 210.44,313.043 210.107,313.376 209.5,313.5C 208.17,277.002 208.17,240.669 209.5,204.5 Z"/></g>
<g><path style="opacity:1" fill="#f9f9f9" d="M 265.5,280.5 C 264.504,266.01 264.171,251.343 264.5,236.5C 277.163,228.697 289.996,221.03 303,213.5C 303.5,228.83 303.667,244.163 303.5,259.5C 290.582,265.961 277.915,272.961 265.5,280.5 Z"/></g>
<g><path style="opacity:1" fill="#fbfbfb" d="M 98.5,215.5 C 111.328,221.744 123.662,228.744 135.5,236.5C 135.829,251.343 135.496,266.01 134.5,280.5C 122.032,273.765 109.698,266.765 97.5,259.5C 97.1707,244.657 97.504,229.99 98.5,215.5 Z"/></g>
<g><path style="opacity:1" fill="#d0d0d0" d="M 98.5,215.5 C 97.504,229.99 97.1707,244.657 97.5,259.5C 96.1738,244.661 96.1738,229.661 97.5,214.5C 98.1067,214.624 98.44,214.957 98.5,215.5 Z"/></g>
<g><path style="opacity:1" fill="#2d2d2d" d="M 241.5,222.5 C 241.667,247.169 241.5,271.836 241,296.5C 239.644,297.38 238.144,297.714 236.5,297.5C 237.261,296.609 238.261,295.942 239.5,295.5C 240.167,271.003 240.833,246.67 241.5,222.5 Z"/></g>
<g><path style="opacity:1" fill="#8f8f8f" d="M 264.5,236.5 C 264.171,251.343 264.504,266.01 265.5,280.5C 265.44,281.043 265.107,281.376 264.5,281.5C 263.174,266.339 263.174,251.339 264.5,236.5 Z"/></g>
<g><path style="opacity:1" fill="#6c6c6c" d="M 135.5,236.5 C 136.826,251.339 136.826,266.339 135.5,281.5C 134.893,281.376 134.56,281.043 134.5,280.5C 135.496,266.01 135.829,251.343 135.5,236.5 Z"/></g>
</svg>