<svg width="433" height="433" viewBox="0 0 433 433" fill="none" xmlns="http://www.w3.org/2000/svg">
<g clip-path="url(#clip0_2498_3852)">
<path opacity="0.997" fill-rule="evenodd" clip-rule="evenodd" d="M195.5 -0.5C209.167 -0.5 222.833 -0.5 236.5 -0.5C320.465 10.7281 380.298 54.7281 416 131.5C424.348 152.23 429.848 173.563 432.5 195.5C432.5 209.167 432.5 222.833 432.5 236.5C428.404 274.367 415.57 309.033 394 340.5C388.528 348.46 382.362 355.793 375.5 362.5C367.343 339.345 354.343 319.345 336.5 302.5C341.115 295.712 345.948 289.045 351 282.5C351.495 280.527 351.662 278.527 351.5 276.5C352.6 274.723 353.434 272.723 354 270.5C354.98 261.048 354.48 251.715 352.5 242.5C352.472 239.084 351.472 236.084 349.5 233.5C348.191 230.222 346.358 227.222 344 224.5C343.667 215.833 343.333 207.167 343 198.5C341.968 192.592 340.468 186.925 338.5 181.5C333.583 168.583 325.916 157.583 315.5 148.5C311.432 144.101 306.765 140.435 301.5 137.5C297.025 133.658 291.692 131.325 285.5 130.5C276.615 129.245 267.948 127.578 259.5 125.5C254.579 125.138 249.913 124.138 245.5 122.5C247.408 121.514 248.408 119.848 248.5 117.5C248.5 116.833 248.5 116.167 248.5 115.5C249.473 113.052 249.806 110.385 249.5 107.5C245.84 107.159 242.507 107.825 239.5 109.5C237.102 109.259 235.102 109.926 233.5 111.5C230.14 113.506 226.474 115.006 222.5 116C217.168 121.343 210.835 123.843 203.5 123.5C200.15 123.335 196.817 123.502 193.5 124C192.263 124.232 191.263 124.732 190.5 125.5C187.287 125.19 184.287 125.523 181.5 126.5C178.171 126.215 175.171 126.882 172.5 128.5C155.883 131.382 140.883 137.715 127.5 147.5C124.527 148.81 122.193 150.81 120.5 153.5C117.548 155.785 114.882 158.452 112.5 161.5C110.086 162.911 108.419 164.911 107.5 167.5C103.811 171.539 101.145 176.206 99.5 181.5C96.7989 184.235 95.1322 187.569 94.5 191.5C86.4302 215.926 86.7635 240.259 95.5 264.5C96.3892 268.837 98.0559 272.837 100.5 276.5C104.094 283.355 107.427 290.355 110.5 297.5C110.662 299.527 110.495 301.527 110 303.5C108.295 305.577 107.128 307.91 106.5 310.5C100.996 317.515 95.9955 324.849 91.5 332.5C88.0843 336.323 85.4176 340.657 83.5 345.5C78.8838 355.844 74.8838 366.511 71.5 377.5C29.7573 339.683 5.75727 292.683 -0.5 236.5C-0.5 222.833 -0.5 209.167 -0.5 195.5C10.7281 111.535 54.7281 51.702 131.5 16C152.23 7.65175 173.563 2.15175 195.5 -0.5Z" fill="#E8F6F9"/>
<path fill-rule="evenodd" clip-rule="evenodd" d="M248.5 115.501C248.5 113.168 248.5 110.834 248.5 108.501C245.482 108.705 242.482 109.038 239.5 109.501C242.507 107.826 245.84 107.16 249.5 107.501C249.806 110.386 249.473 113.053 248.5 115.501Z" fill="#575B5F"/>
<path fill-rule="evenodd" clip-rule="evenodd" d="M239.5 109.499C237.898 111.073 235.898 111.74 233.5 111.499C235.102 109.925 237.102 109.258 239.5 109.499Z" fill="#484C52"/>
<path fill-rule="evenodd" clip-rule="evenodd" d="M248.5 117.5C248.408 119.848 247.408 121.514 245.5 122.5C245.75 120.326 246.75 118.659 248.5 117.5Z" fill="#868C8E"/>
<path fill-rule="evenodd" clip-rule="evenodd" d="M203.5 123.501C199.361 124.564 195.028 125.231 190.5 125.501C191.263 124.733 192.263 124.233 193.5 124.001C196.817 123.503 200.15 123.336 203.5 123.501Z" fill="#6A6B6E"/>
<path fill-rule="evenodd" clip-rule="evenodd" d="M245.5 122.5C249.913 124.138 254.579 125.138 259.5 125.5C254.5 125.5 249.5 125.5 244.5 125.5C244.263 124.209 244.596 123.209 245.5 122.5Z" fill="#A3AFAE"/>
<path fill-rule="evenodd" clip-rule="evenodd" d="M181.5 126.5C178.727 127.657 175.727 128.324 172.5 128.5C175.171 126.882 178.171 126.215 181.5 126.5Z" fill="#777D81"/>
<path opacity="0.999" fill-rule="evenodd" clip-rule="evenodd" d="M248.5 144.5C247.68 148.222 249.013 150.555 252.5 151.5C252.511 153.017 253.177 154.184 254.5 155C259.087 155.799 263.587 155.632 268 154.5C265.687 149.392 263.521 144.059 261.5 138.5C262.904 134.094 265.904 132.094 270.5 132.5C270.5 133.833 270.5 135.167 270.5 136.5C267.402 136.413 267.068 136.913 269.5 138C271.167 138.667 272.833 138.667 274.5 138C274.167 137.667 273.833 137.333 273.5 137C280.979 136.793 287.313 139.459 292.5 145C291.833 145.333 291.167 145.667 290.5 146C292.579 146.808 294.579 146.641 296.5 145.5C295.5 144.833 294.5 144.167 293.5 143.5C294 143.167 294.5 142.833 295 142.5C298.037 143.913 301.204 145.08 304.5 146C303.167 147 303.167 148 304.5 149C310.079 148.797 313.412 151.464 314.5 157C312.561 157.908 311.561 159.408 311.5 161.5C305.824 161.666 300.157 161.499 294.5 161C291.529 160.529 288.862 159.362 286.5 157.5C285.571 158.689 285.238 160.022 285.5 161.5C286.5 161.5 287.5 161.5 288.5 161.5C288.5 162.5 288.5 163.5 288.5 164.5C286.821 164.285 285.821 164.952 285.5 166.5C285.5 167.167 285.5 167.833 285.5 168.5C283.156 168.675 281.489 169.842 280.5 172C279.207 172.49 277.873 172.657 276.5 172.5C276.649 173.552 276.483 174.552 276 175.5C272.323 180.567 267.49 182.734 261.5 182C260.1 180.562 258.433 179.729 256.5 179.5C253.36 177.42 250.36 175.087 247.5 172.5C247.047 171.542 246.381 170.708 245.5 170C237.261 166.509 229.261 162.509 221.5 158C214.442 156.316 207.275 155.483 200 155.5C196.317 155.501 192.817 155.835 189.5 156.5C185.138 156.244 180.805 156.077 176.5 156C176.833 156.333 177.167 156.667 177.5 157C176.045 158.626 174.378 159.792 172.5 160.5C165.576 162.789 159.909 166.789 155.5 172.5C152.357 172.969 150.023 174.636 148.5 177.5C145.479 175.997 143.145 176.831 141.5 180C143.007 180.837 143.507 182.004 143 183.5C140.525 186.495 137.692 188.828 134.5 190.5C134.61 197.291 133.944 203.958 132.5 210.5C132.5 211.167 132.5 211.833 132.5 212.5C131.732 213.263 131.232 214.263 131 215.5C131.245 223.853 129.745 231.853 126.5 239.5C126.59 241.425 127.59 242.592 129.5 243C127.253 244.995 126.253 247.495 126.5 250.5C127.5 250.5 128.5 250.5 129.5 250.5C129.34 252.199 129.506 253.866 130 255.5C132.495 250.183 132.662 244.683 130.5 239C130.833 238.167 131.167 237.333 131.5 236.5C133.939 247.866 136.939 258.7 140.5 269C139.14 271.27 138.473 273.77 138.5 276.5C139.822 276.67 140.989 276.337 142 275.5C142.847 273.146 143.68 270.812 144.5 268.5C145.167 268.5 145.833 268.5 146.5 268.5C146.719 272.378 147.719 276.044 149.5 279.5C150.325 280.386 151.325 280.719 152.5 280.5C154.737 282.647 156.737 284.98 158.5 287.5C160.709 291.139 161.709 295.139 161.5 299.5C163.346 299.222 164.68 299.889 165.5 301.5C164.311 302.429 162.978 302.762 161.5 302.5C161.108 305.722 161.608 308.722 163 311.5C163.497 309.19 163.663 306.857 163.5 304.5C164.93 304.579 166.264 304.246 167.5 303.5C168.94 304.952 170.606 305.952 172.5 306.5C176.016 311.531 179.016 316.865 181.5 322.5C184.244 330.178 186.911 337.844 189.5 345.5C189.137 358.28 187.804 370.946 185.5 383.5C184.351 386.294 183.018 388.961 181.5 391.5C181.5 391.833 181.5 392.167 181.5 392.5C179.629 392.859 178.129 393.859 177 395.5C175.587 397.652 174.754 399.986 174.5 402.5C173.178 402.33 172.011 402.663 171 403.5C170.759 406.289 170.092 408.956 169 411.5C168.455 408.137 167.122 405.137 165 402.5C162.497 401.45 160.997 402.45 160.5 405.5C161.833 407.167 161.833 408.833 160.5 410.5C161.376 411.251 162.376 411.751 163.5 412C162.874 412.75 162.374 413.584 162 414.5C160.595 412.809 159.428 410.976 158.5 409C158.371 405.264 158.871 401.431 160 397.5C160.881 384.125 160.548 370.791 159 357.5C158.241 355.937 157.074 354.937 155.5 354.5C155.5 353.167 155.5 351.833 155.5 350.5C151.211 349.483 148.878 351.15 148.5 355.5C150.053 358.223 151.386 361.056 152.5 364C153.393 372.475 153.726 380.975 153.5 389.5C153.5 390.5 153.5 391.5 153.5 392.5C152.883 392.611 152.383 392.944 152 393.5C151.265 397.813 150.765 402.147 150.5 406.5C148.508 411.185 147.508 416.185 147.5 421.5C121.425 413.136 98.0913 400.136 77.5 382.5C77.6253 379.314 78.792 376.647 81 374.5C82.5298 376.226 83.5298 378.226 84 380.5C84.7581 378.231 84.5914 376.064 83.5 374C85.6279 372.257 86.4613 370.091 86 367.5C85.4444 369.595 84.9444 369.762 84.5 368C87.1667 366 87.1667 364 84.5 362C86.1109 359.79 86.7776 357.29 86.5 354.5C89.1667 354.5 91.8333 354.5 94.5 354.5C94.7394 352.533 94.4061 350.699 93.5 349C94.8795 342.621 96.8795 336.454 99.5 330.5C99.8333 329.5 100.5 328.833 101.5 328.5C106.699 326.786 109.533 323.12 110 317.5C111.085 316.707 112.252 316.04 113.5 315.5C117.239 309.719 118.406 303.385 117 296.5C116.722 295.584 116.222 294.918 115.5 294.5C114.341 292.145 113.341 289.812 112.5 287.5C111.958 284.088 110.625 281.088 108.5 278.5C107.099 272.051 105.432 265.718 103.5 259.5C102.197 256.957 101.197 254.29 100.5 251.5C100.043 250.702 99.3764 250.369 98.5 250.5C98.3069 237.155 98.1403 223.822 98 210.5C98.3333 210.167 98.6667 209.833 99 209.5C99.3333 210.833 99.6667 212.167 100 213.5C100.942 208.373 101.276 203.373 101 198.5C101.871 195.071 103.038 191.738 104.5 188.5C105.935 190.401 107.602 190.734 109.5 189.5C110.341 187.05 111.341 184.383 112.5 181.5C110.408 181.561 108.908 182.561 108 184.5C106.823 180.508 108.323 178.842 112.5 179.5C112.5 177.167 112.5 174.833 112.5 172.5C115.206 172.575 117.873 172.908 120.5 173.5C120.756 171.088 119.756 169.421 117.5 168.5C117.931 167.707 118.265 166.873 118.5 166C121.932 164.108 124.765 161.608 127 158.5C128.855 159.663 130.189 161.33 131 163.5C131.497 160.854 131.664 158.187 131.5 155.5C132.552 155.649 133.552 155.483 134.5 155C135.208 152.232 136.708 151.399 139 152.5C142.097 150.931 144.263 148.598 145.5 145.5C147.841 145.008 149.841 143.841 151.5 142C157.806 141.895 163.806 140.561 169.5 138C170.571 137.148 171.571 136.315 172.5 135.5C176.221 135.089 179.888 134.422 183.5 133.5C185.604 133.201 187.604 133.534 189.5 134.5C189.887 135.72 190.72 136.387 192 136.5C198.303 135.373 204.803 134.039 211.5 132.5C213.945 132.403 216.111 133.07 218 134.5C219.855 133.337 221.189 131.67 222 129.5C224.209 131.706 226.709 132.04 229.5 130.5C230.91 132.949 230.576 135.116 228.5 137C230.683 138.694 233.016 138.861 235.5 137.5C233.711 136.377 233.378 135.044 234.5 133.5C238.817 134.689 243.15 134.689 247.5 133.5C247.724 137.179 248.058 140.846 248.5 144.5Z" fill="#82AAFC"/>
<path fill-rule="evenodd" clip-rule="evenodd" d="M285.5 130.5C291.692 131.325 297.025 133.658 301.5 137.5C296.124 135.157 290.791 132.823 285.5 130.5Z" fill="#A4AAAA"/>
<path fill-rule="evenodd" clip-rule="evenodd" d="M127.5 147.5C125.72 150.29 123.387 152.29 120.5 153.5C122.193 150.81 124.527 148.81 127.5 147.5Z" fill="#444B49"/>
<path fill-rule="evenodd" clip-rule="evenodd" d="M137.5 147.5C135.2 149.984 132.533 151.984 129.5 153.5C131.373 150.551 134.039 148.551 137.5 147.5Z" fill="#43547C"/>
<path fill-rule="evenodd" clip-rule="evenodd" d="M248.5 144.5C249.167 144.5 249.833 144.5 250.5 144.5C249.965 147.238 250.965 149.072 253.5 150C255.833 150.667 258.167 150.667 260.5 150C261.337 148.989 261.67 147.822 261.5 146.5C263.647 147.932 263.98 149.765 262.5 152C259.112 152.659 255.779 152.492 252.5 151.5C249.013 150.555 247.68 148.222 248.5 144.5Z" fill="#253455"/>
<path fill-rule="evenodd" clip-rule="evenodd" d="M168.501 135.5C169.834 135.5 171.168 135.5 172.501 135.5C171.572 136.315 170.572 137.148 169.501 138C163.807 140.561 157.807 141.895 151.501 142C149.842 143.841 147.842 145.008 145.501 145.5C144.264 148.598 142.098 150.931 139.001 152.5C136.709 151.399 135.209 152.232 134.501 155C133.553 155.483 132.553 155.649 131.501 155.5C131.665 158.187 131.498 160.854 131.001 163.5C130.19 161.33 128.856 159.663 127.001 158.5C124.766 161.608 121.933 164.108 118.501 166C118.266 166.873 117.932 167.707 117.501 168.5C119.757 169.421 120.757 171.088 120.501 173.5C117.874 172.908 115.207 172.575 112.501 172.5C112.501 174.833 112.501 177.167 112.501 179.5C108.324 178.842 106.824 180.508 108.001 184.5C108.909 182.561 110.409 181.561 112.501 181.5C111.342 184.383 110.342 187.05 109.501 189.5C107.603 190.734 105.936 190.401 104.501 188.5C103.039 191.738 101.872 195.071 101.001 198.5C101.277 203.373 100.943 208.373 100.001 213.5C99.6675 212.167 99.3341 210.833 99.0008 209.5C98.6675 209.833 98.3341 210.167 98.0008 210.5C98.1411 223.822 98.3077 237.155 98.5008 250.5C98.1675 250.5 97.8341 250.5 97.5008 250.5C95.1967 236.247 94.8634 221.914 96.5008 207.5C96.5008 206.833 96.5008 206.167 96.5008 205.5C98.1636 203.562 98.8302 201.228 98.5008 198.5C101.142 190.208 104.642 182.208 109.001 174.5C112.761 169.317 116.761 164.317 121.001 159.5C123.732 157.255 126.565 155.255 129.501 153.5C132.534 151.984 135.201 149.984 137.501 147.5C143.302 144.264 149.302 141.597 155.501 139.5C160.033 138.543 164.366 137.21 168.501 135.5Z" fill="#81A3E6"/>
<path fill-rule="evenodd" clip-rule="evenodd" d="M311.5 148.5C312.833 148.5 314.167 148.5 315.5 148.5C325.916 157.583 333.583 168.583 338.5 181.5C336.797 180.34 336.131 181.007 336.5 183.5C335.662 183.158 335.328 182.492 335.5 181.5C335.628 179.345 335.128 177.345 334 175.5C331.64 170.76 328.807 166.426 325.5 162.5C321.775 156.775 317.108 152.108 311.5 148.5Z" fill="#252E44"/>
<path fill-rule="evenodd" clip-rule="evenodd" d="M270.5 132.5C265.904 132.094 262.904 134.094 261.5 138.5C263.521 144.059 265.687 149.392 268 154.5C263.587 155.632 259.087 155.799 254.5 155C253.177 154.184 252.511 153.017 252.5 151.5C255.779 152.492 259.112 152.659 262.5 152C263.98 149.765 263.647 147.932 261.5 146.5C260.356 143.553 258.689 140.887 256.5 138.5C258.833 135.5 261.5 132.833 264.5 130.5C266.717 130.878 268.717 131.545 270.5 132.5Z" fill="#80A1E1"/>
<path fill-rule="evenodd" clip-rule="evenodd" d="M189.5 156.5C192.817 155.835 196.317 155.501 200 155.5C207.275 155.483 214.442 156.316 221.5 158C229.261 162.509 237.261 166.509 245.5 170C246.381 170.708 247.047 171.542 247.5 172.5C243.056 171.736 239.056 169.903 235.5 167C228.729 164.579 222.063 162.079 215.5 159.5C213.723 158.4 211.723 157.566 209.5 157C202.842 156.5 196.175 156.334 189.5 156.5Z" fill="#90B0EA"/>
<path fill-rule="evenodd" clip-rule="evenodd" d="M189.5 156.5C196.175 156.334 202.842 156.5 209.5 157C211.723 157.566 213.723 158.4 215.5 159.5C213.833 159.5 212.167 159.5 210.5 159.5C209.737 158.732 208.737 158.232 207.5 158C198.833 157.333 190.167 157.333 181.5 158C178.688 159.549 175.688 160.382 172.5 160.5C174.378 159.792 176.045 158.626 177.5 157C177.167 156.667 176.833 156.333 176.5 156C180.805 156.077 185.138 156.244 189.5 156.5Z" fill="#A9C2EF"/>
<path fill-rule="evenodd" clip-rule="evenodd" d="M270.498 132.5C277.589 134.25 284.589 136.25 291.498 138.5C294.749 140.957 298.416 142.624 302.498 143.5C305.364 145.432 308.364 147.099 311.498 148.5C317.106 152.108 321.773 156.775 325.498 162.5C325.082 165.36 326.082 167.526 328.498 169C328.162 170.03 327.495 170.53 326.498 170.5C325.125 170.657 323.791 170.49 322.498 170C320.839 168.159 318.839 166.992 316.498 166.5C306.217 161.238 295.884 161.238 285.498 166.5C285.819 164.952 286.819 164.285 288.498 164.5C288.498 163.5 288.498 162.5 288.498 161.5C287.498 161.5 286.498 161.5 285.498 161.5C285.236 160.022 285.569 158.689 286.498 157.5C288.86 159.362 291.527 160.529 294.498 161C300.155 161.499 305.822 161.666 311.498 161.5C311.559 159.408 312.559 157.908 314.498 157C313.41 151.464 310.077 148.797 304.498 149C303.165 148 303.165 147 304.498 146C301.202 145.08 298.035 143.913 294.998 142.5C294.498 142.833 293.998 143.167 293.498 143.5C294.498 144.167 295.498 144.833 296.498 145.5C294.577 146.641 292.577 146.808 290.498 146C291.165 145.667 291.831 145.333 292.498 145C287.311 139.459 280.977 136.793 273.498 137C273.831 137.333 274.165 137.667 274.498 138C272.831 138.667 271.165 138.667 269.498 138C267.066 136.913 267.4 136.413 270.498 136.5C270.498 135.167 270.498 133.833 270.498 132.5Z" fill="#87A9ED"/>
<path fill-rule="evenodd" clip-rule="evenodd" d="M210.5 159.5C193.677 157.245 177.677 159.745 162.5 167C160.787 168.378 159.453 170.045 158.5 172C157.552 172.483 156.552 172.649 155.5 172.5C159.909 166.789 165.576 162.789 172.5 160.5C175.688 160.382 178.688 159.549 181.5 158C190.167 157.333 198.833 157.333 207.5 158C208.737 158.232 209.737 158.732 210.5 159.5Z" fill="#EAF4F8"/>
<path opacity="0.999" fill-rule="evenodd" clip-rule="evenodd" d="M210.5 159.499C212.167 159.499 213.833 159.499 215.5 159.499C222.063 162.078 228.729 164.578 235.5 166.999C239.056 169.902 243.056 171.735 247.5 172.499C250.36 175.086 253.36 177.419 256.5 179.499C257.806 180.466 258.473 181.8 258.5 183.499C262.093 183.64 265.593 184.307 269 185.499C271.267 184.824 272.767 183.324 273.5 180.999C276.308 180.006 279.141 179.172 282 178.499C282.402 177.127 282.902 175.794 283.5 174.499C282.754 173.263 282.421 171.929 282.5 170.499C284.179 170.714 285.179 170.047 285.5 168.499C287.92 168.707 290.253 168.373 292.5 167.499C292.833 167.832 293.167 168.166 293.5 168.499C292.833 169.499 292.167 170.499 291.5 171.499C292 171.832 292.5 172.166 293 172.499C299.213 171.794 305.379 170.794 311.5 169.499C305.833 168.832 300.167 168.166 294.5 167.499C294.709 166.913 295.043 166.413 295.5 165.999C302.514 165.5 309.514 165.667 316.5 166.499C318.841 166.991 320.841 168.158 322.5 169.999C323.793 170.489 325.127 170.656 326.5 170.499C328.167 173.166 329.833 175.832 331.5 178.499C332.902 183.718 334.735 188.718 337 193.499C337.17 204.007 337.67 214.34 338.5 224.499C338.263 225.79 338.596 226.79 339.5 227.499C339.025 230.312 340.025 232.312 342.5 233.499C343.698 236.425 344.698 239.425 345.5 242.499C347.8 254.411 348.133 266.411 346.5 278.499C345.133 284.676 342.466 290.01 338.5 294.499C337.417 294.46 336.417 294.126 335.5 293.499C333.999 294.751 332.332 295.751 330.5 296.499C328.373 301.067 325.707 305.734 322.5 310.499C320.5 311.166 318.5 311.832 316.5 312.499C319.606 318.914 322.106 325.581 324 332.499C324.826 330.594 325.993 330.26 327.5 331.499C328.189 333.443 328.689 335.443 329 337.499C329.423 336.043 330.256 335.543 331.5 335.999C332.26 337.44 332.926 338.94 333.5 340.499C333.957 341.297 334.624 341.63 335.5 341.499C337.5 342.832 339.5 344.166 341.5 345.499C343.729 348.189 345.396 351.189 346.5 354.499C350.327 362.062 353.327 370.062 355.5 378.499C355.747 379.712 356.414 380.379 357.5 380.499C322.576 410.12 282.243 427.454 236.5 432.499C222.833 432.499 209.167 432.499 195.5 432.499C185.381 431.145 175.381 429.145 165.5 426.499C165.263 425.208 165.596 424.208 166.5 423.499C170.141 421.675 171.974 418.675 172 414.499C173.474 411.674 174.974 411.341 176.5 413.499C176.833 413.166 177.167 412.832 177.5 412.499C176.937 411.06 176.603 409.56 176.5 407.999C177.394 404.403 178.394 400.903 179.5 397.499C179.392 395.485 180.058 393.819 181.5 392.499C181.5 392.166 181.5 391.832 181.5 391.499C182.496 391.585 183.329 391.251 184 390.499C187.372 384.407 190.372 378.073 193 371.499C193.497 368.853 193.664 366.186 193.5 363.499C194.5 363.499 195.5 363.499 196.5 363.499C198.919 373.847 200.252 373.847 200.5 363.499C199.5 363.499 198.5 363.499 197.5 363.499C197.319 360.602 197.652 357.769 198.5 354.999C198.834 348.712 196.668 343.545 192 339.499C191.617 340.055 191.117 340.388 190.5 340.499C187.843 335.158 185.677 329.491 184 323.499C183.329 322.747 182.496 322.413 181.5 322.499C179.016 316.864 176.016 311.53 172.5 306.499C169.355 301.555 166.188 296.555 163 291.499C161.629 289.958 160.129 288.624 158.5 287.499C156.737 284.979 154.737 282.646 152.5 280.499C151.438 275.946 149.438 271.946 146.5 268.499C143.496 262.409 140.496 256.409 137.5 250.499C137.793 247.245 137.126 244.245 135.5 241.499C135.001 236.519 134.668 231.519 134.5 226.499C135.509 217.15 136.509 207.817 137.5 198.499C140.378 191.075 144.045 184.075 148.5 177.499C150.023 174.635 152.357 172.968 155.5 172.499C156.552 172.648 157.552 172.482 158.5 171.999C159.453 170.044 160.787 168.377 162.5 166.999C177.677 159.744 193.677 157.244 210.5 159.499Z" fill="#FDFDF3"/>
<path fill-rule="evenodd" clip-rule="evenodd" d="M112.5 161.5C111.581 164.089 109.914 166.089 107.5 167.5C108.419 164.911 110.086 162.911 112.5 161.5Z" fill="#5E6566"/>
<path fill-rule="evenodd" clip-rule="evenodd" d="M248.5 115.5C248.5 116.167 248.5 116.833 248.5 117.5C246.75 118.659 245.75 120.326 245.5 122.5C244.596 123.209 244.263 124.209 244.5 125.5C249.5 125.5 254.5 125.5 259.5 125.5C267.948 127.578 276.615 129.245 285.5 130.5C290.791 132.823 296.124 135.157 301.5 137.5C306.765 140.435 311.432 144.101 315.5 148.5C314.167 148.5 312.833 148.5 311.5 148.5C308.366 147.099 305.366 145.432 302.5 143.5C299.503 140.504 295.836 138.837 291.5 138.5C284.591 136.25 277.591 134.25 270.5 132.5C268.717 131.545 266.717 130.878 264.5 130.5C261.5 132.833 258.833 135.5 256.5 138.5C258.689 140.887 260.356 143.553 261.5 146.5C261.67 147.822 261.337 148.989 260.5 150C258.167 150.667 255.833 150.667 253.5 150C250.965 149.072 249.965 147.238 250.5 144.5C251.376 144.631 252.043 144.298 252.5 143.5C251.006 142.095 250.006 140.429 249.5 138.5C250.802 136.31 252.469 134.31 254.5 132.5C254.043 131.702 253.376 131.369 252.5 131.5C246.833 131.5 241.167 131.5 235.5 131.5C235.4 128.892 236.067 126.558 237.5 124.5C238.031 122.456 239.198 120.789 241 119.5C241.49 118.207 241.657 116.873 241.5 115.5C237.788 116.028 234.121 116.862 230.5 118C227.204 119.995 223.87 121.995 220.5 124C218.959 125.371 217.625 126.871 216.5 128.5C207.288 128.857 198.288 129.857 189.5 131.5C182.112 131.451 175.112 132.784 168.5 135.5C163.711 135.654 159.378 136.987 155.5 139.5C149.301 141.597 143.301 144.264 137.5 147.5C134.039 148.551 131.373 150.551 129.5 153.5C126.564 155.255 123.731 157.255 121 159.5C116.76 164.317 112.76 169.317 109 174.5C104.641 182.208 101.141 190.208 98.5 198.5C97.0762 200.515 96.4095 202.848 96.5 205.5C96.5 206.167 96.5 206.833 96.5 207.5C95.71 208.609 95.21 209.942 95 211.5C94.3333 221.833 94.3333 232.167 95 242.5C95.7823 245.31 96.6156 247.977 97.5 250.5C97.8333 250.5 98.1667 250.5 98.5 250.5C100.503 260.433 103.836 269.766 108.5 278.5C108.502 282.165 109.835 285.165 112.5 287.5C113.341 289.812 114.341 292.145 115.5 294.5C116.283 298.146 116.45 301.812 116 305.5C112.909 310.073 110.076 314.739 107.5 319.5C105.178 320.802 103.845 322.802 103.5 325.5C102.094 325.973 101.427 326.973 101.5 328.5C100.5 328.833 99.8333 329.5 99.5 330.5C97.5491 331.716 96.0491 333.382 95 335.5C91.5828 341.66 88.7495 347.993 86.5 354.5C84.4283 357.774 82.4283 361.274 80.5 365C79.059 370.486 77.7257 375.986 76.5 381.5C74.246 380.876 72.5794 379.543 71.5 377.5C74.8838 366.511 78.8838 355.844 83.5 345.5C84.4584 345.047 85.2917 344.381 86 343.5C86.3333 343.833 86.6667 344.167 87 344.5C87.49 343.207 87.6567 341.873 87.5 340.5C88.8333 340.5 90.1667 340.5 91.5 340.5C91.0312 337.661 91.0312 334.995 91.5 332.5C95.9955 324.849 100.996 317.515 106.5 310.5C110.99 307.053 112.324 302.719 110.5 297.5C107.427 290.355 104.094 283.355 100.5 276.5C99.8948 271.968 98.2281 267.968 95.5 264.5C86.7635 240.259 86.4302 215.926 94.5 191.5C96.9679 188.621 98.6346 185.288 99.5 181.5C101.145 176.206 103.811 171.539 107.5 167.5C109.914 166.089 111.581 164.089 112.5 161.5C114.882 158.452 117.548 155.785 120.5 153.5C123.387 152.29 125.72 150.29 127.5 147.5C140.883 137.715 155.883 131.382 172.5 128.5C175.727 128.324 178.727 127.657 181.5 126.5C184.287 125.523 187.287 125.19 190.5 125.5C195.028 125.23 199.361 124.563 203.5 123.5C210.835 123.843 217.168 121.343 222.5 116C226.474 115.006 230.14 113.506 233.5 111.5C235.898 111.741 237.898 111.074 239.5 109.5C242.482 109.037 245.482 108.704 248.5 108.5C248.5 110.833 248.5 113.167 248.5 115.5Z" fill="#111218"/>
<path fill-rule="evenodd" clip-rule="evenodd" d="M291.5 138.5C295.836 138.837 299.503 140.504 302.5 143.5C298.418 142.624 294.751 140.957 291.5 138.5Z" fill="#354462"/>
<path fill-rule="evenodd" clip-rule="evenodd" d="M252.498 131.5C253.374 131.369 254.041 131.702 254.498 132.5C252.467 134.31 250.8 136.31 249.498 138.5C248.4 137.399 248.233 136.066 248.998 134.5C250.727 134.026 251.893 133.026 252.498 131.5Z" fill="#1C2546"/>
<path fill-rule="evenodd" clip-rule="evenodd" d="M168.5 135.5C164.365 137.21 160.032 138.543 155.5 139.5C159.378 136.987 163.711 135.654 168.5 135.5Z" fill="#4A5A85"/>
<path fill-rule="evenodd" clip-rule="evenodd" d="M189.5 131.499C187.5 132.166 185.5 132.832 183.5 133.499C179.888 134.421 176.221 135.088 172.5 135.499C171.167 135.499 169.833 135.499 168.5 135.499C175.112 132.783 182.112 131.45 189.5 131.499Z" fill="#6575AC"/>
<path fill-rule="evenodd" clip-rule="evenodd" d="M234.5 131.5C234.833 131.5 235.167 131.5 235.5 131.5C241.167 131.5 246.833 131.5 252.5 131.5C251.895 133.026 250.729 134.026 249 134.5C248.235 136.066 248.402 137.399 249.5 138.5C250.006 140.429 251.006 142.095 252.5 143.5C252.043 144.298 251.376 144.631 250.5 144.5C249.833 144.5 249.167 144.5 248.5 144.5C248.058 140.846 247.724 137.179 247.5 133.5C243.15 134.689 238.817 134.689 234.5 133.5C233.378 135.044 233.711 136.377 235.5 137.5C233.016 138.861 230.683 138.694 228.5 137C230.576 135.116 230.91 132.949 229.5 130.5C226.709 132.04 224.209 131.706 222 129.5C221.189 131.67 219.855 133.337 218 134.5C216.111 133.07 213.945 132.403 211.5 132.5C204.803 134.039 198.303 135.373 192 136.5C190.72 136.387 189.887 135.72 189.5 134.5C187.604 133.534 185.604 133.201 183.5 133.5C185.5 132.833 187.5 132.167 189.5 131.5C198.288 129.857 207.288 128.857 216.5 128.5C223.33 125.753 229.33 122.753 234.5 119.5C235.167 119.833 235.833 120.167 236.5 120.5C233.76 123.95 233.093 127.616 234.5 131.5Z" fill="#82A6F0"/>
<path fill-rule="evenodd" clip-rule="evenodd" d="M237.501 124.5C236.068 126.558 235.401 128.892 235.501 131.5C235.168 131.5 234.834 131.5 234.501 131.5C233.909 128.369 234.909 126.036 237.501 124.5Z" fill="#2D4268"/>
<path fill-rule="evenodd" clip-rule="evenodd" d="M237.5 124.5C234.908 126.036 233.908 128.369 234.5 131.5C233.093 127.616 233.76 123.95 236.5 120.5C235.833 120.167 235.167 119.833 234.5 119.5C229.33 122.753 223.33 125.753 216.5 128.5C217.625 126.871 218.959 125.371 220.5 124C223.87 121.995 227.204 119.995 230.5 118C234.121 116.862 237.788 116.028 241.5 115.5C241.657 116.873 241.49 118.207 241 119.5C239.198 120.789 238.031 122.456 237.5 124.5Z" fill="#7D97CF"/>
<path fill-rule="evenodd" clip-rule="evenodd" d="M316.5 166.499C309.514 165.667 302.514 165.5 295.5 165.999C295.043 166.413 294.709 166.913 294.5 167.499C300.167 168.166 305.833 168.832 311.5 169.499C305.379 170.794 299.213 171.794 293 172.499C292.5 172.166 292 171.832 291.5 171.499C292.167 170.499 292.833 169.499 293.5 168.499C293.167 168.166 292.833 167.832 292.5 167.499C290.253 168.373 287.92 168.707 285.5 168.499C285.5 167.832 285.5 167.166 285.5 166.499C295.886 161.237 306.219 161.237 316.5 166.499Z" fill="#F5F6FA"/>
<path fill-rule="evenodd" clip-rule="evenodd" d="M325.502 162.5C328.809 166.426 331.642 170.76 334.002 175.5C335.13 177.345 335.63 179.345 335.502 181.5C334.476 180.147 333.143 179.147 331.502 178.5C329.835 175.833 328.169 173.167 326.502 170.5C327.499 170.53 328.166 170.03 328.502 169C326.086 167.526 325.086 165.36 325.502 162.5Z" fill="#889AD0"/>
<path fill-rule="evenodd" clip-rule="evenodd" d="M148.5 177.5C144.045 184.076 140.378 191.076 137.5 198.5C136.626 201.535 135.626 204.535 134.5 207.5C133.833 208.5 133.167 209.5 132.5 210.5C133.944 203.958 134.61 197.291 134.5 190.5C137.692 188.828 140.525 186.495 143 183.5C143.507 182.004 143.007 180.837 141.5 180C143.145 176.831 145.479 175.997 148.5 177.5Z" fill="#8EB0EB"/>
<path fill-rule="evenodd" clip-rule="evenodd" d="M285.5 168.5C285.179 170.048 284.179 170.715 282.5 170.5C282.421 171.93 282.754 173.264 283.5 174.5C282.902 175.795 282.402 177.128 282 178.5C279.141 179.173 276.308 180.007 273.5 181C272.767 183.325 271.267 184.825 269 185.5C265.593 184.308 262.093 183.641 258.5 183.5C258.473 181.801 257.806 180.467 256.5 179.5C258.433 179.729 260.1 180.562 261.5 182C267.49 182.734 272.323 180.567 276 175.5C276.483 174.552 276.649 173.552 276.5 172.5C277.873 172.657 279.207 172.49 280.5 172C281.489 169.842 283.156 168.675 285.5 168.5Z" fill="#E9F2F8"/>
<path fill-rule="evenodd" clip-rule="evenodd" d="M99.5 181.5C98.6346 185.288 96.9679 188.621 94.5 191.5C95.1322 187.569 96.7989 184.235 99.5 181.5Z" fill="#3F4545"/>
<path fill-rule="evenodd" clip-rule="evenodd" d="M331.5 178.5C333.141 179.147 334.474 180.147 335.5 181.5C335.328 182.492 335.662 183.158 336.5 183.5C337.185 185.414 337.685 187.414 338 189.5C338.5 201.162 338.667 212.829 338.5 224.5C337.67 214.341 337.17 204.008 337 193.5C334.735 188.719 332.902 183.719 331.5 178.5Z" fill="#CFD0CF"/>
<path fill-rule="evenodd" clip-rule="evenodd" d="M210.5 202.499C205.633 202.117 200.966 202.784 196.5 204.499C196.577 203.249 197.244 202.416 198.5 201.999C202.689 201.187 206.689 201.354 210.5 202.499Z" fill="#41413E"/>
<path fill-rule="evenodd" clip-rule="evenodd" d="M210.501 202.501C211.168 202.834 211.834 203.168 212.501 203.501C209.923 203.981 207.589 204.981 205.501 206.501C204.095 206.974 203.428 207.974 203.501 209.501C202.884 209.612 202.384 209.945 202.001 210.501C201.334 213.501 201.334 216.501 202.001 219.501C202.378 220.943 203.211 221.943 204.501 222.501C208.845 226.387 213.178 226.387 217.501 222.501C218.118 222.39 218.618 222.057 219.001 221.501C219.806 218.305 219.639 215.305 218.501 212.501C218.501 212.168 218.501 211.834 218.501 211.501C218.939 210.495 219.605 210.495 220.501 211.501C224.207 222.594 221.207 231.427 211.501 238.001C200.164 239.803 192.831 235.303 189.501 224.501C189.432 219.388 190.098 214.388 191.501 209.501C192.168 206.834 193.834 205.168 196.501 204.501C200.967 202.786 205.634 202.119 210.501 202.501Z" fill="#101010"/>
<path fill-rule="evenodd" clip-rule="evenodd" d="M98.5003 198.5C98.8297 201.228 98.1631 203.562 96.5003 205.5C96.4098 202.848 97.0765 200.515 98.5003 198.5Z" fill="#394A6D"/>
<path fill-rule="evenodd" clip-rule="evenodd" d="M212.5 203.5C216.167 205.167 218.833 207.833 220.5 211.5C219.604 210.494 218.938 210.494 218.5 211.5C215.624 206.234 211.291 204.567 205.5 206.5C207.588 204.98 209.922 203.98 212.5 203.5Z" fill="#535350"/>
<path fill-rule="evenodd" clip-rule="evenodd" d="M320.5 203.5C324.532 205.577 326.532 208.911 326.5 213.5C325.833 214.5 325.167 215.5 324.5 216.5C325.22 208.549 321.887 205.215 314.5 206.5C316.156 204.94 318.156 203.94 320.5 203.5Z" fill="#757472"/>
<path fill-rule="evenodd" clip-rule="evenodd" d="M324.499 216.501C324.862 218.912 323.862 220.412 321.499 221.001C315.106 221.438 312.106 218.271 312.499 211.501C312.666 210.168 312.832 208.834 312.999 207.501C313.382 206.945 313.882 206.612 314.499 206.501C321.886 205.216 325.219 208.55 324.499 216.501Z" fill="#EFEFEF"/>
<path fill-rule="evenodd" clip-rule="evenodd" d="M218.501 211.499C218.501 211.832 218.501 212.166 218.501 212.499C218.541 215.88 218.208 219.213 217.501 222.499C213.178 226.385 208.845 226.385 204.501 222.499C203.801 218.201 203.468 213.868 203.501 209.499C203.428 207.972 204.095 206.972 205.501 206.499C211.292 204.566 215.625 206.233 218.501 211.499Z" fill="#F4F3F3"/>
<path fill-rule="evenodd" clip-rule="evenodd" d="M309.5 202.5C308.167 204.5 306.5 206.167 304.5 207.5C305.167 204.833 306.833 203.167 309.5 202.5Z" fill="#72716C"/>
<path fill-rule="evenodd" clip-rule="evenodd" d="M191.5 209.5C190.097 214.387 189.431 219.387 189.5 224.5C188.357 221.024 188.19 217.358 189 213.5C189.2 211.68 190.034 210.347 191.5 209.5Z" fill="#686861"/>
<path fill-rule="evenodd" clip-rule="evenodd" d="M203.5 209.5C203.467 213.869 203.8 218.202 204.5 222.5C203.21 221.942 202.377 220.942 202 219.5C201.333 216.5 201.333 213.5 202 210.5C202.383 209.944 202.883 209.611 203.5 209.5Z" fill="#999999"/>
<path fill-rule="evenodd" clip-rule="evenodd" d="M320.498 203.5C318.154 203.94 316.154 204.94 314.498 206.5C313.881 206.611 313.381 206.944 312.998 207.5C312.831 208.833 312.665 210.167 312.498 211.5C312.105 218.27 315.105 221.437 321.498 221C323.861 220.411 324.861 218.911 324.498 216.5C325.165 215.5 325.831 214.5 326.498 213.5C329.032 221.305 327.365 228.139 321.498 234C315.45 236.796 310.45 235.629 306.498 230.5C307.831 229.833 309.165 229.167 310.498 228.5C312.674 227.287 313.007 225.62 311.498 223.5C309.699 222.212 308.033 222.212 306.498 223.5C305.098 224.1 304.098 225.1 303.498 226.5C300.623 219.887 300.957 213.554 304.498 207.5C306.498 206.167 308.165 204.5 309.498 202.5C313.175 201.209 316.842 201.542 320.498 203.5Z" fill="#151514"/>
<path fill-rule="evenodd" clip-rule="evenodd" d="M218.5 212.5C219.638 215.304 219.805 218.304 219 221.5C218.617 222.056 218.117 222.389 217.5 222.5C218.207 219.214 218.54 215.881 218.5 212.5Z" fill="#676565"/>
<path fill-rule="evenodd" clip-rule="evenodd" d="M134.499 207.5C133.659 216.138 133.326 224.805 133.499 233.5C132.508 226.687 132.174 219.687 132.499 212.5C132.499 211.833 132.499 211.167 132.499 210.5C133.166 209.5 133.832 208.5 134.499 207.5Z" fill="#B4CEF3"/>
<path fill-rule="evenodd" clip-rule="evenodd" d="M310.498 228.499C306.063 229.077 304.73 227.41 306.498 223.499C308.033 222.211 309.699 222.211 311.498 223.499C313.007 225.619 312.674 227.286 310.498 228.499Z" fill="#D8D8D8"/>
<path fill-rule="evenodd" clip-rule="evenodd" d="M137.501 198.5C136.51 207.818 135.51 217.151 134.501 226.5C134.669 231.52 135.002 236.52 135.501 241.5C133.961 239.162 133.295 236.495 133.501 233.5C133.328 224.805 133.661 216.138 134.501 207.5C135.627 204.535 136.627 201.535 137.501 198.5Z" fill="#DDEDF8"/>
<path fill-rule="evenodd" clip-rule="evenodd" d="M200.498 231.5C200.498 229.833 200.498 228.167 200.498 226.5C197.048 225.756 195.382 227.09 195.498 230.5C193.804 227.361 194.804 225.361 198.498 224.5C201.973 225.143 203.139 227.143 201.998 230.5C201.615 231.056 201.115 231.389 200.498 231.5Z" fill="#9F9F9D"/>
<path fill-rule="evenodd" clip-rule="evenodd" d="M306.5 223.5C304.732 227.411 306.065 229.078 310.5 228.5C309.167 229.167 307.833 229.833 306.5 230.5C305.026 229.564 304.026 228.23 303.5 226.5C304.1 225.1 305.1 224.1 306.5 223.5Z" fill="#61615D"/>
<path fill-rule="evenodd" clip-rule="evenodd" d="M96.5 207.5C94.8626 221.914 95.1959 236.247 97.5 250.5C96.6156 247.977 95.7823 245.31 95 242.5C94.3333 232.167 94.3333 221.833 95 211.5C95.21 209.942 95.71 208.609 96.5 207.5Z" fill="#506192"/>
<path fill-rule="evenodd" clip-rule="evenodd" d="M200.502 231.501C198.547 232.931 196.881 232.598 195.502 230.501C195.386 227.091 197.052 225.757 200.502 226.501C200.502 228.168 200.502 229.834 200.502 231.501Z" fill="#E0E0DF"/>
<path fill-rule="evenodd" clip-rule="evenodd" d="M339.501 227.5C340.493 229.456 341.493 231.456 342.501 233.5C340.026 232.313 339.026 230.313 339.501 227.5Z" fill="#92928E"/>
<path fill-rule="evenodd" clip-rule="evenodd" d="M338.501 181.5C340.469 186.925 341.969 192.592 343.001 198.5C343.334 207.167 343.668 215.833 344.001 224.5C346.359 227.222 348.192 230.222 349.501 233.5C349.691 236.855 350.691 239.855 352.501 242.5C354.481 251.715 354.981 261.048 354.001 270.5C353.435 272.723 352.601 274.723 351.501 276.5C350.501 276.5 349.501 276.5 348.501 276.5C348.501 275.5 348.501 274.5 348.501 273.5C349.481 265.856 349.648 258.189 349.001 250.5C348.059 247.626 346.892 244.96 345.501 242.5C344.699 239.426 343.699 236.426 342.501 233.5C341.493 231.456 340.493 229.456 339.501 227.5C338.597 226.791 338.264 225.791 338.501 224.5C338.668 212.829 338.501 201.162 338.001 189.5C337.686 187.414 337.186 185.414 336.501 183.5C336.132 181.007 336.798 180.34 338.501 181.5Z" fill="#101111"/>
<path fill-rule="evenodd" clip-rule="evenodd" d="M132.502 212.5C132.177 219.687 132.511 226.687 133.502 233.5C133.296 236.495 133.962 239.162 135.502 241.5C137.128 244.246 137.795 247.246 137.502 250.5C138.681 257.053 141.015 263.053 144.502 268.5C143.682 270.812 142.849 273.146 142.002 275.5C140.991 276.337 139.824 276.67 138.502 276.5C138.475 273.77 139.142 271.27 140.502 269C136.941 258.7 133.941 247.866 131.502 236.5C131.169 237.333 130.835 238.167 130.502 239C132.664 244.683 132.497 250.183 130.002 255.5C129.508 253.866 129.342 252.199 129.502 250.5C128.502 250.5 127.502 250.5 126.502 250.5C126.255 247.495 127.255 244.995 129.502 243C127.592 242.592 126.592 241.425 126.502 239.5C129.747 231.853 131.247 223.853 131.002 215.5C131.234 214.263 131.734 213.263 132.502 212.5Z" fill="#84ADF5"/>
<path fill-rule="evenodd" clip-rule="evenodd" d="M271.5 233.499C276.548 233.126 281.215 234.293 285.5 236.999C289.268 240.456 289.268 243.956 285.5 247.499C286.417 244.994 286.417 242.661 285.5 240.499C283.272 237.549 280.272 235.883 276.5 235.499C274.833 234.832 273.167 234.166 271.5 233.499Z" fill="#83653F"/>
<path fill-rule="evenodd" clip-rule="evenodd" d="M349.5 233.5C351.472 236.084 352.472 239.084 352.5 242.5C350.69 239.855 349.69 236.855 349.5 233.5Z" fill="#606768"/>
<path fill-rule="evenodd" clip-rule="evenodd" d="M271.5 233.499C273.167 234.166 274.833 234.832 276.5 235.499C272.818 235.334 269.152 235.5 265.5 235.999C264.359 236.74 264.359 237.574 265.5 238.499C261.893 239.488 258.226 239.822 254.5 239.499C256.167 238.166 257.833 236.832 259.5 235.499C259.918 234.777 260.584 234.277 261.5 233.999C264.817 233.501 268.15 233.334 271.5 233.499Z" fill="#E8AF52"/>
<path fill-rule="evenodd" clip-rule="evenodd" d="M285.5 240.5C286.417 242.662 286.417 244.995 285.5 247.5C283.363 250.973 280.363 253.306 276.5 254.5C279.077 252.429 281.577 250.096 284 247.5C284.749 246.365 284.583 245.365 283.5 244.5C282.583 245.127 281.583 245.461 280.5 245.5C273.167 244.167 265.833 244.167 258.5 245.5C257.448 245.649 256.448 245.483 255.5 245C255.833 244.667 256.167 244.333 256.5 244C265.167 243.667 273.833 243.333 282.5 243C284.119 242.764 285.119 241.931 285.5 240.5Z" fill="#C08842"/>
<path fill-rule="evenodd" clip-rule="evenodd" d="M259.5 235.5C257.833 236.833 256.167 238.167 254.5 239.5C250.854 240.462 249.687 242.795 251 246.5C255.325 250.079 260.158 252.746 265.5 254.5C264.791 255.404 263.791 255.737 262.5 255.5C255.814 253.968 251.147 250.135 248.5 244C250.2 238.797 253.867 235.964 259.5 235.5Z" fill="#674E33"/>
<path fill-rule="evenodd" clip-rule="evenodd" d="M276.502 235.499C280.274 235.883 283.274 237.549 285.502 240.499C285.121 241.93 284.121 242.763 282.502 242.999C273.835 243.332 265.169 243.666 256.502 243.999C256.169 244.332 255.835 244.666 255.502 244.999C256.45 245.482 257.45 245.648 258.502 245.499C265.706 246.779 273.04 246.779 280.502 245.499C281.585 245.46 282.585 245.126 283.502 244.499C284.585 245.364 284.751 246.364 284.002 247.499C281.579 250.095 279.079 252.428 276.502 254.499C272.835 254.499 269.169 254.499 265.502 254.499C260.16 252.745 255.327 250.078 251.002 246.499C249.689 242.794 250.856 240.461 254.502 239.499C258.228 239.822 261.895 239.488 265.502 238.499C264.361 237.574 264.361 236.74 265.502 235.999C269.154 235.5 272.82 235.334 276.502 235.499Z" fill="#F1B049"/>
<path fill-rule="evenodd" clip-rule="evenodd" d="M280.5 245.5C273.038 246.78 265.704 246.78 258.5 245.5C265.833 244.167 273.167 244.167 280.5 245.5Z" fill="#744419"/>
<path fill-rule="evenodd" clip-rule="evenodd" d="M98.5 250.5C99.3764 250.369 100.043 250.702 100.5 251.5C101.197 254.29 102.197 256.957 103.5 259.5C105.432 265.718 107.099 272.051 108.5 278.5C103.836 269.766 100.503 260.433 98.5 250.5Z" fill="#819FDB"/>
<path fill-rule="evenodd" clip-rule="evenodd" d="M265.5 254.5C269.167 254.5 272.833 254.5 276.5 254.5C274.417 256.482 271.751 257.482 268.5 257.5C266.201 257.401 264.201 256.734 262.5 255.5C263.791 255.737 264.791 255.404 265.5 254.5Z" fill="#BA9767"/>
<path fill-rule="evenodd" clip-rule="evenodd" d="M137.5 250.5C140.496 256.41 143.496 262.41 146.5 268.5C145.833 268.5 145.167 268.5 144.5 268.5C141.013 263.053 138.679 257.053 137.5 250.5Z" fill="#A1BBE9"/>
<path fill-rule="evenodd" clip-rule="evenodd" d="M345.5 242.5C346.891 244.96 348.058 247.626 349 250.5C349.647 258.189 349.48 265.856 348.5 273.5C347.833 275.167 347.167 276.833 346.5 278.5C348.133 266.412 347.8 254.412 345.5 242.5Z" fill="#B8B7B2"/>
<path fill-rule="evenodd" clip-rule="evenodd" d="M95.5 264.5C98.2281 267.968 99.8948 271.968 100.5 276.5C98.0559 272.837 96.3892 268.837 95.5 264.5Z" fill="#A2A4A8"/>
<path fill-rule="evenodd" clip-rule="evenodd" d="M146.5 268.5C149.438 271.947 151.438 275.947 152.5 280.5C151.325 280.719 150.325 280.386 149.5 279.5C147.719 276.044 146.719 272.378 146.5 268.5Z" fill="#96B3EA"/>
<path fill-rule="evenodd" clip-rule="evenodd" d="M348.5 273.5C348.5 274.5 348.5 275.5 348.5 276.5C349.5 276.5 350.5 276.5 351.5 276.5C351.662 278.527 351.495 280.527 351 282.5C345.948 289.045 341.115 295.712 336.5 302.5C335.833 302.167 335.167 301.833 334.5 301.5C335.861 299.15 337.194 296.816 338.5 294.5C342.466 290.011 345.133 284.677 346.5 278.5C347.167 276.833 347.833 275.167 348.5 273.5Z" fill="#1E2020"/>
<path fill-rule="evenodd" clip-rule="evenodd" d="M108.5 278.5C110.625 281.088 111.958 284.088 112.5 287.5C109.835 285.165 108.502 282.165 108.5 278.5Z" fill="#354268"/>
<path fill-rule="evenodd" clip-rule="evenodd" d="M110.5 297.5C112.324 302.719 110.99 307.053 106.5 310.5C107.128 307.91 108.295 305.577 110 303.5C110.495 301.527 110.662 299.527 110.5 297.5Z" fill="#565A5E"/>
<path fill-rule="evenodd" clip-rule="evenodd" d="M158.5 287.5C160.129 288.625 161.629 289.959 163 291.5C166.188 296.556 169.355 301.556 172.5 306.5C170.606 305.952 168.94 304.952 167.5 303.5C166.264 304.246 164.93 304.579 163.5 304.5C163.663 306.857 163.497 309.19 163 311.5C161.608 308.722 161.108 305.722 161.5 302.5C162.978 302.762 164.311 302.429 165.5 301.5C164.68 299.889 163.346 299.222 161.5 299.5C161.709 295.139 160.709 291.139 158.5 287.5Z" fill="#8BB0F0"/>
<path fill-rule="evenodd" clip-rule="evenodd" d="M115.501 294.5C116.223 294.918 116.723 295.584 117.001 296.5C118.407 303.385 117.24 309.719 113.501 315.5C112.253 316.04 111.086 316.707 110.001 317.5C109.534 323.12 106.7 326.786 101.501 328.5C101.428 326.973 102.095 325.973 103.501 325.5C105.327 323.853 106.661 321.853 107.501 319.5C110.077 314.739 112.91 310.073 116.001 305.5C116.451 301.812 116.284 298.146 115.501 294.5Z" fill="#7792C9"/>
<path fill-rule="evenodd" clip-rule="evenodd" d="M338.5 294.5C337.194 296.816 335.861 299.15 334.5 301.5C333.5 301.833 332.833 302.5 332.5 303.5C331.504 303.414 330.671 303.748 330 304.5C328.974 307.239 327.474 309.572 325.5 311.5C323.172 313.166 322.172 315.499 322.5 318.5C323.331 322.143 324.664 325.476 326.5 328.5C327.167 328.5 327.833 328.5 328.5 328.5C331.19 332.554 333.524 336.888 335.5 341.5C334.624 341.631 333.957 341.298 333.5 340.5C332.926 338.941 332.26 337.441 331.5 336C330.256 335.544 329.423 336.044 329 337.5C328.689 335.444 328.189 333.444 327.5 331.5C325.993 330.261 324.826 330.595 324 332.5C322.106 325.582 319.606 318.915 316.5 312.5C318.5 311.833 320.5 311.167 322.5 310.5C325.707 305.735 328.373 301.068 330.5 296.5C332.332 295.752 333.999 294.752 335.5 293.5C336.417 294.127 337.417 294.461 338.5 294.5Z" fill="#F0F5F5"/>
<path fill-rule="evenodd" clip-rule="evenodd" d="M332.5 306.5C336.536 310.534 340.202 314.868 343.5 319.5C338.713 316.052 335.046 311.719 332.5 306.5Z" fill="#6276A3"/>
<path fill-rule="evenodd" clip-rule="evenodd" d="M325.498 311.5C325.601 314.219 325.267 316.885 324.498 319.5C326.123 322.235 326.79 325.235 326.498 328.5C324.662 325.476 323.329 322.143 322.498 318.5C322.17 315.499 323.17 313.166 325.498 311.5Z" fill="#9DB2E7"/>
<path fill-rule="evenodd" clip-rule="evenodd" d="M107.5 319.5C106.66 321.853 105.326 323.853 103.5 325.5C103.845 322.802 105.178 320.802 107.5 319.5Z" fill="#495781"/>
<path fill-rule="evenodd" clip-rule="evenodd" d="M334.5 301.5C335.167 301.833 335.833 302.167 336.5 302.5C354.343 319.345 367.343 339.345 375.5 362.5C374.5 364.167 373.167 365.5 371.5 366.5C369.38 362.516 367.38 358.516 365.5 354.5C362.165 344.842 357.165 336.175 350.5 328.5C349.306 324.637 346.973 321.637 343.5 319.5C340.202 314.868 336.536 310.534 332.5 306.5C331.375 305.652 331.375 304.652 332.5 303.5C332.833 302.5 333.5 301.833 334.5 301.5Z" fill="#101218"/>
<path fill-rule="evenodd" clip-rule="evenodd" d="M328.5 328.501C329.156 329.279 329.989 329.945 331 330.501C332.597 329.116 334.43 328.45 336.5 328.501C336.5 329.501 336.5 330.501 336.5 331.501C334.775 331.844 334.275 332.844 335 334.501C337.694 337.893 339.86 341.56 341.5 345.501C339.5 344.168 337.5 342.834 335.5 341.501C333.524 336.889 331.19 332.555 328.5 328.501Z" fill="#8CA6DC"/>
<path fill-rule="evenodd" clip-rule="evenodd" d="M332.5 303.5C331.375 304.652 331.375 305.652 332.5 306.5C335.046 311.719 338.713 316.052 343.5 319.5C346.973 321.637 349.306 324.637 350.5 328.5C349.789 332.325 350.955 335.325 354 337.5C354.494 339.134 354.66 340.801 354.5 342.5C356.39 342.297 357.89 342.963 359 344.5C359.043 349.35 361.21 352.683 365.5 354.5C367.38 358.516 369.38 362.516 371.5 366.5C368.167 370.5 364.5 374.167 360.5 377.5C358.558 370.622 356.058 363.956 353 357.5C351.637 355.316 350.137 353.316 348.5 351.5C348.509 349.692 348.009 348.025 347 346.5C343.49 341.471 339.99 336.471 336.5 331.5C336.5 330.5 336.5 329.5 336.5 328.5C334.43 328.449 332.597 329.115 331 330.5C329.989 329.944 329.156 329.278 328.5 328.5C327.833 328.5 327.167 328.5 326.5 328.5C326.792 325.235 326.125 322.235 324.5 319.5C325.269 316.885 325.603 314.219 325.5 311.5C327.474 309.572 328.974 307.239 330 304.5C330.671 303.748 331.504 303.414 332.5 303.5Z" fill="#82A8F4"/>
<path fill-rule="evenodd" clip-rule="evenodd" d="M91.5 332.5C91.0312 334.995 91.0312 337.661 91.5 340.5C90.1667 340.5 88.8333 340.5 87.5 340.5C87.6567 341.873 87.49 343.207 87 344.5C86.6667 344.167 86.3333 343.833 86 343.5C85.2917 344.381 84.4584 345.047 83.5 345.5C85.4176 340.657 88.0843 336.323 91.5 332.5Z" fill="#2D3031"/>
<path fill-rule="evenodd" clip-rule="evenodd" d="M181.5 322.5C182.496 322.414 183.329 322.748 184 323.5C185.677 329.492 187.843 335.159 190.5 340.5C190.5 342.167 190.5 343.833 190.5 345.5C190.167 345.5 189.833 345.5 189.5 345.5C186.911 337.844 184.244 330.178 181.5 322.5Z" fill="#9EBAEA"/>
<path fill-rule="evenodd" clip-rule="evenodd" d="M336.501 331.5C339.991 336.471 343.491 341.471 347.001 346.5C348.01 348.025 348.51 349.692 348.501 351.5C346.953 351.821 346.286 352.821 346.501 354.5C345.397 351.19 343.73 348.19 341.501 345.5C339.861 341.559 337.695 337.892 335.001 334.5C334.276 332.843 334.776 331.843 336.501 331.5Z" fill="#161D32"/>
<path fill-rule="evenodd" clip-rule="evenodd" d="M350.499 328.5C357.164 336.175 362.164 344.842 365.499 354.5C361.209 352.683 359.042 349.35 358.999 344.5C357.889 342.963 356.389 342.297 354.499 342.5C354.659 340.801 354.493 339.134 353.999 337.5C350.954 335.325 349.788 332.325 350.499 328.5Z" fill="#7A95D1"/>
<path fill-rule="evenodd" clip-rule="evenodd" d="M181.5 391.5C183.018 388.961 184.351 386.294 185.5 383.5C186.117 383.389 186.617 383.056 187 382.5C188.065 376.973 189.731 371.64 192 366.5C192.167 363 192.333 359.5 192.5 356C192.488 352.098 191.821 348.598 190.5 345.5C190.5 343.833 190.5 342.167 190.5 340.5C191.117 340.389 191.617 340.056 192 339.5C196.668 343.546 198.834 348.713 198.5 355C197.652 357.77 197.319 360.603 197.5 363.5C198.5 363.5 199.5 363.5 200.5 363.5C200.252 373.848 198.919 373.848 196.5 363.5C195.5 363.5 194.5 363.5 193.5 363.5C193.664 366.187 193.497 368.854 193 371.5C190.372 378.074 187.372 384.408 184 390.5C183.329 391.252 182.496 391.586 181.5 391.5Z" fill="#F4F7F9"/>
<path fill-rule="evenodd" clip-rule="evenodd" d="M99.5 330.5C96.8795 336.454 94.8795 342.621 93.5 349C94.4061 350.699 94.7394 352.533 94.5 354.5C91.8333 354.5 89.1667 354.5 86.5 354.5C88.7495 347.993 91.5828 341.66 95 335.5C96.0491 333.382 97.5491 331.716 99.5 330.5Z" fill="#7DA4E7"/>
<path fill-rule="evenodd" clip-rule="evenodd" d="M348.5 351.5C350.137 353.316 351.637 355.316 353 357.5C356.058 363.956 358.558 370.622 360.5 377.5C359.833 378.833 358.833 379.833 357.5 380.5C356.414 380.38 355.747 379.713 355.5 378.5C353.327 370.063 350.327 362.063 346.5 354.5C346.285 352.821 346.952 351.821 348.5 351.5Z" fill="#12131B"/>
<path fill-rule="evenodd" clip-rule="evenodd" d="M155.5 354.5C156.167 356.833 156.833 359.167 157.5 361.5C156.21 360.942 155.377 359.942 155 358.5C154.506 360.134 154.34 361.801 154.5 363.5C153.513 360.287 152.513 356.954 151.5 353.5C151.833 353.167 152.167 352.833 152.5 352.5C153.265 353.612 154.265 354.279 155.5 354.5Z" fill="#232E59"/>
<path fill-rule="evenodd" clip-rule="evenodd" d="M189.5 345.5C189.833 345.5 190.167 345.5 190.5 345.5C191.821 348.598 192.488 352.098 192.5 356C192.333 359.5 192.167 363 192 366.5C189.731 371.64 188.065 376.973 187 382.5C186.617 383.056 186.117 383.389 185.5 383.5C187.804 370.946 189.137 358.28 189.5 345.5Z" fill="#8FAEF1"/>
<path fill-rule="evenodd" clip-rule="evenodd" d="M86.5 354.5C86.7776 357.29 86.1109 359.79 84.5 362C87.1667 364 87.1667 366 84.5 368C84.9444 369.762 85.4444 369.595 86 367.5C86.4613 370.091 85.6279 372.257 83.5 374C84.5914 376.064 84.7581 378.231 84 380.5C83.5298 378.226 82.5298 376.226 81 374.5C78.792 376.647 77.6253 379.314 77.5 382.5C76.8333 382.5 76.5 382.167 76.5 381.5C77.7257 375.986 79.059 370.486 80.5 365C82.4283 361.274 84.4283 357.774 86.5 354.5Z" fill="#7FA0E4"/>
<path fill-rule="evenodd" clip-rule="evenodd" d="M155.5 354.5C154.265 354.279 153.265 353.612 152.5 352.5C152.167 352.833 151.833 353.167 151.5 353.5C152.513 356.954 153.513 360.287 154.5 363.5C155.06 367.632 155.393 371.799 155.5 376C155.692 380.772 155.025 385.272 153.5 389.5C153.726 380.975 153.393 372.475 152.5 364C151.386 361.056 150.053 358.223 148.5 355.5C148.878 351.15 151.211 349.483 155.5 350.5C155.5 351.833 155.5 353.167 155.5 354.5Z" fill="#7897D5"/>
<path fill-rule="evenodd" clip-rule="evenodd" d="M157.5 361.5C159.291 370.744 159.791 380.077 159 389.5C157.143 400.901 154.976 412.235 152.5 423.5C150.597 423.204 148.93 422.537 147.5 421.5C147.508 416.185 148.508 411.185 150.5 406.5C152.246 402.111 153.246 397.444 153.5 392.5C153.5 391.5 153.5 390.5 153.5 389.5C155.025 385.272 155.692 380.772 155.5 376C155.393 371.799 155.06 367.632 154.5 363.5C154.34 361.801 154.506 360.134 155 358.5C155.377 359.942 156.21 360.942 157.5 361.5Z" fill="#0D101F"/>
<path fill-rule="evenodd" clip-rule="evenodd" d="M153.5 392.5C153.246 397.444 152.246 402.111 150.5 406.5C150.765 402.147 151.265 397.813 152 393.5C152.383 392.944 152.883 392.611 153.5 392.5Z" fill="#596D9C"/>
<path opacity="0.985" fill-rule="evenodd" clip-rule="evenodd" d="M155.5 354.5C157.074 354.937 158.241 355.937 159 357.5C160.548 370.791 160.881 384.125 160 397.5C158.871 401.431 158.371 405.264 158.5 409C159.428 410.976 160.595 412.809 162 414.5C162.374 413.584 162.874 412.75 163.5 412C162.376 411.751 161.376 411.251 160.5 410.5C161.833 408.833 161.833 407.167 160.5 405.5C160.997 402.45 162.497 401.45 165 402.5C167.122 405.137 168.455 408.137 169 411.5C170.092 408.956 170.759 406.289 171 403.5C172.011 402.663 173.178 402.33 174.5 402.5C174.754 399.986 175.587 397.652 177 395.5C178.129 393.859 179.629 392.859 181.5 392.5C180.058 393.82 179.392 395.486 179.5 397.5C177.275 400.262 175.275 403.262 173.5 406.5C171.315 412.252 168.982 417.919 166.5 423.5C165.596 424.209 165.263 425.209 165.5 426.5C161.051 425.971 156.718 424.971 152.5 423.5C154.976 412.235 157.143 400.901 159 389.5C159.791 380.077 159.291 370.744 157.5 361.5C156.833 359.167 156.167 356.833 155.5 354.5Z" fill="#84A8F2"/>
<path fill-rule="evenodd" clip-rule="evenodd" d="M179.5 397.5C178.394 400.904 177.394 404.404 176.5 408C176.603 409.561 176.937 411.061 177.5 412.5C177.167 412.833 176.833 413.167 176.5 413.5C174.974 411.342 173.474 411.675 172 414.5C171.974 418.676 170.141 421.676 166.5 423.5C168.982 417.919 171.315 412.252 173.5 406.5C175.275 403.262 177.275 400.262 179.5 397.5Z" fill="#E7F0F8"/>
</g>
<defs>
<clipPath id="clip0_2498_3852">
<rect width="433" height="433" fill="white"/>
</clipPath>
</defs>
</svg>
