<svg xmlns="http://www.w3.org/2000/svg" version="1.1" viewBox="0 0 433 433" width="433px" height="433px" style="shape-rendering:geometricPrecision; text-rendering:geometricPrecision; image-rendering:optimizeQuality; fill-rule:evenodd; clip-rule:evenodd" xmlns:xlink="http://www.w3.org/1999/xlink">
<g><path style="opacity:0.947" fill="#6abe00" d="M 188.5,66.5 C 220.5,66.5 252.5,66.5 284.5,66.5C 284.5,71.1667 284.5,75.8333 284.5,80.5C 297.833,80.5 311.167,80.5 324.5,80.5C 324.5,84.8333 324.5,89.1667 324.5,93.5C 329.167,93.5 333.833,93.5 338.5,93.5C 342.833,93.5 347.167,93.5 351.5,93.5C 351.5,98.1667 351.5,102.833 351.5,107.5C 346.833,107.5 342.167,107.5 337.5,107.5C 337.5,103.167 337.5,98.8333 337.5,94.5C 319.5,94.5 301.5,94.5 283.5,94.5C 283.5,89.8333 283.5,85.1667 283.5,80.5C 261.167,80.5 238.833,80.5 216.5,80.5C 216.167,80.5 215.833,80.5 215.5,80.5C 206.5,80.5 197.5,80.5 188.5,80.5C 188.5,75.8333 188.5,71.1667 188.5,66.5 Z"/></g>
<g><path style="opacity:0.99" fill="#b7eb06" d="M 188.5,66.5 C 188.5,71.1667 188.5,75.8333 188.5,80.5C 175.167,80.5 161.833,80.5 148.5,80.5C 148.5,85.1667 148.5,89.8333 148.5,94.5C 130.5,94.5 112.5,94.5 94.5,94.5C 94.5,98.8333 94.5,103.167 94.5,107.5C 89.8333,107.5 85.1667,107.5 80.5,107.5C 80.5,102.833 80.5,98.1667 80.5,93.5C 84.8333,93.5 89.1667,93.5 93.5,93.5C 93.5,89.1667 93.5,84.8333 93.5,80.5C 111.5,80.5 129.5,80.5 147.5,80.5C 147.5,75.8333 147.5,71.1667 147.5,66.5C 161.167,66.5 174.833,66.5 188.5,66.5 Z"/></g>
<g><path style="opacity:0.937" fill="#549b00" d="M 324.5,80.5 C 329.167,80.5 333.833,80.5 338.5,80.5C 338.5,84.8333 338.5,89.1667 338.5,93.5C 333.833,93.5 329.167,93.5 324.5,93.5C 324.5,89.1667 324.5,84.8333 324.5,80.5 Z"/></g>
<g><path style="opacity:1" fill="#ecfe83" d="M 188.5,80.5 C 197.5,80.5 206.5,80.5 215.5,80.5C 215.5,84.8333 215.5,89.1667 215.5,93.5C 197.326,93.1699 179.326,93.5032 161.5,94.5C 161.5,98.8333 161.5,103.167 161.5,107.5C 157.167,107.5 152.833,107.5 148.5,107.5C 148.5,116.5 148.5,125.5 148.5,134.5C 152.833,134.5 157.167,134.5 161.5,134.5C 161.5,139.167 161.5,143.833 161.5,148.5C 166.167,148.5 170.833,148.5 175.5,148.5C 175.5,152.833 175.5,157.167 175.5,161.5C 157.5,161.5 139.5,161.5 121.5,161.5C 121.5,157.167 121.5,152.833 121.5,148.5C 112.5,148.5 103.5,148.5 94.5,148.5C 94.5,143.833 94.5,139.167 94.5,134.5C 85.5,134.5 76.5,134.5 67.5,134.5C 67.5,130.167 67.5,125.833 67.5,121.5C 67.5,116.833 67.5,112.167 67.5,107.5C 71.8333,107.5 76.1667,107.5 80.5,107.5C 85.1667,107.5 89.8333,107.5 94.5,107.5C 94.5,103.167 94.5,98.8333 94.5,94.5C 112.5,94.5 130.5,94.5 148.5,94.5C 148.5,89.8333 148.5,85.1667 148.5,80.5C 161.833,80.5 175.167,80.5 188.5,80.5 Z"/></g>
<g><path style="opacity:1" fill="#b7ea05" d="M 216.5,80.5 C 238.833,80.5 261.167,80.5 283.5,80.5C 283.5,85.1667 283.5,89.8333 283.5,94.5C 301.5,94.5 319.5,94.5 337.5,94.5C 337.5,98.8333 337.5,103.167 337.5,107.5C 342.167,107.5 346.833,107.5 351.5,107.5C 355.833,107.5 360.167,107.5 364.5,107.5C 364.181,112.363 364.514,117.03 365.5,121.5C 365.5,125.833 365.5,130.167 365.5,134.5C 360.833,134.5 356.167,134.5 351.5,134.5C 351.5,139.167 351.5,143.833 351.5,148.5C 342.5,148.5 333.5,148.5 324.5,148.5C 324.5,152.833 324.5,157.167 324.5,161.5C 306.167,161.5 287.833,161.5 269.5,161.5C 269.5,165.833 269.5,170.167 269.5,174.5C 251.833,174.5 234.167,174.5 216.5,174.5C 216.5,170.167 216.5,165.833 216.5,161.5C 202.833,161.5 189.167,161.5 175.5,161.5C 175.5,157.167 175.5,152.833 175.5,148.5C 170.833,148.5 166.167,148.5 161.5,148.5C 161.5,143.833 161.5,139.167 161.5,134.5C 157.167,134.5 152.833,134.5 148.5,134.5C 148.5,125.5 148.5,116.5 148.5,107.5C 152.833,107.5 157.167,107.5 161.5,107.5C 161.5,103.167 161.5,98.8333 161.5,94.5C 179.833,94.5 198.167,94.5 216.5,94.5C 216.5,89.8333 216.5,85.1667 216.5,80.5 Z"/></g>
<g><path style="opacity:1" fill="#ddf95e" d="M 215.5,80.5 C 215.833,80.5 216.167,80.5 216.5,80.5C 216.5,85.1667 216.5,89.8333 216.5,94.5C 198.167,94.5 179.833,94.5 161.5,94.5C 179.326,93.5032 197.326,93.1699 215.5,93.5C 215.5,89.1667 215.5,84.8333 215.5,80.5 Z"/></g>
<g><path style="opacity:0.971" fill="#589d02" d="M 351.5,93.5 C 356.167,93.5 360.833,93.5 365.5,93.5C 365.5,98.1667 365.5,102.833 365.5,107.5C 369.833,107.5 374.167,107.5 378.5,107.5C 378.5,111.833 378.5,116.167 378.5,120.5C 378.5,120.833 378.5,121.167 378.5,121.5C 374.167,121.5 369.833,121.5 365.5,121.5C 364.514,117.03 364.181,112.363 364.5,107.5C 360.167,107.5 355.833,107.5 351.5,107.5C 351.5,102.833 351.5,98.1667 351.5,93.5 Z"/></g>
<g><path style="opacity:0.955" fill="#6cbe01" d="M 80.5,93.5 C 80.5,98.1667 80.5,102.833 80.5,107.5C 76.1667,107.5 71.8333,107.5 67.5,107.5C 67.5,112.167 67.5,116.833 67.5,121.5C 62.8333,121.5 58.1667,121.5 53.5,121.5C 53.5,125.833 53.5,130.167 53.5,134.5C 49.1667,134.5 44.8333,134.5 40.5,134.5C 40.8195,139.363 40.4861,144.03 39.5,148.5C 39.5,143.833 39.5,139.167 39.5,134.5C 39.5,129.833 39.5,125.167 39.5,120.5C 44.1667,120.5 48.8333,120.5 53.5,120.5C 53.5,116.167 53.5,111.833 53.5,107.5C 57.8333,107.5 62.1667,107.5 66.5,107.5C 66.5,102.833 66.5,98.1667 66.5,93.5C 71.1667,93.5 75.8333,93.5 80.5,93.5 Z"/></g>
<g><path style="opacity:1" fill="#b7eb08" d="M 67.5,121.5 C 67.5,125.833 67.5,130.167 67.5,134.5C 76.5,134.5 85.5,134.5 94.5,134.5C 94.5,139.167 94.5,143.833 94.5,148.5C 103.5,148.5 112.5,148.5 121.5,148.5C 121.5,152.833 121.5,157.167 121.5,161.5C 121.5,161.833 121.5,162.167 121.5,162.5C 112.5,162.5 103.5,162.5 94.5,162.5C 94.5,166.833 94.5,171.167 94.5,175.5C 85.5,175.5 76.5,175.5 67.5,175.5C 67.5,179.833 67.5,184.167 67.5,188.5C 58.5,188.5 49.5,188.5 40.5,188.5C 40.5,184.167 40.5,179.833 40.5,175.5C 35.8333,175.5 31.1667,175.5 26.5,175.5C 26.5,170.833 26.5,166.167 26.5,161.5C 30.8333,161.5 35.1667,161.5 39.5,161.5C 39.5,157.167 39.5,152.833 39.5,148.5C 40.4861,144.03 40.8195,139.363 40.5,134.5C 44.8333,134.5 49.1667,134.5 53.5,134.5C 53.5,130.167 53.5,125.833 53.5,121.5C 58.1667,121.5 62.8333,121.5 67.5,121.5 Z"/></g>
<g><path style="opacity:1" fill="#eafd81" d="M 365.5,121.5 C 369.833,121.5 374.167,121.5 378.5,121.5C 378.5,125.833 378.5,130.167 378.5,134.5C 378.5,139.167 378.5,143.833 378.5,148.5C 369.5,148.5 360.5,148.5 351.5,148.5C 351.5,143.833 351.5,139.167 351.5,134.5C 356.167,134.5 360.833,134.5 365.5,134.5C 365.5,130.167 365.5,125.833 365.5,121.5 Z"/></g>
<g><path style="opacity:0.981" fill="#559b00" d="M 39.5,134.5 C 39.5,139.167 39.5,143.833 39.5,148.5C 35.1667,148.5 30.8333,148.5 26.5,148.5C 26.5,143.833 26.5,139.167 26.5,134.5C 30.8333,134.5 35.1667,134.5 39.5,134.5 Z"/></g>
<g><path style="opacity:0.971" fill="#437905" d="M 378.5,120.5 C 383.167,120.5 387.833,120.5 392.5,120.5C 392.5,125.167 392.5,129.833 392.5,134.5C 396.833,134.5 401.167,134.5 405.5,134.5C 405.5,139.167 405.5,143.833 405.5,148.5C 401.167,148.5 396.833,148.5 392.5,148.5C 392.5,152.833 392.5,157.167 392.5,161.5C 391.507,152.682 391.173,143.682 391.5,134.5C 387.167,134.5 382.833,134.5 378.5,134.5C 378.5,130.167 378.5,125.833 378.5,121.5C 378.5,121.167 378.5,120.833 378.5,120.5 Z"/></g>
<g><path style="opacity:1" fill="#559b01" d="M 378.5,134.5 C 382.833,134.5 387.167,134.5 391.5,134.5C 391.173,143.682 391.507,152.682 392.5,161.5C 396.833,161.5 401.167,161.5 405.5,161.5C 405.5,161.833 405.5,162.167 405.5,162.5C 400.833,162.5 396.167,162.5 391.5,162.5C 391.5,171.167 391.5,179.833 391.5,188.5C 387.167,188.5 382.833,188.5 378.5,188.5C 378.5,193.167 378.5,197.833 378.5,202.5C 373.833,202.5 369.167,202.5 364.5,202.5C 364.5,198.167 364.5,193.833 364.5,189.5C 360.167,189.5 355.833,189.5 351.5,189.5C 351.5,184.833 351.5,180.167 351.5,175.5C 346.833,175.5 342.167,175.5 337.5,175.5C 337.5,171.167 337.5,166.833 337.5,162.5C 333.167,162.5 328.833,162.5 324.5,162.5C 324.5,162.167 324.5,161.833 324.5,161.5C 333.5,161.5 342.5,161.5 351.5,161.5C 351.5,157.167 351.5,152.833 351.5,148.5C 360.5,148.5 369.5,148.5 378.5,148.5C 378.5,143.833 378.5,139.167 378.5,134.5 Z"/></g>
<g><path style="opacity:1" fill="#69be00" d="M 26.5,148.5 C 30.8333,148.5 35.1667,148.5 39.5,148.5C 39.5,152.833 39.5,157.167 39.5,161.5C 35.1667,161.5 30.8333,161.5 26.5,161.5C 26.5,157.167 26.5,152.833 26.5,148.5 Z"/></g>
<g><path style="opacity:1" fill="#ebfe82" d="M 351.5,148.5 C 351.5,152.833 351.5,157.167 351.5,161.5C 342.5,161.5 333.5,161.5 324.5,161.5C 324.5,157.167 324.5,152.833 324.5,148.5C 333.5,148.5 342.5,148.5 351.5,148.5 Z"/></g>
<g><path style="opacity:0.99" fill="#496769" d="M 405.5,148.5 C 405.5,152.833 405.5,157.167 405.5,161.5C 401.167,161.5 396.833,161.5 392.5,161.5C 392.5,157.167 392.5,152.833 392.5,148.5C 396.833,148.5 401.167,148.5 405.5,148.5 Z"/></g>
<g><path style="opacity:0.956" fill="#549a00" d="M 26.5,161.5 C 26.5,166.167 26.5,170.833 26.5,175.5C 26.5,184.5 26.5,193.5 26.5,202.5C 21.8333,202.5 17.1667,202.5 12.5,202.5C 12.5,188.833 12.5,175.167 12.5,161.5C 17.1667,161.5 21.8333,161.5 26.5,161.5 Z"/></g>
<g><path style="opacity:0.977" fill="#496769" d="M 405.5,161.5 C 410.167,161.5 414.833,161.5 419.5,161.5C 419.5,175.167 419.5,188.833 419.5,202.5C 414.833,202.5 410.167,202.5 405.5,202.5C 405.5,211.5 405.5,220.5 405.5,229.5C 401.167,229.5 396.833,229.5 392.5,229.5C 392.5,238.833 392.5,248.167 392.5,257.5C 387.833,257.5 383.167,257.5 378.5,257.5C 378.5,261.833 378.5,266.167 378.5,270.5C 374.167,270.5 369.833,270.5 365.5,270.5C 365.5,265.833 365.5,261.167 365.5,256.5C 369.833,256.5 374.167,256.5 378.5,256.5C 378.5,252.167 378.5,247.833 378.5,243.5C 378.5,238.833 378.5,234.167 378.5,229.5C 382.833,229.5 387.167,229.5 391.5,229.5C 391.5,224.833 391.5,220.167 391.5,215.5C 387.167,215.5 382.833,215.5 378.5,215.5C 378.5,211.167 378.5,206.833 378.5,202.5C 382.833,202.5 387.167,202.5 391.5,202.5C 391.334,198.154 391.501,193.821 392,189.5C 396.401,188.533 400.901,188.2 405.5,188.5C 405.5,179.833 405.5,171.167 405.5,162.5C 405.5,162.167 405.5,161.833 405.5,161.5 Z"/></g>
<g><path style="opacity:1" fill="#ecfe84" d="M 121.5,162.5 C 121.5,166.5 121.5,170.5 121.5,174.5C 121.5,174.833 121.5,175.167 121.5,175.5C 121.5,179.833 121.5,184.167 121.5,188.5C 125.833,188.5 130.167,188.5 134.5,188.5C 134.5,193.167 134.5,197.833 134.5,202.5C 139.167,202.5 143.833,202.5 148.5,202.5C 148.5,207.167 148.5,211.833 148.5,216.5C 152.833,216.5 157.167,216.5 161.5,216.5C 161.5,220.833 161.5,225.167 161.5,229.5C 148.167,229.5 134.833,229.5 121.5,229.5C 121.5,225.167 121.5,220.833 121.5,216.5C 107.833,216.5 94.1667,216.5 80.5,216.5C 80.5,211.833 80.5,207.167 80.5,202.5C 71.5,202.5 62.5,202.5 53.5,202.5C 53.5,198.167 53.5,193.833 53.5,189.5C 48.9677,189.818 44.6344,189.485 40.5,188.5C 49.5,188.5 58.5,188.5 67.5,188.5C 67.5,184.167 67.5,179.833 67.5,175.5C 76.5,175.5 85.5,175.5 94.5,175.5C 94.5,171.167 94.5,166.833 94.5,162.5C 103.5,162.5 112.5,162.5 121.5,162.5 Z"/></g>
<g><path style="opacity:1" fill="#f6f4e5" d="M 121.5,162.5 C 139.167,162.5 156.833,162.5 174.5,162.5C 174.5,166.5 174.5,170.5 174.5,174.5C 156.833,174.5 139.167,174.5 121.5,174.5C 121.5,170.5 121.5,166.5 121.5,162.5 Z"/></g>
<g><path style="opacity:1" fill="#edfe84" d="M 175.5,162.5 C 188.833,162.5 202.167,162.5 215.5,162.5C 215.5,166.833 215.5,171.167 215.5,175.5C 202.167,175.5 188.833,175.5 175.5,175.5C 175.5,171.167 175.5,166.833 175.5,162.5 Z"/></g>
<g><path style="opacity:1" fill="#eafd82" d="M 324.5,162.5 C 324.5,166.833 324.5,171.167 324.5,175.5C 315.167,175.5 305.833,175.5 296.5,175.5C 287.833,175.5 279.167,175.5 270.5,175.5C 270.5,171.167 270.5,166.833 270.5,162.5C 288.5,162.5 306.5,162.5 324.5,162.5 Z"/></g>
<g><path style="opacity:1" fill="#437900" d="M 324.5,162.5 C 328.833,162.5 333.167,162.5 337.5,162.5C 337.5,166.833 337.5,171.167 337.5,175.5C 342.167,175.5 346.833,175.5 351.5,175.5C 351.5,180.167 351.5,184.833 351.5,189.5C 355.833,189.5 360.167,189.5 364.5,189.5C 364.5,193.833 364.5,198.167 364.5,202.5C 360.167,202.5 355.833,202.5 351.5,202.5C 350.515,206.634 350.182,210.968 350.5,215.5C 336.99,215.171 323.656,215.504 310.5,216.5C 310.5,220.833 310.5,225.167 310.5,229.5C 297.167,229.5 283.833,229.5 270.5,229.5C 270.5,224.833 270.5,220.167 270.5,215.5C 270.5,211.167 270.5,206.833 270.5,202.5C 274.833,202.5 279.167,202.5 283.5,202.5C 283.5,197.833 283.5,193.167 283.5,188.5C 287.833,188.5 292.167,188.5 296.5,188.5C 296.5,184.167 296.5,179.833 296.5,175.5C 305.833,175.5 315.167,175.5 324.5,175.5C 324.5,171.167 324.5,166.833 324.5,162.5 Z"/></g>
<g><path style="opacity:1" fill="#69bc00" d="M 405.5,162.5 C 405.5,171.167 405.5,179.833 405.5,188.5C 400.901,188.2 396.401,188.533 392,189.5C 391.501,193.821 391.334,198.154 391.5,202.5C 387.167,202.5 382.833,202.5 378.5,202.5C 378.5,197.833 378.5,193.167 378.5,188.5C 382.833,188.5 387.167,188.5 391.5,188.5C 391.5,179.833 391.5,171.167 391.5,162.5C 396.167,162.5 400.833,162.5 405.5,162.5 Z"/></g>
<g><path style="opacity:1" fill="#ebf1c8" d="M 121.5,162.5 C 121.5,162.167 121.5,161.833 121.5,161.5C 139.5,161.5 157.5,161.5 175.5,161.5C 175.5,161.833 175.5,162.167 175.5,162.5C 175.5,166.833 175.5,171.167 175.5,175.5C 157.5,175.5 139.5,175.5 121.5,175.5C 121.5,175.167 121.5,174.833 121.5,174.5C 139.167,174.5 156.833,174.5 174.5,174.5C 174.5,170.5 174.5,166.5 174.5,162.5C 156.833,162.5 139.167,162.5 121.5,162.5 Z"/></g>
<g><path style="opacity:1" fill="#cbf23a" d="M 175.5,162.5 C 175.5,162.167 175.5,161.833 175.5,161.5C 189.167,161.5 202.833,161.5 216.5,161.5C 216.5,165.833 216.5,170.167 216.5,174.5C 234.167,174.5 251.833,174.5 269.5,174.5C 269.5,170.167 269.5,165.833 269.5,161.5C 287.833,161.5 306.167,161.5 324.5,161.5C 324.5,161.833 324.5,162.167 324.5,162.5C 306.5,162.5 288.5,162.5 270.5,162.5C 270.5,166.833 270.5,171.167 270.5,175.5C 270.167,175.5 269.833,175.5 269.5,175.5C 251.5,175.5 233.5,175.5 215.5,175.5C 215.5,171.167 215.5,166.833 215.5,162.5C 202.167,162.5 188.833,162.5 175.5,162.5 Z"/></g>
<g><path style="opacity:1" fill="#f6f4e5" d="M 26.5,175.5 C 31.1667,175.5 35.8333,175.5 40.5,175.5C 40.5,179.833 40.5,184.167 40.5,188.5C 44.6344,189.485 48.9677,189.818 53.5,189.5C 53.5,193.833 53.5,198.167 53.5,202.5C 62.5,202.5 71.5,202.5 80.5,202.5C 80.5,207.167 80.5,211.833 80.5,216.5C 94.1667,216.5 107.833,216.5 121.5,216.5C 121.5,220.833 121.5,225.167 121.5,229.5C 134.833,229.5 148.167,229.5 161.5,229.5C 166.167,229.5 170.833,229.5 175.5,229.5C 175.5,233.833 175.5,238.167 175.5,242.5C 161.656,242.171 147.99,242.504 134.5,243.5C 134.5,256.833 134.5,270.167 134.5,283.5C 130.167,283.5 125.833,283.5 121.5,283.5C 121.5,274.5 121.5,265.5 121.5,256.5C 116.833,256.5 112.167,256.5 107.5,256.5C 107.5,251.833 107.5,247.167 107.5,242.5C 103.167,242.5 98.8333,242.5 94.5,242.5C 94.5,238.167 94.5,233.833 94.5,229.5C 85.5,229.5 76.5,229.5 67.5,229.5C 67.5,224.833 67.5,220.167 67.5,215.5C 58.5,215.5 49.5,215.5 40.5,215.5C 40.8182,210.968 40.4849,206.634 39.5,202.5C 35.1667,202.5 30.8333,202.5 26.5,202.5C 26.5,193.5 26.5,184.5 26.5,175.5 Z"/></g>
<g><path style="opacity:1" fill="#6bbe03" d="M 121.5,175.5 C 139.5,175.5 157.5,175.5 175.5,175.5C 175.5,179.833 175.5,184.167 175.5,188.5C 188.833,188.5 202.167,188.5 215.5,188.5C 216.441,193.07 216.774,197.737 216.5,202.5C 211.833,202.5 207.167,202.5 202.5,202.5C 202.5,206.833 202.5,211.167 202.5,215.5C 197.833,215.5 193.167,215.5 188.5,215.5C 188.5,220.167 188.5,224.833 188.5,229.5C 184.167,229.5 179.833,229.5 175.5,229.5C 170.833,229.5 166.167,229.5 161.5,229.5C 161.5,225.167 161.5,220.833 161.5,216.5C 157.167,216.5 152.833,216.5 148.5,216.5C 148.5,211.833 148.5,207.167 148.5,202.5C 143.833,202.5 139.167,202.5 134.5,202.5C 134.5,197.833 134.5,193.167 134.5,188.5C 130.167,188.5 125.833,188.5 121.5,188.5C 121.5,184.167 121.5,179.833 121.5,175.5 Z"/></g>
<g><path style="opacity:1" fill="#f6f4e5" d="M 175.5,175.5 C 188.833,175.5 202.167,175.5 215.5,175.5C 215.5,179.833 215.5,184.167 215.5,188.5C 202.167,188.5 188.833,188.5 175.5,188.5C 175.5,184.167 175.5,179.833 175.5,175.5 Z"/></g>
<g><path style="opacity:1" fill="#edfe84" d="M 215.5,175.5 C 233.5,175.5 251.5,175.5 269.5,175.5C 269.5,179.833 269.5,184.167 269.5,188.5C 260.5,188.5 251.5,188.5 242.5,188.5C 233.5,188.5 224.5,188.5 215.5,188.5C 215.5,184.167 215.5,179.833 215.5,175.5 Z"/></g>
<g><path style="opacity:1" fill="#559a00" d="M 270.5,175.5 C 279.167,175.5 287.833,175.5 296.5,175.5C 296.5,179.833 296.5,184.167 296.5,188.5C 292.167,188.5 287.833,188.5 283.5,188.5C 283.5,193.167 283.5,197.833 283.5,202.5C 279.167,202.5 274.833,202.5 270.5,202.5C 270.5,206.833 270.5,211.167 270.5,215.5C 265.833,215.5 261.167,215.5 256.5,215.5C 256.5,211.167 256.5,206.833 256.5,202.5C 252.167,202.5 247.833,202.5 243.5,202.5C 243.5,198.167 243.5,193.833 243.5,189.5C 252.5,189.5 261.5,189.5 270.5,189.5C 270.5,184.833 270.5,180.167 270.5,175.5 Z"/></g>
<g><path style="opacity:1" fill="#93c532" d="M 269.5,175.5 C 269.833,175.5 270.167,175.5 270.5,175.5C 270.5,180.167 270.5,184.833 270.5,189.5C 261.5,189.5 252.5,189.5 243.5,189.5C 243.5,193.833 243.5,198.167 243.5,202.5C 242.514,198.03 242.181,193.363 242.5,188.5C 251.5,188.5 260.5,188.5 269.5,188.5C 269.5,184.167 269.5,179.833 269.5,175.5 Z"/></g>
<g><path style="opacity:1" fill="#b6ea07" d="M 215.5,188.5 C 224.5,188.5 233.5,188.5 242.5,188.5C 242.181,193.363 242.514,198.03 243.5,202.5C 247.833,202.5 252.167,202.5 256.5,202.5C 256.5,206.833 256.5,211.167 256.5,215.5C 260.634,216.485 264.968,216.818 269.5,216.5C 269.5,220.833 269.5,225.167 269.5,229.5C 260.833,229.5 252.167,229.5 243.5,229.5C 243.818,234.032 243.485,238.366 242.5,242.5C 242.5,238.167 242.5,233.833 242.5,229.5C 224.5,229.5 206.5,229.5 188.5,229.5C 188.5,224.833 188.5,220.167 188.5,215.5C 193.167,215.5 197.833,215.5 202.5,215.5C 202.5,211.167 202.5,206.833 202.5,202.5C 207.167,202.5 211.833,202.5 216.5,202.5C 216.774,197.737 216.441,193.07 215.5,188.5 Z"/></g>
<g><path style="opacity:1" fill="#b6eb04" d="M 26.5,202.5 C 30.8333,202.5 35.1667,202.5 39.5,202.5C 39.5,206.833 39.5,211.167 39.5,215.5C 35.1667,215.5 30.8333,215.5 26.5,215.5C 26.5,211.167 26.5,206.833 26.5,202.5 Z"/></g>
<g><path style="opacity:1" fill="#69bd00" d="M 351.5,202.5 C 355.833,202.5 360.167,202.5 364.5,202.5C 369.167,202.5 373.833,202.5 378.5,202.5C 378.5,206.833 378.5,211.167 378.5,215.5C 369.5,215.5 360.5,215.5 351.5,215.5C 351.5,211.167 351.5,206.833 351.5,202.5 Z"/></g>
<g><path style="opacity:1" fill="#f1f9b2" d="M 40.5,216.5 C 40.5,216.167 40.5,215.833 40.5,215.5C 49.5,215.5 58.5,215.5 67.5,215.5C 67.5,220.167 67.5,224.833 67.5,229.5C 66.5151,225.366 66.1818,221.032 66.5,216.5C 57.8333,216.5 49.1667,216.5 40.5,216.5 Z"/></g>
<g><path style="opacity:1" fill="#55970e" d="M 351.5,202.5 C 351.5,206.833 351.5,211.167 351.5,215.5C 360.5,215.5 369.5,215.5 378.5,215.5C 378.5,215.833 378.5,216.167 378.5,216.5C 374.167,216.5 369.833,216.5 365.5,216.5C 360.833,216.5 356.167,216.5 351.5,216.5C 337.833,216.5 324.167,216.5 310.5,216.5C 323.656,215.504 336.99,215.171 350.5,215.5C 350.182,210.968 350.515,206.634 351.5,202.5 Z"/></g>
<g><path style="opacity:1" fill="#549b00" d="M 26.5,216.5 C 30.8333,216.5 35.1667,216.5 39.5,216.5C 39.5,220.833 39.5,225.167 39.5,229.5C 39.5,225.167 39.5,220.833 39.5,216.5C 35.1667,216.5 30.8333,216.5 26.5,216.5 Z"/></g>
<g><path style="opacity:1" fill="#9ccc34" d="M 39.5,202.5 C 40.4849,206.634 40.8182,210.968 40.5,215.5C 40.5,215.833 40.5,216.167 40.5,216.5C 40.5,220.833 40.5,225.167 40.5,229.5C 40.1667,229.5 39.8333,229.5 39.5,229.5C 39.5,225.167 39.5,220.833 39.5,216.5C 35.1667,216.5 30.8333,216.5 26.5,216.5C 26.5,216.167 26.5,215.833 26.5,215.5C 30.8333,215.5 35.1667,215.5 39.5,215.5C 39.5,211.167 39.5,206.833 39.5,202.5 Z"/></g>
<g><path style="opacity:1" fill="#ecfe83" d="M 40.5,216.5 C 49.1667,216.5 57.8333,216.5 66.5,216.5C 66.1818,221.032 66.5151,225.366 67.5,229.5C 76.5,229.5 85.5,229.5 94.5,229.5C 94.5,233.833 94.5,238.167 94.5,242.5C 98.8333,242.5 103.167,242.5 107.5,242.5C 107.5,247.167 107.5,251.833 107.5,256.5C 112.167,256.5 116.833,256.5 121.5,256.5C 121.5,265.5 121.5,274.5 121.5,283.5C 125.833,283.5 130.167,283.5 134.5,283.5C 134.173,292.682 134.507,301.682 135.5,310.5C 139.5,310.5 143.5,310.5 147.5,310.5C 147.833,310.5 148.167,310.5 148.5,310.5C 152.833,310.5 157.167,310.5 161.5,310.5C 161.5,319.5 161.5,328.5 161.5,337.5C 166.167,337.5 170.833,337.5 175.5,337.5C 175.5,346.5 175.5,355.5 175.5,364.5C 170.833,364.5 166.167,364.5 161.5,364.5C 161.5,360.167 161.5,355.833 161.5,351.5C 157.167,351.5 152.833,351.5 148.5,351.5C 148.5,346.833 148.5,342.167 148.5,337.5C 143.833,337.5 139.167,337.5 134.5,337.5C 134.5,333.167 134.5,328.833 134.5,324.5C 130.167,324.5 125.833,324.5 121.5,324.5C 121.5,319.833 121.5,315.167 121.5,310.5C 116.833,310.5 112.167,310.5 107.5,310.5C 107.5,305.833 107.5,301.167 107.5,296.5C 103.167,296.5 98.8333,296.5 94.5,296.5C 94.5,292.167 94.5,287.833 94.5,283.5C 89.8333,283.5 85.1667,283.5 80.5,283.5C 80.5,279.167 80.5,274.833 80.5,270.5C 76.1667,270.5 71.8333,270.5 67.5,270.5C 67.5,265.833 67.5,261.167 67.5,256.5C 62.8333,256.5 58.1667,256.5 53.5,256.5C 53.5,252.167 53.5,247.833 53.5,243.5C 53.5,238.833 53.5,234.167 53.5,229.5C 49.1667,229.5 44.8333,229.5 40.5,229.5C 40.5,225.167 40.5,220.833 40.5,216.5 Z"/></g>
<g><path style="opacity:1" fill="#69bd00" d="M 310.5,216.5 C 324.167,216.5 337.833,216.5 351.5,216.5C 351.5,220.833 351.5,225.167 351.5,229.5C 337.833,229.5 324.167,229.5 310.5,229.5C 310.5,225.167 310.5,220.833 310.5,216.5 Z"/></g>
<g><path style="opacity:1" fill="#486769" d="M 365.5,216.5 C 369.833,216.5 374.167,216.5 378.5,216.5C 378.5,220.833 378.5,225.167 378.5,229.5C 374.167,229.5 369.833,229.5 365.5,229.5C 365.5,225.167 365.5,220.833 365.5,216.5 Z"/></g>
<g><path style="opacity:1" fill="#437806" d="M 378.5,215.5 C 382.833,215.5 387.167,215.5 391.5,215.5C 391.5,220.167 391.5,224.833 391.5,229.5C 387.167,229.5 382.833,229.5 378.5,229.5C 378.5,225.167 378.5,220.833 378.5,216.5C 378.5,216.167 378.5,215.833 378.5,215.5 Z"/></g>
<g><path style="opacity:0.955" fill="#b3e804" d="M 39.5,229.5 C 39.8333,229.5 40.1667,229.5 40.5,229.5C 44.8333,229.5 49.1667,229.5 53.5,229.5C 53.5,234.167 53.5,238.833 53.5,243.5C 48.8333,243.5 44.1667,243.5 39.5,243.5C 39.5,238.833 39.5,234.167 39.5,229.5 Z"/></g>
<g><path style="opacity:1" fill="#ebfd83" d="M 175.5,229.5 C 179.833,229.5 184.167,229.5 188.5,229.5C 206.5,229.5 224.5,229.5 242.5,229.5C 242.5,233.833 242.5,238.167 242.5,242.5C 242.5,242.833 242.5,243.167 242.5,243.5C 229.167,243.5 215.833,243.5 202.5,243.5C 202.5,261.167 202.5,278.833 202.5,296.5C 198.167,296.5 193.833,296.5 189.5,296.5C 189.5,278.5 189.5,260.5 189.5,242.5C 184.833,242.5 180.167,242.5 175.5,242.5C 175.5,238.167 175.5,233.833 175.5,229.5 Z"/></g>
<g><path style="opacity:1" fill="#6abd01" d="M 256.5,215.5 C 261.167,215.5 265.833,215.5 270.5,215.5C 270.5,220.167 270.5,224.833 270.5,229.5C 283.833,229.5 297.167,229.5 310.5,229.5C 310.5,233.833 310.5,238.167 310.5,242.5C 301.5,242.5 292.5,242.5 283.5,242.5C 283.5,251.5 283.5,260.5 283.5,269.5C 279.167,269.5 274.833,269.5 270.5,269.5C 270.826,260.651 270.493,251.984 269.5,243.5C 260.5,243.5 251.5,243.5 242.5,243.5C 242.5,243.167 242.5,242.833 242.5,242.5C 243.485,238.366 243.818,234.032 243.5,229.5C 252.167,229.5 260.833,229.5 269.5,229.5C 269.5,225.167 269.5,220.833 269.5,216.5C 264.968,216.818 260.634,216.485 256.5,215.5 Z"/></g>
<g><path style="opacity:1" fill="#437901" d="M 310.5,229.5 C 324.167,229.5 337.833,229.5 351.5,229.5C 351.5,233.833 351.5,238.167 351.5,242.5C 346.833,242.5 342.167,242.5 337.5,242.5C 337.5,247.167 337.5,251.833 337.5,256.5C 333.167,256.5 328.833,256.5 324.5,256.5C 324.5,261.167 324.5,265.833 324.5,270.5C 319.833,270.5 315.167,270.5 310.5,270.5C 310.5,274.833 310.5,279.167 310.5,283.5C 306.167,283.5 301.833,283.5 297.5,283.5C 297.5,288.167 297.5,292.833 297.5,297.5C 292.833,297.5 288.167,297.5 283.5,297.5C 283.5,306.5 283.5,315.5 283.5,324.5C 279.167,324.5 274.833,324.5 270.5,324.5C 269.507,332.984 269.174,341.651 269.5,350.5C 265.167,350.5 260.833,350.5 256.5,350.5C 256.5,337.167 256.5,323.833 256.5,310.5C 260.833,310.5 265.167,310.5 269.5,310.5C 270.496,297.344 270.829,284.01 270.5,270.5C 275.032,270.818 279.366,270.485 283.5,269.5C 283.5,260.5 283.5,251.5 283.5,242.5C 292.5,242.5 301.5,242.5 310.5,242.5C 310.5,238.167 310.5,233.833 310.5,229.5 Z"/></g>
<g><path style="opacity:1" fill="#496769" d="M 351.5,229.5 C 355.833,229.5 360.167,229.5 364.5,229.5C 364.5,238.5 364.5,247.5 364.5,256.5C 360.167,256.5 355.833,256.5 351.5,256.5C 350.515,260.634 350.182,264.968 350.5,269.5C 345.968,269.182 341.634,269.515 337.5,270.5C 337.5,279.167 337.5,287.833 337.5,296.5C 332.833,296.5 328.167,296.5 323.5,296.5C 323.5,301.167 323.5,305.833 323.5,310.5C 319.167,310.5 314.833,310.5 310.5,310.5C 310.5,315.167 310.5,319.833 310.5,324.5C 306.167,324.5 301.833,324.5 297.5,324.5C 296.515,328.634 296.182,332.968 296.5,337.5C 292.167,337.5 287.833,337.5 283.5,337.5C 283.5,342.167 283.5,346.833 283.5,351.5C 279.167,351.5 274.833,351.5 270.5,351.5C 270.5,342.5 270.5,333.5 270.5,324.5C 274.833,324.5 279.167,324.5 283.5,324.5C 283.5,315.5 283.5,306.5 283.5,297.5C 288.167,297.5 292.833,297.5 297.5,297.5C 297.5,292.833 297.5,288.167 297.5,283.5C 301.833,283.5 306.167,283.5 310.5,283.5C 310.5,279.167 310.5,274.833 310.5,270.5C 315.167,270.5 319.833,270.5 324.5,270.5C 324.5,265.833 324.5,261.167 324.5,256.5C 328.833,256.5 333.167,256.5 337.5,256.5C 338.485,252.366 338.818,248.032 338.5,243.5C 343.032,243.818 347.366,243.485 351.5,242.5C 351.5,238.167 351.5,233.833 351.5,229.5 Z"/></g>
<g><path style="opacity:1" fill="#467c0d" d="M 351.5,216.5 C 356.167,216.5 360.833,216.5 365.5,216.5C 365.5,220.833 365.5,225.167 365.5,229.5C 369.833,229.5 374.167,229.5 378.5,229.5C 378.5,234.167 378.5,238.833 378.5,243.5C 374.167,243.5 369.833,243.5 365.5,243.5C 365.5,247.833 365.5,252.167 365.5,256.5C 365.5,261.167 365.5,265.833 365.5,270.5C 360.833,270.5 356.167,270.5 351.5,270.5C 351.5,270.167 351.5,269.833 351.5,269.5C 355.833,269.5 360.167,269.5 364.5,269.5C 364.5,265.167 364.5,260.833 364.5,256.5C 364.5,247.5 364.5,238.5 364.5,229.5C 360.167,229.5 355.833,229.5 351.5,229.5C 351.5,225.167 351.5,220.833 351.5,216.5 Z"/></g>
<g><path style="opacity:0.955" fill="#549a00" d="M 39.5,243.5 C 44.1667,243.5 48.8333,243.5 53.5,243.5C 53.5,247.833 53.5,252.167 53.5,256.5C 53.5,256.833 53.5,257.167 53.5,257.5C 48.8333,257.5 44.1667,257.5 39.5,257.5C 39.5,252.833 39.5,248.167 39.5,243.5 Z"/></g>
<g><path style="opacity:1" fill="#b7ea08" d="M 134.5,243.5 C 152.5,243.5 170.5,243.5 188.5,243.5C 188.17,261.341 188.503,279.008 189.5,296.5C 193.833,296.5 198.167,296.5 202.5,296.5C 202.5,296.833 202.5,297.167 202.5,297.5C 202.5,324.5 202.5,351.5 202.5,378.5C 198.167,378.5 193.833,378.5 189.5,378.5C 189.5,382.833 189.5,387.167 189.5,391.5C 193.833,391.5 198.167,391.5 202.5,391.5C 202.5,396.167 202.5,400.833 202.5,405.5C 197.833,405.5 193.167,405.5 188.5,405.5C 188.5,401.167 188.5,396.833 188.5,392.5C 184.167,392.5 179.833,392.5 175.5,392.5C 175.5,387.833 175.5,383.167 175.5,378.5C 170.833,378.5 166.167,378.5 161.5,378.5C 161.5,374.167 161.5,369.833 161.5,365.5C 157.167,365.5 152.833,365.5 148.5,365.5C 148.5,360.833 148.5,356.167 148.5,351.5C 152.833,351.5 157.167,351.5 161.5,351.5C 161.5,355.833 161.5,360.167 161.5,364.5C 166.167,364.5 170.833,364.5 175.5,364.5C 175.5,355.5 175.5,346.5 175.5,337.5C 170.833,337.5 166.167,337.5 161.5,337.5C 161.5,328.5 161.5,319.5 161.5,310.5C 157.167,310.5 152.833,310.5 148.5,310.5C 148.5,301.5 148.5,292.5 148.5,283.5C 143.833,283.5 139.167,283.5 134.5,283.5C 134.5,270.167 134.5,256.833 134.5,243.5 Z"/></g>
<g><path style="opacity:1" fill="#d7f55c" d="M 134.5,243.5 C 147.99,242.504 161.656,242.171 175.5,242.5C 180.167,242.5 184.833,242.5 189.5,242.5C 189.5,260.5 189.5,278.5 189.5,296.5C 188.503,279.008 188.17,261.341 188.5,243.5C 170.5,243.5 152.5,243.5 134.5,243.5 Z"/></g>
<g><path style="opacity:1" fill="#66a35b" d="M 242.5,243.5 C 251.5,243.5 260.5,243.5 269.5,243.5C 269.5,252.167 269.5,260.833 269.5,269.5C 264.968,269.182 260.634,269.515 256.5,270.5C 256.5,283.833 256.5,297.167 256.5,310.5C 252.167,310.5 247.833,310.5 243.5,310.5C 242.504,323.656 242.171,336.99 242.5,350.5C 237.968,350.182 233.634,350.515 229.5,351.5C 229.5,364.833 229.5,378.167 229.5,391.5C 225.167,391.5 220.833,391.5 216.5,391.5C 216.5,360.167 216.5,328.833 216.5,297.5C 211.833,297.5 207.167,297.5 202.5,297.5C 202.5,297.167 202.5,296.833 202.5,296.5C 202.5,278.833 202.5,261.167 202.5,243.5C 215.833,243.5 229.167,243.5 242.5,243.5 Z"/></g>
<g><path style="opacity:1" fill="#476c46" d="M 351.5,242.5 C 347.366,243.485 343.032,243.818 338.5,243.5C 338.818,248.032 338.485,252.366 337.5,256.5C 337.5,251.833 337.5,247.167 337.5,242.5C 342.167,242.5 346.833,242.5 351.5,242.5 Z"/></g>
<g><path style="opacity:1" fill="#69bd01" d="M 378.5,243.5 C 378.5,247.833 378.5,252.167 378.5,256.5C 374.167,256.5 369.833,256.5 365.5,256.5C 365.5,252.167 365.5,247.833 365.5,243.5C 369.833,243.5 374.167,243.5 378.5,243.5 Z"/></g>
<g><path style="opacity:1" fill="#69bd01" d="M 351.5,256.5 C 355.833,256.5 360.167,256.5 364.5,256.5C 364.5,260.833 364.5,265.167 364.5,269.5C 360.167,269.5 355.833,269.5 351.5,269.5C 351.5,265.167 351.5,260.833 351.5,256.5 Z"/></g>
<g><path style="opacity:1" fill="#4a7246" d="M 351.5,256.5 C 351.5,260.833 351.5,265.167 351.5,269.5C 351.5,269.833 351.5,270.167 351.5,270.5C 346.833,270.5 342.167,270.5 337.5,270.5C 341.634,269.515 345.968,269.182 350.5,269.5C 350.182,264.968 350.515,260.634 351.5,256.5 Z"/></g>
<g><path style="opacity:0.955" fill="#b7eb09" d="M 53.5,256.5 C 58.1667,256.5 62.8333,256.5 67.5,256.5C 67.5,261.167 67.5,265.833 67.5,270.5C 71.8333,270.5 76.1667,270.5 80.5,270.5C 80.5,274.833 80.5,279.167 80.5,283.5C 85.1667,283.5 89.8333,283.5 94.5,283.5C 94.5,287.833 94.5,292.167 94.5,296.5C 98.8333,296.5 103.167,296.5 107.5,296.5C 107.5,301.167 107.5,305.833 107.5,310.5C 102.833,310.5 98.1667,310.5 93.5,310.5C 93.5,306.167 93.5,301.833 93.5,297.5C 89.1667,297.5 84.8333,297.5 80.5,297.5C 80.5,293.167 80.5,288.833 80.5,284.5C 75.8333,284.5 71.1667,284.5 66.5,284.5C 66.5,279.833 66.5,275.167 66.5,270.5C 62.1667,270.5 57.8333,270.5 53.5,270.5C 53.5,266.167 53.5,261.833 53.5,257.5C 53.5,257.167 53.5,256.833 53.5,256.5 Z"/></g>
<g><path style="opacity:1" fill="#69bd00" d="M 256.5,270.5 C 260.833,270.5 265.167,270.5 269.5,270.5C 269.5,283.833 269.5,297.167 269.5,310.5C 265.167,310.5 260.833,310.5 256.5,310.5C 256.5,297.167 256.5,283.833 256.5,270.5 Z"/></g>
<g><path style="opacity:1" fill="#5fa71c" d="M 269.5,243.5 C 270.493,251.984 270.826,260.651 270.5,269.5C 274.833,269.5 279.167,269.5 283.5,269.5C 279.366,270.485 275.032,270.818 270.5,270.5C 270.829,284.01 270.496,297.344 269.5,310.5C 269.5,297.167 269.5,283.833 269.5,270.5C 265.167,270.5 260.833,270.5 256.5,270.5C 260.634,269.515 264.968,269.182 269.5,269.5C 269.5,260.833 269.5,252.167 269.5,243.5 Z"/></g>
<g><path style="opacity:1" fill="#467c08" d="M 337.5,270.5 C 342.167,270.5 346.833,270.5 351.5,270.5C 351.5,274.833 351.5,279.167 351.5,283.5C 347.167,283.5 342.833,283.5 338.5,283.5C 338.5,287.833 338.5,292.167 338.5,296.5C 342.833,296.5 347.167,296.5 351.5,296.5C 351.5,296.833 351.5,297.167 351.5,297.5C 347.167,297.5 342.833,297.5 338.5,297.5C 338.167,297.5 337.833,297.5 337.5,297.5C 337.5,297.167 337.5,296.833 337.5,296.5C 337.5,287.833 337.5,279.167 337.5,270.5 Z"/></g>
<g><path style="opacity:0.9" fill="#486669" d="M 351.5,270.5 C 356.167,270.5 360.833,270.5 365.5,270.5C 365.5,275.167 365.5,279.833 365.5,284.5C 360.833,284.5 356.167,284.5 351.5,284.5C 351.5,284.167 351.5,283.833 351.5,283.5C 351.5,279.167 351.5,274.833 351.5,270.5 Z"/></g>
<g><path style="opacity:1" fill="#f0f4ca" d="M 134.5,283.5 C 139.167,283.5 143.833,283.5 148.5,283.5C 148.5,292.5 148.5,301.5 148.5,310.5C 148.167,310.5 147.833,310.5 147.5,310.5C 147.5,301.833 147.5,293.167 147.5,284.5C 143.5,284.5 139.5,284.5 135.5,284.5C 135.5,293.167 135.5,301.833 135.5,310.5C 134.507,301.682 134.173,292.682 134.5,283.5 Z"/></g>
<g><path style="opacity:1" fill="#f6f4e5" d="M 147.5,310.5 C 143.5,310.5 139.5,310.5 135.5,310.5C 135.5,301.833 135.5,293.167 135.5,284.5C 139.5,284.5 143.5,284.5 147.5,284.5C 147.5,293.167 147.5,301.833 147.5,310.5 Z"/></g>
<g><path style="opacity:0.981" fill="#69bd00" d="M 351.5,283.5 C 351.5,283.833 351.5,284.167 351.5,284.5C 351.5,288.5 351.5,292.5 351.5,296.5C 347.167,296.5 342.833,296.5 338.5,296.5C 338.5,292.167 338.5,287.833 338.5,283.5C 342.833,283.5 347.167,283.5 351.5,283.5 Z"/></g>
<g><path style="opacity:1" fill="#e9fc82" d="M 202.5,297.5 C 207.167,297.5 211.833,297.5 216.5,297.5C 216.5,328.833 216.5,360.167 216.5,391.5C 215.514,395.97 215.181,400.637 215.5,405.5C 211.167,405.5 206.833,405.5 202.5,405.5C 202.5,400.833 202.5,396.167 202.5,391.5C 198.167,391.5 193.833,391.5 189.5,391.5C 189.5,387.167 189.5,382.833 189.5,378.5C 193.833,378.5 198.167,378.5 202.5,378.5C 202.5,351.5 202.5,324.5 202.5,297.5 Z"/></g>
<g><path style="opacity:1" fill="#527f4c" d="M 337.5,296.5 C 337.5,296.833 337.5,297.167 337.5,297.5C 333.167,297.5 328.833,297.5 324.5,297.5C 324.5,301.833 324.5,306.167 324.5,310.5C 324.167,310.5 323.833,310.5 323.5,310.5C 323.5,305.833 323.5,301.167 323.5,296.5C 328.167,296.5 332.833,296.5 337.5,296.5 Z"/></g>
<g><path style="opacity:1" fill="#69be00" d="M 337.5,297.5 C 337.5,301.833 337.5,306.167 337.5,310.5C 333.167,310.5 328.833,310.5 324.5,310.5C 324.5,306.167 324.5,301.833 324.5,297.5C 328.833,297.5 333.167,297.5 337.5,297.5 Z"/></g>
<g><path style="opacity:0.976" fill="#48666a" d="M 338.5,297.5 C 342.833,297.5 347.167,297.5 351.5,297.5C 351.5,302.167 351.5,306.833 351.5,311.5C 347.167,311.5 342.833,311.5 338.5,311.5C 338.5,306.833 338.5,302.167 338.5,297.5 Z"/></g>
<g><path style="opacity:1" fill="#507c4f" d="M 337.5,297.5 C 337.833,297.5 338.167,297.5 338.5,297.5C 338.5,302.167 338.5,306.833 338.5,311.5C 333.833,311.5 329.167,311.5 324.5,311.5C 324.5,311.167 324.5,310.833 324.5,310.5C 328.833,310.5 333.167,310.5 337.5,310.5C 337.5,306.167 337.5,301.833 337.5,297.5 Z"/></g>
<g><path style="opacity:0.929" fill="#569b00" d="M 93.5,310.5 C 98.1667,310.5 102.833,310.5 107.5,310.5C 107.5,315.167 107.5,319.833 107.5,324.5C 102.833,324.5 98.1667,324.5 93.5,324.5C 93.5,319.833 93.5,315.167 93.5,310.5 Z"/></g>
<g><path style="opacity:1" fill="#b5e90b" d="M 107.5,310.5 C 112.167,310.5 116.833,310.5 121.5,310.5C 121.5,315.167 121.5,319.833 121.5,324.5C 116.833,324.5 112.167,324.5 107.5,324.5C 107.5,319.833 107.5,315.167 107.5,310.5 Z"/></g>
<g><path style="opacity:1" fill="#63a929" d="M 243.5,310.5 C 243.5,324.167 243.5,337.833 243.5,351.5C 243.5,360.5 243.5,369.5 243.5,378.5C 242.507,369.682 242.173,360.682 242.5,351.5C 238.167,351.5 233.833,351.5 229.5,351.5C 233.634,350.515 237.968,350.182 242.5,350.5C 242.171,336.99 242.504,323.656 243.5,310.5 Z"/></g>
<g><path style="opacity:1" fill="#69bd00" d="M 243.5,310.5 C 247.833,310.5 252.167,310.5 256.5,310.5C 256.5,323.833 256.5,337.167 256.5,350.5C 256.5,350.833 256.5,351.167 256.5,351.5C 252.167,351.5 247.833,351.5 243.5,351.5C 243.5,337.833 243.5,324.167 243.5,310.5 Z"/></g>
<g><path style="opacity:1" fill="#68b908" d="M 323.5,310.5 C 323.833,310.5 324.167,310.5 324.5,310.5C 324.5,310.833 324.5,311.167 324.5,311.5C 324.5,315.833 324.5,320.167 324.5,324.5C 319.833,324.5 315.167,324.5 310.5,324.5C 310.5,319.833 310.5,315.167 310.5,310.5C 314.833,310.5 319.167,310.5 323.5,310.5 Z"/></g>
<g><path style="opacity:0.976" fill="#48666a" d="M 324.5,311.5 C 329.167,311.5 333.833,311.5 338.5,311.5C 338.5,315.833 338.5,320.167 338.5,324.5C 333.833,324.5 329.167,324.5 324.5,324.5C 324.5,320.167 324.5,315.833 324.5,311.5 Z"/></g>
<g><path style="opacity:1" fill="#b6eb04" d="M 121.5,324.5 C 125.833,324.5 130.167,324.5 134.5,324.5C 134.5,328.833 134.5,333.167 134.5,337.5C 130.167,337.5 125.833,337.5 121.5,337.5C 121.5,333.167 121.5,328.833 121.5,324.5 Z"/></g>
<g><path style="opacity:1" fill="#427900" d="M 297.5,324.5 C 301.833,324.5 306.167,324.5 310.5,324.5C 310.5,328.833 310.5,333.167 310.5,337.5C 306.167,337.5 301.833,337.5 297.5,337.5C 297.5,333.167 297.5,328.833 297.5,324.5 Z"/></g>
<g><path style="opacity:0.929" fill="#559b00" d="M 107.5,324.5 C 112.167,324.5 116.833,324.5 121.5,324.5C 121.5,328.833 121.5,333.167 121.5,337.5C 125.833,337.5 130.167,337.5 134.5,337.5C 134.5,342.167 134.5,346.833 134.5,351.5C 129.833,351.5 125.167,351.5 120.5,351.5C 120.5,347.167 120.5,342.833 120.5,338.5C 116.167,338.5 111.833,338.5 107.5,338.5C 107.5,333.833 107.5,329.167 107.5,324.5 Z"/></g>
<g><path style="opacity:1" fill="#b5e808" d="M 134.5,337.5 C 139.167,337.5 143.833,337.5 148.5,337.5C 148.5,342.167 148.5,346.833 148.5,351.5C 143.833,351.5 139.167,351.5 134.5,351.5C 134.5,346.833 134.5,342.167 134.5,337.5 Z"/></g>
<g><path style="opacity:1" fill="#45741f" d="M 297.5,324.5 C 297.5,328.833 297.5,333.167 297.5,337.5C 297.5,342.167 297.5,346.833 297.5,351.5C 292.833,351.5 288.167,351.5 283.5,351.5C 283.5,346.833 283.5,342.167 283.5,337.5C 287.833,337.5 292.167,337.5 296.5,337.5C 296.182,332.968 296.515,328.634 297.5,324.5 Z"/></g>
<g><path style="opacity:1" fill="#427900" d="M 284.5,338.5 C 288.5,338.5 292.5,338.5 296.5,338.5C 296.5,342.5 296.5,346.5 296.5,350.5C 292.5,350.5 288.5,350.5 284.5,350.5C 284.5,346.5 284.5,342.5 284.5,338.5 Z"/></g>
<g><path style="opacity:0.976" fill="#486769" d="M 310.5,324.5 C 315.167,324.5 319.833,324.5 324.5,324.5C 324.5,329.167 324.5,333.833 324.5,338.5C 320.167,338.5 315.833,338.5 311.5,338.5C 311.5,342.833 311.5,347.167 311.5,351.5C 306.833,351.5 302.167,351.5 297.5,351.5C 297.5,346.833 297.5,342.167 297.5,337.5C 301.833,337.5 306.167,337.5 310.5,337.5C 310.5,333.167 310.5,328.833 310.5,324.5 Z"/></g>
<g><path style="opacity:0.982" fill="#6abe00" d="M 229.5,351.5 C 233.833,351.5 238.167,351.5 242.5,351.5C 242.173,360.682 242.507,369.682 243.5,378.5C 247.833,378.5 252.167,378.5 256.5,378.5C 256.5,383.167 256.5,387.833 256.5,392.5C 252.167,392.5 247.833,392.5 243.5,392.5C 243.5,396.833 243.5,401.167 243.5,405.5C 238.833,405.5 234.167,405.5 229.5,405.5C 229.5,401.167 229.5,396.833 229.5,392.5C 224.968,392.818 220.634,392.485 216.5,391.5C 220.833,391.5 225.167,391.5 229.5,391.5C 229.5,378.167 229.5,364.833 229.5,351.5 Z"/></g>
<g><path style="opacity:1" fill="#437900" d="M 243.5,351.5 C 247.833,351.5 252.167,351.5 256.5,351.5C 256.5,355.833 256.5,360.167 256.5,364.5C 260.634,365.485 264.968,365.818 269.5,365.5C 269.5,369.833 269.5,374.167 269.5,378.5C 265.167,378.5 260.833,378.5 256.5,378.5C 252.167,378.5 247.833,378.5 243.5,378.5C 243.5,369.5 243.5,360.5 243.5,351.5 Z"/></g>
<g><path style="opacity:1" fill="#486769" d="M 256.5,351.5 C 260.833,351.5 265.167,351.5 269.5,351.5C 269.5,355.833 269.5,360.167 269.5,364.5C 265.167,364.5 260.833,364.5 256.5,364.5C 256.5,360.167 256.5,355.833 256.5,351.5 Z"/></g>
<g><path style="opacity:1" fill="#427900" d="M 270.5,351.5 C 274.833,351.5 279.167,351.5 283.5,351.5C 283.5,355.833 283.5,360.167 283.5,364.5C 279.167,364.5 274.833,364.5 270.5,364.5C 270.5,360.167 270.5,355.833 270.5,351.5 Z"/></g>
<g><path style="opacity:0.991" fill="#559b00" d="M 134.5,351.5 C 139.167,351.5 143.833,351.5 148.5,351.5C 148.5,356.167 148.5,360.833 148.5,365.5C 152.833,365.5 157.167,365.5 161.5,365.5C 161.5,369.833 161.5,374.167 161.5,378.5C 156.833,378.5 152.167,378.5 147.5,378.5C 147.5,374.167 147.5,369.833 147.5,365.5C 143.167,365.5 138.833,365.5 134.5,365.5C 134.5,360.833 134.5,356.167 134.5,351.5 Z"/></g>
<g><path style="opacity:1" fill="#ecfe82" d="M 175.5,378.5 C 175.5,374.167 175.5,369.833 175.5,365.5C 179.833,365.5 184.167,365.5 188.5,365.5C 188.5,369.833 188.5,374.167 188.5,378.5C 184.167,378.5 179.833,378.5 175.5,378.5 Z"/></g>
<g><path style="opacity:0.995" fill="#45712f" d="M 270.5,324.5 C 270.5,333.5 270.5,342.5 270.5,351.5C 270.5,355.833 270.5,360.167 270.5,364.5C 274.833,364.5 279.167,364.5 283.5,364.5C 279.366,365.485 275.032,365.818 270.5,365.5C 270.5,369.833 270.5,374.167 270.5,378.5C 270.167,378.5 269.833,378.5 269.5,378.5C 269.5,374.167 269.5,369.833 269.5,365.5C 264.968,365.818 260.634,365.485 256.5,364.5C 260.833,364.5 265.167,364.5 269.5,364.5C 269.5,360.167 269.5,355.833 269.5,351.5C 265.167,351.5 260.833,351.5 256.5,351.5C 256.5,351.167 256.5,350.833 256.5,350.5C 260.833,350.5 265.167,350.5 269.5,350.5C 269.174,341.651 269.507,332.984 270.5,324.5 Z"/></g>
<g><path style="opacity:0.929" fill="#486769" d="M 283.5,351.5 C 288.167,351.5 292.833,351.5 297.5,351.5C 297.5,356.167 297.5,360.833 297.5,365.5C 293.167,365.5 288.833,365.5 284.5,365.5C 284.5,369.833 284.5,374.167 284.5,378.5C 279.833,378.5 275.167,378.5 270.5,378.5C 270.5,374.167 270.5,369.833 270.5,365.5C 275.032,365.818 279.366,365.485 283.5,364.5C 283.5,360.167 283.5,355.833 283.5,351.5 Z"/></g>
<g><path style="opacity:0.928" fill="#559b00" d="M 161.5,378.5 C 166.167,378.5 170.833,378.5 175.5,378.5C 175.5,383.167 175.5,387.833 175.5,392.5C 170.833,392.5 166.167,392.5 161.5,392.5C 161.5,387.833 161.5,383.167 161.5,378.5 Z"/></g>
<g><path style="opacity:0.928" fill="#496769" d="M 256.5,378.5 C 260.833,378.5 265.167,378.5 269.5,378.5C 269.833,378.5 270.167,378.5 270.5,378.5C 270.5,383.167 270.5,387.833 270.5,392.5C 265.833,392.5 261.167,392.5 256.5,392.5C 256.5,387.833 256.5,383.167 256.5,378.5 Z"/></g>
<g><path style="opacity:1" fill="#b6ea0b" d="M 216.5,391.5 C 220.634,392.485 224.968,392.818 229.5,392.5C 229.5,396.833 229.5,401.167 229.5,405.5C 224.833,405.5 220.167,405.5 215.5,405.5C 215.181,400.637 215.514,395.97 216.5,391.5 Z"/></g>
<g><path style="opacity:0.964" fill="#427800" d="M 202.5,405.5 C 206.833,405.5 211.167,405.5 215.5,405.5C 220.167,405.5 224.833,405.5 229.5,405.5C 229.5,410.167 229.5,414.833 229.5,419.5C 220.5,419.5 211.5,419.5 202.5,419.5C 202.5,414.833 202.5,410.167 202.5,405.5 Z"/></g>
</svg>
