<svg width="379" height="389" viewBox="0 0 379 389" fill="none" xmlns="http://www.w3.org/2000/svg">
<g clip-path="url(#clip0_1626_2881)">
<path fill-rule="evenodd" clip-rule="evenodd" d="M45.5 6.5C40.595 4.7529 35.5949 3.4196 30.5 2.5C25.8703 2.9878 21.5369 4.3211 17.5 6.5C20.7492 2.7934 24.9158 0.7934 30 0.5C34.9565 1.5592 39.7898 3.0592 44.5 5C45.056 5.3826 45.389 5.8826 45.5 6.5Z" fill="#ACA09D"/>
<path opacity="0.467" fill-rule="evenodd" clip-rule="evenodd" d="M45.5 6.5C47.674 6.7497 49.341 7.7497 50.5 9.5C48.326 9.2503 46.659 8.2503 45.5 6.5Z" fill="#AFA39F"/>
<path fill-rule="evenodd" clip-rule="evenodd" d="M50.5 9.5C52.754 10.1237 54.421 11.457 55.5 13.5C53.205 12.8645 51.539 11.5311 50.5 9.5Z" fill="#94847F"/>
<path opacity="0.788" fill-rule="evenodd" clip-rule="evenodd" d="M55.5 13.5C57.754 14.1237 59.421 15.457 60.5 17.5C58.205 16.8645 56.539 15.5311 55.5 13.5Z" fill="#958681"/>
<path opacity="0.906" fill-rule="evenodd" clip-rule="evenodd" d="M10.5 16.5C10.6545 19.716 9.6545 22.3826 7.5 24.5C8.129 21.6027 9.129 18.936 10.5 16.5Z" fill="#988B86"/>
<path opacity="0.027" fill-rule="evenodd" clip-rule="evenodd" d="M62.5 19.5C65.089 20.4194 67.089 22.086 68.5 24.5C65.911 23.5806 63.911 21.914 62.5 19.5Z" fill="#BAB1AE"/>
<path opacity="0.894" fill-rule="evenodd" clip-rule="evenodd" d="M68.5 24.5C74.167 29.5 79.5 34.8333 84.5 40.5C78.167 36.1667 72.833 30.8333 68.5 24.5Z" fill="#9A8C88"/>
<path opacity="0.855" fill-rule="evenodd" clip-rule="evenodd" d="M331.5 38.4996C327.486 38.3341 323.486 38.5008 319.5 38.9996C316.28 40.352 312.947 41.1853 309.5 41.4996C316.488 37.6566 323.822 36.6566 331.5 38.4996Z" fill="#A49893"/>
<path opacity="0.855" fill-rule="evenodd" clip-rule="evenodd" d="M331.5 38.5C336.832 38.989 340.499 41.6557 342.5 46.5C339.292 43.076 335.625 40.4093 331.5 38.5Z" fill="#A49793"/>
<path fill-rule="evenodd" clip-rule="evenodd" d="M3.49961 40.5C3.31311 45.845 2.97971 51.178 2.49961 56.5C2.16631 56.5 1.83291 56.5 1.49961 56.5C1.25451 50.916 1.92121 45.583 3.49961 40.5Z" fill="#A1948F"/>
<path opacity="0.333" fill-rule="evenodd" clip-rule="evenodd" d="M342.5 46.5C343.906 46.973 344.573 47.973 344.5 49.5C343.094 49.027 342.427 48.027 342.5 46.5Z" fill="#B6ABA7"/>
<path fill-rule="evenodd" clip-rule="evenodd" d="M344.5 49.5C347.217 55.072 348.55 61.072 348.5 67.5C345.923 83.848 345.923 100.181 348.5 116.5C347.678 114.611 346.845 112.611 346 110.5C345.315 95.824 345.482 81.158 346.5 66.5C346.352 60.762 345.685 55.095 344.5 49.5Z" fill="#968883"/>
<path fill-rule="evenodd" clip-rule="evenodd" d="M1.50025 56.5C1.83355 56.5 2.16695 56.5 2.50025 56.5C2.50025 65.167 2.50025 73.833 2.50025 82.5C2.16695 82.5 1.83355 82.5 1.50025 82.5C0.274655 73.685 0.274655 65.019 1.50025 56.5Z" fill="#86746F"/>
<path fill-rule="evenodd" clip-rule="evenodd" d="M45.5 6.5C46.659 8.2503 48.326 9.2503 50.5 9.5C51.539 11.5311 53.205 12.8645 55.5 13.5C56.539 15.5311 58.205 16.8645 60.5 17.5C61.5 17.8333 62.167 18.5 62.5 19.5C63.911 21.914 65.911 23.5806 68.5 24.5C72.833 30.8333 78.167 36.1667 84.5 40.5C86.167 41.5 87.5 42.8333 88.5 44.5C89.585 46.587 91.251 47.92 93.5 48.5C94.5 48.833 95.167 49.5 95.5 50.5C95.973 51.906 96.973 52.573 98.5 52.5C99.035 54.446 100.368 55.446 102.5 55.5C106.372 57.597 110.039 59.931 113.5 62.5C118.039 65.521 123.039 67.687 128.5 69C136.345 69.822 144.011 69.656 151.5 68.5C163.974 67.269 176.474 66.269 189 65.5C206.17 66.526 223.336 67.526 240.5 68.5C241.5 68.5 242.5 68.5 243.5 68.5C248.975 70.882 254.641 71.048 260.5 69C261.056 68.617 261.389 68.117 261.5 67.5C265.554 67.493 268.887 66.16 271.5 63.5C273.181 61.992 275.181 60.992 277.5 60.5C279.674 60.25 281.341 59.25 282.5 57.5C284.027 57.573 285.027 56.906 285.5 55.5C287.027 55.573 288.027 54.906 288.5 53.5C290.027 53.573 291.027 52.906 291.5 51.5C293.027 51.573 294.027 50.906 294.5 49.5C296.674 49.25 298.341 48.25 299.5 46.5C302.515 44.3256 305.849 42.6589 309.5 41.5C312.947 41.1857 316.28 40.3524 319.5 39C323.486 38.5012 327.486 38.3345 331.5 38.5C335.625 40.4093 339.292 43.076 342.5 46.5C342.427 48.027 343.094 49.027 344.5 49.5C345.685 55.095 346.352 60.762 346.5 66.5C345.482 81.158 345.315 95.824 346 110.5C346.845 112.611 347.678 114.611 348.5 116.5C348.5 116.833 348.5 117.167 348.5 117.5C348.068 120.877 348.735 123.877 350.5 126.5C350.678 129.216 351.178 131.883 352 134.5C352.2 136.32 353.034 137.653 354.5 138.5C355.736 140.649 356.736 142.982 357.5 145.5C357.427 147.027 358.094 148.027 359.5 148.5C360.674 149.514 361.34 150.847 361.5 152.5C361.502 156.165 362.835 159.165 365.5 161.5C365.77 165.358 367.103 168.691 369.5 171.5C369.41 174.152 370.076 176.485 371.5 178.5C371.723 182.162 372.723 185.495 374.5 188.5C374.5 188.833 374.5 189.167 374.5 189.5C374.116 193.489 374.783 197.155 376.5 200.5C376.5 204.5 376.5 208.5 376.5 212.5C375.99 215.388 376.656 217.721 378.5 219.5C378.5 222.167 378.5 224.833 378.5 227.5C377.883 227.611 377.383 227.944 377 228.5C376.502 231.817 376.335 235.15 376.5 238.5C376.5 241.167 376.5 243.833 376.5 246.5C376.425 249.206 376.092 251.873 375.5 254.5C374.778 254.918 374.278 255.584 374 256.5C373.462 261.171 372.962 265.838 372.5 270.5C372.5 270.833 372.5 271.167 372.5 271.5C370.279 274.983 368.946 278.983 368.5 283.5C368.5 283.833 368.5 284.167 368.5 284.5C365.361 289.362 363.027 294.695 361.5 300.5C361.008 302.819 360.008 304.819 358.5 306.5C356.75 307.659 355.75 309.326 355.5 311.5C354.89 313.434 353.89 315.101 352.5 316.5C351.094 316.973 350.427 317.973 350.5 319.5C350.5 320.167 350.167 320.5 349.5 320.5C348.094 320.973 347.427 321.973 347.5 323.5C347.5 324.167 347.167 324.5 346.5 324.5C345.5 324.833 344.833 325.5 344.5 326.5C342.883 325.962 341.216 325.629 339.5 325.5C339.5 326.833 339.5 328.167 339.5 329.5C338.5 329.5 337.5 329.5 336.5 329.5C336.421 330.93 336.754 332.264 337.5 333.5C335.634 333.098 333.634 333.098 331.5 333.5C329.383 336.486 326.883 339.153 324 341.5C323.383 342.449 323.549 343.282 324.5 344C323.451 344.492 322.451 344.326 321.5 343.5C318.719 345.67 317.886 348.337 319 351.5C316.284 348.769 313.784 348.936 311.5 352C314.063 352.763 314.063 353.263 311.5 353.5C310.833 353.167 310.167 352.833 309.5 352.5C310.193 351.482 310.859 350.482 311.5 349.5C339.643 328.023 357.643 300.023 365.5 265.5C367.001 256.981 368.501 248.314 370 239.5C370.499 235.514 370.666 231.514 370.5 227.5C370.5 224.833 370.5 222.167 370.5 219.5C370.666 214.156 370.499 208.823 370 203.5C369.768 202.263 369.268 201.263 368.5 200.5C368.5 199.833 368.5 199.167 368.5 198.5C366.284 186.589 363.117 174.923 359 163.5C356.433 157.931 353.433 152.597 350 147.5C347.671 141.81 345.504 136.143 343.5 130.5C343.069 126.663 342.402 122.997 341.5 119.5C341.784 117.585 341.451 115.919 340.5 114.5C339.793 111.214 339.46 107.881 339.5 104.5C340.077 88.167 340.244 71.833 340 55.5C339.617 54.944 339.117 54.611 338.5 54.5C337.415 50.246 334.748 47.413 330.5 46C317.821 45.17 306.821 49.003 297.5 57.5C293.027 59.905 288.694 62.571 284.5 65.5C276.9 69.091 269.233 72.591 261.5 76C258.183 76.498 254.85 76.665 251.5 76.5C232.853 74.946 214.186 73.613 195.5 72.5C187.493 72.334 179.493 72.5 171.5 73C167.942 73.146 164.609 73.979 161.5 75.5C137.286 80.348 115.62 75.348 96.5 60.5C84.769 51.275 73.769 41.1081 63.5 30C57.792 24.6233 51.792 19.6233 45.5 15C41.833 13.3333 38.1667 11.6667 34.5 10C30.9733 9.1925 27.6399 9.3592 24.5 10.5C22.8712 11.6253 21.3712 12.9586 20 14.5C6.7681 44.4463 4.9348 75.113 14.5 106.5C14.5 106.833 14.5 107.167 14.5 107.5C14.5 107.833 14.5 108.167 14.5 108.5C19.1652 127.497 23.8319 146.497 28.5 165.5C30.0517 172.148 31.385 178.815 32.5 185.5C35.9107 204.59 40.077 223.59 45 242.5C48.021 251.735 51.521 260.735 55.5 269.5C57.27 274.69 59.27 279.69 61.5 284.5C87.301 340.892 130.968 372.559 192.5 379.5C190.143 379.337 187.81 379.503 185.5 380C185.833 380.333 186.167 380.667 186.5 381C203.841 382.943 221.174 382.943 238.5 381C236.527 380.505 234.527 380.338 232.5 380.5C239.292 378.924 246.292 377.757 253.5 377C260.226 375.256 266.893 373.423 273.5 371.5C274.735 371.721 275.735 372.388 276.5 373.5C279.815 371.783 280.815 372.45 279.5 375.5C277.77 376.026 276.436 377.026 275.5 378.5C272.084 378.528 269.084 379.528 266.5 381.5C260.272 382.38 254.272 383.713 248.5 385.5C246.735 386.461 244.735 386.795 242.5 386.5C222.489 386.649 202.489 386.315 182.5 385.5C182.167 385.5 181.833 385.5 181.5 385.5C181.082 384.778 180.416 384.278 179.5 384C176.518 383.502 173.518 383.335 170.5 383.5C168.095 382.232 165.428 381.565 162.5 381.5C162.167 381.5 161.833 381.5 161.5 381.5C155.481 378.717 149.148 376.717 142.5 375.5C142.063 373.926 141.063 372.759 139.5 372C141.271 371.465 141.604 370.631 140.5 369.5C139.914 369.709 139.414 370.043 139 370.5C135.6 369.46 132.1 368.794 128.5 368.5C126.847 368.34 125.514 367.674 124.5 366.5C124.027 365.094 123.027 364.427 121.5 364.5C120.508 364.672 119.842 364.338 119.5 363.5C119.027 362.094 118.027 361.427 116.5 361.5C116.027 360.094 115.027 359.427 113.5 359.5C113.027 358.094 112.027 357.427 110.5 357.5C109.738 355.738 108.404 354.738 106.5 354.5C105.738 352.738 104.404 351.738 102.5 351.5C101.089 349.086 99.089 347.419 96.5 346.5C95.5 346.167 94.833 345.5 94.5 344.5C92.1 341.097 89.1 338.43 85.5 336.5C83.833 334.5 82.167 332.5 80.5 330.5C80.573 328.973 79.906 327.973 78.5 327.5C77.5 327.167 76.833 326.5 76.5 325.5C76.573 323.973 75.906 322.973 74.5 322.5C72.674 320.853 71.34 318.853 70.5 316.5C69.544 313.561 67.877 311.228 65.5 309.5C64.326 308.486 63.66 307.153 63.5 305.5C63.573 303.973 62.906 302.973 61.5 302.5C60.662 302.158 60.328 301.492 60.5 300.5C60.771 298.62 60.104 297.287 58.5 296.5C57.662 296.158 57.328 295.492 57.5 294.5C57.539 291.911 56.539 289.911 54.5 288.5C53.941 285.057 52.607 282.057 50.5 279.5C50.448 276.654 49.448 274.32 47.5 272.5C47.099 268.595 45.766 265.262 43.5 262.5C43.322 259.784 42.822 257.117 42 254.5C41.8 252.68 40.966 251.347 39.5 250.5C37.6066 243.424 35.9399 236.257 34.5 229C34.3158 227.624 33.6491 226.791 32.5 226.5C29.9912 209.781 27.1579 193.114 24 176.5C23.6174 175.944 23.1174 175.611 22.5 175.5C22.5 175.167 22.5 174.833 22.5 174.5C22.2189 170.812 21.7189 167.145 21 163.5C20.7996 161.68 19.9663 160.347 18.5 159.5C18.5 158.833 18.5 158.167 18.5 157.5C17.9897 152.789 17.1564 148.122 16 143.5C15.6174 142.944 15.1174 142.611 14.5 142.5C12.9858 133.784 11.1525 125.118 9 116.5C8.6174 115.944 8.1174 115.611 7.5 115.5C6.2195 104.433 4.5529 93.433 2.5 82.5C2.5 73.833 2.5 65.167 2.5 56.5C2.9801 51.178 3.3135 45.845 3.5 40.5C4.2317 34.9063 5.565 29.5729 7.5 24.5C9.6545 22.3826 10.6545 19.716 10.5 16.5C11.3833 12.0388 13.7166 8.7055 17.5 6.5C21.5369 4.3211 25.8703 2.9878 30.5 2.5C35.5949 3.4196 40.595 4.7529 45.5 6.5Z" fill="#452B23"/>
<path fill-rule="evenodd" clip-rule="evenodd" d="M240.5 68.5C223.336 67.526 206.17 66.526 189 65.5C176.474 66.269 163.974 67.269 151.5 68.5C163.571 66.058 175.904 64.725 188.5 64.5C205.85 64.752 223.183 66.085 240.5 68.5Z" fill="#ACA09D"/>
<path opacity="0.694" fill-rule="evenodd" clip-rule="evenodd" d="M113.5 62.5C125.655 67.463 138.322 69.463 151.5 68.5C144.011 69.656 136.345 69.822 128.5 69C123.039 67.687 118.039 65.521 113.5 62.5Z" fill="#9D908B"/>
<path fill-rule="evenodd" clip-rule="evenodd" d="M271.5 63.5C268.887 66.16 265.554 67.493 261.5 67.5C264.678 65.991 268.011 64.658 271.5 63.5Z" fill="#8F7E79"/>
<path fill-rule="evenodd" clip-rule="evenodd" d="M96.5 60.5C115.62 75.348 137.286 80.348 161.5 75.5C141.175 85.422 122.341 97.755 105 112.5C105.588 97.214 103.921 82.214 100 67.5C98.582 65.261 97.415 62.928 96.5 60.5Z" fill="#673B36"/>
<path fill-rule="evenodd" clip-rule="evenodd" d="M297.5 57.5C297.5 57.833 297.5 58.167 297.5 58.5C294.539 62.298 292.539 66.631 291.5 71.5C289.559 74.197 288.059 77.197 287 80.5C286.391 86.218 285.224 91.551 283.5 96.5C273.965 90.235 264.298 84.235 254.5 78.5C261.766 78.098 268.099 80.598 273.5 86C274.793 86.49 276.127 86.657 277.5 86.5C277.34 84.801 277.506 83.134 278 81.5C280.474 76.248 282.641 70.915 284.5 65.5C288.694 62.571 293.027 59.905 297.5 57.5Z" fill="#764B46"/>
<path fill-rule="evenodd" clip-rule="evenodd" d="M79.5 73.5002C80.404 74.2092 80.737 75.2092 80.5 76.5002C80.546 85.4443 79.213 94.1103 76.5 102.5C75.325 102.719 74.325 102.386 73.5 101.5C71.252 98.6723 69.252 95.6723 67.5 92.5003C64.362 103.317 63.695 114.317 65.5 125.5C61.738 125.348 58.072 124.681 54.5 123.5C55.466 128.326 55.466 133.326 54.5 138.5C50.697 136.262 46.697 134.596 42.5 133.5C42.674 138.964 42.674 144.298 42.5 149.5C38.1024 146.105 34.4357 142.105 31.5 137.5C35.4435 110.428 42.777 84.2622 53.5 59.0002C55.5 58.3332 57.5 58.3332 59.5 59.0002C67.244 63.4092 73.744 69.2422 79 76.5002C79.483 75.5522 79.649 74.5522 79.5 73.5002Z" fill="#BC7573"/>
<path opacity="0.439" fill-rule="evenodd" clip-rule="evenodd" d="M282.5 57.5C281.341 59.25 279.674 60.25 277.5 60.5C278.659 58.75 280.326 57.75 282.5 57.5Z" fill="#ABA09C"/>
<path opacity="0.855" fill-rule="evenodd" clip-rule="evenodd" d="M285.5 55.4995C285.027 56.9055 284.027 57.5725 282.5 57.4995C282.973 56.0935 283.973 55.4265 285.5 55.4995Z" fill="#9C8E8A"/>
<path fill-rule="evenodd" clip-rule="evenodd" d="M340.5 114.501C341.451 115.92 341.784 117.586 341.5 119.501C340.607 122.821 339.273 125.821 337.5 128.501C336.255 125.523 334.588 122.69 332.5 120.001C328.04 105.032 322.873 90.1985 317 75.5005C309.076 65.7465 300.576 65.0795 291.5 73.5005C291.5 72.8335 291.5 72.1675 291.5 71.5005C292.539 66.6315 294.539 62.2985 297.5 58.5005C297.369 59.3765 297.702 60.0435 298.5 60.5005C307.291 54.3995 316.957 51.8995 327.5 53.0005C334.701 58.5765 336.534 65.7435 333 74.5005C331.485 90.4355 333.819 105.77 340 120.501C340.495 118.528 340.662 116.528 340.5 114.501Z" fill="#C98C89"/>
<path opacity="0.745" fill-rule="evenodd" clip-rule="evenodd" d="M288.5 53.4995C288.027 54.9055 287.027 55.5725 285.5 55.4995C285.973 54.0935 286.973 53.4265 288.5 53.4995Z" fill="#A29390"/>
<path opacity="0.694" fill-rule="evenodd" clip-rule="evenodd" d="M98.5 52.5C100.23 53.026 101.564 54.026 102.5 55.5C100.368 55.446 99.035 54.446 98.5 52.5Z" fill="#A49793"/>
<path opacity="0.761" fill-rule="evenodd" clip-rule="evenodd" d="M291.5 51.4995C291.027 52.9055 290.027 53.5725 288.5 53.4995C288.973 52.0935 289.973 51.4265 291.5 51.4995Z" fill="#A29591"/>
<path opacity="0.745" fill-rule="evenodd" clip-rule="evenodd" d="M294.5 49.4995C294.027 50.9055 293.027 51.5725 291.5 51.4995C291.973 50.0935 292.973 49.4265 294.5 49.4995Z" fill="#A09490"/>
<path opacity="0.039" fill-rule="evenodd" clip-rule="evenodd" d="M95.5 50.4995C97.027 50.4265 98.027 51.0935 98.5 52.4995C96.973 52.5725 95.973 51.9055 95.5 50.4995Z" fill="#BCB4B1"/>
<path opacity="0.427" fill-rule="evenodd" clip-rule="evenodd" d="M299.5 46.5C298.341 48.25 296.674 49.25 294.5 49.5C295.659 47.75 297.326 46.75 299.5 46.5Z" fill="#ADA3A0"/>
<path opacity="0.039" fill-rule="evenodd" clip-rule="evenodd" d="M88.5 44.5C90.749 45.08 92.415 46.413 93.5 48.5C91.251 47.92 89.585 46.587 88.5 44.5Z" fill="#B5AAA7"/>
<path fill-rule="evenodd" clip-rule="evenodd" d="M66.5 50.5006C71.589 57.6726 75.923 65.3396 79.5 73.5006C79.649 74.5526 79.483 75.5526 79 76.5006C73.744 69.2426 67.244 63.4096 59.5 59.0006C57.5 58.3336 55.5 58.3336 53.5 59.0006C42.777 84.2626 35.4435 110.429 31.5 137.501C25.0495 128.263 19.3829 118.596 14.5 108.501C14.5 108.168 14.5 107.834 14.5 107.501C16.3742 95.2036 17.3742 82.5376 17.5 69.5006C17.6572 55.1826 20.4906 41.5162 26 28.5006C32.8651 20.7535 40.032 20.5868 47.5 28.0006C53.788 36.0776 59.955 44.2443 66 52.5006C66.464 51.9066 66.631 51.2396 66.5 50.5006Z" fill="#C88C89"/>
<path fill-rule="evenodd" clip-rule="evenodd" d="M24.5 10.5C27.6399 9.35925 30.9733 9.19255 34.5 10C38.1667 11.6667 41.833 13.3333 45.5 15C51.792 19.6233 57.792 24.6233 63.5 30C73.769 41.1081 84.769 51.275 96.5 60.5C97.415 62.928 98.582 65.261 100 67.5C103.921 82.214 105.588 97.214 105 112.5C122.341 97.755 141.175 85.422 161.5 75.5C164.609 73.979 167.942 73.146 171.5 73C179.493 72.5 187.493 72.334 195.5 72.5C195.919 75.325 194.919 77.491 192.5 79C182.741 81.854 173.074 84.854 163.5 88C149.718 94.978 137.218 103.811 126 114.5C125.252 116.84 125.752 118.84 127.5 120.5C129.631 121.314 131.964 121.814 134.5 122C133.944 122.383 133.611 122.883 133.5 123.5C127.675 126.145 122.509 129.812 118 134.5C117.333 136.5 117.333 138.5 118 140.5C119.977 143.312 122.144 145.978 124.5 148.5C122.146 150.188 120.146 152.188 118.5 154.5C107.311 164.868 98.145 176.868 91 190.5C87.46 199.911 90.293 206.411 99.5 210C88.907 217.258 80.407 226.425 74 237.5C70.572 245.388 73.072 249.888 81.5 251C77.625 257.138 74.625 263.638 72.5 270.5C69.541 275.784 65.875 280.451 61.5 284.5C59.27 279.69 57.27 274.69 55.5 269.5C57.042 265.413 58.875 261.413 61 257.5C61.495 255.527 61.662 253.527 61.5 251.5C60.167 251.5 58.833 251.5 57.5 251.5C56.919 235.466 61.419 221.133 71 208.5C71.595 207.101 71.428 205.768 70.5 204.5C78.671 187.819 84.338 170.319 87.5 152C86.365 151.251 85.365 151.417 84.5 152.5C81 158.833 77.5 165.167 74 171.5C64.939 180.417 55.439 180.75 45.5 172.5C45.167 172.833 44.833 173.167 44.5 173.5C47.344 177.441 47.011 181.107 43.5 184.5C40.026 186.725 36.3589 187.059 32.5 185.5C31.385 178.815 30.0517 172.148 28.5 165.5C29.1174 165.611 29.6174 165.944 30 166.5C30.203 162.579 30.703 158.745 31.5 155C33.8333 154.333 36.1667 154.333 38.5 155C46.043 159.535 54.043 160.535 62.5 158C68.118 153.071 69.951 146.905 68 139.5C67.415 137.871 66.581 136.371 65.5 135C65.905 134.055 66.572 133.388 67.5 133C76.084 134.426 78.584 131.259 75 123.5C73.108 121.946 71.608 120.112 70.5 118C72.961 114.873 75.794 112.039 79 109.5C85.766 98.775 86.266 87.775 80.5 76.5C80.737 75.209 80.404 74.209 79.5 73.5C75.923 65.339 71.589 57.672 66.5 50.5C58.397 37.5037 48.73 25.6704 37.5 15C33.5256 12.3405 29.1923 10.8405 24.5 10.5Z" fill="#764B46"/>
<path fill-rule="evenodd" clip-rule="evenodd" d="M24.4996 10.5C29.1919 10.8405 33.5252 12.3405 37.4996 15C48.7296 25.6704 58.3966 37.5037 66.4996 50.5C66.6306 51.239 66.4636 51.906 65.9996 52.5C59.9546 44.2437 53.7876 36.077 47.4996 28C40.0316 20.5862 32.8647 20.7529 25.9996 28.5C20.4902 41.5156 17.6568 55.182 17.4996 69.5C15.9898 81.79 14.9898 94.124 14.4996 106.5C4.93436 75.113 6.76766 44.4463 19.9996 14.5C21.3708 12.9586 22.8708 11.6253 24.4996 10.5Z" fill="#F4DEDD"/>
<path fill-rule="evenodd" clip-rule="evenodd" d="M284.5 65.5C282.641 70.915 280.474 76.248 278 81.5C277.506 83.134 277.34 84.801 277.5 86.5C276.127 86.657 274.793 86.49 273.5 86C268.099 80.598 261.766 78.098 254.5 78.5C253.29 78.068 252.29 77.401 251.5 76.5C254.85 76.665 258.183 76.498 261.5 76C269.233 72.591 276.9 69.091 284.5 65.5Z" fill="#663A36"/>
<path fill-rule="evenodd" clip-rule="evenodd" d="M337.5 128.501C336.952 130.395 335.952 132.061 334.5 133.501C332.167 128.834 329.833 124.168 327.5 119.501C325.635 118.335 323.968 118.668 322.5 120.501C322.167 120.001 321.833 119.501 321.5 119.001C322.662 115.854 323.662 112.687 324.5 109.501C318.131 109.654 311.797 109.321 305.5 108.501C305.883 103.658 305.217 98.9918 303.5 94.5008C302.167 96.1678 300.833 97.8338 299.5 99.5008C294.37 91.6578 291.703 82.9908 291.5 73.5008C300.576 65.0798 309.076 65.7468 317 75.5008C322.873 90.1988 328.04 105.032 332.5 120.001C334.588 122.69 336.255 125.523 337.5 128.501Z" fill="#B66969"/>
<path opacity="0.639" fill-rule="evenodd" clip-rule="evenodd" d="M261.5 67.5C261.389 68.117 261.056 68.617 260.5 69C254.641 71.048 248.975 70.882 243.5 68.5C249.659 69.584 255.659 69.25 261.5 67.5Z" fill="#9A8C87"/>
<path fill-rule="evenodd" clip-rule="evenodd" d="M338.5 54.4995C338.876 71.2935 339.209 87.9605 339.5 104.499C339.46 107.88 339.793 111.213 340.5 114.499C340.662 116.526 340.495 118.526 340 120.499C333.819 105.768 331.485 90.4345 333 74.4995C336.534 65.7425 334.701 58.5755 327.5 52.9995C316.957 51.8985 307.291 54.3985 298.5 60.4995C297.702 60.0425 297.369 59.3755 297.5 58.4995C297.5 58.1665 297.5 57.8325 297.5 57.4995C306.821 49.0025 317.821 45.1695 330.5 45.9995C334.748 47.4125 337.415 50.2455 338.5 54.4995Z" fill="#F4DDDD"/>
<path fill-rule="evenodd" clip-rule="evenodd" d="M195.5 72.5C214.186 73.613 232.853 74.946 251.5 76.5C252.29 77.401 253.29 78.068 254.5 78.5C264.298 84.235 273.965 90.235 283.5 96.5C286.095 98.816 288.761 101.149 291.5 103.5C289.031 104.168 286.698 104.835 284.5 105.5C282.777 107.78 282.111 110.447 282.5 113.5C281.671 114.332 280.838 113.999 280 112.5C279.056 109.653 279.556 107.153 281.5 105C278.661 104.556 276.328 105.39 274.5 107.5C273.913 109.685 274.913 111.352 277.5 112.5C279.118 114.316 281.118 115.649 283.5 116.5C286.366 118.432 289.366 120.099 292.5 121.5C298.852 126.664 306.185 128.997 314.5 128.5C316.811 130.068 319.478 130.902 322.5 131C329.333 137.167 336.167 143.333 343 149.5C344.094 151.078 344.928 152.745 345.5 154.5C344.188 155.145 343.188 156.145 342.5 157.5C346.909 162.569 350.909 167.902 354.5 173.5C354.539 174.583 354.873 175.583 355.5 176.5C352.81 177.602 350.143 177.436 347.5 176C340.5 170.333 333.5 164.667 326.5 159C323.929 157.546 321.262 156.38 318.5 155.5C306.882 148.202 296.548 139.535 287.5 129.5C287.5 127.833 287.5 126.167 287.5 124.5C285.044 122.132 282.044 121.132 278.5 121.5C277.081 120.549 275.415 120.216 273.5 120.5C260.99 114.564 247.657 112.897 233.5 115.5C234.184 119.554 234.184 123.554 233.5 127.5C231.333 128.948 229 130.115 226.5 131C210.739 133.524 195.072 136.524 179.5 140C167.948 144.108 156.615 148.775 145.5 154C137.755 157.083 129.755 158.083 121.5 157C120.429 156.148 119.429 155.315 118.5 154.5C120.146 152.188 122.146 150.188 124.5 148.5C122.144 145.978 119.977 143.312 118 140.5C117.333 138.5 117.333 136.5 118 134.5C122.509 129.812 127.675 126.145 133.5 123.5C134.167 124.833 134.833 126.167 135.5 127.5C141.548 128.63 147.548 128.297 153.5 126.5C155.167 126.5 156.833 126.5 158.5 126.5C161.428 126.435 164.095 125.768 166.5 124.5C171.728 123.611 176.728 122.278 181.5 120.5C184.688 120.382 187.688 119.549 190.5 118C192.325 116.534 192.825 114.701 192 112.5C190.027 111.36 188.193 110.027 186.5 108.5C186.277 112.666 184.611 115.999 181.5 118.5C180.957 118.44 180.624 118.107 180.5 117.5C181.54 115.477 182.54 113.477 183.5 111.5C183.253 108.923 181.919 107.257 179.5 106.5C177.562 104.837 175.228 104.171 172.5 104.5C166.601 102.886 160.935 103.552 155.5 106.5C152.669 107.079 150.336 108.412 148.5 110.5C145.232 111.436 142.899 113.436 141.5 116.5C139.596 116.738 138.262 117.738 137.5 119.5C137.5 120.167 137.167 120.5 136.5 120.5C133.5 120.5 130.5 120.5 127.5 120.5C125.752 118.84 125.252 116.84 126 114.5C137.218 103.811 149.718 94.978 163.5 88C173.074 84.854 182.741 81.854 192.5 79C194.919 77.491 195.919 75.325 195.5 72.5Z" fill="#FCF3F4"/>
<path fill-rule="evenodd" clip-rule="evenodd" d="M291.5 71.5C291.5 72.167 291.5 72.833 291.5 73.5C291.703 82.99 294.37 91.657 299.5 99.5C300.833 97.833 302.167 96.167 303.5 94.5C305.217 98.991 305.883 103.657 305.5 108.5C304.833 108.5 304.167 108.5 303.5 108.5C302.653 107.034 301.32 106.2 299.5 106C296.183 105.502 292.85 105.335 289.5 105.5C287.833 105.5 286.167 105.5 284.5 105.5C286.698 104.835 289.031 104.168 291.5 103.5C288.761 101.149 286.095 98.816 283.5 96.5C285.224 91.551 286.391 86.218 287 80.5C288.059 77.197 289.559 74.197 291.5 71.5Z" fill="#826058"/>
<path fill-rule="evenodd" clip-rule="evenodd" d="M17.5 69.5C17.3742 82.537 16.3742 95.203 14.5 107.5C14.5 107.167 14.5 106.833 14.5 106.5C14.9902 94.124 15.9902 81.79 17.5 69.5Z" fill="#E3B8B8"/>
<path opacity="0.561" fill-rule="evenodd" clip-rule="evenodd" d="M1.5 82.5C1.8333 82.5 2.1667 82.5 2.5 82.5C4.5529 93.433 6.2195 104.433 7.5 115.5C4.4202 104.816 2.4202 93.816 1.5 82.5Z" fill="#A69A96"/>
<path fill-rule="evenodd" clip-rule="evenodd" d="M338.5 54.5C339.117 54.611 339.617 54.944 340 55.5C340.244 71.833 340.077 88.167 339.5 104.5C339.209 87.961 338.876 71.294 338.5 54.5Z" fill="#846863"/>
<path fill-rule="evenodd" clip-rule="evenodd" d="M172.5 104.5C175.228 104.171 177.562 104.837 179.5 106.5C176.933 106.279 174.599 105.612 172.5 104.5Z" fill="#8F7C7C"/>
<path fill-rule="evenodd" clip-rule="evenodd" d="M162.5 105.5C161.248 107.339 161.248 109.172 162.5 111C166.699 111.528 170.699 112.361 174.5 113.5C169.837 121.494 162.837 124.66 153.5 123C147.582 120.704 145.915 116.537 148.5 110.5C150.336 108.412 152.669 107.079 155.5 106.5C157.861 106.326 160.194 105.993 162.5 105.5Z" fill="#0B0A0A"/>
<path fill-rule="evenodd" clip-rule="evenodd" d="M162.5 105.5C167.769 105.599 172.769 106.766 177.5 109C179.161 112.15 178.161 113.65 174.5 113.5C170.699 112.361 166.699 111.528 162.5 111C161.248 109.172 161.248 107.339 162.5 105.5Z" fill="#E3E2E2"/>
<path fill-rule="evenodd" clip-rule="evenodd" d="M289.5 105.499C292.85 105.334 296.183 105.501 299.5 105.999C301.32 106.199 302.653 107.033 303.5 108.499C304.167 108.499 304.833 108.499 305.5 108.499C305.918 109.221 306.584 109.721 307.5 109.999C306.584 110.277 305.918 110.777 305.5 111.499C305.343 112.872 305.51 114.206 306 115.499C307.707 117.036 309.207 118.703 310.5 120.499C310.423 121.749 309.756 122.582 308.5 122.999C307 123.166 305.5 123.332 304 123.499C300.139 122.932 296.305 122.266 292.5 121.499C291.25 119.067 289.75 116.733 288 114.499C287.212 111.227 287.712 108.227 289.5 105.499Z" fill="#0B0808"/>
<path fill-rule="evenodd" clip-rule="evenodd" d="M154.5 108.5C155.833 108.5 157.167 108.5 158.5 108.5C158.938 112.908 156.938 114.575 152.5 113.5C152.365 111.446 153.032 109.779 154.5 108.5Z" fill="#D4D4D4"/>
<path fill-rule="evenodd" clip-rule="evenodd" d="M277.5 112.5C274.913 111.352 273.913 109.685 274.5 107.5C275.583 107.461 276.583 107.127 277.5 106.5C278.793 108.636 278.793 110.636 277.5 112.5Z" fill="#1F1616"/>
<path fill-rule="evenodd" clip-rule="evenodd" d="M303.5 108.5C303.5 109.5 303.5 110.5 303.5 111.5C301.801 111.66 300.134 111.494 298.5 111C297.269 109.817 297.269 108.651 298.5 107.5C300.071 108.309 301.738 108.643 303.5 108.5Z" fill="#D4D4D4"/>
<path fill-rule="evenodd" clip-rule="evenodd" d="M305.5 111.5C310.927 111.932 313.594 114.932 313.5 120.5C312.5 120.5 311.5 120.5 310.5 120.5C309.207 118.704 307.707 117.037 306 115.5C305.51 114.207 305.343 112.873 305.5 111.5Z" fill="#E6E5E5"/>
<path fill-rule="evenodd" clip-rule="evenodd" d="M282.5 113.5C283.404 114.209 283.737 115.209 283.5 116.5C281.118 115.649 279.118 114.316 277.5 112.5C278.793 110.636 278.793 108.636 277.5 106.5C276.583 107.127 275.583 107.461 274.5 107.5C276.328 105.39 278.661 104.556 281.5 105C279.556 107.153 279.056 109.653 280 112.5C280.838 113.999 281.671 114.332 282.5 113.5Z" fill="#716464"/>
<path fill-rule="evenodd" clip-rule="evenodd" d="M181.5 120.5C180.494 120.062 180.494 119.396 181.5 118.5C184.611 115.999 186.277 112.666 186.5 108.5C188.193 110.027 190.027 111.36 192 112.5C192.825 114.701 192.325 116.534 190.5 118C187.688 119.549 184.688 120.382 181.5 120.5Z" fill="#2F2322"/>
<path fill-rule="evenodd" clip-rule="evenodd" d="M284.5 105.5C286.167 105.5 287.833 105.5 289.5 105.5C287.712 108.228 287.212 111.228 288 114.5C289.75 116.734 291.25 119.068 292.5 121.5C289.366 120.099 286.366 118.432 283.5 116.5C283.737 115.209 283.404 114.209 282.5 113.5C282.111 110.447 282.777 107.78 284.5 105.5Z" fill="#4A2D2D"/>
<path fill-rule="evenodd" clip-rule="evenodd" d="M80.5 76.5C86.266 87.775 85.766 98.775 79 109.5C75.794 112.039 72.961 114.873 70.5 118C71.608 120.112 73.108 121.946 75 123.5C78.584 131.259 76.084 134.426 67.5 133C66.572 133.388 65.905 134.055 65.5 135C66.581 136.371 67.415 137.871 68 139.5C69.951 146.905 68.118 153.071 62.5 158C54.043 160.535 46.043 159.535 38.5 155C36.1667 154.333 33.8333 154.333 31.5 155C30.703 158.745 30.203 162.579 30 166.5C29.6174 165.944 29.1174 165.611 28.5 165.5C23.8319 146.497 19.1652 127.497 14.5 108.5C19.3829 118.595 25.0495 128.262 31.5 137.5C34.4357 142.105 38.1024 146.105 42.5 149.5C42.674 144.298 42.674 138.964 42.5 133.5C46.697 134.596 50.697 136.262 54.5 138.5C55.466 133.326 55.466 128.326 54.5 123.5C58.072 124.681 61.738 125.348 65.5 125.5C63.695 114.317 64.362 103.317 67.5 92.5C69.252 95.672 71.252 98.672 73.5 101.5C74.325 102.386 75.325 102.719 76.5 102.5C79.213 94.11 80.546 85.444 80.5 76.5Z" fill="#826058"/>
<path opacity="0.733" fill-rule="evenodd" clip-rule="evenodd" d="M7.5 115.5C8.1174 115.611 8.6174 115.944 9 116.5C11.1525 125.118 12.9858 133.784 14.5 142.5C11.1859 133.868 8.8525 124.868 7.5 115.5Z" fill="#A0928E"/>
<path fill-rule="evenodd" clip-rule="evenodd" d="M141.5 116.5C141.5 118.5 141.5 120.5 141.5 122.5C140.732 121.737 140.232 120.737 140 119.5C139.51 120.793 139.343 122.127 139.5 123.5C138.833 122.167 138.167 120.833 137.5 119.5C138.262 117.738 139.596 116.738 141.5 116.5Z" fill="#968D8C"/>
<path fill-rule="evenodd" clip-rule="evenodd" d="M172.5 104.499C174.599 105.611 176.933 106.278 179.5 106.499C181.919 107.256 183.253 108.922 183.5 111.499C182.54 113.476 181.54 115.476 180.5 117.499C180.624 118.106 180.957 118.439 181.5 118.499C180.494 119.395 180.494 120.061 181.5 120.499C176.728 122.277 171.728 123.61 166.5 124.499C163.505 124.293 160.838 124.959 158.5 126.499C156.833 126.499 155.167 126.499 153.5 126.499C150.068 126.242 146.734 125.575 143.5 124.499C142.5 124.166 141.833 123.499 141.5 122.499C141.5 120.499 141.5 118.499 141.5 116.499C142.899 113.435 145.232 111.435 148.5 110.499C145.915 116.536 147.582 120.703 153.5 122.999C162.837 124.659 169.837 121.493 174.5 113.499C178.161 113.649 179.161 112.149 177.5 108.999C172.769 106.765 167.769 105.598 162.5 105.499C160.194 105.992 157.861 106.325 155.5 106.499C160.935 103.551 166.601 102.885 172.5 104.499Z" fill="#4B3231"/>
<path fill-rule="evenodd" clip-rule="evenodd" d="M127.5 120.5C130.5 120.5 133.5 120.5 136.5 120.5C136.326 122.861 135.993 125.194 135.5 127.5C134.833 126.167 134.167 124.833 133.5 123.5C133.611 122.883 133.944 122.383 134.5 122C131.964 121.814 129.631 121.314 127.5 120.5Z" fill="#8D6E6A"/>
<path fill-rule="evenodd" clip-rule="evenodd" d="M318.5 127.5C317.833 127.5 317.5 127.833 317.5 128.5C316.5 128.5 315.5 128.5 314.5 128.5C314.5 127.833 314.5 127.167 314.5 126.5C315.319 123.695 315.819 120.695 316 117.5C318.164 120.447 318.998 123.781 318.5 127.5Z" fill="#E1DEDD"/>
<path fill-rule="evenodd" clip-rule="evenodd" d="M305.5 108.5C311.797 109.32 318.131 109.653 324.5 109.5C323.662 112.686 322.662 115.853 321.5 119C321.833 119.5 322.167 120 322.5 120.5C323.968 118.667 325.635 118.334 327.5 119.5C329.833 124.167 332.167 128.833 334.5 133.5C335.952 132.06 336.952 130.394 337.5 128.5C339.273 125.82 340.607 122.82 341.5 119.5C342.402 122.997 343.069 126.663 343.5 130.5C343.101 135.422 340.767 139.255 336.5 142C339.92 143.746 343.087 145.913 346 148.5C346.789 150.712 346.622 152.712 345.5 154.5C344.928 152.745 344.094 151.078 343 149.5C336.167 143.333 329.333 137.167 322.5 131C319.478 130.902 316.811 130.068 314.5 128.5C315.5 128.5 316.5 128.5 317.5 128.5C318.946 129.613 320.613 129.78 322.5 129C321.745 126.825 320.912 124.659 320 122.5C319.802 124.382 319.302 126.048 318.5 127.5C318.998 123.781 318.164 120.447 316 117.5C315.819 120.695 315.319 123.695 314.5 126.5C314.795 124.265 314.461 122.265 313.5 120.5C313.594 114.932 310.927 111.932 305.5 111.5C305.918 110.778 306.584 110.278 307.5 110C306.584 109.722 305.918 109.222 305.5 108.5Z" fill="#816059"/>
<path opacity="0.506" fill-rule="evenodd" clip-rule="evenodd" d="M348.5 117.5C349.657 120.273 350.324 123.273 350.5 126.5C348.735 123.877 348.068 120.877 348.5 117.5Z" fill="#A69996"/>
<path fill-rule="evenodd" clip-rule="evenodd" d="M137.5 119.5C138.167 120.833 138.833 122.167 139.5 123.5C140.167 124.833 141.167 125.833 142.5 126.5C140.393 127.468 138.059 127.802 135.5 127.5C135.993 125.194 136.326 122.861 136.5 120.5C137.167 120.5 137.5 120.167 137.5 119.5Z" fill="#231616"/>
<path fill-rule="evenodd" clip-rule="evenodd" d="M251.5 118.5C258.743 119.937 266.076 120.604 273.5 120.5C275.415 120.216 277.081 120.549 278.5 121.5C270.527 121.674 270.527 122.174 278.5 123C278.957 123.414 279.291 123.914 279.5 124.5C275.205 125.661 270.871 125.828 266.5 125C265.027 124.29 264.36 123.124 264.5 121.5C263.167 121.5 261.833 121.5 260.5 121.5C260.5 122.5 260.5 123.5 260.5 124.5C255.323 125.645 252.323 123.645 251.5 118.5Z" fill="#D7A6A3"/>
<path fill-rule="evenodd" clip-rule="evenodd" d="M141.5 122.5C141.833 123.5 142.5 124.167 143.5 124.5C146.258 125.967 145.925 126.633 142.5 126.5C141.167 125.833 140.167 124.833 139.5 123.5C139.343 122.127 139.51 120.793 140 119.5C140.232 120.737 140.732 121.737 141.5 122.5Z" fill="#D4D0D0"/>
<path fill-rule="evenodd" clip-rule="evenodd" d="M251.5 118.499C252.323 123.644 255.323 125.644 260.5 124.499C260.5 123.499 260.5 122.499 260.5 121.499C261.833 121.499 263.167 121.499 264.5 121.499C264.36 123.123 265.027 124.289 266.5 124.999C270.871 125.827 275.205 125.66 279.5 124.499C279.291 123.913 278.957 123.413 278.5 122.999C270.527 122.173 270.527 121.673 278.5 121.499C282.044 121.131 285.044 122.131 287.5 124.499C285.974 125.104 284.974 126.27 284.5 127.999C280.691 128.587 277.024 128.087 273.5 126.499C270.896 126.551 268.729 127.551 267 129.499C265.225 128.729 263.725 127.562 262.5 125.999C256.449 125.739 250.449 125.072 244.5 123.999C242.917 122.241 241.25 120.741 239.5 119.499C239.611 118.882 239.944 118.382 240.5 117.999C244.255 117.244 247.922 117.41 251.5 118.499Z" fill="#C68987"/>
<path fill-rule="evenodd" clip-rule="evenodd" d="M310.5 120.5C311.5 120.5 312.5 120.5 313.5 120.5C314.461 122.265 314.795 124.265 314.5 126.5C314.5 127.167 314.5 127.833 314.5 128.5C306.185 128.997 298.852 126.664 292.5 121.5C296.305 122.267 300.139 122.933 304 123.5C305.5 123.333 307 123.167 308.5 123C309.756 122.583 310.423 121.75 310.5 120.5Z" fill="#4C3030"/>
<path fill-rule="evenodd" clip-rule="evenodd" d="M166.5 124.499C164.095 125.767 161.428 126.434 158.5 126.499C160.838 124.959 163.505 124.293 166.5 124.499Z" fill="#9B8989"/>
<path fill-rule="evenodd" clip-rule="evenodd" d="M239.5 119.5C241.25 120.742 242.917 122.242 244.5 124C250.449 125.073 256.449 125.74 262.5 126C263.725 127.563 265.225 128.73 267 129.5C268.729 127.552 270.896 126.552 273.5 126.5C277.024 128.088 280.691 128.588 284.5 128C284.974 126.271 285.974 125.105 287.5 124.5C287.5 126.167 287.5 127.833 287.5 129.5C284.137 132.572 280.137 134.406 275.5 135C273.241 136.715 271.074 138.548 269 140.5C268.517 141.448 268.351 142.448 268.5 143.5C269.791 143.263 270.791 143.596 271.5 144.5C270.167 144.5 268.833 144.5 267.5 144.5C267.226 139.608 267.893 134.941 269.5 130.5C267.167 130.5 264.833 130.5 262.5 130.5C262.817 134.702 262.483 138.702 261.5 142.5C261.78 139.728 261.113 137.228 259.5 135C254.633 131.437 249.3 128.937 243.5 127.5C239.423 125.944 238.089 123.277 239.5 119.5Z" fill="#A66565"/>
<path fill-rule="evenodd" clip-rule="evenodd" d="M143.5 124.5C146.734 125.576 150.068 126.243 153.5 126.5C147.548 128.297 141.548 128.63 135.5 127.5C138.059 127.802 140.393 127.468 142.5 126.5C145.925 126.633 146.258 125.967 143.5 124.5Z" fill="#726463"/>
<path fill-rule="evenodd" clip-rule="evenodd" d="M317.5 128.5C317.5 127.833 317.833 127.5 318.5 127.5C319.302 126.048 319.802 124.382 320 122.5C320.912 124.659 321.745 126.825 322.5 129C320.613 129.78 318.946 129.613 317.5 128.5Z" fill="#221514"/>
<path opacity="0.745" fill-rule="evenodd" clip-rule="evenodd" d="M350.5 126.5C352.125 130.303 353.458 134.303 354.5 138.5C353.034 137.653 352.2 136.32 352 134.5C351.178 131.883 350.678 129.216 350.5 126.5Z" fill="#A29592"/>
<path fill-rule="evenodd" clip-rule="evenodd" d="M343.5 130.5C345.504 136.143 347.671 141.81 350 147.5C353.433 152.597 356.433 157.931 359 163.5C363.117 174.923 366.284 186.589 368.5 198.5C364.608 189.714 359.941 181.38 354.5 173.5C350.909 167.902 346.909 162.569 342.5 157.5C343.188 156.145 344.188 155.145 345.5 154.5C346.622 152.712 346.789 150.712 346 148.5C343.087 145.913 339.92 143.746 336.5 142C340.767 139.255 343.101 135.422 343.5 130.5Z" fill="#754A45"/>
<path fill-rule="evenodd" clip-rule="evenodd" d="M273.5 120.501C266.076 120.605 258.743 119.938 251.5 118.501C247.922 117.412 244.255 117.246 240.5 118.001C239.944 118.384 239.611 118.884 239.5 119.501C238.089 123.278 239.423 125.945 243.5 127.501C243.918 128.223 244.584 128.723 245.5 129.001C225.47 136.477 205.136 143.144 184.5 149.001C134.835 165.142 112.335 199.309 117 251.501C123.144 283.957 140.311 308.79 168.5 326.001C216.808 352.889 264.475 351.889 311.5 323.001C345.106 295.604 360.606 260.104 358 216.501C355.858 205.925 352.191 195.925 347 186.501C338.711 175.045 329.211 164.712 318.5 155.501C321.262 156.381 323.929 157.547 326.5 159.001C333.5 164.668 340.5 170.334 347.5 176.001C350.143 177.437 352.81 177.603 355.5 176.501C354.873 175.584 354.539 174.584 354.5 173.501C359.941 181.381 364.608 189.715 368.5 198.501C368.5 199.168 368.5 199.834 368.5 200.501C368.994 206.993 369.661 213.326 370.5 219.501C370.5 222.168 370.5 224.834 370.5 227.501C369.523 230.288 369.19 233.288 369.5 236.501C367.716 237.575 366.549 239.241 366 241.501C364.3 249.239 362.3 256.905 360 264.501C344.199 296.928 321.699 323.761 292.5 345.001C259.07 363.11 224.07 366.444 187.5 355.001C178.082 350.861 168.748 346.528 159.5 342.001C145.207 338.856 130.874 335.856 116.5 333.001C104.903 328.075 95.736 320.241 89 309.501C82.013 297.014 76.513 284.014 72.5 270.501C74.625 263.639 77.625 257.139 81.5 251.001C73.072 249.889 70.572 245.389 74 237.501C80.407 226.426 88.907 217.259 99.5 210.001C90.293 206.412 87.46 199.912 91 190.501C98.145 176.869 107.311 164.869 118.5 154.501C119.429 155.316 120.429 156.149 121.5 157.001C129.755 158.084 137.755 157.084 145.5 154.001C156.615 148.776 167.948 144.109 179.5 140.001C195.072 136.525 210.739 133.525 226.5 131.001C229 130.116 231.333 128.949 233.5 127.501C234.184 123.555 234.184 119.555 233.5 115.501C247.657 112.898 260.99 114.565 273.5 120.501Z" fill="#E5D0CB"/>
<path opacity="0.4" fill-rule="evenodd" clip-rule="evenodd" d="M357.5 145.5C358.906 145.973 359.573 146.973 359.5 148.5C358.094 148.027 357.427 147.027 357.5 145.5Z" fill="#B3A8A5"/>
<path opacity="0.667" fill-rule="evenodd" clip-rule="evenodd" d="M14.5 142.5C15.1174 142.611 15.6174 142.944 16 143.5C17.1564 148.122 17.9897 152.789 18.5 157.5C16.6752 152.745 15.3419 147.745 14.5 142.5Z" fill="#9D8F8A"/>
<path fill-rule="evenodd" clip-rule="evenodd" d="M55.5 269.501C51.521 260.736 48.021 251.736 45 242.501C40.077 223.591 35.9107 204.591 32.5 185.501C36.3589 187.06 40.026 186.726 43.5 184.501C47.011 181.108 47.344 177.442 44.5 173.501C44.833 173.168 45.167 172.834 45.5 172.501C55.439 180.751 64.939 180.418 74 171.501C77.5 165.168 81 158.834 84.5 152.501C85.365 151.418 86.365 151.252 87.5 152.001C84.338 170.32 78.671 187.82 70.5 204.501C71.428 205.769 71.595 207.102 71 208.501C61.419 221.134 56.919 235.467 57.5 251.501C58.833 251.501 60.167 251.501 61.5 251.501C61.662 253.528 61.495 255.528 61 257.501C58.875 261.414 57.042 265.414 55.5 269.501Z" fill="#673B36"/>
<path fill-rule="evenodd" clip-rule="evenodd" d="M361.5 152.5C363.592 155.088 364.925 158.088 365.5 161.5C362.835 159.165 361.502 156.165 361.5 152.5Z" fill="#8E7D79"/>
<path fill-rule="evenodd" clip-rule="evenodd" d="M243.5 127.5C249.3 128.937 254.633 131.437 259.5 135C261.113 137.228 261.78 139.728 261.5 142.5C247.975 143.219 234.308 143.885 220.5 144.5C216.159 144.658 212.159 145.658 208.5 147.5C194.542 150.483 181.875 156.15 170.5 164.5C160.214 170.452 151.881 178.452 145.5 188.5C137.507 198.49 132.174 209.824 129.5 222.5C128.778 222.918 128.278 223.584 128 224.5C127.39 231.158 126.89 237.825 126.5 244.5C126.421 249.412 127.088 254.079 128.5 258.5C130.761 268.626 134.761 277.96 140.5 286.5C143.411 291.746 147.078 296.413 151.5 300.5C153.833 304.833 157.167 308.167 161.5 310.5C187.835 333.221 218.501 343.054 253.5 340C265.896 337.902 277.896 334.569 289.5 330C295.07 326.725 300.403 323.225 305.5 319.5C309.758 317.207 313.424 314.207 316.5 310.5C325.38 302.955 332.38 293.955 337.5 283.5C349.719 261.579 352.719 238.579 346.5 214.5C343.015 203.197 337.682 192.864 330.5 183.5C328.727 180.94 326.727 178.607 324.5 176.5C310.413 159.954 292.746 149.288 271.5 144.5C270.791 143.596 269.791 143.263 268.5 143.5C268.351 142.448 268.517 141.448 269 140.5C271.074 138.548 273.241 136.715 275.5 135C280.137 134.406 284.137 132.572 287.5 129.5C296.548 139.535 306.882 148.202 318.5 155.5C329.211 164.711 338.711 175.044 347 186.5C352.191 195.924 355.858 205.924 358 216.5C360.606 260.103 345.106 295.603 311.5 323C264.475 351.888 216.808 352.888 168.5 326C140.311 308.789 123.144 283.956 117 251.5C112.335 199.308 134.835 165.141 184.5 149C205.136 143.143 225.47 136.476 245.5 129C244.584 128.722 243.918 128.222 243.5 127.5Z" fill="#AD918B"/>
<path fill-rule="evenodd" clip-rule="evenodd" d="M220.5 144.5C220.389 145.117 220.056 145.617 219.5 146C215.83 146.548 212.163 147.048 208.5 147.5C212.159 145.658 216.159 144.658 220.5 144.5Z" fill="#573F39"/>
<path fill-rule="evenodd" clip-rule="evenodd" d="M271.5 144.5C292.746 149.288 310.413 159.954 324.5 176.5C323.848 177.449 323.514 178.615 323.5 180C324.229 184.267 324.896 188.267 325.5 192C324.598 194.202 323.598 196.368 322.5 198.5C320.289 199.123 318.289 200.123 316.5 201.5C310.66 200.719 304.66 199.553 298.5 198C288.316 193.076 277.983 188.409 267.5 184C254.626 180.461 241.96 181.128 229.5 186C213.559 194.47 197.226 202.137 180.5 209C174.903 210.456 169.237 210.789 163.5 210C161.667 209.5 160.5 208.333 160 206.5C159.077 192.948 162.41 180.615 170 169.5C170.494 167.866 170.66 166.199 170.5 164.5C181.875 156.15 194.542 150.483 208.5 147.5C212.163 147.048 215.83 146.548 219.5 146C220.056 145.617 220.389 145.117 220.5 144.5C234.308 143.885 247.975 143.219 261.5 142.5C262.483 138.702 262.817 134.702 262.5 130.5C264.833 130.5 267.167 130.5 269.5 130.5C267.893 134.941 267.226 139.608 267.5 144.5C268.833 144.5 270.167 144.5 271.5 144.5Z" fill="#230D07"/>
<path fill-rule="evenodd" clip-rule="evenodd" d="M365.5 161.5C367.4 164.518 368.733 167.851 369.5 171.5C367.103 168.691 365.77 165.358 365.5 161.5Z" fill="#948580"/>
<path opacity="0.294" fill-rule="evenodd" clip-rule="evenodd" d="M18.5 159.5C19.9663 160.347 20.7996 161.68 21 163.5C21.7189 167.145 22.2189 170.812 22.5 174.5C20.6747 169.741 19.3413 164.741 18.5 159.5Z" fill="#B2A7A3"/>
<path fill-rule="evenodd" clip-rule="evenodd" d="M170.5 164.5C170.66 166.199 170.494 167.866 170 169.5C162.41 180.615 159.077 192.948 160 206.5C160.5 208.333 161.667 209.5 163.5 210C169.237 210.789 174.903 210.456 180.5 209C197.226 202.137 213.559 194.47 229.5 186C241.96 181.128 254.626 180.461 267.5 184C277.983 188.409 288.316 193.076 298.5 198C304.66 199.553 310.66 200.719 316.5 201.5C318.289 200.123 320.289 199.123 322.5 198.5C323.598 196.368 324.598 194.202 325.5 192C324.896 188.267 324.229 184.267 323.5 180C323.514 178.615 323.848 177.449 324.5 176.5C326.727 178.607 328.727 180.94 330.5 183.5C330.039 185.55 329.372 187.55 328.5 189.5C329.066 192.417 329.066 195.417 328.5 198.5C326.692 198.491 325.025 198.991 323.5 200C324.5 200.333 325.5 200.667 326.5 201C321.518 206.16 315.518 209.327 308.5 210.5C302.205 209.537 295.872 208.703 289.5 208C280.463 204.626 271.13 202.126 261.5 200.5C253.198 202.11 244.864 203.943 236.5 206C229.943 210.446 222.943 214.112 215.5 217C205.652 223.928 194.985 229.095 183.5 232.5C181.173 231.918 179.006 231.918 177 232.5C169.708 228.318 161.875 225.651 153.5 224.5C152.833 224.5 152.167 224.5 151.5 224.5C149.864 223.251 148.697 221.584 148 219.5C146.144 210.877 144.311 202.377 142.5 194C143.833 193 145.167 192 146.5 191C145.748 190.329 145.414 189.496 145.5 188.5C151.881 178.452 160.214 170.452 170.5 164.5Z" fill="#2A110D"/>
<path opacity="0.745" fill-rule="evenodd" clip-rule="evenodd" d="M369.5 171.5C370.924 173.515 371.59 175.848 371.5 178.5C370.076 176.485 369.41 174.152 369.5 171.5Z" fill="#A89C98"/>
<path opacity="0.639" fill-rule="evenodd" clip-rule="evenodd" d="M371.5 178.5C373.277 181.505 374.277 184.838 374.5 188.5C372.723 185.495 371.723 182.162 371.5 178.5Z" fill="#ADA19D"/>
<path fill-rule="evenodd" clip-rule="evenodd" d="M330.5 183.5C337.682 192.864 343.015 203.197 346.5 214.5C347.581 220.806 348.081 227.139 348 233.5C348.053 230.387 346.886 227.887 344.5 226C334.303 218.404 322.97 216.404 310.5 220C303.255 222.622 296.588 226.289 290.5 231C279.041 243.464 266.374 254.464 252.5 264C244.098 267.071 235.598 268.571 227 268.5C219.912 266.54 213.412 263.373 207.5 259C198.771 250.269 189.438 242.269 179.5 235C171.001 231.002 162.334 227.502 153.5 224.5C161.875 225.651 169.708 228.318 177 232.5C179.006 231.918 181.173 231.918 183.5 232.5C194.985 229.095 205.652 223.928 215.5 217C222.943 214.112 229.943 210.446 236.5 206C244.864 203.943 253.198 202.11 261.5 200.5C271.13 202.126 280.463 204.626 289.5 208C295.872 208.703 302.205 209.537 308.5 210.5C315.518 209.327 321.518 206.16 326.5 201C325.5 200.667 324.5 200.333 323.5 200C325.025 198.991 326.692 198.491 328.5 198.5C329.066 195.417 329.066 192.417 328.5 189.5C329.372 187.55 330.039 185.55 330.5 183.5Z" fill="#321415"/>
<path fill-rule="evenodd" clip-rule="evenodd" d="M374.5 189.5C375.687 192.946 376.354 196.613 376.5 200.5C374.783 197.155 374.116 193.489 374.5 189.5Z" fill="#8E7E7A"/>
<path fill-rule="evenodd" clip-rule="evenodd" d="M145.5 188.5C145.414 189.496 145.748 190.329 146.5 191C145.167 192 143.833 193 142.5 194C144.311 202.377 146.144 210.877 148 219.5C148.697 221.584 149.864 223.251 151.5 224.5C144.203 223.962 136.869 224.628 129.5 226.5C129.5 225.167 129.5 223.833 129.5 222.5C132.174 209.824 137.507 198.49 145.5 188.5Z" fill="#331516"/>
<path opacity="0.506" fill-rule="evenodd" clip-rule="evenodd" d="M376.5 200.5C378.136 204.21 378.802 208.21 378.5 212.5C377.833 212.5 377.167 212.5 376.5 212.5C376.5 208.5 376.5 204.5 376.5 200.5Z" fill="#A69A96"/>
<path opacity="0.561" fill-rule="evenodd" clip-rule="evenodd" d="M22.5 175.5C23.1174 175.611 23.6174 175.944 24 176.5C27.1579 193.114 29.9912 209.781 32.5 226.5C28.4356 209.756 25.1022 192.756 22.5 175.5Z" fill="#A29590"/>
<path fill-rule="evenodd" clip-rule="evenodd" d="M368.5 200.5C369.268 201.263 369.768 202.263 370 203.5C370.499 208.823 370.666 214.156 370.5 219.5C369.661 213.325 368.994 206.992 368.5 200.5Z" fill="#AE9690"/>
<path opacity="0.812" fill-rule="evenodd" clip-rule="evenodd" d="M376.5 212.5C377.167 212.5 377.833 212.5 378.5 212.5C378.5 214.833 378.5 217.167 378.5 219.5C376.656 217.721 375.99 215.388 376.5 212.5Z" fill="#715E57"/>
<path fill-rule="evenodd" clip-rule="evenodd" d="M346.5 214.5C352.719 238.579 349.719 261.579 337.5 283.5C336.379 281.911 336.546 280.244 338 278.5C339.191 271.105 338.025 264.105 334.5 257.5C333.372 256.738 332.205 256.071 331 255.5C328.931 256.264 326.764 256.764 324.5 257C308.431 269.417 291.598 280.584 274 290.5C255.131 297.486 235.964 298.32 216.5 293C210.685 290.425 204.685 288.425 198.5 287C193.494 283.325 188.494 279.658 183.5 276C181.782 275.654 180.115 275.154 178.5 274.5C172.381 269.339 166.381 264.005 160.5 258.5C156.1 255.137 151.433 252.137 146.5 249.5C145.558 249.608 144.725 249.941 144 250.5C141.106 262.296 139.939 274.296 140.5 286.5C134.761 277.96 130.761 268.626 128.5 258.5C128.172 247.654 128.506 236.987 129.5 226.5C136.869 224.628 144.203 223.962 151.5 224.5C152.167 224.5 152.833 224.5 153.5 224.5C162.334 227.502 171.001 231.002 179.5 235C189.438 242.269 198.771 250.269 207.5 259C213.412 263.373 219.912 266.54 227 268.5C235.598 268.571 244.098 267.071 252.5 264C266.374 254.464 279.041 243.464 290.5 231C296.588 226.289 303.255 222.622 310.5 220C322.97 216.404 334.303 218.404 344.5 226C346.886 227.887 348.053 230.387 348 233.5C348.081 227.139 347.581 220.806 346.5 214.5Z" fill="#3C1A18"/>
<path opacity="0.827" fill-rule="evenodd" clip-rule="evenodd" d="M378.5 227.5C378.5 229.833 378.5 232.167 378.5 234.5C377.833 235.833 377.167 237.167 376.5 238.5C376.335 235.15 376.502 231.817 377 228.5C377.383 227.944 377.883 227.611 378.5 227.5Z" fill="#74615B"/>
<path opacity="0.639" fill-rule="evenodd" clip-rule="evenodd" d="M32.5 226.5C33.6491 226.791 34.3158 227.624 34.5 229C35.9399 236.257 37.6066 243.424 39.5 250.5C35.9892 242.955 33.6559 234.955 32.5 226.5Z" fill="#9D8F8B"/>
<path opacity="0.255" fill-rule="evenodd" clip-rule="evenodd" d="M378.5 234.5C378.656 238.764 377.989 242.764 376.5 246.5C376.5 243.833 376.5 241.167 376.5 238.5C377.167 237.167 377.833 235.833 378.5 234.5Z" fill="#BAB1AD"/>
<path fill-rule="evenodd" clip-rule="evenodd" d="M129.5 222.5C129.5 223.833 129.5 225.167 129.5 226.5C128.506 236.987 128.172 247.654 128.5 258.5C127.088 254.079 126.421 249.412 126.5 244.5C126.89 237.825 127.39 231.158 128 224.5C128.278 223.584 128.778 222.918 129.5 222.5Z" fill="#53322F"/>
<path fill-rule="evenodd" clip-rule="evenodd" d="M370.5 227.5C370.666 231.514 370.499 235.514 370 239.5C368.501 248.314 367.001 256.981 365.5 265.5C366.505 259.977 366.505 254.477 365.5 249C367.202 244.956 368.536 240.789 369.5 236.5C369.19 233.287 369.523 230.287 370.5 227.5Z" fill="#B89F99"/>
<path fill-rule="evenodd" clip-rule="evenodd" d="M337.5 283.5C332.38 293.955 325.38 302.955 316.5 310.5C315.957 310.44 315.624 310.107 315.5 309.5C321.076 302.385 320.742 295.719 314.5 289.5C313.393 288.978 312.226 288.645 311 288.5C298.984 295.287 286.484 301.121 273.5 306C266.774 308.43 259.774 310.097 252.5 311C241.833 311.667 231.167 311.667 220.5 311C213.434 308.249 206.101 306.249 198.5 305C183.937 299.365 170.27 292.032 157.5 283C148.987 281.529 146.154 285.029 149 293.5C149.536 295.869 150.703 297.869 152.5 299.5C152.376 300.107 152.043 300.44 151.5 300.5C147.078 296.413 143.411 291.746 140.5 286.5C139.939 274.296 141.106 262.296 144 250.5C144.725 249.941 145.558 249.608 146.5 249.5C151.433 252.137 156.1 255.137 160.5 258.5C166.381 264.005 172.381 269.339 178.5 274.5C180.115 275.154 181.782 275.654 183.5 276C188.494 279.658 193.494 283.325 198.5 287C204.685 288.425 210.685 290.425 216.5 293C235.964 298.32 255.131 297.486 274 290.5C291.598 280.584 308.431 269.417 324.5 257C326.764 256.764 328.931 256.264 331 255.5C332.205 256.071 333.372 256.738 334.5 257.5C338.025 264.105 339.191 271.105 338 278.5C336.546 280.244 336.379 281.911 337.5 283.5Z" fill="#4D1E1D"/>
<path opacity="0.867" fill-rule="evenodd" clip-rule="evenodd" d="M39.5 250.5C40.966 251.347 41.8 252.68 42 254.5C42.822 257.117 43.322 259.784 43.5 262.5C41.595 258.784 40.261 254.784 39.5 250.5Z" fill="#9B8D89"/>
<path fill-rule="evenodd" clip-rule="evenodd" d="M369.5 236.5C368.536 240.789 367.202 244.956 365.5 249C366.505 254.477 366.505 259.977 365.5 265.5C357.643 300.023 339.643 328.023 311.5 349.5C309.596 349.738 308.262 350.738 307.5 352.5C300.142 356.873 292.808 361.207 285.5 365.5C280.947 366.562 276.947 368.562 273.5 371.5C266.893 373.423 260.226 375.256 253.5 377C246.292 377.757 239.292 378.924 232.5 380.5C219.13 380.778 205.797 380.445 192.5 379.5C130.968 372.559 87.301 340.892 61.5 284.5C65.875 280.451 69.541 275.784 72.5 270.5C76.513 284.013 82.013 297.013 89 309.5C95.736 320.24 104.903 328.074 116.5 333C130.874 335.855 145.207 338.855 159.5 342C168.748 346.527 178.082 350.86 187.5 355C224.07 366.443 259.07 363.109 292.5 345C321.699 323.76 344.199 296.927 360 264.5C362.3 256.904 364.3 249.238 366 241.5C366.549 239.24 367.716 237.574 369.5 236.5Z" fill="#CAB1AC"/>
<path opacity="0.188" fill-rule="evenodd" clip-rule="evenodd" d="M375.5 254.5C375.344 260.116 374.344 265.449 372.5 270.5C372.962 265.838 373.462 261.171 374 256.5C374.278 255.584 374.778 254.918 375.5 254.5Z" fill="#B3A8A5"/>
<path opacity="0.455" fill-rule="evenodd" clip-rule="evenodd" d="M43.5 262.5C45.766 265.262 47.099 268.595 47.5 272.5C45.6 269.482 44.267 266.149 43.5 262.5Z" fill="#A89B97"/>
<path opacity="0.627" fill-rule="evenodd" clip-rule="evenodd" d="M372.5 271.5C371.765 275.805 370.432 279.805 368.5 283.5C368.946 278.983 370.279 274.983 372.5 271.5Z" fill="#9D8F8A"/>
<path opacity="0.455" fill-rule="evenodd" clip-rule="evenodd" d="M47.5 272.5C49.448 274.32 50.448 276.654 50.5 279.5C48.935 277.491 47.935 275.157 47.5 272.5Z" fill="#A99C98"/>
<path fill-rule="evenodd" clip-rule="evenodd" d="M316.5 310.5C313.424 314.207 309.758 317.207 305.5 319.5C303.608 318.149 301.442 317.482 299 317.5C284.557 320.028 270.057 322.194 255.5 324C237.522 325.455 219.522 325.788 201.5 325C186.945 323.207 173.611 318.373 161.5 310.5C157.167 308.167 153.833 304.833 151.5 300.5C152.043 300.44 152.376 300.107 152.5 299.5C150.703 297.869 149.536 295.869 149 293.5C146.154 285.029 148.987 281.529 157.5 283C170.27 292.032 183.937 299.365 198.5 305C206.101 306.249 213.434 308.249 220.5 311C231.167 311.667 241.833 311.667 252.5 311C259.774 310.097 266.774 308.43 273.5 306C286.484 301.121 298.984 295.287 311 288.5C312.226 288.645 313.393 288.978 314.5 289.5C320.742 295.719 321.076 302.385 315.5 309.5C315.624 310.107 315.957 310.44 316.5 310.5Z" fill="#612E2C"/>
<path opacity="0.439" fill-rule="evenodd" clip-rule="evenodd" d="M50.5 279.5C52.607 282.057 53.941 285.057 54.5 288.5C52.408 285.912 51.075 282.912 50.5 279.5Z" fill="#A69A96"/>
<path opacity="0.655" fill-rule="evenodd" clip-rule="evenodd" d="M368.5 284.5C367.21 290.401 364.877 295.735 361.5 300.5C363.027 294.695 365.361 289.362 368.5 284.5Z" fill="#A69995"/>
<path opacity="0.612" fill-rule="evenodd" clip-rule="evenodd" d="M54.5 288.5C56.539 289.911 57.539 291.911 57.5 294.5C55.992 292.819 54.992 290.819 54.5 288.5Z" fill="#A19390"/>
<path opacity="0.561" fill-rule="evenodd" clip-rule="evenodd" d="M58.5 296.5C60.104 297.287 60.771 298.62 60.5 300.5C59.326 299.486 58.66 298.153 58.5 296.5Z" fill="#A49794"/>
<path opacity="0.322" fill-rule="evenodd" clip-rule="evenodd" d="M61.4995 302.5C62.9055 302.973 63.5725 303.973 63.4995 305.5C62.0935 305.027 61.4265 304.027 61.4995 302.5Z" fill="#B4ABA8"/>
<path opacity="0.427" fill-rule="evenodd" clip-rule="evenodd" d="M358.5 306.5C358.25 308.674 357.25 310.341 355.5 311.5C355.75 309.326 356.75 307.659 358.5 306.5Z" fill="#ADA39E"/>
<path fill-rule="evenodd" clip-rule="evenodd" d="M65.5 309.5C67.877 311.228 69.544 313.561 70.5 316.5C68.11 314.733 66.443 312.4 65.5 309.5Z" fill="#9A8C87"/>
<path opacity="0.027" fill-rule="evenodd" clip-rule="evenodd" d="M352.5 316.5C352.573 318.027 351.906 319.027 350.5 319.5C350.427 317.973 351.094 316.973 352.5 316.5Z" fill="#C1B8B5"/>
<path fill-rule="evenodd" clip-rule="evenodd" d="M161.5 310.5C173.611 318.373 186.945 323.207 201.5 325C219.522 325.788 237.522 325.455 255.5 324C270.057 322.194 284.557 320.028 299 317.5C301.442 317.482 303.608 318.149 305.5 319.5C300.403 323.225 295.07 326.725 289.5 330C277.896 334.569 265.896 337.902 253.5 340C218.501 343.054 187.835 333.221 161.5 310.5Z" fill="#7D413F"/>
<path opacity="0.145" fill-rule="evenodd" clip-rule="evenodd" d="M349.5 320.5C349.573 322.027 348.906 323.027 347.5 323.5C347.427 321.973 348.094 320.973 349.5 320.5Z" fill="#B1A5A1"/>
<path opacity="0.055" fill-rule="evenodd" clip-rule="evenodd" d="M74.4995 322.5C75.9055 322.973 76.5725 323.973 76.4995 325.5C75.0935 325.027 74.4265 324.027 74.4995 322.5Z" fill="#BFB6B3"/>
<path opacity="0.122" fill-rule="evenodd" clip-rule="evenodd" d="M346.5 324.5C346.573 326.027 345.906 327.027 344.5 327.5C344.5 327.167 344.5 326.833 344.5 326.5C344.833 325.5 345.5 324.833 346.5 324.5Z" fill="#B2A7A3"/>
<path opacity="0.027" fill-rule="evenodd" clip-rule="evenodd" d="M78.4995 327.5C79.9055 327.973 80.5725 328.973 80.4995 330.5C79.0935 330.027 78.4265 329.027 78.4995 327.5Z" fill="#C0B9B5"/>
<path opacity="0.027" fill-rule="evenodd" clip-rule="evenodd" d="M343.5 328.5C343.262 330.404 342.262 331.738 340.5 332.5C340.738 330.596 341.738 329.262 343.5 328.5Z" fill="#C2B9B6"/>
<path opacity="0.733" fill-rule="evenodd" clip-rule="evenodd" d="M85.5 336.5C89.1 338.43 92.1 341.097 94.5 344.5C90.9 342.57 87.9 339.903 85.5 336.5Z" fill="#AFA39E"/>
<path opacity="0.678" fill-rule="evenodd" clip-rule="evenodd" d="M96.5 346.5C99.089 347.419 101.089 349.086 102.5 351.5C99.911 350.581 97.911 348.914 96.5 346.5Z" fill="#A29490"/>
<path opacity="0.973" fill-rule="evenodd" clip-rule="evenodd" d="M102.5 351.5C104.404 351.738 105.738 352.738 106.5 354.5C104.596 354.262 103.262 353.262 102.5 351.5Z" fill="#93847F"/>
<path opacity="0.933" fill-rule="evenodd" clip-rule="evenodd" d="M106.5 354.5C108.404 354.738 109.738 355.738 110.5 357.5C108.596 357.262 107.262 356.262 106.5 354.5Z" fill="#968783"/>
<path opacity="0.667" fill-rule="evenodd" clip-rule="evenodd" d="M110.5 357.5C112.027 357.427 113.027 358.094 113.5 359.5C111.973 359.573 110.973 358.906 110.5 357.5Z" fill="#9D8F8B"/>
<path opacity="0.588" fill-rule="evenodd" clip-rule="evenodd" d="M113.5 359.5C115.027 359.427 116.027 360.094 116.5 361.5C114.973 361.573 113.973 360.906 113.5 359.5Z" fill="#9F918D"/>
<path fill-rule="evenodd" clip-rule="evenodd" d="M344.5 326.5C344.5 326.833 344.5 327.167 344.5 327.5C344.5 328.167 344.167 328.5 343.5 328.5C341.738 329.262 340.738 330.596 340.5 332.5C331.339 343.668 320.672 353.001 308.5 360.5C306.973 360.427 305.973 361.094 305.5 362.5C301.167 365.669 296.5 368.336 291.5 370.5C289.181 370.992 287.181 371.992 285.5 373.5C283.62 373.229 282.287 373.896 281.5 375.5C280.833 375.5 280.167 375.5 279.5 375.5C280.815 372.45 279.815 371.783 276.5 373.5C275.735 372.388 274.735 371.721 273.5 371.5C276.947 368.562 280.947 366.562 285.5 365.5C285.5 366.833 285.5 368.167 285.5 369.5C286.552 369.649 287.552 369.483 288.5 369C288.167 368.667 287.833 368.333 287.5 368C288.416 367.626 289.25 367.126 290 366.5C290.718 367.451 291.551 367.617 292.5 367C295.237 365.386 297.403 363.219 299 360.5C299.974 362.878 300.641 362.544 301 359.5C303.868 358.639 306.202 356.972 308 354.5C308.692 353.563 308.525 352.897 307.5 352.5C308.262 350.738 309.596 349.738 311.5 349.5C310.859 350.482 310.193 351.482 309.5 352.5C310.167 352.833 310.833 353.167 311.5 353.5C314.063 353.263 314.063 352.763 311.5 352C313.784 348.936 316.284 348.769 319 351.5C317.886 348.337 318.719 345.67 321.5 343.5C322.451 344.326 323.451 344.492 324.5 344C323.549 343.282 323.383 342.449 324 341.5C326.883 339.153 329.383 336.486 331.5 333.5C333.634 333.098 335.634 333.098 337.5 333.5C336.754 332.264 336.421 330.93 336.5 329.5C337.5 329.5 338.5 329.5 339.5 329.5C339.5 328.167 339.5 326.833 339.5 325.5C341.216 325.629 342.883 325.962 344.5 326.5Z" fill="#513831"/>
<path opacity="0.078" fill-rule="evenodd" clip-rule="evenodd" d="M308.5 360.5C308.027 361.906 307.027 362.573 305.5 362.5C305.973 361.094 306.973 360.427 308.5 360.5Z" fill="#C0B8B5"/>
<path opacity="0.561" fill-rule="evenodd" clip-rule="evenodd" d="M116.5 361.5C118.027 361.427 119.027 362.094 119.5 363.5C117.973 363.573 116.973 362.906 116.5 361.5Z" fill="#A69B97"/>
<path fill-rule="evenodd" clip-rule="evenodd" d="M307.5 352.5C308.525 352.897 308.692 353.563 308 354.5C306.202 356.972 303.868 358.639 301 359.5C300.641 362.544 299.974 362.878 299 360.5C297.403 363.219 295.237 365.386 292.5 367C291.551 367.617 290.718 367.451 290 366.5C289.25 367.126 288.416 367.626 287.5 368C287.833 368.333 288.167 368.667 288.5 369C287.552 369.483 286.552 369.649 285.5 369.5C285.5 368.167 285.5 366.833 285.5 365.5C292.808 361.207 300.142 356.873 307.5 352.5Z" fill="#42281F"/>
<path opacity="0.506" fill-rule="evenodd" clip-rule="evenodd" d="M121.5 364.5C123.027 364.427 124.027 365.094 124.5 366.5C122.973 366.573 121.973 365.906 121.5 364.5Z" fill="#AB9F9C"/>
<path fill-rule="evenodd" clip-rule="evenodd" d="M128.5 368.5C132.1 368.794 135.6 369.46 139 370.5C139.414 370.043 139.914 369.709 140.5 369.5C141.604 370.631 141.271 371.465 139.5 372C141.063 372.759 142.063 373.926 142.5 375.5C137.516 373.674 132.849 371.341 128.5 368.5Z" fill="#614A43"/>
<path opacity="0.294" fill-rule="evenodd" clip-rule="evenodd" d="M291.5 370.5C290.089 372.539 288.089 373.539 285.5 373.5C287.181 371.992 289.181 370.992 291.5 370.5Z" fill="#B7ADAA"/>
<path opacity="0.161" fill-rule="evenodd" clip-rule="evenodd" d="M285.5 373.5C284.486 374.674 283.153 375.34 281.5 375.5C282.287 373.896 283.62 373.229 285.5 373.5Z" fill="#A99E9A"/>
<path fill-rule="evenodd" clip-rule="evenodd" d="M142.5 375.5C149.148 376.717 155.481 378.717 161.5 381.5C154.699 380.676 148.365 378.676 142.5 375.5Z" fill="#9C8E8A"/>
<path opacity="0.561" fill-rule="evenodd" clip-rule="evenodd" d="M279.5 375.5C280.167 375.5 280.833 375.5 281.5 375.5C279.819 377.008 277.819 378.008 275.5 378.5C276.436 377.026 277.77 376.026 279.5 375.5Z" fill="#A89C98"/>
<path fill-rule="evenodd" clip-rule="evenodd" d="M192.5 379.5C205.797 380.445 219.13 380.778 232.5 380.5C234.527 380.338 236.527 380.505 238.5 381C221.174 382.943 203.841 382.943 186.5 381C186.167 380.667 185.833 380.333 185.5 380C187.81 379.503 190.143 379.337 192.5 379.5Z" fill="#371D15"/>
<path opacity="0.467" fill-rule="evenodd" clip-rule="evenodd" d="M275.5 378.5C272.785 380.072 269.785 381.072 266.5 381.5C269.084 379.528 272.084 378.528 275.5 378.5Z" fill="#A89C99"/>
<path opacity="0.6" fill-rule="evenodd" clip-rule="evenodd" d="M162.5 381.5C165.428 381.565 168.095 382.232 170.5 383.5C167.505 383.706 164.838 383.04 162.5 381.5Z" fill="#AA9C99"/>
<path fill-rule="evenodd" clip-rule="evenodd" d="M170.5 383.499C173.518 383.334 176.518 383.501 179.5 383.999C180.416 384.277 181.082 384.777 181.5 385.499C177.613 385.353 173.946 384.686 170.5 383.499Z" fill="#92827E"/>
<path opacity="0.145" fill-rule="evenodd" clip-rule="evenodd" d="M266.5 381.5C260.854 383.892 254.854 385.225 248.5 385.5C254.272 383.713 260.272 382.38 266.5 381.5Z" fill="#AFA4A1"/>
<path opacity="0.373" fill-rule="evenodd" clip-rule="evenodd" d="M182.5 385.5C202.489 386.315 222.489 386.649 242.5 386.5C233.879 387.965 225.046 388.632 216 388.5C204.573 388.772 193.406 387.772 182.5 385.5Z" fill="#A49793"/>
</g>
<defs>
<clipPath id="clip0_1626_2881">
<rect width="379" height="389" fill="white"/>
</clipPath>
</defs>
</svg>
