<svg xmlns="http://www.w3.org/2000/svg" version="1.1" width="433" height="433" viewBox="0 0 433 433" style="shape-rendering:geometricPrecision; text-rendering:geometricPrecision; image-rendering:optimizeQuality; fill-rule:evenodd; clip-rule:evenodd" xmlns:xlink="http://www.w3.org/1999/xlink">
<g><path style="opacity:0.996" fill="#001413" d="M 195.5,-0.5 C 209.167,-0.5 222.833,-0.5 236.5,-0.5C 320.465,10.7281 380.298,54.7281 416,131.5C 424.348,152.23 429.848,173.563 432.5,195.5C 432.5,209.167 432.5,222.833 432.5,236.5C 421.272,320.465 377.272,380.298 300.5,416C 279.77,424.348 258.437,429.848 236.5,432.5C 222.833,432.5 209.167,432.5 195.5,432.5C 111.535,421.272 51.702,377.272 16,300.5C 7.65175,279.77 2.15175,258.437 -0.5,236.5C -0.5,222.833 -0.5,209.167 -0.5,195.5C 10.7281,111.535 54.7281,51.702 131.5,16C 152.23,7.65175 173.563,2.15175 195.5,-0.5 Z"/></g>
<g><path style="opacity:1" fill="#636451" d="M 227.5,87.5 C 227.5,87.1667 227.5,86.8333 227.5,86.5C 232.414,86.3618 237.081,87.0285 241.5,88.5C 237.785,88.577 234.119,88.2436 230.5,87.5C 229.5,87.5 228.5,87.5 227.5,87.5 Z"/></g>
<g><path style="opacity:1" fill="#626452" d="M 227.5,86.5 C 213.713,86.0266 200.046,87.0266 186.5,89.5C 190.93,87.925 195.597,86.7583 200.5,86C 209.676,85.176 218.676,85.3427 227.5,86.5 Z"/></g>
<g><path style="opacity:1" fill="#d2caac" d="M 227.5,86.5 C 227.5,86.8333 227.5,87.1667 227.5,87.5C 220.825,87.3337 214.158,87.5004 207.5,88C 200.436,90.4007 193.102,91.734 185.5,92C 179.64,95.1243 173.307,96.6243 166.5,96.5C 166.5,96.1667 166.5,95.8333 166.5,95.5C 172.956,92.8848 179.623,90.8848 186.5,89.5C 200.046,87.0266 213.713,86.0266 227.5,86.5 Z"/></g>
<g><path style="opacity:1" fill="#dfd0a9" d="M 227.5,87.5 C 228.5,87.5 229.5,87.5 230.5,87.5C 230.611,88.1174 230.944,88.6174 231.5,89C 237.013,90.7253 242.68,91.7253 248.5,92C 259.05,96.4534 269.717,100.62 280.5,104.5C 280.837,108.333 283.004,110.333 287,110.5C 287.902,110.257 288.735,109.923 289.5,109.5C 289.539,110.583 289.873,111.583 290.5,112.5C 293.35,115.182 296.016,118.016 298.5,121C 302.071,121.018 304.404,122.685 305.5,126C 307.025,127.009 308.692,127.509 310.5,127.5C 310.421,128.93 310.754,130.264 311.5,131.5C 315.292,135.443 319.292,139.109 323.5,142.5C 327.251,146.995 330.251,151.995 332.5,157.5C 332.427,159.027 333.094,160.027 334.5,160.5C 335.537,161.93 336.204,163.597 336.5,165.5C 336.952,171.103 338.619,176.103 341.5,180.5C 341.5,180.833 341.5,181.167 341.5,181.5C 341.242,186.717 341.575,191.884 342.5,197C 341.902,198.301 340.902,199.135 339.5,199.5C 322.225,199.524 304.892,199.357 287.5,199C 285.552,198.017 283.718,196.85 282,195.5C 281.805,193.793 281.805,192.126 282,190.5C 280.475,190.112 278.808,190.112 277,190.5C 275.982,188.102 274.815,185.769 273.5,183.5C 270.54,182.487 267.873,181.154 265.5,179.5C 265.5,178.5 265.5,177.5 265.5,176.5C 260.568,175.348 256.901,172.514 254.5,168C 253.552,167.517 252.552,167.351 251.5,167.5C 249.639,165.255 248.639,162.588 248.5,159.5C 246.692,159.509 245.025,159.009 243.5,158C 225.167,157.333 206.833,157.333 188.5,158C 185.956,159.755 183.623,161.755 181.5,164C 177.635,164.761 174.635,166.761 172.5,170C 173.167,170.333 173.833,170.667 174.5,171C 172.845,172.444 172.178,174.278 172.5,176.5C 171.127,176.343 169.793,176.51 168.5,177C 165.662,181.671 161.995,185.504 157.5,188.5C 155.227,189.651 152.894,190.651 150.5,191.5C 151.262,191.911 152.262,192.077 153.5,192C 151.181,195.212 148.181,197.546 144.5,199C 127.28,199.383 110.114,199.55 93,199.5C 91.3791,199.275 90.2125,198.442 89.5,197C 90.4249,191.884 90.7582,186.717 90.5,181.5C 90.7424,177.521 91.7424,173.854 93.5,170.5C 96.267,166.626 98.267,162.293 99.5,157.5C 101.692,152.771 104.192,148.104 107,143.5C 108.331,141.004 110.164,139.004 112.5,137.5C 116.28,135.223 119.613,132.389 122.5,129C 123.448,128.517 124.448,128.351 125.5,128.5C 125.351,127.448 125.517,126.448 126,125.5C 128.098,123.236 130.598,121.57 133.5,120.5C 135.18,117.425 137.846,115.925 141.5,116C 143.451,114.266 144.451,112.099 144.5,109.5C 147.607,109.649 150.607,109.149 153.5,108C 152.378,106.387 152.878,105.22 155,104.5C 155.483,103.552 155.649,102.552 155.5,101.5C 158.751,99.0431 162.418,97.3764 166.5,96.5C 173.307,96.6243 179.64,95.1243 185.5,92C 193.102,91.734 200.436,90.4007 207.5,88C 214.158,87.5004 220.825,87.3337 227.5,87.5 Z"/></g>
<g><path style="opacity:1" fill="#767966" d="M 265.5,95.5 C 267.967,95.7549 269.967,96.7549 271.5,98.5C 268.911,98.539 266.911,97.539 265.5,95.5 Z"/></g>
<g><path style="opacity:1" fill="#2b3227" d="M 166.5,95.5 C 166.5,95.8333 166.5,96.1667 166.5,96.5C 162.418,97.3764 158.751,99.0431 155.5,101.5C 154.609,102.11 153.609,102.443 152.5,102.5C 153.942,101.18 154.608,99.5138 154.5,97.5C 158.156,97.503 161.489,96.503 164.5,94.5C 165.416,94.5427 166.083,94.8761 166.5,95.5 Z"/></g>
<g><path style="opacity:1" fill="#434839" d="M 271.5,98.5 C 272.873,98.3433 274.207,98.51 275.5,99C 278.014,99.8809 280.014,101.381 281.5,103.5C 277.912,102.202 274.579,100.536 271.5,98.5 Z"/></g>
<g><path style="opacity:1" fill="#d2cbad" d="M 230.5,87.5 C 234.119,88.2436 237.785,88.577 241.5,88.5C 249.645,90.3292 257.645,92.6625 265.5,95.5C 266.911,97.539 268.911,98.539 271.5,98.5C 274.579,100.536 277.912,102.202 281.5,103.5C 284.524,105.013 287.191,107.013 289.5,109.5C 288.735,109.923 287.902,110.257 287,110.5C 283.004,110.333 280.837,108.333 280.5,104.5C 269.717,100.62 259.05,96.4534 248.5,92C 242.68,91.7253 237.013,90.7253 231.5,89C 230.944,88.6174 230.611,88.1174 230.5,87.5 Z"/></g>
<g><path style="opacity:1" fill="#cdc7a8" d="M 155.5,101.5 C 155.649,102.552 155.483,103.552 155,104.5C 152.878,105.22 152.378,106.387 153.5,108C 150.607,109.149 147.607,109.649 144.5,109.5C 144.451,112.099 143.451,114.266 141.5,116C 137.846,115.925 135.18,117.425 133.5,120.5C 130.598,121.57 128.098,123.236 126,125.5C 125.517,126.448 125.351,127.448 125.5,128.5C 124.448,128.351 123.448,128.517 122.5,129C 119.613,132.389 116.28,135.223 112.5,137.5C 119.937,126.896 128.937,117.729 139.5,110C 143.562,106.971 147.895,104.471 152.5,102.5C 153.609,102.443 154.609,102.11 155.5,101.5 Z"/></g>
<g><path style="opacity:1" fill="#192017" d="M 291.5,109.5 C 297.933,109.764 302.267,112.93 304.5,119C 307.955,119.969 310.622,121.969 312.5,125C 313.448,125.483 314.448,125.649 315.5,125.5C 315.448,127.903 315.781,130.236 316.5,132.5C 308.777,124.144 300.444,116.477 291.5,109.5 Z"/></g>
<g><path style="opacity:1" fill="#cac6a8" d="M 289.5,109.5 C 290.167,109.5 290.833,109.5 291.5,109.5C 300.444,116.477 308.777,124.144 316.5,132.5C 318.859,135.851 321.192,139.185 323.5,142.5C 319.292,139.109 315.292,135.443 311.5,131.5C 310.754,130.264 310.421,128.93 310.5,127.5C 308.692,127.509 307.025,127.009 305.5,126C 304.404,122.685 302.071,121.018 298.5,121C 296.016,118.016 293.35,115.182 290.5,112.5C 289.873,111.583 289.539,110.583 289.5,109.5 Z"/></g>
<g><path style="opacity:1" fill="#cbc5a8" d="M 341.5,181.5 C 342.338,181.842 342.672,182.508 342.5,183.5C 342.259,185.898 342.926,187.898 344.5,189.5C 344.646,193.519 344.979,197.519 345.5,201.5C 324.831,201.667 304.164,201.5 283.5,201C 274.298,191.631 264.965,182.464 255.5,173.5C 252.5,169.833 249.167,166.5 245.5,163.5C 244.71,162.206 243.71,161.039 242.5,160C 224.833,159.333 207.167,159.333 189.5,160C 188.29,161.039 187.29,162.206 186.5,163.5C 181.833,167.833 177.167,172.167 172.5,176.5C 172.178,174.278 172.845,172.444 174.5,171C 173.833,170.667 173.167,170.333 172.5,170C 174.635,166.761 177.635,164.761 181.5,164C 183.623,161.755 185.956,159.755 188.5,158C 206.833,157.333 225.167,157.333 243.5,158C 245.025,159.009 246.692,159.509 248.5,159.5C 248.639,162.588 249.639,165.255 251.5,167.5C 252.552,167.351 253.552,167.517 254.5,168C 256.901,172.514 260.568,175.348 265.5,176.5C 265.5,177.5 265.5,178.5 265.5,179.5C 267.873,181.154 270.54,182.487 273.5,183.5C 274.815,185.769 275.982,188.102 277,190.5C 278.808,190.112 280.475,190.112 282,190.5C 281.805,192.126 281.805,193.793 282,195.5C 283.718,196.85 285.552,198.017 287.5,199C 304.892,199.357 322.225,199.524 339.5,199.5C 340.902,199.135 341.902,198.301 342.5,197C 341.575,191.884 341.242,186.717 341.5,181.5 Z"/></g>
<g><path style="opacity:1" fill="#282e21" d="M 245.5,163.5 C 243.804,163.315 242.471,162.481 241.5,161C 224.5,160.333 207.5,160.333 190.5,161C 189.529,162.481 188.196,163.315 186.5,163.5C 187.29,162.206 188.29,161.039 189.5,160C 207.167,159.333 224.833,159.333 242.5,160C 243.71,161.039 244.71,162.206 245.5,163.5 Z"/></g>
<g><path style="opacity:1" fill="#686f5c" d="M 332.5,157.5 C 333.906,157.973 334.573,158.973 334.5,160.5C 333.094,160.027 332.427,159.027 332.5,157.5 Z"/></g>
<g><path style="opacity:1" fill="#011413" d="M 245.5,163.5 C 249.167,166.5 252.5,169.833 255.5,173.5C 254.454,177.779 255.954,180.445 260,181.5C 261.559,183.217 262.392,185.217 262.5,187.5C 263.675,187.281 264.675,187.614 265.5,188.5C 266.506,189.396 266.506,190.062 265.5,190.5C 264.5,189.167 263.5,189.167 262.5,190.5C 261.808,189.975 261.308,189.308 261,188.5C 260.326,189.578 259.326,190.245 258,190.5C 255.746,189.246 253.58,188.58 251.5,188.5C 250.592,189.79 250.759,191.123 252,192.5C 252.333,191.833 252.667,191.167 253,190.5C 255.818,191.128 258.485,192.128 261,193.5C 262.872,192.932 264.705,192.265 266.5,191.5C 269.726,193.567 273.06,195.4 276.5,197C 275.953,197.925 275.287,198.758 274.5,199.5C 270.241,200.01 265.741,199.343 261,197.5C 231.291,198.827 201.625,198.827 172,197.5C 166.309,200.57 161.142,200.07 156.5,196C 162.841,192.467 167.174,187.3 169.5,180.5C 170.5,179.167 171.5,177.833 172.5,176.5C 177.167,172.167 181.833,167.833 186.5,163.5C 188.196,163.315 189.529,162.481 190.5,161C 207.5,160.333 224.5,160.333 241.5,161C 242.471,162.481 243.804,163.315 245.5,163.5 Z"/></g>
<g><path style="opacity:1" fill="#94967e" d="M 99.5,157.5 C 98.267,162.293 96.267,166.626 93.5,170.5C 94.733,165.707 96.733,161.374 99.5,157.5 Z"/></g>
<g><path style="opacity:1" fill="#b1ad97" d="M 336.5,165.5 C 338.072,168.318 339.406,171.318 340.5,174.5C 340.833,176.5 341.167,178.5 341.5,180.5C 338.619,176.103 336.952,171.103 336.5,165.5 Z"/></g>
<g><path style="opacity:1" fill="#585c4a" d="M 89.5,183.5 C 88.6604,187.985 87.6604,192.319 86.5,196.5C 86.5,194.5 86.5,192.5 86.5,190.5C 87.3228,188.013 88.3228,185.679 89.5,183.5 Z"/></g>
<g><path style="opacity:1" fill="#121b13" d="M 255.5,173.5 C 264.965,182.464 274.298,191.631 283.5,201C 304.164,201.5 324.831,201.667 345.5,201.5C 344.979,197.519 344.646,193.519 344.5,189.5C 344.741,187.102 344.074,185.102 342.5,183.5C 342.672,182.508 342.338,181.842 341.5,181.5C 341.5,181.167 341.5,180.833 341.5,180.5C 341.167,178.5 340.833,176.5 340.5,174.5C 343.987,179.193 345.82,184.527 346,190.5C 346.333,190.167 346.667,189.833 347,189.5C 347.781,194.554 347.614,199.554 346.5,204.5C 343.88,206.093 341.38,207.093 339,207.5C 338.355,206.354 337.522,205.354 336.5,204.5C 319.798,203.075 303.132,203.242 286.5,205C 286.043,205.414 285.709,205.914 285.5,206.5C 288.481,207.398 291.147,209.398 293.5,212.5C 294.429,213.689 294.762,215.022 294.5,216.5C 291.167,213.833 287.833,211.167 284.5,208.5C 282.856,206.519 281.19,204.519 279.5,202.5C 237.171,201.333 194.837,201.167 152.5,202C 150.63,204.04 148.63,205.873 146.5,207.5C 146.5,206.5 146.5,205.5 146.5,204.5C 132.163,204.333 117.829,204.5 103.5,205C 103,205.5 102.5,206 102,206.5C 98.7623,204.243 95.2623,203.91 91.5,205.5C 89.8333,204.833 88.1667,204.167 86.5,203.5C 85.1889,199.016 85.1889,194.683 86.5,190.5C 86.5,192.5 86.5,194.5 86.5,196.5C 86.5,198.167 86.5,199.833 86.5,201.5C 106.996,202.663 127.663,202.829 148.5,202C 149.823,201.184 150.489,200.017 150.5,198.5C 156.833,192.5 163.167,186.5 169.5,180.5C 167.174,187.3 162.841,192.467 156.5,196C 161.142,200.07 166.309,200.57 172,197.5C 201.625,198.827 231.291,198.827 261,197.5C 265.741,199.343 270.241,200.01 274.5,199.5C 275.287,198.758 275.953,197.925 276.5,197C 273.06,195.4 269.726,193.567 266.5,191.5C 264.705,192.265 262.872,192.932 261,193.5C 258.485,192.128 255.818,191.128 253,190.5C 252.667,191.167 252.333,191.833 252,192.5C 250.759,191.123 250.592,189.79 251.5,188.5C 253.58,188.58 255.746,189.246 258,190.5C 259.326,190.245 260.326,189.578 261,188.5C 261.308,189.308 261.808,189.975 262.5,190.5C 263.5,189.167 264.5,189.167 265.5,190.5C 266.506,190.062 266.506,189.396 265.5,188.5C 264.675,187.614 263.675,187.281 262.5,187.5C 262.392,185.217 261.559,183.217 260,181.5C 255.954,180.445 254.454,177.779 255.5,173.5 Z"/></g>
<g><path style="opacity:1" fill="#535648" d="M 342.5,183.5 C 344.074,185.102 344.741,187.102 344.5,189.5C 342.926,187.898 342.259,185.898 342.5,183.5 Z"/></g>
<g><path style="opacity:1" fill="#d3ccae" d="M 172.5,176.5 C 171.5,177.833 170.5,179.167 169.5,180.5C 163.167,186.5 156.833,192.5 150.5,198.5C 149.373,199.122 148.373,199.955 147.5,201C 127.169,201.5 106.836,201.667 86.5,201.5C 86.5,199.833 86.5,198.167 86.5,196.5C 87.6604,192.319 88.6604,187.985 89.5,183.5C 89.3284,182.508 89.6618,181.842 90.5,181.5C 90.7582,186.717 90.4249,191.884 89.5,197C 90.2125,198.442 91.3791,199.275 93,199.5C 110.114,199.55 127.28,199.383 144.5,199C 148.181,197.546 151.181,195.212 153.5,192C 152.262,192.077 151.262,191.911 150.5,191.5C 152.894,190.651 155.227,189.651 157.5,188.5C 161.995,185.504 165.662,181.671 168.5,177C 169.793,176.51 171.127,176.343 172.5,176.5 Z"/></g>
<g><path style="opacity:1" fill="#5e604e" d="M 150.5,198.5 C 150.489,200.017 149.823,201.184 148.5,202C 127.663,202.829 106.996,202.663 86.5,201.5C 106.836,201.667 127.169,201.5 147.5,201C 148.373,199.955 149.373,199.122 150.5,198.5 Z"/></g>
<g><path style="opacity:1" fill="#bebb9f" d="M 284.5,208.5 C 281.886,208.723 280.219,207.556 279.5,205C 237.5,204.333 195.5,204.333 153.5,205C 150.123,207.746 147.457,211.08 145.5,215C 142.536,217.81 139.202,219.976 135.5,221.5C 138.57,218.436 141.237,215.103 143.5,211.5C 144.5,210.167 145.5,208.833 146.5,207.5C 148.63,205.873 150.63,204.04 152.5,202C 194.837,201.167 237.171,201.333 279.5,202.5C 281.19,204.519 282.856,206.519 284.5,208.5 Z"/></g>
<g><path style="opacity:1" fill="#ded0a9" d="M 284.5,208.5 C 287.833,211.167 291.167,213.833 294.5,216.5C 294.369,217.239 294.536,217.906 295,218.5C 303.728,227.396 312.562,236.063 321.5,244.5C 328.726,244.849 335.726,245.849 342.5,247.5C 341.489,250.94 340.489,254.274 339.5,257.5C 321.164,257.667 302.83,257.5 284.5,257C 285.167,256.667 285.833,256.333 286.5,256C 284.76,254.483 283.094,252.983 281.5,251.5C 280.699,249.958 280.366,248.292 280.5,246.5C 278.712,246.785 277.045,246.452 275.5,245.5C 271.845,240.514 267.845,235.847 263.5,231.5C 261.204,229.448 258.537,228.448 255.5,228.5C 255.5,226.833 255.5,225.167 255.5,223.5C 254.5,223.5 253.5,223.5 252.5,223.5C 252.276,219.438 250.276,216.605 246.5,215C 227.833,214.333 209.167,214.333 190.5,215C 189.944,215.383 189.611,215.883 189.5,216.5C 186.833,219.5 184.167,222.5 181.5,225.5C 176.833,229.833 172.167,234.167 167.5,238.5C 165.167,240.167 163.167,242.167 161.5,244.5C 161.167,245.5 160.5,246.167 159.5,246.5C 154.134,246.515 150.801,249.181 149.5,254.5C 133.731,255.495 117.897,256.162 102,256.5C 98.9442,255.923 95.9442,255.257 93,254.5C 92.5026,251.854 92.3359,249.187 92.5,246.5C 98.69,246.823 104.69,246.49 110.5,245.5C 110.5,245.167 110.5,244.833 110.5,244.5C 114.167,240.167 118.167,236.167 122.5,232.5C 126.167,230.833 128.833,228.167 130.5,224.5C 130.833,223.5 131.5,222.833 132.5,222.5C 133.609,222.443 134.609,222.11 135.5,221.5C 139.202,219.976 142.536,217.81 145.5,215C 147.457,211.08 150.123,207.746 153.5,205C 195.5,204.333 237.5,204.333 279.5,205C 280.219,207.556 281.886,208.723 284.5,208.5 Z"/></g>
<g><path style="opacity:1" fill="#95937b" d="M 143.5,211.5 C 141.237,215.103 138.57,218.436 135.5,221.5C 134.609,222.11 133.609,222.443 132.5,222.5C 135.833,218.5 139.5,214.833 143.5,211.5 Z"/></g>
<g><path style="opacity:1" fill="#001413" d="M 163.5,244.5 C 165.252,242.754 166.585,240.754 167.5,238.5C 172.167,234.167 176.833,229.833 181.5,225.5C 185.307,223.935 188.307,221.435 190.5,218C 207.5,217.333 224.5,217.333 241.5,218C 243.827,219.996 245.327,222.496 246,225.5C 249.006,226.841 250.506,229.175 250.5,232.5C 255.448,233.941 259.448,236.775 262.5,241C 261.623,242.867 260.123,244.034 258,244.5C 256.333,243.167 254.667,243.167 253,244.5C 252.134,242.104 252.634,241.437 254.5,242.5C 258.135,241.405 258.302,240.071 255,238.5C 253.301,239.406 251.467,239.739 249.5,239.5C 249.66,241.199 249.494,242.866 249,244.5C 224.197,244.568 199.53,244.235 175,243.5C 173.5,243.667 172,243.833 170.5,244C 171.46,245.419 172.293,246.919 173,248.5C 200.023,249.159 227.523,249.159 255.5,248.5C 260.647,249.301 261.647,251.135 258.5,254C 230.167,254.667 201.833,254.667 173.5,254C 166.383,254.073 162.05,253.573 160.5,252.5C 160.5,251.5 160.5,250.5 160.5,249.5C 161.552,249.649 162.552,249.483 163.5,249C 163.034,247.701 163.034,246.201 163.5,244.5 Z"/></g>
<g><path style="opacity:1" fill="#c0b99b" d="M 281.5,251.5 C 278.228,248.766 274.561,246.433 270.5,244.5C 261.035,235.536 251.702,226.369 242.5,217C 224.836,216.5 207.17,216.333 189.5,216.5C 189.611,215.883 189.944,215.383 190.5,215C 209.167,214.333 227.833,214.333 246.5,215C 250.276,216.605 252.276,219.438 252.5,223.5C 253.5,223.5 254.5,223.5 255.5,223.5C 255.5,225.167 255.5,226.833 255.5,228.5C 258.537,228.448 261.204,229.448 263.5,231.5C 267.845,235.847 271.845,240.514 275.5,245.5C 277.045,246.452 278.712,246.785 280.5,246.5C 280.366,248.292 280.699,249.958 281.5,251.5 Z"/></g>
<g><path style="opacity:1" fill="#969681" d="M 130.5,224.5 C 128.833,228.167 126.167,230.833 122.5,232.5C 123.5,231.167 124.5,229.833 125.5,228.5C 127.167,227.167 128.833,225.833 130.5,224.5 Z"/></g>
<g><path style="opacity:1" fill="#171f16" d="M 125.5,228.5 C 124.5,229.833 123.5,231.167 122.5,232.5C 118.167,236.167 114.167,240.167 110.5,244.5C 103.167,244.5 95.8333,244.5 88.5,244.5C 95.3447,243.833 102.345,243.167 109.5,242.5C 113.373,237.562 117.706,233.062 122.5,229C 123.448,228.517 124.448,228.351 125.5,228.5 Z"/></g>
<g><path style="opacity:1" fill="#091612" d="M 189.5,216.5 C 207.17,216.333 224.836,216.5 242.5,217C 251.702,226.369 261.035,235.536 270.5,244.5C 274.63,249.131 278.963,253.631 283.5,258C 302.164,258.5 320.83,258.667 339.5,258.5C 321.341,259.497 303.008,259.83 284.5,259.5C 285.468,262.044 287.135,264.211 289.5,266C 288.944,266.383 288.611,266.883 288.5,267.5C 285.5,264.833 282.5,262.167 279.5,259.5C 279.5,259.167 279.5,258.833 279.5,258.5C 237.665,257.833 195.665,257.167 153.5,256.5C 155.005,255.158 155.672,253.492 155.5,251.5C 156.833,249.833 158.167,248.167 159.5,246.5C 160.5,246.167 161.167,245.5 161.5,244.5C 162.167,244.5 162.833,244.5 163.5,244.5C 163.034,246.201 163.034,247.701 163.5,249C 162.552,249.483 161.552,249.649 160.5,249.5C 160.5,250.5 160.5,251.5 160.5,252.5C 162.05,253.573 166.383,254.073 173.5,254C 201.833,254.667 230.167,254.667 258.5,254C 261.647,251.135 260.647,249.301 255.5,248.5C 227.523,249.159 200.023,249.159 173,248.5C 172.293,246.919 171.46,245.419 170.5,244C 172,243.833 173.5,243.667 175,243.5C 199.53,244.235 224.197,244.568 249,244.5C 249.494,242.866 249.66,241.199 249.5,239.5C 251.467,239.739 253.301,239.406 255,238.5C 258.302,240.071 258.135,241.405 254.5,242.5C 252.634,241.437 252.134,242.104 253,244.5C 254.667,243.167 256.333,243.167 258,244.5C 260.123,244.034 261.623,242.867 262.5,241C 259.448,236.775 255.448,233.941 250.5,232.5C 250.506,229.175 249.006,226.841 246,225.5C 245.327,222.496 243.827,219.996 241.5,218C 224.5,217.333 207.5,217.333 190.5,218C 188.307,221.435 185.307,223.935 181.5,225.5C 184.167,222.5 186.833,219.5 189.5,216.5 Z"/></g>
<g><path style="opacity:1" fill="#525544" d="M 167.5,238.5 C 166.585,240.754 165.252,242.754 163.5,244.5C 162.833,244.5 162.167,244.5 161.5,244.5C 163.167,242.167 165.167,240.167 167.5,238.5 Z"/></g>
<g><path style="opacity:1" fill="#757760" d="M 88.5,244.5 C 95.8333,244.5 103.167,244.5 110.5,244.5C 110.5,244.833 110.5,245.167 110.5,245.5C 103.087,244.872 96.0869,245.539 89.5,247.5C 88.596,246.791 88.2627,245.791 88.5,244.5 Z"/></g>
<g><path style="opacity:1" fill="#757862" d="M 321.5,244.5 C 328.833,244.5 336.167,244.5 343.5,244.5C 343.737,245.791 343.404,246.791 342.5,247.5C 335.726,245.849 328.726,244.849 321.5,244.5 Z"/></g>
<g><path style="opacity:1" fill="#d1c8ab" d="M 110.5,245.5 C 104.69,246.49 98.69,246.823 92.5,246.5C 92.3359,249.187 92.5026,251.854 93,254.5C 95.9442,255.257 98.9442,255.923 102,256.5C 117.897,256.162 133.731,255.495 149.5,254.5C 150.801,249.181 154.134,246.515 159.5,246.5C 158.167,248.167 156.833,249.833 155.5,251.5C 152.573,252.757 150.239,254.757 148.5,257.5C 129.845,258.5 111.179,258.833 92.5,258.5C 91.629,254.818 90.629,251.152 89.5,247.5C 96.0869,245.539 103.087,244.872 110.5,245.5 Z"/></g>
<g><path style="opacity:1" fill="#2c3427" d="M 155.5,251.5 C 155.672,253.492 155.005,255.158 153.5,256.5C 195.665,257.167 237.665,257.833 279.5,258.5C 237.165,258.333 194.832,258.5 152.5,259C 151.29,260.039 150.29,261.206 149.5,262.5C 149.167,262.5 148.833,262.5 148.5,262.5C 148.5,261.5 148.5,260.5 148.5,259.5C 129.659,259.83 110.993,259.497 92.5,258.5C 111.179,258.833 129.845,258.5 148.5,257.5C 150.239,254.757 152.573,252.757 155.5,251.5 Z"/></g>
<g><path style="opacity:1" fill="#bab59c" d="M 270.5,244.5 C 274.561,246.433 278.228,248.766 281.5,251.5C 283.094,252.983 284.76,254.483 286.5,256C 285.833,256.333 285.167,256.667 284.5,257C 302.83,257.5 321.164,257.667 339.5,257.5C 339.5,257.833 339.5,258.167 339.5,258.5C 320.83,258.667 302.164,258.5 283.5,258C 278.963,253.631 274.63,249.131 270.5,244.5 Z"/></g>
<g><path style="opacity:1" fill="#999983" d="M 279.5,258.5 C 279.5,258.833 279.5,259.167 279.5,259.5C 237.499,259.333 195.499,259.5 153.5,260C 152.529,261.481 151.196,262.315 149.5,262.5C 150.29,261.206 151.29,260.039 152.5,259C 194.832,258.5 237.165,258.333 279.5,258.5 Z"/></g>
<g><path style="opacity:1" fill="#081611" d="M 88.5,244.5 C 88.2627,245.791 88.596,246.791 89.5,247.5C 90.629,251.152 91.629,254.818 92.5,258.5C 110.993,259.497 129.659,259.83 148.5,259.5C 148.5,260.5 148.5,261.5 148.5,262.5C 137.535,273.965 126.369,285.298 115,296.5C 114.308,297.437 114.475,298.103 115.5,298.5C 116.167,299.5 116.833,300.5 117.5,301.5C 114.684,301.456 112.351,300.456 110.5,298.5C 114.078,292.818 118.744,288.152 124.5,284.5C 125.452,282.955 125.785,281.288 125.5,279.5C 129.112,278.555 131.446,276.221 132.5,272.5C 134.359,270.808 136.359,269.308 138.5,268C 137.833,266.333 137.167,264.667 136.5,263C 136.833,262.667 137.167,262.333 137.5,262C 133.67,263.008 129.67,263.508 125.5,263.5C 125.5,262.5 125.5,261.5 125.5,260.5C 123.833,260.5 122.167,260.5 120.5,260.5C 120.5,262.167 120.5,263.833 120.5,265.5C 123.775,266.019 125.108,268.019 124.5,271.5C 125.157,275.51 123.49,277.176 119.5,276.5C 119.5,273.5 119.5,270.5 119.5,267.5C 114.167,267.5 108.833,267.5 103.5,267.5C 103.5,265.167 103.5,262.833 103.5,260.5C 99.4454,260.824 95.4454,260.491 91.5,259.5C 90.8333,258.833 90.1667,258.167 89.5,257.5C 88.9694,253.712 87.9694,250.045 86.5,246.5C 86.7472,245.287 87.4138,244.62 88.5,244.5 Z"/></g>
<g><path style="opacity:1" fill="#ded0aa" d="M 279.5,259.5 C 282.5,262.167 285.5,264.833 288.5,267.5C 288.833,268.167 289.167,268.833 289.5,269.5C 292.473,271.806 295.14,274.473 297.5,277.5C 297.215,279.288 297.548,280.955 298.5,282.5C 302.052,283.885 304.386,286.385 305.5,290C 305.167,290.333 304.833,290.667 304.5,291C 308.669,290.672 311.336,292.505 312.5,296.5C 312.182,297.647 311.516,298.481 310.5,299C 304.833,299.167 299.167,299.333 293.5,299.5C 283.306,299.149 273.306,298.316 263.5,297C 261.799,294.61 259.466,293.11 256.5,292.5C 257.428,291.232 257.595,289.899 257,288.5C 254.913,287.206 252.746,286.039 250.5,285C 249.74,283.559 249.074,282.059 248.5,280.5C 244.317,279.568 240.65,277.902 237.5,275.5C 237.5,274.5 237.5,273.5 237.5,272.5C 236.167,272.5 234.833,272.5 233.5,272.5C 220.661,271.175 207.661,271.175 194.5,272.5C 195.127,273.417 195.461,274.417 195.5,275.5C 191.651,275.019 189.651,276.686 189.5,280.5C 185.749,280.082 183.582,281.749 183,285.5C 181,286.833 179,288.167 177,289.5C 176.51,290.793 176.343,292.127 176.5,293.5C 175.5,294.833 174.5,296.167 173.5,297.5C 172.167,298.167 171.167,299.167 170.5,300.5C 153.497,300.667 136.497,300.5 119.5,300C 118.255,299.209 116.922,298.709 115.5,298.5C 114.475,298.103 114.308,297.437 115,296.5C 126.369,285.298 137.535,273.965 148.5,262.5C 148.833,262.5 149.167,262.5 149.5,262.5C 151.196,262.315 152.529,261.481 153.5,260C 195.499,259.5 237.499,259.333 279.5,259.5 Z"/></g>
<g><path style="opacity:1" fill="#b2ae97" d="M 233.5,272.5 C 221.829,272.333 210.162,272.5 198.5,273C 197.627,274.045 196.627,274.878 195.5,275.5C 195.461,274.417 195.127,273.417 194.5,272.5C 207.661,271.175 220.661,271.175 233.5,272.5 Z"/></g>
<g><path style="opacity:1" fill="#011413" d="M 244.5,284.5 C 246.833,286.167 248.833,288.167 250.5,290.5C 249.361,294.504 251.028,296.837 255.5,297.5C 256.386,298.325 256.719,299.325 256.5,300.5C 252.833,300.5 249.167,300.5 245.5,300.5C 222.996,299.833 200.33,299.167 177.5,298.5C 181.33,293.261 185.663,288.428 190.5,284C 193.331,281.68 196.331,279.513 199.5,277.5C 200.386,276.675 200.719,275.675 200.5,274.5C 210.855,274.168 221.188,274.501 231.5,275.5C 234.784,280.685 239.117,283.685 244.5,284.5 Z"/></g>
<g><path style="opacity:1" fill="#c5c1a7" d="M 195.5,275.5 C 190.184,279.819 185.517,284.819 181.5,290.5C 179.589,291.075 177.922,292.075 176.5,293.5C 176.343,292.127 176.51,290.793 177,289.5C 179,288.167 181,286.833 183,285.5C 183.582,281.749 185.749,280.082 189.5,280.5C 189.651,276.686 191.651,275.019 195.5,275.5 Z"/></g>
<g><path style="opacity:1" fill="#484e3a" d="M 181.5,290.5 C 179.431,293.573 176.764,295.906 173.5,297.5C 174.5,296.167 175.5,294.833 176.5,293.5C 177.922,292.075 179.589,291.075 181.5,290.5 Z"/></g>
<g><path style="opacity:1" fill="#121b13" d="M 289.5,269.5 C 292.146,270.487 294.812,271.487 297.5,272.5C 298.386,273.325 298.719,274.325 298.5,275.5C 301.315,276.126 303.815,277.46 306,279.5C 306.494,281.134 306.66,282.801 306.5,284.5C 313.753,286.697 318.753,291.53 321.5,299C 320.874,299.75 320.374,300.584 320,301.5C 318.293,300.862 316.46,300.862 314.5,301.5C 316.109,300.102 316.942,298.435 317,296.5C 310.479,290.028 303.979,283.694 297.5,277.5C 295.14,274.473 292.473,271.806 289.5,269.5 Z"/></g>
<g><path style="opacity:1" fill="#121913" d="M 233.5,272.5 C 237.167,276.5 240.833,280.5 244.5,284.5C 239.117,283.685 234.784,280.685 231.5,275.5C 221.188,274.501 210.855,274.168 200.5,274.5C 200.719,275.675 200.386,276.675 199.5,277.5C 196.331,279.513 193.331,281.68 190.5,284C 185.663,288.428 181.33,293.261 177.5,298.5C 200.33,299.167 222.996,299.833 245.5,300.5C 221.164,300.667 196.831,300.5 172.5,300C 173.252,299.329 173.586,298.496 173.5,297.5C 176.764,295.906 179.431,293.573 181.5,290.5C 185.517,284.819 190.184,279.819 195.5,275.5C 196.627,274.878 197.627,274.045 198.5,273C 210.162,272.5 221.829,272.333 233.5,272.5 Z"/></g>
<g><path style="opacity:1" fill="#cec8ab" d="M 233.5,272.5 C 234.833,272.5 236.167,272.5 237.5,272.5C 237.5,273.5 237.5,274.5 237.5,275.5C 240.65,277.902 244.317,279.568 248.5,280.5C 249.074,282.059 249.74,283.559 250.5,285C 252.746,286.039 254.913,287.206 257,288.5C 257.595,289.899 257.428,291.232 256.5,292.5C 259.466,293.11 261.799,294.61 263.5,297C 273.306,298.316 283.306,299.149 293.5,299.5C 299.167,299.333 304.833,299.167 310.5,299C 311.516,298.481 312.182,297.647 312.5,296.5C 311.336,292.505 308.669,290.672 304.5,291C 304.833,290.667 305.167,290.333 305.5,290C 304.386,286.385 302.052,283.885 298.5,282.5C 297.548,280.955 297.215,279.288 297.5,277.5C 303.979,283.694 310.479,290.028 317,296.5C 316.942,298.435 316.109,300.102 314.5,301.5C 296.83,301.667 279.164,301.5 261.5,301C 257.964,297.296 254.298,293.796 250.5,290.5C 248.833,288.167 246.833,286.167 244.5,284.5C 240.833,280.5 237.167,276.5 233.5,272.5 Z"/></g>
<g><path style="opacity:1" fill="#bbbaa1" d="M 115.5,298.5 C 116.922,298.709 118.255,299.209 119.5,300C 136.497,300.5 153.497,300.667 170.5,300.5C 153.008,301.497 135.341,301.83 117.5,301.5C 116.833,300.5 116.167,299.5 115.5,298.5 Z"/></g>
<g><path style="opacity:1" fill="#222818" d="M 173.5,297.5 C 173.586,298.496 173.252,299.329 172.5,300C 196.831,300.5 221.164,300.667 245.5,300.5C 249.167,300.5 252.833,300.5 256.5,300.5C 257.492,300.328 258.158,300.662 258.5,301.5C 229.831,301.333 201.165,301.5 172.5,302C 171.944,302.383 171.611,302.883 171.5,303.5C 171.167,303.5 170.833,303.5 170.5,303.5C 152.833,302.833 135.167,302.167 117.5,301.5C 135.341,301.83 153.008,301.497 170.5,300.5C 171.167,299.167 172.167,298.167 173.5,297.5 Z"/></g>
<g><path style="opacity:1" fill="#bcbca5" d="M 258.5,301.5 C 260.833,303.167 262.833,305.167 264.5,307.5C 262.883,306.962 261.216,306.629 259.5,306.5C 259.67,305.178 259.337,304.011 258.5,303C 229.458,302.183 200.458,302.35 171.5,303.5C 171.611,302.883 171.944,302.383 172.5,302C 201.165,301.5 229.831,301.333 258.5,301.5 Z"/></g>
<g><path style="opacity:1" fill="#13190f" d="M 250.5,290.5 C 254.298,293.796 257.964,297.296 261.5,301C 279.164,301.5 296.83,301.667 314.5,301.5C 298.854,303.158 282.854,304.158 266.5,304.5C 267.806,305.912 268.64,307.579 269,309.5C 273.185,312.595 277.185,315.928 281,319.5C 281.483,320.448 281.649,321.448 281.5,322.5C 282.552,322.351 283.552,322.517 284.5,323C 283.748,323.671 283.414,324.504 283.5,325.5C 277.167,319.5 270.833,313.5 264.5,307.5C 262.833,305.167 260.833,303.167 258.5,301.5C 258.158,300.662 257.492,300.328 256.5,300.5C 256.719,299.325 256.386,298.325 255.5,297.5C 251.028,296.837 249.361,294.504 250.5,290.5 Z"/></g>
<g><path style="opacity:1" fill="#a4a48e" d="M 170.5,303.5 C 170.833,303.5 171.167,303.5 171.5,303.5C 169.833,307.167 167.167,309.833 163.5,311.5C 163.5,311.167 163.5,310.833 163.5,310.5C 166.167,308.5 168.5,306.167 170.5,303.5 Z"/></g>
<g><path style="opacity:1" fill="#decfa9" d="M 264.5,307.5 C 270.833,313.5 277.167,319.5 283.5,325.5C 281.981,327.614 279.981,329.28 277.5,330.5C 272.954,332.122 268.621,334.122 264.5,336.5C 262.973,336.427 261.973,337.094 261.5,338.5C 250.341,342.127 239.008,344.46 227.5,345.5C 216.129,345.768 204.795,345.434 193.5,344.5C 191.485,343.076 189.152,342.41 186.5,342.5C 181.827,341.497 177.161,340.497 172.5,339.5C 170.574,338.514 168.574,337.514 166.5,336.5C 164.824,334.166 162.491,333.166 159.5,333.5C 157.035,331.163 154.035,329.663 150.5,329C 149.643,328.311 148.977,327.478 148.5,326.5C 153.188,321.146 158.188,316.146 163.5,311.5C 167.167,309.833 169.833,307.167 171.5,303.5C 200.458,302.35 229.458,302.183 258.5,303C 259.337,304.011 259.67,305.178 259.5,306.5C 261.216,306.629 262.883,306.962 264.5,307.5 Z"/></g>
<g><path style="opacity:1" fill="#131b15" d="M 163.5,310.5 C 163.5,310.833 163.5,311.167 163.5,311.5C 158.188,316.146 153.188,321.146 148.5,326.5C 148.977,327.478 149.643,328.311 150.5,329C 154.035,329.663 157.035,331.163 159.5,333.5C 161.426,335.293 163.759,336.293 166.5,336.5C 168.574,337.514 170.574,338.514 172.5,339.5C 169.751,339.274 167.084,339.607 164.5,340.5C 160.181,335.734 154.848,332.734 148.5,331.5C 147.585,330.672 146.919,329.672 146.5,328.5C 147.156,326.547 147.489,324.547 147.5,322.5C 148.5,322.5 149.5,322.5 150.5,322.5C 150.5,321.5 150.5,320.5 150.5,319.5C 153.5,319.167 155.167,317.5 155.5,314.5C 157.914,312.776 160.58,311.442 163.5,310.5 Z"/></g>
<g><path style="opacity:1" fill="#767a67" d="M 159.5,333.5 C 162.491,333.166 164.824,334.166 166.5,336.5C 163.759,336.293 161.426,335.293 159.5,333.5 Z"/></g>
<g><path style="opacity:1" fill="#555a49" d="M 277.5,330.5 C 276.657,332.173 275.324,333.34 273.5,334C 270.555,335.131 267.555,335.964 264.5,336.5C 268.621,334.122 272.954,332.122 277.5,330.5 Z"/></g>
<g><path style="opacity:1" fill="#242b1f" d="M 261.5,338.5 C 259.727,339.892 257.727,341.059 255.5,342C 246.309,344.366 236.976,345.532 227.5,345.5C 239.008,344.46 250.341,342.127 261.5,338.5 Z"/></g>
<g><path style="opacity:1" fill="#5b5d4d" d="M 186.5,342.5 C 189.152,342.41 191.485,343.076 193.5,344.5C 190.848,344.59 188.515,343.924 186.5,342.5 Z"/></g>
</svg>
