<svg xmlns="http://www.w3.org/2000/svg" version="1.1" width="433" height="433" viewBox="0 0 433 433" style="shape-rendering:geometricPrecision; text-rendering:geometricPrecision; image-rendering:optimizeQuality; fill-rule:evenodd; clip-rule:evenodd" xmlns:xlink="http://www.w3.org/1999/xlink">
<g><path style="opacity:0.993" fill="#fefefe" d="M 195.5,-0.5 C 209.167,-0.5 222.833,-0.5 236.5,-0.5C 320.465,10.7281 380.298,54.7281 416,131.5C 424.348,152.23 429.848,173.563 432.5,195.5C 432.5,209.167 432.5,222.833 432.5,236.5C 421.272,320.465 377.272,380.298 300.5,416C 279.77,424.348 258.437,429.848 236.5,432.5C 222.833,432.5 209.167,432.5 195.5,432.5C 111.535,421.272 51.702,377.272 16,300.5C 7.65175,279.77 2.15175,258.437 -0.5,236.5C -0.5,222.833 -0.5,209.167 -0.5,195.5C 10.7281,111.535 54.7281,51.702 131.5,16C 152.23,7.65175 173.563,2.15175 195.5,-0.5 Z"/></g>
<g><path style="opacity:1" fill="#e8f2f1" d="M 300.5,73.5 C 283.821,69.5467 267.154,69.5467 250.5,73.5C 251.186,71.7731 252.353,70.1064 254,68.5C 255.889,69.0974 257.722,69.4307 259.5,69.5C 261.638,68.7569 263.804,68.0903 266,67.5C 271.274,68.2792 276.44,68.2792 281.5,67.5C 287.083,68.8981 292.75,69.5648 298.5,69.5C 298.527,71.1993 299.194,72.5326 300.5,73.5 Z"/></g>
<g><path style="opacity:1" fill="#dfe7e7" d="M 300.5,73.5 C 306.769,73.1354 312.436,74.8021 317.5,78.5C 318.774,76.15 320.107,76.3167 321.5,79C 320.833,79.3333 320.167,79.6667 319.5,80C 322.333,82.1667 325.167,84.3333 328,86.5C 328.483,87.448 328.649,88.448 328.5,89.5C 324.196,86.3426 319.863,83.1759 315.5,80C 310.187,78.3383 305.187,76.1716 300.5,73.5 Z"/></g>
<g><path style="opacity:1" fill="#c8d9d7" d="M 283.5,83.5 C 283.5,83.8333 283.5,84.1667 283.5,84.5C 271.141,83.9281 259.141,85.5947 247.5,89.5C 248.59,88.1429 249.924,87.1429 251.5,86.5C 262.001,83.964 272.667,82.964 283.5,83.5 Z"/></g>
<g><path style="opacity:1" fill="#fdfefd" d="M 283.5,84.5 C 287.906,84.748 292.24,85.4147 296.5,86.5C 298.181,88.0075 300.181,89.0075 302.5,89.5C 309.818,95.655 316.318,102.655 322,110.5C 323.383,114.934 325.05,119.268 327,123.5C 328.945,136.839 328.945,150.172 327,163.5C 324.921,168.581 322.754,173.581 320.5,178.5C 308.358,194.823 294.858,210.156 280,224.5C 279.667,225.5 279.333,226.5 279,227.5C 272.872,233.962 266.372,239.629 259.5,244.5C 249.37,235.54 239.37,226.373 229.5,217C 211.971,199.528 194.304,182.028 176.5,164.5C 176.185,162.774 176.019,161.107 176,159.5C 178.172,158.415 180.172,157.081 182,155.5C 182.333,155.833 182.667,156.167 183,156.5C 185.265,151.631 188.265,147.297 192,143.5C 194.496,142.345 196.663,140.178 198.5,137C 197.587,135.586 197.587,134.086 198.5,132.5C 200.587,131.415 201.92,129.749 202.5,127.5C 206.5,122.833 210.833,118.5 215.5,114.5C 219.611,111.396 222.944,107.729 225.5,103.5C 227.749,102.92 229.415,101.587 230.5,99.5C 233.089,98.5806 235.089,96.914 236.5,94.5C 236.842,93.6618 237.508,93.3284 238.5,93.5C 240.848,93.4077 242.514,92.4077 243.5,90.5C 244.568,89.5655 245.901,89.2322 247.5,89.5C 259.141,85.5947 271.141,83.9281 283.5,84.5 Z"/></g>
<g><path style="opacity:1" fill="#294b46" d="M 243.5,76.5 C 243.607,78.9032 242.607,80.7365 240.5,82C 241.38,83.3561 241.714,84.8561 241.5,86.5C 239.8,86.6261 238.3,87.2927 237,88.5C 234.341,86.499 231.507,86.1657 228.5,87.5C 227.754,88.7362 227.421,90.0695 227.5,91.5C 224.009,91.4832 221.342,92.9832 219.5,96C 216.639,96.8717 213.972,98.0384 211.5,99.5C 216.964,92.8751 223.297,87.0418 230.5,82C 234.635,79.5965 238.968,77.7632 243.5,76.5 Z"/></g>
<g><path style="opacity:1" fill="#a4aeb0" d="M 328.5,89.5 C 330.749,90.0798 332.415,91.4131 333.5,93.5C 331.251,92.9202 329.585,91.5869 328.5,89.5 Z"/></g>
<g><path style="opacity:1" fill="#9fb5b3" d="M 243.5,90.5 C 242.514,92.4077 240.848,93.4077 238.5,93.5C 239.659,91.7497 241.326,90.7497 243.5,90.5 Z"/></g>
<g><path style="opacity:1" fill="#a8b9b8" d="M 236.5,94.5 C 235.089,96.914 233.089,98.5806 230.5,99.5C 231.911,97.086 233.911,95.4194 236.5,94.5 Z"/></g>
<g><path style="opacity:1" fill="#17433d" d="M 251.5,86.5 C 249.924,87.1429 248.59,88.1429 247.5,89.5C 245.901,89.2322 244.568,89.5655 243.5,90.5C 241.326,90.7497 239.659,91.7497 238.5,93.5C 237.508,93.3284 236.842,93.6618 236.5,94.5C 233.911,95.4194 231.911,97.086 230.5,99.5C 228.251,100.08 226.585,101.413 225.5,103.5C 222.167,106.5 218.833,109.5 215.5,112.5C 214.5,112.5 213.5,112.5 212.5,112.5C 212.649,113.552 212.483,114.552 212,115.5C 210.984,114.366 210.317,114.699 210,116.5C 208.383,115.464 208.216,114.297 209.5,113C 203.648,112.694 203.148,111.194 208,108.5C 208.395,105.348 209.228,102.348 210.5,99.5C 210.833,99.5 211.167,99.5 211.5,99.5C 213.972,98.0384 216.639,96.8717 219.5,96C 221.342,92.9832 224.009,91.4832 227.5,91.5C 227.421,90.0695 227.754,88.7362 228.5,87.5C 231.507,86.1657 234.341,86.499 237,88.5C 238.3,87.2927 239.8,86.6261 241.5,86.5C 241.714,84.8561 241.38,83.3561 240.5,82C 242.607,80.7365 243.607,78.9032 243.5,76.5C 245.848,76.3305 248.182,75.9971 250.5,75.5C 252.135,75.8777 253.635,76.5444 255,77.5C 255.316,76.3655 256.149,75.3655 257.5,74.5C 259.782,73.7766 262.116,73.4433 264.5,73.5C 264.374,75.1998 263.707,76.6998 262.5,78C 263.613,79.3943 264.947,80.561 266.5,81.5C 261.763,82.4227 257.097,83.5894 252.5,85C 251.944,85.3826 251.611,85.8826 251.5,86.5 Z"/></g>
<g><path style="opacity:1" fill="#2f4d48" d="M 336.5,97.5 C 345.651,106.792 351.984,117.792 355.5,130.5C 353.968,129.323 352.468,127.989 351,126.5C 350.667,124.167 350.333,121.833 350,119.5C 348.989,118.663 347.822,118.33 346.5,118.5C 346.581,113.654 344.415,110.321 340,108.5C 339.667,107.5 339.333,106.5 339,105.5C 336.976,107.884 334.809,108.051 332.5,106C 334.085,105.915 335.418,105.749 336.5,105.5C 337.538,103.142 337.538,100.476 336.5,97.5 Z"/></g>
<g><path style="opacity:1" fill="#697d79" d="M 204.5,106.5 C 203.167,108.5 201.5,110.167 199.5,111.5C 200.167,108.833 201.833,107.167 204.5,106.5 Z"/></g>
<g><path style="opacity:1" fill="#bacfd0" d="M 302.5,89.5 C 317.681,95.6834 329.014,106.017 336.5,120.5C 336.755,122.967 337.755,124.967 339.5,126.5C 345.658,144.932 346.158,163.598 341,182.5C 338.726,187.962 336.059,193.295 333,198.5C 319.209,212.45 306.042,226.783 293.5,241.5C 289.833,244.5 286.5,247.833 283.5,251.5C 280.827,254.506 278.16,257.506 275.5,260.5C 269.737,255.404 264.404,250.071 259.5,244.5C 266.372,239.629 272.872,233.962 279,227.5C 279.333,226.5 279.667,225.5 280,224.5C 294.858,210.156 308.358,194.823 320.5,178.5C 322.754,173.581 324.921,168.581 327,163.5C 328.945,150.172 328.945,136.839 327,123.5C 325.05,119.268 323.383,114.934 322,110.5C 316.318,102.655 309.818,95.655 302.5,89.5 Z"/></g>
<g><path style="opacity:1" fill="#b0c3c1" d="M 358.5,168.5 C 358.664,171.187 358.497,173.854 358,176.5C 357.722,177.416 357.222,178.082 356.5,178.5C 356.753,174.96 357.419,171.627 358.5,168.5 Z"/></g>
<g><path style="opacity:1" fill="#ecf2f2" d="M 149.5,164.5 C 139.172,176.161 128.505,187.495 117.5,198.5C 117.5,197.5 117.5,196.5 117.5,195.5C 113.551,195.307 113.551,194.807 117.5,194C 118.893,192.829 119.727,191.329 120,189.5C 120.333,190.167 120.667,190.833 121,191.5C 123.547,189.429 125.881,187.096 128,184.5C 128.483,183.552 128.649,182.552 128.5,181.5C 129.5,181.5 130.5,181.5 131.5,181.5C 131.351,180.448 131.517,179.448 132,178.5C 132.893,179.711 133.726,179.711 134.5,178.5C 135.404,175.602 136.738,172.936 138.5,170.5C 139.086,170.709 139.586,171.043 140,171.5C 141.647,167.094 144.813,164.761 149.5,164.5 Z"/></g>
<g><path style="opacity:1" fill="#d5e2e1" d="M 356.5,180.5 C 355.605,185.812 354.771,191.145 354,196.5C 350.149,198.193 348.315,201.193 348.5,205.5C 347.041,205.433 345.708,205.766 344.5,206.5C 349.09,197.994 353.09,189.327 356.5,180.5 Z"/></g>
<g><path style="opacity:1" fill="#5ac790" d="M 166.5,178.5 C 175.52,186.522 184.52,194.522 193.5,202.5C 193.5,202.833 193.5,203.167 193.5,203.5C 194.911,205.914 196.911,207.581 199.5,208.5C 202.895,212.898 206.895,216.564 211.5,219.5C 212.5,221.167 213.833,222.5 215.5,223.5C 223.222,231.553 230.889,239.553 238.5,247.5C 234.5,246.344 231.5,243.844 229.5,240C 228.552,239.517 227.552,239.351 226.5,239.5C 226.5,238.5 226.5,237.5 226.5,236.5C 223.794,236.312 221.461,235.312 219.5,233.5C 217.549,229.549 214.549,226.549 210.5,224.5C 209.627,222.587 208.627,220.753 207.5,219C 204.326,216.244 200.66,214.244 196.5,213C 194.215,210.2 191.548,208.033 188.5,206.5C 188.649,205.448 188.483,204.448 188,203.5C 186.241,201.333 184.074,199.666 181.5,198.5C 180.652,193.98 177.985,191.647 173.5,191.5C 173.007,189.194 172.674,186.861 172.5,184.5C 170.208,184.756 168.041,184.423 166,183.5C 165.751,184.624 165.251,185.624 164.5,186.5C 163.253,184.994 163.253,183.494 164.5,182C 162.833,181.333 161.167,181.333 159.5,182C 154.871,184.905 150.704,188.405 147,192.5C 146.18,194.728 146.513,196.728 148,198.5C 148.667,197.167 149.333,195.833 150,194.5C 150.556,197.538 149.723,200.204 147.5,202.5C 146.034,198.179 143.367,197.345 139.5,200C 138.793,202.52 137.96,205.02 137,207.5C 134.711,205.668 132.878,206.335 131.5,209.5C 123.395,216.92 115.562,224.92 108,233.5C 108.266,236.901 106.766,238.567 103.5,238.5C 102.066,244.376 101.232,250.376 101,256.5C 100.667,255.833 100.333,255.167 100,254.5C 96.2081,263.903 95.5414,273.569 98,283.5C 98.7526,286.835 99.9193,290.002 101.5,293C 100.748,293.671 100.414,294.504 100.5,295.5C 96.1281,288.426 94.4615,280.592 95.5,272C 95.8973,262.992 97.2307,254.159 99.5,245.5C 100.319,243.228 100.985,240.894 101.5,238.5C 102.167,238.5 102.5,238.167 102.5,237.5C 105.571,232.017 109.571,227.35 114.5,223.5C 123.236,215.766 131.236,207.433 138.5,198.5C 140.03,197.933 141.53,197.267 143,196.5C 144.689,193.333 146.522,190.333 148.5,187.5C 152.294,184.221 156.294,181.054 160.5,178C 162.488,177.82 164.488,177.986 166.5,178.5 Z"/></g>
<g><path style="opacity:1" fill="#1a423d" d="M 300.5,73.5 C 305.187,76.1716 310.187,78.3383 315.5,80C 319.863,83.1759 324.196,86.3426 328.5,89.5C 329.585,91.5869 331.251,92.9202 333.5,93.5C 334.5,94.8333 335.5,96.1667 336.5,97.5C 337.538,100.476 337.538,103.142 336.5,105.5C 335.418,105.749 334.085,105.915 332.5,106C 334.809,108.051 336.976,107.884 339,105.5C 339.333,106.5 339.667,107.5 340,108.5C 344.415,110.321 346.581,113.654 346.5,118.5C 347.822,118.33 348.989,118.663 350,119.5C 350.333,121.833 350.667,124.167 351,126.5C 352.468,127.989 353.968,129.323 355.5,130.5C 358.258,142.945 359.258,155.612 358.5,168.5C 357.419,171.627 356.753,174.96 356.5,178.5C 356.5,179.167 356.5,179.833 356.5,180.5C 353.09,189.327 349.09,197.994 344.5,206.5C 322.868,230.469 301.202,254.469 279.5,278.5C 278.833,278.833 278.167,279.167 277.5,279.5C 277.631,278.624 277.298,277.957 276.5,277.5C 274.568,278.52 272.568,278.687 270.5,278C 271.598,275.502 271.432,273.002 270,270.5C 269.576,273.025 268.41,275.025 266.5,276.5C 268.066,272.757 267.399,269.424 264.5,266.5C 261.765,262.759 258.098,260.759 253.5,260.5C 249.822,252.835 244.489,246.502 237.5,241.5C 236.614,240.675 236.281,239.675 236.5,238.5C 235.448,238.649 234.448,238.483 233.5,238C 227.995,232.403 221.995,227.57 215.5,223.5C 213.833,222.5 212.5,221.167 211.5,219.5C 208.105,215.102 204.105,211.436 199.5,208.5C 198.089,206.086 196.089,204.419 193.5,203.5C 193.5,203.167 193.5,202.833 193.5,202.5C 193.822,200.278 193.155,198.444 191.5,197C 182.775,191.612 175.275,184.779 169,176.5C 168.667,176.833 168.333,177.167 168,177.5C 166.871,175.859 165.371,174.859 163.5,174.5C 162.791,173.596 161.791,173.263 160.5,173.5C 159.127,173.343 157.793,173.51 156.5,174C 154.5,176.333 152.5,178.667 150.5,181C 149.552,181.483 148.552,181.649 147.5,181.5C 146.026,186.98 142.693,190.98 137.5,193.5C 135.941,196.096 134.274,198.763 132.5,201.5C 131.311,202.429 129.978,202.762 128.5,202.5C 127.5,205.167 126.5,207.833 125.5,210.5C 125.5,211.167 125.167,211.5 124.5,211.5C 123.448,211.351 122.448,211.517 121.5,212C 115.43,217.481 109.597,223.314 104,229.5C 103.178,232.117 102.678,234.784 102.5,237.5C 102.5,238.167 102.167,238.5 101.5,238.5C 100.504,238.414 99.6708,238.748 99,239.5C 96.8333,243.833 94.6667,248.167 92.5,252.5C 92.9312,253.293 93.2645,254.127 93.5,255C 90.1115,267.009 89.6115,279.175 92,291.5C 94.9837,294.403 95.1504,297.403 92.5,300.5C 93.6685,302.217 95.3352,302.884 97.5,302.5C 98.6229,305.375 99.4562,308.375 100,311.5C 101.887,313.026 102.887,315.026 103,317.5C 103.667,318.833 104.333,318.833 105,317.5C 105.667,319.5 106.333,321.5 107,323.5C 110.331,325.41 112.831,328.076 114.5,331.5C 115.736,332.246 117.07,332.579 118.5,332.5C 135.124,344.93 153.791,350.263 174.5,348.5C 179.03,348.597 183.53,348.264 188,347.5C 192.175,345.28 196.675,343.614 201.5,342.5C 203.395,340.712 205.062,338.712 206.5,336.5C 212.745,333.086 218.245,328.753 223,323.5C 223.333,322.167 223.667,320.833 224,319.5C 228.793,316.375 232.959,312.542 236.5,308C 238.275,306.561 240.275,305.561 242.5,305C 242.693,303.355 242.86,301.521 243,299.5C 243.671,298.748 244.504,298.414 245.5,298.5C 244.766,299.708 244.433,301.041 244.5,302.5C 250.367,303.172 251.034,305.506 246.5,309.5C 241.916,305.452 240.582,306.119 242.5,311.5C 240.441,312.951 239.441,314.951 239.5,317.5C 237.396,317.201 235.396,317.534 233.5,318.5C 234.04,319.748 234.707,320.915 235.5,322C 234.663,323.011 234.33,324.178 234.5,325.5C 228.399,332.769 221.732,339.603 214.5,346C 212.308,346.926 210.308,348.093 208.5,349.5C 206.596,349.738 205.262,350.738 204.5,352.5C 200.592,353.769 196.925,355.435 193.5,357.5C 178.738,361.255 163.738,362.422 148.5,361C 144.712,360.126 141.046,358.959 137.5,357.5C 133.703,357.128 130.37,355.794 127.5,353.5C 125.367,350.262 122.367,348.262 118.5,347.5C 115.705,346.937 113.372,345.604 111.5,343.5C 102.27,334.615 94.6029,324.615 88.5,313.5C 84.9421,306.603 82.9421,299.269 82.5,291.5C 80.7628,280.392 81.2628,269.392 84,258.5C 84.8928,259.711 85.7261,259.711 86.5,258.5C 87.866,255.308 88.6993,251.974 89,248.5C 89.6667,249.167 90.3333,249.833 91,250.5C 94.8509,245.798 97.3509,240.465 98.5,234.5C 93.5589,234.73 92.5589,236.73 95.5,240.5C 93.1629,241.517 91.4963,243.184 90.5,245.5C 89.5412,239.724 91.2078,234.724 95.5,230.5C 96.1556,228.547 96.4889,226.547 96.5,224.5C 101.439,223.558 103.772,220.558 103.5,215.5C 108.143,209.853 112.81,204.186 117.5,198.5C 128.505,187.495 139.172,176.161 149.5,164.5C 165.435,146.229 182.102,128.563 199.5,111.5C 201.5,110.167 203.167,108.5 204.5,106.5C 206.477,104.186 208.477,101.853 210.5,99.5C 209.228,102.348 208.395,105.348 208,108.5C 203.148,111.194 203.648,112.694 209.5,113C 208.216,114.297 208.383,115.464 210,116.5C 210.317,114.699 210.984,114.366 212,115.5C 212.483,114.552 212.649,113.552 212.5,112.5C 213.5,112.5 214.5,112.5 215.5,112.5C 215.5,113.167 215.5,113.833 215.5,114.5C 210.833,118.5 206.5,122.833 202.5,127.5C 200.413,128.585 199.08,130.251 198.5,132.5C 197.167,133.167 196.167,134.167 195.5,135.5C 192.757,137.239 190.757,139.573 189.5,142.5C 185.881,145.452 182.548,148.785 179.5,152.5C 177.203,154.294 175.037,156.294 173,158.5C 172.26,159.749 172.427,160.749 173.5,161.5C 174.167,162.833 175.167,163.833 176.5,164.5C 194.304,182.028 211.971,199.528 229.5,217C 239.37,226.373 249.37,235.54 259.5,244.5C 264.404,250.071 269.737,255.404 275.5,260.5C 278.16,257.506 280.827,254.506 283.5,251.5C 287.833,249.167 291.167,245.833 293.5,241.5C 306.042,226.783 319.209,212.45 333,198.5C 336.059,193.295 338.726,187.962 341,182.5C 346.158,163.598 345.658,144.932 339.5,126.5C 339.245,124.033 338.245,122.033 336.5,120.5C 329.014,106.017 317.681,95.6834 302.5,89.5C 300.181,89.0075 298.181,88.0075 296.5,86.5C 292.645,83.9645 288.312,82.9645 283.5,83.5C 272.667,82.964 262.001,83.964 251.5,86.5C 251.611,85.8826 251.944,85.3826 252.5,85C 257.097,83.5894 261.763,82.4227 266.5,81.5C 264.947,80.561 263.613,79.3943 262.5,78C 263.707,76.6998 264.374,75.1998 264.5,73.5C 262.116,73.4433 259.782,73.7766 257.5,74.5C 256.149,75.3655 255.316,76.3655 255,77.5C 253.635,76.5444 252.135,75.8777 250.5,75.5C 248.182,75.9971 245.848,76.3305 243.5,76.5C 245.509,74.9348 247.843,73.9348 250.5,73.5C 267.154,69.5467 283.821,69.5467 300.5,73.5 Z"/></g>
<g><path style="opacity:1" fill="#2b7852" d="M 193.5,203.5 C 196.089,204.419 198.089,206.086 199.5,208.5C 196.911,207.581 194.911,205.914 193.5,203.5 Z"/></g>
<g><path style="opacity:1" fill="#54d490" d="M 219.5,233.5 C 219.703,235.044 220.37,236.378 221.5,237.5C 218.24,239.352 215.907,242.019 214.5,245.5C 210.179,246.481 208.179,249.147 208.5,253.5C 203.5,253.5 198.5,253.5 193.5,253.5C 193.334,243.828 193.5,234.161 194,224.5C 195.706,223.692 196.539,222.359 196.5,220.5C 195.5,220.5 194.5,220.5 193.5,220.5C 193.5,221.5 193.5,222.5 193.5,223.5C 186.825,223.334 180.158,223.5 173.5,224C 174.337,225.011 174.67,226.178 174.5,227.5C 175.833,227.5 177.167,227.5 178.5,227.5C 181.287,237.908 181.12,248.241 178,258.5C 176.5,257 175,255.5 173.5,254C 175.689,253.323 176.022,252.156 174.5,250.5C 173.333,250.167 172.167,249.833 171,249.5C 166.511,252.041 162.011,254.708 157.5,257.5C 156.571,256.311 156.238,254.978 156.5,253.5C 154.5,253.5 152.5,253.5 150.5,253.5C 150.5,255.833 150.5,258.167 150.5,260.5C 148.073,260.477 145.74,259.977 143.5,259C 145.059,258.02 146.726,257.187 148.5,256.5C 147.619,255.029 146.286,254.196 144.5,254C 143.941,253.275 143.608,252.442 143.5,251.5C 145.172,247.63 145.672,243.63 145,239.5C 144.586,239.043 144.086,238.709 143.5,238.5C 142.294,240.484 142.294,242.484 143.5,244.5C 143.192,245.308 142.692,245.975 142,246.5C 138.428,245.021 136.594,242.354 136.5,238.5C 142.776,238.586 142.776,237.586 136.5,235.5C 135.558,235.608 134.725,235.941 134,236.5C 133.202,234.741 133.369,233.074 134.5,231.5C 135.609,232.59 136.609,232.59 137.5,231.5C 136.607,228.916 136.274,226.249 136.5,223.5C 132.779,222.343 129.113,220.843 125.5,219C 126.833,218.333 126.833,217.667 125.5,217C 129.208,215.799 131.208,213.299 131.5,209.5C 132.878,206.335 134.711,205.668 137,207.5C 137.96,205.02 138.793,202.52 139.5,200C 143.367,197.345 146.034,198.179 147.5,202.5C 149.723,200.204 150.556,197.538 150,194.5C 149.333,195.833 148.667,197.167 148,198.5C 146.513,196.728 146.18,194.728 147,192.5C 150.704,188.405 154.871,184.905 159.5,182C 161.167,181.333 162.833,181.333 164.5,182C 163.253,183.494 163.253,184.994 164.5,186.5C 165.251,185.624 165.751,184.624 166,183.5C 168.041,184.423 170.208,184.756 172.5,184.5C 172.674,186.861 173.007,189.194 173.5,191.5C 177.985,191.647 180.652,193.98 181.5,198.5C 184.074,199.666 186.241,201.333 188,203.5C 188.483,204.448 188.649,205.448 188.5,206.5C 191.548,208.033 194.215,210.2 196.5,213C 200.66,214.244 204.326,216.244 207.5,219C 208.627,220.753 209.627,222.587 210.5,224.5C 214.549,226.549 217.549,229.549 219.5,233.5 Z"/></g>
<g><path style="opacity:1" fill="#16593e" d="M 163.5,174.5 C 165.371,174.859 166.871,175.859 168,177.5C 168.333,177.167 168.667,176.833 169,176.5C 175.275,184.779 182.775,191.612 191.5,197C 193.155,198.444 193.822,200.278 193.5,202.5C 184.52,194.522 175.52,186.522 166.5,178.5C 165.5,177.167 164.5,175.833 163.5,174.5 Z"/></g>
<g><path style="opacity:1" fill="#4ca57e" d="M 148.5,187.5 C 146.522,190.333 144.689,193.333 143,196.5C 141.53,197.267 140.03,197.933 138.5,198.5C 141.101,194.229 144.434,190.563 148.5,187.5 Z"/></g>
<g><path style="opacity:1" fill="#114b38" d="M 160.5,173.5 C 156.845,178.486 152.845,183.153 148.5,187.5C 144.434,190.563 141.101,194.229 138.5,198.5C 134.213,202.45 129.88,206.45 125.5,210.5C 126.5,207.833 127.5,205.167 128.5,202.5C 129.978,202.762 131.311,202.429 132.5,201.5C 134.274,198.763 135.941,196.096 137.5,193.5C 142.693,190.98 146.026,186.98 147.5,181.5C 148.552,181.649 149.552,181.483 150.5,181C 152.5,178.667 154.5,176.333 156.5,174C 157.793,173.51 159.127,173.343 160.5,173.5 Z"/></g>
<g><path style="opacity:1" fill="#53b085" d="M 160.5,173.5 C 161.791,173.263 162.791,173.596 163.5,174.5C 164.5,175.833 165.5,177.167 166.5,178.5C 164.488,177.986 162.488,177.82 160.5,178C 156.294,181.054 152.294,184.221 148.5,187.5C 152.845,183.153 156.845,178.486 160.5,173.5 Z"/></g>
<g><path style="opacity:1" fill="#9aafae" d="M 179.5,152.5 C 177.5,155.5 175.5,158.5 173.5,161.5C 172.427,160.749 172.26,159.749 173,158.5C 175.037,156.294 177.203,154.294 179.5,152.5 Z"/></g>
<g><path style="opacity:1" fill="#a7bbbc" d="M 195.5,135.5 C 194.243,138.427 192.243,140.761 189.5,142.5C 190.757,139.573 192.757,137.239 195.5,135.5 Z"/></g>
<g><path style="opacity:1" fill="#eaf4f5" d="M 198.5,132.5 C 197.587,134.086 197.587,135.586 198.5,137C 196.663,140.178 194.496,142.345 192,143.5C 188.265,147.297 185.265,151.631 183,156.5C 182.667,156.167 182.333,155.833 182,155.5C 180.172,157.081 178.172,158.415 176,159.5C 176.019,161.107 176.185,162.774 176.5,164.5C 175.167,163.833 174.167,162.833 173.5,161.5C 175.5,158.5 177.5,155.5 179.5,152.5C 182.548,148.785 185.881,145.452 189.5,142.5C 192.243,140.761 194.243,138.427 195.5,135.5C 196.167,134.167 197.167,133.167 198.5,132.5 Z"/></g>
<g><path style="opacity:1" fill="#96a5a6" d="M 202.5,127.5 C 201.92,129.749 200.587,131.415 198.5,132.5C 199.08,130.251 200.413,128.585 202.5,127.5 Z"/></g>
<g><path style="opacity:1" fill="#678482" d="M 336.5,120.5 C 338.245,122.033 339.245,124.033 339.5,126.5C 337.755,124.967 336.755,122.967 336.5,120.5 Z"/></g>
<g><path style="opacity:1" fill="#a8bbba" d="M 225.5,103.5 C 222.944,107.729 219.611,111.396 215.5,114.5C 215.5,113.833 215.5,113.167 215.5,112.5C 218.833,109.5 222.167,106.5 225.5,103.5 Z"/></g>
<g><path style="opacity:1" fill="#a4b9b7" d="M 230.5,99.5 C 229.415,101.587 227.749,102.92 225.5,103.5C 226.585,101.413 228.251,100.08 230.5,99.5 Z"/></g>
<g><path style="opacity:1" fill="#5c6e6c" d="M 283.5,84.5 C 283.5,84.1667 283.5,83.8333 283.5,83.5C 288.312,82.9645 292.645,83.9645 296.5,86.5C 292.24,85.4147 287.906,84.748 283.5,84.5 Z"/></g>
<g><path style="opacity:1" fill="#1e6647" d="M 199.5,208.5 C 204.105,211.436 208.105,215.102 211.5,219.5C 206.895,216.564 202.895,212.898 199.5,208.5 Z"/></g>
<g><path style="opacity:1" fill="#53d290" d="M 131.5,209.5 C 131.208,213.299 129.208,215.799 125.5,217C 126.833,217.667 126.833,218.333 125.5,219C 129.113,220.843 132.779,222.343 136.5,223.5C 136.274,226.249 136.607,228.916 137.5,231.5C 136.609,232.59 135.609,232.59 134.5,231.5C 133.369,233.074 133.202,234.741 134,236.5C 134.725,235.941 135.558,235.608 136.5,235.5C 142.776,237.586 142.776,238.586 136.5,238.5C 136.594,242.354 138.428,245.021 142,246.5C 142.692,245.975 143.192,245.308 143.5,244.5C 142.294,242.484 142.294,240.484 143.5,238.5C 144.086,238.709 144.586,239.043 145,239.5C 145.672,243.63 145.172,247.63 143.5,251.5C 143.608,252.442 143.941,253.275 144.5,254C 146.286,254.196 147.619,255.029 148.5,256.5C 146.726,257.187 145.059,258.02 143.5,259C 145.74,259.977 148.073,260.477 150.5,260.5C 150.5,258.167 150.5,255.833 150.5,253.5C 152.5,253.5 154.5,253.5 156.5,253.5C 156.238,254.978 156.571,256.311 157.5,257.5C 162.011,254.708 166.511,252.041 171,249.5C 172.167,249.833 173.333,250.167 174.5,250.5C 176.022,252.156 175.689,253.323 173.5,254C 175,255.5 176.5,257 178,258.5C 181.12,248.241 181.287,237.908 178.5,227.5C 177.167,227.5 175.833,227.5 174.5,227.5C 174.67,226.178 174.337,225.011 173.5,224C 180.158,223.5 186.825,223.334 193.5,223.5C 193.5,222.5 193.5,221.5 193.5,220.5C 194.5,220.5 195.5,220.5 196.5,220.5C 196.539,222.359 195.706,223.692 194,224.5C 193.5,234.161 193.334,243.828 193.5,253.5C 198.5,253.5 203.5,253.5 208.5,253.5C 208.179,249.147 210.179,246.481 214.5,245.5C 215.907,242.019 218.24,239.352 221.5,237.5C 220.37,236.378 219.703,235.044 219.5,233.5C 221.461,235.312 223.794,236.312 226.5,236.5C 226.5,237.5 226.5,238.5 226.5,239.5C 227.552,239.351 228.552,239.517 229.5,240C 231.5,243.844 234.5,246.344 238.5,247.5C 239.295,252.428 241.629,256.428 245.5,259.5C 243.833,262.5 241.5,264.833 238.5,266.5C 237.902,267.795 237.402,269.128 237,270.5C 236.692,269.692 236.192,269.025 235.5,268.5C 229.931,272.817 223.598,274.484 216.5,273.5C 216.66,275.199 216.494,276.866 216,278.5C 213.692,279.641 211.859,281.308 210.5,283.5C 211.62,285.596 213.12,285.93 215,284.5C 215.374,285.416 215.874,286.25 216.5,287C 213.766,287.998 212.099,289.832 211.5,292.5C 210.448,292.649 209.448,292.483 208.5,292C 208.854,290.374 208.854,288.541 208.5,286.5C 206.856,286.286 205.356,286.62 204,287.5C 202.255,290.797 201.088,294.297 200.5,298C 203.146,298.497 205.813,298.664 208.5,298.5C 208.688,300.103 208.188,301.437 207,302.5C 206.667,302.167 206.333,301.833 206,301.5C 205.002,304.337 203.002,306.003 200,306.5C 198.878,308.42 198.044,310.42 197.5,312.5C 196.167,312.5 194.833,312.5 193.5,312.5C 193.5,313.5 193.5,314.5 193.5,315.5C 189.525,315.817 186.525,317.651 184.5,321C 181.57,321.606 178.737,322.44 176,323.5C 175.667,322.833 175.333,322.167 175,321.5C 173.97,323.776 172.47,324.443 170.5,323.5C 170.323,324.947 169.323,326.281 167.5,327.5C 167.167,327.5 166.833,327.5 166.5,327.5C 160.992,326.925 155.492,326.592 150,326.5C 148.495,325.327 146.995,324.161 145.5,323C 148.876,322.693 150.21,320.86 149.5,317.5C 147.856,317.714 146.356,317.38 145,316.5C 144.361,319.112 143.194,321.446 141.5,323.5C 139.336,322.586 137.336,321.419 135.5,320C 137.758,318.882 139.758,317.382 141.5,315.5C 140.756,312.557 140.256,309.557 140,306.5C 139.184,305.177 138.017,304.511 136.5,304.5C 135.508,304.672 134.842,304.338 134.5,303.5C 133.666,302.252 132.333,301.585 130.5,301.5C 129.167,301.667 127.833,301.833 126.5,302C 125.177,306.499 122.844,310.332 119.5,313.5C 119.167,312.5 118.833,311.5 118.5,310.5C 120.026,306.636 120.692,302.636 120.5,298.5C 122.199,298.66 123.866,298.494 125.5,298C 126.252,297.329 126.586,296.496 126.5,295.5C 127.116,285.543 126.949,275.543 126,265.5C 123.865,263.722 121.365,263.055 118.5,263.5C 118.5,264.5 118.5,265.5 118.5,266.5C 118.5,267.167 118.5,267.833 118.5,268.5C 117.5,268.5 116.5,268.5 115.5,268.5C 115.5,270.167 115.5,271.833 115.5,273.5C 114.814,279.234 114.148,285.067 113.5,291C 114.24,292.785 114.907,294.618 115.5,296.5C 114.619,297.971 113.286,298.804 111.5,299C 112.416,299.374 113.25,299.874 114,300.5C 114.554,302.61 115.388,304.61 116.5,306.5C 116.081,307.672 115.415,308.672 114.5,309.5C 114.709,310.086 115.043,310.586 115.5,311C 114.216,311.684 113.049,311.517 112,310.5C 111.227,307.789 110.06,305.289 108.5,303C 110.981,299.673 111.147,296.173 109,292.5C 107.989,291.663 106.822,291.33 105.5,291.5C 106.502,294.11 106.335,296.776 105,299.5C 103.89,297.963 102.39,297.297 100.5,297.5C 100.5,296.833 100.5,296.167 100.5,295.5C 100.414,294.504 100.748,293.671 101.5,293C 99.9193,290.002 98.7526,286.835 98,283.5C 95.5414,273.569 96.2081,263.903 100,254.5C 100.333,255.167 100.667,255.833 101,256.5C 101.232,250.376 102.066,244.376 103.5,238.5C 106.766,238.567 108.266,236.901 108,233.5C 115.562,224.92 123.395,216.92 131.5,209.5 Z"/></g>
<g><path style="opacity:1" fill="#0d4c36" d="M 124.5,211.5 C 120.767,215.227 117.434,219.227 114.5,223.5C 109.571,227.35 105.571,232.017 102.5,237.5C 102.678,234.784 103.178,232.117 104,229.5C 109.597,223.314 115.43,217.481 121.5,212C 122.448,211.517 123.448,211.351 124.5,211.5 Z"/></g>
<g><path style="opacity:1" fill="#419974" d="M 138.5,198.5 C 131.236,207.433 123.236,215.766 114.5,223.5C 117.434,219.227 120.767,215.227 124.5,211.5C 125.167,211.5 125.5,211.167 125.5,210.5C 129.88,206.45 134.213,202.45 138.5,198.5 Z"/></g>
<g><path style="opacity:1" fill="#244744" d="M 103.5,215.5 C 103.772,220.558 101.439,223.558 96.5,224.5C 96.4889,226.547 96.1556,228.547 95.5,230.5C 91.2078,234.724 89.5412,239.724 90.5,245.5C 91.4963,243.184 93.1629,241.517 95.5,240.5C 92.5589,236.73 93.5589,234.73 98.5,234.5C 97.3509,240.465 94.8509,245.798 91,250.5C 90.3333,249.833 89.6667,249.167 89,248.5C 88.6993,251.974 87.866,255.308 86.5,258.5C 85.7261,259.711 84.8928,259.711 84,258.5C 81.2628,269.392 80.7628,280.392 82.5,291.5C 77.0019,265.793 82.1685,242.126 98,220.5C 99.7038,218.627 101.537,216.96 103.5,215.5 Z"/></g>
<g><path style="opacity:1" fill="#13503a" d="M 215.5,223.5 C 221.995,227.57 227.995,232.403 233.5,238C 234.448,238.483 235.448,238.649 236.5,238.5C 236.281,239.675 236.614,240.675 237.5,241.5C 244.489,246.502 249.822,252.835 253.5,260.5C 252.167,259.5 250.833,258.5 249.5,257.5C 246.442,253.475 242.775,250.142 238.5,247.5C 230.889,239.553 223.222,231.553 215.5,223.5 Z"/></g>
<g><path style="opacity:1" fill="#486865" d="M 293.5,241.5 C 291.167,245.833 287.833,249.167 283.5,251.5C 286.5,247.833 289.833,244.5 293.5,241.5 Z"/></g>
<g><path style="opacity:1" fill="#6acc9b" d="M 134.5,242.5 C 136.846,245.386 137.68,248.72 137,252.5C 134.405,254.17 131.905,256.004 129.5,258C 125.872,259.316 123.539,258.149 122.5,254.5C 122.909,252.009 124.076,250.009 126,248.5C 126.49,247.207 126.657,245.873 126.5,244.5C 129.698,245.036 132.365,244.369 134.5,242.5 Z"/></g>
<g><path style="opacity:1" fill="#d4f8e5" d="M 129.5,246.5 C 133.395,246.857 134.395,248.857 132.5,252.5C 131.167,253.167 130.167,254.167 129.5,255.5C 127.955,256.452 126.288,256.785 124.5,256.5C 124.34,254.801 124.506,253.134 125,251.5C 126.707,249.963 128.207,248.296 129.5,246.5 Z"/></g>
<g><path style="opacity:1" fill="#258d66" d="M 249.5,257.5 C 250.833,258.5 252.167,259.5 253.5,260.5C 254.5,261.833 255.5,263.167 256.5,264.5C 257.563,267.72 259.23,270.554 261.5,273C 261.167,273.833 260.833,274.667 260.5,275.5C 257.034,276.819 254.7,279.153 253.5,282.5C 251.738,282.357 250.071,282.691 248.5,283.5C 246.545,285.668 245.879,288.002 246.5,290.5C 245.088,291.806 243.421,292.64 241.5,293C 241.854,294.626 241.854,296.459 241.5,298.5C 236.785,303.881 231.785,308.881 226.5,313.5C 226.201,311.396 226.534,309.396 227.5,307.5C 230.695,306.171 231.028,304.505 228.5,302.5C 229.855,301.325 229.688,300.325 228,299.5C 224.825,303.834 220.991,304.501 216.5,301.5C 217.025,300.808 217.692,300.308 218.5,300C 218.167,299.667 217.833,299.333 217.5,299C 219.632,298.082 220.299,296.749 219.5,295C 220.87,293.559 221.87,291.892 222.5,290C 224.618,289.74 226.284,288.74 227.5,287C 229.134,286.506 230.801,286.34 232.5,286.5C 232.796,283.737 233.796,281.237 235.5,279C 237.861,278.803 239.528,277.636 240.5,275.5C 241.167,275.833 241.833,276.167 242.5,276.5C 243.311,274.609 244.644,273.276 246.5,272.5C 247.72,273.711 248.887,273.711 250,272.5C 249.757,268.453 249.59,264.453 249.5,260.5C 249.5,259.5 249.5,258.5 249.5,257.5 Z"/></g>
<g><path style="opacity:1" fill="#249366" d="M 249.5,260.5 C 249.59,264.453 249.757,268.453 250,272.5C 248.887,273.711 247.72,273.711 246.5,272.5C 244.644,273.276 243.311,274.609 242.5,276.5C 241.833,276.167 241.167,275.833 240.5,275.5C 239.528,277.636 237.861,278.803 235.5,279C 233.796,281.237 232.796,283.737 232.5,286.5C 230.801,286.34 229.134,286.506 227.5,287C 226.284,288.74 224.618,289.74 222.5,290C 221.87,291.892 220.87,293.559 219.5,295C 220.299,296.749 219.632,298.082 217.5,299C 217.833,299.333 218.167,299.667 218.5,300C 217.692,300.308 217.025,300.808 216.5,301.5C 220.991,304.501 224.825,303.834 228,299.5C 229.688,300.325 229.855,301.325 228.5,302.5C 231.028,304.505 230.695,306.171 227.5,307.5C 226.534,309.396 226.201,311.396 226.5,313.5C 223.703,314.361 221.037,314.695 218.5,314.5C 217.205,313.902 215.872,313.402 214.5,313C 217.387,311.724 218.554,309.557 218,306.5C 216.267,304.398 214.267,304.065 212,305.5C 211.667,304.833 211.333,304.167 211,303.5C 206.895,307.427 203.062,311.927 199.5,317C 199.957,317.414 200.291,317.914 200.5,318.5C 195.916,320.146 191.249,321.479 186.5,322.5C 194.044,317.301 201.044,311.301 207.5,304.5C 221.234,289.436 235.234,274.77 249.5,260.5 Z"/></g>
<g><path style="opacity:1" fill="#56b487" d="M 99.5,245.5 C 97.2307,254.159 95.8973,262.992 95.5,272C 94.4615,280.592 96.1281,288.426 100.5,295.5C 100.5,296.167 100.5,296.833 100.5,297.5C 98.6519,295.267 96.9852,292.934 95.5,290.5C 93.6246,276.658 94.2913,262.991 97.5,249.5C 98.1667,248.167 98.8333,246.833 99.5,245.5 Z"/></g>
<g><path style="opacity:1" fill="#a9e3c5" d="M 121.5,293.5 C 122.5,293.5 123.5,293.5 124.5,293.5C 123.854,284.848 123.521,276.182 123.5,267.5C 121.708,267.366 120.042,267.699 118.5,268.5C 118.5,267.833 118.5,267.167 118.5,266.5C 120.339,265.248 122.172,265.248 124,266.5C 124.598,275.832 125.098,285.165 125.5,294.5C 123.901,294.768 122.568,294.434 121.5,293.5 Z"/></g>
<g><path style="opacity:1" fill="#52cf92" d="M 238.5,247.5 C 242.775,250.142 246.442,253.475 249.5,257.5C 249.5,258.5 249.5,259.5 249.5,260.5C 235.234,274.77 221.234,289.436 207.5,304.5C 201.044,311.301 194.044,317.301 186.5,322.5C 180.399,325.051 174.065,326.717 167.5,327.5C 169.323,326.281 170.323,324.947 170.5,323.5C 172.47,324.443 173.97,323.776 175,321.5C 175.333,322.167 175.667,322.833 176,323.5C 178.737,322.44 181.57,321.606 184.5,321C 186.525,317.651 189.525,315.817 193.5,315.5C 193.5,314.5 193.5,313.5 193.5,312.5C 194.833,312.5 196.167,312.5 197.5,312.5C 198.044,310.42 198.878,308.42 200,306.5C 203.002,306.003 205.002,304.337 206,301.5C 206.333,301.833 206.667,302.167 207,302.5C 208.188,301.437 208.688,300.103 208.5,298.5C 205.813,298.664 203.146,298.497 200.5,298C 201.088,294.297 202.255,290.797 204,287.5C 205.356,286.62 206.856,286.286 208.5,286.5C 208.854,288.541 208.854,290.374 208.5,292C 209.448,292.483 210.448,292.649 211.5,292.5C 212.099,289.832 213.766,287.998 216.5,287C 215.874,286.25 215.374,285.416 215,284.5C 213.12,285.93 211.62,285.596 210.5,283.5C 211.859,281.308 213.692,279.641 216,278.5C 216.494,276.866 216.66,275.199 216.5,273.5C 223.598,274.484 229.931,272.817 235.5,268.5C 236.192,269.025 236.692,269.692 237,270.5C 237.402,269.128 237.902,267.795 238.5,266.5C 241.5,264.833 243.833,262.5 245.5,259.5C 241.629,256.428 239.295,252.428 238.5,247.5 Z"/></g>
<g><path style="opacity:1" fill="#e1fbf0" d="M 121.5,293.5 C 119.87,291.974 119.037,289.974 119,287.5C 118.5,281.175 118.334,274.842 118.5,268.5C 120.042,267.699 121.708,267.366 123.5,267.5C 123.521,276.182 123.854,284.848 124.5,293.5C 123.5,293.5 122.5,293.5 121.5,293.5 Z"/></g>
<g><path style="opacity:1" fill="#69c896" d="M 126.5,295.5 C 122.943,296.634 119.609,295.967 116.5,293.5C 116.833,292.833 117.167,292.167 117.5,291.5C 115.767,285.641 115.1,279.641 115.5,273.5C 115.5,271.833 115.5,270.167 115.5,268.5C 116.5,268.5 117.5,268.5 118.5,268.5C 118.334,274.842 118.5,281.175 119,287.5C 119.037,289.974 119.87,291.974 121.5,293.5C 122.568,294.434 123.901,294.768 125.5,294.5C 125.098,285.165 124.598,275.832 124,266.5C 122.172,265.248 120.339,265.248 118.5,266.5C 118.5,265.5 118.5,264.5 118.5,263.5C 121.365,263.055 123.865,263.722 126,265.5C 126.949,275.543 127.116,285.543 126.5,295.5 Z"/></g>
<g><path style="opacity:1" fill="#2b8866" d="M 256.5,264.5 C 259.156,266.656 261.656,268.989 264,271.5C 264.667,272.5 264.667,273.5 264,274.5C 256.662,282.671 249.162,290.671 241.5,298.5C 241.854,296.459 241.854,294.626 241.5,293C 243.421,292.64 245.088,291.806 246.5,290.5C 245.879,288.002 246.545,285.668 248.5,283.5C 250.071,282.691 251.738,282.357 253.5,282.5C 254.7,279.153 257.034,276.819 260.5,275.5C 260.833,274.667 261.167,273.833 261.5,273C 259.23,270.554 257.563,267.72 256.5,264.5 Z"/></g>
<g><path style="opacity:1" fill="#1b3f3c" d="M 277.5,279.5 C 269.529,288.474 261.529,297.474 253.5,306.5C 247.527,313.14 241.194,319.473 234.5,325.5C 234.33,324.178 234.663,323.011 235.5,322C 234.707,320.915 234.04,319.748 233.5,318.5C 235.396,317.534 237.396,317.201 239.5,317.5C 239.441,314.951 240.441,312.951 242.5,311.5C 240.582,306.119 241.916,305.452 246.5,309.5C 251.034,305.506 250.367,303.172 244.5,302.5C 244.433,301.041 244.766,299.708 245.5,298.5C 248.616,296.213 251.283,293.38 253.5,290C 255.025,288.991 256.692,288.491 258.5,288.5C 260.143,283.899 262.81,279.899 266.5,276.5C 268.41,275.025 269.576,273.025 270,270.5C 271.432,273.002 271.598,275.502 270.5,278C 272.568,278.687 274.568,278.52 276.5,277.5C 277.298,277.957 277.631,278.624 277.5,279.5 Z"/></g>
<g><path style="opacity:1" fill="#104a3a" d="M 253.5,260.5 C 258.098,260.759 261.765,262.759 264.5,266.5C 267.399,269.424 268.066,272.757 266.5,276.5C 262.81,279.899 260.143,283.899 258.5,288.5C 256.692,288.491 255.025,288.991 253.5,290C 251.283,293.38 248.616,296.213 245.5,298.5C 244.504,298.414 243.671,298.748 243,299.5C 242.86,301.521 242.693,303.355 242.5,305C 240.275,305.561 238.275,306.561 236.5,308C 232.959,312.542 228.793,316.375 224,319.5C 223.667,320.833 223.333,322.167 223,323.5C 218.245,328.753 212.745,333.086 206.5,336.5C 205.062,338.712 203.395,340.712 201.5,342.5C 196.675,343.614 192.175,345.28 188,347.5C 183.53,348.264 179.03,348.597 174.5,348.5C 183.166,345.993 191.833,343.159 200.5,340C 202.617,338.231 204.617,336.398 206.5,334.5C 213.841,328.158 220.508,321.158 226.5,313.5C 231.785,308.881 236.785,303.881 241.5,298.5C 249.162,290.671 256.662,282.671 264,274.5C 264.667,273.5 264.667,272.5 264,271.5C 261.656,268.989 259.156,266.656 256.5,264.5C 255.5,263.167 254.5,261.833 253.5,260.5 Z"/></g>
<g><path style="opacity:1" fill="#1d6549" d="M 97.5,249.5 C 94.2913,262.991 93.6246,276.658 95.5,290.5C 96.3705,293.112 97.0372,295.779 97.5,298.5C 96.8826,298.389 96.3826,298.056 96,297.5C 94.003,289.642 93.1696,281.642 93.5,273.5C 93.6667,268.167 93.8333,262.833 94,257.5C 94.5784,254.428 95.745,251.761 97.5,249.5 Z"/></g>
<g><path style="opacity:1" fill="#55cb91" d="M 115.5,273.5 C 115.1,279.641 115.767,285.641 117.5,291.5C 117.167,292.167 116.833,292.833 116.5,293.5C 119.609,295.967 122.943,296.634 126.5,295.5C 126.586,296.496 126.252,297.329 125.5,298C 123.866,298.494 122.199,298.66 120.5,298.5C 120.692,302.636 120.026,306.636 118.5,310.5C 118.833,311.5 119.167,312.5 119.5,313.5C 122.844,310.332 125.177,306.499 126.5,302C 127.833,301.833 129.167,301.667 130.5,301.5C 132.333,301.585 133.666,302.252 134.5,303.5C 128.031,300.75 125.531,302.75 127,309.5C 129.069,311.085 131.236,312.419 133.5,313.5C 134.919,314.451 136.585,314.784 138.5,314.5C 138.966,310.838 138.299,307.505 136.5,304.5C 138.017,304.511 139.184,305.177 140,306.5C 140.256,309.557 140.756,312.557 141.5,315.5C 139.758,317.382 137.758,318.882 135.5,320C 137.336,321.419 139.336,322.586 141.5,323.5C 143.194,321.446 144.361,319.112 145,316.5C 146.356,317.38 147.856,317.714 149.5,317.5C 150.21,320.86 148.876,322.693 145.5,323C 146.995,324.161 148.495,325.327 150,326.5C 155.492,326.592 160.992,326.925 166.5,327.5C 159.345,328.655 152.012,328.822 144.5,328C 140.417,325.895 136.083,324.562 131.5,324C 124.78,321.061 118.447,317.395 112.5,313C 107.902,308.243 103.902,303.076 100.5,297.5C 102.39,297.297 103.89,297.963 105,299.5C 106.335,296.776 106.502,294.11 105.5,291.5C 106.822,291.33 107.989,291.663 109,292.5C 111.147,296.173 110.981,299.673 108.5,303C 110.06,305.289 111.227,307.789 112,310.5C 113.049,311.517 114.216,311.684 115.5,311C 115.043,310.586 114.709,310.086 114.5,309.5C 115.415,308.672 116.081,307.672 116.5,306.5C 115.388,304.61 114.554,302.61 114,300.5C 113.25,299.874 112.416,299.374 111.5,299C 113.286,298.804 114.619,297.971 115.5,296.5C 114.907,294.618 114.24,292.785 113.5,291C 114.148,285.067 114.814,279.234 115.5,273.5 Z"/></g>
<g><path style="opacity:1" fill="#e9efee" d="M 279.5,278.5 C 278.587,280.086 278.587,281.586 279.5,283C 276.337,284.48 274.504,286.98 274,290.5C 273.667,290.167 273.333,289.833 273,289.5C 271.342,291.323 269.509,292.99 267.5,294.5C 268.428,295.768 268.595,297.101 268,298.5C 263.224,301.387 258.391,304.054 253.5,306.5C 261.529,297.474 269.529,288.474 277.5,279.5C 278.167,279.167 278.833,278.833 279.5,278.5 Z"/></g>
<g><path style="opacity:1" fill="#104839" d="M 101.5,238.5 C 100.985,240.894 100.319,243.228 99.5,245.5C 98.8333,246.833 98.1667,248.167 97.5,249.5C 95.745,251.761 94.5784,254.428 94,257.5C 93.8333,262.833 93.6667,268.167 93.5,273.5C 93.1696,281.642 94.003,289.642 96,297.5C 96.3826,298.056 96.8826,298.389 97.5,298.5C 97.8333,298.5 98.1667,298.5 98.5,298.5C 98.3433,299.873 98.51,301.207 99,302.5C 102.354,309.208 105.687,315.875 109,322.5C 112.448,325.776 115.615,329.109 118.5,332.5C 117.07,332.579 115.736,332.246 114.5,331.5C 112.831,328.076 110.331,325.41 107,323.5C 106.333,321.5 105.667,319.5 105,317.5C 104.333,318.833 103.667,318.833 103,317.5C 102.887,315.026 101.887,313.026 100,311.5C 99.4562,308.375 98.6229,305.375 97.5,302.5C 95.3352,302.884 93.6685,302.217 92.5,300.5C 95.1504,297.403 94.9837,294.403 92,291.5C 89.6115,279.175 90.1115,267.009 93.5,255C 93.2645,254.127 92.9312,253.293 92.5,252.5C 94.6667,248.167 96.8333,243.833 99,239.5C 99.6708,238.748 100.504,238.414 101.5,238.5 Z"/></g>
<g><path style="opacity:1" fill="#81cfa7" d="M 134.5,303.5 C 134.842,304.338 135.508,304.672 136.5,304.5C 138.299,307.505 138.966,310.838 138.5,314.5C 136.585,314.784 134.919,314.451 133.5,313.5C 131.236,312.419 129.069,311.085 127,309.5C 125.531,302.75 128.031,300.75 134.5,303.5 Z"/></g>
<g><path style="opacity:1" fill="#278c66" d="M 95.5,290.5 C 96.9852,292.934 98.6519,295.267 100.5,297.5C 103.902,303.076 107.902,308.243 112.5,313C 118.447,317.395 124.78,321.061 131.5,324C 136.083,324.562 140.417,325.895 144.5,328C 152.012,328.822 159.345,328.655 166.5,327.5C 166.833,327.5 167.167,327.5 167.5,327.5C 174.065,326.717 180.399,325.051 186.5,322.5C 191.249,321.479 195.916,320.146 200.5,318.5C 200.291,317.914 199.957,317.414 199.5,317C 203.062,311.927 206.895,307.427 211,303.5C 211.333,304.167 211.667,304.833 212,305.5C 214.267,304.065 216.267,304.398 218,306.5C 218.554,309.557 217.387,311.724 214.5,313C 215.872,313.402 217.205,313.902 218.5,314.5C 221.037,314.695 223.703,314.361 226.5,313.5C 220.508,321.158 213.841,328.158 206.5,334.5C 202.163,336.825 197.496,338.325 192.5,339C 190.869,340.797 188.869,341.964 186.5,342.5C 173.616,346.762 160.283,347.262 146.5,344C 143.816,343.222 141.483,341.889 139.5,340C 136.207,339.174 132.874,338.674 129.5,338.5C 129.822,336.278 129.155,334.444 127.5,333C 124.833,331.667 122.167,330.333 119.5,329C 118,326.167 115.833,324 113,322.5C 111.429,317.945 108.762,314.278 105,311.5C 103.664,306.597 101.497,302.263 98.5,298.5C 98.1667,298.5 97.8333,298.5 97.5,298.5C 97.0372,295.779 96.3705,293.112 95.5,290.5 Z"/></g>
<g><path style="opacity:1" fill="#defaed" d="M 133.5,313.5 C 131.493,311.161 129.493,308.828 127.5,306.5C 127.5,304.5 128.5,303.5 130.5,303.5C 132.857,305.123 135.024,307.123 137,309.5C 137.49,310.793 137.657,312.127 137.5,313.5C 136.167,313.5 134.833,313.5 133.5,313.5 Z"/></g>
<g><path style="opacity:1" fill="#e9f0f0" d="M 88.5,313.5 C 94.6029,324.615 102.27,334.615 111.5,343.5C 109.143,343.663 106.81,343.497 104.5,343C 103.399,339.676 101.066,336.843 97.5,334.5C 96.4223,330.672 94.589,327.339 92,324.5C 91.0853,325.328 90.4186,326.328 90,327.5C 89.3131,325.432 89.4798,323.432 90.5,321.5C 90.1543,320.304 89.6543,320.304 89,321.5C 88.3828,320.551 88.5494,319.718 89.5,319C 87.3652,317.444 87.0319,315.611 88.5,313.5 Z"/></g>
<g><path style="opacity:1" fill="#2e8166" d="M 98.5,298.5 C 101.497,302.263 103.664,306.597 105,311.5C 108.762,314.278 111.429,317.945 113,322.5C 115.833,324 118,326.167 119.5,329C 122.167,330.333 124.833,331.667 127.5,333C 129.155,334.444 129.822,336.278 129.5,338.5C 132.874,338.674 136.207,339.174 139.5,340C 141.483,341.889 143.816,343.222 146.5,344C 160.283,347.262 173.616,346.762 186.5,342.5C 188.869,341.964 190.869,340.797 192.5,339C 197.496,338.325 202.163,336.825 206.5,334.5C 204.617,336.398 202.617,338.231 200.5,340C 191.833,343.159 183.166,345.993 174.5,348.5C 153.791,350.263 135.124,344.93 118.5,332.5C 115.615,329.109 112.448,325.776 109,322.5C 105.687,315.875 102.354,309.208 99,302.5C 98.51,301.207 98.3433,299.873 98.5,298.5 Z"/></g>
<g><path style="opacity:1" fill="#49605e" d="M 118.5,347.5 C 122.367,348.262 125.367,350.262 127.5,353.5C 123.975,352.241 120.975,350.241 118.5,347.5 Z"/></g>
<g><path style="opacity:1" fill="#899d9d" d="M 208.5,349.5 C 207.738,351.262 206.404,352.262 204.5,352.5C 205.262,350.738 206.596,349.738 208.5,349.5 Z"/></g>
<g><path style="opacity:1" fill="#dfeae8" d="M 137.5,357.5 C 141.046,358.959 144.712,360.126 148.5,361C 163.738,362.422 178.738,361.255 193.5,357.5C 193.423,358.75 192.756,359.583 191.5,360C 192.167,360.333 192.833,360.667 193.5,361C 190.851,361.452 188.351,362.286 186,363.5C 177.045,362.49 167.878,362.823 158.5,364.5C 152.21,364.077 145.876,363.577 139.5,363C 138.692,362.692 138.025,362.192 137.5,361.5C 138.807,360.135 138.807,358.802 137.5,357.5 Z"/></g>
</svg>
