<svg width="577" height="577" viewBox="0 0 577 577" fill="none" xmlns="http://www.w3.org/2000/svg">
<circle cx="288.5" cy="288.5" r="280" fill="white"/>
<path d="M264.666 0.800881C193.733 8.26755 133.066 36.5342 85.0664 84.4009C40.6664 128.934 13.5997 182.268 3.06641 246.001C-0.266927 266.401 -0.266927 310.801 3.06641 331.334C13.3331 394.001 40.9331 448.801 84.3997 492.268C128.933 536.668 182.266 563.734 246 574.268C266.4 577.601 310.8 577.601 331.333 574.268C448.133 555.201 540.4 471.601 568.666 358.801C574.933 333.734 576.666 318.534 576.666 288.668C576.666 250.134 571.733 222.001 559.333 188.534C522.933 90.9342 438.533 21.4675 334.666 3.73421C319.866 1.20088 277.6 -0.532452 264.666 0.800881ZM324.266 113.868C378.133 127.601 419.6 172.001 430 227.068C432.533 240.668 432.533 266.001 430 279.601C417.866 343.601 364.933 391.468 300.4 396.801L289.333 397.734V379.468V361.334H293.733C300.666 361.334 313.066 358.801 324.133 355.201C357.466 344.401 384 315.201 393.466 279.334C397.333 264.534 397.333 242.134 393.466 227.334C384.266 192.534 359.866 164.934 327.333 152.668C285.6 136.801 240.533 147.601 209.6 180.668C199.066 191.868 190 208.001 185.066 224.001C182.133 233.868 182.133 235.068 181.6 315.201L181.2 396.534L163.333 378.668L145.333 360.668V302.401C145.333 268.268 145.866 240.001 146.8 233.868C149.733 212.134 158.133 190.668 170.666 171.868C177.866 161.201 198.266 140.801 208.133 134.268C224.8 123.468 245.333 114.934 262 112.134C266.4 111.334 271.466 110.401 273.333 110.134C275.2 109.734 284.533 109.734 294 110.001C306.8 110.401 314.666 111.334 324.266 113.868ZM305.066 183.334C316.933 186.134 328.666 192.534 337.6 200.934C353.333 216.001 359.866 231.334 360 252.801C360 275.201 353.2 291.068 337.066 306.268C325.866 316.801 306.266 325.201 293.066 325.334H289.333V307.468V289.734L294.8 288.801C302.533 287.601 309.466 283.734 315.2 277.334C322.133 269.601 324.4 263.601 324.4 253.334C324.4 243.068 322.133 237.068 315.2 229.334C298.8 211.201 270.266 214.268 257.6 235.734L254 242.001L253.6 354.934C253.466 417.201 252.8 468.001 252.266 468.001C251.733 468.001 243.733 460.401 234.4 451.068L217.333 434.001V339.334C217.333 234.934 217.333 235.201 225.733 219.468C228 214.934 234 207.334 238.8 202.534C256.4 184.801 281.066 177.734 305.066 183.334Z" fill="#110F24"/>
</svg>
