<svg xmlns="http://www.w3.org/2000/svg" version="1.1" viewBox="0 0 580 580" width="580px" height="580px" style="shape-rendering:geometricPrecision; text-rendering:geometricPrecision; image-rendering:optimizeQuality; fill-rule:evenodd; clip-rule:evenodd" xmlns:xlink="http://www.w3.org/1999/xlink">
<g><path style="opacity:1" fill="#fea101" d="M -0.5,-0.5 C 192.833,-0.5 386.167,-0.5 579.5,-0.5C 579.5,192.833 579.5,386.167 579.5,579.5C 386.167,579.5 192.833,579.5 -0.5,579.5C -0.5,386.167 -0.5,192.833 -0.5,-0.5 Z"/></g>
<g><path style="opacity:1" fill="#fefefd" d="M 273.5,420.5 C 278.899,420.691 284.233,420.191 289.5,419C 286.854,418.503 284.187,418.336 281.5,418.5C 262.164,418.667 242.83,418.5 223.5,418C 203.496,402 187.496,382.666 175.5,360C 156.058,358.445 136.725,356.112 117.5,353C 134.821,350.668 152.154,348.502 169.5,346.5C 166.848,335.557 164.348,324.557 162,313.5C 159.764,294.784 160.097,276.117 163,257.5C 165.48,249.231 167.646,240.898 169.5,232.5C 152.142,230.568 134.809,228.401 117.5,226C 137.111,222.99 156.777,220.49 176.5,218.5C 187.78,195.787 203.447,176.621 223.5,161C 238.83,160.5 254.163,160.333 269.5,160.5C 296.113,160.496 296.113,159.829 269.5,158.5C 201.382,153.05 133.382,146.55 65.5,139C 151.342,135.437 237.176,131.604 323,127.5C 392.848,131.052 442.515,164.385 472,227.5C 494.538,289.271 485.205,345.605 444,396.5C 411.666,431.751 371.332,450.085 323,451.5C 237.176,447.396 151.343,443.563 65.5,440C 134.695,432.209 204.028,425.709 273.5,420.5 Z"/></g>
<g><path style="opacity:1" fill="#febf6a" d="M 269.5,158.5 C 296.113,159.829 296.113,160.496 269.5,160.5C 269.5,159.833 269.5,159.167 269.5,158.5 Z"/></g>
<g><path style="opacity:1" fill="#fae4bb" d="M 316.5,229.5 C 322.319,228.347 328.319,228.181 334.5,229C 335.416,229.278 336.082,229.778 336.5,230.5C 329.869,229.669 323.202,229.336 316.5,229.5 Z"/></g>
<g><path style="opacity:1" fill="#fea103" d="M 316.5,229.5 C 323.202,229.336 329.869,229.669 336.5,230.5C 369.676,241.498 384.843,264.498 382,299.5C 376.492,325.841 360.659,342.174 334.5,348.5C 329.228,349.4 323.895,349.733 318.5,349.5C 294.225,347.286 276.725,335.286 266,313.5C 254.584,277.047 265.75,250.213 299.5,233C 305.077,231.305 310.744,230.138 316.5,229.5 Z"/></g>
<g><path style="opacity:1" fill="#fae1b9" d="M 334.5,348.5 C 334.389,349.117 334.056,349.617 333.5,350C 328.316,350.816 323.316,350.65 318.5,349.5C 323.895,349.733 329.228,349.4 334.5,348.5 Z"/></g>
<g><path style="opacity:1" fill="#ffe5c1" d="M 281.5,418.5 C 284.187,418.336 286.854,418.503 289.5,419C 284.233,420.191 278.899,420.691 273.5,420.5C 276.167,419.833 278.833,419.167 281.5,418.5 Z"/></g>
</svg>
