<svg width="32" height="32" viewBox="0 0 32 32" fill="none" xmlns="http://www.w3.org/2000/svg">
<path d="M19.2672 19.8816C13.219 21.696 8.21583 24.3424 5.08405 27.4432L4.94578 27.5808C5.77857 28.368 6.69174 29.072 7.67888 29.6704L7.89109 29.4112C8.74637 28.368 9.66277 27.36 10.6177 26.4096C13.1804 23.8592 16.1129 21.6512 19.2704 19.8784L19.2672 19.8816Z" fill="#F5F5F5"/>
<path d="M0.000488281 17.1936C0.241635 20.4288 1.44421 23.3952 3.33165 25.808L3.41846 25.7216C5.35735 23.8112 7.88145 22.0736 10.9264 20.56C13.5952 19.232 16.6594 18.0928 19.9617 17.1936H0.000488281Z" fill="#F5F5F5"/>
<path d="M12.309 3.8976C17.7206 9.2832 24.5308 12.8448 32.0002 14.1952C31.0998 6.2112 24.2961 0 16.0293 0C13.846 0 11.7657 0.4352 9.8653 1.2192C10.637 2.1472 11.4602 3.0496 12.309 3.8976Z" fill="#F5F5F5"/>
<path d="M5.08405 4.55681C8.21583 7.66081 13.219 10.304 19.2672 12.1216C16.1097 10.3456 13.1772 8.1408 10.6145 5.59041C9.66277 4.64321 8.74637 3.63521 7.88787 2.58881L7.67566 2.32961C6.68853 2.92801 5.77535 3.63201 4.94578 4.41921L5.08405 4.55681Z" fill="#F5F5F5"/>
<path d="M12.309 28.1024C11.457 28.9504 10.6338 29.8528 9.8653 30.7808C11.7625 31.5648 13.846 32 16.0293 32C24.2961 32 31.0998 25.7888 32.0034 17.8016C24.534 19.152 17.7238 22.7136 12.3122 28.0992L12.309 28.1024Z" fill="#F5F5F5"/>
<path d="M10.9264 11.44C7.88145 9.9264 5.35735 8.1888 3.41846 6.2784L3.33165 6.192C1.44421 8.6048 0.241635 11.5712 0.000488281 14.8064H19.9585C16.6562 13.9072 13.5952 12.768 10.9232 11.4368L10.9264 11.44Z" fill="#F5F5F5"/>
</svg>
