<svg width="433" height="433" viewBox="0 0 433 433" fill="none" xmlns="http://www.w3.org/2000/svg">
<g clip-path="url(#clip0_1597_3082)">
<path opacity="0.997" fill-rule="evenodd" clip-rule="evenodd" d="M212.17 0.0722656C215.055 0.0722656 217.941 0.0722656 220.827 0.0722656C237.037 1.28008 251.177 7.26791 263.247 18.0358C314.256 68.9965 365.212 120.001 416.117 171.05C426.173 182.896 431.776 196.603 432.926 212.172C432.926 215.057 432.926 217.943 432.926 220.829C431.757 236.39 426.155 250.097 416.117 261.95C365.212 313 314.256 364.004 263.247 414.964C245.908 430.038 225.852 435.617 203.08 431.702C190.394 429.135 179.284 423.555 169.75 414.964C118.741 364.004 67.7842 313 16.8795 261.95C6.82357 250.104 1.2205 236.397 0.0703125 220.829C0.0703125 217.943 0.0703125 215.057 0.0703125 212.172C1.27813 195.961 7.26596 181.821 18.0338 169.752C68.9945 118.743 119.999 67.7862 171.048 16.8815C182.894 6.82552 196.601 1.22245 212.17 0.0722656ZM146.231 78.1306C193.076 78.1065 239.92 78.1306 286.765 78.2027C310.058 79.0863 328.599 88.8256 342.387 107.42C349.8 117.97 353.985 129.705 354.94 142.626C355.106 167.345 355.178 192.067 355.156 216.789C355.178 241.56 355.106 266.328 354.94 291.096C352.91 312.79 343.171 330.032 325.722 342.822C315.277 350.072 303.685 354.207 290.949 355.23C266.134 355.398 241.317 355.47 216.498 355.447C191.632 355.468 166.766 355.396 141.903 355.23C120.327 353.117 103.181 343.377 90.465 326.013C83.1842 315.523 79.0481 303.884 78.0565 291.096C77.8181 242.57 77.7699 194.041 77.9122 145.512C79.0121 123.712 88.0299 106.037 104.966 92.487C117.163 83.2987 130.918 78.5132 146.231 78.1306Z" fill="#FEFFFE"/>
<path opacity="0.998" fill-rule="evenodd" clip-rule="evenodd" d="M214.047 90.9716C222.362 90.4485 229.576 92.9735 235.69 98.5466C268.706 131.564 301.725 164.582 334.741 197.598C342.159 206.069 344.131 215.689 340.657 226.455C339.364 229.91 337.489 232.987 335.03 235.69C301.772 268.947 268.514 302.205 235.257 335.463C226.676 342.671 217.058 344.451 206.4 340.802C203.124 339.493 200.19 337.665 197.598 335.319C164.388 302.109 131.179 268.9 97.9693 235.69C91.3702 228.05 89.2539 219.296 91.6208 209.43C92.869 204.919 95.0813 200.976 98.2579 197.598C131.275 164.582 164.293 131.564 197.31 98.5466C202.051 94.1803 207.63 91.6553 214.047 90.9716Z" fill="#FEFFFE"/>
</g>
<defs>
<clipPath id="clip0_1597_3082">
<rect width="433" height="433" fill="white"/>
</clipPath>
</defs>
</svg>