<svg width="256" height="256" viewBox="0 0 256 256" fill="none" xmlns="http://www.w3.org/2000/svg">
<g clip-path="url(#clip0_667_1255)">
<path fill-rule="evenodd" clip-rule="evenodd" d="M127.674 256C165.699 256 199.862 239.503 223.361 213.293C212.429 203.817 195.956 203.242 184.319 212.608L182.096 214.397C160.789 231.546 129.741 229.014 111.511 208.64C101.568 197.528 84.5388 196.393 73.2024 206.087L47.5702 228.006C69.524 245.525 97.3727 256 127.674 256ZM169.281 194.019C189.576 177.684 218.101 178.27 237.62 194.046C249.288 174.764 256 152.164 256 128C256 101.15 247.712 76.2308 233.549 55.6494C224.418 53.7098 214.521 55.9752 207.008 62.6156L204.87 64.5056C184.379 82.6175 153.248 81.5169 134.093 62.0037C123.647 51.361 106.584 51.0116 95.7078 61.2175L65.8793 89.2086L49.4701 71.8115L79.2986 43.82C99.6717 24.7018 131.636 25.3564 151.205 45.2928C161.43 55.7096 178.049 56.2971 188.987 46.6283L191.126 44.7384C197.766 38.8692 205.448 34.9126 213.492 32.8316C190.756 12.4213 160.669 0 127.674 0C62.5305 0 8.72429 48.4167 0.450659 111.142C20.2373 101.671 44.6442 105.315 60.7771 121.794C70.9622 132.197 87.3618 133.295 98.8491 124.344L115.527 111.347C136.487 95.014 166.117 95.8045 186.171 113.232L218.641 141.45L202.91 159.46L170.441 131.243C159.037 121.332 142.189 120.882 130.27 130.17L113.593 143.167C92.4865 159.614 62.3564 157.596 43.6439 138.483C32.7628 127.368 14.9664 126.98 3.60906 137.61L0 140.988C2.70092 167.722 13.6496 192.029 30.2694 211.338L57.6159 187.953C78.8518 169.793 110.751 171.918 129.377 192.734C139.11 203.611 155.683 204.962 167.057 195.808L169.281 194.019Z" fill="#9D1F19"/>
</g>
<defs>
<clipPath id="clip0_667_1255">
<rect width="256" height="256" fill="white"/>
</clipPath>
</defs>
</svg>
