<svg xmlns="http://www.w3.org/2000/svg" data-name="CIRCLE OUTLINE BLACK" viewBox="0 0 512 512"><circle cx="256" cy="256" r="256" fill="#4ca3ff"/><path fill="#fff" fill-rule="evenodd" d="m333.202 228.733-.007.014a98.358 98.358 0 0 1-.601 123.323l-1.186 1.458-.314-1.852q-.403-2.364-.947-4.77c-6.895-30.29-29.355-56.262-66.322-77.292-24.963-14.162-39.252-31.216-43.003-50.59-2.423-12.53-.622-25.114 2.86-35.893 3.479-10.776 8.656-19.804 13.054-25.24l.003-.003 14.38-17.584a6.308 6.308 0 0 1 9.763 0Zm22.745-17.569.002-.006-96.386-117.856a4.604 4.604 0 0 0-7.126 0L156.05 211.159l.003.006-.314.39a127.728 127.728 0 0 0-28.351 80.428c0 70.914 57.58 128.403 128.612 128.403 71.033 0 128.612-57.49 128.612-128.403a127.73 127.73 0 0 0-28.35-80.428Zm-176.834 17.189.003-.005 8.622-10.542.26 1.946q.31 2.313.754 4.648c5.578 29.268 25.505 53.671 58.821 72.572 28.96 16.483 45.821 35.435 50.68 56.223a72.483 72.483 0 0 1 1.51 24.672l-.054.462-.418.204a98.52 98.52 0 0 1-120.178-150.18Z"/></svg>