<svg version="1.1" id="Layer_1" xmlns="http://www.w3.org/2000/svg" xmlns:xlink="http://www.w3.org/1999/xlink" x="0px" y="0px"
	 width="100%" viewBox="0 0 433 433" enable-background="new 0 0 433 433" xml:space="preserve">
<path fill="#00ECFA" opacity="1.000000" stroke="none" 
	d="
M251.000000,434.000000 
	C228.979111,434.000000 206.958206,434.000000 184.793335,433.673157 
	C183.662216,432.897736 182.716324,432.235474 181.681183,432.035736 
	C175.496368,430.842102 169.172867,430.185333 163.122162,428.524231 
	C155.430603,426.412659 147.794174,423.903961 140.426788,420.858185 
	C131.538513,417.183594 122.905823,412.871216 114.263237,408.629639 
	C109.402122,406.243896 104.744080,403.444397 99.891190,400.716125 
	C99.473183,400.450989 99.210670,400.524445 98.536377,400.892212 
	C84.381859,400.910217 70.691246,400.857361 56.892712,400.644226 
	C56.616219,400.284180 56.415688,400.124573 56.101952,399.542419 
	C56.020710,390.132568 56.020710,381.185425 56.020710,371.812347 
	C58.846447,371.812347 61.202522,371.812347 63.803715,371.812347 
	C59.671833,367.142639 56.042889,362.683746 51.988831,358.652374 
	C50.558903,357.230469 48.103645,356.156281 46.092224,356.115265 
	C34.506168,355.878998 22.912827,356.000092 11.314861,356.000092 
	C11.314861,346.398773 11.314861,337.341217 11.314861,328.051575 
	C17.534309,328.051575 23.475288,328.051575 30.041286,328.051575 
	C27.788212,324.188873 25.385221,320.946930 23.885246,317.330444 
	C19.645426,307.108154 16.191196,296.545013 11.647389,286.467896 
	C6.776681,275.665771 5.580028,264.076141 2.929851,252.788345 
	C2.763596,252.080215 1.664898,251.591034 1.000003,251.000000 
	C1.000000,228.979111 1.000000,206.958206 1.316201,184.812775 
	C2.065880,184.204208 2.759953,183.783279 2.894603,183.226959 
	C6.003283,170.382614 8.327982,157.292847 12.333403,144.738419 
	C15.689075,134.220535 20.994236,124.324623 25.545038,113.904068 
	C22.918327,113.904068 20.146383,113.904068 17.254662,113.904068 
	C17.254662,104.147324 17.254662,94.749077 17.254662,85.003006 
	C25.798933,85.003006 34.095135,85.103439 42.384342,84.907715 
	C43.826836,84.873657 45.562721,83.907059 46.616222,82.834175 
	C56.545696,72.721962 66.076698,62.202988 76.273796,52.373089 
	C88.417694,40.666492 102.812233,31.873322 117.630989,24.116974 
	C127.392967,19.007420 138.350342,16.237585 148.446213,11.695014 
	C159.406845,6.763351 171.130402,5.410040 182.631775,2.907304 
	C183.199310,2.783807 183.548920,1.658710 184.000000,1.000001 
	C206.020889,1.000000 228.041794,1.000000 250.187546,1.300406 
	C251.216019,3.929812 252.648209,6.202267 252.904755,8.600487 
	C253.336975,12.640751 253.023224,16.760815 253.023224,21.001175 
	C271.171722,21.001175 288.644287,20.895273 306.113312,21.099138 
	C309.245026,21.135685 312.552399,22.016077 315.440643,23.279499 
	C319.720581,25.151686 323.771759,27.592876 327.785889,30.014658 
	C332.527863,32.875534 337.126740,35.973621 341.787628,38.968884 
	C341.640045,39.347919 341.492462,39.726952 341.344910,40.105988 
	C327.317200,40.105988 313.289490,40.105988 299.307129,40.105988 
	C299.307129,49.311974 299.307129,58.038818 299.307129,66.999901 
	C320.238861,66.999901 340.874176,67.381409 361.484100,66.823563 
	C370.496124,66.579643 377.087402,68.181602 382.970428,76.063911 
	C393.835175,90.621048 405.217224,104.746651 412.213348,121.687004 
	C417.742096,135.074173 423.109680,148.547729 427.905670,162.208710 
	C430.075134,168.388290 430.627136,175.128525 432.064178,181.580734 
	C432.265808,182.485962 433.333282,183.198349 434.000000,184.000000 
	C434.000000,206.020889 434.000000,228.041794 433.673157,250.206680 
	C432.897919,251.341843 432.250854,252.291382 432.033173,253.330856 
	C430.543945,260.442566 429.837189,267.802856 427.565857,274.647552 
	C423.421906,287.135254 418.486725,299.369019 413.546661,311.573151 
	C412.915985,313.131104 410.321564,314.764893 408.566040,314.846863 
	C400.761993,315.211212 392.932159,315.023407 384.829773,315.339661 
	C384.365234,321.055786 384.022400,326.468597 384.062744,331.878601 
	C384.085388,334.909424 384.742676,337.935486 385.555420,340.978668 
	C389.208038,340.993622 392.419189,340.993622 397.070831,340.993622 
	C389.955566,349.754211 384.555267,357.712463 377.848572,364.350861 
	C368.036255,374.063293 357.701965,383.362305 346.811188,391.836517 
	C337.477478,399.099060 327.483276,405.797943 316.985748,411.200500 
	C306.188507,416.757294 294.473114,420.561218 283.066925,424.888184 
	C278.565369,426.595856 273.865173,427.871735 269.162994,428.935486 
	C263.314575,430.258545 257.366302,431.137665 251.481247,432.309509 
	C251.219025,432.361725 251.155884,433.413696 251.000000,434.000000 
M199.588745,169.003860 
	C198.576294,166.665619 197.814972,164.174576 196.503067,162.018539 
	C192.946014,156.172821 188.332336,151.424133 182.858826,147.106339 
	C173.013062,139.339462 161.538803,136.269196 149.754684,135.233215 
	C133.832336,133.833450 118.073074,135.347366 103.630325,143.652542 
	C95.107185,148.553711 87.916298,154.478470 82.899345,163.133102 
	C77.938416,171.691101 77.602051,180.843964 77.995995,190.254288 
	C78.567848,203.914124 86.746559,212.932312 97.227760,219.833527 
	C106.824585,226.152435 117.878487,229.356827 129.172150,231.662338 
	C136.116669,233.079987 142.837173,236.115891 149.807968,236.732391 
	C156.320587,237.308395 161.815094,239.814774 167.046219,242.845657 
	C170.222534,244.685959 172.253876,248.502365 174.799591,251.431030 
	C174.087738,251.653427 173.375900,251.875824 172.664047,252.098206 
	C172.106064,253.776016 171.186386,255.426025 171.054962,257.136597 
	C170.577301,263.353821 168.062042,268.367188 162.950653,271.976105 
	C153.145599,278.899017 141.910873,278.625061 130.797974,277.678619 
	C126.447426,277.308136 121.763901,275.734161 118.112518,273.356262 
	C111.017914,268.736053 106.705528,261.822113 105.632072,253.276672 
	C94.685532,253.276672 83.924301,253.276672 72.711777,253.276672 
	C73.176422,256.339447 73.452065,259.087219 74.024879,261.771576 
	C76.559143,273.647919 81.498093,283.925842 91.193436,292.025513 
	C98.842598,298.415741 107.533585,301.739929 116.831238,303.902130 
	C123.305153,305.407654 129.970001,306.650757 136.587158,306.868469 
	C151.539627,307.360413 165.955139,304.787018 179.531952,297.948059 
	C188.395599,293.483185 194.963867,287.065887 199.942413,278.531250 
	C204.718658,270.343475 203.978760,261.248474 205.326553,252.415939 
	C206.497421,252.070007 208.124527,252.082886 208.808441,251.286133 
	C210.307358,249.539948 206.090347,239.965744 203.755356,238.964783 
	C202.428894,238.396133 201.028732,237.615067 200.119217,236.541946 
	C198.475571,234.602600 197.487457,232.040619 195.669739,230.328949 
	C191.008255,225.939423 186.525848,221.032715 181.073013,217.894531 
	C174.466232,214.092209 167.114761,211.282379 159.766113,209.137299 
	C146.984085,205.406219 133.432632,204.360779 121.444054,197.838547 
	C116.140709,194.953323 111.467880,187.491745 112.062302,182.319336 
	C112.939148,174.689346 118.956543,166.208023 125.119522,165.123978 
	C131.692841,163.967758 138.547577,162.512848 145.049667,163.240768 
	C159.096664,164.813385 166.398926,168.162720 170.591736,183.717896 
	C181.369370,183.717896 192.125824,183.717896 203.478912,183.717896 
	C202.242386,178.787506 201.105621,174.254974 199.588745,169.003860 
M336.416748,208.000534 
	C337.855530,207.924042 339.294342,207.847549 341.155548,207.748596 
	C341.155548,195.368790 341.155548,183.298645 341.155548,170.798767 
	C345.001221,170.798767 348.406647,170.798767 351.669800,170.798767 
	C351.669800,158.621826 351.669800,146.891479 351.669800,135.347260 
	C344.262817,135.347260 337.197845,135.347260 330.008423,135.347260 
	C330.008423,144.029327 330.008423,152.350510 330.008423,160.671677 
	C330.008423,171.760788 330.008362,171.757874 319.233002,172.038757 
	C318.949219,172.046158 318.671631,172.290497 317.970581,172.625031 
	C317.970581,184.491379 317.970581,196.565247 317.970581,209.064026 
	C313.488464,209.064026 309.407562,209.064026 304.923340,209.064026 
	C304.923340,221.893326 304.923340,234.296326 304.923340,247.121368 
	C300.427612,247.121368 296.347137,247.121368 291.847168,247.121368 
	C291.847168,255.284409 291.847168,263.023438 291.847168,270.668335 
	C287.326904,270.668335 283.263763,270.668335 278.762756,270.668335 
	C278.762756,262.604034 278.762756,254.861252 278.762756,246.992218 
	C275.658356,246.992218 272.989563,246.835464 270.347137,247.032394 
	C267.135071,247.271744 265.868134,246.134537 265.966064,242.789017 
	C266.165771,235.965088 266.025726,229.131241 266.025696,222.301468 
	C266.025665,217.887924 266.025696,213.474380 266.025696,208.821991 
	C261.638519,208.821991 258.020081,208.821991 253.972992,208.821991 
	C253.972992,196.486649 253.972992,184.415924 253.972992,171.898605 
	C249.806076,171.898605 246.061630,171.898605 241.883820,171.898605 
	C241.883820,159.385223 241.883820,147.319244 241.883820,135.295258 
	C234.020096,135.295258 226.622192,135.295258 219.310394,135.295258 
	C219.310394,147.338531 219.310394,159.069916 219.310394,171.242554 
	C223.368622,171.242554 227.105927,171.242554 231.270508,171.242554 
	C231.270508,183.756546 231.270508,195.825775 231.270508,208.147049 
	C235.335541,208.147049 238.952438,208.147049 243.007629,208.147049 
	C243.007629,220.474823 243.007629,232.543442 243.007629,245.068451 
	C247.508499,245.068451 251.585754,245.068451 256.092712,245.068451 
	C256.092712,257.593414 256.092712,269.660767 256.092712,282.154175 
	C260.285065,282.154175 264.031586,282.154175 268.192444,282.154175 
	C268.192444,290.658325 268.192444,298.730713 268.192444,306.662720 
	C280.037933,306.662720 291.434265,306.662720 303.278992,306.662720 
	C303.278992,298.258484 303.278992,290.186737 303.278992,281.856323 
	C307.684631,281.856323 311.633484,281.856323 316.018250,281.856323 
	C316.018250,269.515137 316.018250,257.446381 316.018250,244.940247 
	C320.189697,244.940247 323.937012,244.940247 328.103394,244.940247 
	C328.103394,232.431610 328.103394,220.362732 328.103394,208.000534 
	C330.851318,208.000534 333.154205,208.000534 336.416748,208.000534 
z"/>
<path fill="#000000" opacity="1.000000" stroke="none" 
	d="
M434.000000,183.531342 
	C433.333282,183.198349 432.265808,182.485962 432.064178,181.580734 
	C430.627136,175.128525 430.075134,168.388290 427.905670,162.208710 
	C423.109680,148.547729 417.742096,135.074173 412.213348,121.687004 
	C405.217224,104.746651 393.835175,90.621048 382.970428,76.063911 
	C377.087402,68.181602 370.496124,66.579643 361.484100,66.823563 
	C340.874176,67.381409 320.238861,66.999901 299.307129,66.999901 
	C299.307129,58.038818 299.307129,49.311974 299.307129,40.105988 
	C313.289490,40.105988 327.317200,40.105988 341.344910,40.105988 
	C341.492462,39.726952 341.640045,39.347919 341.787628,38.968884 
	C337.126740,35.973621 332.527863,32.875534 327.785889,30.014658 
	C323.771759,27.592876 319.720581,25.151686 315.440643,23.279499 
	C312.552399,22.016077 309.245026,21.135685 306.113312,21.099138 
	C288.644287,20.895273 271.171722,21.001175 253.023224,21.001175 
	C253.023224,16.760815 253.336975,12.640751 252.904755,8.600487 
	C252.648209,6.202267 251.216019,3.929812 250.656204,1.300406 
	C311.927002,1.000000 372.854034,1.000000 434.000000,1.000000 
	C434.000000,61.687386 434.000000,122.375031 434.000000,183.531342 
z"/>
<path fill="#000000" opacity="1.000000" stroke="none" 
	d="
M385.111664,315.035217 
	C392.932159,315.023407 400.761993,315.211212 408.566040,314.846863 
	C410.321564,314.764893 412.915985,313.131104 413.546661,311.573151 
	C418.486725,299.369019 423.421906,287.135254 427.565857,274.647552 
	C429.837189,267.802856 430.543945,260.442566 432.033173,253.330856 
	C432.250854,252.291382 432.897919,251.341843 433.673157,250.675339 
	C434.000000,311.927002 434.000000,372.854034 434.000000,434.000000 
	C373.312622,434.000000 312.624969,434.000000 251.468658,434.000000 
	C251.155884,433.413696 251.219025,432.361725 251.481247,432.309509 
	C257.366302,431.137665 263.314575,430.258545 269.162994,428.935486 
	C273.865173,427.871735 278.565369,426.595856 283.066925,424.888184 
	C294.473114,420.561218 306.188507,416.757294 316.985748,411.200500 
	C327.483276,405.797943 337.477478,399.099060 346.811188,391.836517 
	C357.701965,383.362305 368.036255,374.063293 377.848572,364.350861 
	C384.555267,357.712463 389.955566,349.754211 397.070831,340.993622 
	C392.419189,340.993622 389.208038,340.993622 385.504150,340.514954 
	C385.044800,331.702576 385.078217,323.368896 385.111664,315.035217 
z"/>
<path fill="#000000" opacity="1.000000" stroke="none" 
	d="
M183.531342,1.000001 
	C183.548920,1.658710 183.199310,2.783807 182.631775,2.907304 
	C171.130402,5.410040 159.406845,6.763351 148.446213,11.695014 
	C138.350342,16.237585 127.392967,19.007420 117.630989,24.116974 
	C102.812233,31.873322 88.417694,40.666492 76.273796,52.373089 
	C66.076698,62.202988 56.545696,72.721962 46.616222,82.834175 
	C45.562721,83.907059 43.826836,84.873657 42.384342,84.907715 
	C34.095135,85.103439 25.798933,85.003006 17.254662,85.003006 
	C17.254662,94.749077 17.254662,104.147324 17.254662,113.904068 
	C20.146383,113.904068 22.918327,113.904068 25.545038,113.904068 
	C20.994236,124.324623 15.689075,134.220535 12.333403,144.738419 
	C8.327982,157.292847 6.003283,170.382614 2.894603,183.226959 
	C2.759953,183.783279 2.065880,184.204208 1.316201,184.344116 
	C1.000000,123.072975 1.000000,62.145950 1.000000,1.000000 
	C61.687386,1.000000 122.375031,1.000000 183.531342,1.000001 
z"/>
<path fill="#000000" opacity="1.000000" stroke="none" 
	d="
M57.000637,400.804535 
	C70.691246,400.857361 84.381859,400.910217 98.784309,400.962036 
	C99.662285,400.917725 99.828423,400.874512 99.994560,400.831268 
	C104.744080,403.444397 109.402122,406.243896 114.263237,408.629639 
	C122.905823,412.871216 131.538513,417.183594 140.426788,420.858185 
	C147.794174,423.903961 155.430603,426.412659 163.122162,428.524231 
	C169.172867,430.185333 175.496368,430.842102 181.681183,432.035736 
	C182.716324,432.235474 183.662216,432.897736 184.324677,433.673157 
	C123.072990,434.000000 62.145973,434.000000 1.000000,434.000000 
	C1.000000,373.312622 1.000000,312.624969 1.000003,251.468658 
	C1.664898,251.591034 2.763596,252.080215 2.929851,252.788345 
	C5.580028,264.076141 6.776681,275.665771 11.647389,286.467896 
	C16.191196,296.545013 19.645426,307.108154 23.885246,317.330444 
	C25.385221,320.946930 27.788212,324.188873 30.041286,328.051575 
	C23.475288,328.051575 17.534309,328.051575 11.314861,328.051575 
	C11.314861,337.341217 11.314861,346.398773 11.314861,356.000092 
	C22.912827,356.000092 34.506168,355.878998 46.092224,356.115265 
	C48.103645,356.156281 50.558903,357.230469 51.988831,358.652374 
	C56.042889,362.683746 59.671833,367.142639 63.803715,371.812347 
	C61.202522,371.812347 58.846447,371.812347 56.020710,371.812347 
	C56.020710,381.185425 56.020710,390.132568 56.066212,399.801727 
	C56.408020,400.617340 56.704327,400.710938 57.000637,400.804535 
z"/>
<path fill="#000000" opacity="1.000000" stroke="none" 
	d="
M199.778809,169.363159 
	C201.105621,174.254974 202.242386,178.787506 203.478912,183.717896 
	C192.125824,183.717896 181.369370,183.717896 170.591736,183.717896 
	C166.398926,168.162720 159.096664,164.813385 145.049667,163.240768 
	C138.547577,162.512848 131.692841,163.967758 125.119522,165.123978 
	C118.956543,166.208023 112.939148,174.689346 112.062302,182.319336 
	C111.467880,187.491745 116.140709,194.953323 121.444054,197.838547 
	C133.432632,204.360779 146.984085,205.406219 159.766113,209.137299 
	C167.114761,211.282379 174.466232,214.092209 181.073013,217.894531 
	C186.525848,221.032715 191.008255,225.939423 195.669739,230.328949 
	C197.487457,232.040619 198.475571,234.602600 200.119217,236.541946 
	C201.028732,237.615067 202.428894,238.396133 203.755356,238.964783 
	C206.090347,239.965744 210.307358,249.539948 208.808441,251.286133 
	C208.124527,252.082886 206.497421,252.070007 205.326553,252.415939 
	C203.978760,261.248474 204.718658,270.343475 199.942413,278.531250 
	C194.963867,287.065887 188.395599,293.483185 179.531952,297.948059 
	C165.955139,304.787018 151.539627,307.360413 136.587158,306.868469 
	C129.970001,306.650757 123.305153,305.407654 116.831238,303.902130 
	C107.533585,301.739929 98.842598,298.415741 91.193436,292.025513 
	C81.498093,283.925842 76.559143,273.647919 74.024879,261.771576 
	C73.452065,259.087219 73.176422,256.339447 72.711777,253.276672 
	C83.924301,253.276672 94.685532,253.276672 105.632072,253.276672 
	C106.705528,261.822113 111.017914,268.736053 118.112518,273.356262 
	C121.763901,275.734161 126.447426,277.308136 130.797974,277.678619 
	C141.910873,278.625061 153.145599,278.899017 162.950653,271.976105 
	C168.062042,268.367188 170.577301,263.353821 171.054962,257.136597 
	C171.186386,255.426025 172.106064,253.776016 172.664047,252.098206 
	C173.375900,251.875824 174.087738,251.653427 174.799591,251.431030 
	C172.253876,248.502365 170.222534,244.685959 167.046219,242.845657 
	C161.815094,239.814774 156.320587,237.308395 149.807968,236.732391 
	C142.837173,236.115891 136.116669,233.079987 129.172150,231.662338 
	C117.878487,229.356827 106.824585,226.152435 97.227760,219.833527 
	C86.746559,212.932312 78.567848,203.914124 77.995995,190.254288 
	C77.602051,180.843964 77.938416,171.691101 82.899345,163.133102 
	C87.916298,154.478470 95.107185,148.553711 103.630325,143.652542 
	C118.073074,135.347366 133.832336,133.833450 149.754684,135.233215 
	C161.538803,136.269196 173.013062,139.339462 182.858826,147.106339 
	C188.332336,151.424133 192.946014,156.172821 196.503067,162.018539 
	C197.814972,164.174576 198.576294,166.665619 199.778809,169.363159 
z"/>
<path fill="#000000" opacity="1.000000" stroke="none" 
	d="
M335.936951,208.000534 
	C333.154205,208.000534 330.851318,208.000534 328.103394,208.000534 
	C328.103394,220.362732 328.103394,232.431610 328.103394,244.940247 
	C323.937012,244.940247 320.189697,244.940247 316.018250,244.940247 
	C316.018250,257.446381 316.018250,269.515137 316.018250,281.856323 
	C311.633484,281.856323 307.684631,281.856323 303.278992,281.856323 
	C303.278992,290.186737 303.278992,298.258484 303.278992,306.662720 
	C291.434265,306.662720 280.037933,306.662720 268.192444,306.662720 
	C268.192444,298.730713 268.192444,290.658325 268.192444,282.154175 
	C264.031586,282.154175 260.285065,282.154175 256.092712,282.154175 
	C256.092712,269.660767 256.092712,257.593414 256.092712,245.068451 
	C251.585754,245.068451 247.508499,245.068451 243.007629,245.068451 
	C243.007629,232.543442 243.007629,220.474823 243.007629,208.147049 
	C238.952438,208.147049 235.335541,208.147049 231.270508,208.147049 
	C231.270508,195.825775 231.270508,183.756546 231.270508,171.242554 
	C227.105927,171.242554 223.368622,171.242554 219.310394,171.242554 
	C219.310394,159.069916 219.310394,147.338531 219.310394,135.295258 
	C226.622192,135.295258 234.020096,135.295258 241.883820,135.295258 
	C241.883820,147.319244 241.883820,159.385223 241.883820,171.898605 
	C246.061630,171.898605 249.806076,171.898605 253.972992,171.898605 
	C253.972992,184.415924 253.972992,196.486649 253.972992,208.821991 
	C258.020081,208.821991 261.638519,208.821991 266.025696,208.821991 
	C266.025696,213.474380 266.025665,217.887924 266.025696,222.301468 
	C266.025726,229.131241 266.165771,235.965088 265.966064,242.789017 
	C265.868134,246.134537 267.135071,247.271744 270.347137,247.032394 
	C272.989563,246.835464 275.658356,246.992218 278.762756,246.992218 
	C278.762756,254.861252 278.762756,262.604034 278.762756,270.668335 
	C283.263763,270.668335 287.326904,270.668335 291.847168,270.668335 
	C291.847168,263.023438 291.847168,255.284409 291.847168,247.121368 
	C296.347137,247.121368 300.427612,247.121368 304.923340,247.121368 
	C304.923340,234.296326 304.923340,221.893326 304.923340,209.064026 
	C309.407562,209.064026 313.488464,209.064026 317.970581,209.064026 
	C317.970581,196.565247 317.970581,184.491379 317.970581,172.625031 
	C318.671631,172.290497 318.949219,172.046158 319.233002,172.038757 
	C330.008362,171.757874 330.008423,171.760788 330.008423,160.671677 
	C330.008423,152.350510 330.008423,144.029327 330.008423,135.347260 
	C337.197845,135.347260 344.262817,135.347260 351.669800,135.347260 
	C351.669800,146.891479 351.669800,158.621826 351.669800,170.798767 
	C348.406647,170.798767 345.001221,170.798767 341.155548,170.798767 
	C341.155548,183.298645 341.155548,195.368790 341.155548,207.748596 
	C339.294342,207.847549 337.855530,207.924042 335.936951,208.000534 
z"/>
<path fill="#00FFFF" opacity="1.000000" stroke="none" 
	d="
M384.829773,315.339661 
	C385.078217,323.368896 385.044800,331.702576 385.062683,340.500000 
	C384.742676,337.935486 384.085388,334.909424 384.062744,331.878601 
	C384.022400,326.468597 384.365234,321.055786 384.829773,315.339661 
z"/>
<path fill="#00EAEA" opacity="1.000000" stroke="none" 
	d="
M56.892712,400.644226 
	C56.704327,400.710938 56.408020,400.617340 56.147453,400.264465 
	C56.415688,400.124573 56.616219,400.284180 56.892712,400.644226 
z"/>
<path fill="#00EAEA" opacity="1.000000" stroke="none" 
	d="
M99.891190,400.716125 
	C99.828423,400.874512 99.662285,400.917725 99.248215,400.891174 
	C99.210670,400.524445 99.473183,400.450989 99.891190,400.716125 
z"/>
</svg>