<svg width="160" height="160" viewBox="0 0 160 160" fill="none" xmlns="http://www.w3.org/2000/svg">
<g clip-path="url(#clip0_1405_2555)">
<path fill-rule="evenodd" clip-rule="evenodd" d="M0 0C53.3333 0 106.667 0 160 0C160 53.3333 160 106.667 160 160C106.667 160 53.3333 160 0 160C0 106.667 0 53.3333 0 0Z" fill="#FEFEFE"/>
<path fill-rule="evenodd" clip-rule="evenodd" d="M109 50.0625C97.995 49.896 86.995 50.0627 76 50.5625C77.027 51.0758 78.027 51.5755 79 52.0625C83.366 54.2615 86.532 57.5945 88.5 62.0625C88.833 79.3955 89.167 96.7295 89.5 114.062C90.667 119.229 93.833 122.395 99 123.562C91.193 128.404 83.693 127.904 76.5 122.062C74.258 119.692 72.758 117.026 72 114.062C72 92.7295 72 71.3955 72 50.0625C60.333 50.0625 48.6667 50.0625 37 50.0625C37.656 41.2412 42.3226 36.0745 51 34.5625C74.998 34.0625 98.998 33.8959 123 34.0625C122.232 42.8295 117.565 48.1629 109 50.0625Z" fill="#08090B"/>
</g>
<defs>
<clipPath id="clip0_1405_2555">
<rect width="160" height="160" fill="white"/>
</clipPath>
</defs>
</svg>
