<svg width="850" height="850" viewBox="0 0 850 850" fill="none" xmlns="http://www.w3.org/2000/svg">
    <circle cx="425" cy="425" r="410" fill="white" />
<g clip-path="url(#clip0_983_2124)">
<path d="M850 0H0V850H850V0Z" fill="#7B2BF9"/>
<path d="M741 357.82C728.894 300.962 701.672 248.424 662.203 205.745C622.735 163.066 572.482 131.826 516.743 115.319C461.004 98.8124 401.844 97.6503 345.499 111.955C289.155 126.261 237.714 155.503 196.6 196.6C181.933 211.267 168.693 227.296 157.06 244.47C153.643 249.038 150.564 253.851 147.85 258.87C125.232 296.727 110.603 338.814 104.863 382.539C99.1231 426.263 102.394 470.7 114.475 513.112C126.557 555.525 147.192 595.015 175.11 629.153C203.028 663.29 237.639 691.351 276.811 711.608C315.982 731.865 358.886 743.889 402.88 746.94C446.874 749.991 491.027 744.004 532.62 729.348C574.213 714.691 612.366 691.676 644.729 661.72C677.092 631.763 702.98 595.499 720.8 555.16C722.735 551.158 724.438 547.048 725.9 542.85C740.563 505.292 748.059 465.319 748 425C748.006 402.712 745.727 380.483 741.2 358.66C741.14 358.38 741.09 358.1 741 357.82ZM629 210.13C630.86 211.89 632.7 213.69 634.52 215.51C662.644 243.544 684.835 276.955 699.77 313.75C700.106 314.579 700.214 315.483 700.082 316.368C699.95 317.252 699.582 318.086 699.019 318.78C698.455 319.475 697.715 320.005 696.876 320.317C696.037 320.628 695.13 320.708 694.25 320.55C684.777 318.963 675.172 318.293 665.57 318.55C662.02 318.623 658.561 317.43 655.812 315.183C653.062 312.936 651.204 309.783 650.57 306.29C644.81 273.99 636.48 244.16 625.78 218.12C625.17 216.64 624.56 215.17 623.93 213.72C623.635 213.051 623.581 212.301 623.775 211.596C623.97 210.892 624.402 210.276 624.999 209.854C625.595 209.432 626.319 209.228 627.049 209.279C627.778 209.329 628.467 209.63 629 210.13ZM659.72 399.62C659.702 398.884 659.921 398.161 660.344 397.559C660.767 396.957 661.373 396.506 662.071 396.273C662.77 396.04 663.524 396.038 664.224 396.266C664.924 396.494 665.533 396.94 665.96 397.54C668.38 400.94 670.713 404.353 672.96 407.78C675.933 412.34 678.7 416.873 681.26 421.38C682.036 422.752 682.358 424.336 682.178 425.902C681.998 427.469 681.327 428.938 680.26 430.1C676.8 433.9 673.037 437.833 668.97 441.9C667.48 443.39 665.97 444.9 664.42 446.37C663.989 446.755 663.455 447.008 662.883 447.098C662.312 447.187 661.726 447.109 661.198 446.873C660.67 446.638 660.221 446.254 659.905 445.769C659.59 445.284 659.421 444.718 659.42 444.14C659.613 439.28 659.753 434.4 659.84 429.5C660 419.46 659.95 409.5 659.69 399.62H659.72ZM253 183.7C303.146 147.781 363.317 128.54 425 128.7C441.339 128.697 457.65 130.035 473.77 132.7C474.723 132.858 475.61 133.289 476.324 133.941C477.037 134.593 477.546 135.438 477.789 136.373C478.033 137.308 478 138.294 477.695 139.211C477.39 140.128 476.825 140.937 476.07 141.54C460.6 153.67 446.22 171.62 433.5 194.9C431.997 197.653 429.603 199.816 426.711 201.033C423.819 202.25 420.6 202.45 417.58 201.6C375.43 189.73 333.95 184.15 295.63 185.49C282.181 185.922 268.781 187.343 255.54 189.74C254.793 189.861 254.028 189.728 253.366 189.362C252.704 188.996 252.185 188.417 251.891 187.72C251.598 187.023 251.548 186.247 251.749 185.518C251.95 184.788 252.391 184.148 253 183.7ZM210.7 626.24C204.48 614.49 212.53 587.24 253.42 545.9C254.429 544.882 255.211 543.664 255.717 542.323C256.222 540.983 256.439 539.551 256.353 538.121C256.267 536.691 255.881 535.295 255.218 534.025C254.556 532.755 253.633 531.639 252.51 530.75C250.87 529.46 249.25 528.16 247.63 526.86C245.668 525.269 243.186 524.461 240.664 524.592C238.141 524.724 235.757 525.784 233.97 527.57L232.37 529.18C211.93 550.18 197.63 569.58 189.61 587.05C189.083 588.168 188.27 589.126 187.253 589.828C186.235 590.53 185.05 590.95 183.818 591.046C182.586 591.141 181.35 590.909 180.237 590.372C179.124 589.835 178.173 589.013 177.48 587.99C145.518 539.648 128.552 482.941 128.71 424.99C128.701 404.212 130.859 383.49 135.15 363.16C135.277 362.497 135.624 361.897 136.134 361.456C136.645 361.015 137.289 360.759 137.962 360.729C138.636 360.699 139.3 360.897 139.848 361.291C140.395 361.684 140.794 362.251 140.98 362.9C147.12 383.2 157.13 404.19 170.98 425.41C189.59 453.99 214.13 481.46 243.21 506.66C253.14 515.26 263.63 523.58 274.56 531.66C297.337 548.345 321.365 563.252 346.43 576.25C357.79 582.15 368.85 587.78 380.18 592.88C383.297 594.292 386.665 595.067 390.086 595.16C393.506 595.252 396.911 594.661 400.1 593.42C405.433 591.32 410.813 589.143 416.24 586.89C419.086 585.692 421.408 583.514 422.786 580.751C424.164 577.988 424.506 574.823 423.75 571.83L423.32 570.07C414.4 532.53 409.44 490.26 408.85 446C408.85 445.47 408.85 444.93 408.85 444.4C408.85 441.98 408.85 439.55 408.79 437.13C408.79 436.36 408.79 435.06 408.79 434.28C408.79 433.98 408.79 433.67 408.79 433.37C408.79 430.6 408.79 427.84 408.88 425.06C409.01 417.46 409.29 409.92 409.68 402.45C412.44 349.04 421.49 298.84 435.91 256.62C436.549 254.745 436.417 252.692 435.543 250.915C434.669 249.137 433.125 247.779 431.25 247.14C427.437 245.806 423.63 244.56 419.83 243.4C417.981 242.821 415.979 242.988 414.251 243.864C412.523 244.74 411.206 246.256 410.58 248.09C394.96 293.94 385.33 348.34 382.75 405.9C382.595 409.495 381.545 412.995 379.696 416.082C377.847 419.169 375.257 421.746 372.16 423.58C338.07 443.79 306.76 465.21 279.71 486.8C276.973 488.973 273.562 490.123 270.068 490.05C266.573 489.977 263.214 488.686 260.57 486.4C233.46 462.9 210.64 437.4 193.39 410.88C159.5 358.82 151.39 309.79 170.72 272.88L170.87 272.62C173.323 268.54 175.88 264.516 178.54 260.55C200.69 231.23 241.92 214.24 296.54 212.32C300 212.2 303.487 212.14 307 212.14C340.54 212.14 376.53 217.67 413.14 228.23L415.55 228.94L417.4 229.48C425.86 232.013 434.34 234.806 442.84 237.86L443.44 238.08C445.647 238.88 447.857 239.696 450.07 240.53L452.15 241.32L454.15 242.09C472.369 249.148 490.186 257.203 507.52 266.22C540.521 283.24 571.568 303.808 600.11 327.56C548.21 339.45 487.88 362.39 427.23 393.32C425.852 394.019 424.681 395.068 423.836 396.361C422.99 397.654 422.498 399.147 422.41 400.69C422.2 404.45 421.92 412.01 421.72 418.02C421.691 418.88 421.888 419.732 422.291 420.492C422.695 421.252 423.291 421.892 424.021 422.349C424.75 422.806 425.586 423.063 426.446 423.095C427.306 423.126 428.159 422.931 428.92 422.53C488.92 391 548.92 367.43 600.38 354.97C605.018 353.842 609.071 351.03 611.751 347.081C614.431 343.131 615.546 338.326 614.88 333.6C613.927 326.746 612.863 320.006 611.69 313.38C610.248 305.04 605.717 297.549 599 292.4C574.104 273.502 547.634 256.775 519.88 242.4C501.027 232.591 481.628 223.866 461.78 216.27C460.8 215.895 459.912 215.314 459.176 214.565C458.44 213.817 457.873 212.919 457.515 211.933C457.156 210.947 457.014 209.895 457.098 208.849C457.182 207.802 457.489 206.786 458 205.87C478.07 169.95 502 149.87 525.22 149.87H525.94C553.39 150.36 580.75 178.93 601.02 228.27C611.27 253.27 619.22 282.04 624.65 313.34C624.626 313.31 624.599 313.284 624.57 313.26C626.89 326.62 628.75 340.42 630.14 354.58L629.77 354.8L630.27 355.3C632.605 379.793 633.544 404.4 633.08 429C632.79 445 631.94 460.72 630.57 476.13C593.85 505.8 548.46 535.33 498.57 561.77C482.17 570.46 465.77 578.55 449.57 586L448.82 586.34L445.09 588.05C431.643 594.13 418.35 599.746 405.21 604.9L402.99 605.75L400.23 606.82C398.03 607.666 395.84 608.496 393.66 609.31L391.85 609.99C389.2 610.99 386.56 611.93 383.93 612.87C383.61 612.99 383.28 613.12 382.93 613.23C354.85 623.23 328.1 630.78 303.72 635.48C244.76 646.86 217 638.16 210.7 626.24ZM291.89 511.24C318 489.98 348.59 468.77 382.14 448.69C382.86 491.61 387.57 532.81 395.9 570.03C383.453 564.696 371.07 558.85 358.75 552.49C335.466 540.425 313.117 526.637 291.89 511.24ZM463.22 718.83C450.545 720.454 437.779 721.269 425 721.27C368.274 721.427 312.711 705.185 265 674.5C264.298 674.035 263.761 673.361 263.464 672.573C263.168 671.785 263.127 670.923 263.349 670.111C263.571 669.299 264.043 668.578 264.698 668.049C265.354 667.521 266.159 667.213 267 667.17C267.8 667.17 268.55 667.1 269.21 667.05C282.463 666.108 295.645 664.345 308.68 661.77C339.05 655.92 372.81 645.9 408.16 632.4C409.687 631.826 411.377 631.871 412.871 632.524C414.365 633.178 415.545 634.389 416.16 635.9V635.96C429.86 669.31 446.72 694.52 465.65 710.55C466.343 711.142 466.85 711.923 467.109 712.797C467.369 713.671 467.37 714.601 467.114 715.476C466.857 716.351 466.353 717.133 465.662 717.728C464.971 718.323 464.123 718.705 463.22 718.83ZM588.47 639.72C567.32 681.32 541.27 704.67 516.02 704.2C488.58 703.71 461.21 675.14 440.95 625.8C440.334 624.291 440.334 622.602 440.949 621.094C441.564 619.585 442.745 618.378 444.24 617.73L444.89 617.45C446.222 616.871 447.712 616.769 449.11 617.16C487.01 627.8 524.36 633.35 559.36 633.35C563.16 633.35 566.933 633.286 570.68 633.16C575.06 633 579.37 632.753 583.61 632.42C584.497 632.362 585.384 632.539 586.181 632.933C586.978 633.328 587.657 633.925 588.15 634.665C588.643 635.405 588.932 636.262 588.988 637.149C589.044 638.037 588.865 638.923 588.47 639.72ZM597.59 603.94C588.351 605.261 579.048 606.079 569.72 606.39C544.703 607.084 519.685 605.072 495.1 600.39C494.411 600.264 493.779 599.925 493.294 599.42C492.808 598.916 492.493 598.272 492.394 597.578C492.294 596.885 492.415 596.179 492.739 595.558C493.063 594.937 493.574 594.434 494.2 594.12C499.827 591.28 505.453 588.366 511.08 585.38C548.764 565.539 585.013 543.084 619.56 518.18C620.098 517.791 620.739 517.571 621.402 517.548C622.065 517.525 622.721 517.7 623.284 518.05C623.847 518.401 624.293 518.912 624.565 519.517C624.837 520.123 624.922 520.796 624.81 521.45C620.696 546.93 614.536 572.038 606.39 596.53C605.75 598.457 604.589 600.169 603.036 601.477C601.483 602.785 599.598 603.637 597.59 603.94ZM641.32 627.44C639.09 629.82 636.81 632.18 634.49 634.44C630.49 638.48 626.36 642.383 622.1 646.15C621.534 646.651 620.813 646.942 620.057 646.976C619.302 647.009 618.558 646.781 617.95 646.332C617.342 645.882 616.907 645.237 616.718 644.505C616.528 643.773 616.596 642.998 616.91 642.31C617.343 641.39 617.773 640.46 618.2 639.52C619.967 635.606 621.683 631.606 623.35 627.52C623.546 627.043 623.851 626.619 624.24 626.28C624.629 625.942 625.091 625.698 625.59 625.57C629.79 624.496 633.883 623.32 637.87 622.04C638.57 621.792 639.334 621.789 640.036 622.031C640.738 622.273 641.338 622.745 641.738 623.371C642.138 623.996 642.314 624.739 642.238 625.478C642.162 626.217 641.839 626.908 641.32 627.44ZM700.86 533.44C699.44 537.066 697.947 540.663 696.38 544.23C696.14 544.72 695.91 545.23 695.65 545.7C685.88 564.51 669.49 579.31 647.59 589.62C646.492 590.141 645.268 590.336 644.062 590.181C642.857 590.027 641.721 589.529 640.791 588.747C639.861 587.965 639.174 586.932 638.814 585.771C638.454 584.611 638.435 583.371 638.76 582.2C646.321 554.7 651.784 526.666 655.1 498.34C655.777 492.817 658.486 487.744 662.7 484.11C671.7 476.32 680.12 468.54 687.86 460.81L687.94 460.72C688.813 459.85 689.897 459.222 691.085 458.896C692.273 458.569 693.525 458.557 694.72 458.859C695.915 459.161 697.01 459.768 697.901 460.62C698.791 461.472 699.445 462.54 699.8 463.72C707.44 489.14 707.87 512.81 700.86 533.45V533.44ZM706.79 394.64C706.288 395.553 705.557 396.319 704.669 396.864C703.78 397.409 702.765 397.713 701.724 397.746C700.683 397.779 699.65 397.541 698.729 397.054C697.808 396.567 697.029 395.849 696.47 394.97L695.32 393.18C686.169 379.205 676.037 365.898 665 353.36C664.38 352.645 663.979 351.767 663.845 350.831C663.71 349.895 663.848 348.94 664.241 348.08C664.634 347.22 665.266 346.491 666.062 345.98C666.858 345.47 667.784 345.199 668.73 345.2H668.83C695.37 345.2 709.28 351.75 713.53 359.76C717 366.45 715.94 378.16 706.79 394.65V394.64ZM721.13 433.8C721.119 434.224 720.962 434.631 720.688 434.954C720.413 435.278 720.036 435.497 719.619 435.577C719.202 435.656 718.77 435.59 718.396 435.391C718.022 435.191 717.727 434.87 717.56 434.48L716.56 432.09C716.242 431.372 716.121 430.582 716.209 429.802C716.297 429.022 716.591 428.279 717.06 427.65L718.14 426.23C719.44 424.54 721.31 424.79 721.31 426.67C721.27 429.14 721.21 431.28 721.13 433.81V433.8Z" fill="white"/>
</g>
<defs>
<clipPath id="clip0_983_2124">
<rect width="850" height="850" fill="white"/>
</clipPath>
</defs>
</svg>
