<svg xmlns="http://www.w3.org/2000/svg" version="1.1" viewBox="0 0 433 433" width="433px" height="433px" style="shape-rendering:geometricPrecision; text-rendering:geometricPrecision; image-rendering:optimizeQuality; fill-rule:evenodd; clip-rule:evenodd" xmlns:xlink="http://www.w3.org/1999/xlink">
<g><path style="opacity:0.995" fill="#000000" d="M 195.5,-0.5 C 209.167,-0.5 222.833,-0.5 236.5,-0.5C 320.465,10.7281 380.298,54.7281 416,131.5C 424.348,152.23 429.848,173.563 432.5,195.5C 432.5,209.167 432.5,222.833 432.5,236.5C 421.272,320.465 377.272,380.298 300.5,416C 279.77,424.348 258.437,429.848 236.5,432.5C 222.833,432.5 209.167,432.5 195.5,432.5C 111.535,421.272 51.702,377.272 16,300.5C 7.65175,279.77 2.15175,258.437 -0.5,236.5C -0.5,222.833 -0.5,209.167 -0.5,195.5C 10.7281,111.535 54.7281,51.702 131.5,16C 152.23,7.65175 173.563,2.15175 195.5,-0.5 Z"/></g>
<g><path style="opacity:1" fill="#606060" d="M 193.5,85.5 C 193.56,84.9569 193.893,84.6236 194.5,84.5C 195.833,172.167 195.833,259.833 194.5,347.5C 193.893,347.376 193.56,347.043 193.5,346.5C 194.833,259.5 194.833,172.5 193.5,85.5 Z"/></g>
<g><path style="opacity:1" fill="#404040" d="M 237.5,84.5 C 237.167,172.002 237.501,259.335 238.5,346.5C 238.44,347.043 238.107,347.376 237.5,347.5C 236.168,259.668 236.168,172.001 237.5,84.5 Z"/></g>
<g><path style="opacity:1" fill="#fefefe" d="M 193.5,85.5 C 194.833,172.5 194.833,259.5 193.5,346.5C 180.796,334.669 168.796,322.336 157.5,309.5C 157.833,266.495 157.5,223.495 156.5,180.5C 155.893,180.624 155.56,180.957 155.5,181.5C 144.167,193.5 132.5,205.167 120.5,216.5C 101.326,216.83 82.326,216.497 63.5,215.5C 106.969,172.031 150.302,128.698 193.5,85.5 Z"/></g>
<g><path style="opacity:1" fill="#fdfdfd" d="M 237.5,84.5 C 281.463,128.315 325.13,171.982 368.5,215.5C 349.674,216.497 330.674,216.83 311.5,216.5C 299.5,205.167 287.833,193.5 276.5,181.5C 276.44,180.957 276.107,180.624 275.5,180.5C 274.5,223.828 274.167,267.162 274.5,310.5C 262.833,322.833 250.833,334.833 238.5,346.5C 237.501,259.335 237.167,172.002 237.5,84.5 Z"/></g>
<g><path style="opacity:1" fill="#dddddd" d="M 276.5,181.5 C 275.833,224.5 275.167,267.5 274.5,310.5C 274.167,267.162 274.5,223.828 275.5,180.5C 276.107,180.624 276.44,180.957 276.5,181.5 Z"/></g>
<g><path style="opacity:1" fill="#bebebe" d="M 155.5,181.5 C 155.56,180.957 155.893,180.624 156.5,180.5C 157.5,223.495 157.833,266.495 157.5,309.5C 156.833,266.833 156.167,224.167 155.5,181.5 Z"/></g>
<g><path style="opacity:1" fill="#3f3f3f" d="M 63.5,215.5 C 82.326,216.497 101.326,216.83 120.5,216.5C 101.329,217.828 81.9959,217.828 62.5,216.5C 62.6236,215.893 62.9569,215.56 63.5,215.5 Z"/></g>
<g><path style="opacity:1" fill="#404040" d="M 368.5,215.5 C 369.043,215.56 369.376,215.893 369.5,216.5C 350.004,217.828 330.671,217.828 311.5,216.5C 330.674,216.83 349.674,216.497 368.5,215.5 Z"/></g>
</svg>
