<svg width="420" height="420" viewBox="0 0 420 420" fill="none" xmlns="http://www.w3.org/2000/svg">
<g clip-path="url(#clip0_667_1248)">
<path d="M188 1.46612C152.133 5.59946 117.466 18.6661 88.3997 39.0661C73.3331 49.5995 49.5997 73.3328 39.0664 88.3995C-6.1336 152.533 -12.1336 235.866 23.4664 305.333C33.8664 325.866 45.0664 341.066 61.9997 357.999C78.9331 374.933 94.1331 386.133 114.666 396.533C174.666 427.333 245.333 427.333 305.333 396.533C325.866 386.133 341.066 374.933 358 357.999C374.933 341.066 386.133 325.866 396.533 305.333C427.333 245.333 427.333 174.666 396.533 114.666C392.533 106.666 385.466 94.7995 380.933 88.3995C370.4 73.3328 346.666 49.5995 331.6 39.0661C289.866 9.73279 237.2 -4.13388 188 1.46612ZM182.4 103.466C236.4 113.466 284.533 122.266 289.2 122.933L297.6 124.399L326.133 151.599L354.666 178.799L328.533 210.399C314.266 227.733 278.4 271.466 248.933 307.599C219.466 343.599 195.066 373.199 194.666 373.199C194.266 373.333 184.933 350.399 173.733 322.266C162.533 294.266 136.933 229.733 116.666 178.933C96.5331 128.133 79.9997 86.2661 79.9997 85.9995C79.9997 84.6661 86.7997 85.8661 182.4 103.466Z" fill="#EC0927"/>
<path d="M123.467 109.466C123.867 110.132 144.801 127.732 170.134 148.799C212.001 183.466 216.401 186.666 218.667 185.066C223.601 181.599 275.867 137.999 275.867 137.199C276.001 136.799 262.001 133.999 245.067 130.932C213.201 125.066 151.467 113.732 133.067 110.266C127.334 109.199 123.067 108.799 123.467 109.466Z" fill="#EC0927"/>
<path d="M110.666 120.4C110.666 120.8 127.733 164 148.533 216.267C169.333 268.533 187.733 315.067 189.466 319.6C191.199 324.267 193.066 328 193.466 328C193.866 328 195.199 318.8 196.533 307.733C197.866 296.533 201.333 268.133 204.133 244.667C209.066 204.267 209.199 202 206.933 199.867C205.733 198.667 184.933 181.333 160.666 161.333C136.533 141.333 115.333 123.733 113.733 122.267C111.999 120.8 110.666 119.867 110.666 120.4Z" fill="#EC0927"/>
<path d="M266.266 166.132C250.933 178.932 239.466 189.332 240.666 189.332C242.8 189.332 322.8 175.199 325.733 174.265C326.4 173.999 319.466 166.932 310.4 158.399L294 142.932L266.266 166.132Z" fill="#EC0927"/>
<path d="M273.067 199.865C246.934 204.665 225.2 208.932 224.8 209.332C224 210.265 209.467 329.332 210.134 329.332C210.4 329.332 235.2 299.199 265.467 262.265C295.734 225.465 321.334 194.265 322.4 192.932C325.067 189.999 328.934 189.465 273.067 199.865Z" fill="#EC0927"/>
</g>
<defs>
<clipPath id="clip0_667_1248">
<rect width="420" height="420" fill="white"/>
</clipPath>
</defs>
</svg>
