<svg width="827" height="827" viewBox="0 0 827 827" fill="none" xmlns="http://www.w3.org/2000/svg">
<rect width="827" height="827" fill="#E31937"/>
<path d="M413.922 661.028L483.36 270.684C549.473 270.684 570.403 277.924 573.337 307.469C573.337 307.469 617.738 290.837 640.036 257.379C552.798 216.878 464.974 215.117 464.974 215.117L413.726 277.533H413.922L362.87 215.117C362.87 215.117 275.045 216.878 187.807 257.379C210.106 291.033 254.507 307.469 254.507 307.469C257.441 277.924 278.37 270.684 344.092 270.489L413.922 661.028Z" fill="white"/>
<path d="M413.922 197.116C484.534 196.529 565.317 208.073 648.056 244.075C659.205 224.117 661.944 215.312 661.944 215.312C571.576 179.506 486.881 167.376 413.922 166.984C341.158 167.376 256.463 179.506 165.9 215.312C165.9 215.312 170.007 226.074 179.787 244.075C262.527 207.877 343.31 196.529 413.922 197.116Z" fill="white"/>
</svg>
