<svg xmlns="http://www.w3.org/2000/svg" version="1.1" viewBox="0 0 716 716" width="716" height="716" style="shape-rendering:geometricPrecision; text-rendering:geometricPrecision; image-rendering:optimizeQuality; fill-rule:evenodd; clip-rule:evenodd" xmlns:xlink="http://www.w3.org/1999/xlink">
<g><path style="opacity:0.997" fill="#eeb207" d="M 331.5,-0.5 C 346.833,-0.5 362.167,-0.5 377.5,-0.5C 474.05,7.52861 555.55,46.5286 622,116.5C 676.411,179.009 707.577,251.676 715.5,334.5C 715.5,345.5 715.5,356.5 715.5,367.5C 710.545,471.566 669.878,558.732 593.5,629C 535.83,676.627 469.83,705.794 395.5,716.5C 375.5,716.5 355.5,716.5 335.5,716.5C 213.574,706.305 119.074,650.305 52,548.5C 20.4075,495.789 2.90748,438.789 -0.5,377.5C -0.5,363.167 -0.5,348.833 -0.5,334.5C 10.1706,217.287 63.504,125.12 159.5,58C 189.515,39.8265 221.182,25.1598 254.5,14C 279.78,6.3452 305.447,1.51187 331.5,-0.5 Z"/></g>
<g><path style="opacity:1" fill="#fdfdfd" d="M 523.5,150.5 C 526.649,150.211 529.649,150.711 532.5,152C 557.667,177.167 582.833,202.333 608,227.5C 608.706,229.971 608.373,232.305 607,234.5C 496.446,345.054 385.946,455.554 275.5,566C 270.931,568.219 266.598,567.886 262.5,565C 204,506.5 145.5,448 87,389.5C 85,385.833 85,382.167 87,378.5C 111.167,354.333 135.333,330.167 159.5,306C 163.574,302.774 167.574,302.774 171.5,306C 202.167,338 233.5,369.333 265.5,400C 267.695,401.373 270.029,401.706 272.5,401C 356.728,317.939 440.395,234.439 523.5,150.5 Z"/></g>
</svg>
