<svg xmlns="http://www.w3.org/2000/svg" version="1.1" viewBox="0 0 1000 1000" width="1000px" height="1000px" style="shape-rendering:geometricPrecision; text-rendering:geometricPrecision; image-rendering:optimizeQuality; fill-rule:evenodd; clip-rule:evenodd" xmlns:xlink="http://www.w3.org/1999/xlink">
<g><path style="opacity:0.994" fill="#fce28e" d="M 835.5,868.5 C 835.821,863.305 835.487,858.305 834.5,853.5C 835.509,838.735 835.509,824.068 834.5,809.5C 834.236,804.524 833.069,799.858 831,795.5C 831.591,781.72 829.591,768.387 825,755.5C 821.684,734.491 815.684,714.157 807,694.5C 805.357,692.023 803.524,689.69 801.5,687.5C 807.913,676.772 813.08,665.439 817,653.5C 817.667,645.833 817.667,638.167 817,630.5C 816.15,628.99 815.317,627.49 814.5,626C 816.546,621.408 818.713,616.908 821,612.5C 826.508,606.484 830.175,599.484 832,591.5C 833,590.5 834,589.5 835,588.5C 836.744,579.95 839.744,571.95 844,564.5C 848.631,547.049 852.298,529.382 855,511.5C 863.66,494.496 870.994,476.83 877,458.5C 877.524,450.937 878.857,443.604 881,436.5C 884.82,399.876 880.82,364.209 869,329.5C 860.545,308.034 849.878,287.701 837,268.5C 828.955,259.458 821.289,250.124 814,240.5C 807.833,235.667 802.333,230.167 797.5,224C 787.5,215.667 777.5,207.333 767.5,199C 754.071,190.853 740.738,182.519 727.5,174C 718.554,170.194 709.888,165.861 701.5,161C 688.505,157.559 676.172,152.559 664.5,146C 647.09,141.656 629.756,136.989 612.5,132C 557.631,121.321 502.298,119.654 446.5,127C 429.987,129.436 413.654,132.769 397.5,137C 391.961,140.178 385.961,141.845 379.5,142C 375.764,142.819 372.431,144.485 369.5,147C 365.261,148.413 360.928,149.413 356.5,150C 353.062,150.92 350.062,152.587 347.5,155C 339.061,156.59 331.394,159.923 324.5,165C 321.079,164.879 318.412,166.212 316.5,169C 314.833,169.333 313.167,169.667 311.5,170C 302.781,175.7 293.781,181.033 284.5,186C 280.65,188.761 276.983,191.761 273.5,195C 267.723,196.777 263.056,200.111 259.5,205C 248.964,211.532 239.63,219.532 231.5,229C 224.614,232.886 219.447,238.386 216,245.5C 211.914,248.376 208.247,251.709 205,255.5C 204.667,257.167 204.333,258.833 204,260.5C 196.312,266.178 190.979,273.511 188,282.5C 185.436,285.28 183.103,288.28 181,291.5C 176.293,301.715 171.293,311.715 166,321.5C 161.404,335.351 157.404,349.351 154,363.5C 151.557,379.124 150.224,394.79 150,410.5C 144.308,413.525 139.975,417.858 137,423.5C 131.58,428.606 127.247,434.606 124,441.5C 116.716,457.255 112.883,473.922 112.5,491.5C 113.74,514.254 119.573,535.587 130,555.5C 135.167,562 140.333,568.5 145.5,575C 152.176,578.67 158.509,582.836 164.5,587.5C 167.259,594.765 171.092,601.431 176,607.5C 185.333,618.167 194.667,628.833 204,639.5C 207.78,643.291 211.613,646.958 215.5,650.5C 202.12,664.226 188.953,678.226 176,692.5C 172.524,699.983 167.524,706.316 161,711.5C 158.874,717.295 155.54,722.295 151,726.5C 140.546,743.077 130.88,760.077 122,777.5C 119.204,785.092 115.87,792.425 112,799.5C 111.443,803.594 110.61,807.594 109.5,811.5C 47.2404,733.577 11.407,644.577 2,544.5C -9.09089,381.377 44.0758,243.543 161.5,131C 280.691,26.284 419.358,-15.3827 577.5,6C 717.725,30.481 828.892,100.314 911,215.5C 995.121,342.887 1018.79,480.887 982,629.5C 956.013,722.737 907.846,802.237 837.5,868C 836.906,868.464 836.239,868.631 835.5,868.5 Z"/></g>
<g><path style="opacity:1" fill="#0c0906" d="M 834.5,853.5 C 834.74,859.227 834.407,864.894 833.5,870.5C 829.398,874.723 825.065,878.723 820.5,882.5C 825.164,848.077 824.164,813.744 817.5,779.5C 817.624,773.931 816.957,768.598 815.5,763.5C 812.918,752.601 810.752,741.601 809,730.5C 806.074,722.329 802.908,714.329 799.5,706.5C 798.812,703.943 797.646,701.609 796,699.5C 795.333,700.167 794.667,700.833 794,701.5C 792.716,704.807 791.383,708.141 790,711.5C 785.806,716.091 783.139,721.424 782,727.5C 776.693,732.825 773.027,739.158 771,746.5C 767.549,749.956 764.882,753.956 763,758.5C 760.441,783.263 758.941,808.096 758.5,833C 758.624,864.108 758.624,895.275 758.5,926.5C 755.039,929.069 751.372,931.403 747.5,933.5C 747.351,907.566 747.018,881.399 746.5,855C 747.233,839.835 747.9,824.669 748.5,809.5C 748.837,798.462 748.837,787.462 748.5,776.5C 741.599,782.904 734.265,788.737 726.5,794C 721.706,799.8 716.04,804.467 709.5,808C 701.084,816.412 693.417,825.412 686.5,835C 684.33,836.586 681.996,837.92 679.5,839C 669.399,840.012 659.399,841.512 649.5,843.5C 650.058,850.647 650.725,857.647 651.5,864.5C 654.484,893.731 656.317,923.065 657,952.5C 658.157,959.138 658.99,965.805 659.5,972.5C 655.659,974.003 651.659,975.336 647.5,976.5C 645.887,940.434 643.554,904.434 640.5,868.5C 640.189,861.115 639.522,853.781 638.5,846.5C 637.333,846.167 636.167,845.833 635,845.5C 619.363,848.85 603.529,850.35 587.5,850C 585.051,849.275 582.717,848.275 580.5,847C 575.833,841.667 571.167,836.333 566.5,831C 557.626,826.823 548.292,824.156 538.5,823C 513.536,815.337 488.536,807.67 463.5,800C 432.485,787.826 403.152,772.493 375.5,754C 349.653,734.161 324.986,712.828 301.5,690C 298.946,687.937 296.28,686.103 293.5,684.5C 288.288,686.02 282.955,686.853 277.5,687C 281.066,692.242 284.233,697.742 287,703.5C 293.389,721.111 298.389,739.111 302,757.5C 302.408,765.673 302.908,773.839 303.5,782C 303.268,790.1 301.102,797.6 297,804.5C 289.943,811.556 282.276,817.889 274,823.5C 271.423,828.982 268.09,833.982 264,838.5C 261.782,844.361 259.115,850.028 256,855.5C 253.401,865.555 249.734,875.222 245,884.5C 241.726,896.907 237.226,908.907 231.5,920.5C 228.262,919.262 225.262,917.596 222.5,915.5C 223.386,909.412 225.552,903.745 229,898.5C 232.081,887.526 236.081,876.86 241,866.5C 242.474,862.662 243.474,858.662 244,854.5C 247.706,847.404 251.039,840.071 254,832.5C 258.178,828.34 261.511,823.673 264,818.5C 266.043,816.792 267.71,814.792 269,812.5C 270.399,811.773 271.899,811.273 273.5,811C 276.302,807.445 279.302,804.112 282.5,801C 283.833,800.333 285.167,799.667 286.5,799C 287.874,796.417 289.374,793.917 291,791.5C 292.677,759.053 286.177,728.386 271.5,699.5C 268.668,692.348 264.668,685.848 259.5,680C 248.334,673.585 237.334,666.918 226.5,660C 225.167,659.333 223.833,659.333 222.5,660C 213.678,669.788 204.512,679.288 195,688.5C 182.747,704.022 170.747,719.688 159,735.5C 156.981,742.195 153.314,747.861 148,752.5C 145.553,760.731 141.553,768.064 136,774.5C 134.667,778.5 133.333,782.5 132,786.5C 125.522,797.784 121.022,809.784 118.5,822.5C 115.152,819.149 112.152,815.482 109.5,811.5C 110.61,807.594 111.443,803.594 112,799.5C 115.87,792.425 119.204,785.092 122,777.5C 130.88,760.077 140.546,743.077 151,726.5C 155.54,722.295 158.874,717.295 161,711.5C 167.524,706.316 172.524,699.983 176,692.5C 188.953,678.226 202.12,664.226 215.5,650.5C 211.613,646.958 207.78,643.291 204,639.5C 194.667,628.833 185.333,618.167 176,607.5C 171.092,601.431 167.259,594.765 164.5,587.5C 158.509,582.836 152.176,578.67 145.5,575C 140.333,568.5 135.167,562 130,555.5C 119.573,535.587 113.74,514.254 112.5,491.5C 112.883,473.922 116.716,457.255 124,441.5C 127.247,434.606 131.58,428.606 137,423.5C 139.975,417.858 144.308,413.525 150,410.5C 150.224,394.79 151.557,379.124 154,363.5C 157.404,349.351 161.404,335.351 166,321.5C 171.293,311.715 176.293,301.715 181,291.5C 183.103,288.28 185.436,285.28 188,282.5C 190.979,273.511 196.312,266.178 204,260.5C 204.333,258.833 204.667,257.167 205,255.5C 208.247,251.709 211.914,248.376 216,245.5C 219.447,238.386 224.614,232.886 231.5,229C 239.63,219.532 248.964,211.532 259.5,205C 263.056,200.111 267.723,196.777 273.5,195C 276.983,191.761 280.65,188.761 284.5,186C 293.781,181.033 302.781,175.7 311.5,170C 313.167,169.667 314.833,169.333 316.5,169C 318.412,166.212 321.079,164.879 324.5,165C 331.394,159.923 339.061,156.59 347.5,155C 350.062,152.587 353.062,150.92 356.5,150C 360.928,149.413 365.261,148.413 369.5,147C 372.431,144.485 375.764,142.819 379.5,142C 385.961,141.845 391.961,140.178 397.5,137C 413.654,132.769 429.987,129.436 446.5,127C 502.298,119.654 557.631,121.321 612.5,132C 629.756,136.989 647.09,141.656 664.5,146C 676.172,152.559 688.505,157.559 701.5,161C 709.888,165.861 718.554,170.194 727.5,174C 740.738,182.519 754.071,190.853 767.5,199C 777.5,207.333 787.5,215.667 797.5,224C 802.333,230.167 807.833,235.667 814,240.5C 821.289,250.124 828.955,259.458 837,268.5C 849.878,287.701 860.545,308.034 869,329.5C 880.82,364.209 884.82,399.876 881,436.5C 878.857,443.604 877.524,450.937 877,458.5C 870.994,476.83 863.66,494.496 855,511.5C 852.298,529.382 848.631,547.049 844,564.5C 839.744,571.95 836.744,579.95 835,588.5C 834,589.5 833,590.5 832,591.5C 830.175,599.484 826.508,606.484 821,612.5C 818.713,616.908 816.546,621.408 814.5,626C 815.317,627.49 816.15,628.99 817,630.5C 817.667,638.167 817.667,645.833 817,653.5C 813.08,665.439 807.913,676.772 801.5,687.5C 803.524,689.69 805.357,692.023 807,694.5C 815.684,714.157 821.684,734.491 825,755.5C 829.591,768.387 831.591,781.72 831,795.5C 833.069,799.858 834.236,804.524 834.5,809.5C 835.509,824.068 835.509,838.735 834.5,853.5 Z"/></g>
<g><path style="opacity:1" fill="#f2d9bb" d="M 738.5,273.5 C 703.776,271.082 669.109,271.916 634.5,276C 617.068,278.407 599.735,281.073 582.5,284C 569.426,286.679 556.426,289.679 543.5,293C 540.167,293.333 536.833,293.667 533.5,294C 517.611,298.957 501.611,303.29 485.5,307C 477.445,310.796 469.111,313.796 460.5,316C 459.167,317 457.833,318 456.5,319C 452.781,319.388 449.114,320.055 445.5,321C 439.475,325.34 432.809,328.34 425.5,330C 406.661,338.917 388.328,348.584 370.5,359C 365.964,363.571 360.964,367.237 355.5,370C 335.017,384.15 317.517,401.317 303,421.5C 297.784,425.38 294.118,430.38 292,436.5C 282.818,447.037 276.151,459.037 272,472.5C 267.94,476.992 265.606,482.326 265,488.5C 261.928,475.288 258.928,461.955 256,448.5C 254.773,444.789 252.94,441.455 250.5,438.5C 249.32,429.109 249.32,419.776 250.5,410.5C 254.097,384.84 258.264,359.174 263,333.5C 266.483,328.045 268.15,322.045 268,315.5C 268.892,312.048 270.558,309.048 273,306.5C 274.736,301.956 276.07,297.29 277,292.5C 282.031,282.669 287.198,273.002 292.5,263.5C 299.297,256.545 306.63,250.045 314.5,244C 324.985,237.013 335.651,230.347 346.5,224C 354.42,222.949 361.42,219.949 367.5,215C 374.772,214.362 381.439,212.029 387.5,208C 391.5,207.667 395.5,207.333 399.5,207C 406.966,203.134 414.966,201.134 423.5,201C 427.245,200.044 430.911,198.877 434.5,197.5C 467.913,192.528 501.58,190.528 535.5,191.5C 549.5,192.833 563.5,194.333 577.5,196C 595.601,199.859 613.601,204.359 631.5,209.5C 631.5,210.5 631.5,211.5 631.5,212.5C 635.582,212.344 639.582,212.844 643.5,214C 652.755,219.192 662.088,224.192 671.5,229C 676.643,230.741 681.643,232.741 686.5,235C 694.593,242.224 703.593,248.224 713.5,253C 721.89,259.848 730.223,266.682 738.5,273.5 Z"/></g>
<g><path style="opacity:1" fill="#cfab7f" d="M 250.5,410.5 C 249.32,419.776 249.32,429.109 250.5,438.5C 244.143,429.962 237.143,421.795 229.5,414C 225.422,411.642 221.256,409.476 217,407.5C 215.989,408.056 215.156,408.722 214.5,409.5C 214.461,408.417 214.127,407.417 213.5,406.5C 206.328,402.554 198.662,400.887 190.5,401.5C 180.889,401.004 171.222,401.338 161.5,402.5C 162.92,393 163.754,383.333 164,373.5C 166.882,365.49 168.549,357.157 169,348.5C 175.307,330.317 182.974,312.65 192,295.5C 199.487,284.03 207.153,272.697 215,261.5C 228.479,246.355 242.979,232.188 258.5,219C 264.732,216.102 269.732,211.769 273.5,206C 279.716,204.218 285.049,200.885 289.5,196C 303.921,187.458 318.587,179.458 333.5,172C 344.068,168.865 354.068,164.532 363.5,159C 367.5,158.333 371.5,157.667 375.5,157C 380.026,153.713 385.026,152.047 390.5,152C 378.361,158.779 366.695,166.446 355.5,175C 344.357,183.479 333.857,192.646 324,202.5C 321.102,208.732 316.769,213.732 311,217.5C 305.053,226.447 298.72,235.114 292,243.5C 288.596,251.375 284.262,258.708 279,265.5C 276.626,272.952 273.293,279.952 269,286.5C 267.52,293.599 264.854,300.265 261,306.5C 260.226,310.147 259.559,313.814 259,317.5C 255.134,325.289 253.468,333.623 254,342.5C 251.996,345.475 250.996,348.808 251,352.5C 248.559,371.431 247.559,390.431 248,409.5C 248.671,410.252 249.504,410.586 250.5,410.5 Z"/></g>
<g><path style="opacity:1" fill="#ebc38f" d="M 800.5,285.5 C 788.136,281.327 775.47,278.494 762.5,277C 760.754,276.529 759.087,275.862 757.5,275C 751.086,274.793 744.753,274.293 738.5,273.5C 730.223,266.682 721.89,259.848 713.5,253C 703.593,248.224 694.593,242.224 686.5,235C 681.643,232.741 676.643,230.741 671.5,229C 662.088,224.192 652.755,219.192 643.5,214C 639.582,212.844 635.582,212.344 631.5,212.5C 631.5,211.5 631.5,210.5 631.5,209.5C 613.601,204.359 595.601,199.859 577.5,196C 563.5,194.333 549.5,192.833 535.5,191.5C 501.58,190.528 467.913,192.528 434.5,197.5C 430.911,198.877 427.245,200.044 423.5,201C 414.966,201.134 406.966,203.134 399.5,207C 395.5,207.333 391.5,207.667 387.5,208C 381.439,212.029 374.772,214.362 367.5,215C 361.42,219.949 354.42,222.949 346.5,224C 335.651,230.347 324.985,237.013 314.5,244C 306.63,250.045 299.297,256.545 292.5,263.5C 299.499,250.181 307.999,237.847 318,226.5C 318.333,225.5 318.667,224.5 319,223.5C 323.927,219.659 327.927,214.992 331,209.5C 336.789,206.045 341.622,201.545 345.5,196C 357.484,185.844 370.15,176.677 383.5,168.5C 389.297,168.106 394.63,166.272 399.5,163C 413.442,159.681 427.442,156.681 441.5,154C 464.282,151.996 487.116,150.829 510,150.5C 522.919,150.409 535.752,151.409 548.5,153.5C 554.924,152.945 561.257,153.779 567.5,156C 582.146,156.328 596.146,159.328 609.5,165C 614.833,166 620.167,167 625.5,168C 636.918,173.079 648.584,177.413 660.5,181C 667.75,185.458 675.417,189.125 683.5,192C 697.874,200.853 712.54,209.187 727.5,217C 753.628,235.838 777.461,257.338 799,281.5C 799.791,282.745 800.291,284.078 800.5,285.5 Z"/></g>
<g><path style="opacity:1" fill="#fbfbfa" d="M 800.5,285.5 C 800.291,284.078 799.791,282.745 799,281.5C 777.461,257.338 753.628,235.838 727.5,217C 712.54,209.187 697.874,200.853 683.5,192C 675.417,189.125 667.75,185.458 660.5,181C 648.584,177.413 636.918,173.079 625.5,168C 620.167,167 614.833,166 609.5,165C 596.146,159.328 582.146,156.328 567.5,156C 561.257,153.779 554.924,152.945 548.5,153.5C 535.752,151.409 522.919,150.409 510,150.5C 487.116,150.829 464.282,151.996 441.5,154C 427.442,156.681 413.442,159.681 399.5,163C 394.63,166.272 389.297,168.106 383.5,168.5C 393.521,162.155 403.855,156.322 414.5,151C 420.467,150.515 425.801,148.515 430.5,145C 435.306,143.131 440.306,142.131 445.5,142C 455.707,137.741 466.374,135.408 477.5,135C 495.69,133.745 513.857,133.245 532,133.5C 543.803,134.753 555.637,135.586 567.5,136C 577.039,137.987 586.706,139.32 596.5,140C 607.135,143.861 618.135,146.194 629.5,147C 642.785,152.539 656.452,156.873 670.5,160C 678.153,164.108 686.153,167.442 694.5,170C 711.699,177.934 728.366,186.934 744.5,197C 755.22,205.387 766.22,213.387 777.5,221C 790.696,233.862 803.53,247.029 816,260.5C 828.984,277.631 840.484,295.631 850.5,314.5C 842.591,308.808 834.257,302.975 825.5,297C 817.41,292.622 809.077,288.788 800.5,285.5 Z"/></g>
<g><path style="opacity:1" fill="#d98d2d" d="M 752.5,334.5 C 747.241,332.946 741.741,331.946 736,331.5C 723.854,333.527 711.688,335.361 699.5,337C 655.301,341.313 611.635,348.313 568.5,358C 561.52,361.462 554.186,363.795 546.5,365C 540.77,368.197 534.77,370.863 528.5,373C 525.684,375.132 524.351,377.965 524.5,381.5C 525.545,390.149 525.711,398.816 525,407.5C 522.336,411.835 519.003,412.501 515,409.5C 514.536,410.094 514.369,410.761 514.5,411.5C 508.866,392.672 498.199,377.172 482.5,365C 465.12,352.818 445.787,346.151 424.5,345C 440.341,337.455 456.341,330.455 472.5,324C 479.801,323.902 486.468,321.902 492.5,318C 500.603,317.116 508.27,314.783 515.5,311C 527.789,308.409 540.122,306.076 552.5,304C 555.999,302.296 559.666,300.962 563.5,300C 574.815,298.016 586.148,296.016 597.5,294C 631.511,288.477 665.844,285.31 700.5,284.5C 721.36,284.439 741.027,289.272 759.5,299C 768.883,305.04 777.716,311.874 786,319.5C 786.483,320.448 786.649,321.448 786.5,322.5C 780.661,322.281 775.327,323.781 770.5,327C 763.712,327.692 757.712,330.192 752.5,334.5 Z"/></g>
<g><path style="opacity:1" fill="#cfab7f" d="M 766.5,290.5 C 766.735,289.903 767.235,289.57 768,289.5C 776.873,291.507 785.706,293.673 794.5,296C 808.829,301.234 822.163,308.234 834.5,317C 855.256,335.68 867.09,358.847 870,386.5C 872.804,419.729 868.304,451.729 856.5,482.5C 853.902,463.124 850.735,443.791 847,424.5C 842.502,413.506 839.169,402.172 837,390.5C 828.255,373.342 819.255,356.342 810,339.5C 801.333,328.167 792.667,316.833 784,305.5C 778.601,299.9 772.768,294.9 766.5,290.5 Z"/></g>
<g><path style="opacity:1" fill="#fac901" d="M 752.5,334.5 C 740.55,343.601 732.383,355.268 728,369.5C 727.83,371.715 727.163,373.715 726,375.5C 725.333,386.167 725.333,396.833 726,407.5C 729.374,418.636 733.707,429.302 739,439.5C 745.342,446.009 751.842,452.342 758.5,458.5C 757.685,459.837 756.518,460.837 755,461.5C 754.333,463.167 754.333,464.833 755,466.5C 760.859,474.843 768.692,480.343 778.5,483C 792.313,486.625 806.313,487.292 820.5,485C 828.28,482.643 835.946,480.143 843.5,477.5C 844.659,487.992 844.825,498.659 844,509.5C 842.138,516.681 841.138,524.014 841,531.5C 837.456,546.399 833.122,561.066 828,575.5C 824.899,580.702 822.066,586.035 819.5,591.5C 812.784,596.53 806.45,602.03 800.5,608C 794.423,610.596 789.423,614.596 785.5,620C 774.866,626.654 764.2,633.321 753.5,640C 739.286,647.96 724.619,654.96 709.5,661C 697.153,665.922 684.487,669.922 671.5,673C 635.068,682.73 598.068,686.73 560.5,685C 547.873,683.505 535.206,682.505 522.5,682C 513.364,679.32 504.03,677.653 494.5,677C 492.283,675.725 489.949,674.725 487.5,674C 475.772,672.867 464.772,669.533 454.5,664C 445.038,661.209 435.705,658.209 426.5,655C 404.526,644.349 383.192,632.683 362.5,620C 343.939,606.406 332.273,588.239 327.5,565.5C 327.945,559.537 329.445,553.87 332,548.5C 333.543,546.622 335.376,545.122 337.5,544C 350.382,542.919 362.715,544.919 374.5,550C 385.901,550.94 397.234,552.107 408.5,553.5C 419.2,552.099 429.867,551.265 440.5,551C 443.382,549.392 446.382,548.059 449.5,547C 467.136,544.09 481.636,535.59 493,521.5C 493.667,518.167 493.667,514.833 493,511.5C 491.242,509.917 489.742,508.25 488.5,506.5C 490.17,503.998 492.336,501.998 495,500.5C 499.05,493.041 504.05,486.374 510,480.5C 512.87,472.89 515.536,465.223 518,457.5C 520.46,441.825 519.293,426.491 514.5,411.5C 514.369,410.761 514.536,410.094 515,409.5C 519.003,412.501 522.336,411.835 525,407.5C 525.711,398.816 525.545,390.149 524.5,381.5C 524.351,377.965 525.684,375.132 528.5,373C 534.77,370.863 540.77,368.197 546.5,365C 554.186,363.795 561.52,361.462 568.5,358C 611.635,348.313 655.301,341.313 699.5,337C 711.688,335.361 723.854,333.527 736,331.5C 741.741,331.946 747.241,332.946 752.5,334.5 Z"/></g>
<g><path style="opacity:1" fill="#f5f5f5" d="M 782.5,332.5 C 786.846,332.334 791.179,332.501 795.5,333C 798.82,335.808 799.487,338.808 797.5,342C 782.085,341.637 768.918,346.803 758,357.5C 753.607,363.619 750.274,370.286 748,377.5C 741.893,411.14 755.06,432.974 787.5,443C 792.5,443.667 797.5,443.667 802.5,443C 809.315,440.728 815.981,438.061 822.5,435C 827,429.167 832.167,424 838,419.5C 839.269,423.402 840.436,427.402 841.5,431.5C 840.351,433.797 839.185,436.13 838,438.5C 808.916,465.778 780.249,465.111 752,436.5C 736.852,415.16 733.185,391.826 741,366.5C 748.269,346.973 762.102,335.64 782.5,332.5 Z"/></g>
<g><path style="opacity:1" fill="#f7f7f7" d="M 413.5,357.5 C 460.255,355.284 491.089,376.284 506,420.5C 509.282,439.751 507.615,458.418 501,476.5C 495.735,481.763 491.235,487.596 487.5,494C 480.55,498.615 473.884,503.615 467.5,509C 438.051,523.814 408.051,525.48 377.5,514C 372.344,509.586 366.677,505.919 360.5,503C 334.285,482.021 323.118,454.854 327,421.5C 329.053,414.68 331.886,408.18 335.5,402C 344.019,395.238 352.352,388.238 360.5,381C 367.12,378.204 372.786,374.204 377.5,369C 379.618,368.74 381.284,367.74 382.5,366C 387.415,364.542 392.081,362.542 396.5,360C 402.348,359.411 408.014,358.578 413.5,357.5 Z"/></g>
<g><path style="opacity:1" fill="#f8f7f7" d="M 789.5,359.5 C 792.85,359.335 796.183,359.502 799.5,360C 808.672,363.999 814.339,370.832 816.5,380.5C 814.972,390.208 809.639,393.375 800.5,390C 787.171,382.914 783.504,372.748 789.5,359.5 Z"/></g>
<g><path style="opacity:1" fill="#080705" d="M 402.5,368.5 C 435.627,364.369 462.794,375.036 484,400.5C 500.354,430.74 497.521,458.907 475.5,485C 447.672,509.687 416.672,514.354 382.5,499C 351.59,481.678 339.09,455.511 345,420.5C 353.982,394.176 371.816,377.676 398.5,371C 400.32,370.8 401.653,369.966 402.5,368.5 Z"/></g>
<g><path style="opacity:1" fill="#fafaf9" d="M 439.5,392.5 C 453.964,392.777 464.464,399.444 471,412.5C 472.941,425.895 467.108,432.395 453.5,432C 438.742,425.595 431.909,414.429 433,398.5C 435.063,396.266 437.229,394.266 439.5,392.5 Z"/></g>
<g><path style="opacity:1" fill="#f7eee2" d="M 190.5,401.5 C 198.662,400.887 206.328,402.554 213.5,406.5C 214.127,407.417 214.461,408.417 214.5,409.5C 220.431,413.927 225.931,418.927 231,424.5C 236.333,433.167 241.667,441.833 247,450.5C 254.423,477.74 257.256,505.407 255.5,533.5C 247.687,535.322 239.687,535.822 231.5,535C 228.316,534.246 225.649,532.746 223.5,530.5C 223.409,521.776 224.076,513.11 225.5,504.5C 223.616,491.024 221.116,477.69 218,464.5C 213.524,454.88 208.524,445.547 203,436.5C 197.5,431 192,425.5 186.5,420C 180.604,417.218 174.604,414.718 168.5,412.5C 168.977,411.522 169.643,410.689 170.5,410C 177.701,407.788 184.367,404.954 190.5,401.5 Z"/></g>
<g><path style="opacity:1" fill="#d0ab7f" d="M 156.5,424.5 C 165.489,424.333 173.823,426.5 181.5,431C 186,435.5 190.5,440 195,444.5C 197.071,448.303 199.404,451.97 202,455.5C 207.647,469.737 211.48,484.403 213.5,499.5C 213.905,515.578 211.738,531.245 207,546.5C 202.97,555.749 197.137,563.582 189.5,570C 175.985,576.986 163.485,575.486 152,565.5C 140.323,552.147 132.323,536.814 128,519.5C 127.1,510.087 125.934,500.754 124.5,491.5C 123.915,471.974 128.748,453.974 139,437.5C 145.209,433.424 151.042,429.09 156.5,424.5 Z"/></g>
<g><path style="opacity:1" fill="#d98d2d" d="M 488.5,506.5 C 489.742,508.25 491.242,509.917 493,511.5C 493.667,514.833 493.667,518.167 493,521.5C 481.636,535.59 467.136,544.09 449.5,547C 446.382,548.059 443.382,549.392 440.5,551C 429.867,551.265 419.2,552.099 408.5,553.5C 397.234,552.107 385.901,550.94 374.5,550C 362.715,544.919 350.382,542.919 337.5,544C 335.376,545.122 333.543,546.622 332,548.5C 329.445,553.87 327.945,559.537 327.5,565.5C 332.273,588.239 343.939,606.406 362.5,620C 383.192,632.683 404.526,644.349 426.5,655C 435.705,658.209 445.038,661.209 454.5,664C 464.772,669.533 475.772,672.867 487.5,674C 489.949,674.725 492.283,675.725 494.5,677C 504.03,677.653 513.364,679.32 522.5,682C 535.206,682.505 547.873,683.505 560.5,685C 598.068,686.73 635.068,682.73 671.5,673C 684.487,669.922 697.153,665.922 709.5,661C 724.619,654.96 739.286,647.96 753.5,640C 764.2,633.321 774.866,626.654 785.5,620C 789.423,614.596 794.423,610.596 800.5,608C 806.45,602.03 812.784,596.53 819.5,591.5C 819.66,593.199 819.494,594.866 819,596.5C 813.322,603.189 808.655,610.523 805,618.5C 801.176,622.814 797.843,627.481 795,632.5C 790.133,637.032 785.633,641.866 781.5,647C 775.879,650.287 771.212,654.621 767.5,660C 760.618,663.552 754.284,667.885 748.5,673C 738.323,678.589 727.99,683.922 717.5,689C 707.056,692.39 696.722,696.057 686.5,700C 676.117,703.066 665.45,705.066 654.5,706C 653.328,706.419 652.328,707.085 651.5,708C 632.117,710.461 612.617,712.294 593,713.5C 585.27,712.064 577.603,712.398 570,714.5C 560.489,711.973 550.989,711.973 541.5,714.5C 488.38,709.146 436.38,698.312 385.5,682C 360.508,672.998 336.174,662.665 312.5,651C 312,650.5 311.5,650 311,649.5C 310.667,645.833 310.333,642.167 310,638.5C 308.188,635.72 306.021,633.22 303.5,631C 290.199,623.013 276.866,615.013 263.5,607C 255.142,601.501 248.142,594.668 242.5,586.5C 248.95,581.716 252.95,575.383 254.5,567.5C 255.791,567.737 256.791,567.404 257.5,566.5C 260.395,556.511 262.228,546.177 263,535.5C 263.732,531.885 265.065,528.552 267,525.5C 267.246,516.22 269.579,507.554 274,499.5C 274.945,495.886 275.612,492.219 276,488.5C 281,481.58 284.667,473.913 287,465.5C 292.667,456.167 298.333,446.833 304,437.5C 307.349,433.984 310.849,430.651 314.5,427.5C 314.833,428.167 315.167,428.833 315.5,429.5C 314.419,434.476 313.919,439.476 314,444.5C 319.826,480.975 339.326,507.142 372.5,523C 386.803,529.332 401.803,532.499 417.5,532.5C 443.948,531.309 467.614,522.642 488.5,506.5 Z"/></g>
<g><path style="opacity:1" fill="#130e06" d="M 699.5,444.5 C 703.57,445.024 706.237,447.191 707.5,451C 705.777,456.365 702.11,458.365 696.5,457C 690.567,451.163 691.567,446.996 699.5,444.5 Z"/></g>
<g><path style="opacity:1" fill="#d98d2e" d="M 843.5,477.5 C 835.946,480.143 828.28,482.643 820.5,485C 806.313,487.292 792.313,486.625 778.5,483C 768.692,480.343 760.859,474.843 755,466.5C 754.333,464.833 754.333,463.167 755,461.5C 756.518,460.837 757.685,459.837 758.5,458.5C 780.471,470.361 802.804,471.194 825.5,461C 828.833,458.333 832.167,455.667 835.5,453C 837.025,451.991 838.692,451.491 840.5,451.5C 841.372,460.227 842.372,468.894 843.5,477.5 Z"/></g>
<g><path style="opacity:1" fill="#100c06" d="M 654.5,455.5 C 658.516,454.9 662.016,455.9 665,458.5C 665.81,463.359 663.81,466.359 659,467.5C 650.913,465.99 649.413,461.99 654.5,455.5 Z"/></g>
<g><path style="opacity:1" fill="#cfab7f" d="M 223.5,530.5 C 225.649,532.746 228.316,534.246 231.5,535C 239.687,535.822 247.687,535.322 255.5,533.5C 255.128,544.499 254.794,555.499 254.5,566.5C 255.5,566.5 256.5,566.5 257.5,566.5C 256.791,567.404 255.791,567.737 254.5,567.5C 252.95,575.383 248.95,581.716 242.5,586.5C 234.115,583.65 225.448,582.983 216.5,584.5C 208.827,583.566 201.16,582.566 193.5,581.5C 198.12,578.053 202.62,574.386 207,570.5C 208.914,565.665 211.581,561.331 215,557.5C 217.423,548.375 220.257,539.375 223.5,530.5 Z"/></g>
<g><path style="opacity:1" fill="#0b0804" d="M 757.5,531.5 C 759.515,532.924 761.848,533.59 764.5,533.5C 779.194,540.833 793.527,539.999 807.5,531C 814.47,529.799 817.636,532.633 817,539.5C 809.963,542.602 803.13,546.102 796.5,550C 786.122,550.292 775.789,549.625 765.5,548C 747.621,537.672 728.287,533.006 707.5,534C 701.925,535.515 696.258,536.515 690.5,537C 686.385,538.223 682.718,540.223 679.5,543C 676.226,544.202 672.893,545.202 669.5,546C 664.97,550.868 659.637,554.535 653.5,557C 640.409,567.538 626.409,576.538 611.5,584C 588.761,588.655 565.761,591.321 542.5,592C 537.179,595.109 531.512,597.442 525.5,599C 518.128,604.678 510.795,610.345 503.5,616C 496.026,618.508 492.859,616.008 494,608.5C 496.19,606.612 498.023,604.445 499.5,602C 509.147,596.366 518.813,590.699 528.5,585C 532.571,582.797 536.904,581.464 541.5,581C 554.107,579.27 566.773,578.27 579.5,578C 603.599,575.447 624.599,566.114 642.5,550C 650.295,546.54 657.295,541.874 663.5,536C 669.549,534.142 675.216,531.475 680.5,528C 697.779,522.28 715.446,520.947 733.5,524C 741.497,526.85 749.497,529.35 757.5,531.5 Z"/></g>
<g><path style="opacity:1" fill="#887109" d="M 757.5,531.5 C 760.152,531.41 762.485,532.076 764.5,533.5C 761.848,533.59 759.515,532.924 757.5,531.5 Z"/></g>
<g><path style="opacity:1" fill="#cca97d" d="M 181.5,592.5 C 197.105,594.022 212.771,595.188 228.5,596C 232.26,595.806 235.426,596.973 238,599.5C 238.667,600.5 238.667,601.5 238,602.5C 236.055,603.863 233.888,604.697 231.5,605C 229.623,607.251 228.123,609.751 227,612.5C 226.251,617.332 224.917,621.999 223,626.5C 222.501,630.486 222.334,634.486 222.5,638.5C 216.052,634.577 210.218,629.577 205,623.5C 200.744,617.24 195.744,611.573 190,606.5C 186.517,602.193 183.683,597.527 181.5,592.5 Z"/></g>
<g><path style="opacity:1" fill="#cdaa7e" d="M 245.5,611.5 C 247.857,611.337 250.19,611.503 252.5,612C 265.72,622.776 280.053,631.776 295.5,639C 296.667,640.167 297.833,641.333 299,642.5C 297,651.832 295,661.166 293,670.5C 291.833,671.667 290.667,672.833 289.5,674C 278.111,674.486 267.444,671.819 257.5,666C 249.592,660.128 241.426,654.628 233,649.5C 232.836,638.974 234.169,628.64 237,618.5C 237.465,617.069 238.299,615.903 239.5,615C 241.727,614.059 243.727,612.892 245.5,611.5 Z"/></g>
<g><path style="opacity:1" fill="#0c0906" d="M 251.5,629.5 C 256.08,629.113 260.414,629.947 264.5,632C 268.364,635.432 272.698,638.099 277.5,640C 280.596,642.029 282.262,644.862 282.5,648.5C 280.143,648.663 277.81,648.497 275.5,648C 269.735,645.302 263.902,642.802 258,640.5C 256.289,640.439 254.956,641.106 254,642.5C 253.151,645.521 252.317,648.521 251.5,651.5C 249.856,651.714 248.356,651.38 247,650.5C 246.211,644.763 246.544,639.097 248,633.5C 249.102,632.051 250.269,630.718 251.5,629.5 Z"/></g>
<g><path style="opacity:1" fill="#f8eee3" d="M 800.5,663.5 C 795.622,666.55 792.456,670.883 791,676.5C 785.833,681.667 780.667,686.833 775.5,692C 763.191,700.219 750.524,707.885 737.5,715C 733.902,715.154 730.569,716.154 727.5,718C 725.695,720.403 723.362,722.07 720.5,723C 710.865,724.992 701.532,727.826 692.5,731.5C 688.885,726.045 685.052,720.712 681,715.5C 680.312,714.668 680.479,714.002 681.5,713.5C 689.42,709.634 697.753,707.134 706.5,706C 711.191,702.434 716.524,700.434 722.5,700C 732.183,694.158 742.183,688.824 752.5,684C 760.307,678.925 767.974,673.591 775.5,668C 785.958,658.71 795.958,648.876 805.5,638.5C 806.657,641.784 806.824,645.118 806,648.5C 804.395,653.597 802.562,658.597 800.5,663.5 Z"/></g>
<g><path style="opacity:1" fill="#d88d2e" d="M 271.5,699.5 C 261.845,696.111 251.845,694.445 241.5,694.5C 231.308,695.953 221.641,699.119 212.5,704C 208.062,708.439 203.062,712.106 197.5,715C 193.155,719.88 188.489,724.38 183.5,728.5C 179.236,734.934 174.402,740.934 169,746.5C 168.71,748.952 168.044,751.285 167,753.5C 161.302,758.562 157.968,764.896 157,772.5C 154.412,776.674 152.079,781.007 150,785.5C 143.858,803.428 138.358,821.428 133.5,839.5C 128.157,834.156 123.157,828.489 118.5,822.5C 121.022,809.784 125.522,797.784 132,786.5C 133.333,782.5 134.667,778.5 136,774.5C 141.553,768.064 145.553,760.731 148,752.5C 153.314,747.861 156.981,742.195 159,735.5C 170.747,719.688 182.747,704.022 195,688.5C 204.512,679.288 213.678,669.788 222.5,660C 223.833,659.333 225.167,659.333 226.5,660C 237.334,666.918 248.334,673.585 259.5,680C 264.668,685.848 268.668,692.348 271.5,699.5 Z"/></g>
<g><path style="opacity:1" fill="#d0ab7f" d="M 415.5,703.5 C 417.7,705.64 420.367,707.14 423.5,708C 438.119,711.65 452.452,716.317 466.5,722C 487.563,727.795 508.896,732.795 530.5,737C 575.396,744.797 620.396,745.463 665.5,739C 666.328,738.085 667.328,737.419 668.5,737C 672.736,736.665 676.736,735.832 680.5,734.5C 682.281,737.183 682.781,740.183 682,743.5C 679.117,748.599 676.783,753.933 675,759.5C 673.159,763.183 670.826,766.516 668,769.5C 667.333,772.167 666.667,774.833 666,777.5C 660.372,787.368 655.039,797.368 650,807.5C 647.141,816.216 643.474,824.549 639,832.5C 624.715,835.782 610.215,838.116 595.5,839.5C 587.161,837.342 580.995,832.342 577,824.5C 575.269,822.383 573.102,820.883 570.5,820C 547.838,812.25 524.838,805.584 501.5,800C 487.484,795.328 473.484,790.661 459.5,786C 402.548,761.703 352.714,727.203 310,682.5C 308.333,680.167 306.667,677.833 305,675.5C 304.658,670.894 305.158,666.394 306.5,662C 307.833,661.333 309.167,661.333 310.5,662C 323.19,667.178 335.524,673.178 347.5,680C 359.445,683.467 371.111,687.801 382.5,693C 388.5,694.333 394.5,695.667 400.5,697C 405.752,698.721 410.752,700.887 415.5,703.5 Z"/></g>
<g><path style="opacity:0.998" fill="#d0ab7f" d="M 640.5,868.5 C 639.539,866.735 639.205,864.735 639.5,862.5C 622.196,863.849 604.863,864.849 587.5,865.5C 577.162,865.087 566.829,864.587 556.5,864C 536.616,861.536 516.95,858.202 497.5,854C 486.104,850.457 474.77,846.79 463.5,843C 446.895,839.131 430.895,833.464 415.5,826C 409.081,824.291 402.748,822.291 396.5,820C 385.222,813.862 373.555,808.528 361.5,804C 359.167,802.333 356.833,800.667 354.5,799C 351.833,798.333 349.167,798.333 346.5,799C 344.291,800.873 342.458,803.04 341,805.5C 340.308,812.703 338.975,819.703 337,826.5C 336.709,839.001 335.376,851.335 333,863.5C 330.127,871.551 328.793,879.885 329,888.5C 328.083,891.984 326.75,895.317 325,898.5C 322.357,911.749 320.023,925.083 318,938.5C 314.733,946.257 312.566,954.257 311.5,962.5C 283.315,951.077 256.648,937.077 231.5,920.5C 237.226,908.907 241.726,896.907 245,884.5C 249.734,875.222 253.401,865.555 256,855.5C 259.115,850.028 261.782,844.361 264,838.5C 268.09,833.982 271.423,828.982 274,823.5C 282.276,817.889 289.943,811.556 297,804.5C 301.102,797.6 303.268,790.1 303.5,782C 302.908,773.839 302.408,765.673 302,757.5C 298.389,739.111 293.389,721.111 287,703.5C 284.233,697.742 281.066,692.242 277.5,687C 282.955,686.853 288.288,686.02 293.5,684.5C 296.28,686.103 298.946,687.937 301.5,690C 324.986,712.828 349.653,734.161 375.5,754C 403.152,772.493 432.485,787.826 463.5,800C 488.536,807.67 513.536,815.337 538.5,823C 548.292,824.156 557.626,826.823 566.5,831C 571.167,836.333 575.833,841.667 580.5,847C 582.717,848.275 585.051,849.275 587.5,850C 603.529,850.35 619.363,848.85 635,845.5C 636.167,845.833 637.333,846.167 638.5,846.5C 639.522,853.781 640.189,861.115 640.5,868.5 Z"/></g>
<g><path style="opacity:0.996" fill="#fac901" d="M 271.5,699.5 C 286.177,728.386 292.677,759.053 291,791.5C 289.374,793.917 287.874,796.417 286.5,799C 285.167,799.667 283.833,800.333 282.5,801C 279.302,804.112 276.302,807.445 273.5,811C 271.899,811.273 270.399,811.773 269,812.5C 267.71,814.792 266.043,816.792 264,818.5C 261.511,823.673 258.178,828.34 254,832.5C 251.039,840.071 247.706,847.404 244,854.5C 243.474,858.662 242.474,862.662 241,866.5C 236.081,876.86 232.081,887.526 229,898.5C 225.552,903.745 223.386,909.412 222.5,915.5C 189.867,893.885 160.2,868.551 133.5,839.5C 138.358,821.428 143.858,803.428 150,785.5C 152.079,781.007 154.412,776.674 157,772.5C 157.968,764.896 161.302,758.562 167,753.5C 168.044,751.285 168.71,748.952 169,746.5C 174.402,740.934 179.236,734.934 183.5,728.5C 188.489,724.38 193.155,719.88 197.5,715C 203.062,712.106 208.062,708.439 212.5,704C 221.641,699.119 231.308,695.953 241.5,694.5C 251.845,694.445 261.845,696.111 271.5,699.5 Z"/></g>
<g><path style="opacity:1" fill="#cfab7f" d="M 800.5,663.5 C 797.1,672.734 792.6,681.401 787,689.5C 785.382,693.068 784.049,696.735 783,700.5C 777.242,706.804 773.242,714.137 771,722.5C 770,723.5 769,724.5 768,725.5C 762.435,736.733 756.435,747.733 750,758.5C 745.833,762.667 741.667,766.833 737.5,771C 721.194,782.953 705.694,796.12 691,810.5C 686.818,816.34 682.318,821.84 677.5,827C 669.497,828.115 661.497,829.615 653.5,831.5C 655.515,826.304 657.349,820.971 659,815.5C 664.232,810.271 667.232,803.938 668,796.5C 669.752,793.328 671.752,790.328 674,787.5C 679.554,774.2 685.888,761.2 693,748.5C 694.912,742.784 694.745,737.117 692.5,731.5C 701.532,727.826 710.865,724.992 720.5,723C 723.362,722.07 725.695,720.403 727.5,718C 730.569,716.154 733.902,715.154 737.5,715C 750.524,707.885 763.191,700.219 775.5,692C 780.667,686.833 785.833,681.667 791,676.5C 792.456,670.883 795.622,666.55 800.5,663.5 Z"/></g>
<g><path style="opacity:0.995" fill="#fac901" d="M 799.5,706.5 C 802.908,714.329 806.074,722.329 809,730.5C 810.752,741.601 812.918,752.601 815.5,763.5C 815.376,769.069 816.043,774.402 817.5,779.5C 824.164,813.744 825.164,848.077 820.5,882.5C 807.882,893.473 794.549,903.473 780.5,912.5C 779.957,884.543 779.124,856.543 778,828.5C 776.165,820.484 776.332,812.484 778.5,804.5C 777.489,799.191 777.322,793.857 778,788.5C 779.45,780.445 781.116,772.445 783,764.5C 784.57,763.386 785.903,762.053 787,760.5C 789.295,753.365 791.961,746.365 795,739.5C 795.961,728.321 797.461,717.321 799.5,706.5 Z"/></g>
<g><path style="opacity:1" fill="#f6ece0" d="M 415.5,703.5 C 429.069,705.37 442.402,708.537 455.5,713C 461.84,713.601 468.174,714.267 474.5,715C 478.194,717.079 482.194,718.412 486.5,719C 502.771,720.741 519.104,722.408 535.5,724C 579.633,726.401 623.3,723.568 666.5,715.5C 668.149,716.648 669.649,717.981 671,719.5C 674.177,724.528 677.344,729.528 680.5,734.5C 676.736,735.832 672.736,736.665 668.5,737C 667.328,737.419 666.328,738.085 665.5,739C 620.396,745.463 575.396,744.797 530.5,737C 508.896,732.795 487.563,727.795 466.5,722C 452.452,716.317 438.119,711.65 423.5,708C 420.367,707.14 417.7,705.64 415.5,703.5 Z"/></g>
<g><path style="opacity:0.993" fill="#d88d2e" d="M 799.5,706.5 C 797.461,717.321 795.961,728.321 795,739.5C 791.961,746.365 789.295,753.365 787,760.5C 785.903,762.053 784.57,763.386 783,764.5C 781.116,772.445 779.45,780.445 778,788.5C 777.322,793.857 777.489,799.191 778.5,804.5C 776.332,812.484 776.165,820.484 778,828.5C 779.124,856.543 779.957,884.543 780.5,912.5C 773.542,917.652 766.208,922.319 758.5,926.5C 758.624,895.275 758.624,864.108 758.5,833C 758.941,808.096 760.441,783.263 763,758.5C 764.882,753.956 767.549,749.956 771,746.5C 773.027,739.158 776.693,732.825 782,727.5C 783.139,721.424 785.806,716.091 790,711.5C 791.383,708.141 792.716,704.807 794,701.5C 794.667,700.833 795.333,700.167 796,699.5C 797.646,701.609 798.812,703.943 799.5,706.5 Z"/></g>
<g><path style="opacity:1" fill="#aa8a04" d="M 815.5,763.5 C 816.957,768.598 817.624,773.931 817.5,779.5C 816.043,774.402 815.376,769.069 815.5,763.5 Z"/></g>
<g><path style="opacity:1" fill="#ceaa7f" d="M 748.5,809.5 C 747.835,807.302 747.168,804.969 746.5,802.5C 746.167,802.667 745.833,802.833 745.5,803C 736.683,812.651 727.683,822.151 718.5,831.5C 711.456,835.375 705.122,840.208 699.5,846C 685.048,853.559 669.715,858.226 653.5,860C 651.893,861.049 651.227,862.549 651.5,864.5C 650.725,857.647 650.058,850.647 649.5,843.5C 659.399,841.512 669.399,840.012 679.5,839C 681.996,837.92 684.33,836.586 686.5,835C 693.417,825.412 701.084,816.412 709.5,808C 716.04,804.467 721.706,799.8 726.5,794C 734.265,788.737 741.599,782.904 748.5,776.5C 748.837,787.462 748.837,798.462 748.5,809.5 Z"/></g>
<g><path style="opacity:0.996" fill="#fefefe" d="M 640.5,868.5 C 643.554,904.434 645.887,940.434 647.5,976.5C 573.493,999.257 498.159,1004.76 421.5,993C 383.659,986.874 346.992,976.708 311.5,962.5C 312.566,954.257 314.733,946.257 318,938.5C 320.023,925.083 322.357,911.749 325,898.5C 326.75,895.317 328.083,891.984 329,888.5C 328.793,879.885 330.127,871.551 333,863.5C 335.376,851.335 336.709,839.001 337,826.5C 338.975,819.703 340.308,812.703 341,805.5C 342.458,803.04 344.291,800.873 346.5,799C 349.167,798.333 351.833,798.333 354.5,799C 356.833,800.667 359.167,802.333 361.5,804C 373.555,808.528 385.222,813.862 396.5,820C 402.748,822.291 409.081,824.291 415.5,826C 430.895,833.464 446.895,839.131 463.5,843C 474.77,846.79 486.104,850.457 497.5,854C 516.95,858.202 536.616,861.536 556.5,864C 566.829,864.587 577.162,865.087 587.5,865.5C 604.863,864.849 622.196,863.849 639.5,862.5C 639.205,864.735 639.539,866.735 640.5,868.5 Z"/></g>
<g><path style="opacity:0.994" fill="#fdfdfd" d="M 748.5,809.5 C 747.9,824.669 747.233,839.835 746.5,855C 747.018,881.399 747.351,907.566 747.5,933.5C 719.379,949.227 690.046,962.227 659.5,972.5C 658.99,965.805 658.157,959.138 657,952.5C 656.317,923.065 654.484,893.731 651.5,864.5C 651.227,862.549 651.893,861.049 653.5,860C 669.715,858.226 685.048,853.559 699.5,846C 705.122,840.208 711.456,835.375 718.5,831.5C 727.683,822.151 736.683,812.651 745.5,803C 745.833,802.833 746.167,802.667 746.5,802.5C 747.168,804.969 747.835,807.302 748.5,809.5 Z"/></g>
<g><path style="opacity:1" fill="#897a4d" d="M 834.5,853.5 C 835.487,858.305 835.821,863.305 835.5,868.5C 835.167,869.5 834.5,870.167 833.5,870.5C 834.407,864.894 834.74,859.227 834.5,853.5 Z"/></g>
</svg>
