<svg xmlns="http://www.w3.org/2000/svg" version="1.1" width="250px" height="250px" style="shape-rendering:geometricPrecision; text-rendering:geometricPrecision; image-rendering:optimizeQuality; fill-rule:evenodd; clip-rule:evenodd" xmlns:xlink="http://www.w3.org/1999/xlink">
<g><path style="opacity:1" fill="#cb6cdb" d="M 111.5,-0.5 C 112.833,-0.5 114.167,-0.5 115.5,-0.5C 120.814,4.6558 125.647,10.3225 130,16.5C 133.745,23.5826 136.578,30.9159 138.5,38.5C 137.713,40.1042 136.38,40.7709 134.5,40.5C 133.304,35.6902 130.971,35.1902 127.5,39C 125.527,39.4955 123.527,39.6621 121.5,39.5C 118.744,31.6364 116.244,23.6364 114,15.5C 112.066,13.0573 109.566,11.724 106.5,11.5C 107.404,7.10524 109.071,3.10524 111.5,-0.5 Z"/></g>
<g><path style="opacity:0.929" fill="#9f50b6" d="M 106.5,11.5 C 109.566,11.724 112.066,13.0573 114,15.5C 116.244,23.6364 118.744,31.6364 121.5,39.5C 123.527,39.6621 125.527,39.4955 127.5,39C 130.971,35.1902 133.304,35.6902 134.5,40.5C 132.5,41.5 130.5,42.5 128.5,43.5C 124.316,43.8509 120.316,44.5176 116.5,45.5C 115.292,46.2341 113.959,46.5674 112.5,46.5C 106.99,47.2108 101.657,47.2108 96.5,46.5C 99.4873,45.7422 102.487,44.9089 105.5,44C 106.022,43.4387 106.355,42.772 106.5,42C 104.49,37.9594 103.49,33.6261 103.5,29C 103.813,22.9549 104.813,17.1216 106.5,11.5 Z"/></g>
<g><path style="opacity:1" fill="#e15798" d="M 228.5,19.5 C 201.558,29.4726 175.224,40.8059 149.5,53.5C 148.167,53.8333 146.833,54.1667 145.5,54.5C 144.115,53.6977 144.282,53.0311 146,52.5C 153.084,49.3755 159.917,45.8755 166.5,42C 165.216,41.3162 164.049,41.4829 163,42.5C 161.67,38.9933 159.17,37.3266 155.5,37.5C 155.97,36.3065 156.97,35.6399 158.5,35.5C 183.388,28.8915 208.222,22.2248 233,15.5C 234.727,15.6465 234.894,16.3131 233.5,17.5C 231.978,18.562 230.312,19.2287 228.5,19.5 Z"/></g>
<g><path style="opacity:1" fill="#cb4d92" d="M 155.5,37.5 C 159.17,37.3266 161.67,38.9933 163,42.5C 164.049,41.4829 165.216,41.3162 166.5,42C 159.917,45.8755 153.084,49.3755 146,52.5C 144.282,53.0311 144.115,53.6977 145.5,54.5C 137.706,58.5647 130.04,62.8981 122.5,67.5C 121.957,67.44 121.624,67.1067 121.5,66.5C 123.167,65.5 124.5,64.1667 125.5,62.5C 125.507,58.3375 125.34,54.0041 125,49.5C 124.667,49.8333 124.333,50.1667 124,50.5C 122.938,49.1007 121.605,48.1007 120,47.5C 117.88,48.4589 115.713,48.6256 113.5,48C 114.5,47.6667 115.5,47.3333 116.5,47C 117.738,46.31 117.738,45.81 116.5,45.5C 120.316,44.5176 124.316,43.8509 128.5,43.5C 137.487,41.3916 146.487,39.3916 155.5,37.5 Z"/></g>
<g><path style="opacity:0.404" fill="#e98bb9" d="M 171.5,57.5 C 173.297,56.607 174.63,55.2737 175.5,53.5C 193.149,42.193 210.816,30.8597 228.5,19.5C 230.312,19.2287 231.978,18.562 233.5,17.5C 234.894,16.3131 234.727,15.6465 233,15.5C 208.222,22.2248 183.388,28.8915 158.5,35.5C 156.97,35.6399 155.97,36.3065 155.5,37.5C 146.487,39.3916 137.487,41.3916 128.5,43.5C 130.5,42.5 132.5,41.5 134.5,40.5C 136.38,40.7709 137.713,40.1042 138.5,38.5C 174.033,28.7001 209.699,19.3667 245.5,10.5C 245.5,11.5 245.5,12.5 245.5,13.5C 222.139,27.0161 199.139,41.1828 176.5,56C 174.975,57.0086 173.308,57.5086 171.5,57.5 Z"/></g>
<g><path style="opacity:1" fill="#ae3e89" d="M 228.5,19.5 C 210.816,30.8597 193.149,42.193 175.5,53.5C 172.339,54.9131 169.339,56.5797 166.5,58.5C 166.631,57.6236 166.298,56.9569 165.5,56.5C 163.201,57.6351 161.034,58.9684 159,60.5C 156.186,59.0336 153.353,57.5336 150.5,56C 151.883,54.5391 151.549,53.7058 149.5,53.5C 175.224,40.8059 201.558,29.4726 228.5,19.5 Z"/></g>
<g><path style="opacity:1" fill="#9a3685" d="M 149.5,53.5 C 151.549,53.7058 151.883,54.5391 150.5,56C 153.353,57.5336 156.186,59.0336 159,60.5C 161.034,58.9684 163.201,57.6351 165.5,56.5C 166.298,56.9569 166.631,57.6236 166.5,58.5C 154.635,64.929 142.969,71.5957 131.5,78.5C 130.279,79.0283 129.113,79.695 128,80.5C 124.759,77.1357 122.259,73.469 120.5,69.5C 121.167,68.8333 121.833,68.1667 122.5,67.5C 130.04,62.8981 137.706,58.5647 145.5,54.5C 146.833,54.1667 148.167,53.8333 149.5,53.5 Z"/></g>
<g><path style="opacity:0.506" fill="#c66ba7" d="M 175.5,53.5 C 174.63,55.2737 173.297,56.607 171.5,57.5C 171.047,58.4584 170.381,59.2917 169.5,60C 163.271,63.6049 157.271,66.7715 151.5,69.5C 145.259,71.9539 139.259,74.9539 133.5,78.5C 132.833,78.5 132.167,78.5 131.5,78.5C 142.969,71.5957 154.635,64.929 166.5,58.5C 169.339,56.5797 172.339,54.9131 175.5,53.5 Z"/></g>
<g><path style="opacity:1" fill="#af3f8a" d="M 116.5,45.5 C 117.738,45.81 117.738,46.31 116.5,47C 115.5,47.3333 114.5,47.6667 113.5,48C 115.713,48.6256 117.88,48.4589 120,47.5C 121.605,48.1007 122.938,49.1007 124,50.5C 124.333,50.1667 124.667,49.8333 125,49.5C 125.34,54.0041 125.507,58.3375 125.5,62.5C 124.5,64.1667 123.167,65.5 121.5,66.5C 121.624,67.1067 121.957,67.44 122.5,67.5C 121.833,68.1667 121.167,68.8333 120.5,69.5C 111.28,75.4534 103.28,82.7868 96.5,91.5C 95.5354,90.2789 95.702,88.9456 97,87.5C 98.6851,85.9825 100.185,84.3159 101.5,82.5C 101.167,82.1667 100.833,81.8333 100.5,81.5C 99.5,82.1667 98.5,82.8333 97.5,83.5C 91.4862,80.484 86.1529,76.484 81.5,71.5C 80.1861,72.3128 79.0195,73.3128 78,74.5C 77.5357,73.9056 77.369,73.2389 77.5,72.5C 86.485,60.1791 98.1516,51.5124 112.5,46.5C 113.959,46.5674 115.292,46.2341 116.5,45.5 Z"/></g>
<g><path style="opacity:1" fill="#a13987" d="M 96.5,91.5 C 92.468,97.9464 89.8013,104.946 88.5,112.5C 87.6787,115.641 87.1787,118.975 87,122.5C 86.6667,117.5 86.3333,112.5 86,107.5C 80.8549,103.695 75.6882,99.862 70.5,96C 69.552,95.5172 68.552,95.3505 67.5,95.5C 67.5,93.8333 67.5,92.1667 67.5,90.5C 69.2964,83.5674 72.6297,77.5674 77.5,72.5C 77.369,73.2389 77.5357,73.9056 78,74.5C 79.0195,73.3128 80.1861,72.3128 81.5,71.5C 86.1529,76.484 91.4862,80.484 97.5,83.5C 98.5,82.8333 99.5,82.1667 100.5,81.5C 100.833,81.8333 101.167,82.1667 101.5,82.5C 100.185,84.3159 98.6851,85.9825 97,87.5C 95.702,88.9456 95.5354,90.2789 96.5,91.5 Z"/></g>
<g><path style="opacity:0.992" fill="#994cb4" d="M 151.5,69.5 C 154.687,74.4058 157.687,79.4058 160.5,84.5C 155.821,84.3342 151.155,84.5008 146.5,85C 145.241,85.9234 143.908,86.7568 142.5,87.5C 150.932,93.6913 155.765,102.025 157,112.5C 162.406,126.239 170.572,138.072 181.5,148C 184.206,149.908 187.206,150.741 190.5,150.5C 192.413,158.3 191.413,165.633 187.5,172.5C 186.234,171.91 184.901,171.41 183.5,171C 184.167,170.667 184.833,170.333 185.5,170C 161.523,146.191 137.856,122.358 114.5,98.5C 115.574,97.1154 116.907,95.9487 118.5,95C 124.96,91.4345 131.627,88.4345 138.5,86C 134.702,84.2173 130.702,83.3839 126.5,83.5C 128.657,81.5879 130.991,79.9213 133.5,78.5C 139.259,74.9539 145.259,71.9539 151.5,69.5 Z"/></g>
<g><path style="opacity:1" fill="#762b80" d="M 120.5,69.5 C 122.259,73.469 124.759,77.1357 128,80.5C 129.113,79.695 130.279,79.0283 131.5,78.5C 132.167,78.5 132.833,78.5 133.5,78.5C 130.991,79.9213 128.657,81.5879 126.5,83.5C 116.772,88.1192 107.939,94.1192 100,101.5C 93.7026,109.764 90.5359,119.097 90.5,129.5C 88.7949,124.097 88.1282,118.43 88.5,112.5C 89.8013,104.946 92.468,97.9464 96.5,91.5C 103.28,82.7868 111.28,75.4534 120.5,69.5 Z"/></g>
<g><path style="opacity:0.991" fill="#7c2b80" d="M 96.5,46.5 C 101.657,47.2108 106.99,47.2108 112.5,46.5C 98.1516,51.5124 86.485,60.1791 77.5,72.5C 72.6297,77.5674 69.2964,83.5674 67.5,90.5C 62.9475,101.975 61.4475,113.975 63,126.5C 63.1829,129.365 63.6829,132.031 64.5,134.5C 64.9028,137.486 65.9028,140.152 67.5,142.5C 68.1098,143.391 68.4431,144.391 68.5,145.5C 67.5416,145.047 66.7083,144.381 66,143.5C 63.0853,151.247 57.9187,156.913 50.5,160.5C 48.7099,159.214 47.0432,157.714 45.5,156C 40.4912,154.995 36.1579,152.661 32.5,149C 30.2305,148.242 28.0639,148.409 26,149.5C 24.1129,147.974 23.1129,145.974 23,143.5C 22.9964,146.792 21.8297,149.458 19.5,151.5C 20.6596,102.57 43.3262,68.4035 87.5,49C 90.5789,48.3146 93.5789,47.4812 96.5,46.5 Z"/></g>
<g><path style="opacity:0.993" fill="#723296" d="M 126.5,83.5 C 130.702,83.3839 134.702,84.2173 138.5,86C 131.627,88.4345 124.96,91.4345 118.5,95C 116.907,95.9487 115.574,97.1154 114.5,98.5C 111.371,99.7952 109.038,101.962 107.5,105C 114.221,119.05 124.888,129.05 139.5,135C 141.333,136.833 143.167,138.667 145,140.5C 149.13,148.753 153.797,156.753 159,164.5C 161.5,166.333 164,168.167 166.5,170C 172.862,171.626 179.029,173.46 185,175.5C 185.278,174.584 185.778,173.918 186.5,173.5C 185.463,177.553 182.796,180.053 178.5,181C 167.716,182.053 157.549,180.22 148,175.5C 144.791,171.719 142.625,167.386 141.5,162.5C 139.397,158.894 136.731,155.727 133.5,153C 122.167,149.407 111.167,145.074 100.5,140C 98.2488,137.242 95.5821,135.075 92.5,133.5C 92.3404,131.847 91.6737,130.514 90.5,129.5C 90.5359,119.097 93.7026,109.764 100,101.5C 107.939,94.1192 116.772,88.1192 126.5,83.5 Z"/></g>
<g><path style="opacity:0.944" fill="#ba61ce" d="M 160.5,84.5 C 171.067,106.183 181.067,128.183 190.5,150.5C 187.206,150.741 184.206,149.908 181.5,148C 170.572,138.072 162.406,126.239 157,112.5C 155.765,102.025 150.932,93.6913 142.5,87.5C 143.908,86.7568 145.241,85.9234 146.5,85C 151.155,84.5008 155.821,84.3342 160.5,84.5 Z"/></g>
<g><path style="opacity:1" fill="#943485" d="M 67.5,90.5 C 67.5,92.1667 67.5,93.8333 67.5,95.5C 68.552,95.3505 69.552,95.5172 70.5,96C 75.6882,99.862 80.8549,103.695 86,107.5C 86.3333,112.5 86.6667,117.5 87,122.5C 87.1787,118.975 87.6787,115.641 88.5,112.5C 88.1282,118.43 88.7949,124.097 90.5,129.5C 91.6737,130.514 92.3404,131.847 92.5,133.5C 92.5,134.167 92.5,134.833 92.5,135.5C 91.8333,135.5 91.1667,135.5 90.5,135.5C 90.5086,133.692 90.0086,132.025 89,130.5C 86.2415,134.908 82.2415,136.575 77,135.5C 73.4103,135.528 69.9103,135.028 66.5,134C 65.1177,129.295 64.4511,129.461 64.5,134.5C 63.6829,132.031 63.1829,129.365 63,126.5C 61.4475,113.975 62.9475,101.975 67.5,90.5 Z"/></g>
<g><path style="opacity:1" fill="#a13987" d="M 90.5,135.5 C 92.9171,143.665 96.9171,150.999 102.5,157.5C 101.975,158.192 101.308,158.692 100.5,159C 101.573,160.25 101.573,161.584 100.5,163C 102.756,164.834 102.756,166.501 100.5,168C 102.02,170.54 103.02,173.373 103.5,176.5C 105.537,177.27 105.703,177.937 104,178.5C 96.9648,176.066 90.7982,172.232 85.5,167C 78.4273,158.938 72.594,150.105 68,140.5C 67.5357,141.094 67.369,141.761 67.5,142.5C 65.9028,140.152 64.9028,137.486 64.5,134.5C 64.4511,129.461 65.1177,129.295 66.5,134C 69.9103,135.028 73.4103,135.528 77,135.5C 82.2415,136.575 86.2415,134.908 89,130.5C 90.0086,132.025 90.5086,133.692 90.5,135.5 Z"/></g>
<g><path style="opacity:1" fill="#8c43aa" d="M 114.5,98.5 C 137.856,122.358 161.523,146.191 185.5,170C 184.833,170.333 184.167,170.667 183.5,171C 184.901,171.41 186.234,171.91 187.5,172.5C 187.5,173.167 187.167,173.5 186.5,173.5C 185.778,173.918 185.278,174.584 185,175.5C 179.029,173.46 172.862,171.626 166.5,170C 164,168.167 161.5,166.333 159,164.5C 153.797,156.753 149.13,148.753 145,140.5C 143.167,138.667 141.333,136.833 139.5,135C 124.888,129.05 114.221,119.05 107.5,105C 109.038,101.962 111.371,99.7952 114.5,98.5 Z"/></g>
<g><path style="opacity:0.996" fill="#62217b" d="M 68.5,145.5 C 82.3611,175.744 105.694,190.077 138.5,188.5C 140.326,190.147 141.66,192.147 142.5,194.5C 138.255,191.774 133.589,190.94 128.5,192C 131.553,192.179 134.553,192.679 137.5,193.5C 134.341,194.71 131.174,194.71 128,193.5C 123.468,196.462 119.468,195.795 116,191.5C 115,192.833 114,192.833 113,191.5C 107.668,196.096 102.168,196.763 96.5,193.5C 94.8957,193.939 93.3957,194.606 92,195.5C 90.9079,194.704 89.7412,194.037 88.5,193.5C 82.4893,193.496 76.4893,193.496 70.5,193.5C 69.1255,192.289 67.6255,191.289 66,190.5C 64.3468,190.82 63.3468,191.82 63,193.5C 60.434,191.27 57.434,189.936 54,189.5C 51.024,190.52 48.3573,190.52 46,189.5C 45.1667,188.667 44.3333,187.833 43.5,187C 38.7186,186.119 34.2186,184.619 30,182.5C 29.8019,184.382 29.3019,186.048 28.5,187.5C 23.7983,175.984 20.7983,163.984 19.5,151.5C 21.8297,149.458 22.9964,146.792 23,143.5C 23.1129,145.974 24.1129,147.974 26,149.5C 28.0639,148.409 30.2305,148.242 32.5,149C 36.1579,152.661 40.4912,154.995 45.5,156C 47.0432,157.714 48.7099,159.214 50.5,160.5C 57.9187,156.913 63.0853,151.247 66,143.5C 66.7083,144.381 67.5416,145.047 68.5,145.5 Z"/></g>
<g><path style="opacity:0.986" fill="#b6438d" d="M 90.5,135.5 C 91.1667,135.5 91.8333,135.5 92.5,135.5C 94.5271,141.219 97.3604,146.552 101,151.5C 109.924,161.096 119.424,169.929 129.5,178C 132.98,181.077 135.98,184.577 138.5,188.5C 105.694,190.077 82.3611,175.744 68.5,145.5C 68.4431,144.391 68.1098,143.391 67.5,142.5C 67.369,141.761 67.5357,141.094 68,140.5C 72.594,150.105 78.4273,158.938 85.5,167C 90.7982,172.232 96.9648,176.066 104,178.5C 105.703,177.937 105.537,177.27 103.5,176.5C 103.02,173.373 102.02,170.54 100.5,168C 102.756,166.501 102.756,164.834 100.5,163C 101.573,161.584 101.573,160.25 100.5,159C 101.308,158.692 101.975,158.192 102.5,157.5C 96.9171,150.999 92.9171,143.665 90.5,135.5 Z"/></g>
<g><path style="opacity:0.994" fill="#5a1e7a" d="M 142.5,194.5 C 148.805,201.825 151.805,210.492 151.5,220.5C 149.905,218.889 148.739,216.889 148,214.5C 148.148,215.825 147.982,216.992 147.5,218C 144.137,218.125 140.804,218.958 137.5,220.5C 135.833,219.167 134.167,219.167 132.5,220.5C 131.252,219.96 130.085,219.293 129,218.5C 128.261,219.574 127.261,220.241 126,220.5C 122.006,220.336 118.006,220.336 114,220.5C 111.736,218.017 109.403,218.017 107,220.5C 105.103,220.104 103.603,219.104 102.5,217.5C 101.126,218.711 99.6255,219.711 98,220.5C 96.3745,219.711 94.8745,218.711 93.5,217.5C 90.658,220.283 88.158,219.95 86,216.5C 85.4387,217.022 84.772,217.355 84,217.5C 82.1052,216.311 80.1052,215.311 78,214.5C 77.3109,215.357 76.4776,216.023 75.5,216.5C 72.5835,214.266 69.4168,213.933 66,215.5C 64.0387,214.103 61.8721,213.103 59.5,212.5C 58.5581,212.608 57.7247,212.941 57,213.5C 55.2806,211.443 53.2806,209.776 51,208.5C 48.204,211.209 45.704,210.875 43.5,207.5C 43.0941,208.557 43.0941,209.891 43.5,211.5C 36.9595,204.592 31.9595,196.592 28.5,187.5C 29.3019,186.048 29.8019,184.382 30,182.5C 34.2186,184.619 38.7186,186.119 43.5,187C 44.3333,187.833 45.1667,188.667 46,189.5C 48.3573,190.52 51.024,190.52 54,189.5C 57.434,189.936 60.434,191.27 63,193.5C 63.3468,191.82 64.3468,190.82 66,190.5C 67.6255,191.289 69.1255,192.289 70.5,193.5C 76.4893,193.496 82.4893,193.496 88.5,193.5C 89.7412,194.037 90.9079,194.704 92,195.5C 93.3957,194.606 94.8957,193.939 96.5,193.5C 102.168,196.763 107.668,196.096 113,191.5C 114,192.833 115,192.833 116,191.5C 119.468,195.795 123.468,196.462 128,193.5C 131.174,194.71 134.341,194.71 137.5,193.5C 134.553,192.679 131.553,192.179 128.5,192C 133.589,190.94 138.255,191.774 142.5,194.5 Z"/></g>
<g><path style="opacity:0.966" fill="#541c78" d="M 151.5,220.5 C 152.229,228.482 151.729,236.482 150,244.5C 149.626,245.416 149.126,246.25 148.5,247C 146.256,247.05 144.589,247.883 143.5,249.5C 130.5,249.5 117.5,249.5 104.5,249.5C 92.5864,246.147 81.0864,241.48 70,235.5C 59.3999,229.397 50.5666,221.397 43.5,211.5C 43.0941,209.891 43.0941,208.557 43.5,207.5C 45.704,210.875 48.204,211.209 51,208.5C 53.2806,209.776 55.2806,211.443 57,213.5C 57.7247,212.941 58.5581,212.608 59.5,212.5C 61.8721,213.103 64.0387,214.103 66,215.5C 69.4168,213.933 72.5835,214.266 75.5,216.5C 76.4776,216.023 77.3109,215.357 78,214.5C 80.1052,215.311 82.1052,216.311 84,217.5C 84.772,217.355 85.4387,217.022 86,216.5C 88.158,219.95 90.658,220.283 93.5,217.5C 94.8745,218.711 96.3745,219.711 98,220.5C 99.6255,219.711 101.126,218.711 102.5,217.5C 103.603,219.104 105.103,220.104 107,220.5C 109.403,218.017 111.736,218.017 114,220.5C 118.006,220.336 122.006,220.336 126,220.5C 127.261,220.241 128.261,219.574 129,218.5C 130.085,219.293 131.252,219.96 132.5,220.5C 134.167,219.167 135.833,219.167 137.5,220.5C 140.804,218.958 144.137,218.125 147.5,218C 147.982,216.992 148.148,215.825 148,214.5C 148.739,216.889 149.905,218.889 151.5,220.5 Z"/></g>
</svg>
