<svg width="21" height="21" viewBox="0 0 21 21" fill="none" xmlns="http://www.w3.org/2000/svg">
<path d="M10.31 20.62C16.0238 20.62 20.62 16.0238 20.62 10.31C20.62 4.5962 16.0238 0 10.31 0C4.5962 0 0 4.5962 0 10.31C0 16.0238 4.5962 20.62 10.31 20.62Z" fill="#2775CA"/>
<path d="M13.4909 12.2521C13.4909 10.7489 12.5888 10.2334 10.7845 10.0179C9.49576 9.84574 9.23801 9.50242 9.23801 8.90135C9.23801 8.30028 9.66793 7.91365 10.5268 7.91365C11.3 7.91365 11.7299 8.1714 11.9444 8.81577C11.9877 8.94465 12.1166 9.03022 12.2454 9.03022H12.9331C13.1053 9.03022 13.2342 8.90135 13.2342 8.72917V8.68587C13.062 7.74044 12.2887 7.01049 11.301 6.92492V5.89392C11.301 5.72174 11.1722 5.59287 10.9577 5.5506H10.3133C10.1412 5.5506 10.0123 5.67947 9.97002 5.89392V6.88162C8.68127 7.0538 7.86471 7.91262 7.86471 8.98692C7.86471 10.4045 8.72354 10.9633 10.5278 11.1778C11.731 11.3922 12.1176 11.65 12.1176 12.3377C12.1176 13.0253 11.5165 13.4975 10.7 13.4975C9.58339 13.4975 9.19677 13.0253 9.06789 12.381C9.02459 12.2088 8.89571 12.1232 8.76684 12.1232H8.03689C7.86471 12.1232 7.73584 12.2521 7.73584 12.4243V12.4676C7.90802 13.5419 8.59466 14.3151 10.0123 14.5296V15.5606C10.0123 15.7328 10.1412 15.8616 10.3556 15.9039H11C11.1722 15.9039 11.301 15.775 11.3433 15.5606V14.5296C12.631 14.3141 13.4909 13.412 13.4909 12.2521Z" fill="white"/>
<path d="M8.46376 16.7627C5.11301 15.5595 3.39433 11.8222 4.64081 8.51472C5.28519 6.71047 6.70281 5.33614 8.46376 4.69177C8.63594 4.60619 8.72151 4.47732 8.72151 4.26184V3.66077C8.72151 3.48859 8.63594 3.35971 8.46376 3.31744C8.42046 3.31744 8.33489 3.31744 8.29158 3.36075C4.21089 4.6495 1.97671 8.98794 3.26546 13.0697C4.03871 15.475 5.88626 17.3225 8.29158 18.0958C8.46376 18.1814 8.63491 18.0958 8.67821 17.9236C8.72151 17.8803 8.72151 17.838 8.72151 17.7514V17.1504C8.72151 17.0205 8.59264 16.8493 8.46376 16.7627ZM13.0167 3.35971C12.8445 3.27414 12.6733 3.35972 12.63 3.53189C12.5867 3.57519 12.5867 3.61746 12.5867 3.70407V4.30514C12.5867 4.47732 12.7156 4.64847 12.8445 4.73507C16.1952 5.93825 17.9139 9.67562 16.6674 12.9831C16.0231 14.7873 14.6054 16.1616 12.8445 16.806C12.6723 16.8916 12.5867 17.0205 12.5867 17.2359V17.837C12.5867 18.0092 12.6723 18.1381 12.8445 18.1803C12.8878 18.1803 12.9734 18.1803 13.0167 18.137C17.0974 16.8483 19.3315 12.5098 18.0428 8.42811C17.2695 5.98052 15.3797 4.13297 13.0167 3.35971Z" fill="white"/>
</svg>
