<svg width="22" height="22" viewBox="0 0 22 22" fill="none" xmlns="http://www.w3.org/2000/svg">
<g filter="url(#filter0_d_134_75379)">
<path d="M11 20.625C16.6954 20.625 21.3125 16.0079 21.3125 10.3125C21.3125 4.61706 16.6954 0 11 0C5.30456 0 0.6875 4.61706 0.6875 10.3125C0.6875 16.0079 5.30456 20.625 11 20.625Z" fill="black"/>
</g>
<path d="M11 20.625C16.6954 20.625 21.3125 16.0079 21.3125 10.3125C21.3125 4.61706 16.6954 0 11 0C5.30456 0 0.6875 4.61706 0.6875 10.3125C0.6875 16.0079 5.30456 20.625 11 20.625Z" fill="#26A17B"/>
<path style="mix-blend-mode:soft-light" d="M11 20.625C16.6954 20.625 21.3125 16.0079 21.3125 10.3125C21.3125 4.61706 16.6954 0 11 0C5.30456 0 0.6875 4.61706 0.6875 10.3125C0.6875 16.0079 5.30456 20.625 11 20.625Z" fill="url(#paint0_linear_134_75379)"/>
<path d="M11 20.2812C16.5056 20.2812 20.9688 15.8181 20.9688 10.3125C20.9688 4.80691 16.5056 0.34375 11 0.34375C5.49441 0.34375 1.03125 4.80691 1.03125 10.3125C1.03125 15.8181 5.49441 20.2812 11 20.2812Z" stroke="black" stroke-opacity="0.097"/>
<g filter="url(#filter1_d_134_75379)">
<path d="M12.3212 11.2633V11.2619C12.2456 11.2674 11.8557 11.2908 10.9861 11.2908C10.2917 11.2908 9.80287 11.2702 9.63099 11.2619V11.264C6.95799 11.1464 4.96287 10.681 4.96287 10.1241C4.96287 9.56792 6.95799 9.10249 9.63099 8.98286V10.8006C9.80562 10.813 10.3061 10.8425 10.9977 10.8425C11.8276 10.8425 12.2435 10.8082 12.3212 10.8013V8.98424C14.9887 9.10317 16.979 9.56861 16.979 10.1241C16.979 10.681 14.9887 11.145 12.3212 11.2633ZM12.3212 8.79518V7.16855H16.0433V4.68805H5.90887V7.16855H9.63099V8.79449C6.60599 8.93336 4.33105 9.53286 4.33105 10.2506C4.33105 10.9684 6.60599 11.5672 9.63099 11.7067V16.9194H12.3212V11.7054C15.3414 11.5665 17.6108 10.9677 17.6108 10.2506C17.6108 9.53355 15.3414 8.93474 12.3212 8.79518Z" fill="black"/>
</g>
<path d="M12.3212 11.2633V11.2619C12.2456 11.2674 11.8557 11.2908 10.9861 11.2908C10.2917 11.2908 9.80287 11.2702 9.63099 11.2619V11.264C6.95799 11.1464 4.96287 10.681 4.96287 10.1241C4.96287 9.56792 6.95799 9.10249 9.63099 8.98286V10.8006C9.80562 10.813 10.3061 10.8425 10.9977 10.8425C11.8276 10.8425 12.2435 10.8082 12.3212 10.8013V8.98424C14.9887 9.10317 16.979 9.56861 16.979 10.1241C16.979 10.681 14.9887 11.145 12.3212 11.2633ZM12.3212 8.79518V7.16855H16.0433V4.68805H5.90887V7.16855H9.63099V8.79449C6.60599 8.93336 4.33105 9.53286 4.33105 10.2506C4.33105 10.9684 6.60599 11.5672 9.63099 11.7067V16.9194H12.3212V11.7054C15.3414 11.5665 17.6108 10.9677 17.6108 10.2506C17.6108 9.53355 15.3414 8.93474 12.3212 8.79518Z" fill="white"/>
<defs>
<filter id="filter0_d_134_75379" x="-0.3125" y="-0.5" width="22.625" height="22.625" filterUnits="userSpaceOnUse" color-interpolation-filters="sRGB">
<feFlood flood-opacity="0" result="BackgroundImageFix"/>
<feColorMatrix in="SourceAlpha" type="matrix" values="0 0 0 0 0 0 0 0 0 0 0 0 0 0 0 0 0 0 127 0" result="hardAlpha"/>
<feOffset dy="0.5"/>
<feGaussianBlur stdDeviation="0.5"/>
<feComposite in2="hardAlpha" operator="out"/>
<feColorMatrix type="matrix" values="0 0 0 0 0 0 0 0 0 0 0 0 0 0 0 0 0 0 0.199474 0"/>
<feBlend mode="normal" in2="BackgroundImageFix" result="effect1_dropShadow_134_75379"/>
<feBlend mode="normal" in="SourceGraphic" in2="effect1_dropShadow_134_75379" result="shape"/>
</filter>
<filter id="filter1_d_134_75379" x="3.33105" y="4.18805" width="15.2798" height="14.2313" filterUnits="userSpaceOnUse" color-interpolation-filters="sRGB">
<feFlood flood-opacity="0" result="BackgroundImageFix"/>
<feColorMatrix in="SourceAlpha" type="matrix" values="0 0 0 0 0 0 0 0 0 0 0 0 0 0 0 0 0 0 127 0" result="hardAlpha"/>
<feOffset dy="0.5"/>
<feGaussianBlur stdDeviation="0.5"/>
<feColorMatrix type="matrix" values="0 0 0 0 0 0 0 0 0 0 0 0 0 0 0 0 0 0 0.204257 0"/>
<feBlend mode="normal" in2="BackgroundImageFix" result="effect1_dropShadow_134_75379"/>
<feBlend mode="normal" in="SourceGraphic" in2="effect1_dropShadow_134_75379" result="shape"/>
</filter>
<linearGradient id="paint0_linear_134_75379" x1="1031.94" y1="0" x2="1031.94" y2="2062.5" gradientUnits="userSpaceOnUse">
<stop stop-color="white" stop-opacity="0.5"/>
<stop offset="1" stop-opacity="0.5"/>
</linearGradient>
</defs>
</svg>
