<svg xmlns="http://www.w3.org/2000/svg" version="1.1" width="433" height="433" viewBox="0 0 433 433" style="shape-rendering:geometricPrecision; text-rendering:geometricPrecision; image-rendering:optimizeQuality; fill-rule:evenodd; clip-rule:evenodd" xmlns:xlink="http://www.w3.org/1999/xlink">
<g><path style="opacity:0.995" fill="#01bf8f" d="M 195.5,-0.5 C 209.167,-0.5 222.833,-0.5 236.5,-0.5C 320.465,10.7281 380.298,54.7281 416,131.5C 424.348,152.23 429.848,173.563 432.5,195.5C 432.5,209.167 432.5,222.833 432.5,236.5C 421.272,320.465 377.272,380.298 300.5,416C 279.77,424.348 258.437,429.848 236.5,432.5C 222.833,432.5 209.167,432.5 195.5,432.5C 111.535,421.272 51.702,377.272 16,300.5C 7.65175,279.77 2.15175,258.437 -0.5,236.5C -0.5,222.833 -0.5,209.167 -0.5,195.5C 10.7281,111.535 54.7281,51.702 131.5,16C 152.23,7.65175 173.563,2.15175 195.5,-0.5 Z"/></g>
<g><path style="opacity:1" fill="#fefefe" d="M 332.5,217.5 C 333.494,227.987 333.828,238.654 333.5,249.5C 323.045,251.641 312.378,253.308 301.5,254.5C 283.356,292.294 258.356,324.794 226.5,352C 217.955,357.323 209.288,357.657 200.5,353C 179.356,337.192 162.523,317.692 150,294.5C 128.027,252.247 113.027,207.58 105,160.5C 102.669,147.179 100.502,133.846 98.5,120.5C 113.833,120.5 129.167,120.5 144.5,120.5C 148.756,167.387 160.256,212.387 179,255.5C 188.661,275.637 200.494,294.303 214.5,311.5C 233.403,291.88 248.737,269.713 260.5,245C 234.643,228.171 219.143,204.338 214,173.5C 211.459,156.337 212.126,139.337 216,122.5C 230.494,85.8351 256.994,72.3351 295.5,82C 313.155,87.7783 324.655,99.6116 330,117.5C 335.883,143.256 334.05,168.422 324.5,193C 309.124,197.652 296.29,193.819 286,181.5C 287.31,174.239 288.643,166.906 290,159.5C 290.667,152.833 290.667,146.167 290,139.5C 288.961,131.143 284.794,124.976 277.5,121C 268.741,119.463 262.241,122.629 258,130.5C 250.664,155.82 254.664,179.153 270,200.5C 287.585,217.607 308.419,223.274 332.5,217.5 Z"/></g>
<g><path style="opacity:1" fill="#52d3b2" d="M 332.5,217.5 C 332.56,216.957 332.893,216.624 333.5,216.5C 334.824,227.66 334.824,238.66 333.5,249.5C 333.828,238.654 333.494,227.987 332.5,217.5 Z"/></g>
</svg>
