<svg xmlns="http://www.w3.org/2000/svg" version="1.1" width="320" height="320" viewBox="0 0 320 320" style="shape-rendering:geometricPrecision; text-rendering:geometricPrecision; image-rendering:optimizeQuality; fill-rule:evenodd; clip-rule:evenodd" xmlns:xlink="http://www.w3.org/1999/xlink">
<g><path style="opacity:0.996" fill="#042d48" d="M 141.5,-0.5 C 153.5,-0.5 165.5,-0.5 177.5,-0.5C 246.405,10.5679 291.905,49.2345 314,115.5C 316.172,124.235 318.005,132.902 319.5,141.5C 319.5,153.5 319.5,165.5 319.5,177.5C 308.432,246.405 269.765,291.905 203.5,314C 194.765,316.172 186.098,318.005 177.5,319.5C 165.5,319.5 153.5,319.5 141.5,319.5C 72.5952,308.432 27.0952,269.765 5,203.5C 2.82789,194.765 0.994558,186.098 -0.5,177.5C -0.5,165.5 -0.5,153.5 -0.5,141.5C 10.5679,72.5952 49.2345,27.0952 115.5,5C 124.235,2.82789 132.902,0.994558 141.5,-0.5 Z"/></g>
<g><path style="opacity:1" fill="#f4f6f7" d="M 155.5,49.5 C 169.941,49.4208 174.774,56.0875 170,69.5C 168.758,70.8721 167.258,71.8721 165.5,72.5C 164.501,86.1504 164.167,99.8171 164.5,113.5C 166.833,113.5 169.167,113.5 171.5,113.5C 171.667,126.504 171.5,139.504 171,152.5C 168.294,154.871 165.961,157.537 164,160.5C 163.5,147.838 163.333,135.171 163.5,122.5C 158.167,122.5 152.833,122.5 147.5,122.5C 147.5,119.5 147.5,116.5 147.5,113.5C 150.167,113.5 152.833,113.5 155.5,113.5C 155.667,100.163 155.5,86.8292 155,73.5C 144.864,65.3047 145.031,57.3047 155.5,49.5 Z"/></g>
<g><path style="opacity:1" fill="#0f344e" d="M 157.5,58.5 C 163.555,57.9421 164.888,60.1088 161.5,65C 156.791,65.082 155.458,62.9154 157.5,58.5 Z"/></g>
<g><path style="opacity:1" fill="#f1f3f5" d="M 87.5,74.5 C 100.32,73.1527 105.82,78.8194 104,91.5C 102.691,93.9757 100.858,95.9757 98.5,97.5C 97.5015,107.478 97.1681,117.478 97.5,127.5C 116.833,127.5 136.167,127.5 155.5,127.5C 155.667,138.172 155.5,148.839 155,159.5C 152.886,156.93 150.553,154.597 148,152.5C 147.501,147.177 147.334,141.844 147.5,136.5C 145.5,136.5 143.5,136.5 141.5,136.5C 141.823,140.226 141.489,143.893 140.5,147.5C 137.943,146.593 135.443,145.593 133,144.5C 132.503,141.854 132.336,139.187 132.5,136.5C 130.5,136.5 128.5,136.5 126.5,136.5C 126.5,138.5 126.5,140.5 126.5,142.5C 123.5,142.5 120.5,142.5 117.5,142.5C 117.5,140.5 117.5,138.5 117.5,136.5C 107.833,136.5 98.1667,136.5 88.5,136.5C 88.8325,123.483 88.4991,110.483 87.5,97.5C 81.2335,93.9527 79.0668,88.6193 81,81.5C 82.6941,78.6424 84.8607,76.309 87.5,74.5 Z"/></g>
<g><path style="opacity:1" fill="#f9fafa" d="M 117.5,74.5 C 125.5,74.5 133.5,74.5 141.5,74.5C 141.5,82.1667 141.5,89.8333 141.5,97.5C 133.5,97.5 125.5,97.5 117.5,97.5C 117.5,89.8333 117.5,82.1667 117.5,74.5 Z"/></g>
<g><path style="opacity:1" fill="#f4f6f7" d="M 178.5,74.5 C 186.5,74.5 194.5,74.5 202.5,74.5C 202.5,82.5 202.5,90.5 202.5,98.5C 194.5,98.5 186.5,98.5 178.5,98.5C 178.5,90.5 178.5,82.5 178.5,74.5 Z"/></g>
<g><path style="opacity:1" fill="#f9fafb" d="M 231.5,97.5 C 230.505,109.989 230.171,122.656 230.5,135.5C 220.985,135.173 211.652,135.506 202.5,136.5C 202.5,138.5 202.5,140.5 202.5,142.5C 199.5,142.5 196.5,142.5 193.5,142.5C 193.5,128.833 193.5,115.167 193.5,101.5C 196.5,101.5 199.5,101.5 202.5,101.5C 202.5,110.167 202.5,118.833 202.5,127.5C 209.167,127.5 215.833,127.5 222.5,127.5C 222.5,117.5 222.5,107.5 222.5,97.5C 218.183,96.6801 215.683,94.0134 215,89.5C 214.967,75.4246 221.467,71.2579 234.5,77C 238.681,81.5947 239.514,86.7614 237,92.5C 235.945,95.0559 234.112,96.7225 231.5,97.5 Z"/></g>
<g><path style="opacity:1" fill="#042d48" d="M 126.5,82.5 C 128.5,82.5 130.5,82.5 132.5,82.5C 132.5,84.5 132.5,86.5 132.5,88.5C 130.5,88.5 128.5,88.5 126.5,88.5C 126.5,86.5 126.5,84.5 126.5,82.5 Z"/></g>
<g><path style="opacity:1" fill="#042d48" d="M 187.5,82.5 C 189.5,82.5 191.5,82.5 193.5,82.5C 193.5,84.5 193.5,86.5 193.5,88.5C 191.5,88.5 189.5,88.5 187.5,88.5C 187.5,86.5 187.5,84.5 187.5,82.5 Z"/></g>
<g><path style="opacity:1" fill="#1d3d56" d="M 90.5,82.5 C 95.4857,82.3049 97.1524,84.4716 95.5,89C 89.741,90.1387 88.0744,87.972 90.5,82.5 Z"/></g>
<g><path style="opacity:1" fill="#1b3b55" d="M 224.5,82.5 C 229.014,82.6932 230.347,84.8599 228.5,89C 222.339,89.878 221.006,87.7113 224.5,82.5 Z"/></g>
<g><path style="opacity:1" fill="#607a8b" d="M 117.5,74.5 C 125.65,73.5073 133.983,73.1739 142.5,73.5C 142.5,81.8333 142.5,90.1667 142.5,98.5C 133.983,98.8261 125.65,98.4927 117.5,97.5C 125.5,97.5 133.5,97.5 141.5,97.5C 141.5,89.8333 141.5,82.1667 141.5,74.5C 133.5,74.5 125.5,74.5 117.5,74.5 Z"/></g>
<g><path style="opacity:1" fill="#f7f8f9" d="M 117.5,101.5 C 120.5,101.5 123.5,101.5 126.5,101.5C 126.5,105.5 126.5,109.5 126.5,113.5C 128.5,113.5 130.5,113.5 132.5,113.5C 132.5,109.5 132.5,105.5 132.5,101.5C 135.5,101.5 138.5,101.5 141.5,101.5C 141.5,108.5 141.5,115.5 141.5,122.5C 133.5,122.5 125.5,122.5 117.5,122.5C 117.5,115.5 117.5,108.5 117.5,101.5 Z"/></g>
<g><path style="opacity:1" fill="#fefefe" d="M 178.5,101.5 C 181.167,101.5 183.833,101.5 186.5,101.5C 186.5,115.833 186.5,130.167 186.5,144.5C 183.808,145.009 181.308,146.009 179,147.5C 178.5,132.17 178.333,116.837 178.5,101.5 Z"/></g>
<g><path style="opacity:1" fill="#97a7b2" d="M 178.5,101.5 C 181.287,100.523 184.287,100.19 187.5,100.5C 187.829,115.343 187.496,130.01 186.5,144.5C 186.5,130.167 186.5,115.833 186.5,101.5C 183.833,101.5 181.167,101.5 178.5,101.5 Z"/></g>
<g><path style="opacity:1" fill="#9faeb9" d="M 231.5,97.5 C 231.5,110.5 231.5,123.5 231.5,136.5C 221.833,136.5 212.167,136.5 202.5,136.5C 211.652,135.506 220.985,135.173 230.5,135.5C 230.171,122.656 230.505,109.989 231.5,97.5 Z"/></g>
<g><path style="opacity:1" fill="#f8f9fa" d="M 153.5,178.5 C 153.823,184.69 153.49,190.69 152.5,196.5C 150.388,193.937 147.721,192.104 144.5,191C 136.5,191 128.5,191 120.5,191C 111.997,188.492 105.164,183.659 100,176.5C 103.265,211.211 119.432,238.044 148.5,257C 159.149,260.873 169.149,259.54 178.5,253C 202.901,233.698 216.401,208.532 219,177.5C 206.996,190.831 192.162,195.331 174.5,191C 171.405,191.935 169.071,193.769 167.5,196.5C 166.509,190.021 166.176,183.354 166.5,176.5C 168.844,164.974 175.51,157.141 186.5,153C 191.197,151.394 196.031,150.561 201,150.5C 210.791,152.503 220.291,151.837 229.5,148.5C 230.491,154.979 230.824,161.646 230.5,168.5C 228.857,200.61 217.19,228.443 195.5,252C 187.249,259.963 177.582,265.63 166.5,269C 153.499,269.779 141.833,266.112 131.5,258C 105.462,234.417 91.2952,204.917 89,169.5C 88.3333,162.167 88.3333,154.833 89,147.5C 91.087,148.794 93.2537,149.961 95.5,151C 104.833,151 114.167,151 123.5,151C 140.431,152.769 150.431,161.936 153.5,178.5 Z"/></g>
<g><path style="opacity:1" fill="#92a4af" d="M 229.5,148.5 C 229.56,147.957 229.893,147.624 230.5,147.5C 231.819,154.656 231.819,161.656 230.5,168.5C 230.824,161.646 230.491,154.979 229.5,148.5 Z"/></g>
<g><path style="opacity:1" fill="#0e334d" d="M 121.5,164.5 C 133.339,163.417 141.339,168.417 145.5,179.5C 139.438,179.243 133.272,179.576 127,180.5C 118.503,180.164 112.336,176.164 108.5,168.5C 112.943,167.156 117.276,165.823 121.5,164.5 Z"/></g>
<g><path style="opacity:1" fill="#0c314c" d="M 188.5,164.5 C 196.292,164.983 203.958,166.316 211.5,168.5C 208.973,173.194 205.306,176.694 200.5,179C 192.179,180.032 183.846,180.532 175.5,180.5C 175.167,180.167 174.833,179.833 174.5,179.5C 177.157,172.513 181.824,167.513 188.5,164.5 Z"/></g>
<g><path style="opacity:1" fill="#617b8b" d="M 153.5,178.5 C 154.654,184.987 154.821,191.654 154,198.5C 153.283,197.956 152.783,197.289 152.5,196.5C 153.49,190.69 153.823,184.69 153.5,178.5 Z"/></g>
<g><path style="opacity:1" fill="#aebbc4" d="M 166.5,176.5 C 166.176,183.354 166.509,190.021 167.5,196.5C 167.217,197.289 166.717,197.956 166,198.5C 165.178,190.988 165.345,183.655 166.5,176.5 Z"/></g>
<g><path style="opacity:1" fill="#e9edef" d="M 145.5,205.5 C 146.309,207.292 146.809,209.292 147,211.5C 148.793,210.03 150.793,209.03 153,208.5C 157.439,211.13 161.939,211.13 166.5,208.5C 168.774,208.97 170.774,209.97 172.5,211.5C 173.308,209.577 173.808,207.577 174,205.5C 176.155,208.54 175.988,211.373 173.5,214C 170.623,215.127 167.623,215.794 164.5,216C 162.383,217.731 160.883,219.898 160,222.5C 158.273,216.774 154.44,214.274 148.5,215C 144.497,212.858 143.497,209.691 145.5,205.5 Z"/></g>
<g><path style="opacity:1" fill="#f0f2f4" d="M 149.5,228.5 C 153.247,228.199 156.747,228.866 160,230.5C 165.139,227.548 169.972,228.048 174.5,232C 184.53,232.083 184.863,233.249 175.5,235.5C 164.854,236.828 154.187,236.828 143.5,235.5C 141.291,235.431 139.291,234.764 137.5,233.5C 140.441,232.478 143.441,231.645 146.5,231C 147.942,230.623 148.942,229.79 149.5,228.5 Z"/></g>
<g><path style="opacity:1" fill="#f2f4f5" d="M 149.5,240.5 C 156.162,243.115 162.829,243.115 169.5,240.5C 169.833,240.833 170.167,241.167 170.5,241.5C 167.22,248.218 161.886,250.384 154.5,248C 151.8,246.143 150.134,243.643 149.5,240.5 Z"/></g>
</svg>
