<svg width="433" height="433" viewBox="0 0 433 433" fill="none" xmlns="http://www.w3.org/2000/svg">
<g clip-path="url(#clip0_1335_2640)">
<path d="M216.46 432.393C159.132 432.357 104.159 409.581 63.604 369.062C23.0488 328.543 0.222895 273.591 0.134766 216.262C0.222882 158.932 23.0475 103.977 63.602 63.4537C104.157 22.9303 159.129 0.147515 216.46 0.103516C273.79 0.147515 328.763 22.9303 369.317 63.4537C409.872 103.977 432.697 158.932 432.784 216.262C432.697 273.591 409.872 328.543 369.316 369.062C328.76 409.581 273.788 432.357 216.46 432.393ZM216.46 16.7439C163.54 16.7806 112.796 37.8079 75.3607 75.2121C37.9251 112.616 16.856 163.343 16.7752 216.262C16.8266 269.189 37.8875 319.929 75.33 357.335C112.773 394.742 163.534 415.753 216.46 415.753C269.386 415.753 320.147 394.742 357.59 357.335C395.032 319.929 416.093 269.189 416.144 216.262C416.064 163.343 394.994 112.616 357.559 75.2121C320.123 37.8079 269.379 16.7806 216.46 16.7439Z" fill="white"/>
<path d="M243.81 398.196C196.313 398.159 150.771 379.285 117.174 345.713C83.576 312.141 64.6662 266.614 64.5928 219.118C64.6662 171.622 83.576 126.094 117.174 92.5224C150.771 58.9503 196.313 40.0758 243.81 40.0391C291.306 40.0758 336.848 58.9503 370.445 92.5224C404.043 126.094 422.953 171.622 423.026 219.118C422.953 266.614 404.043 312.141 370.445 345.713C336.848 379.285 291.306 398.159 243.81 398.196ZM243.81 52.9632C199.744 52.9999 157.492 70.5136 126.322 101.662C95.152 132.811 77.6107 175.052 77.5446 219.118C77.6175 263.179 95.1635 305.412 126.332 336.555C157.501 367.698 199.749 385.207 243.81 385.244C287.87 385.207 330.118 367.698 361.287 336.555C392.456 305.412 410.002 263.179 410.075 219.118C410.002 175.057 392.456 132.823 361.287 101.68C330.118 70.5374 287.87 53.0276 243.81 52.991V52.9632Z" fill="white"/>
<path d="M271.15 364.028C233.489 363.998 197.377 349.031 170.736 322.411C144.095 295.791 129.1 259.69 129.041 222.029C129.1 184.368 144.095 148.268 170.736 121.647C197.377 95.0269 233.489 80.0605 271.15 80.0312C308.814 80.053 344.929 95.0167 371.572 121.639C398.215 148.261 413.207 184.365 413.259 222.029C413.199 259.69 398.205 295.791 371.564 322.411C344.923 349.031 308.812 363.998 271.15 364.028ZM271.15 89.2665C235.936 89.2883 202.168 103.279 177.257 128.169C152.347 153.059 138.327 186.815 138.276 222.029C138.335 257.239 152.358 290.987 177.267 315.871C202.177 340.755 235.94 354.742 271.15 354.764C306.359 354.742 340.122 340.755 365.033 315.871C389.943 290.987 403.965 257.239 404.024 222.029C403.973 186.815 389.953 153.059 365.042 128.169C340.131 103.279 306.364 89.2883 271.15 89.2665Z" fill="white"/>
<path d="M298.499 329.83C270.673 329.808 243.991 318.75 224.307 299.081C204.622 279.412 193.543 252.738 193.499 224.912C193.536 197.08 204.612 170.4 224.297 150.725C243.982 131.051 270.668 119.989 298.499 119.967C326.331 119.989 353.018 131.051 372.703 150.725C392.388 170.4 403.464 197.08 403.501 224.912C403.456 252.738 392.378 279.412 372.694 299.081C353.009 318.75 326.327 329.808 298.499 329.83ZM298.499 125.513C272.14 125.535 246.864 136.013 228.219 154.647C209.574 173.282 199.083 198.552 199.046 224.912C199.09 251.268 209.585 276.53 228.229 295.158C246.873 313.787 272.144 324.261 298.499 324.283C324.855 324.261 350.127 313.787 368.771 295.158C387.415 276.53 397.91 251.268 397.953 224.912C397.917 198.552 387.427 173.282 368.782 154.647C350.137 136.013 324.86 125.535 298.499 125.513Z" fill="white"/>
</g>
<defs>
<clipPath id="clip0_1335_2640">
<rect width="433" height="433" fill="white"/>
</clipPath>
</defs>
</svg>
