<svg width="1689" height="1689" viewBox="0 0 1689 1689" fill="none" xmlns="http://www.w3.org/2000/svg">
<g clip-path="url(#clip0_1255_2442)">
<path d="M1 904C1 865.312 1 826.625 1.41974 787.622C2.22516 786.293 2.86835 785.301 2.9573 784.263C4.02408 771.803 4.58102 759.283 6.12489 746.885C7.98238 731.969 10.3276 717.093 13.0649 702.311C16.8345 681.956 20.2957 661.478 25.4854 641.467C31.8117 617.073 38.7076 592.713 47.3361 569.06C58.1621 539.384 70.5185 510.231 83.155 481.263C89.9456 465.696 98.3651 450.798 106.668 435.944C115.503 420.138 124.659 404.48 134.398 389.219C155.917 355.497 179.429 323.193 206.196 293.41C221.177 276.741 236.697 260.55 252.203 244.362C271.082 224.653 291.441 206.521 312.911 189.701C329.776 176.488 346.527 163.002 364.338 151.156C388.238 135.261 412.915 120.498 437.618 105.857C466.072 88.992 496.185 75.4305 526.793 62.9638C555.473 51.2823 584.593 40.8581 614.518 32.8379C632.601 27.9916 650.676 22.9749 668.992 19.1779C688.807 15.0702 708.838 11.8781 728.884 9.05761C747.067 6.49922 765.399 5.0074 783.652 2.92955C784.826 2.7959 785.887 1.6663 787 1C825.688 1 864.375 1 903.378 1.41975C904.707 2.22518 905.698 2.86837 906.737 2.95729C919.197 4.02406 931.717 4.58102 944.115 6.12489C959.031 7.9824 973.907 10.3275 988.689 13.065C1009.04 16.8347 1029.48 20.4156 1049.55 25.4392C1079.55 32.9504 1109.33 41.4158 1138.07 53.0121C1162.25 62.769 1186.45 72.5415 1210.22 83.2386C1225.57 90.1467 1240.35 98.4122 1255.05 106.658C1270.84 115.516 1286.51 124.652 1301.78 134.392C1335.5 155.914 1367.8 179.423 1397.59 206.191C1414.25 221.173 1430.45 236.693 1446.63 252.199C1466.34 271.078 1484.48 291.436 1501.3 312.907C1514.51 329.773 1528 346.523 1539.84 364.334C1555.74 388.234 1570.5 412.912 1585.14 437.615C1602.01 466.07 1615.57 496.182 1628.04 526.791C1639.72 555.471 1650.14 584.591 1658.16 614.517C1663.01 632.6 1668.03 650.675 1671.82 668.991C1675.93 688.806 1679.12 708.838 1681.94 728.883C1684.5 747.066 1685.99 765.398 1688.07 783.652C1688.2 784.826 1689.33 785.887 1690 787C1690 825.688 1690 864.375 1689.58 903.378C1688.77 904.707 1688.13 905.699 1688.04 906.738C1686.98 919.197 1686.42 931.717 1684.88 944.115C1683.02 959.032 1680.67 973.908 1677.93 988.69C1674.17 1009.05 1670.58 1029.49 1665.56 1049.55C1658.05 1079.55 1649.58 1109.34 1637.99 1138.07C1628.23 1162.26 1618.46 1186.45 1607.76 1210.22C1600.85 1225.57 1592.59 1240.35 1584.34 1255.05C1575.48 1270.84 1566.35 1286.51 1556.61 1301.78C1535.09 1335.5 1511.58 1367.8 1484.81 1397.59C1469.83 1414.25 1454.31 1430.45 1438.8 1446.63C1419.92 1466.34 1399.56 1484.48 1378.09 1501.3C1361.23 1514.51 1344.48 1528 1326.67 1539.84C1302.77 1555.74 1278.09 1570.5 1253.38 1585.14C1224.93 1602.01 1194.82 1615.57 1164.21 1628.04C1135.53 1639.72 1106.41 1650.14 1076.48 1658.16C1058.4 1663.01 1040.32 1668.02 1022.01 1671.82C1002.19 1675.93 982.162 1679.12 962.117 1681.94C943.934 1684.5 925.602 1685.99 907.348 1688.07C906.174 1688.2 905.113 1689.33 904 1690C865.312 1690 826.625 1690 787.622 1689.58C786.293 1688.77 785.301 1688.13 784.262 1688.04C771.803 1686.98 759.283 1686.42 746.885 1684.88C731.969 1683.02 717.093 1680.67 702.311 1677.94C681.956 1674.17 661.478 1670.7 641.467 1665.51C617.073 1659.19 592.713 1652.29 569.06 1643.66C539.384 1632.84 510.232 1620.48 481.263 1607.84C465.697 1601.05 450.799 1592.63 435.944 1584.33C420.139 1575.5 404.48 1566.34 389.219 1556.6C355.497 1535.08 323.193 1511.57 293.41 1484.8C276.741 1469.82 260.55 1454.3 244.362 1438.8C224.653 1419.92 206.522 1399.56 189.701 1378.09C176.488 1361.22 163.002 1344.47 151.156 1326.66C135.261 1302.76 120.498 1278.09 105.857 1253.38C88.9921 1224.93 75.4305 1194.82 62.9639 1164.21C51.2825 1135.53 40.8581 1106.41 32.8381 1076.48C27.9918 1058.4 22.975 1040.32 19.178 1022.01C15.0702 1002.19 11.8781 982.162 9.05762 962.116C6.49923 943.933 5.0074 925.601 2.92955 907.348C2.79589 906.174 1.6663 905.113 1 904ZM1392.44 1182.88C1392.42 1182.46 1392.39 1182.04 1392.14 1180.97C1377.03 1155.37 1361.95 1129.76 1346.81 1104.18C1318.21 1055.86 1289.57 1007.56 1260.96 959.241C1231 908.64 1201.05 858.031 1171.1 807.424C1132.15 741.606 1093.19 675.789 1054.24 609.97C1015.54 544.575 976.84 479.18 938.145 413.782C909.346 365.111 880.558 316.433 851.75 267.767C850.943 266.404 849.962 265.143 848.831 263.499C848.032 264.788 847.509 265.601 847.017 266.432C792.027 359.329 737.034 452.223 682.053 545.125C570.404 733.781 458.756 922.438 347.125 1111.1C333.239 1134.57 319.462 1158.11 305.226 1181.98C305.51 1182.23 305.794 1182.48 307.001 1182.82C667.643 1182.83 1028.28 1182.83 1388.93 1182.83C1389.92 1182.83 1390.92 1182.76 1392.44 1182.88Z" fill="#F30019"/>
<path d="M305.634 1181.61C319.461 1158.11 333.239 1134.57 347.125 1111.11C458.755 922.438 570.403 733.782 682.052 545.126C737.033 452.224 792.027 359.329 847.017 266.432C847.509 265.601 848.032 264.788 848.831 263.499C849.962 265.143 850.943 266.404 851.75 267.767C880.558 316.433 909.346 365.111 938.144 413.782C976.84 479.18 1015.54 544.575 1054.24 609.97C1093.19 675.789 1132.15 741.607 1171.1 807.424C1201.05 858.031 1231 908.641 1260.96 959.242C1289.57 1007.56 1318.21 1055.86 1346.81 1104.18C1361.95 1129.76 1377.03 1155.37 1392.09 1181.55C1392 1182.33 1391.96 1182.53 1391.92 1182.72C1390.92 1182.76 1389.92 1182.83 1388.93 1182.83C1028.28 1182.83 667.642 1182.83 306.482 1182.47C305.853 1181.95 305.743 1181.78 305.634 1181.61ZM890.303 656.204C876.663 633.135 863.022 610.066 848.954 586.275C765.984 726.457 683.416 865.96 600.699 1005.71C766.585 1005.71 931.603 1005.71 1097.18 1005.71C1028.18 889.106 959.453 772.955 890.303 656.204Z" fill="white"/>
<path d="M305.43 1181.79C305.743 1181.78 305.852 1181.95 306.02 1182.42C305.794 1182.48 305.51 1182.23 305.43 1181.79Z" fill="#FCC0C6"/>
<path d="M1392.18 1182.8C1391.96 1182.53 1392 1182.33 1392.2 1181.87C1392.39 1182.04 1392.42 1182.46 1392.18 1182.8Z" fill="#FCC0C6"/>
<path d="M890.514 656.504C959.453 772.955 1028.18 889.107 1097.18 1005.72C931.603 1005.72 766.585 1005.72 600.699 1005.72C683.416 865.96 765.985 726.457 848.955 586.275C863.022 610.066 876.663 633.135 890.514 656.504Z" fill="#F30019"/>
</g>
<defs>
<clipPath id="clip0_1255_2442">
<rect width="1689" height="1689" fill="white"/>
</clipPath>
</defs>
</svg>
