<svg xmlns="http://www.w3.org/2000/svg" version="1.1" width="315px" height="315px" viewBox="0 0 315 315" style="shape-rendering:geometricPrecision; text-rendering:geometricPrecision; image-rendering:optimizeQuality; fill-rule:evenodd; clip-rule:evenodd" xmlns:xlink="http://www.w3.org/1999/xlink">
<g><path style="opacity:0.993" fill="#1d1f22" d="M 139.5,-0.5 C 151.167,-0.5 162.833,-0.5 174.5,-0.5C 233.599,8.3012 276.099,39.6345 302,93.5C 308.069,108.455 312.236,123.788 314.5,139.5C 314.5,151.167 314.5,162.833 314.5,174.5C 305.698,233.602 274.365,276.102 220.5,302C 205.543,308.07 190.209,312.236 174.5,314.5C 162.833,314.5 151.167,314.5 139.5,314.5C 80.3984,305.698 37.8984,274.365 12,220.5C 5.93076,205.545 1.76409,190.212 -0.5,174.5C -0.5,162.833 -0.5,151.167 -0.5,139.5C 8.30211,80.3984 39.6354,37.8984 93.5,12C 108.455,5.93076 123.788,1.76409 139.5,-0.5 Z"/></g>
<g><path style="opacity:1" fill="#f8fb83" d="M 174.5,41.5 C 161.604,47.1156 148.604,52.449 135.5,57.5C 127.648,57.1746 119.982,57.508 112.5,58.5C 98.3009,66.7656 83.9675,74.7656 69.5,82.5C 68.5119,77.3595 68.1786,72.0262 68.5,66.5C 82.3531,58.1613 96.3531,49.9947 110.5,42C 131.831,41.5 153.164,41.3334 174.5,41.5 Z"/></g>
<g><path style="opacity:1" fill="#ecfd91" d="M 174.5,41.5 C 182.167,41.5 189.833,41.5 197.5,41.5C 184.978,47.0125 172.311,52.3458 159.5,57.5C 151.5,57.5 143.5,57.5 135.5,57.5C 148.604,52.449 161.604,47.1156 174.5,41.5 Z"/></g>
<g><path style="opacity:1" fill="#dcfc9d" d="M 197.5,41.5 C 204.767,42.6348 211.101,45.6348 216.5,50.5C 216.586,51.4959 216.252,52.3292 215.5,53C 212.167,54.3333 208.833,55.6667 205.5,57C 190.17,57.4999 174.837,57.6666 159.5,57.5C 172.311,52.3458 184.978,47.0125 197.5,41.5 Z"/></g>
<g><path style="opacity:1" fill="#000101" d="M 112.5,58.5 C 142.502,58.3334 172.502,58.5 202.5,59C 207.697,62.0984 213.03,64.9318 218.5,67.5C 226.549,72.8627 234.882,77.8627 243.5,82.5C 243.842,83.3382 244.508,83.6716 245.5,83.5C 245.5,123.833 245.5,164.167 245.5,204.5C 231.134,212.344 217.134,220.678 203.5,229.5C 188.002,237.412 173.002,246.079 158.5,255.5C 155.207,254.191 151.874,252.858 148.5,251.5C 144.199,248.345 139.532,245.678 134.5,243.5C 129.203,240.181 123.869,236.847 118.5,233.5C 113.167,230.5 107.833,227.5 102.5,224.5C 98.0908,221.433 93.4241,218.767 88.5,216.5C 82.4082,212.406 76.0748,208.74 69.5,205.5C 68.8333,205.5 68.5,205.167 68.5,204.5C 68.5,164.167 68.5,123.833 68.5,83.5C 69.1667,83.5 69.5,83.1667 69.5,82.5C 83.9675,74.7656 98.3009,66.7656 112.5,58.5 Z"/></g>
<g><path style="opacity:1" fill="#b9e9a3" d="M 216.5,50.5 C 222.4,53.0685 228.067,56.0685 233.5,59.5C 233.577,60.7498 234.244,61.5831 235.5,62C 229.993,64.4254 224.326,66.2587 218.5,67.5C 213.03,64.9318 207.697,62.0984 202.5,59C 172.502,58.5 142.502,58.3334 112.5,58.5C 119.982,57.508 127.648,57.1746 135.5,57.5C 143.5,57.5 151.5,57.5 159.5,57.5C 174.837,57.6666 190.17,57.4999 205.5,57C 208.833,55.6667 212.167,54.3333 215.5,53C 216.252,52.3292 216.586,51.4959 216.5,50.5 Z"/></g>
<g><path style="opacity:1" fill="#aaf4bf" d="M 233.5,59.5 C 237.5,61.8333 241.5,64.1667 245.5,66.5C 246.113,72.2709 245.446,77.6042 243.5,82.5C 234.882,77.8627 226.549,72.8627 218.5,67.5C 224.326,66.2587 229.993,64.4254 235.5,62C 234.244,61.5831 233.577,60.7498 233.5,59.5 Z"/></g>
<g><path style="opacity:1" fill="#b0b363" d="M 68.5,66.5 C 68.1786,72.0262 68.5119,77.3595 69.5,82.5C 69.5,83.1667 69.1667,83.5 68.5,83.5C 67.1667,77.8333 67.1667,72.1667 68.5,66.5 Z"/></g>
<g><path style="opacity:1" fill="#659780" d="M 245.5,66.5 C 246.833,72.1667 246.833,77.8333 245.5,83.5C 244.508,83.6716 243.842,83.3382 243.5,82.5C 245.446,77.6042 246.113,72.2709 245.5,66.5 Z"/></g>
<g><path style="opacity:1" fill="#e2fb97" d="M 67.5,93.5 C 66.8339,96.6893 66.1672,100.023 65.5,103.5C 61.471,105.174 57.471,106.841 53.5,108.5C 53.5,103.167 53.5,97.8333 53.5,92.5C 57.7935,89.8948 62.1269,87.2281 66.5,84.5C 67.4841,87.4281 67.8174,90.4281 67.5,93.5 Z"/></g>
<g><path style="opacity:1" fill="#b9f8b8" d="M 113.5,93.5 C 117.674,96.0877 122.007,98.421 126.5,100.5C 126.5,103.833 126.5,107.167 126.5,110.5C 122.181,111.882 118.014,113.549 114,115.5C 113.824,111.312 113.324,107.312 112.5,103.5C 112.187,99.9581 112.521,96.6248 113.5,93.5 Z"/></g>
<g><path style="opacity:1" fill="#79f5ec" d="M 260.5,105.5 C 256.411,106.709 252.411,108.209 248.5,110C 247.901,111.622 247.234,113.122 246.5,114.5C 246.334,104.494 246.5,94.4944 247,84.5C 251.598,86.7701 255.931,89.4368 260,92.5C 260.499,96.8206 260.666,101.154 260.5,105.5 Z"/></g>
<g><path style="opacity:1" fill="#162c29" d="M 200.5,93.5 C 200.56,92.9569 200.893,92.6236 201.5,92.5C 202.827,109.995 202.827,127.329 201.5,144.5C 201.83,127.325 201.497,110.325 200.5,93.5 Z"/></g>
<g><path style="opacity:1" fill="#8cf7dd" d="M 198.5,94.5 C 200.461,101.087 201.128,108.087 200.5,115.5C 196.703,117.55 192.369,119.55 187.5,121.5C 187.5,114.5 187.5,107.5 187.5,100.5C 191.007,98.246 194.673,96.246 198.5,94.5 Z"/></g>
<g><path style="opacity:1" fill="#2e4132" d="M 113.5,93.5 C 112.521,96.6248 112.187,99.9581 112.5,103.5C 112.5,110.5 112.5,117.5 112.5,124.5C 112.5,131.167 112.5,137.833 112.5,144.5C 111.173,127.329 111.173,109.995 112.5,92.5C 113.107,92.6236 113.44,92.9569 113.5,93.5 Z"/></g>
<g><path style="opacity:1" fill="#c9f9aa" d="M 67.5,93.5 C 67.5,103.833 67.5,114.167 67.5,124.5C 66.8444,123.722 66.0111,123.056 65,122.5C 61.4271,124.52 57.5937,125.853 53.5,126.5C 53.5,120.5 53.5,114.5 53.5,108.5C 57.471,106.841 61.471,105.174 65.5,103.5C 66.1672,100.023 66.8339,96.6893 67.5,93.5 Z"/></g>
<g><path style="opacity:1" fill="#63b8ab" d="M 187.5,100.5 C 187.5,107.5 187.5,114.5 187.5,121.5C 188.108,126.944 187.442,131.944 185.5,136.5C 186.148,124.402 186.814,112.402 187.5,100.5 Z"/></g>
<g><path style="opacity:1" fill="#6af1fd" d="M 260.5,105.5 C 260.5,111.5 260.5,117.5 260.5,123.5C 256.416,124.383 252.249,126.049 248,128.5C 247.617,127.944 247.117,127.611 246.5,127.5C 246.5,123.167 246.5,118.833 246.5,114.5C 247.234,113.122 247.901,111.622 248.5,110C 252.411,108.209 256.411,106.709 260.5,105.5 Z"/></g>
<g><path style="opacity:1" fill="#66c8c1" d="M 198.5,94.5 C 198.842,93.6618 199.508,93.3284 200.5,93.5C 201.497,110.325 201.83,127.325 201.5,144.5C 200.609,145.11 199.609,145.443 198.5,145.5C 200.213,141.404 200.879,137.07 200.5,132.5C 200.5,126.833 200.5,121.167 200.5,115.5C 201.128,108.087 200.461,101.087 198.5,94.5 Z"/></g>
<g><path style="opacity:1" fill="#9ff8ce" d="M 112.5,103.5 C 113.324,107.312 113.824,111.312 114,115.5C 118.014,113.549 122.181,111.882 126.5,110.5C 126.5,117.5 126.5,124.5 126.5,131.5C 122.323,132.253 118.323,133.586 114.5,135.5C 113.833,131.687 113.166,128.021 112.5,124.5C 112.5,117.5 112.5,110.5 112.5,103.5 Z"/></g>
<g><path style="opacity:1" fill="#73f6f3" d="M 200.5,115.5 C 200.5,121.167 200.5,126.833 200.5,132.5C 195.245,135.75 189.911,137.583 184.5,138C 185.056,137.617 185.389,137.117 185.5,136.5C 187.442,131.944 188.108,126.944 187.5,121.5C 192.369,119.55 196.703,117.55 200.5,115.5 Z"/></g>
<g><path style="opacity:1" fill="#77e5fd" d="M 260.5,123.5 C 260.5,129.5 260.5,135.5 260.5,141.5C 256.661,143.245 252.661,144.745 248.5,146C 247.915,147.302 247.249,148.469 246.5,149.5C 246.5,142.167 246.5,134.833 246.5,127.5C 247.117,127.611 247.617,127.944 248,128.5C 252.249,126.049 256.416,124.383 260.5,123.5 Z"/></g>
<g><path style="opacity:1" fill="#67eef9" d="M 200.5,132.5 C 200.879,137.07 200.213,141.404 198.5,145.5C 184.891,153.888 171.058,161.888 157,169.5C 150.178,166.179 143.678,162.512 137.5,158.5C 138.058,157.21 139.058,156.377 140.5,156C 145.042,154.236 149.708,152.736 154.5,151.5C 155.738,152.412 157.072,152.579 158.5,152C 167.229,146.304 176.229,141.137 185.5,136.5C 185.389,137.117 185.056,137.617 184.5,138C 189.911,137.583 195.245,135.75 200.5,132.5 Z"/></g>
<g><path style="opacity:1" fill="#b0f8be" d="M 67.5,124.5 C 67.5,131.167 67.5,137.833 67.5,144.5C 66.5655,143.432 66.2322,142.099 66.5,140.5C 64.0885,140.137 62.5885,141.137 62,143.5C 61.586,143.043 61.086,142.709 60.5,142.5C 58.4902,144.171 56.1569,144.838 53.5,144.5C 53.5,138.5 53.5,132.5 53.5,126.5C 57.5937,125.853 61.4271,124.52 65,122.5C 66.0111,123.056 66.8444,123.722 67.5,124.5 Z"/></g>
<g><path style="opacity:1" fill="#81ebd7" d="M 126.5,100.5 C 127.331,111.993 127.831,123.659 128,135.5C 132.824,138.151 137.324,141.151 141.5,144.5C 135.555,147.639 129.222,149.306 122.5,149.5C 119.183,147.863 115.85,146.196 112.5,144.5C 112.5,137.833 112.5,131.167 112.5,124.5C 113.166,128.021 113.833,131.687 114.5,135.5C 118.323,133.586 122.323,132.253 126.5,131.5C 126.5,124.5 126.5,117.5 126.5,110.5C 126.5,107.167 126.5,103.833 126.5,100.5 Z"/></g>
<g><path style="opacity:1" fill="#70f0ed" d="M 141.5,144.5 C 146.09,146.439 150.423,148.773 154.5,151.5C 149.708,152.736 145.042,154.236 140.5,156C 139.058,156.377 138.058,157.21 137.5,158.5C 132.299,155.737 127.299,152.737 122.5,149.5C 129.222,149.306 135.555,147.639 141.5,144.5 Z"/></g>
<g><path style="opacity:1" fill="#84d9fe" d="M 260.5,141.5 C 260.5,146.833 260.5,152.167 260.5,157.5C 255.677,158.774 251.01,160.441 246.5,162.5C 246.5,158.167 246.5,153.833 246.5,149.5C 247.249,148.469 247.915,147.302 248.5,146C 252.661,144.745 256.661,143.245 260.5,141.5 Z"/></g>
<g><path style="opacity:1" fill="#97f6d3" d="M 67.5,144.5 C 67.5,150.5 67.5,156.5 67.5,162.5C 66.596,161.791 66.2627,160.791 66.5,159.5C 61.8101,160.349 57.4768,162.016 53.5,164.5C 53.5,157.833 53.5,151.167 53.5,144.5C 56.1569,144.838 58.4902,144.171 60.5,142.5C 61.086,142.709 61.586,143.043 62,143.5C 62.5885,141.137 64.0885,140.137 66.5,140.5C 66.2322,142.099 66.5655,143.432 67.5,144.5 Z"/></g>
<g><path style="opacity:1" fill="#90cefe" d="M 260.5,157.5 C 260.5,161.5 260.5,165.5 260.5,169.5C 256.424,171.749 252.09,173.416 247.5,174.5C 247.737,173.209 247.404,172.209 246.5,171.5C 246.5,168.5 246.5,165.5 246.5,162.5C 251.01,160.441 255.677,158.774 260.5,157.5 Z"/></g>
<g><path style="opacity:1" fill="#7ef5e9" d="M 67.5,162.5 C 67.5,170.167 67.5,177.833 67.5,185.5C 66.8365,183.958 66.1698,182.291 65.5,180.5C 61.5826,182.144 57.5826,183.478 53.5,184.5C 53.5,177.833 53.5,171.167 53.5,164.5C 57.4768,162.016 61.8101,160.349 66.5,159.5C 66.2627,160.791 66.596,161.791 67.5,162.5 Z"/></g>
<g><path style="opacity:1" fill="#83d5f9" d="M 183.5,188.5 C 169.836,193.339 156.17,198.339 142.5,203.5C 142.183,200.428 142.516,197.428 143.5,194.5C 157.5,186.5 171.5,178.5 185.5,170.5C 186.833,176.167 186.833,181.833 185.5,187.5C 184.817,187.863 184.15,188.196 183.5,188.5 Z"/></g>
<g><path style="opacity:1" fill="#a1c0fe" d="M 260.5,169.5 C 260.5,177.167 260.5,184.833 260.5,192.5C 258.61,192.297 257.11,192.963 256,194.5C 255.667,194.167 255.333,193.833 255,193.5C 252.544,195.321 249.711,195.988 246.5,195.5C 246.5,187.5 246.5,179.5 246.5,171.5C 247.404,172.209 247.737,173.209 247.5,174.5C 252.09,173.416 256.424,171.749 260.5,169.5 Z"/></g>
<g><path style="opacity:1" fill="#88caf5" d="M 183.5,188.5 C 170.146,196.6 156.646,204.6 143,212.5C 142.502,209.518 142.335,206.518 142.5,203.5C 156.17,198.339 169.836,193.339 183.5,188.5 Z"/></g>
<g><path style="opacity:1" fill="#6ceffc" d="M 67.5,185.5 C 67.1765,192.022 67.5098,198.355 68.5,204.5C 68.5,205.167 68.8333,205.5 69.5,205.5C 69.2488,207.17 68.5822,208.67 67.5,210C 63.1014,211.97 58.4347,212.803 53.5,212.5C 53.5,203.167 53.5,193.833 53.5,184.5C 57.5826,183.478 61.5826,182.144 65.5,180.5C 66.1698,182.291 66.8365,183.958 67.5,185.5 Z"/></g>
<g><path style="opacity:1" fill="#adaff9" d="M 260.5,192.5 C 260.5,197.5 260.5,202.5 260.5,207.5C 241.751,215.636 222.751,222.969 203.5,229.5C 217.134,220.678 231.134,212.344 245.5,204.5C 246.477,201.713 246.81,198.713 246.5,195.5C 249.711,195.988 252.544,195.321 255,193.5C 255.333,193.833 255.667,194.167 256,194.5C 257.11,192.963 258.61,192.297 260.5,192.5 Z"/></g>
<g><path style="opacity:1" fill="#b5a8f9" d="M 260.5,207.5 C 260.799,209.604 260.466,211.604 259.5,213.5C 250.816,218.528 242.15,223.528 233.5,228.5C 231.372,227.371 229.039,227.204 226.5,228C 209.311,234.937 192.311,241.604 175.5,248C 172.6,248.943 170.267,250.61 168.5,253C 165.28,254.352 161.947,255.186 158.5,255.5C 173.002,246.079 188.002,237.412 203.5,229.5C 222.751,222.969 241.751,215.636 260.5,207.5 Z"/></g>
<g><path style="opacity:1" fill="#75cbdf" d="M 53.5,92.5 C 53.5,97.8333 53.5,103.167 53.5,108.5C 53.5,114.5 53.5,120.5 53.5,126.5C 53.5,132.5 53.5,138.5 53.5,144.5C 53.5,151.167 53.5,157.833 53.5,164.5C 53.5,171.167 53.5,177.833 53.5,184.5C 53.5,193.833 53.5,203.167 53.5,212.5C 58.4347,212.803 63.1014,211.97 67.5,210C 68.5822,208.67 69.2488,207.17 69.5,205.5C 76.0748,208.74 82.4082,212.406 88.5,216.5C 88.3893,217.117 88.056,217.617 87.5,218C 82.2662,220.053 76.9329,221.886 71.5,223.5C 65.4953,220.165 59.4953,216.831 53.5,213.5C 52.1694,173.002 52.1694,132.669 53.5,92.5 Z"/></g>
<g><path style="opacity:1" fill="#87cff8" d="M 88.5,216.5 C 93.4241,218.767 98.0908,221.433 102.5,224.5C 97.4618,228.18 91.7951,230.514 85.5,231.5C 80.4997,229.336 75.833,226.669 71.5,223.5C 76.9329,221.886 82.2662,220.053 87.5,218C 88.056,217.617 88.3893,217.117 88.5,216.5 Z"/></g>
<g><path style="opacity:1" fill="#bca3f9" d="M 233.5,228.5 C 208.527,242.988 183.527,257.488 158.5,272C 157.167,272.667 155.833,272.667 154.5,272C 147.613,267.607 140.613,263.44 133.5,259.5C 134.007,258.141 135.007,257.141 136.5,256.5C 140.745,255.376 144.745,253.71 148.5,251.5C 151.874,252.858 155.207,254.191 158.5,255.5C 161.947,255.186 165.28,254.352 168.5,253C 170.267,250.61 172.6,248.943 175.5,248C 192.311,241.604 209.311,234.937 226.5,228C 229.039,227.204 231.372,227.371 233.5,228.5 Z"/></g>
<g><path style="opacity:1" fill="#95c6fa" d="M 102.5,224.5 C 107.833,227.5 113.167,230.5 118.5,233.5C 113.431,235.933 108.431,238.6 103.5,241.5C 97.2203,238.527 91.2203,235.193 85.5,231.5C 91.7951,230.514 97.4618,228.18 102.5,224.5 Z"/></g>
<g><path style="opacity:1" fill="#a0baf8" d="M 118.5,233.5 C 123.869,236.847 129.203,240.181 134.5,243.5C 128.987,244.506 123.654,246.006 118.5,248C 117.402,248.77 117.402,249.603 118.5,250.5C 112.995,248.251 107.995,245.251 103.5,241.5C 108.431,238.6 113.431,235.933 118.5,233.5 Z"/></g>
<g><path style="opacity:1" fill="#acb0f9" d="M 134.5,243.5 C 139.532,245.678 144.199,248.345 148.5,251.5C 144.745,253.71 140.745,255.376 136.5,256.5C 135.007,257.141 134.007,258.141 133.5,259.5C 128.331,256.75 123.331,253.75 118.5,250.5C 117.402,249.603 117.402,248.77 118.5,248C 123.654,246.006 128.987,244.506 134.5,243.5 Z"/></g>
</svg>
