<svg width="837" height="837" viewBox="0 0 837 837" fill="none" xmlns="http://www.w3.org/2000/svg">
<g clip-path="url(#clip0_685_1709)">
<path d="M0 0V837H837V0H0Z" fill="#010101"/>
<path d="M410 211V212H415L410 211Z" fill="#575757"/>
<path d="M415 211V212H421L415 211Z" fill="#8D8D8D"/>
<path d="M421 211V212H427L421 211Z" fill="#575757"/>
<path d="M301 369.999H390V370.999C350.978 371.322 315.684 401.46 304.721 437.999C299.835 454.284 301 471.214 301 487.999C301 508.37 300.756 527.51 307.692 546.999C325.41 596.782 372.705 624.605 424 623.995C444.249 623.754 465.131 616.167 482 605.301C501.54 592.714 515.443 574.854 525.218 553.999C537.909 526.925 535 496.018 535 466.999H446C453.222 463.951 461.498 463.926 469 461.48C488.269 455.2 504.827 443.322 516.844 426.999C532.32 405.978 535 382.244 535 356.999C535 314.964 531.359 276.687 499.83 245.169C440.196 185.556 338.065 211.301 308.204 287.999C298.087 313.984 301 342.696 301 369.999Z" fill="white"/>
<path d="M433 212V213H436L433 212Z" fill="#575757"/>
<path d="M414 292V293H422L414 292Z" fill="#B7B7B7"/>
<path d="M412 293.529C389.079 298.819 396 332.574 396 350V502C396 522.308 396.203 548.883 425 542.61C446.589 537.906 440 501.973 440 486V333C440 314.491 438.809 287.343 412 293.529Z" fill="#010101"/>
</g>
<defs>
<clipPath id="clip0_685_1709">
<rect width="837" height="837" fill="white"/>
</clipPath>
</defs>
</svg>
