<svg xmlns="http://www.w3.org/2000/svg" width="50" height="49" viewBox="0 0 50 49" fill="none">
  <circle cx="24.8956" cy="23.8956" r="20.8956" fill="#F1F1F1"/>
  <path d="M26.9327 14.102L14.1925 21.4376C13.9768 21.5618 14.065 21.8912 14.314 21.8912H17.2874C17.4217 21.8912 17.5306 22 17.5306 22.1342V33.2526C17.5306 33.5102 17.879 33.5908 17.9924 33.3595L27.2726 14.4195C27.3782 14.204 27.1407 13.9823 26.9327 14.102Z" fill="#0F0F0F"/>
  <path d="M35.1304 14.102L22.3902 21.4376C22.1745 21.5618 22.2627 21.8912 22.5117 21.8912H25.4851C25.6194 21.8912 25.7283 22 25.7283 22.1342V33.2526C25.7283 33.5102 26.0767 33.5908 26.1901 33.3595L35.4703 14.4195C35.5759 14.204 35.3384 13.9823 35.1304 14.102Z" fill="#0F0F0F"/>
</svg>