<svg width="221" height="200" viewBox="0 0 221 200" fill="none" xmlns="http://www.w3.org/2000/svg">
<path d="M132.67 0.346763L1.26047 75.8631C-0.964563 77.1417 -0.0547996 80.5328 2.51328 80.5328H33.183C34.5687 80.5328 35.692 81.6529 35.692 83.0347V197.494C35.692 200.146 39.2855 200.976 40.4546 198.594L136.177 3.61456C137.266 1.39674 134.816 -0.886205 132.67 0.346763Z" fill="#030602"/>
<path d="M217.226 0.346763L85.8163 75.8631C83.5912 77.1417 84.501 80.5328 87.0691 80.5328H117.739C119.124 80.5328 120.248 81.6529 120.248 83.0347V197.494C120.248 200.146 123.841 200.976 125.01 198.594L220.733 3.61456C221.821 1.39674 219.372 -0.886205 217.226 0.346763Z" fill="#030602"/>
</svg>
